G04 #@! TF.GenerationSoftware,KiCad,Pcbnew,(5.0.2)-1*
G04 #@! TF.CreationDate,2020-11-24T18:05:24+01:00*
G04 #@! TF.ProjectId,PCB_BLUETOOTH_V3,5043425f-424c-4554-9554-4f4f54485f56,rev?*
G04 #@! TF.SameCoordinates,Original*
G04 #@! TF.FileFunction,Legend,Bot*
G04 #@! TF.FilePolarity,Positive*
%FSLAX46Y46*%
G04 Gerber Fmt 4.6, Leading zero omitted, Abs format (unit mm)*
G04 Created by KiCad (PCBNEW (5.0.2)-1) date 24/11/2020 18:05:24*
%MOMM*%
%LPD*%
G01*
G04 APERTURE LIST*
%ADD10C,0.187500*%
%ADD11C,0.200000*%
%ADD12C,0.120000*%
%ADD13C,0.254000*%
%ADD14C,0.150000*%
G04 APERTURE END LIST*
D10*
X111848828Y-139401200D02*
X111920257Y-139365485D01*
X112027400Y-139365485D01*
X112134542Y-139401200D01*
X112205971Y-139472628D01*
X112241685Y-139544057D01*
X112277400Y-139686914D01*
X112277400Y-139794057D01*
X112241685Y-139936914D01*
X112205971Y-140008342D01*
X112134542Y-140079771D01*
X112027400Y-140115485D01*
X111955971Y-140115485D01*
X111848828Y-140079771D01*
X111813114Y-140044057D01*
X111813114Y-139794057D01*
X111955971Y-139794057D01*
X111491685Y-140115485D02*
X111491685Y-139365485D01*
X111063114Y-140115485D01*
X111063114Y-139365485D01*
X110705971Y-140115485D02*
X110705971Y-139365485D01*
X110527400Y-139365485D01*
X110420257Y-139401200D01*
X110348828Y-139472628D01*
X110313114Y-139544057D01*
X110277400Y-139686914D01*
X110277400Y-139794057D01*
X110313114Y-139936914D01*
X110348828Y-140008342D01*
X110420257Y-140079771D01*
X110527400Y-140115485D01*
X110705971Y-140115485D01*
X107600885Y-139416285D02*
X107350885Y-140166285D01*
X107100885Y-139416285D01*
X106600885Y-139773428D02*
X106493742Y-139809142D01*
X106458028Y-139844857D01*
X106422314Y-139916285D01*
X106422314Y-140023428D01*
X106458028Y-140094857D01*
X106493742Y-140130571D01*
X106565171Y-140166285D01*
X106850885Y-140166285D01*
X106850885Y-139416285D01*
X106600885Y-139416285D01*
X106529457Y-139452000D01*
X106493742Y-139487714D01*
X106458028Y-139559142D01*
X106458028Y-139630571D01*
X106493742Y-139702000D01*
X106529457Y-139737714D01*
X106600885Y-139773428D01*
X106850885Y-139773428D01*
X106136600Y-139952000D02*
X105779457Y-139952000D01*
X106208028Y-140166285D02*
X105958028Y-139416285D01*
X105708028Y-140166285D01*
X105565171Y-139416285D02*
X105136600Y-139416285D01*
X105350885Y-140166285D02*
X105350885Y-139416285D01*
X105065171Y-140237714D02*
X104493742Y-140237714D01*
X104315171Y-140166285D02*
X104315171Y-139416285D01*
X103958028Y-140166285D02*
X103958028Y-139416285D01*
X103529457Y-140166285D01*
X103529457Y-139416285D01*
X128199828Y-96998285D02*
X128199828Y-97605428D01*
X128164114Y-97676857D01*
X128128400Y-97712571D01*
X128056971Y-97748285D01*
X127914114Y-97748285D01*
X127842685Y-97712571D01*
X127806971Y-97676857D01*
X127771257Y-97605428D01*
X127771257Y-96998285D01*
X127449828Y-97534000D02*
X127092685Y-97534000D01*
X127521257Y-97748285D02*
X127271257Y-96998285D01*
X127021257Y-97748285D01*
X126342685Y-97748285D02*
X126592685Y-97391142D01*
X126771257Y-97748285D02*
X126771257Y-96998285D01*
X126485542Y-96998285D01*
X126414114Y-97034000D01*
X126378400Y-97069714D01*
X126342685Y-97141142D01*
X126342685Y-97248285D01*
X126378400Y-97319714D01*
X126414114Y-97355428D01*
X126485542Y-97391142D01*
X126771257Y-97391142D01*
X126128400Y-96998285D02*
X125699828Y-96998285D01*
X125914114Y-97748285D02*
X125914114Y-96998285D01*
X125628400Y-97819714D02*
X125056971Y-97819714D01*
X124449828Y-97748285D02*
X124699828Y-97391142D01*
X124878400Y-97748285D02*
X124878400Y-96998285D01*
X124592685Y-96998285D01*
X124521257Y-97034000D01*
X124485542Y-97069714D01*
X124449828Y-97141142D01*
X124449828Y-97248285D01*
X124485542Y-97319714D01*
X124521257Y-97355428D01*
X124592685Y-97391142D01*
X124878400Y-97391142D01*
X124199828Y-96998285D02*
X123699828Y-97748285D01*
X123699828Y-96998285D02*
X124199828Y-97748285D01*
X123449828Y-97069714D02*
X123414114Y-97034000D01*
X123342685Y-96998285D01*
X123164114Y-96998285D01*
X123092685Y-97034000D01*
X123056971Y-97069714D01*
X123021257Y-97141142D01*
X123021257Y-97212571D01*
X123056971Y-97319714D01*
X123485542Y-97748285D01*
X123021257Y-97748285D01*
X126180142Y-102865685D02*
X126180142Y-103472828D01*
X126144428Y-103544257D01*
X126108714Y-103579971D01*
X126037285Y-103615685D01*
X125894428Y-103615685D01*
X125823000Y-103579971D01*
X125787285Y-103544257D01*
X125751571Y-103472828D01*
X125751571Y-102865685D01*
X125430142Y-103401400D02*
X125073000Y-103401400D01*
X125501571Y-103615685D02*
X125251571Y-102865685D01*
X125001571Y-103615685D01*
X124323000Y-103615685D02*
X124573000Y-103258542D01*
X124751571Y-103615685D02*
X124751571Y-102865685D01*
X124465857Y-102865685D01*
X124394428Y-102901400D01*
X124358714Y-102937114D01*
X124323000Y-103008542D01*
X124323000Y-103115685D01*
X124358714Y-103187114D01*
X124394428Y-103222828D01*
X124465857Y-103258542D01*
X124751571Y-103258542D01*
X124108714Y-102865685D02*
X123680142Y-102865685D01*
X123894428Y-103615685D02*
X123894428Y-102865685D01*
X123608714Y-103687114D02*
X123037285Y-103687114D01*
X122965857Y-102865685D02*
X122537285Y-102865685D01*
X122751571Y-103615685D02*
X122751571Y-102865685D01*
X122358714Y-102865685D02*
X121858714Y-103615685D01*
X121858714Y-102865685D02*
X122358714Y-103615685D01*
X121608714Y-102937114D02*
X121573000Y-102901400D01*
X121501571Y-102865685D01*
X121323000Y-102865685D01*
X121251571Y-102901400D01*
X121215857Y-102937114D01*
X121180142Y-103008542D01*
X121180142Y-103079971D01*
X121215857Y-103187114D01*
X121644428Y-103615685D01*
X121180142Y-103615685D01*
D11*
X129236571Y-67477419D02*
X129236571Y-66377419D01*
X129236571Y-67425038D02*
X129341333Y-67477419D01*
X129550857Y-67477419D01*
X129655619Y-67425038D01*
X129708000Y-67372657D01*
X129760380Y-67267895D01*
X129760380Y-66953609D01*
X129708000Y-66848847D01*
X129655619Y-66796466D01*
X129550857Y-66744085D01*
X129341333Y-66744085D01*
X129236571Y-66796466D01*
X128293714Y-67425038D02*
X128398476Y-67477419D01*
X128608000Y-67477419D01*
X128712761Y-67425038D01*
X128765142Y-67320276D01*
X128765142Y-66901228D01*
X128712761Y-66796466D01*
X128608000Y-66744085D01*
X128398476Y-66744085D01*
X128293714Y-66796466D01*
X128241333Y-66901228D01*
X128241333Y-67005990D01*
X128765142Y-67110752D01*
X127769904Y-67477419D02*
X127769904Y-66377419D01*
X127769904Y-66796466D02*
X127665142Y-66744085D01*
X127455619Y-66744085D01*
X127350857Y-66796466D01*
X127298476Y-66848847D01*
X127246095Y-66953609D01*
X127246095Y-67267895D01*
X127298476Y-67372657D01*
X127350857Y-67425038D01*
X127455619Y-67477419D01*
X127665142Y-67477419D01*
X127769904Y-67425038D01*
X126303238Y-66744085D02*
X126303238Y-67477419D01*
X126774666Y-66744085D02*
X126774666Y-67320276D01*
X126722285Y-67425038D01*
X126617523Y-67477419D01*
X126460380Y-67477419D01*
X126355619Y-67425038D01*
X126303238Y-67372657D01*
X125308000Y-66744085D02*
X125308000Y-67634561D01*
X125360380Y-67739323D01*
X125412761Y-67791704D01*
X125517523Y-67844085D01*
X125674666Y-67844085D01*
X125779428Y-67791704D01*
X125308000Y-67425038D02*
X125412761Y-67477419D01*
X125622285Y-67477419D01*
X125727047Y-67425038D01*
X125779428Y-67372657D01*
X125831809Y-67267895D01*
X125831809Y-66953609D01*
X125779428Y-66848847D01*
X125727047Y-66796466D01*
X125622285Y-66744085D01*
X125412761Y-66744085D01*
X125308000Y-66796466D01*
X122969348Y-67077488D02*
X123223348Y-67077488D01*
X123731348Y-67077488D02*
X123985348Y-67077488D01*
X123223348Y-66569488D02*
X123223348Y-67585488D01*
X123223348Y-67077488D02*
X123731348Y-66823488D01*
X123731348Y-67331488D02*
X123223348Y-67077488D01*
X123731348Y-66823488D02*
X123731348Y-67331488D01*
D10*
X137125228Y-59942771D02*
X137018085Y-59978485D01*
X136839514Y-59978485D01*
X136768085Y-59942771D01*
X136732371Y-59907057D01*
X136696657Y-59835628D01*
X136696657Y-59764200D01*
X136732371Y-59692771D01*
X136768085Y-59657057D01*
X136839514Y-59621342D01*
X136982371Y-59585628D01*
X137053800Y-59549914D01*
X137089514Y-59514200D01*
X137125228Y-59442771D01*
X137125228Y-59371342D01*
X137089514Y-59299914D01*
X137053800Y-59264200D01*
X136982371Y-59228485D01*
X136803800Y-59228485D01*
X136696657Y-59264200D01*
X136482371Y-59228485D02*
X136053800Y-59228485D01*
X136268085Y-59978485D02*
X136268085Y-59228485D01*
X135803800Y-59585628D02*
X135553800Y-59585628D01*
X135446657Y-59978485D02*
X135803800Y-59978485D01*
X135803800Y-59228485D01*
X135446657Y-59228485D01*
X134696657Y-59978485D02*
X134946657Y-59621342D01*
X135125228Y-59978485D02*
X135125228Y-59228485D01*
X134839514Y-59228485D01*
X134768085Y-59264200D01*
X134732371Y-59299914D01*
X134696657Y-59371342D01*
X134696657Y-59478485D01*
X134732371Y-59549914D01*
X134768085Y-59585628D01*
X134839514Y-59621342D01*
X135125228Y-59621342D01*
X134375228Y-59585628D02*
X134125228Y-59585628D01*
X134018085Y-59978485D02*
X134375228Y-59978485D01*
X134375228Y-59228485D01*
X134018085Y-59228485D01*
X133553800Y-59228485D02*
X133410942Y-59228485D01*
X133339514Y-59264200D01*
X133268085Y-59335628D01*
X133232371Y-59478485D01*
X133232371Y-59728485D01*
X133268085Y-59871342D01*
X133339514Y-59942771D01*
X133410942Y-59978485D01*
X133553800Y-59978485D01*
X133625228Y-59942771D01*
X133696657Y-59871342D01*
X133732371Y-59728485D01*
X133732371Y-59478485D01*
X133696657Y-59335628D01*
X133625228Y-59264200D01*
X133553800Y-59228485D01*
X136912171Y-68741485D02*
X136912171Y-67991485D01*
X136662171Y-68527200D01*
X136412171Y-67991485D01*
X136412171Y-68741485D01*
X135912171Y-67991485D02*
X135769314Y-67991485D01*
X135697885Y-68027200D01*
X135626457Y-68098628D01*
X135590742Y-68241485D01*
X135590742Y-68491485D01*
X135626457Y-68634342D01*
X135697885Y-68705771D01*
X135769314Y-68741485D01*
X135912171Y-68741485D01*
X135983600Y-68705771D01*
X136055028Y-68634342D01*
X136090742Y-68491485D01*
X136090742Y-68241485D01*
X136055028Y-68098628D01*
X135983600Y-68027200D01*
X135912171Y-67991485D01*
X135269314Y-68741485D02*
X135269314Y-67991485D01*
X134840742Y-68741485D01*
X134840742Y-67991485D01*
X134340742Y-67991485D02*
X134197885Y-67991485D01*
X134126457Y-68027200D01*
X134055028Y-68098628D01*
X134019314Y-68241485D01*
X134019314Y-68491485D01*
X134055028Y-68634342D01*
X134126457Y-68705771D01*
X134197885Y-68741485D01*
X134340742Y-68741485D01*
X134412171Y-68705771D01*
X134483600Y-68634342D01*
X134519314Y-68491485D01*
X134519314Y-68241485D01*
X134483600Y-68098628D01*
X134412171Y-68027200D01*
X134340742Y-67991485D01*
X133175142Y-71753000D02*
X132818000Y-71753000D01*
X133246571Y-71967285D02*
X132996571Y-71217285D01*
X132746571Y-71967285D01*
X132532285Y-71288714D02*
X132496571Y-71253000D01*
X132425142Y-71217285D01*
X132246571Y-71217285D01*
X132175142Y-71253000D01*
X132139428Y-71288714D01*
X132103714Y-71360142D01*
X132103714Y-71431571D01*
X132139428Y-71538714D01*
X132568000Y-71967285D01*
X132103714Y-71967285D01*
X131782285Y-71967285D02*
X131782285Y-71217285D01*
X131603714Y-71217285D01*
X131496571Y-71253000D01*
X131425142Y-71324428D01*
X131389428Y-71395857D01*
X131353714Y-71538714D01*
X131353714Y-71645857D01*
X131389428Y-71788714D01*
X131425142Y-71860142D01*
X131496571Y-71931571D01*
X131603714Y-71967285D01*
X131782285Y-71967285D01*
X131032285Y-71967285D02*
X131032285Y-71217285D01*
X130746571Y-71217285D01*
X130675142Y-71253000D01*
X130639428Y-71288714D01*
X130603714Y-71360142D01*
X130603714Y-71467285D01*
X130639428Y-71538714D01*
X130675142Y-71574428D01*
X130746571Y-71610142D01*
X131032285Y-71610142D01*
X130282285Y-71967285D02*
X130282285Y-71217285D01*
X129925142Y-71967285D02*
X129925142Y-71217285D01*
X129496571Y-71967285D01*
X129496571Y-71217285D01*
X113118828Y-99167600D02*
X113190257Y-99131885D01*
X113297400Y-99131885D01*
X113404542Y-99167600D01*
X113475971Y-99239028D01*
X113511685Y-99310457D01*
X113547400Y-99453314D01*
X113547400Y-99560457D01*
X113511685Y-99703314D01*
X113475971Y-99774742D01*
X113404542Y-99846171D01*
X113297400Y-99881885D01*
X113225971Y-99881885D01*
X113118828Y-99846171D01*
X113083114Y-99810457D01*
X113083114Y-99560457D01*
X113225971Y-99560457D01*
X112761685Y-99881885D02*
X112761685Y-99131885D01*
X112333114Y-99881885D01*
X112333114Y-99131885D01*
X111975971Y-99881885D02*
X111975971Y-99131885D01*
X111797400Y-99131885D01*
X111690257Y-99167600D01*
X111618828Y-99239028D01*
X111583114Y-99310457D01*
X111547400Y-99453314D01*
X111547400Y-99560457D01*
X111583114Y-99703314D01*
X111618828Y-99774742D01*
X111690257Y-99846171D01*
X111797400Y-99881885D01*
X111975971Y-99881885D01*
D11*
X107067904Y-92953619D02*
X107067904Y-91853619D01*
X106701238Y-92639333D01*
X106334571Y-91853619D01*
X106334571Y-92953619D01*
X105182190Y-92848857D02*
X105234571Y-92901238D01*
X105391714Y-92953619D01*
X105496476Y-92953619D01*
X105653619Y-92901238D01*
X105758380Y-92796476D01*
X105810761Y-92691714D01*
X105863142Y-92482190D01*
X105863142Y-92325047D01*
X105810761Y-92115523D01*
X105758380Y-92010761D01*
X105653619Y-91906000D01*
X105496476Y-91853619D01*
X105391714Y-91853619D01*
X105234571Y-91906000D01*
X105182190Y-91958380D01*
X104186952Y-92953619D02*
X104710761Y-92953619D01*
X104710761Y-91853619D01*
X103191714Y-92953619D02*
X103558380Y-92429809D01*
X103820285Y-92953619D02*
X103820285Y-91853619D01*
X103401238Y-91853619D01*
X103296476Y-91906000D01*
X103244095Y-91958380D01*
X103191714Y-92063142D01*
X103191714Y-92220285D01*
X103244095Y-92325047D01*
X103296476Y-92377428D01*
X103401238Y-92429809D01*
X103820285Y-92429809D01*
D10*
X121594285Y-96363285D02*
X121594285Y-96970428D01*
X121558571Y-97041857D01*
X121522857Y-97077571D01*
X121451428Y-97113285D01*
X121308571Y-97113285D01*
X121237142Y-97077571D01*
X121201428Y-97041857D01*
X121165714Y-96970428D01*
X121165714Y-96363285D01*
X120844285Y-96899000D02*
X120487142Y-96899000D01*
X120915714Y-97113285D02*
X120665714Y-96363285D01*
X120415714Y-97113285D01*
X119737142Y-97113285D02*
X119987142Y-96756142D01*
X120165714Y-97113285D02*
X120165714Y-96363285D01*
X119880000Y-96363285D01*
X119808571Y-96399000D01*
X119772857Y-96434714D01*
X119737142Y-96506142D01*
X119737142Y-96613285D01*
X119772857Y-96684714D01*
X119808571Y-96720428D01*
X119880000Y-96756142D01*
X120165714Y-96756142D01*
X119522857Y-96363285D02*
X119094285Y-96363285D01*
X119308571Y-97113285D02*
X119308571Y-96363285D01*
X119022857Y-97184714D02*
X118451428Y-97184714D01*
X117844285Y-97113285D02*
X118094285Y-96756142D01*
X118272857Y-97113285D02*
X118272857Y-96363285D01*
X117987142Y-96363285D01*
X117915714Y-96399000D01*
X117880000Y-96434714D01*
X117844285Y-96506142D01*
X117844285Y-96613285D01*
X117880000Y-96684714D01*
X117915714Y-96720428D01*
X117987142Y-96756142D01*
X118272857Y-96756142D01*
X117594285Y-96363285D02*
X117094285Y-97113285D01*
X117094285Y-96363285D02*
X117594285Y-97113285D01*
X121403400Y-94001085D02*
X121403400Y-94608228D01*
X121367685Y-94679657D01*
X121331971Y-94715371D01*
X121260542Y-94751085D01*
X121117685Y-94751085D01*
X121046257Y-94715371D01*
X121010542Y-94679657D01*
X120974828Y-94608228D01*
X120974828Y-94001085D01*
X120653400Y-94536800D02*
X120296257Y-94536800D01*
X120724828Y-94751085D02*
X120474828Y-94001085D01*
X120224828Y-94751085D01*
X119546257Y-94751085D02*
X119796257Y-94393942D01*
X119974828Y-94751085D02*
X119974828Y-94001085D01*
X119689114Y-94001085D01*
X119617685Y-94036800D01*
X119581971Y-94072514D01*
X119546257Y-94143942D01*
X119546257Y-94251085D01*
X119581971Y-94322514D01*
X119617685Y-94358228D01*
X119689114Y-94393942D01*
X119974828Y-94393942D01*
X119331971Y-94001085D02*
X118903400Y-94001085D01*
X119117685Y-94751085D02*
X119117685Y-94001085D01*
X118831971Y-94822514D02*
X118260542Y-94822514D01*
X118189114Y-94001085D02*
X117760542Y-94001085D01*
X117974828Y-94751085D02*
X117974828Y-94001085D01*
X117581971Y-94001085D02*
X117081971Y-94751085D01*
X117081971Y-94001085D02*
X117581971Y-94751085D01*
D11*
X133974476Y-91520095D02*
X133974476Y-90220095D01*
X133479238Y-90220095D01*
X133355428Y-90282000D01*
X133293523Y-90343904D01*
X133231619Y-90467714D01*
X133231619Y-90653428D01*
X133293523Y-90777238D01*
X133355428Y-90839142D01*
X133479238Y-90901047D01*
X133974476Y-90901047D01*
X131993523Y-90282000D02*
X132117333Y-90220095D01*
X132303047Y-90220095D01*
X132488761Y-90282000D01*
X132612571Y-90405809D01*
X132674476Y-90529619D01*
X132736380Y-90777238D01*
X132736380Y-90962952D01*
X132674476Y-91210571D01*
X132612571Y-91334380D01*
X132488761Y-91458190D01*
X132303047Y-91520095D01*
X132179238Y-91520095D01*
X131993523Y-91458190D01*
X131931619Y-91396285D01*
X131931619Y-90962952D01*
X132179238Y-90962952D01*
X130631619Y-91396285D02*
X130693523Y-91458190D01*
X130879238Y-91520095D01*
X131003047Y-91520095D01*
X131188761Y-91458190D01*
X131312571Y-91334380D01*
X131374476Y-91210571D01*
X131436380Y-90962952D01*
X131436380Y-90777238D01*
X131374476Y-90529619D01*
X131312571Y-90405809D01*
X131188761Y-90282000D01*
X131003047Y-90220095D01*
X130879238Y-90220095D01*
X130693523Y-90282000D01*
X130631619Y-90343904D01*
X133974476Y-89234095D02*
X133974476Y-87934095D01*
X133479238Y-87934095D01*
X133355428Y-87996000D01*
X133293523Y-88057904D01*
X133231619Y-88181714D01*
X133231619Y-88367428D01*
X133293523Y-88491238D01*
X133355428Y-88553142D01*
X133479238Y-88615047D01*
X133974476Y-88615047D01*
X131993523Y-87996000D02*
X132117333Y-87934095D01*
X132303047Y-87934095D01*
X132488761Y-87996000D01*
X132612571Y-88119809D01*
X132674476Y-88243619D01*
X132736380Y-88491238D01*
X132736380Y-88676952D01*
X132674476Y-88924571D01*
X132612571Y-89048380D01*
X132488761Y-89172190D01*
X132303047Y-89234095D01*
X132179238Y-89234095D01*
X131993523Y-89172190D01*
X131931619Y-89110285D01*
X131931619Y-88676952D01*
X132179238Y-88676952D01*
X131374476Y-89234095D02*
X131374476Y-87934095D01*
X131064952Y-87934095D01*
X130879238Y-87996000D01*
X130755428Y-88119809D01*
X130693523Y-88243619D01*
X130631619Y-88491238D01*
X130631619Y-88676952D01*
X130693523Y-88924571D01*
X130755428Y-89048380D01*
X130879238Y-89172190D01*
X131064952Y-89234095D01*
X131374476Y-89234095D01*
X133172095Y-85202000D02*
X133276857Y-85140095D01*
X133434000Y-85140095D01*
X133591142Y-85202000D01*
X133695904Y-85325809D01*
X133748285Y-85449619D01*
X133800666Y-85697238D01*
X133800666Y-85882952D01*
X133748285Y-86130571D01*
X133695904Y-86254380D01*
X133591142Y-86378190D01*
X133434000Y-86440095D01*
X133329238Y-86440095D01*
X133172095Y-86378190D01*
X133119714Y-86316285D01*
X133119714Y-85882952D01*
X133329238Y-85882952D01*
X132648285Y-86440095D02*
X132648285Y-85140095D01*
X132019714Y-86440095D01*
X132019714Y-85140095D01*
X131495904Y-86440095D02*
X131495904Y-85140095D01*
X131234000Y-85140095D01*
X131076857Y-85202000D01*
X130972095Y-85325809D01*
X130919714Y-85449619D01*
X130867333Y-85697238D01*
X130867333Y-85882952D01*
X130919714Y-86130571D01*
X130972095Y-86254380D01*
X131076857Y-86378190D01*
X131234000Y-86440095D01*
X131495904Y-86440095D01*
X133695904Y-82600095D02*
X133014952Y-82600095D01*
X133381619Y-83095333D01*
X133224476Y-83095333D01*
X133119714Y-83157238D01*
X133067333Y-83219142D01*
X133014952Y-83342952D01*
X133014952Y-83652476D01*
X133067333Y-83776285D01*
X133119714Y-83838190D01*
X133224476Y-83900095D01*
X133538761Y-83900095D01*
X133643523Y-83838190D01*
X133695904Y-83776285D01*
X132700666Y-82600095D02*
X132334000Y-83900095D01*
X131967333Y-82600095D01*
X131705428Y-82600095D02*
X131024476Y-82600095D01*
X131391142Y-83095333D01*
X131234000Y-83095333D01*
X131129238Y-83157238D01*
X131076857Y-83219142D01*
X131024476Y-83342952D01*
X131024476Y-83652476D01*
X131076857Y-83776285D01*
X131129238Y-83838190D01*
X131234000Y-83900095D01*
X131548285Y-83900095D01*
X131653047Y-83838190D01*
X131705428Y-83776285D01*
X133991904Y-81360095D02*
X133991904Y-80060095D01*
X133625238Y-80988666D01*
X133258571Y-80060095D01*
X133258571Y-81360095D01*
X132106190Y-81236285D02*
X132158571Y-81298190D01*
X132315714Y-81360095D01*
X132420476Y-81360095D01*
X132577619Y-81298190D01*
X132682380Y-81174380D01*
X132734761Y-81050571D01*
X132787142Y-80802952D01*
X132787142Y-80617238D01*
X132734761Y-80369619D01*
X132682380Y-80245809D01*
X132577619Y-80122000D01*
X132420476Y-80060095D01*
X132315714Y-80060095D01*
X132158571Y-80122000D01*
X132106190Y-80183904D01*
X131110952Y-81360095D02*
X131634761Y-81360095D01*
X131634761Y-80060095D01*
X130115714Y-81360095D02*
X130482380Y-80741047D01*
X130744285Y-81360095D02*
X130744285Y-80060095D01*
X130325238Y-80060095D01*
X130220476Y-80122000D01*
X130168095Y-80183904D01*
X130115714Y-80307714D01*
X130115714Y-80493428D01*
X130168095Y-80617238D01*
X130220476Y-80679142D01*
X130325238Y-80741047D01*
X130744285Y-80741047D01*
X133222857Y-52182000D02*
X133365714Y-52120095D01*
X133580000Y-52120095D01*
X133794285Y-52182000D01*
X133937142Y-52305809D01*
X134008571Y-52429619D01*
X134080000Y-52677238D01*
X134080000Y-52862952D01*
X134008571Y-53110571D01*
X133937142Y-53234380D01*
X133794285Y-53358190D01*
X133580000Y-53420095D01*
X133437142Y-53420095D01*
X133222857Y-53358190D01*
X133151428Y-53296285D01*
X133151428Y-52862952D01*
X133437142Y-52862952D01*
X132508571Y-53420095D02*
X132508571Y-52120095D01*
X131651428Y-53420095D01*
X131651428Y-52120095D01*
X130937142Y-53420095D02*
X130937142Y-52120095D01*
X130580000Y-52120095D01*
X130365714Y-52182000D01*
X130222857Y-52305809D01*
X130151428Y-52429619D01*
X130080000Y-52677238D01*
X130080000Y-52862952D01*
X130151428Y-53110571D01*
X130222857Y-53234380D01*
X130365714Y-53358190D01*
X130580000Y-53420095D01*
X130937142Y-53420095D01*
X133312666Y-50756285D02*
X133374571Y-50818190D01*
X133560285Y-50880095D01*
X133684095Y-50880095D01*
X133869809Y-50818190D01*
X133993619Y-50694380D01*
X134055523Y-50570571D01*
X134117428Y-50322952D01*
X134117428Y-50137238D01*
X134055523Y-49889619D01*
X133993619Y-49765809D01*
X133869809Y-49642000D01*
X133684095Y-49580095D01*
X133560285Y-49580095D01*
X133374571Y-49642000D01*
X133312666Y-49703904D01*
X132817428Y-50818190D02*
X132631714Y-50880095D01*
X132322190Y-50880095D01*
X132198380Y-50818190D01*
X132136476Y-50756285D01*
X132074571Y-50632476D01*
X132074571Y-50508666D01*
X132136476Y-50384857D01*
X132198380Y-50322952D01*
X132322190Y-50261047D01*
X132569809Y-50199142D01*
X132693619Y-50137238D01*
X132755523Y-50075333D01*
X132817428Y-49951523D01*
X132817428Y-49827714D01*
X132755523Y-49703904D01*
X132693619Y-49642000D01*
X132569809Y-49580095D01*
X132260285Y-49580095D01*
X132074571Y-49642000D01*
X133226857Y-48216285D02*
X133298285Y-48278190D01*
X133512571Y-48340095D01*
X133655428Y-48340095D01*
X133869714Y-48278190D01*
X134012571Y-48154380D01*
X134084000Y-48030571D01*
X134155428Y-47782952D01*
X134155428Y-47597238D01*
X134084000Y-47349619D01*
X134012571Y-47225809D01*
X133869714Y-47102000D01*
X133655428Y-47040095D01*
X133512571Y-47040095D01*
X133298285Y-47102000D01*
X133226857Y-47163904D01*
X131869714Y-48340095D02*
X132584000Y-48340095D01*
X132584000Y-47040095D01*
X131369714Y-48340095D02*
X131369714Y-47040095D01*
X130512571Y-48340095D02*
X131155428Y-47597238D01*
X130512571Y-47040095D02*
X131369714Y-47782952D01*
X134122857Y-45546095D02*
X134122857Y-44246095D01*
X133689523Y-45174666D01*
X133256190Y-44246095D01*
X133256190Y-45546095D01*
X132637142Y-45546095D02*
X132637142Y-44246095D01*
X132080000Y-45484190D02*
X131894285Y-45546095D01*
X131584761Y-45546095D01*
X131460952Y-45484190D01*
X131399047Y-45422285D01*
X131337142Y-45298476D01*
X131337142Y-45174666D01*
X131399047Y-45050857D01*
X131460952Y-44988952D01*
X131584761Y-44927047D01*
X131832380Y-44865142D01*
X131956190Y-44803238D01*
X132018095Y-44741333D01*
X132080000Y-44617523D01*
X132080000Y-44493714D01*
X132018095Y-44369904D01*
X131956190Y-44308000D01*
X131832380Y-44246095D01*
X131522857Y-44246095D01*
X131337142Y-44308000D01*
X130532380Y-44246095D02*
X130284761Y-44246095D01*
X130160952Y-44308000D01*
X130037142Y-44431809D01*
X129975238Y-44679428D01*
X129975238Y-45112761D01*
X130037142Y-45360380D01*
X130160952Y-45484190D01*
X130284761Y-45546095D01*
X130532380Y-45546095D01*
X130656190Y-45484190D01*
X130780000Y-45360380D01*
X130841904Y-45112761D01*
X130841904Y-44679428D01*
X130780000Y-44431809D01*
X130656190Y-44308000D01*
X130532380Y-44246095D01*
X134122857Y-43006095D02*
X134122857Y-41706095D01*
X133689523Y-42634666D01*
X133256190Y-41706095D01*
X133256190Y-43006095D01*
X132389523Y-41706095D02*
X132141904Y-41706095D01*
X132018095Y-41768000D01*
X131894285Y-41891809D01*
X131832380Y-42139428D01*
X131832380Y-42572761D01*
X131894285Y-42820380D01*
X132018095Y-42944190D01*
X132141904Y-43006095D01*
X132389523Y-43006095D01*
X132513333Y-42944190D01*
X132637142Y-42820380D01*
X132699047Y-42572761D01*
X132699047Y-42139428D01*
X132637142Y-41891809D01*
X132513333Y-41768000D01*
X132389523Y-41706095D01*
X131337142Y-42944190D02*
X131151428Y-43006095D01*
X130841904Y-43006095D01*
X130718095Y-42944190D01*
X130656190Y-42882285D01*
X130594285Y-42758476D01*
X130594285Y-42634666D01*
X130656190Y-42510857D01*
X130718095Y-42448952D01*
X130841904Y-42387047D01*
X131089523Y-42325142D01*
X131213333Y-42263238D01*
X131275238Y-42201333D01*
X131337142Y-42077523D01*
X131337142Y-41953714D01*
X131275238Y-41829904D01*
X131213333Y-41768000D01*
X131089523Y-41706095D01*
X130780000Y-41706095D01*
X130594285Y-41768000D01*
X130037142Y-43006095D02*
X130037142Y-41706095D01*
X134451523Y-39420095D02*
X133646761Y-39420095D01*
X134080095Y-39915333D01*
X133894380Y-39915333D01*
X133770571Y-39977238D01*
X133708666Y-40039142D01*
X133646761Y-40162952D01*
X133646761Y-40472476D01*
X133708666Y-40596285D01*
X133770571Y-40658190D01*
X133894380Y-40720095D01*
X134265809Y-40720095D01*
X134389619Y-40658190D01*
X134451523Y-40596285D01*
X133275333Y-39420095D02*
X132842000Y-40720095D01*
X132408666Y-39420095D01*
X132099142Y-39420095D02*
X131294380Y-39420095D01*
X131727714Y-39915333D01*
X131542000Y-39915333D01*
X131418190Y-39977238D01*
X131356285Y-40039142D01*
X131294380Y-40162952D01*
X131294380Y-40472476D01*
X131356285Y-40596285D01*
X131418190Y-40658190D01*
X131542000Y-40720095D01*
X131913428Y-40720095D01*
X132037238Y-40658190D01*
X132099142Y-40596285D01*
X108406952Y-103174095D02*
X108406952Y-104226476D01*
X108345047Y-104350285D01*
X108283142Y-104412190D01*
X108159333Y-104474095D01*
X107911714Y-104474095D01*
X107787904Y-104412190D01*
X107726000Y-104350285D01*
X107664095Y-104226476D01*
X107664095Y-103174095D01*
X107354571Y-104597904D02*
X106364095Y-104597904D01*
X106240285Y-103174095D02*
X105497428Y-103174095D01*
X105868857Y-104474095D02*
X105868857Y-103174095D01*
X105187904Y-103174095D02*
X104321238Y-104474095D01*
X104321238Y-103174095D02*
X105187904Y-104474095D01*
X108307714Y-99110095D02*
X108307714Y-100162476D01*
X108245809Y-100286285D01*
X108183904Y-100348190D01*
X108060095Y-100410095D01*
X107812476Y-100410095D01*
X107688666Y-100348190D01*
X107626761Y-100286285D01*
X107564857Y-100162476D01*
X107564857Y-99110095D01*
X107255333Y-100533904D02*
X106264857Y-100533904D01*
X105212476Y-100410095D02*
X105645809Y-99791047D01*
X105955333Y-100410095D02*
X105955333Y-99110095D01*
X105460095Y-99110095D01*
X105336285Y-99172000D01*
X105274380Y-99233904D01*
X105212476Y-99357714D01*
X105212476Y-99543428D01*
X105274380Y-99667238D01*
X105336285Y-99729142D01*
X105460095Y-99791047D01*
X105955333Y-99791047D01*
X104779142Y-99110095D02*
X103912476Y-100410095D01*
X103912476Y-99110095D02*
X104779142Y-100410095D01*
D12*
G04 #@! TO.C,TP3*
X114923800Y-77495400D02*
G75*
G03X114923800Y-77495400I-700000J0D01*
G01*
G04 #@! TO.C,D11*
X124131000Y-67791000D02*
X121671000Y-67791000D01*
X121671000Y-67791000D02*
X121671000Y-66321000D01*
X121671000Y-66321000D02*
X124131000Y-66321000D01*
G04 #@! TO.C,C32*
X114048000Y-74137733D02*
X114048000Y-74480267D01*
X113028000Y-74137733D02*
X113028000Y-74480267D01*
D11*
G04 #@! TO.C,IC2*
X127116000Y-75718000D02*
X117816000Y-75718000D01*
X117816000Y-75718000D02*
X117816000Y-85018000D01*
X117816000Y-85018000D02*
X127116000Y-85018000D01*
X127116000Y-85018000D02*
X127116000Y-75718000D01*
D13*
X128741000Y-75168000D02*
G75*
G03X128741000Y-75168000I-200000J0D01*
G01*
D12*
G04 #@! TO.C,C28*
X125506267Y-57406000D02*
X125163733Y-57406000D01*
X125506267Y-56386000D02*
X125163733Y-56386000D01*
G04 #@! TO.C,C30*
X116301733Y-68582000D02*
X116644267Y-68582000D01*
X116301733Y-67562000D02*
X116644267Y-67562000D01*
G04 #@! TO.C,L1*
X106424252Y-73862000D02*
X105901748Y-73862000D01*
X106424252Y-72442000D02*
X105901748Y-72442000D01*
G04 #@! TO.C,L4*
X109980252Y-68124000D02*
X109457748Y-68124000D01*
X109980252Y-69544000D02*
X109457748Y-69544000D01*
G04 #@! TO.C,L5*
X121950267Y-57406000D02*
X121607733Y-57406000D01*
X121950267Y-56386000D02*
X121607733Y-56386000D01*
G04 #@! TO.C,L6*
X117938733Y-64264000D02*
X118281267Y-64264000D01*
X117938733Y-63244000D02*
X118281267Y-63244000D01*
G04 #@! TO.C,C8*
X124951748Y-62432000D02*
X125474252Y-62432000D01*
X124951748Y-61012000D02*
X125474252Y-61012000D01*
G04 #@! TO.C,C18*
X106179252Y-74728000D02*
X105656748Y-74728000D01*
X106179252Y-76148000D02*
X105656748Y-76148000D01*
G04 #@! TO.C,C20*
X113267748Y-84888000D02*
X113790252Y-84888000D01*
X113267748Y-86308000D02*
X113790252Y-86308000D01*
G04 #@! TO.C,C23*
X105104000Y-62476748D02*
X105104000Y-62999252D01*
X103684000Y-62476748D02*
X103684000Y-62999252D01*
G04 #@! TO.C,C26*
X109009752Y-71576000D02*
X108487248Y-71576000D01*
X109009752Y-70156000D02*
X108487248Y-70156000D01*
G04 #@! TO.C,C29*
X121395748Y-57964000D02*
X121918252Y-57964000D01*
X121395748Y-59384000D02*
X121918252Y-59384000D01*
G04 #@! TO.C,C31*
X117346252Y-66496000D02*
X116823748Y-66496000D01*
X117346252Y-65076000D02*
X116823748Y-65076000D01*
G04 #@! TO.C,R12*
X120702000Y-51055748D02*
X120702000Y-51578252D01*
X122122000Y-51055748D02*
X122122000Y-51578252D01*
G04 #@! TO.C,R14*
X121903748Y-53900000D02*
X122426252Y-53900000D01*
X121903748Y-55320000D02*
X122426252Y-55320000D01*
G04 #@! TO.C,R15*
X117594748Y-70814000D02*
X118117252Y-70814000D01*
X117594748Y-69394000D02*
X118117252Y-69394000D01*
G04 #@! TO.C,R16*
X106628000Y-40923248D02*
X106628000Y-41445752D01*
X105208000Y-40923248D02*
X105208000Y-41445752D01*
G04 #@! TO.C,R17*
X121649748Y-64464000D02*
X122172252Y-64464000D01*
X121649748Y-63044000D02*
X122172252Y-63044000D01*
G04 #@! TO.C,R20*
X113486000Y-106696252D02*
X113486000Y-106173748D01*
X112066000Y-106696252D02*
X112066000Y-106173748D01*
G04 #@! TO.C,R22*
X128980000Y-106696252D02*
X128980000Y-106173748D01*
X127560000Y-106696252D02*
X127560000Y-106173748D01*
G04 #@! TO.C,R24*
X123496000Y-106696252D02*
X123496000Y-106173748D01*
X124916000Y-106696252D02*
X124916000Y-106173748D01*
G04 #@! TO.C,R26*
X109676000Y-106696252D02*
X109676000Y-106173748D01*
X108256000Y-106696252D02*
X108256000Y-106173748D01*
G04 #@! TO.C,R27*
X117550000Y-106696252D02*
X117550000Y-106173748D01*
X116130000Y-106696252D02*
X116130000Y-106173748D01*
G04 #@! TO.C,R30*
X132536000Y-106678252D02*
X132536000Y-106155748D01*
X131116000Y-106678252D02*
X131116000Y-106155748D01*
G04 #@! TO.C,R31*
X119686000Y-106696252D02*
X119686000Y-106173748D01*
X121106000Y-106696252D02*
X121106000Y-106173748D01*
G04 #@! TO.C,R35*
X133298000Y-66794748D02*
X133298000Y-67317252D01*
X131878000Y-66794748D02*
X131878000Y-67317252D01*
G04 #@! TO.C,R39*
X123242000Y-70867748D02*
X123242000Y-71390252D01*
X124662000Y-70867748D02*
X124662000Y-71390252D01*
G04 #@! TO.C,R40*
X122376000Y-70867748D02*
X122376000Y-71390252D01*
X120956000Y-70867748D02*
X120956000Y-71390252D01*
G04 #@! TO.C,C7*
X126042267Y-60454000D02*
X125699733Y-60454000D01*
X126042267Y-59434000D02*
X125699733Y-59434000D01*
G04 #@! TO.C,C17*
X116334000Y-88563267D02*
X116334000Y-88220733D01*
X115314000Y-88563267D02*
X115314000Y-88220733D01*
G04 #@! TO.C,C21*
X113138133Y-79677800D02*
X113480667Y-79677800D01*
X113138133Y-80697800D02*
X113480667Y-80697800D01*
G04 #@! TO.C,R48*
X126290000Y-47496252D02*
X126290000Y-46973748D01*
X127710000Y-47496252D02*
X127710000Y-46973748D01*
G04 #@! TO.C,R49*
X126290000Y-44959748D02*
X126290000Y-45482252D01*
X127710000Y-44959748D02*
X127710000Y-45482252D01*
G04 #@! TO.C,TP3*
D14*
X112971104Y-77125580D02*
X112399676Y-77125580D01*
X112685390Y-78125580D02*
X112685390Y-77125580D01*
X112066342Y-78125580D02*
X112066342Y-77125580D01*
X111685390Y-77125580D01*
X111590152Y-77173200D01*
X111542533Y-77220819D01*
X111494914Y-77316057D01*
X111494914Y-77458914D01*
X111542533Y-77554152D01*
X111590152Y-77601771D01*
X111685390Y-77649390D01*
X112066342Y-77649390D01*
X111161580Y-77125580D02*
X110542533Y-77125580D01*
X110875866Y-77506533D01*
X110733009Y-77506533D01*
X110637771Y-77554152D01*
X110590152Y-77601771D01*
X110542533Y-77697009D01*
X110542533Y-77935104D01*
X110590152Y-78030342D01*
X110637771Y-78077961D01*
X110733009Y-78125580D01*
X111018723Y-78125580D01*
X111113961Y-78077961D01*
X111161580Y-78030342D01*
G04 #@! TO.C,D11*
X124912285Y-65984380D02*
X124912285Y-64984380D01*
X124674190Y-64984380D01*
X124531333Y-65032000D01*
X124436095Y-65127238D01*
X124388476Y-65222476D01*
X124340857Y-65412952D01*
X124340857Y-65555809D01*
X124388476Y-65746285D01*
X124436095Y-65841523D01*
X124531333Y-65936761D01*
X124674190Y-65984380D01*
X124912285Y-65984380D01*
X123388476Y-65984380D02*
X123959904Y-65984380D01*
X123674190Y-65984380D02*
X123674190Y-64984380D01*
X123769428Y-65127238D01*
X123864666Y-65222476D01*
X123959904Y-65270095D01*
X122436095Y-65984380D02*
X123007523Y-65984380D01*
X122721809Y-65984380D02*
X122721809Y-64984380D01*
X122817047Y-65127238D01*
X122912285Y-65222476D01*
X123007523Y-65270095D01*
G04 #@! TO.C,R55*
X127863142Y-73211885D02*
X128113142Y-72854742D01*
X128291714Y-73211885D02*
X128291714Y-72461885D01*
X128006000Y-72461885D01*
X127934571Y-72497600D01*
X127898857Y-72533314D01*
X127863142Y-72604742D01*
X127863142Y-72711885D01*
X127898857Y-72783314D01*
X127934571Y-72819028D01*
X128006000Y-72854742D01*
X128291714Y-72854742D01*
X127184571Y-72461885D02*
X127541714Y-72461885D01*
X127577428Y-72819028D01*
X127541714Y-72783314D01*
X127470285Y-72747600D01*
X127291714Y-72747600D01*
X127220285Y-72783314D01*
X127184571Y-72819028D01*
X127148857Y-72890457D01*
X127148857Y-73069028D01*
X127184571Y-73140457D01*
X127220285Y-73176171D01*
X127291714Y-73211885D01*
X127470285Y-73211885D01*
X127541714Y-73176171D01*
X127577428Y-73140457D01*
X126470285Y-72461885D02*
X126827428Y-72461885D01*
X126863142Y-72819028D01*
X126827428Y-72783314D01*
X126756000Y-72747600D01*
X126577428Y-72747600D01*
X126506000Y-72783314D01*
X126470285Y-72819028D01*
X126434571Y-72890457D01*
X126434571Y-73069028D01*
X126470285Y-73140457D01*
X126506000Y-73176171D01*
X126577428Y-73211885D01*
X126756000Y-73211885D01*
X126827428Y-73176171D01*
X126863142Y-73140457D01*
G04 #@! TO.C,C32*
X114485657Y-72035942D02*
X114533276Y-72083561D01*
X114676133Y-72131180D01*
X114771371Y-72131180D01*
X114914228Y-72083561D01*
X115009466Y-71988323D01*
X115057085Y-71893085D01*
X115104704Y-71702609D01*
X115104704Y-71559752D01*
X115057085Y-71369276D01*
X115009466Y-71274038D01*
X114914228Y-71178800D01*
X114771371Y-71131180D01*
X114676133Y-71131180D01*
X114533276Y-71178800D01*
X114485657Y-71226419D01*
X114152323Y-71131180D02*
X113533276Y-71131180D01*
X113866609Y-71512133D01*
X113723752Y-71512133D01*
X113628514Y-71559752D01*
X113580895Y-71607371D01*
X113533276Y-71702609D01*
X113533276Y-71940704D01*
X113580895Y-72035942D01*
X113628514Y-72083561D01*
X113723752Y-72131180D01*
X114009466Y-72131180D01*
X114104704Y-72083561D01*
X114152323Y-72035942D01*
X113152323Y-71226419D02*
X113104704Y-71178800D01*
X113009466Y-71131180D01*
X112771371Y-71131180D01*
X112676133Y-71178800D01*
X112628514Y-71226419D01*
X112580895Y-71321657D01*
X112580895Y-71416895D01*
X112628514Y-71559752D01*
X113199942Y-72131180D01*
X112580895Y-72131180D01*
G04 #@! TO.C,IC2*
D13*
X123705761Y-80942523D02*
X123705761Y-79672523D01*
X122375285Y-80821571D02*
X122435761Y-80882047D01*
X122617190Y-80942523D01*
X122738142Y-80942523D01*
X122919571Y-80882047D01*
X123040523Y-80761095D01*
X123101000Y-80640142D01*
X123161476Y-80398238D01*
X123161476Y-80216809D01*
X123101000Y-79974904D01*
X123040523Y-79853952D01*
X122919571Y-79733000D01*
X122738142Y-79672523D01*
X122617190Y-79672523D01*
X122435761Y-79733000D01*
X122375285Y-79793476D01*
X121891476Y-79793476D02*
X121831000Y-79733000D01*
X121710047Y-79672523D01*
X121407666Y-79672523D01*
X121286714Y-79733000D01*
X121226238Y-79793476D01*
X121165761Y-79914428D01*
X121165761Y-80035380D01*
X121226238Y-80216809D01*
X121951952Y-80942523D01*
X121165761Y-80942523D01*
G04 #@! TO.C,C28*
D14*
X129025857Y-57253142D02*
X129073476Y-57300761D01*
X129216333Y-57348380D01*
X129311571Y-57348380D01*
X129454428Y-57300761D01*
X129549666Y-57205523D01*
X129597285Y-57110285D01*
X129644904Y-56919809D01*
X129644904Y-56776952D01*
X129597285Y-56586476D01*
X129549666Y-56491238D01*
X129454428Y-56396000D01*
X129311571Y-56348380D01*
X129216333Y-56348380D01*
X129073476Y-56396000D01*
X129025857Y-56443619D01*
X128644904Y-56443619D02*
X128597285Y-56396000D01*
X128502047Y-56348380D01*
X128263952Y-56348380D01*
X128168714Y-56396000D01*
X128121095Y-56443619D01*
X128073476Y-56538857D01*
X128073476Y-56634095D01*
X128121095Y-56776952D01*
X128692523Y-57348380D01*
X128073476Y-57348380D01*
X127502047Y-56776952D02*
X127597285Y-56729333D01*
X127644904Y-56681714D01*
X127692523Y-56586476D01*
X127692523Y-56538857D01*
X127644904Y-56443619D01*
X127597285Y-56396000D01*
X127502047Y-56348380D01*
X127311571Y-56348380D01*
X127216333Y-56396000D01*
X127168714Y-56443619D01*
X127121095Y-56538857D01*
X127121095Y-56586476D01*
X127168714Y-56681714D01*
X127216333Y-56729333D01*
X127311571Y-56776952D01*
X127502047Y-56776952D01*
X127597285Y-56824571D01*
X127644904Y-56872190D01*
X127692523Y-56967428D01*
X127692523Y-57157904D01*
X127644904Y-57253142D01*
X127597285Y-57300761D01*
X127502047Y-57348380D01*
X127311571Y-57348380D01*
X127216333Y-57300761D01*
X127168714Y-57253142D01*
X127121095Y-57157904D01*
X127121095Y-56967428D01*
X127168714Y-56872190D01*
X127216333Y-56824571D01*
X127311571Y-56776952D01*
G04 #@! TO.C,C30*
X114053857Y-68352942D02*
X114101476Y-68400561D01*
X114244333Y-68448180D01*
X114339571Y-68448180D01*
X114482428Y-68400561D01*
X114577666Y-68305323D01*
X114625285Y-68210085D01*
X114672904Y-68019609D01*
X114672904Y-67876752D01*
X114625285Y-67686276D01*
X114577666Y-67591038D01*
X114482428Y-67495800D01*
X114339571Y-67448180D01*
X114244333Y-67448180D01*
X114101476Y-67495800D01*
X114053857Y-67543419D01*
X113720523Y-67448180D02*
X113101476Y-67448180D01*
X113434809Y-67829133D01*
X113291952Y-67829133D01*
X113196714Y-67876752D01*
X113149095Y-67924371D01*
X113101476Y-68019609D01*
X113101476Y-68257704D01*
X113149095Y-68352942D01*
X113196714Y-68400561D01*
X113291952Y-68448180D01*
X113577666Y-68448180D01*
X113672904Y-68400561D01*
X113720523Y-68352942D01*
X112482428Y-67448180D02*
X112387190Y-67448180D01*
X112291952Y-67495800D01*
X112244333Y-67543419D01*
X112196714Y-67638657D01*
X112149095Y-67829133D01*
X112149095Y-68067228D01*
X112196714Y-68257704D01*
X112244333Y-68352942D01*
X112291952Y-68400561D01*
X112387190Y-68448180D01*
X112482428Y-68448180D01*
X112577666Y-68400561D01*
X112625285Y-68352942D01*
X112672904Y-68257704D01*
X112720523Y-68067228D01*
X112720523Y-67829133D01*
X112672904Y-67638657D01*
X112625285Y-67543419D01*
X112577666Y-67495800D01*
X112482428Y-67448180D01*
G04 #@! TO.C,L1*
X109386666Y-73604380D02*
X109862857Y-73604380D01*
X109862857Y-72604380D01*
X108529523Y-73604380D02*
X109100952Y-73604380D01*
X108815238Y-73604380D02*
X108815238Y-72604380D01*
X108910476Y-72747238D01*
X109005714Y-72842476D01*
X109100952Y-72890095D01*
G04 #@! TO.C,L4*
X106846666Y-69286380D02*
X107322857Y-69286380D01*
X107322857Y-68286380D01*
X106084761Y-68619714D02*
X106084761Y-69286380D01*
X106322857Y-68238761D02*
X106560952Y-68953047D01*
X105941904Y-68953047D01*
G04 #@! TO.C,L5*
X119405666Y-57348380D02*
X119881857Y-57348380D01*
X119881857Y-56348380D01*
X118596142Y-56348380D02*
X119072333Y-56348380D01*
X119119952Y-56824571D01*
X119072333Y-56776952D01*
X118977095Y-56729333D01*
X118739000Y-56729333D01*
X118643761Y-56776952D01*
X118596142Y-56824571D01*
X118548523Y-56919809D01*
X118548523Y-57157904D01*
X118596142Y-57253142D01*
X118643761Y-57300761D01*
X118739000Y-57348380D01*
X118977095Y-57348380D01*
X119072333Y-57300761D01*
X119119952Y-57253142D01*
G04 #@! TO.C,L6*
X118530666Y-62936380D02*
X119006857Y-62936380D01*
X119006857Y-61936380D01*
X117768761Y-61936380D02*
X117959238Y-61936380D01*
X118054476Y-61984000D01*
X118102095Y-62031619D01*
X118197333Y-62174476D01*
X118244952Y-62364952D01*
X118244952Y-62745904D01*
X118197333Y-62841142D01*
X118149714Y-62888761D01*
X118054476Y-62936380D01*
X117864000Y-62936380D01*
X117768761Y-62888761D01*
X117721142Y-62841142D01*
X117673523Y-62745904D01*
X117673523Y-62507809D01*
X117721142Y-62412571D01*
X117768761Y-62364952D01*
X117864000Y-62317333D01*
X118054476Y-62317333D01*
X118149714Y-62364952D01*
X118197333Y-62412571D01*
X118244952Y-62507809D01*
G04 #@! TO.C,C8*
X122549166Y-62333142D02*
X122596785Y-62380761D01*
X122739642Y-62428380D01*
X122834880Y-62428380D01*
X122977738Y-62380761D01*
X123072976Y-62285523D01*
X123120595Y-62190285D01*
X123168214Y-61999809D01*
X123168214Y-61856952D01*
X123120595Y-61666476D01*
X123072976Y-61571238D01*
X122977738Y-61476000D01*
X122834880Y-61428380D01*
X122739642Y-61428380D01*
X122596785Y-61476000D01*
X122549166Y-61523619D01*
X121977738Y-61856952D02*
X122072976Y-61809333D01*
X122120595Y-61761714D01*
X122168214Y-61666476D01*
X122168214Y-61618857D01*
X122120595Y-61523619D01*
X122072976Y-61476000D01*
X121977738Y-61428380D01*
X121787261Y-61428380D01*
X121692023Y-61476000D01*
X121644404Y-61523619D01*
X121596785Y-61618857D01*
X121596785Y-61666476D01*
X121644404Y-61761714D01*
X121692023Y-61809333D01*
X121787261Y-61856952D01*
X121977738Y-61856952D01*
X122072976Y-61904571D01*
X122120595Y-61952190D01*
X122168214Y-62047428D01*
X122168214Y-62237904D01*
X122120595Y-62333142D01*
X122072976Y-62380761D01*
X121977738Y-62428380D01*
X121787261Y-62428380D01*
X121692023Y-62380761D01*
X121644404Y-62333142D01*
X121596785Y-62237904D01*
X121596785Y-62047428D01*
X121644404Y-61952190D01*
X121692023Y-61904571D01*
X121787261Y-61856952D01*
G04 #@! TO.C,C18*
X109888257Y-75871342D02*
X109935876Y-75918961D01*
X110078733Y-75966580D01*
X110173971Y-75966580D01*
X110316828Y-75918961D01*
X110412066Y-75823723D01*
X110459685Y-75728485D01*
X110507304Y-75538009D01*
X110507304Y-75395152D01*
X110459685Y-75204676D01*
X110412066Y-75109438D01*
X110316828Y-75014200D01*
X110173971Y-74966580D01*
X110078733Y-74966580D01*
X109935876Y-75014200D01*
X109888257Y-75061819D01*
X108935876Y-75966580D02*
X109507304Y-75966580D01*
X109221590Y-75966580D02*
X109221590Y-74966580D01*
X109316828Y-75109438D01*
X109412066Y-75204676D01*
X109507304Y-75252295D01*
X108364447Y-75395152D02*
X108459685Y-75347533D01*
X108507304Y-75299914D01*
X108554923Y-75204676D01*
X108554923Y-75157057D01*
X108507304Y-75061819D01*
X108459685Y-75014200D01*
X108364447Y-74966580D01*
X108173971Y-74966580D01*
X108078733Y-75014200D01*
X108031114Y-75061819D01*
X107983495Y-75157057D01*
X107983495Y-75204676D01*
X108031114Y-75299914D01*
X108078733Y-75347533D01*
X108173971Y-75395152D01*
X108364447Y-75395152D01*
X108459685Y-75442771D01*
X108507304Y-75490390D01*
X108554923Y-75585628D01*
X108554923Y-75776104D01*
X108507304Y-75871342D01*
X108459685Y-75918961D01*
X108364447Y-75966580D01*
X108173971Y-75966580D01*
X108078733Y-75918961D01*
X108031114Y-75871342D01*
X107983495Y-75776104D01*
X107983495Y-75585628D01*
X108031114Y-75490390D01*
X108078733Y-75442771D01*
X108173971Y-75395152D01*
G04 #@! TO.C,C20*
X114171857Y-87605142D02*
X114219476Y-87652761D01*
X114362333Y-87700380D01*
X114457571Y-87700380D01*
X114600428Y-87652761D01*
X114695666Y-87557523D01*
X114743285Y-87462285D01*
X114790904Y-87271809D01*
X114790904Y-87128952D01*
X114743285Y-86938476D01*
X114695666Y-86843238D01*
X114600428Y-86748000D01*
X114457571Y-86700380D01*
X114362333Y-86700380D01*
X114219476Y-86748000D01*
X114171857Y-86795619D01*
X113790904Y-86795619D02*
X113743285Y-86748000D01*
X113648047Y-86700380D01*
X113409952Y-86700380D01*
X113314714Y-86748000D01*
X113267095Y-86795619D01*
X113219476Y-86890857D01*
X113219476Y-86986095D01*
X113267095Y-87128952D01*
X113838523Y-87700380D01*
X113219476Y-87700380D01*
X112600428Y-86700380D02*
X112505190Y-86700380D01*
X112409952Y-86748000D01*
X112362333Y-86795619D01*
X112314714Y-86890857D01*
X112267095Y-87081333D01*
X112267095Y-87319428D01*
X112314714Y-87509904D01*
X112362333Y-87605142D01*
X112409952Y-87652761D01*
X112505190Y-87700380D01*
X112600428Y-87700380D01*
X112695666Y-87652761D01*
X112743285Y-87605142D01*
X112790904Y-87509904D01*
X112838523Y-87319428D01*
X112838523Y-87081333D01*
X112790904Y-86890857D01*
X112743285Y-86795619D01*
X112695666Y-86748000D01*
X112600428Y-86700380D01*
G04 #@! TO.C,C23*
X104497142Y-65406142D02*
X104544761Y-65358523D01*
X104592380Y-65215666D01*
X104592380Y-65120428D01*
X104544761Y-64977571D01*
X104449523Y-64882333D01*
X104354285Y-64834714D01*
X104163809Y-64787095D01*
X104020952Y-64787095D01*
X103830476Y-64834714D01*
X103735238Y-64882333D01*
X103640000Y-64977571D01*
X103592380Y-65120428D01*
X103592380Y-65215666D01*
X103640000Y-65358523D01*
X103687619Y-65406142D01*
X103687619Y-65787095D02*
X103640000Y-65834714D01*
X103592380Y-65929952D01*
X103592380Y-66168047D01*
X103640000Y-66263285D01*
X103687619Y-66310904D01*
X103782857Y-66358523D01*
X103878095Y-66358523D01*
X104020952Y-66310904D01*
X104592380Y-65739476D01*
X104592380Y-66358523D01*
X103592380Y-66691857D02*
X103592380Y-67310904D01*
X103973333Y-66977571D01*
X103973333Y-67120428D01*
X104020952Y-67215666D01*
X104068571Y-67263285D01*
X104163809Y-67310904D01*
X104401904Y-67310904D01*
X104497142Y-67263285D01*
X104544761Y-67215666D01*
X104592380Y-67120428D01*
X104592380Y-66834714D01*
X104544761Y-66739476D01*
X104497142Y-66691857D01*
G04 #@! TO.C,C26*
X105798857Y-71223142D02*
X105846476Y-71270761D01*
X105989333Y-71318380D01*
X106084571Y-71318380D01*
X106227428Y-71270761D01*
X106322666Y-71175523D01*
X106370285Y-71080285D01*
X106417904Y-70889809D01*
X106417904Y-70746952D01*
X106370285Y-70556476D01*
X106322666Y-70461238D01*
X106227428Y-70366000D01*
X106084571Y-70318380D01*
X105989333Y-70318380D01*
X105846476Y-70366000D01*
X105798857Y-70413619D01*
X105417904Y-70413619D02*
X105370285Y-70366000D01*
X105275047Y-70318380D01*
X105036952Y-70318380D01*
X104941714Y-70366000D01*
X104894095Y-70413619D01*
X104846476Y-70508857D01*
X104846476Y-70604095D01*
X104894095Y-70746952D01*
X105465523Y-71318380D01*
X104846476Y-71318380D01*
X103989333Y-70318380D02*
X104179809Y-70318380D01*
X104275047Y-70366000D01*
X104322666Y-70413619D01*
X104417904Y-70556476D01*
X104465523Y-70746952D01*
X104465523Y-71127904D01*
X104417904Y-71223142D01*
X104370285Y-71270761D01*
X104275047Y-71318380D01*
X104084571Y-71318380D01*
X103989333Y-71270761D01*
X103941714Y-71223142D01*
X103894095Y-71127904D01*
X103894095Y-70889809D01*
X103941714Y-70794571D01*
X103989333Y-70746952D01*
X104084571Y-70699333D01*
X104275047Y-70699333D01*
X104370285Y-70746952D01*
X104417904Y-70794571D01*
X104465523Y-70889809D01*
G04 #@! TO.C,C29*
X122299857Y-60681142D02*
X122347476Y-60728761D01*
X122490333Y-60776380D01*
X122585571Y-60776380D01*
X122728428Y-60728761D01*
X122823666Y-60633523D01*
X122871285Y-60538285D01*
X122918904Y-60347809D01*
X122918904Y-60204952D01*
X122871285Y-60014476D01*
X122823666Y-59919238D01*
X122728428Y-59824000D01*
X122585571Y-59776380D01*
X122490333Y-59776380D01*
X122347476Y-59824000D01*
X122299857Y-59871619D01*
X121918904Y-59871619D02*
X121871285Y-59824000D01*
X121776047Y-59776380D01*
X121537952Y-59776380D01*
X121442714Y-59824000D01*
X121395095Y-59871619D01*
X121347476Y-59966857D01*
X121347476Y-60062095D01*
X121395095Y-60204952D01*
X121966523Y-60776380D01*
X121347476Y-60776380D01*
X120871285Y-60776380D02*
X120680809Y-60776380D01*
X120585571Y-60728761D01*
X120537952Y-60681142D01*
X120442714Y-60538285D01*
X120395095Y-60347809D01*
X120395095Y-59966857D01*
X120442714Y-59871619D01*
X120490333Y-59824000D01*
X120585571Y-59776380D01*
X120776047Y-59776380D01*
X120871285Y-59824000D01*
X120918904Y-59871619D01*
X120966523Y-59966857D01*
X120966523Y-60204952D01*
X120918904Y-60300190D01*
X120871285Y-60347809D01*
X120776047Y-60395428D01*
X120585571Y-60395428D01*
X120490333Y-60347809D01*
X120442714Y-60300190D01*
X120395095Y-60204952D01*
G04 #@! TO.C,C31*
X113698257Y-65787542D02*
X113745876Y-65835161D01*
X113888733Y-65882780D01*
X113983971Y-65882780D01*
X114126828Y-65835161D01*
X114222066Y-65739923D01*
X114269685Y-65644685D01*
X114317304Y-65454209D01*
X114317304Y-65311352D01*
X114269685Y-65120876D01*
X114222066Y-65025638D01*
X114126828Y-64930400D01*
X113983971Y-64882780D01*
X113888733Y-64882780D01*
X113745876Y-64930400D01*
X113698257Y-64978019D01*
X113364923Y-64882780D02*
X112745876Y-64882780D01*
X113079209Y-65263733D01*
X112936352Y-65263733D01*
X112841114Y-65311352D01*
X112793495Y-65358971D01*
X112745876Y-65454209D01*
X112745876Y-65692304D01*
X112793495Y-65787542D01*
X112841114Y-65835161D01*
X112936352Y-65882780D01*
X113222066Y-65882780D01*
X113317304Y-65835161D01*
X113364923Y-65787542D01*
X111793495Y-65882780D02*
X112364923Y-65882780D01*
X112079209Y-65882780D02*
X112079209Y-64882780D01*
X112174447Y-65025638D01*
X112269685Y-65120876D01*
X112364923Y-65168495D01*
G04 #@! TO.C,R12*
X120214380Y-50674142D02*
X119738190Y-50340809D01*
X120214380Y-50102714D02*
X119214380Y-50102714D01*
X119214380Y-50483666D01*
X119262000Y-50578904D01*
X119309619Y-50626523D01*
X119404857Y-50674142D01*
X119547714Y-50674142D01*
X119642952Y-50626523D01*
X119690571Y-50578904D01*
X119738190Y-50483666D01*
X119738190Y-50102714D01*
X120214380Y-51626523D02*
X120214380Y-51055095D01*
X120214380Y-51340809D02*
X119214380Y-51340809D01*
X119357238Y-51245571D01*
X119452476Y-51150333D01*
X119500095Y-51055095D01*
X119309619Y-52007476D02*
X119262000Y-52055095D01*
X119214380Y-52150333D01*
X119214380Y-52388428D01*
X119262000Y-52483666D01*
X119309619Y-52531285D01*
X119404857Y-52578904D01*
X119500095Y-52578904D01*
X119642952Y-52531285D01*
X120214380Y-51959857D01*
X120214380Y-52578904D01*
G04 #@! TO.C,R14*
X119260857Y-55062380D02*
X119594190Y-54586190D01*
X119832285Y-55062380D02*
X119832285Y-54062380D01*
X119451333Y-54062380D01*
X119356095Y-54110000D01*
X119308476Y-54157619D01*
X119260857Y-54252857D01*
X119260857Y-54395714D01*
X119308476Y-54490952D01*
X119356095Y-54538571D01*
X119451333Y-54586190D01*
X119832285Y-54586190D01*
X118308476Y-55062380D02*
X118879904Y-55062380D01*
X118594190Y-55062380D02*
X118594190Y-54062380D01*
X118689428Y-54205238D01*
X118784666Y-54300476D01*
X118879904Y-54348095D01*
X117451333Y-54395714D02*
X117451333Y-55062380D01*
X117689428Y-54014761D02*
X117927523Y-54729047D01*
X117308476Y-54729047D01*
G04 #@! TO.C,R15*
X117576142Y-71967285D02*
X117826142Y-71610142D01*
X118004714Y-71967285D02*
X118004714Y-71217285D01*
X117719000Y-71217285D01*
X117647571Y-71253000D01*
X117611857Y-71288714D01*
X117576142Y-71360142D01*
X117576142Y-71467285D01*
X117611857Y-71538714D01*
X117647571Y-71574428D01*
X117719000Y-71610142D01*
X118004714Y-71610142D01*
X116861857Y-71967285D02*
X117290428Y-71967285D01*
X117076142Y-71967285D02*
X117076142Y-71217285D01*
X117147571Y-71324428D01*
X117219000Y-71395857D01*
X117290428Y-71431571D01*
X116183285Y-71217285D02*
X116540428Y-71217285D01*
X116576142Y-71574428D01*
X116540428Y-71538714D01*
X116469000Y-71503000D01*
X116290428Y-71503000D01*
X116219000Y-71538714D01*
X116183285Y-71574428D01*
X116147571Y-71645857D01*
X116147571Y-71824428D01*
X116183285Y-71895857D01*
X116219000Y-71931571D01*
X116290428Y-71967285D01*
X116469000Y-71967285D01*
X116540428Y-71931571D01*
X116576142Y-71895857D01*
G04 #@! TO.C,R16*
X106370380Y-43807142D02*
X105894190Y-43473809D01*
X106370380Y-43235714D02*
X105370380Y-43235714D01*
X105370380Y-43616666D01*
X105418000Y-43711904D01*
X105465619Y-43759523D01*
X105560857Y-43807142D01*
X105703714Y-43807142D01*
X105798952Y-43759523D01*
X105846571Y-43711904D01*
X105894190Y-43616666D01*
X105894190Y-43235714D01*
X106370380Y-44759523D02*
X106370380Y-44188095D01*
X106370380Y-44473809D02*
X105370380Y-44473809D01*
X105513238Y-44378571D01*
X105608476Y-44283333D01*
X105656095Y-44188095D01*
X105370380Y-45616666D02*
X105370380Y-45426190D01*
X105418000Y-45330952D01*
X105465619Y-45283333D01*
X105608476Y-45188095D01*
X105798952Y-45140476D01*
X106179904Y-45140476D01*
X106275142Y-45188095D01*
X106322761Y-45235714D01*
X106370380Y-45330952D01*
X106370380Y-45521428D01*
X106322761Y-45616666D01*
X106275142Y-45664285D01*
X106179904Y-45711904D01*
X105941809Y-45711904D01*
X105846571Y-45664285D01*
X105798952Y-45616666D01*
X105751333Y-45521428D01*
X105751333Y-45330952D01*
X105798952Y-45235714D01*
X105846571Y-45188095D01*
X105941809Y-45140476D01*
G04 #@! TO.C,R17*
X126118857Y-64460380D02*
X126452190Y-63984190D01*
X126690285Y-64460380D02*
X126690285Y-63460380D01*
X126309333Y-63460380D01*
X126214095Y-63508000D01*
X126166476Y-63555619D01*
X126118857Y-63650857D01*
X126118857Y-63793714D01*
X126166476Y-63888952D01*
X126214095Y-63936571D01*
X126309333Y-63984190D01*
X126690285Y-63984190D01*
X125166476Y-64460380D02*
X125737904Y-64460380D01*
X125452190Y-64460380D02*
X125452190Y-63460380D01*
X125547428Y-63603238D01*
X125642666Y-63698476D01*
X125737904Y-63746095D01*
X124833142Y-63460380D02*
X124166476Y-63460380D01*
X124595047Y-64460380D01*
G04 #@! TO.C,R20*
X113304580Y-109313742D02*
X112828390Y-108980409D01*
X113304580Y-108742314D02*
X112304580Y-108742314D01*
X112304580Y-109123266D01*
X112352200Y-109218504D01*
X112399819Y-109266123D01*
X112495057Y-109313742D01*
X112637914Y-109313742D01*
X112733152Y-109266123D01*
X112780771Y-109218504D01*
X112828390Y-109123266D01*
X112828390Y-108742314D01*
X112399819Y-109694695D02*
X112352200Y-109742314D01*
X112304580Y-109837552D01*
X112304580Y-110075647D01*
X112352200Y-110170885D01*
X112399819Y-110218504D01*
X112495057Y-110266123D01*
X112590295Y-110266123D01*
X112733152Y-110218504D01*
X113304580Y-109647076D01*
X113304580Y-110266123D01*
X112304580Y-110885171D02*
X112304580Y-110980409D01*
X112352200Y-111075647D01*
X112399819Y-111123266D01*
X112495057Y-111170885D01*
X112685533Y-111218504D01*
X112923628Y-111218504D01*
X113114104Y-111170885D01*
X113209342Y-111123266D01*
X113256961Y-111075647D01*
X113304580Y-110980409D01*
X113304580Y-110885171D01*
X113256961Y-110789933D01*
X113209342Y-110742314D01*
X113114104Y-110694695D01*
X112923628Y-110647076D01*
X112685533Y-110647076D01*
X112495057Y-110694695D01*
X112399819Y-110742314D01*
X112352200Y-110789933D01*
X112304580Y-110885171D01*
G04 #@! TO.C,R22*
X127934980Y-109364542D02*
X127458790Y-109031209D01*
X127934980Y-108793114D02*
X126934980Y-108793114D01*
X126934980Y-109174066D01*
X126982600Y-109269304D01*
X127030219Y-109316923D01*
X127125457Y-109364542D01*
X127268314Y-109364542D01*
X127363552Y-109316923D01*
X127411171Y-109269304D01*
X127458790Y-109174066D01*
X127458790Y-108793114D01*
X127030219Y-109745495D02*
X126982600Y-109793114D01*
X126934980Y-109888352D01*
X126934980Y-110126447D01*
X126982600Y-110221685D01*
X127030219Y-110269304D01*
X127125457Y-110316923D01*
X127220695Y-110316923D01*
X127363552Y-110269304D01*
X127934980Y-109697876D01*
X127934980Y-110316923D01*
X127030219Y-110697876D02*
X126982600Y-110745495D01*
X126934980Y-110840733D01*
X126934980Y-111078828D01*
X126982600Y-111174066D01*
X127030219Y-111221685D01*
X127125457Y-111269304D01*
X127220695Y-111269304D01*
X127363552Y-111221685D01*
X127934980Y-110650257D01*
X127934980Y-111269304D01*
G04 #@! TO.C,R24*
X124709180Y-109313742D02*
X124232990Y-108980409D01*
X124709180Y-108742314D02*
X123709180Y-108742314D01*
X123709180Y-109123266D01*
X123756800Y-109218504D01*
X123804419Y-109266123D01*
X123899657Y-109313742D01*
X124042514Y-109313742D01*
X124137752Y-109266123D01*
X124185371Y-109218504D01*
X124232990Y-109123266D01*
X124232990Y-108742314D01*
X123804419Y-109694695D02*
X123756800Y-109742314D01*
X123709180Y-109837552D01*
X123709180Y-110075647D01*
X123756800Y-110170885D01*
X123804419Y-110218504D01*
X123899657Y-110266123D01*
X123994895Y-110266123D01*
X124137752Y-110218504D01*
X124709180Y-109647076D01*
X124709180Y-110266123D01*
X124042514Y-111123266D02*
X124709180Y-111123266D01*
X123661561Y-110885171D02*
X124375847Y-110647076D01*
X124375847Y-111266123D01*
G04 #@! TO.C,R26*
X109342180Y-109466142D02*
X108865990Y-109132809D01*
X109342180Y-108894714D02*
X108342180Y-108894714D01*
X108342180Y-109275666D01*
X108389800Y-109370904D01*
X108437419Y-109418523D01*
X108532657Y-109466142D01*
X108675514Y-109466142D01*
X108770752Y-109418523D01*
X108818371Y-109370904D01*
X108865990Y-109275666D01*
X108865990Y-108894714D01*
X108437419Y-109847095D02*
X108389800Y-109894714D01*
X108342180Y-109989952D01*
X108342180Y-110228047D01*
X108389800Y-110323285D01*
X108437419Y-110370904D01*
X108532657Y-110418523D01*
X108627895Y-110418523D01*
X108770752Y-110370904D01*
X109342180Y-109799476D01*
X109342180Y-110418523D01*
X108342180Y-111275666D02*
X108342180Y-111085190D01*
X108389800Y-110989952D01*
X108437419Y-110942333D01*
X108580276Y-110847095D01*
X108770752Y-110799476D01*
X109151704Y-110799476D01*
X109246942Y-110847095D01*
X109294561Y-110894714D01*
X109342180Y-110989952D01*
X109342180Y-111180428D01*
X109294561Y-111275666D01*
X109246942Y-111323285D01*
X109151704Y-111370904D01*
X108913609Y-111370904D01*
X108818371Y-111323285D01*
X108770752Y-111275666D01*
X108723133Y-111180428D01*
X108723133Y-110989952D01*
X108770752Y-110894714D01*
X108818371Y-110847095D01*
X108913609Y-110799476D01*
G04 #@! TO.C,R27*
X117266980Y-109415342D02*
X116790790Y-109082009D01*
X117266980Y-108843914D02*
X116266980Y-108843914D01*
X116266980Y-109224866D01*
X116314600Y-109320104D01*
X116362219Y-109367723D01*
X116457457Y-109415342D01*
X116600314Y-109415342D01*
X116695552Y-109367723D01*
X116743171Y-109320104D01*
X116790790Y-109224866D01*
X116790790Y-108843914D01*
X116362219Y-109796295D02*
X116314600Y-109843914D01*
X116266980Y-109939152D01*
X116266980Y-110177247D01*
X116314600Y-110272485D01*
X116362219Y-110320104D01*
X116457457Y-110367723D01*
X116552695Y-110367723D01*
X116695552Y-110320104D01*
X117266980Y-109748676D01*
X117266980Y-110367723D01*
X116266980Y-110701057D02*
X116266980Y-111367723D01*
X117266980Y-110939152D01*
G04 #@! TO.C,R30*
X132252980Y-109186742D02*
X131776790Y-108853409D01*
X132252980Y-108615314D02*
X131252980Y-108615314D01*
X131252980Y-108996266D01*
X131300600Y-109091504D01*
X131348219Y-109139123D01*
X131443457Y-109186742D01*
X131586314Y-109186742D01*
X131681552Y-109139123D01*
X131729171Y-109091504D01*
X131776790Y-108996266D01*
X131776790Y-108615314D01*
X131252980Y-109520076D02*
X131252980Y-110139123D01*
X131633933Y-109805790D01*
X131633933Y-109948647D01*
X131681552Y-110043885D01*
X131729171Y-110091504D01*
X131824409Y-110139123D01*
X132062504Y-110139123D01*
X132157742Y-110091504D01*
X132205361Y-110043885D01*
X132252980Y-109948647D01*
X132252980Y-109662933D01*
X132205361Y-109567695D01*
X132157742Y-109520076D01*
X131252980Y-110758171D02*
X131252980Y-110853409D01*
X131300600Y-110948647D01*
X131348219Y-110996266D01*
X131443457Y-111043885D01*
X131633933Y-111091504D01*
X131872028Y-111091504D01*
X132062504Y-111043885D01*
X132157742Y-110996266D01*
X132205361Y-110948647D01*
X132252980Y-110853409D01*
X132252980Y-110758171D01*
X132205361Y-110662933D01*
X132157742Y-110615314D01*
X132062504Y-110567695D01*
X131872028Y-110520076D01*
X131633933Y-110520076D01*
X131443457Y-110567695D01*
X131348219Y-110615314D01*
X131300600Y-110662933D01*
X131252980Y-110758171D01*
G04 #@! TO.C,R31*
X120899180Y-109389942D02*
X120422990Y-109056609D01*
X120899180Y-108818514D02*
X119899180Y-108818514D01*
X119899180Y-109199466D01*
X119946800Y-109294704D01*
X119994419Y-109342323D01*
X120089657Y-109389942D01*
X120232514Y-109389942D01*
X120327752Y-109342323D01*
X120375371Y-109294704D01*
X120422990Y-109199466D01*
X120422990Y-108818514D01*
X119899180Y-109723276D02*
X119899180Y-110342323D01*
X120280133Y-110008990D01*
X120280133Y-110151847D01*
X120327752Y-110247085D01*
X120375371Y-110294704D01*
X120470609Y-110342323D01*
X120708704Y-110342323D01*
X120803942Y-110294704D01*
X120851561Y-110247085D01*
X120899180Y-110151847D01*
X120899180Y-109866133D01*
X120851561Y-109770895D01*
X120803942Y-109723276D01*
X120899180Y-111294704D02*
X120899180Y-110723276D01*
X120899180Y-111008990D02*
X119899180Y-111008990D01*
X120042038Y-110913752D01*
X120137276Y-110818514D01*
X120184895Y-110723276D01*
G04 #@! TO.C,R35*
X131211580Y-64381142D02*
X130735390Y-64047809D01*
X131211580Y-63809714D02*
X130211580Y-63809714D01*
X130211580Y-64190666D01*
X130259200Y-64285904D01*
X130306819Y-64333523D01*
X130402057Y-64381142D01*
X130544914Y-64381142D01*
X130640152Y-64333523D01*
X130687771Y-64285904D01*
X130735390Y-64190666D01*
X130735390Y-63809714D01*
X130211580Y-64714476D02*
X130211580Y-65333523D01*
X130592533Y-65000190D01*
X130592533Y-65143047D01*
X130640152Y-65238285D01*
X130687771Y-65285904D01*
X130783009Y-65333523D01*
X131021104Y-65333523D01*
X131116342Y-65285904D01*
X131163961Y-65238285D01*
X131211580Y-65143047D01*
X131211580Y-64857333D01*
X131163961Y-64762095D01*
X131116342Y-64714476D01*
X130211580Y-66238285D02*
X130211580Y-65762095D01*
X130687771Y-65714476D01*
X130640152Y-65762095D01*
X130592533Y-65857333D01*
X130592533Y-66095428D01*
X130640152Y-66190666D01*
X130687771Y-66238285D01*
X130783009Y-66285904D01*
X131021104Y-66285904D01*
X131116342Y-66238285D01*
X131163961Y-66190666D01*
X131211580Y-66095428D01*
X131211580Y-65857333D01*
X131163961Y-65762095D01*
X131116342Y-65714476D01*
G04 #@! TO.C,R39*
X124434142Y-68919285D02*
X124684142Y-68562142D01*
X124862714Y-68919285D02*
X124862714Y-68169285D01*
X124577000Y-68169285D01*
X124505571Y-68205000D01*
X124469857Y-68240714D01*
X124434142Y-68312142D01*
X124434142Y-68419285D01*
X124469857Y-68490714D01*
X124505571Y-68526428D01*
X124577000Y-68562142D01*
X124862714Y-68562142D01*
X124184142Y-68169285D02*
X123719857Y-68169285D01*
X123969857Y-68455000D01*
X123862714Y-68455000D01*
X123791285Y-68490714D01*
X123755571Y-68526428D01*
X123719857Y-68597857D01*
X123719857Y-68776428D01*
X123755571Y-68847857D01*
X123791285Y-68883571D01*
X123862714Y-68919285D01*
X124077000Y-68919285D01*
X124148428Y-68883571D01*
X124184142Y-68847857D01*
X123362714Y-68919285D02*
X123219857Y-68919285D01*
X123148428Y-68883571D01*
X123112714Y-68847857D01*
X123041285Y-68740714D01*
X123005571Y-68597857D01*
X123005571Y-68312142D01*
X123041285Y-68240714D01*
X123077000Y-68205000D01*
X123148428Y-68169285D01*
X123291285Y-68169285D01*
X123362714Y-68205000D01*
X123398428Y-68240714D01*
X123434142Y-68312142D01*
X123434142Y-68490714D01*
X123398428Y-68562142D01*
X123362714Y-68597857D01*
X123291285Y-68633571D01*
X123148428Y-68633571D01*
X123077000Y-68597857D01*
X123041285Y-68562142D01*
X123005571Y-68490714D01*
G04 #@! TO.C,R40*
X120594380Y-70426342D02*
X120118190Y-70093009D01*
X120594380Y-69854914D02*
X119594380Y-69854914D01*
X119594380Y-70235866D01*
X119642000Y-70331104D01*
X119689619Y-70378723D01*
X119784857Y-70426342D01*
X119927714Y-70426342D01*
X120022952Y-70378723D01*
X120070571Y-70331104D01*
X120118190Y-70235866D01*
X120118190Y-69854914D01*
X119927714Y-71283485D02*
X120594380Y-71283485D01*
X119546761Y-71045390D02*
X120261047Y-70807295D01*
X120261047Y-71426342D01*
X119594380Y-71997771D02*
X119594380Y-72093009D01*
X119642000Y-72188247D01*
X119689619Y-72235866D01*
X119784857Y-72283485D01*
X119975333Y-72331104D01*
X120213428Y-72331104D01*
X120403904Y-72283485D01*
X120499142Y-72235866D01*
X120546761Y-72188247D01*
X120594380Y-72093009D01*
X120594380Y-71997771D01*
X120546761Y-71902533D01*
X120499142Y-71854914D01*
X120403904Y-71807295D01*
X120213428Y-71759676D01*
X119975333Y-71759676D01*
X119784857Y-71807295D01*
X119689619Y-71854914D01*
X119642000Y-71902533D01*
X119594380Y-71997771D01*
G04 #@! TO.C,C7*
X128831666Y-60301142D02*
X128879285Y-60348761D01*
X129022142Y-60396380D01*
X129117380Y-60396380D01*
X129260238Y-60348761D01*
X129355476Y-60253523D01*
X129403095Y-60158285D01*
X129450714Y-59967809D01*
X129450714Y-59824952D01*
X129403095Y-59634476D01*
X129355476Y-59539238D01*
X129260238Y-59444000D01*
X129117380Y-59396380D01*
X129022142Y-59396380D01*
X128879285Y-59444000D01*
X128831666Y-59491619D01*
X128498333Y-59396380D02*
X127831666Y-59396380D01*
X128260238Y-60396380D01*
G04 #@! TO.C,C17*
X117611142Y-87749142D02*
X117658761Y-87701523D01*
X117706380Y-87558666D01*
X117706380Y-87463428D01*
X117658761Y-87320571D01*
X117563523Y-87225333D01*
X117468285Y-87177714D01*
X117277809Y-87130095D01*
X117134952Y-87130095D01*
X116944476Y-87177714D01*
X116849238Y-87225333D01*
X116754000Y-87320571D01*
X116706380Y-87463428D01*
X116706380Y-87558666D01*
X116754000Y-87701523D01*
X116801619Y-87749142D01*
X117706380Y-88701523D02*
X117706380Y-88130095D01*
X117706380Y-88415809D02*
X116706380Y-88415809D01*
X116849238Y-88320571D01*
X116944476Y-88225333D01*
X116992095Y-88130095D01*
X116706380Y-89034857D02*
X116706380Y-89701523D01*
X117706380Y-89272952D01*
G04 #@! TO.C,C21*
X110980457Y-79427342D02*
X111028076Y-79474961D01*
X111170933Y-79522580D01*
X111266171Y-79522580D01*
X111409028Y-79474961D01*
X111504266Y-79379723D01*
X111551885Y-79284485D01*
X111599504Y-79094009D01*
X111599504Y-78951152D01*
X111551885Y-78760676D01*
X111504266Y-78665438D01*
X111409028Y-78570200D01*
X111266171Y-78522580D01*
X111170933Y-78522580D01*
X111028076Y-78570200D01*
X110980457Y-78617819D01*
X110599504Y-78617819D02*
X110551885Y-78570200D01*
X110456647Y-78522580D01*
X110218552Y-78522580D01*
X110123314Y-78570200D01*
X110075695Y-78617819D01*
X110028076Y-78713057D01*
X110028076Y-78808295D01*
X110075695Y-78951152D01*
X110647123Y-79522580D01*
X110028076Y-79522580D01*
X109075695Y-79522580D02*
X109647123Y-79522580D01*
X109361409Y-79522580D02*
X109361409Y-78522580D01*
X109456647Y-78665438D01*
X109551885Y-78760676D01*
X109647123Y-78808295D01*
G04 #@! TO.C,R48*
X125928380Y-46855142D02*
X125452190Y-46521809D01*
X125928380Y-46283714D02*
X124928380Y-46283714D01*
X124928380Y-46664666D01*
X124976000Y-46759904D01*
X125023619Y-46807523D01*
X125118857Y-46855142D01*
X125261714Y-46855142D01*
X125356952Y-46807523D01*
X125404571Y-46759904D01*
X125452190Y-46664666D01*
X125452190Y-46283714D01*
X125261714Y-47712285D02*
X125928380Y-47712285D01*
X124880761Y-47474190D02*
X125595047Y-47236095D01*
X125595047Y-47855142D01*
X125356952Y-48378952D02*
X125309333Y-48283714D01*
X125261714Y-48236095D01*
X125166476Y-48188476D01*
X125118857Y-48188476D01*
X125023619Y-48236095D01*
X124976000Y-48283714D01*
X124928380Y-48378952D01*
X124928380Y-48569428D01*
X124976000Y-48664666D01*
X125023619Y-48712285D01*
X125118857Y-48759904D01*
X125166476Y-48759904D01*
X125261714Y-48712285D01*
X125309333Y-48664666D01*
X125356952Y-48569428D01*
X125356952Y-48378952D01*
X125404571Y-48283714D01*
X125452190Y-48236095D01*
X125547428Y-48188476D01*
X125737904Y-48188476D01*
X125833142Y-48236095D01*
X125880761Y-48283714D01*
X125928380Y-48378952D01*
X125928380Y-48569428D01*
X125880761Y-48664666D01*
X125833142Y-48712285D01*
X125737904Y-48759904D01*
X125547428Y-48759904D01*
X125452190Y-48712285D01*
X125404571Y-48664666D01*
X125356952Y-48569428D01*
G04 #@! TO.C,R49*
X129230380Y-44315142D02*
X128754190Y-43981809D01*
X129230380Y-43743714D02*
X128230380Y-43743714D01*
X128230380Y-44124666D01*
X128278000Y-44219904D01*
X128325619Y-44267523D01*
X128420857Y-44315142D01*
X128563714Y-44315142D01*
X128658952Y-44267523D01*
X128706571Y-44219904D01*
X128754190Y-44124666D01*
X128754190Y-43743714D01*
X128563714Y-45172285D02*
X129230380Y-45172285D01*
X128182761Y-44934190D02*
X128897047Y-44696095D01*
X128897047Y-45315142D01*
X129230380Y-45743714D02*
X129230380Y-45934190D01*
X129182761Y-46029428D01*
X129135142Y-46077047D01*
X128992285Y-46172285D01*
X128801809Y-46219904D01*
X128420857Y-46219904D01*
X128325619Y-46172285D01*
X128278000Y-46124666D01*
X128230380Y-46029428D01*
X128230380Y-45838952D01*
X128278000Y-45743714D01*
X128325619Y-45696095D01*
X128420857Y-45648476D01*
X128658952Y-45648476D01*
X128754190Y-45696095D01*
X128801809Y-45743714D01*
X128849428Y-45838952D01*
X128849428Y-46029428D01*
X128801809Y-46124666D01*
X128754190Y-46172285D01*
X128658952Y-46219904D01*
G04 #@! TD*
M02*
