G04 #@! TF.GenerationSoftware,KiCad,Pcbnew,(5.0.2)-1*
G04 #@! TF.CreationDate,2020-11-24T18:05:24+01:00*
G04 #@! TF.ProjectId,PCB_BLUETOOTH_V3,5043425f-424c-4554-9554-4f4f54485f56,rev?*
G04 #@! TF.SameCoordinates,Original*
G04 #@! TF.FileFunction,Paste,Bot*
G04 #@! TF.FilePolarity,Positive*
%FSLAX46Y46*%
G04 Gerber Fmt 4.6, Leading zero omitted, Abs format (unit mm)*
G04 Created by KiCad (PCBNEW (5.0.2)-1) date 24/11/2020 18:05:24*
%MOMM*%
%LPD*%
G01*
G04 APERTURE LIST*
%ADD10C,0.100000*%
%ADD11C,0.950000*%
%ADD12C,0.590000*%
%ADD13R,1.475000X0.600000*%
%ADD14R,0.600000X1.475000*%
%ADD15C,1.150000*%
G04 APERTURE END LIST*
D10*
G04 #@! TO.C,D11*
G36*
X122766779Y-66582144D02*
X122789834Y-66585563D01*
X122812443Y-66591227D01*
X122834387Y-66599079D01*
X122855457Y-66609044D01*
X122875448Y-66621026D01*
X122894168Y-66634910D01*
X122911438Y-66650562D01*
X122927090Y-66667832D01*
X122940974Y-66686552D01*
X122952956Y-66706543D01*
X122962921Y-66727613D01*
X122970773Y-66749557D01*
X122976437Y-66772166D01*
X122979856Y-66795221D01*
X122981000Y-66818500D01*
X122981000Y-67293500D01*
X122979856Y-67316779D01*
X122976437Y-67339834D01*
X122970773Y-67362443D01*
X122962921Y-67384387D01*
X122952956Y-67405457D01*
X122940974Y-67425448D01*
X122927090Y-67444168D01*
X122911438Y-67461438D01*
X122894168Y-67477090D01*
X122875448Y-67490974D01*
X122855457Y-67502956D01*
X122834387Y-67512921D01*
X122812443Y-67520773D01*
X122789834Y-67526437D01*
X122766779Y-67529856D01*
X122743500Y-67531000D01*
X122168500Y-67531000D01*
X122145221Y-67529856D01*
X122122166Y-67526437D01*
X122099557Y-67520773D01*
X122077613Y-67512921D01*
X122056543Y-67502956D01*
X122036552Y-67490974D01*
X122017832Y-67477090D01*
X122000562Y-67461438D01*
X121984910Y-67444168D01*
X121971026Y-67425448D01*
X121959044Y-67405457D01*
X121949079Y-67384387D01*
X121941227Y-67362443D01*
X121935563Y-67339834D01*
X121932144Y-67316779D01*
X121931000Y-67293500D01*
X121931000Y-66818500D01*
X121932144Y-66795221D01*
X121935563Y-66772166D01*
X121941227Y-66749557D01*
X121949079Y-66727613D01*
X121959044Y-66706543D01*
X121971026Y-66686552D01*
X121984910Y-66667832D01*
X122000562Y-66650562D01*
X122017832Y-66634910D01*
X122036552Y-66621026D01*
X122056543Y-66609044D01*
X122077613Y-66599079D01*
X122099557Y-66591227D01*
X122122166Y-66585563D01*
X122145221Y-66582144D01*
X122168500Y-66581000D01*
X122743500Y-66581000D01*
X122766779Y-66582144D01*
X122766779Y-66582144D01*
G37*
D11*
X122456000Y-67056000D03*
D10*
G36*
X124516779Y-66582144D02*
X124539834Y-66585563D01*
X124562443Y-66591227D01*
X124584387Y-66599079D01*
X124605457Y-66609044D01*
X124625448Y-66621026D01*
X124644168Y-66634910D01*
X124661438Y-66650562D01*
X124677090Y-66667832D01*
X124690974Y-66686552D01*
X124702956Y-66706543D01*
X124712921Y-66727613D01*
X124720773Y-66749557D01*
X124726437Y-66772166D01*
X124729856Y-66795221D01*
X124731000Y-66818500D01*
X124731000Y-67293500D01*
X124729856Y-67316779D01*
X124726437Y-67339834D01*
X124720773Y-67362443D01*
X124712921Y-67384387D01*
X124702956Y-67405457D01*
X124690974Y-67425448D01*
X124677090Y-67444168D01*
X124661438Y-67461438D01*
X124644168Y-67477090D01*
X124625448Y-67490974D01*
X124605457Y-67502956D01*
X124584387Y-67512921D01*
X124562443Y-67520773D01*
X124539834Y-67526437D01*
X124516779Y-67529856D01*
X124493500Y-67531000D01*
X123918500Y-67531000D01*
X123895221Y-67529856D01*
X123872166Y-67526437D01*
X123849557Y-67520773D01*
X123827613Y-67512921D01*
X123806543Y-67502956D01*
X123786552Y-67490974D01*
X123767832Y-67477090D01*
X123750562Y-67461438D01*
X123734910Y-67444168D01*
X123721026Y-67425448D01*
X123709044Y-67405457D01*
X123699079Y-67384387D01*
X123691227Y-67362443D01*
X123685563Y-67339834D01*
X123682144Y-67316779D01*
X123681000Y-67293500D01*
X123681000Y-66818500D01*
X123682144Y-66795221D01*
X123685563Y-66772166D01*
X123691227Y-66749557D01*
X123699079Y-66727613D01*
X123709044Y-66706543D01*
X123721026Y-66686552D01*
X123734910Y-66667832D01*
X123750562Y-66650562D01*
X123767832Y-66634910D01*
X123786552Y-66621026D01*
X123806543Y-66609044D01*
X123827613Y-66599079D01*
X123849557Y-66591227D01*
X123872166Y-66585563D01*
X123895221Y-66582144D01*
X123918500Y-66581000D01*
X124493500Y-66581000D01*
X124516779Y-66582144D01*
X124516779Y-66582144D01*
G37*
D11*
X124206000Y-67056000D03*
G04 #@! TD*
D10*
G04 #@! TO.C,R55*
G36*
X125916958Y-72580710D02*
X125931276Y-72582834D01*
X125945317Y-72586351D01*
X125958946Y-72591228D01*
X125972031Y-72597417D01*
X125984447Y-72604858D01*
X125996073Y-72613481D01*
X126006798Y-72623202D01*
X126016519Y-72633927D01*
X126025142Y-72645553D01*
X126032583Y-72657969D01*
X126038772Y-72671054D01*
X126043649Y-72684683D01*
X126047166Y-72698724D01*
X126049290Y-72713042D01*
X126050000Y-72727500D01*
X126050000Y-73022500D01*
X126049290Y-73036958D01*
X126047166Y-73051276D01*
X126043649Y-73065317D01*
X126038772Y-73078946D01*
X126032583Y-73092031D01*
X126025142Y-73104447D01*
X126016519Y-73116073D01*
X126006798Y-73126798D01*
X125996073Y-73136519D01*
X125984447Y-73145142D01*
X125972031Y-73152583D01*
X125958946Y-73158772D01*
X125945317Y-73163649D01*
X125931276Y-73167166D01*
X125916958Y-73169290D01*
X125902500Y-73170000D01*
X125557500Y-73170000D01*
X125543042Y-73169290D01*
X125528724Y-73167166D01*
X125514683Y-73163649D01*
X125501054Y-73158772D01*
X125487969Y-73152583D01*
X125475553Y-73145142D01*
X125463927Y-73136519D01*
X125453202Y-73126798D01*
X125443481Y-73116073D01*
X125434858Y-73104447D01*
X125427417Y-73092031D01*
X125421228Y-73078946D01*
X125416351Y-73065317D01*
X125412834Y-73051276D01*
X125410710Y-73036958D01*
X125410000Y-73022500D01*
X125410000Y-72727500D01*
X125410710Y-72713042D01*
X125412834Y-72698724D01*
X125416351Y-72684683D01*
X125421228Y-72671054D01*
X125427417Y-72657969D01*
X125434858Y-72645553D01*
X125443481Y-72633927D01*
X125453202Y-72623202D01*
X125463927Y-72613481D01*
X125475553Y-72604858D01*
X125487969Y-72597417D01*
X125501054Y-72591228D01*
X125514683Y-72586351D01*
X125528724Y-72582834D01*
X125543042Y-72580710D01*
X125557500Y-72580000D01*
X125902500Y-72580000D01*
X125916958Y-72580710D01*
X125916958Y-72580710D01*
G37*
D12*
X125730000Y-72875000D03*
D10*
G36*
X125916958Y-71610710D02*
X125931276Y-71612834D01*
X125945317Y-71616351D01*
X125958946Y-71621228D01*
X125972031Y-71627417D01*
X125984447Y-71634858D01*
X125996073Y-71643481D01*
X126006798Y-71653202D01*
X126016519Y-71663927D01*
X126025142Y-71675553D01*
X126032583Y-71687969D01*
X126038772Y-71701054D01*
X126043649Y-71714683D01*
X126047166Y-71728724D01*
X126049290Y-71743042D01*
X126050000Y-71757500D01*
X126050000Y-72052500D01*
X126049290Y-72066958D01*
X126047166Y-72081276D01*
X126043649Y-72095317D01*
X126038772Y-72108946D01*
X126032583Y-72122031D01*
X126025142Y-72134447D01*
X126016519Y-72146073D01*
X126006798Y-72156798D01*
X125996073Y-72166519D01*
X125984447Y-72175142D01*
X125972031Y-72182583D01*
X125958946Y-72188772D01*
X125945317Y-72193649D01*
X125931276Y-72197166D01*
X125916958Y-72199290D01*
X125902500Y-72200000D01*
X125557500Y-72200000D01*
X125543042Y-72199290D01*
X125528724Y-72197166D01*
X125514683Y-72193649D01*
X125501054Y-72188772D01*
X125487969Y-72182583D01*
X125475553Y-72175142D01*
X125463927Y-72166519D01*
X125453202Y-72156798D01*
X125443481Y-72146073D01*
X125434858Y-72134447D01*
X125427417Y-72122031D01*
X125421228Y-72108946D01*
X125416351Y-72095317D01*
X125412834Y-72081276D01*
X125410710Y-72066958D01*
X125410000Y-72052500D01*
X125410000Y-71757500D01*
X125410710Y-71743042D01*
X125412834Y-71728724D01*
X125416351Y-71714683D01*
X125421228Y-71701054D01*
X125427417Y-71687969D01*
X125434858Y-71675553D01*
X125443481Y-71663927D01*
X125453202Y-71653202D01*
X125463927Y-71643481D01*
X125475553Y-71634858D01*
X125487969Y-71627417D01*
X125501054Y-71621228D01*
X125514683Y-71616351D01*
X125528724Y-71612834D01*
X125543042Y-71610710D01*
X125557500Y-71610000D01*
X125902500Y-71610000D01*
X125916958Y-71610710D01*
X125916958Y-71610710D01*
G37*
D12*
X125730000Y-71905000D03*
G04 #@! TD*
D10*
G04 #@! TO.C,C32*
G36*
X113798779Y-74660144D02*
X113821834Y-74663563D01*
X113844443Y-74669227D01*
X113866387Y-74677079D01*
X113887457Y-74687044D01*
X113907448Y-74699026D01*
X113926168Y-74712910D01*
X113943438Y-74728562D01*
X113959090Y-74745832D01*
X113972974Y-74764552D01*
X113984956Y-74784543D01*
X113994921Y-74805613D01*
X114002773Y-74827557D01*
X114008437Y-74850166D01*
X114011856Y-74873221D01*
X114013000Y-74896500D01*
X114013000Y-75471500D01*
X114011856Y-75494779D01*
X114008437Y-75517834D01*
X114002773Y-75540443D01*
X113994921Y-75562387D01*
X113984956Y-75583457D01*
X113972974Y-75603448D01*
X113959090Y-75622168D01*
X113943438Y-75639438D01*
X113926168Y-75655090D01*
X113907448Y-75668974D01*
X113887457Y-75680956D01*
X113866387Y-75690921D01*
X113844443Y-75698773D01*
X113821834Y-75704437D01*
X113798779Y-75707856D01*
X113775500Y-75709000D01*
X113300500Y-75709000D01*
X113277221Y-75707856D01*
X113254166Y-75704437D01*
X113231557Y-75698773D01*
X113209613Y-75690921D01*
X113188543Y-75680956D01*
X113168552Y-75668974D01*
X113149832Y-75655090D01*
X113132562Y-75639438D01*
X113116910Y-75622168D01*
X113103026Y-75603448D01*
X113091044Y-75583457D01*
X113081079Y-75562387D01*
X113073227Y-75540443D01*
X113067563Y-75517834D01*
X113064144Y-75494779D01*
X113063000Y-75471500D01*
X113063000Y-74896500D01*
X113064144Y-74873221D01*
X113067563Y-74850166D01*
X113073227Y-74827557D01*
X113081079Y-74805613D01*
X113091044Y-74784543D01*
X113103026Y-74764552D01*
X113116910Y-74745832D01*
X113132562Y-74728562D01*
X113149832Y-74712910D01*
X113168552Y-74699026D01*
X113188543Y-74687044D01*
X113209613Y-74677079D01*
X113231557Y-74669227D01*
X113254166Y-74663563D01*
X113277221Y-74660144D01*
X113300500Y-74659000D01*
X113775500Y-74659000D01*
X113798779Y-74660144D01*
X113798779Y-74660144D01*
G37*
D11*
X113538000Y-75184000D03*
D10*
G36*
X113798779Y-72910144D02*
X113821834Y-72913563D01*
X113844443Y-72919227D01*
X113866387Y-72927079D01*
X113887457Y-72937044D01*
X113907448Y-72949026D01*
X113926168Y-72962910D01*
X113943438Y-72978562D01*
X113959090Y-72995832D01*
X113972974Y-73014552D01*
X113984956Y-73034543D01*
X113994921Y-73055613D01*
X114002773Y-73077557D01*
X114008437Y-73100166D01*
X114011856Y-73123221D01*
X114013000Y-73146500D01*
X114013000Y-73721500D01*
X114011856Y-73744779D01*
X114008437Y-73767834D01*
X114002773Y-73790443D01*
X113994921Y-73812387D01*
X113984956Y-73833457D01*
X113972974Y-73853448D01*
X113959090Y-73872168D01*
X113943438Y-73889438D01*
X113926168Y-73905090D01*
X113907448Y-73918974D01*
X113887457Y-73930956D01*
X113866387Y-73940921D01*
X113844443Y-73948773D01*
X113821834Y-73954437D01*
X113798779Y-73957856D01*
X113775500Y-73959000D01*
X113300500Y-73959000D01*
X113277221Y-73957856D01*
X113254166Y-73954437D01*
X113231557Y-73948773D01*
X113209613Y-73940921D01*
X113188543Y-73930956D01*
X113168552Y-73918974D01*
X113149832Y-73905090D01*
X113132562Y-73889438D01*
X113116910Y-73872168D01*
X113103026Y-73853448D01*
X113091044Y-73833457D01*
X113081079Y-73812387D01*
X113073227Y-73790443D01*
X113067563Y-73767834D01*
X113064144Y-73744779D01*
X113063000Y-73721500D01*
X113063000Y-73146500D01*
X113064144Y-73123221D01*
X113067563Y-73100166D01*
X113073227Y-73077557D01*
X113081079Y-73055613D01*
X113091044Y-73034543D01*
X113103026Y-73014552D01*
X113116910Y-72995832D01*
X113132562Y-72978562D01*
X113149832Y-72962910D01*
X113168552Y-72949026D01*
X113188543Y-72937044D01*
X113209613Y-72927079D01*
X113231557Y-72919227D01*
X113254166Y-72913563D01*
X113277221Y-72910144D01*
X113300500Y-72909000D01*
X113775500Y-72909000D01*
X113798779Y-72910144D01*
X113798779Y-72910144D01*
G37*
D11*
X113538000Y-73434000D03*
G04 #@! TD*
D13*
G04 #@! TO.C,IC2*
X128204000Y-76368000D03*
X128204000Y-77168000D03*
X128204000Y-77968000D03*
X128204000Y-78768000D03*
X128204000Y-79568000D03*
X128204000Y-80368000D03*
X128204000Y-81168000D03*
X128204000Y-81968000D03*
X128204000Y-82768000D03*
X128204000Y-83568000D03*
X128204000Y-84368000D03*
D14*
X126466000Y-86106000D03*
X125666000Y-86106000D03*
X124866000Y-86106000D03*
X124066000Y-86106000D03*
X123266000Y-86106000D03*
X122466000Y-86106000D03*
X121666000Y-86106000D03*
X120866000Y-86106000D03*
X120066000Y-86106000D03*
X119266000Y-86106000D03*
X118466000Y-86106000D03*
D13*
X116728000Y-84368000D03*
X116728000Y-83568000D03*
X116728000Y-82768000D03*
X116728000Y-81968000D03*
X116728000Y-81168000D03*
X116728000Y-80368000D03*
X116728000Y-79568000D03*
X116728000Y-78768000D03*
X116728000Y-77968000D03*
X116728000Y-77168000D03*
X116728000Y-76368000D03*
D14*
X118466000Y-74630000D03*
X119266000Y-74630000D03*
X120066000Y-74630000D03*
X120866000Y-74630000D03*
X121666000Y-74630000D03*
X122466000Y-74630000D03*
X123266000Y-74630000D03*
X124066000Y-74630000D03*
X124866000Y-74630000D03*
X125666000Y-74630000D03*
X126466000Y-74630000D03*
G04 #@! TD*
D10*
G04 #@! TO.C,C28*
G36*
X124770779Y-56422144D02*
X124793834Y-56425563D01*
X124816443Y-56431227D01*
X124838387Y-56439079D01*
X124859457Y-56449044D01*
X124879448Y-56461026D01*
X124898168Y-56474910D01*
X124915438Y-56490562D01*
X124931090Y-56507832D01*
X124944974Y-56526552D01*
X124956956Y-56546543D01*
X124966921Y-56567613D01*
X124974773Y-56589557D01*
X124980437Y-56612166D01*
X124983856Y-56635221D01*
X124985000Y-56658500D01*
X124985000Y-57133500D01*
X124983856Y-57156779D01*
X124980437Y-57179834D01*
X124974773Y-57202443D01*
X124966921Y-57224387D01*
X124956956Y-57245457D01*
X124944974Y-57265448D01*
X124931090Y-57284168D01*
X124915438Y-57301438D01*
X124898168Y-57317090D01*
X124879448Y-57330974D01*
X124859457Y-57342956D01*
X124838387Y-57352921D01*
X124816443Y-57360773D01*
X124793834Y-57366437D01*
X124770779Y-57369856D01*
X124747500Y-57371000D01*
X124172500Y-57371000D01*
X124149221Y-57369856D01*
X124126166Y-57366437D01*
X124103557Y-57360773D01*
X124081613Y-57352921D01*
X124060543Y-57342956D01*
X124040552Y-57330974D01*
X124021832Y-57317090D01*
X124004562Y-57301438D01*
X123988910Y-57284168D01*
X123975026Y-57265448D01*
X123963044Y-57245457D01*
X123953079Y-57224387D01*
X123945227Y-57202443D01*
X123939563Y-57179834D01*
X123936144Y-57156779D01*
X123935000Y-57133500D01*
X123935000Y-56658500D01*
X123936144Y-56635221D01*
X123939563Y-56612166D01*
X123945227Y-56589557D01*
X123953079Y-56567613D01*
X123963044Y-56546543D01*
X123975026Y-56526552D01*
X123988910Y-56507832D01*
X124004562Y-56490562D01*
X124021832Y-56474910D01*
X124040552Y-56461026D01*
X124060543Y-56449044D01*
X124081613Y-56439079D01*
X124103557Y-56431227D01*
X124126166Y-56425563D01*
X124149221Y-56422144D01*
X124172500Y-56421000D01*
X124747500Y-56421000D01*
X124770779Y-56422144D01*
X124770779Y-56422144D01*
G37*
D11*
X124460000Y-56896000D03*
D10*
G36*
X126520779Y-56422144D02*
X126543834Y-56425563D01*
X126566443Y-56431227D01*
X126588387Y-56439079D01*
X126609457Y-56449044D01*
X126629448Y-56461026D01*
X126648168Y-56474910D01*
X126665438Y-56490562D01*
X126681090Y-56507832D01*
X126694974Y-56526552D01*
X126706956Y-56546543D01*
X126716921Y-56567613D01*
X126724773Y-56589557D01*
X126730437Y-56612166D01*
X126733856Y-56635221D01*
X126735000Y-56658500D01*
X126735000Y-57133500D01*
X126733856Y-57156779D01*
X126730437Y-57179834D01*
X126724773Y-57202443D01*
X126716921Y-57224387D01*
X126706956Y-57245457D01*
X126694974Y-57265448D01*
X126681090Y-57284168D01*
X126665438Y-57301438D01*
X126648168Y-57317090D01*
X126629448Y-57330974D01*
X126609457Y-57342956D01*
X126588387Y-57352921D01*
X126566443Y-57360773D01*
X126543834Y-57366437D01*
X126520779Y-57369856D01*
X126497500Y-57371000D01*
X125922500Y-57371000D01*
X125899221Y-57369856D01*
X125876166Y-57366437D01*
X125853557Y-57360773D01*
X125831613Y-57352921D01*
X125810543Y-57342956D01*
X125790552Y-57330974D01*
X125771832Y-57317090D01*
X125754562Y-57301438D01*
X125738910Y-57284168D01*
X125725026Y-57265448D01*
X125713044Y-57245457D01*
X125703079Y-57224387D01*
X125695227Y-57202443D01*
X125689563Y-57179834D01*
X125686144Y-57156779D01*
X125685000Y-57133500D01*
X125685000Y-56658500D01*
X125686144Y-56635221D01*
X125689563Y-56612166D01*
X125695227Y-56589557D01*
X125703079Y-56567613D01*
X125713044Y-56546543D01*
X125725026Y-56526552D01*
X125738910Y-56507832D01*
X125754562Y-56490562D01*
X125771832Y-56474910D01*
X125790552Y-56461026D01*
X125810543Y-56449044D01*
X125831613Y-56439079D01*
X125853557Y-56431227D01*
X125876166Y-56425563D01*
X125899221Y-56422144D01*
X125922500Y-56421000D01*
X126497500Y-56421000D01*
X126520779Y-56422144D01*
X126520779Y-56422144D01*
G37*
D11*
X126210000Y-56896000D03*
G04 #@! TD*
D10*
G04 #@! TO.C,C30*
G36*
X115908779Y-67598144D02*
X115931834Y-67601563D01*
X115954443Y-67607227D01*
X115976387Y-67615079D01*
X115997457Y-67625044D01*
X116017448Y-67637026D01*
X116036168Y-67650910D01*
X116053438Y-67666562D01*
X116069090Y-67683832D01*
X116082974Y-67702552D01*
X116094956Y-67722543D01*
X116104921Y-67743613D01*
X116112773Y-67765557D01*
X116118437Y-67788166D01*
X116121856Y-67811221D01*
X116123000Y-67834500D01*
X116123000Y-68309500D01*
X116121856Y-68332779D01*
X116118437Y-68355834D01*
X116112773Y-68378443D01*
X116104921Y-68400387D01*
X116094956Y-68421457D01*
X116082974Y-68441448D01*
X116069090Y-68460168D01*
X116053438Y-68477438D01*
X116036168Y-68493090D01*
X116017448Y-68506974D01*
X115997457Y-68518956D01*
X115976387Y-68528921D01*
X115954443Y-68536773D01*
X115931834Y-68542437D01*
X115908779Y-68545856D01*
X115885500Y-68547000D01*
X115310500Y-68547000D01*
X115287221Y-68545856D01*
X115264166Y-68542437D01*
X115241557Y-68536773D01*
X115219613Y-68528921D01*
X115198543Y-68518956D01*
X115178552Y-68506974D01*
X115159832Y-68493090D01*
X115142562Y-68477438D01*
X115126910Y-68460168D01*
X115113026Y-68441448D01*
X115101044Y-68421457D01*
X115091079Y-68400387D01*
X115083227Y-68378443D01*
X115077563Y-68355834D01*
X115074144Y-68332779D01*
X115073000Y-68309500D01*
X115073000Y-67834500D01*
X115074144Y-67811221D01*
X115077563Y-67788166D01*
X115083227Y-67765557D01*
X115091079Y-67743613D01*
X115101044Y-67722543D01*
X115113026Y-67702552D01*
X115126910Y-67683832D01*
X115142562Y-67666562D01*
X115159832Y-67650910D01*
X115178552Y-67637026D01*
X115198543Y-67625044D01*
X115219613Y-67615079D01*
X115241557Y-67607227D01*
X115264166Y-67601563D01*
X115287221Y-67598144D01*
X115310500Y-67597000D01*
X115885500Y-67597000D01*
X115908779Y-67598144D01*
X115908779Y-67598144D01*
G37*
D11*
X115598000Y-68072000D03*
D10*
G36*
X117658779Y-67598144D02*
X117681834Y-67601563D01*
X117704443Y-67607227D01*
X117726387Y-67615079D01*
X117747457Y-67625044D01*
X117767448Y-67637026D01*
X117786168Y-67650910D01*
X117803438Y-67666562D01*
X117819090Y-67683832D01*
X117832974Y-67702552D01*
X117844956Y-67722543D01*
X117854921Y-67743613D01*
X117862773Y-67765557D01*
X117868437Y-67788166D01*
X117871856Y-67811221D01*
X117873000Y-67834500D01*
X117873000Y-68309500D01*
X117871856Y-68332779D01*
X117868437Y-68355834D01*
X117862773Y-68378443D01*
X117854921Y-68400387D01*
X117844956Y-68421457D01*
X117832974Y-68441448D01*
X117819090Y-68460168D01*
X117803438Y-68477438D01*
X117786168Y-68493090D01*
X117767448Y-68506974D01*
X117747457Y-68518956D01*
X117726387Y-68528921D01*
X117704443Y-68536773D01*
X117681834Y-68542437D01*
X117658779Y-68545856D01*
X117635500Y-68547000D01*
X117060500Y-68547000D01*
X117037221Y-68545856D01*
X117014166Y-68542437D01*
X116991557Y-68536773D01*
X116969613Y-68528921D01*
X116948543Y-68518956D01*
X116928552Y-68506974D01*
X116909832Y-68493090D01*
X116892562Y-68477438D01*
X116876910Y-68460168D01*
X116863026Y-68441448D01*
X116851044Y-68421457D01*
X116841079Y-68400387D01*
X116833227Y-68378443D01*
X116827563Y-68355834D01*
X116824144Y-68332779D01*
X116823000Y-68309500D01*
X116823000Y-67834500D01*
X116824144Y-67811221D01*
X116827563Y-67788166D01*
X116833227Y-67765557D01*
X116841079Y-67743613D01*
X116851044Y-67722543D01*
X116863026Y-67702552D01*
X116876910Y-67683832D01*
X116892562Y-67666562D01*
X116909832Y-67650910D01*
X116928552Y-67637026D01*
X116948543Y-67625044D01*
X116969613Y-67615079D01*
X116991557Y-67607227D01*
X117014166Y-67601563D01*
X117037221Y-67598144D01*
X117060500Y-67597000D01*
X117635500Y-67597000D01*
X117658779Y-67598144D01*
X117658779Y-67598144D01*
G37*
D11*
X117348000Y-68072000D03*
G04 #@! TD*
D10*
G04 #@! TO.C,L1*
G36*
X105487505Y-72453204D02*
X105511773Y-72456804D01*
X105535572Y-72462765D01*
X105558671Y-72471030D01*
X105580850Y-72481520D01*
X105601893Y-72494132D01*
X105621599Y-72508747D01*
X105639777Y-72525223D01*
X105656253Y-72543401D01*
X105670868Y-72563107D01*
X105683480Y-72584150D01*
X105693970Y-72606329D01*
X105702235Y-72629428D01*
X105708196Y-72653227D01*
X105711796Y-72677495D01*
X105713000Y-72701999D01*
X105713000Y-73602001D01*
X105711796Y-73626505D01*
X105708196Y-73650773D01*
X105702235Y-73674572D01*
X105693970Y-73697671D01*
X105683480Y-73719850D01*
X105670868Y-73740893D01*
X105656253Y-73760599D01*
X105639777Y-73778777D01*
X105621599Y-73795253D01*
X105601893Y-73809868D01*
X105580850Y-73822480D01*
X105558671Y-73832970D01*
X105535572Y-73841235D01*
X105511773Y-73847196D01*
X105487505Y-73850796D01*
X105463001Y-73852000D01*
X104812999Y-73852000D01*
X104788495Y-73850796D01*
X104764227Y-73847196D01*
X104740428Y-73841235D01*
X104717329Y-73832970D01*
X104695150Y-73822480D01*
X104674107Y-73809868D01*
X104654401Y-73795253D01*
X104636223Y-73778777D01*
X104619747Y-73760599D01*
X104605132Y-73740893D01*
X104592520Y-73719850D01*
X104582030Y-73697671D01*
X104573765Y-73674572D01*
X104567804Y-73650773D01*
X104564204Y-73626505D01*
X104563000Y-73602001D01*
X104563000Y-72701999D01*
X104564204Y-72677495D01*
X104567804Y-72653227D01*
X104573765Y-72629428D01*
X104582030Y-72606329D01*
X104592520Y-72584150D01*
X104605132Y-72563107D01*
X104619747Y-72543401D01*
X104636223Y-72525223D01*
X104654401Y-72508747D01*
X104674107Y-72494132D01*
X104695150Y-72481520D01*
X104717329Y-72471030D01*
X104740428Y-72462765D01*
X104764227Y-72456804D01*
X104788495Y-72453204D01*
X104812999Y-72452000D01*
X105463001Y-72452000D01*
X105487505Y-72453204D01*
X105487505Y-72453204D01*
G37*
D15*
X105138000Y-73152000D03*
D10*
G36*
X107537505Y-72453204D02*
X107561773Y-72456804D01*
X107585572Y-72462765D01*
X107608671Y-72471030D01*
X107630850Y-72481520D01*
X107651893Y-72494132D01*
X107671599Y-72508747D01*
X107689777Y-72525223D01*
X107706253Y-72543401D01*
X107720868Y-72563107D01*
X107733480Y-72584150D01*
X107743970Y-72606329D01*
X107752235Y-72629428D01*
X107758196Y-72653227D01*
X107761796Y-72677495D01*
X107763000Y-72701999D01*
X107763000Y-73602001D01*
X107761796Y-73626505D01*
X107758196Y-73650773D01*
X107752235Y-73674572D01*
X107743970Y-73697671D01*
X107733480Y-73719850D01*
X107720868Y-73740893D01*
X107706253Y-73760599D01*
X107689777Y-73778777D01*
X107671599Y-73795253D01*
X107651893Y-73809868D01*
X107630850Y-73822480D01*
X107608671Y-73832970D01*
X107585572Y-73841235D01*
X107561773Y-73847196D01*
X107537505Y-73850796D01*
X107513001Y-73852000D01*
X106862999Y-73852000D01*
X106838495Y-73850796D01*
X106814227Y-73847196D01*
X106790428Y-73841235D01*
X106767329Y-73832970D01*
X106745150Y-73822480D01*
X106724107Y-73809868D01*
X106704401Y-73795253D01*
X106686223Y-73778777D01*
X106669747Y-73760599D01*
X106655132Y-73740893D01*
X106642520Y-73719850D01*
X106632030Y-73697671D01*
X106623765Y-73674572D01*
X106617804Y-73650773D01*
X106614204Y-73626505D01*
X106613000Y-73602001D01*
X106613000Y-72701999D01*
X106614204Y-72677495D01*
X106617804Y-72653227D01*
X106623765Y-72629428D01*
X106632030Y-72606329D01*
X106642520Y-72584150D01*
X106655132Y-72563107D01*
X106669747Y-72543401D01*
X106686223Y-72525223D01*
X106704401Y-72508747D01*
X106724107Y-72494132D01*
X106745150Y-72481520D01*
X106767329Y-72471030D01*
X106790428Y-72462765D01*
X106814227Y-72456804D01*
X106838495Y-72453204D01*
X106862999Y-72452000D01*
X107513001Y-72452000D01*
X107537505Y-72453204D01*
X107537505Y-72453204D01*
G37*
D15*
X107188000Y-73152000D03*
G04 #@! TD*
D10*
G04 #@! TO.C,L4*
G36*
X111093505Y-68135204D02*
X111117773Y-68138804D01*
X111141572Y-68144765D01*
X111164671Y-68153030D01*
X111186850Y-68163520D01*
X111207893Y-68176132D01*
X111227599Y-68190747D01*
X111245777Y-68207223D01*
X111262253Y-68225401D01*
X111276868Y-68245107D01*
X111289480Y-68266150D01*
X111299970Y-68288329D01*
X111308235Y-68311428D01*
X111314196Y-68335227D01*
X111317796Y-68359495D01*
X111319000Y-68383999D01*
X111319000Y-69284001D01*
X111317796Y-69308505D01*
X111314196Y-69332773D01*
X111308235Y-69356572D01*
X111299970Y-69379671D01*
X111289480Y-69401850D01*
X111276868Y-69422893D01*
X111262253Y-69442599D01*
X111245777Y-69460777D01*
X111227599Y-69477253D01*
X111207893Y-69491868D01*
X111186850Y-69504480D01*
X111164671Y-69514970D01*
X111141572Y-69523235D01*
X111117773Y-69529196D01*
X111093505Y-69532796D01*
X111069001Y-69534000D01*
X110418999Y-69534000D01*
X110394495Y-69532796D01*
X110370227Y-69529196D01*
X110346428Y-69523235D01*
X110323329Y-69514970D01*
X110301150Y-69504480D01*
X110280107Y-69491868D01*
X110260401Y-69477253D01*
X110242223Y-69460777D01*
X110225747Y-69442599D01*
X110211132Y-69422893D01*
X110198520Y-69401850D01*
X110188030Y-69379671D01*
X110179765Y-69356572D01*
X110173804Y-69332773D01*
X110170204Y-69308505D01*
X110169000Y-69284001D01*
X110169000Y-68383999D01*
X110170204Y-68359495D01*
X110173804Y-68335227D01*
X110179765Y-68311428D01*
X110188030Y-68288329D01*
X110198520Y-68266150D01*
X110211132Y-68245107D01*
X110225747Y-68225401D01*
X110242223Y-68207223D01*
X110260401Y-68190747D01*
X110280107Y-68176132D01*
X110301150Y-68163520D01*
X110323329Y-68153030D01*
X110346428Y-68144765D01*
X110370227Y-68138804D01*
X110394495Y-68135204D01*
X110418999Y-68134000D01*
X111069001Y-68134000D01*
X111093505Y-68135204D01*
X111093505Y-68135204D01*
G37*
D15*
X110744000Y-68834000D03*
D10*
G36*
X109043505Y-68135204D02*
X109067773Y-68138804D01*
X109091572Y-68144765D01*
X109114671Y-68153030D01*
X109136850Y-68163520D01*
X109157893Y-68176132D01*
X109177599Y-68190747D01*
X109195777Y-68207223D01*
X109212253Y-68225401D01*
X109226868Y-68245107D01*
X109239480Y-68266150D01*
X109249970Y-68288329D01*
X109258235Y-68311428D01*
X109264196Y-68335227D01*
X109267796Y-68359495D01*
X109269000Y-68383999D01*
X109269000Y-69284001D01*
X109267796Y-69308505D01*
X109264196Y-69332773D01*
X109258235Y-69356572D01*
X109249970Y-69379671D01*
X109239480Y-69401850D01*
X109226868Y-69422893D01*
X109212253Y-69442599D01*
X109195777Y-69460777D01*
X109177599Y-69477253D01*
X109157893Y-69491868D01*
X109136850Y-69504480D01*
X109114671Y-69514970D01*
X109091572Y-69523235D01*
X109067773Y-69529196D01*
X109043505Y-69532796D01*
X109019001Y-69534000D01*
X108368999Y-69534000D01*
X108344495Y-69532796D01*
X108320227Y-69529196D01*
X108296428Y-69523235D01*
X108273329Y-69514970D01*
X108251150Y-69504480D01*
X108230107Y-69491868D01*
X108210401Y-69477253D01*
X108192223Y-69460777D01*
X108175747Y-69442599D01*
X108161132Y-69422893D01*
X108148520Y-69401850D01*
X108138030Y-69379671D01*
X108129765Y-69356572D01*
X108123804Y-69332773D01*
X108120204Y-69308505D01*
X108119000Y-69284001D01*
X108119000Y-68383999D01*
X108120204Y-68359495D01*
X108123804Y-68335227D01*
X108129765Y-68311428D01*
X108138030Y-68288329D01*
X108148520Y-68266150D01*
X108161132Y-68245107D01*
X108175747Y-68225401D01*
X108192223Y-68207223D01*
X108210401Y-68190747D01*
X108230107Y-68176132D01*
X108251150Y-68163520D01*
X108273329Y-68153030D01*
X108296428Y-68144765D01*
X108320227Y-68138804D01*
X108344495Y-68135204D01*
X108368999Y-68134000D01*
X109019001Y-68134000D01*
X109043505Y-68135204D01*
X109043505Y-68135204D01*
G37*
D15*
X108694000Y-68834000D03*
G04 #@! TD*
D10*
G04 #@! TO.C,L5*
G36*
X121214779Y-56422144D02*
X121237834Y-56425563D01*
X121260443Y-56431227D01*
X121282387Y-56439079D01*
X121303457Y-56449044D01*
X121323448Y-56461026D01*
X121342168Y-56474910D01*
X121359438Y-56490562D01*
X121375090Y-56507832D01*
X121388974Y-56526552D01*
X121400956Y-56546543D01*
X121410921Y-56567613D01*
X121418773Y-56589557D01*
X121424437Y-56612166D01*
X121427856Y-56635221D01*
X121429000Y-56658500D01*
X121429000Y-57133500D01*
X121427856Y-57156779D01*
X121424437Y-57179834D01*
X121418773Y-57202443D01*
X121410921Y-57224387D01*
X121400956Y-57245457D01*
X121388974Y-57265448D01*
X121375090Y-57284168D01*
X121359438Y-57301438D01*
X121342168Y-57317090D01*
X121323448Y-57330974D01*
X121303457Y-57342956D01*
X121282387Y-57352921D01*
X121260443Y-57360773D01*
X121237834Y-57366437D01*
X121214779Y-57369856D01*
X121191500Y-57371000D01*
X120616500Y-57371000D01*
X120593221Y-57369856D01*
X120570166Y-57366437D01*
X120547557Y-57360773D01*
X120525613Y-57352921D01*
X120504543Y-57342956D01*
X120484552Y-57330974D01*
X120465832Y-57317090D01*
X120448562Y-57301438D01*
X120432910Y-57284168D01*
X120419026Y-57265448D01*
X120407044Y-57245457D01*
X120397079Y-57224387D01*
X120389227Y-57202443D01*
X120383563Y-57179834D01*
X120380144Y-57156779D01*
X120379000Y-57133500D01*
X120379000Y-56658500D01*
X120380144Y-56635221D01*
X120383563Y-56612166D01*
X120389227Y-56589557D01*
X120397079Y-56567613D01*
X120407044Y-56546543D01*
X120419026Y-56526552D01*
X120432910Y-56507832D01*
X120448562Y-56490562D01*
X120465832Y-56474910D01*
X120484552Y-56461026D01*
X120504543Y-56449044D01*
X120525613Y-56439079D01*
X120547557Y-56431227D01*
X120570166Y-56425563D01*
X120593221Y-56422144D01*
X120616500Y-56421000D01*
X121191500Y-56421000D01*
X121214779Y-56422144D01*
X121214779Y-56422144D01*
G37*
D11*
X120904000Y-56896000D03*
D10*
G36*
X122964779Y-56422144D02*
X122987834Y-56425563D01*
X123010443Y-56431227D01*
X123032387Y-56439079D01*
X123053457Y-56449044D01*
X123073448Y-56461026D01*
X123092168Y-56474910D01*
X123109438Y-56490562D01*
X123125090Y-56507832D01*
X123138974Y-56526552D01*
X123150956Y-56546543D01*
X123160921Y-56567613D01*
X123168773Y-56589557D01*
X123174437Y-56612166D01*
X123177856Y-56635221D01*
X123179000Y-56658500D01*
X123179000Y-57133500D01*
X123177856Y-57156779D01*
X123174437Y-57179834D01*
X123168773Y-57202443D01*
X123160921Y-57224387D01*
X123150956Y-57245457D01*
X123138974Y-57265448D01*
X123125090Y-57284168D01*
X123109438Y-57301438D01*
X123092168Y-57317090D01*
X123073448Y-57330974D01*
X123053457Y-57342956D01*
X123032387Y-57352921D01*
X123010443Y-57360773D01*
X122987834Y-57366437D01*
X122964779Y-57369856D01*
X122941500Y-57371000D01*
X122366500Y-57371000D01*
X122343221Y-57369856D01*
X122320166Y-57366437D01*
X122297557Y-57360773D01*
X122275613Y-57352921D01*
X122254543Y-57342956D01*
X122234552Y-57330974D01*
X122215832Y-57317090D01*
X122198562Y-57301438D01*
X122182910Y-57284168D01*
X122169026Y-57265448D01*
X122157044Y-57245457D01*
X122147079Y-57224387D01*
X122139227Y-57202443D01*
X122133563Y-57179834D01*
X122130144Y-57156779D01*
X122129000Y-57133500D01*
X122129000Y-56658500D01*
X122130144Y-56635221D01*
X122133563Y-56612166D01*
X122139227Y-56589557D01*
X122147079Y-56567613D01*
X122157044Y-56546543D01*
X122169026Y-56526552D01*
X122182910Y-56507832D01*
X122198562Y-56490562D01*
X122215832Y-56474910D01*
X122234552Y-56461026D01*
X122254543Y-56449044D01*
X122275613Y-56439079D01*
X122297557Y-56431227D01*
X122320166Y-56425563D01*
X122343221Y-56422144D01*
X122366500Y-56421000D01*
X122941500Y-56421000D01*
X122964779Y-56422144D01*
X122964779Y-56422144D01*
G37*
D11*
X122654000Y-56896000D03*
G04 #@! TD*
D10*
G04 #@! TO.C,L6*
G36*
X117545779Y-63280144D02*
X117568834Y-63283563D01*
X117591443Y-63289227D01*
X117613387Y-63297079D01*
X117634457Y-63307044D01*
X117654448Y-63319026D01*
X117673168Y-63332910D01*
X117690438Y-63348562D01*
X117706090Y-63365832D01*
X117719974Y-63384552D01*
X117731956Y-63404543D01*
X117741921Y-63425613D01*
X117749773Y-63447557D01*
X117755437Y-63470166D01*
X117758856Y-63493221D01*
X117760000Y-63516500D01*
X117760000Y-63991500D01*
X117758856Y-64014779D01*
X117755437Y-64037834D01*
X117749773Y-64060443D01*
X117741921Y-64082387D01*
X117731956Y-64103457D01*
X117719974Y-64123448D01*
X117706090Y-64142168D01*
X117690438Y-64159438D01*
X117673168Y-64175090D01*
X117654448Y-64188974D01*
X117634457Y-64200956D01*
X117613387Y-64210921D01*
X117591443Y-64218773D01*
X117568834Y-64224437D01*
X117545779Y-64227856D01*
X117522500Y-64229000D01*
X116947500Y-64229000D01*
X116924221Y-64227856D01*
X116901166Y-64224437D01*
X116878557Y-64218773D01*
X116856613Y-64210921D01*
X116835543Y-64200956D01*
X116815552Y-64188974D01*
X116796832Y-64175090D01*
X116779562Y-64159438D01*
X116763910Y-64142168D01*
X116750026Y-64123448D01*
X116738044Y-64103457D01*
X116728079Y-64082387D01*
X116720227Y-64060443D01*
X116714563Y-64037834D01*
X116711144Y-64014779D01*
X116710000Y-63991500D01*
X116710000Y-63516500D01*
X116711144Y-63493221D01*
X116714563Y-63470166D01*
X116720227Y-63447557D01*
X116728079Y-63425613D01*
X116738044Y-63404543D01*
X116750026Y-63384552D01*
X116763910Y-63365832D01*
X116779562Y-63348562D01*
X116796832Y-63332910D01*
X116815552Y-63319026D01*
X116835543Y-63307044D01*
X116856613Y-63297079D01*
X116878557Y-63289227D01*
X116901166Y-63283563D01*
X116924221Y-63280144D01*
X116947500Y-63279000D01*
X117522500Y-63279000D01*
X117545779Y-63280144D01*
X117545779Y-63280144D01*
G37*
D11*
X117235000Y-63754000D03*
D10*
G36*
X119295779Y-63280144D02*
X119318834Y-63283563D01*
X119341443Y-63289227D01*
X119363387Y-63297079D01*
X119384457Y-63307044D01*
X119404448Y-63319026D01*
X119423168Y-63332910D01*
X119440438Y-63348562D01*
X119456090Y-63365832D01*
X119469974Y-63384552D01*
X119481956Y-63404543D01*
X119491921Y-63425613D01*
X119499773Y-63447557D01*
X119505437Y-63470166D01*
X119508856Y-63493221D01*
X119510000Y-63516500D01*
X119510000Y-63991500D01*
X119508856Y-64014779D01*
X119505437Y-64037834D01*
X119499773Y-64060443D01*
X119491921Y-64082387D01*
X119481956Y-64103457D01*
X119469974Y-64123448D01*
X119456090Y-64142168D01*
X119440438Y-64159438D01*
X119423168Y-64175090D01*
X119404448Y-64188974D01*
X119384457Y-64200956D01*
X119363387Y-64210921D01*
X119341443Y-64218773D01*
X119318834Y-64224437D01*
X119295779Y-64227856D01*
X119272500Y-64229000D01*
X118697500Y-64229000D01*
X118674221Y-64227856D01*
X118651166Y-64224437D01*
X118628557Y-64218773D01*
X118606613Y-64210921D01*
X118585543Y-64200956D01*
X118565552Y-64188974D01*
X118546832Y-64175090D01*
X118529562Y-64159438D01*
X118513910Y-64142168D01*
X118500026Y-64123448D01*
X118488044Y-64103457D01*
X118478079Y-64082387D01*
X118470227Y-64060443D01*
X118464563Y-64037834D01*
X118461144Y-64014779D01*
X118460000Y-63991500D01*
X118460000Y-63516500D01*
X118461144Y-63493221D01*
X118464563Y-63470166D01*
X118470227Y-63447557D01*
X118478079Y-63425613D01*
X118488044Y-63404543D01*
X118500026Y-63384552D01*
X118513910Y-63365832D01*
X118529562Y-63348562D01*
X118546832Y-63332910D01*
X118565552Y-63319026D01*
X118585543Y-63307044D01*
X118606613Y-63297079D01*
X118628557Y-63289227D01*
X118651166Y-63283563D01*
X118674221Y-63280144D01*
X118697500Y-63279000D01*
X119272500Y-63279000D01*
X119295779Y-63280144D01*
X119295779Y-63280144D01*
G37*
D11*
X118985000Y-63754000D03*
G04 #@! TD*
D10*
G04 #@! TO.C,C8*
G36*
X124537505Y-61023204D02*
X124561773Y-61026804D01*
X124585572Y-61032765D01*
X124608671Y-61041030D01*
X124630850Y-61051520D01*
X124651893Y-61064132D01*
X124671599Y-61078747D01*
X124689777Y-61095223D01*
X124706253Y-61113401D01*
X124720868Y-61133107D01*
X124733480Y-61154150D01*
X124743970Y-61176329D01*
X124752235Y-61199428D01*
X124758196Y-61223227D01*
X124761796Y-61247495D01*
X124763000Y-61271999D01*
X124763000Y-62172001D01*
X124761796Y-62196505D01*
X124758196Y-62220773D01*
X124752235Y-62244572D01*
X124743970Y-62267671D01*
X124733480Y-62289850D01*
X124720868Y-62310893D01*
X124706253Y-62330599D01*
X124689777Y-62348777D01*
X124671599Y-62365253D01*
X124651893Y-62379868D01*
X124630850Y-62392480D01*
X124608671Y-62402970D01*
X124585572Y-62411235D01*
X124561773Y-62417196D01*
X124537505Y-62420796D01*
X124513001Y-62422000D01*
X123862999Y-62422000D01*
X123838495Y-62420796D01*
X123814227Y-62417196D01*
X123790428Y-62411235D01*
X123767329Y-62402970D01*
X123745150Y-62392480D01*
X123724107Y-62379868D01*
X123704401Y-62365253D01*
X123686223Y-62348777D01*
X123669747Y-62330599D01*
X123655132Y-62310893D01*
X123642520Y-62289850D01*
X123632030Y-62267671D01*
X123623765Y-62244572D01*
X123617804Y-62220773D01*
X123614204Y-62196505D01*
X123613000Y-62172001D01*
X123613000Y-61271999D01*
X123614204Y-61247495D01*
X123617804Y-61223227D01*
X123623765Y-61199428D01*
X123632030Y-61176329D01*
X123642520Y-61154150D01*
X123655132Y-61133107D01*
X123669747Y-61113401D01*
X123686223Y-61095223D01*
X123704401Y-61078747D01*
X123724107Y-61064132D01*
X123745150Y-61051520D01*
X123767329Y-61041030D01*
X123790428Y-61032765D01*
X123814227Y-61026804D01*
X123838495Y-61023204D01*
X123862999Y-61022000D01*
X124513001Y-61022000D01*
X124537505Y-61023204D01*
X124537505Y-61023204D01*
G37*
D15*
X124188000Y-61722000D03*
D10*
G36*
X126587505Y-61023204D02*
X126611773Y-61026804D01*
X126635572Y-61032765D01*
X126658671Y-61041030D01*
X126680850Y-61051520D01*
X126701893Y-61064132D01*
X126721599Y-61078747D01*
X126739777Y-61095223D01*
X126756253Y-61113401D01*
X126770868Y-61133107D01*
X126783480Y-61154150D01*
X126793970Y-61176329D01*
X126802235Y-61199428D01*
X126808196Y-61223227D01*
X126811796Y-61247495D01*
X126813000Y-61271999D01*
X126813000Y-62172001D01*
X126811796Y-62196505D01*
X126808196Y-62220773D01*
X126802235Y-62244572D01*
X126793970Y-62267671D01*
X126783480Y-62289850D01*
X126770868Y-62310893D01*
X126756253Y-62330599D01*
X126739777Y-62348777D01*
X126721599Y-62365253D01*
X126701893Y-62379868D01*
X126680850Y-62392480D01*
X126658671Y-62402970D01*
X126635572Y-62411235D01*
X126611773Y-62417196D01*
X126587505Y-62420796D01*
X126563001Y-62422000D01*
X125912999Y-62422000D01*
X125888495Y-62420796D01*
X125864227Y-62417196D01*
X125840428Y-62411235D01*
X125817329Y-62402970D01*
X125795150Y-62392480D01*
X125774107Y-62379868D01*
X125754401Y-62365253D01*
X125736223Y-62348777D01*
X125719747Y-62330599D01*
X125705132Y-62310893D01*
X125692520Y-62289850D01*
X125682030Y-62267671D01*
X125673765Y-62244572D01*
X125667804Y-62220773D01*
X125664204Y-62196505D01*
X125663000Y-62172001D01*
X125663000Y-61271999D01*
X125664204Y-61247495D01*
X125667804Y-61223227D01*
X125673765Y-61199428D01*
X125682030Y-61176329D01*
X125692520Y-61154150D01*
X125705132Y-61133107D01*
X125719747Y-61113401D01*
X125736223Y-61095223D01*
X125754401Y-61078747D01*
X125774107Y-61064132D01*
X125795150Y-61051520D01*
X125817329Y-61041030D01*
X125840428Y-61032765D01*
X125864227Y-61026804D01*
X125888495Y-61023204D01*
X125912999Y-61022000D01*
X126563001Y-61022000D01*
X126587505Y-61023204D01*
X126587505Y-61023204D01*
G37*
D15*
X126238000Y-61722000D03*
G04 #@! TD*
D10*
G04 #@! TO.C,C18*
G36*
X107292505Y-74739204D02*
X107316773Y-74742804D01*
X107340572Y-74748765D01*
X107363671Y-74757030D01*
X107385850Y-74767520D01*
X107406893Y-74780132D01*
X107426599Y-74794747D01*
X107444777Y-74811223D01*
X107461253Y-74829401D01*
X107475868Y-74849107D01*
X107488480Y-74870150D01*
X107498970Y-74892329D01*
X107507235Y-74915428D01*
X107513196Y-74939227D01*
X107516796Y-74963495D01*
X107518000Y-74987999D01*
X107518000Y-75888001D01*
X107516796Y-75912505D01*
X107513196Y-75936773D01*
X107507235Y-75960572D01*
X107498970Y-75983671D01*
X107488480Y-76005850D01*
X107475868Y-76026893D01*
X107461253Y-76046599D01*
X107444777Y-76064777D01*
X107426599Y-76081253D01*
X107406893Y-76095868D01*
X107385850Y-76108480D01*
X107363671Y-76118970D01*
X107340572Y-76127235D01*
X107316773Y-76133196D01*
X107292505Y-76136796D01*
X107268001Y-76138000D01*
X106617999Y-76138000D01*
X106593495Y-76136796D01*
X106569227Y-76133196D01*
X106545428Y-76127235D01*
X106522329Y-76118970D01*
X106500150Y-76108480D01*
X106479107Y-76095868D01*
X106459401Y-76081253D01*
X106441223Y-76064777D01*
X106424747Y-76046599D01*
X106410132Y-76026893D01*
X106397520Y-76005850D01*
X106387030Y-75983671D01*
X106378765Y-75960572D01*
X106372804Y-75936773D01*
X106369204Y-75912505D01*
X106368000Y-75888001D01*
X106368000Y-74987999D01*
X106369204Y-74963495D01*
X106372804Y-74939227D01*
X106378765Y-74915428D01*
X106387030Y-74892329D01*
X106397520Y-74870150D01*
X106410132Y-74849107D01*
X106424747Y-74829401D01*
X106441223Y-74811223D01*
X106459401Y-74794747D01*
X106479107Y-74780132D01*
X106500150Y-74767520D01*
X106522329Y-74757030D01*
X106545428Y-74748765D01*
X106569227Y-74742804D01*
X106593495Y-74739204D01*
X106617999Y-74738000D01*
X107268001Y-74738000D01*
X107292505Y-74739204D01*
X107292505Y-74739204D01*
G37*
D15*
X106943000Y-75438000D03*
D10*
G36*
X105242505Y-74739204D02*
X105266773Y-74742804D01*
X105290572Y-74748765D01*
X105313671Y-74757030D01*
X105335850Y-74767520D01*
X105356893Y-74780132D01*
X105376599Y-74794747D01*
X105394777Y-74811223D01*
X105411253Y-74829401D01*
X105425868Y-74849107D01*
X105438480Y-74870150D01*
X105448970Y-74892329D01*
X105457235Y-74915428D01*
X105463196Y-74939227D01*
X105466796Y-74963495D01*
X105468000Y-74987999D01*
X105468000Y-75888001D01*
X105466796Y-75912505D01*
X105463196Y-75936773D01*
X105457235Y-75960572D01*
X105448970Y-75983671D01*
X105438480Y-76005850D01*
X105425868Y-76026893D01*
X105411253Y-76046599D01*
X105394777Y-76064777D01*
X105376599Y-76081253D01*
X105356893Y-76095868D01*
X105335850Y-76108480D01*
X105313671Y-76118970D01*
X105290572Y-76127235D01*
X105266773Y-76133196D01*
X105242505Y-76136796D01*
X105218001Y-76138000D01*
X104567999Y-76138000D01*
X104543495Y-76136796D01*
X104519227Y-76133196D01*
X104495428Y-76127235D01*
X104472329Y-76118970D01*
X104450150Y-76108480D01*
X104429107Y-76095868D01*
X104409401Y-76081253D01*
X104391223Y-76064777D01*
X104374747Y-76046599D01*
X104360132Y-76026893D01*
X104347520Y-76005850D01*
X104337030Y-75983671D01*
X104328765Y-75960572D01*
X104322804Y-75936773D01*
X104319204Y-75912505D01*
X104318000Y-75888001D01*
X104318000Y-74987999D01*
X104319204Y-74963495D01*
X104322804Y-74939227D01*
X104328765Y-74915428D01*
X104337030Y-74892329D01*
X104347520Y-74870150D01*
X104360132Y-74849107D01*
X104374747Y-74829401D01*
X104391223Y-74811223D01*
X104409401Y-74794747D01*
X104429107Y-74780132D01*
X104450150Y-74767520D01*
X104472329Y-74757030D01*
X104495428Y-74748765D01*
X104519227Y-74742804D01*
X104543495Y-74739204D01*
X104567999Y-74738000D01*
X105218001Y-74738000D01*
X105242505Y-74739204D01*
X105242505Y-74739204D01*
G37*
D15*
X104893000Y-75438000D03*
G04 #@! TD*
D10*
G04 #@! TO.C,C20*
G36*
X114903505Y-84899204D02*
X114927773Y-84902804D01*
X114951572Y-84908765D01*
X114974671Y-84917030D01*
X114996850Y-84927520D01*
X115017893Y-84940132D01*
X115037599Y-84954747D01*
X115055777Y-84971223D01*
X115072253Y-84989401D01*
X115086868Y-85009107D01*
X115099480Y-85030150D01*
X115109970Y-85052329D01*
X115118235Y-85075428D01*
X115124196Y-85099227D01*
X115127796Y-85123495D01*
X115129000Y-85147999D01*
X115129000Y-86048001D01*
X115127796Y-86072505D01*
X115124196Y-86096773D01*
X115118235Y-86120572D01*
X115109970Y-86143671D01*
X115099480Y-86165850D01*
X115086868Y-86186893D01*
X115072253Y-86206599D01*
X115055777Y-86224777D01*
X115037599Y-86241253D01*
X115017893Y-86255868D01*
X114996850Y-86268480D01*
X114974671Y-86278970D01*
X114951572Y-86287235D01*
X114927773Y-86293196D01*
X114903505Y-86296796D01*
X114879001Y-86298000D01*
X114228999Y-86298000D01*
X114204495Y-86296796D01*
X114180227Y-86293196D01*
X114156428Y-86287235D01*
X114133329Y-86278970D01*
X114111150Y-86268480D01*
X114090107Y-86255868D01*
X114070401Y-86241253D01*
X114052223Y-86224777D01*
X114035747Y-86206599D01*
X114021132Y-86186893D01*
X114008520Y-86165850D01*
X113998030Y-86143671D01*
X113989765Y-86120572D01*
X113983804Y-86096773D01*
X113980204Y-86072505D01*
X113979000Y-86048001D01*
X113979000Y-85147999D01*
X113980204Y-85123495D01*
X113983804Y-85099227D01*
X113989765Y-85075428D01*
X113998030Y-85052329D01*
X114008520Y-85030150D01*
X114021132Y-85009107D01*
X114035747Y-84989401D01*
X114052223Y-84971223D01*
X114070401Y-84954747D01*
X114090107Y-84940132D01*
X114111150Y-84927520D01*
X114133329Y-84917030D01*
X114156428Y-84908765D01*
X114180227Y-84902804D01*
X114204495Y-84899204D01*
X114228999Y-84898000D01*
X114879001Y-84898000D01*
X114903505Y-84899204D01*
X114903505Y-84899204D01*
G37*
D15*
X114554000Y-85598000D03*
D10*
G36*
X112853505Y-84899204D02*
X112877773Y-84902804D01*
X112901572Y-84908765D01*
X112924671Y-84917030D01*
X112946850Y-84927520D01*
X112967893Y-84940132D01*
X112987599Y-84954747D01*
X113005777Y-84971223D01*
X113022253Y-84989401D01*
X113036868Y-85009107D01*
X113049480Y-85030150D01*
X113059970Y-85052329D01*
X113068235Y-85075428D01*
X113074196Y-85099227D01*
X113077796Y-85123495D01*
X113079000Y-85147999D01*
X113079000Y-86048001D01*
X113077796Y-86072505D01*
X113074196Y-86096773D01*
X113068235Y-86120572D01*
X113059970Y-86143671D01*
X113049480Y-86165850D01*
X113036868Y-86186893D01*
X113022253Y-86206599D01*
X113005777Y-86224777D01*
X112987599Y-86241253D01*
X112967893Y-86255868D01*
X112946850Y-86268480D01*
X112924671Y-86278970D01*
X112901572Y-86287235D01*
X112877773Y-86293196D01*
X112853505Y-86296796D01*
X112829001Y-86298000D01*
X112178999Y-86298000D01*
X112154495Y-86296796D01*
X112130227Y-86293196D01*
X112106428Y-86287235D01*
X112083329Y-86278970D01*
X112061150Y-86268480D01*
X112040107Y-86255868D01*
X112020401Y-86241253D01*
X112002223Y-86224777D01*
X111985747Y-86206599D01*
X111971132Y-86186893D01*
X111958520Y-86165850D01*
X111948030Y-86143671D01*
X111939765Y-86120572D01*
X111933804Y-86096773D01*
X111930204Y-86072505D01*
X111929000Y-86048001D01*
X111929000Y-85147999D01*
X111930204Y-85123495D01*
X111933804Y-85099227D01*
X111939765Y-85075428D01*
X111948030Y-85052329D01*
X111958520Y-85030150D01*
X111971132Y-85009107D01*
X111985747Y-84989401D01*
X112002223Y-84971223D01*
X112020401Y-84954747D01*
X112040107Y-84940132D01*
X112061150Y-84927520D01*
X112083329Y-84917030D01*
X112106428Y-84908765D01*
X112130227Y-84902804D01*
X112154495Y-84899204D01*
X112178999Y-84898000D01*
X112829001Y-84898000D01*
X112853505Y-84899204D01*
X112853505Y-84899204D01*
G37*
D15*
X112504000Y-85598000D03*
G04 #@! TD*
D10*
G04 #@! TO.C,C23*
G36*
X104868505Y-63189204D02*
X104892773Y-63192804D01*
X104916572Y-63198765D01*
X104939671Y-63207030D01*
X104961850Y-63217520D01*
X104982893Y-63230132D01*
X105002599Y-63244747D01*
X105020777Y-63261223D01*
X105037253Y-63279401D01*
X105051868Y-63299107D01*
X105064480Y-63320150D01*
X105074970Y-63342329D01*
X105083235Y-63365428D01*
X105089196Y-63389227D01*
X105092796Y-63413495D01*
X105094000Y-63437999D01*
X105094000Y-64088001D01*
X105092796Y-64112505D01*
X105089196Y-64136773D01*
X105083235Y-64160572D01*
X105074970Y-64183671D01*
X105064480Y-64205850D01*
X105051868Y-64226893D01*
X105037253Y-64246599D01*
X105020777Y-64264777D01*
X105002599Y-64281253D01*
X104982893Y-64295868D01*
X104961850Y-64308480D01*
X104939671Y-64318970D01*
X104916572Y-64327235D01*
X104892773Y-64333196D01*
X104868505Y-64336796D01*
X104844001Y-64338000D01*
X103943999Y-64338000D01*
X103919495Y-64336796D01*
X103895227Y-64333196D01*
X103871428Y-64327235D01*
X103848329Y-64318970D01*
X103826150Y-64308480D01*
X103805107Y-64295868D01*
X103785401Y-64281253D01*
X103767223Y-64264777D01*
X103750747Y-64246599D01*
X103736132Y-64226893D01*
X103723520Y-64205850D01*
X103713030Y-64183671D01*
X103704765Y-64160572D01*
X103698804Y-64136773D01*
X103695204Y-64112505D01*
X103694000Y-64088001D01*
X103694000Y-63437999D01*
X103695204Y-63413495D01*
X103698804Y-63389227D01*
X103704765Y-63365428D01*
X103713030Y-63342329D01*
X103723520Y-63320150D01*
X103736132Y-63299107D01*
X103750747Y-63279401D01*
X103767223Y-63261223D01*
X103785401Y-63244747D01*
X103805107Y-63230132D01*
X103826150Y-63217520D01*
X103848329Y-63207030D01*
X103871428Y-63198765D01*
X103895227Y-63192804D01*
X103919495Y-63189204D01*
X103943999Y-63188000D01*
X104844001Y-63188000D01*
X104868505Y-63189204D01*
X104868505Y-63189204D01*
G37*
D15*
X104394000Y-63763000D03*
D10*
G36*
X104868505Y-61139204D02*
X104892773Y-61142804D01*
X104916572Y-61148765D01*
X104939671Y-61157030D01*
X104961850Y-61167520D01*
X104982893Y-61180132D01*
X105002599Y-61194747D01*
X105020777Y-61211223D01*
X105037253Y-61229401D01*
X105051868Y-61249107D01*
X105064480Y-61270150D01*
X105074970Y-61292329D01*
X105083235Y-61315428D01*
X105089196Y-61339227D01*
X105092796Y-61363495D01*
X105094000Y-61387999D01*
X105094000Y-62038001D01*
X105092796Y-62062505D01*
X105089196Y-62086773D01*
X105083235Y-62110572D01*
X105074970Y-62133671D01*
X105064480Y-62155850D01*
X105051868Y-62176893D01*
X105037253Y-62196599D01*
X105020777Y-62214777D01*
X105002599Y-62231253D01*
X104982893Y-62245868D01*
X104961850Y-62258480D01*
X104939671Y-62268970D01*
X104916572Y-62277235D01*
X104892773Y-62283196D01*
X104868505Y-62286796D01*
X104844001Y-62288000D01*
X103943999Y-62288000D01*
X103919495Y-62286796D01*
X103895227Y-62283196D01*
X103871428Y-62277235D01*
X103848329Y-62268970D01*
X103826150Y-62258480D01*
X103805107Y-62245868D01*
X103785401Y-62231253D01*
X103767223Y-62214777D01*
X103750747Y-62196599D01*
X103736132Y-62176893D01*
X103723520Y-62155850D01*
X103713030Y-62133671D01*
X103704765Y-62110572D01*
X103698804Y-62086773D01*
X103695204Y-62062505D01*
X103694000Y-62038001D01*
X103694000Y-61387999D01*
X103695204Y-61363495D01*
X103698804Y-61339227D01*
X103704765Y-61315428D01*
X103713030Y-61292329D01*
X103723520Y-61270150D01*
X103736132Y-61249107D01*
X103750747Y-61229401D01*
X103767223Y-61211223D01*
X103785401Y-61194747D01*
X103805107Y-61180132D01*
X103826150Y-61167520D01*
X103848329Y-61157030D01*
X103871428Y-61148765D01*
X103895227Y-61142804D01*
X103919495Y-61139204D01*
X103943999Y-61138000D01*
X104844001Y-61138000D01*
X104868505Y-61139204D01*
X104868505Y-61139204D01*
G37*
D15*
X104394000Y-61713000D03*
G04 #@! TD*
D10*
G04 #@! TO.C,C26*
G36*
X108073005Y-70167204D02*
X108097273Y-70170804D01*
X108121072Y-70176765D01*
X108144171Y-70185030D01*
X108166350Y-70195520D01*
X108187393Y-70208132D01*
X108207099Y-70222747D01*
X108225277Y-70239223D01*
X108241753Y-70257401D01*
X108256368Y-70277107D01*
X108268980Y-70298150D01*
X108279470Y-70320329D01*
X108287735Y-70343428D01*
X108293696Y-70367227D01*
X108297296Y-70391495D01*
X108298500Y-70415999D01*
X108298500Y-71316001D01*
X108297296Y-71340505D01*
X108293696Y-71364773D01*
X108287735Y-71388572D01*
X108279470Y-71411671D01*
X108268980Y-71433850D01*
X108256368Y-71454893D01*
X108241753Y-71474599D01*
X108225277Y-71492777D01*
X108207099Y-71509253D01*
X108187393Y-71523868D01*
X108166350Y-71536480D01*
X108144171Y-71546970D01*
X108121072Y-71555235D01*
X108097273Y-71561196D01*
X108073005Y-71564796D01*
X108048501Y-71566000D01*
X107398499Y-71566000D01*
X107373995Y-71564796D01*
X107349727Y-71561196D01*
X107325928Y-71555235D01*
X107302829Y-71546970D01*
X107280650Y-71536480D01*
X107259607Y-71523868D01*
X107239901Y-71509253D01*
X107221723Y-71492777D01*
X107205247Y-71474599D01*
X107190632Y-71454893D01*
X107178020Y-71433850D01*
X107167530Y-71411671D01*
X107159265Y-71388572D01*
X107153304Y-71364773D01*
X107149704Y-71340505D01*
X107148500Y-71316001D01*
X107148500Y-70415999D01*
X107149704Y-70391495D01*
X107153304Y-70367227D01*
X107159265Y-70343428D01*
X107167530Y-70320329D01*
X107178020Y-70298150D01*
X107190632Y-70277107D01*
X107205247Y-70257401D01*
X107221723Y-70239223D01*
X107239901Y-70222747D01*
X107259607Y-70208132D01*
X107280650Y-70195520D01*
X107302829Y-70185030D01*
X107325928Y-70176765D01*
X107349727Y-70170804D01*
X107373995Y-70167204D01*
X107398499Y-70166000D01*
X108048501Y-70166000D01*
X108073005Y-70167204D01*
X108073005Y-70167204D01*
G37*
D15*
X107723500Y-70866000D03*
D10*
G36*
X110123005Y-70167204D02*
X110147273Y-70170804D01*
X110171072Y-70176765D01*
X110194171Y-70185030D01*
X110216350Y-70195520D01*
X110237393Y-70208132D01*
X110257099Y-70222747D01*
X110275277Y-70239223D01*
X110291753Y-70257401D01*
X110306368Y-70277107D01*
X110318980Y-70298150D01*
X110329470Y-70320329D01*
X110337735Y-70343428D01*
X110343696Y-70367227D01*
X110347296Y-70391495D01*
X110348500Y-70415999D01*
X110348500Y-71316001D01*
X110347296Y-71340505D01*
X110343696Y-71364773D01*
X110337735Y-71388572D01*
X110329470Y-71411671D01*
X110318980Y-71433850D01*
X110306368Y-71454893D01*
X110291753Y-71474599D01*
X110275277Y-71492777D01*
X110257099Y-71509253D01*
X110237393Y-71523868D01*
X110216350Y-71536480D01*
X110194171Y-71546970D01*
X110171072Y-71555235D01*
X110147273Y-71561196D01*
X110123005Y-71564796D01*
X110098501Y-71566000D01*
X109448499Y-71566000D01*
X109423995Y-71564796D01*
X109399727Y-71561196D01*
X109375928Y-71555235D01*
X109352829Y-71546970D01*
X109330650Y-71536480D01*
X109309607Y-71523868D01*
X109289901Y-71509253D01*
X109271723Y-71492777D01*
X109255247Y-71474599D01*
X109240632Y-71454893D01*
X109228020Y-71433850D01*
X109217530Y-71411671D01*
X109209265Y-71388572D01*
X109203304Y-71364773D01*
X109199704Y-71340505D01*
X109198500Y-71316001D01*
X109198500Y-70415999D01*
X109199704Y-70391495D01*
X109203304Y-70367227D01*
X109209265Y-70343428D01*
X109217530Y-70320329D01*
X109228020Y-70298150D01*
X109240632Y-70277107D01*
X109255247Y-70257401D01*
X109271723Y-70239223D01*
X109289901Y-70222747D01*
X109309607Y-70208132D01*
X109330650Y-70195520D01*
X109352829Y-70185030D01*
X109375928Y-70176765D01*
X109399727Y-70170804D01*
X109423995Y-70167204D01*
X109448499Y-70166000D01*
X110098501Y-70166000D01*
X110123005Y-70167204D01*
X110123005Y-70167204D01*
G37*
D15*
X109773500Y-70866000D03*
G04 #@! TD*
D10*
G04 #@! TO.C,C29*
G36*
X123031505Y-57975204D02*
X123055773Y-57978804D01*
X123079572Y-57984765D01*
X123102671Y-57993030D01*
X123124850Y-58003520D01*
X123145893Y-58016132D01*
X123165599Y-58030747D01*
X123183777Y-58047223D01*
X123200253Y-58065401D01*
X123214868Y-58085107D01*
X123227480Y-58106150D01*
X123237970Y-58128329D01*
X123246235Y-58151428D01*
X123252196Y-58175227D01*
X123255796Y-58199495D01*
X123257000Y-58223999D01*
X123257000Y-59124001D01*
X123255796Y-59148505D01*
X123252196Y-59172773D01*
X123246235Y-59196572D01*
X123237970Y-59219671D01*
X123227480Y-59241850D01*
X123214868Y-59262893D01*
X123200253Y-59282599D01*
X123183777Y-59300777D01*
X123165599Y-59317253D01*
X123145893Y-59331868D01*
X123124850Y-59344480D01*
X123102671Y-59354970D01*
X123079572Y-59363235D01*
X123055773Y-59369196D01*
X123031505Y-59372796D01*
X123007001Y-59374000D01*
X122356999Y-59374000D01*
X122332495Y-59372796D01*
X122308227Y-59369196D01*
X122284428Y-59363235D01*
X122261329Y-59354970D01*
X122239150Y-59344480D01*
X122218107Y-59331868D01*
X122198401Y-59317253D01*
X122180223Y-59300777D01*
X122163747Y-59282599D01*
X122149132Y-59262893D01*
X122136520Y-59241850D01*
X122126030Y-59219671D01*
X122117765Y-59196572D01*
X122111804Y-59172773D01*
X122108204Y-59148505D01*
X122107000Y-59124001D01*
X122107000Y-58223999D01*
X122108204Y-58199495D01*
X122111804Y-58175227D01*
X122117765Y-58151428D01*
X122126030Y-58128329D01*
X122136520Y-58106150D01*
X122149132Y-58085107D01*
X122163747Y-58065401D01*
X122180223Y-58047223D01*
X122198401Y-58030747D01*
X122218107Y-58016132D01*
X122239150Y-58003520D01*
X122261329Y-57993030D01*
X122284428Y-57984765D01*
X122308227Y-57978804D01*
X122332495Y-57975204D01*
X122356999Y-57974000D01*
X123007001Y-57974000D01*
X123031505Y-57975204D01*
X123031505Y-57975204D01*
G37*
D15*
X122682000Y-58674000D03*
D10*
G36*
X120981505Y-57975204D02*
X121005773Y-57978804D01*
X121029572Y-57984765D01*
X121052671Y-57993030D01*
X121074850Y-58003520D01*
X121095893Y-58016132D01*
X121115599Y-58030747D01*
X121133777Y-58047223D01*
X121150253Y-58065401D01*
X121164868Y-58085107D01*
X121177480Y-58106150D01*
X121187970Y-58128329D01*
X121196235Y-58151428D01*
X121202196Y-58175227D01*
X121205796Y-58199495D01*
X121207000Y-58223999D01*
X121207000Y-59124001D01*
X121205796Y-59148505D01*
X121202196Y-59172773D01*
X121196235Y-59196572D01*
X121187970Y-59219671D01*
X121177480Y-59241850D01*
X121164868Y-59262893D01*
X121150253Y-59282599D01*
X121133777Y-59300777D01*
X121115599Y-59317253D01*
X121095893Y-59331868D01*
X121074850Y-59344480D01*
X121052671Y-59354970D01*
X121029572Y-59363235D01*
X121005773Y-59369196D01*
X120981505Y-59372796D01*
X120957001Y-59374000D01*
X120306999Y-59374000D01*
X120282495Y-59372796D01*
X120258227Y-59369196D01*
X120234428Y-59363235D01*
X120211329Y-59354970D01*
X120189150Y-59344480D01*
X120168107Y-59331868D01*
X120148401Y-59317253D01*
X120130223Y-59300777D01*
X120113747Y-59282599D01*
X120099132Y-59262893D01*
X120086520Y-59241850D01*
X120076030Y-59219671D01*
X120067765Y-59196572D01*
X120061804Y-59172773D01*
X120058204Y-59148505D01*
X120057000Y-59124001D01*
X120057000Y-58223999D01*
X120058204Y-58199495D01*
X120061804Y-58175227D01*
X120067765Y-58151428D01*
X120076030Y-58128329D01*
X120086520Y-58106150D01*
X120099132Y-58085107D01*
X120113747Y-58065401D01*
X120130223Y-58047223D01*
X120148401Y-58030747D01*
X120168107Y-58016132D01*
X120189150Y-58003520D01*
X120211329Y-57993030D01*
X120234428Y-57984765D01*
X120258227Y-57978804D01*
X120282495Y-57975204D01*
X120306999Y-57974000D01*
X120957001Y-57974000D01*
X120981505Y-57975204D01*
X120981505Y-57975204D01*
G37*
D15*
X120632000Y-58674000D03*
G04 #@! TD*
D10*
G04 #@! TO.C,C31*
G36*
X116409505Y-65087204D02*
X116433773Y-65090804D01*
X116457572Y-65096765D01*
X116480671Y-65105030D01*
X116502850Y-65115520D01*
X116523893Y-65128132D01*
X116543599Y-65142747D01*
X116561777Y-65159223D01*
X116578253Y-65177401D01*
X116592868Y-65197107D01*
X116605480Y-65218150D01*
X116615970Y-65240329D01*
X116624235Y-65263428D01*
X116630196Y-65287227D01*
X116633796Y-65311495D01*
X116635000Y-65335999D01*
X116635000Y-66236001D01*
X116633796Y-66260505D01*
X116630196Y-66284773D01*
X116624235Y-66308572D01*
X116615970Y-66331671D01*
X116605480Y-66353850D01*
X116592868Y-66374893D01*
X116578253Y-66394599D01*
X116561777Y-66412777D01*
X116543599Y-66429253D01*
X116523893Y-66443868D01*
X116502850Y-66456480D01*
X116480671Y-66466970D01*
X116457572Y-66475235D01*
X116433773Y-66481196D01*
X116409505Y-66484796D01*
X116385001Y-66486000D01*
X115734999Y-66486000D01*
X115710495Y-66484796D01*
X115686227Y-66481196D01*
X115662428Y-66475235D01*
X115639329Y-66466970D01*
X115617150Y-66456480D01*
X115596107Y-66443868D01*
X115576401Y-66429253D01*
X115558223Y-66412777D01*
X115541747Y-66394599D01*
X115527132Y-66374893D01*
X115514520Y-66353850D01*
X115504030Y-66331671D01*
X115495765Y-66308572D01*
X115489804Y-66284773D01*
X115486204Y-66260505D01*
X115485000Y-66236001D01*
X115485000Y-65335999D01*
X115486204Y-65311495D01*
X115489804Y-65287227D01*
X115495765Y-65263428D01*
X115504030Y-65240329D01*
X115514520Y-65218150D01*
X115527132Y-65197107D01*
X115541747Y-65177401D01*
X115558223Y-65159223D01*
X115576401Y-65142747D01*
X115596107Y-65128132D01*
X115617150Y-65115520D01*
X115639329Y-65105030D01*
X115662428Y-65096765D01*
X115686227Y-65090804D01*
X115710495Y-65087204D01*
X115734999Y-65086000D01*
X116385001Y-65086000D01*
X116409505Y-65087204D01*
X116409505Y-65087204D01*
G37*
D15*
X116060000Y-65786000D03*
D10*
G36*
X118459505Y-65087204D02*
X118483773Y-65090804D01*
X118507572Y-65096765D01*
X118530671Y-65105030D01*
X118552850Y-65115520D01*
X118573893Y-65128132D01*
X118593599Y-65142747D01*
X118611777Y-65159223D01*
X118628253Y-65177401D01*
X118642868Y-65197107D01*
X118655480Y-65218150D01*
X118665970Y-65240329D01*
X118674235Y-65263428D01*
X118680196Y-65287227D01*
X118683796Y-65311495D01*
X118685000Y-65335999D01*
X118685000Y-66236001D01*
X118683796Y-66260505D01*
X118680196Y-66284773D01*
X118674235Y-66308572D01*
X118665970Y-66331671D01*
X118655480Y-66353850D01*
X118642868Y-66374893D01*
X118628253Y-66394599D01*
X118611777Y-66412777D01*
X118593599Y-66429253D01*
X118573893Y-66443868D01*
X118552850Y-66456480D01*
X118530671Y-66466970D01*
X118507572Y-66475235D01*
X118483773Y-66481196D01*
X118459505Y-66484796D01*
X118435001Y-66486000D01*
X117784999Y-66486000D01*
X117760495Y-66484796D01*
X117736227Y-66481196D01*
X117712428Y-66475235D01*
X117689329Y-66466970D01*
X117667150Y-66456480D01*
X117646107Y-66443868D01*
X117626401Y-66429253D01*
X117608223Y-66412777D01*
X117591747Y-66394599D01*
X117577132Y-66374893D01*
X117564520Y-66353850D01*
X117554030Y-66331671D01*
X117545765Y-66308572D01*
X117539804Y-66284773D01*
X117536204Y-66260505D01*
X117535000Y-66236001D01*
X117535000Y-65335999D01*
X117536204Y-65311495D01*
X117539804Y-65287227D01*
X117545765Y-65263428D01*
X117554030Y-65240329D01*
X117564520Y-65218150D01*
X117577132Y-65197107D01*
X117591747Y-65177401D01*
X117608223Y-65159223D01*
X117626401Y-65142747D01*
X117646107Y-65128132D01*
X117667150Y-65115520D01*
X117689329Y-65105030D01*
X117712428Y-65096765D01*
X117736227Y-65090804D01*
X117760495Y-65087204D01*
X117784999Y-65086000D01*
X118435001Y-65086000D01*
X118459505Y-65087204D01*
X118459505Y-65087204D01*
G37*
D15*
X118110000Y-65786000D03*
G04 #@! TD*
D10*
G04 #@! TO.C,R12*
G36*
X121886505Y-49718204D02*
X121910773Y-49721804D01*
X121934572Y-49727765D01*
X121957671Y-49736030D01*
X121979850Y-49746520D01*
X122000893Y-49759132D01*
X122020599Y-49773747D01*
X122038777Y-49790223D01*
X122055253Y-49808401D01*
X122069868Y-49828107D01*
X122082480Y-49849150D01*
X122092970Y-49871329D01*
X122101235Y-49894428D01*
X122107196Y-49918227D01*
X122110796Y-49942495D01*
X122112000Y-49966999D01*
X122112000Y-50617001D01*
X122110796Y-50641505D01*
X122107196Y-50665773D01*
X122101235Y-50689572D01*
X122092970Y-50712671D01*
X122082480Y-50734850D01*
X122069868Y-50755893D01*
X122055253Y-50775599D01*
X122038777Y-50793777D01*
X122020599Y-50810253D01*
X122000893Y-50824868D01*
X121979850Y-50837480D01*
X121957671Y-50847970D01*
X121934572Y-50856235D01*
X121910773Y-50862196D01*
X121886505Y-50865796D01*
X121862001Y-50867000D01*
X120961999Y-50867000D01*
X120937495Y-50865796D01*
X120913227Y-50862196D01*
X120889428Y-50856235D01*
X120866329Y-50847970D01*
X120844150Y-50837480D01*
X120823107Y-50824868D01*
X120803401Y-50810253D01*
X120785223Y-50793777D01*
X120768747Y-50775599D01*
X120754132Y-50755893D01*
X120741520Y-50734850D01*
X120731030Y-50712671D01*
X120722765Y-50689572D01*
X120716804Y-50665773D01*
X120713204Y-50641505D01*
X120712000Y-50617001D01*
X120712000Y-49966999D01*
X120713204Y-49942495D01*
X120716804Y-49918227D01*
X120722765Y-49894428D01*
X120731030Y-49871329D01*
X120741520Y-49849150D01*
X120754132Y-49828107D01*
X120768747Y-49808401D01*
X120785223Y-49790223D01*
X120803401Y-49773747D01*
X120823107Y-49759132D01*
X120844150Y-49746520D01*
X120866329Y-49736030D01*
X120889428Y-49727765D01*
X120913227Y-49721804D01*
X120937495Y-49718204D01*
X120961999Y-49717000D01*
X121862001Y-49717000D01*
X121886505Y-49718204D01*
X121886505Y-49718204D01*
G37*
D15*
X121412000Y-50292000D03*
D10*
G36*
X121886505Y-51768204D02*
X121910773Y-51771804D01*
X121934572Y-51777765D01*
X121957671Y-51786030D01*
X121979850Y-51796520D01*
X122000893Y-51809132D01*
X122020599Y-51823747D01*
X122038777Y-51840223D01*
X122055253Y-51858401D01*
X122069868Y-51878107D01*
X122082480Y-51899150D01*
X122092970Y-51921329D01*
X122101235Y-51944428D01*
X122107196Y-51968227D01*
X122110796Y-51992495D01*
X122112000Y-52016999D01*
X122112000Y-52667001D01*
X122110796Y-52691505D01*
X122107196Y-52715773D01*
X122101235Y-52739572D01*
X122092970Y-52762671D01*
X122082480Y-52784850D01*
X122069868Y-52805893D01*
X122055253Y-52825599D01*
X122038777Y-52843777D01*
X122020599Y-52860253D01*
X122000893Y-52874868D01*
X121979850Y-52887480D01*
X121957671Y-52897970D01*
X121934572Y-52906235D01*
X121910773Y-52912196D01*
X121886505Y-52915796D01*
X121862001Y-52917000D01*
X120961999Y-52917000D01*
X120937495Y-52915796D01*
X120913227Y-52912196D01*
X120889428Y-52906235D01*
X120866329Y-52897970D01*
X120844150Y-52887480D01*
X120823107Y-52874868D01*
X120803401Y-52860253D01*
X120785223Y-52843777D01*
X120768747Y-52825599D01*
X120754132Y-52805893D01*
X120741520Y-52784850D01*
X120731030Y-52762671D01*
X120722765Y-52739572D01*
X120716804Y-52715773D01*
X120713204Y-52691505D01*
X120712000Y-52667001D01*
X120712000Y-52016999D01*
X120713204Y-51992495D01*
X120716804Y-51968227D01*
X120722765Y-51944428D01*
X120731030Y-51921329D01*
X120741520Y-51899150D01*
X120754132Y-51878107D01*
X120768747Y-51858401D01*
X120785223Y-51840223D01*
X120803401Y-51823747D01*
X120823107Y-51809132D01*
X120844150Y-51796520D01*
X120866329Y-51786030D01*
X120889428Y-51777765D01*
X120913227Y-51771804D01*
X120937495Y-51768204D01*
X120961999Y-51767000D01*
X121862001Y-51767000D01*
X121886505Y-51768204D01*
X121886505Y-51768204D01*
G37*
D15*
X121412000Y-52342000D03*
G04 #@! TD*
D10*
G04 #@! TO.C,R14*
G36*
X123539505Y-53911204D02*
X123563773Y-53914804D01*
X123587572Y-53920765D01*
X123610671Y-53929030D01*
X123632850Y-53939520D01*
X123653893Y-53952132D01*
X123673599Y-53966747D01*
X123691777Y-53983223D01*
X123708253Y-54001401D01*
X123722868Y-54021107D01*
X123735480Y-54042150D01*
X123745970Y-54064329D01*
X123754235Y-54087428D01*
X123760196Y-54111227D01*
X123763796Y-54135495D01*
X123765000Y-54159999D01*
X123765000Y-55060001D01*
X123763796Y-55084505D01*
X123760196Y-55108773D01*
X123754235Y-55132572D01*
X123745970Y-55155671D01*
X123735480Y-55177850D01*
X123722868Y-55198893D01*
X123708253Y-55218599D01*
X123691777Y-55236777D01*
X123673599Y-55253253D01*
X123653893Y-55267868D01*
X123632850Y-55280480D01*
X123610671Y-55290970D01*
X123587572Y-55299235D01*
X123563773Y-55305196D01*
X123539505Y-55308796D01*
X123515001Y-55310000D01*
X122864999Y-55310000D01*
X122840495Y-55308796D01*
X122816227Y-55305196D01*
X122792428Y-55299235D01*
X122769329Y-55290970D01*
X122747150Y-55280480D01*
X122726107Y-55267868D01*
X122706401Y-55253253D01*
X122688223Y-55236777D01*
X122671747Y-55218599D01*
X122657132Y-55198893D01*
X122644520Y-55177850D01*
X122634030Y-55155671D01*
X122625765Y-55132572D01*
X122619804Y-55108773D01*
X122616204Y-55084505D01*
X122615000Y-55060001D01*
X122615000Y-54159999D01*
X122616204Y-54135495D01*
X122619804Y-54111227D01*
X122625765Y-54087428D01*
X122634030Y-54064329D01*
X122644520Y-54042150D01*
X122657132Y-54021107D01*
X122671747Y-54001401D01*
X122688223Y-53983223D01*
X122706401Y-53966747D01*
X122726107Y-53952132D01*
X122747150Y-53939520D01*
X122769329Y-53929030D01*
X122792428Y-53920765D01*
X122816227Y-53914804D01*
X122840495Y-53911204D01*
X122864999Y-53910000D01*
X123515001Y-53910000D01*
X123539505Y-53911204D01*
X123539505Y-53911204D01*
G37*
D15*
X123190000Y-54610000D03*
D10*
G36*
X121489505Y-53911204D02*
X121513773Y-53914804D01*
X121537572Y-53920765D01*
X121560671Y-53929030D01*
X121582850Y-53939520D01*
X121603893Y-53952132D01*
X121623599Y-53966747D01*
X121641777Y-53983223D01*
X121658253Y-54001401D01*
X121672868Y-54021107D01*
X121685480Y-54042150D01*
X121695970Y-54064329D01*
X121704235Y-54087428D01*
X121710196Y-54111227D01*
X121713796Y-54135495D01*
X121715000Y-54159999D01*
X121715000Y-55060001D01*
X121713796Y-55084505D01*
X121710196Y-55108773D01*
X121704235Y-55132572D01*
X121695970Y-55155671D01*
X121685480Y-55177850D01*
X121672868Y-55198893D01*
X121658253Y-55218599D01*
X121641777Y-55236777D01*
X121623599Y-55253253D01*
X121603893Y-55267868D01*
X121582850Y-55280480D01*
X121560671Y-55290970D01*
X121537572Y-55299235D01*
X121513773Y-55305196D01*
X121489505Y-55308796D01*
X121465001Y-55310000D01*
X120814999Y-55310000D01*
X120790495Y-55308796D01*
X120766227Y-55305196D01*
X120742428Y-55299235D01*
X120719329Y-55290970D01*
X120697150Y-55280480D01*
X120676107Y-55267868D01*
X120656401Y-55253253D01*
X120638223Y-55236777D01*
X120621747Y-55218599D01*
X120607132Y-55198893D01*
X120594520Y-55177850D01*
X120584030Y-55155671D01*
X120575765Y-55132572D01*
X120569804Y-55108773D01*
X120566204Y-55084505D01*
X120565000Y-55060001D01*
X120565000Y-54159999D01*
X120566204Y-54135495D01*
X120569804Y-54111227D01*
X120575765Y-54087428D01*
X120584030Y-54064329D01*
X120594520Y-54042150D01*
X120607132Y-54021107D01*
X120621747Y-54001401D01*
X120638223Y-53983223D01*
X120656401Y-53966747D01*
X120676107Y-53952132D01*
X120697150Y-53939520D01*
X120719329Y-53929030D01*
X120742428Y-53920765D01*
X120766227Y-53914804D01*
X120790495Y-53911204D01*
X120814999Y-53910000D01*
X121465001Y-53910000D01*
X121489505Y-53911204D01*
X121489505Y-53911204D01*
G37*
D15*
X121140000Y-54610000D03*
G04 #@! TD*
D10*
G04 #@! TO.C,R15*
G36*
X117180505Y-69405204D02*
X117204773Y-69408804D01*
X117228572Y-69414765D01*
X117251671Y-69423030D01*
X117273850Y-69433520D01*
X117294893Y-69446132D01*
X117314599Y-69460747D01*
X117332777Y-69477223D01*
X117349253Y-69495401D01*
X117363868Y-69515107D01*
X117376480Y-69536150D01*
X117386970Y-69558329D01*
X117395235Y-69581428D01*
X117401196Y-69605227D01*
X117404796Y-69629495D01*
X117406000Y-69653999D01*
X117406000Y-70554001D01*
X117404796Y-70578505D01*
X117401196Y-70602773D01*
X117395235Y-70626572D01*
X117386970Y-70649671D01*
X117376480Y-70671850D01*
X117363868Y-70692893D01*
X117349253Y-70712599D01*
X117332777Y-70730777D01*
X117314599Y-70747253D01*
X117294893Y-70761868D01*
X117273850Y-70774480D01*
X117251671Y-70784970D01*
X117228572Y-70793235D01*
X117204773Y-70799196D01*
X117180505Y-70802796D01*
X117156001Y-70804000D01*
X116505999Y-70804000D01*
X116481495Y-70802796D01*
X116457227Y-70799196D01*
X116433428Y-70793235D01*
X116410329Y-70784970D01*
X116388150Y-70774480D01*
X116367107Y-70761868D01*
X116347401Y-70747253D01*
X116329223Y-70730777D01*
X116312747Y-70712599D01*
X116298132Y-70692893D01*
X116285520Y-70671850D01*
X116275030Y-70649671D01*
X116266765Y-70626572D01*
X116260804Y-70602773D01*
X116257204Y-70578505D01*
X116256000Y-70554001D01*
X116256000Y-69653999D01*
X116257204Y-69629495D01*
X116260804Y-69605227D01*
X116266765Y-69581428D01*
X116275030Y-69558329D01*
X116285520Y-69536150D01*
X116298132Y-69515107D01*
X116312747Y-69495401D01*
X116329223Y-69477223D01*
X116347401Y-69460747D01*
X116367107Y-69446132D01*
X116388150Y-69433520D01*
X116410329Y-69423030D01*
X116433428Y-69414765D01*
X116457227Y-69408804D01*
X116481495Y-69405204D01*
X116505999Y-69404000D01*
X117156001Y-69404000D01*
X117180505Y-69405204D01*
X117180505Y-69405204D01*
G37*
D15*
X116831000Y-70104000D03*
D10*
G36*
X119230505Y-69405204D02*
X119254773Y-69408804D01*
X119278572Y-69414765D01*
X119301671Y-69423030D01*
X119323850Y-69433520D01*
X119344893Y-69446132D01*
X119364599Y-69460747D01*
X119382777Y-69477223D01*
X119399253Y-69495401D01*
X119413868Y-69515107D01*
X119426480Y-69536150D01*
X119436970Y-69558329D01*
X119445235Y-69581428D01*
X119451196Y-69605227D01*
X119454796Y-69629495D01*
X119456000Y-69653999D01*
X119456000Y-70554001D01*
X119454796Y-70578505D01*
X119451196Y-70602773D01*
X119445235Y-70626572D01*
X119436970Y-70649671D01*
X119426480Y-70671850D01*
X119413868Y-70692893D01*
X119399253Y-70712599D01*
X119382777Y-70730777D01*
X119364599Y-70747253D01*
X119344893Y-70761868D01*
X119323850Y-70774480D01*
X119301671Y-70784970D01*
X119278572Y-70793235D01*
X119254773Y-70799196D01*
X119230505Y-70802796D01*
X119206001Y-70804000D01*
X118555999Y-70804000D01*
X118531495Y-70802796D01*
X118507227Y-70799196D01*
X118483428Y-70793235D01*
X118460329Y-70784970D01*
X118438150Y-70774480D01*
X118417107Y-70761868D01*
X118397401Y-70747253D01*
X118379223Y-70730777D01*
X118362747Y-70712599D01*
X118348132Y-70692893D01*
X118335520Y-70671850D01*
X118325030Y-70649671D01*
X118316765Y-70626572D01*
X118310804Y-70602773D01*
X118307204Y-70578505D01*
X118306000Y-70554001D01*
X118306000Y-69653999D01*
X118307204Y-69629495D01*
X118310804Y-69605227D01*
X118316765Y-69581428D01*
X118325030Y-69558329D01*
X118335520Y-69536150D01*
X118348132Y-69515107D01*
X118362747Y-69495401D01*
X118379223Y-69477223D01*
X118397401Y-69460747D01*
X118417107Y-69446132D01*
X118438150Y-69433520D01*
X118460329Y-69423030D01*
X118483428Y-69414765D01*
X118507227Y-69408804D01*
X118531495Y-69405204D01*
X118555999Y-69404000D01*
X119206001Y-69404000D01*
X119230505Y-69405204D01*
X119230505Y-69405204D01*
G37*
D15*
X118881000Y-70104000D03*
G04 #@! TD*
D10*
G04 #@! TO.C,R16*
G36*
X106392505Y-41635704D02*
X106416773Y-41639304D01*
X106440572Y-41645265D01*
X106463671Y-41653530D01*
X106485850Y-41664020D01*
X106506893Y-41676632D01*
X106526599Y-41691247D01*
X106544777Y-41707723D01*
X106561253Y-41725901D01*
X106575868Y-41745607D01*
X106588480Y-41766650D01*
X106598970Y-41788829D01*
X106607235Y-41811928D01*
X106613196Y-41835727D01*
X106616796Y-41859995D01*
X106618000Y-41884499D01*
X106618000Y-42534501D01*
X106616796Y-42559005D01*
X106613196Y-42583273D01*
X106607235Y-42607072D01*
X106598970Y-42630171D01*
X106588480Y-42652350D01*
X106575868Y-42673393D01*
X106561253Y-42693099D01*
X106544777Y-42711277D01*
X106526599Y-42727753D01*
X106506893Y-42742368D01*
X106485850Y-42754980D01*
X106463671Y-42765470D01*
X106440572Y-42773735D01*
X106416773Y-42779696D01*
X106392505Y-42783296D01*
X106368001Y-42784500D01*
X105467999Y-42784500D01*
X105443495Y-42783296D01*
X105419227Y-42779696D01*
X105395428Y-42773735D01*
X105372329Y-42765470D01*
X105350150Y-42754980D01*
X105329107Y-42742368D01*
X105309401Y-42727753D01*
X105291223Y-42711277D01*
X105274747Y-42693099D01*
X105260132Y-42673393D01*
X105247520Y-42652350D01*
X105237030Y-42630171D01*
X105228765Y-42607072D01*
X105222804Y-42583273D01*
X105219204Y-42559005D01*
X105218000Y-42534501D01*
X105218000Y-41884499D01*
X105219204Y-41859995D01*
X105222804Y-41835727D01*
X105228765Y-41811928D01*
X105237030Y-41788829D01*
X105247520Y-41766650D01*
X105260132Y-41745607D01*
X105274747Y-41725901D01*
X105291223Y-41707723D01*
X105309401Y-41691247D01*
X105329107Y-41676632D01*
X105350150Y-41664020D01*
X105372329Y-41653530D01*
X105395428Y-41645265D01*
X105419227Y-41639304D01*
X105443495Y-41635704D01*
X105467999Y-41634500D01*
X106368001Y-41634500D01*
X106392505Y-41635704D01*
X106392505Y-41635704D01*
G37*
D15*
X105918000Y-42209500D03*
D10*
G36*
X106392505Y-39585704D02*
X106416773Y-39589304D01*
X106440572Y-39595265D01*
X106463671Y-39603530D01*
X106485850Y-39614020D01*
X106506893Y-39626632D01*
X106526599Y-39641247D01*
X106544777Y-39657723D01*
X106561253Y-39675901D01*
X106575868Y-39695607D01*
X106588480Y-39716650D01*
X106598970Y-39738829D01*
X106607235Y-39761928D01*
X106613196Y-39785727D01*
X106616796Y-39809995D01*
X106618000Y-39834499D01*
X106618000Y-40484501D01*
X106616796Y-40509005D01*
X106613196Y-40533273D01*
X106607235Y-40557072D01*
X106598970Y-40580171D01*
X106588480Y-40602350D01*
X106575868Y-40623393D01*
X106561253Y-40643099D01*
X106544777Y-40661277D01*
X106526599Y-40677753D01*
X106506893Y-40692368D01*
X106485850Y-40704980D01*
X106463671Y-40715470D01*
X106440572Y-40723735D01*
X106416773Y-40729696D01*
X106392505Y-40733296D01*
X106368001Y-40734500D01*
X105467999Y-40734500D01*
X105443495Y-40733296D01*
X105419227Y-40729696D01*
X105395428Y-40723735D01*
X105372329Y-40715470D01*
X105350150Y-40704980D01*
X105329107Y-40692368D01*
X105309401Y-40677753D01*
X105291223Y-40661277D01*
X105274747Y-40643099D01*
X105260132Y-40623393D01*
X105247520Y-40602350D01*
X105237030Y-40580171D01*
X105228765Y-40557072D01*
X105222804Y-40533273D01*
X105219204Y-40509005D01*
X105218000Y-40484501D01*
X105218000Y-39834499D01*
X105219204Y-39809995D01*
X105222804Y-39785727D01*
X105228765Y-39761928D01*
X105237030Y-39738829D01*
X105247520Y-39716650D01*
X105260132Y-39695607D01*
X105274747Y-39675901D01*
X105291223Y-39657723D01*
X105309401Y-39641247D01*
X105329107Y-39626632D01*
X105350150Y-39614020D01*
X105372329Y-39603530D01*
X105395428Y-39595265D01*
X105419227Y-39589304D01*
X105443495Y-39585704D01*
X105467999Y-39584500D01*
X106368001Y-39584500D01*
X106392505Y-39585704D01*
X106392505Y-39585704D01*
G37*
D15*
X105918000Y-40159500D03*
G04 #@! TD*
D10*
G04 #@! TO.C,R17*
G36*
X121235505Y-63055204D02*
X121259773Y-63058804D01*
X121283572Y-63064765D01*
X121306671Y-63073030D01*
X121328850Y-63083520D01*
X121349893Y-63096132D01*
X121369599Y-63110747D01*
X121387777Y-63127223D01*
X121404253Y-63145401D01*
X121418868Y-63165107D01*
X121431480Y-63186150D01*
X121441970Y-63208329D01*
X121450235Y-63231428D01*
X121456196Y-63255227D01*
X121459796Y-63279495D01*
X121461000Y-63303999D01*
X121461000Y-64204001D01*
X121459796Y-64228505D01*
X121456196Y-64252773D01*
X121450235Y-64276572D01*
X121441970Y-64299671D01*
X121431480Y-64321850D01*
X121418868Y-64342893D01*
X121404253Y-64362599D01*
X121387777Y-64380777D01*
X121369599Y-64397253D01*
X121349893Y-64411868D01*
X121328850Y-64424480D01*
X121306671Y-64434970D01*
X121283572Y-64443235D01*
X121259773Y-64449196D01*
X121235505Y-64452796D01*
X121211001Y-64454000D01*
X120560999Y-64454000D01*
X120536495Y-64452796D01*
X120512227Y-64449196D01*
X120488428Y-64443235D01*
X120465329Y-64434970D01*
X120443150Y-64424480D01*
X120422107Y-64411868D01*
X120402401Y-64397253D01*
X120384223Y-64380777D01*
X120367747Y-64362599D01*
X120353132Y-64342893D01*
X120340520Y-64321850D01*
X120330030Y-64299671D01*
X120321765Y-64276572D01*
X120315804Y-64252773D01*
X120312204Y-64228505D01*
X120311000Y-64204001D01*
X120311000Y-63303999D01*
X120312204Y-63279495D01*
X120315804Y-63255227D01*
X120321765Y-63231428D01*
X120330030Y-63208329D01*
X120340520Y-63186150D01*
X120353132Y-63165107D01*
X120367747Y-63145401D01*
X120384223Y-63127223D01*
X120402401Y-63110747D01*
X120422107Y-63096132D01*
X120443150Y-63083520D01*
X120465329Y-63073030D01*
X120488428Y-63064765D01*
X120512227Y-63058804D01*
X120536495Y-63055204D01*
X120560999Y-63054000D01*
X121211001Y-63054000D01*
X121235505Y-63055204D01*
X121235505Y-63055204D01*
G37*
D15*
X120886000Y-63754000D03*
D10*
G36*
X123285505Y-63055204D02*
X123309773Y-63058804D01*
X123333572Y-63064765D01*
X123356671Y-63073030D01*
X123378850Y-63083520D01*
X123399893Y-63096132D01*
X123419599Y-63110747D01*
X123437777Y-63127223D01*
X123454253Y-63145401D01*
X123468868Y-63165107D01*
X123481480Y-63186150D01*
X123491970Y-63208329D01*
X123500235Y-63231428D01*
X123506196Y-63255227D01*
X123509796Y-63279495D01*
X123511000Y-63303999D01*
X123511000Y-64204001D01*
X123509796Y-64228505D01*
X123506196Y-64252773D01*
X123500235Y-64276572D01*
X123491970Y-64299671D01*
X123481480Y-64321850D01*
X123468868Y-64342893D01*
X123454253Y-64362599D01*
X123437777Y-64380777D01*
X123419599Y-64397253D01*
X123399893Y-64411868D01*
X123378850Y-64424480D01*
X123356671Y-64434970D01*
X123333572Y-64443235D01*
X123309773Y-64449196D01*
X123285505Y-64452796D01*
X123261001Y-64454000D01*
X122610999Y-64454000D01*
X122586495Y-64452796D01*
X122562227Y-64449196D01*
X122538428Y-64443235D01*
X122515329Y-64434970D01*
X122493150Y-64424480D01*
X122472107Y-64411868D01*
X122452401Y-64397253D01*
X122434223Y-64380777D01*
X122417747Y-64362599D01*
X122403132Y-64342893D01*
X122390520Y-64321850D01*
X122380030Y-64299671D01*
X122371765Y-64276572D01*
X122365804Y-64252773D01*
X122362204Y-64228505D01*
X122361000Y-64204001D01*
X122361000Y-63303999D01*
X122362204Y-63279495D01*
X122365804Y-63255227D01*
X122371765Y-63231428D01*
X122380030Y-63208329D01*
X122390520Y-63186150D01*
X122403132Y-63165107D01*
X122417747Y-63145401D01*
X122434223Y-63127223D01*
X122452401Y-63110747D01*
X122472107Y-63096132D01*
X122493150Y-63083520D01*
X122515329Y-63073030D01*
X122538428Y-63064765D01*
X122562227Y-63058804D01*
X122586495Y-63055204D01*
X122610999Y-63054000D01*
X123261001Y-63054000D01*
X123285505Y-63055204D01*
X123285505Y-63055204D01*
G37*
D15*
X122936000Y-63754000D03*
G04 #@! TD*
D10*
G04 #@! TO.C,R20*
G36*
X113250505Y-106886204D02*
X113274773Y-106889804D01*
X113298572Y-106895765D01*
X113321671Y-106904030D01*
X113343850Y-106914520D01*
X113364893Y-106927132D01*
X113384599Y-106941747D01*
X113402777Y-106958223D01*
X113419253Y-106976401D01*
X113433868Y-106996107D01*
X113446480Y-107017150D01*
X113456970Y-107039329D01*
X113465235Y-107062428D01*
X113471196Y-107086227D01*
X113474796Y-107110495D01*
X113476000Y-107134999D01*
X113476000Y-107785001D01*
X113474796Y-107809505D01*
X113471196Y-107833773D01*
X113465235Y-107857572D01*
X113456970Y-107880671D01*
X113446480Y-107902850D01*
X113433868Y-107923893D01*
X113419253Y-107943599D01*
X113402777Y-107961777D01*
X113384599Y-107978253D01*
X113364893Y-107992868D01*
X113343850Y-108005480D01*
X113321671Y-108015970D01*
X113298572Y-108024235D01*
X113274773Y-108030196D01*
X113250505Y-108033796D01*
X113226001Y-108035000D01*
X112325999Y-108035000D01*
X112301495Y-108033796D01*
X112277227Y-108030196D01*
X112253428Y-108024235D01*
X112230329Y-108015970D01*
X112208150Y-108005480D01*
X112187107Y-107992868D01*
X112167401Y-107978253D01*
X112149223Y-107961777D01*
X112132747Y-107943599D01*
X112118132Y-107923893D01*
X112105520Y-107902850D01*
X112095030Y-107880671D01*
X112086765Y-107857572D01*
X112080804Y-107833773D01*
X112077204Y-107809505D01*
X112076000Y-107785001D01*
X112076000Y-107134999D01*
X112077204Y-107110495D01*
X112080804Y-107086227D01*
X112086765Y-107062428D01*
X112095030Y-107039329D01*
X112105520Y-107017150D01*
X112118132Y-106996107D01*
X112132747Y-106976401D01*
X112149223Y-106958223D01*
X112167401Y-106941747D01*
X112187107Y-106927132D01*
X112208150Y-106914520D01*
X112230329Y-106904030D01*
X112253428Y-106895765D01*
X112277227Y-106889804D01*
X112301495Y-106886204D01*
X112325999Y-106885000D01*
X113226001Y-106885000D01*
X113250505Y-106886204D01*
X113250505Y-106886204D01*
G37*
D15*
X112776000Y-107460000D03*
D10*
G36*
X113250505Y-104836204D02*
X113274773Y-104839804D01*
X113298572Y-104845765D01*
X113321671Y-104854030D01*
X113343850Y-104864520D01*
X113364893Y-104877132D01*
X113384599Y-104891747D01*
X113402777Y-104908223D01*
X113419253Y-104926401D01*
X113433868Y-104946107D01*
X113446480Y-104967150D01*
X113456970Y-104989329D01*
X113465235Y-105012428D01*
X113471196Y-105036227D01*
X113474796Y-105060495D01*
X113476000Y-105084999D01*
X113476000Y-105735001D01*
X113474796Y-105759505D01*
X113471196Y-105783773D01*
X113465235Y-105807572D01*
X113456970Y-105830671D01*
X113446480Y-105852850D01*
X113433868Y-105873893D01*
X113419253Y-105893599D01*
X113402777Y-105911777D01*
X113384599Y-105928253D01*
X113364893Y-105942868D01*
X113343850Y-105955480D01*
X113321671Y-105965970D01*
X113298572Y-105974235D01*
X113274773Y-105980196D01*
X113250505Y-105983796D01*
X113226001Y-105985000D01*
X112325999Y-105985000D01*
X112301495Y-105983796D01*
X112277227Y-105980196D01*
X112253428Y-105974235D01*
X112230329Y-105965970D01*
X112208150Y-105955480D01*
X112187107Y-105942868D01*
X112167401Y-105928253D01*
X112149223Y-105911777D01*
X112132747Y-105893599D01*
X112118132Y-105873893D01*
X112105520Y-105852850D01*
X112095030Y-105830671D01*
X112086765Y-105807572D01*
X112080804Y-105783773D01*
X112077204Y-105759505D01*
X112076000Y-105735001D01*
X112076000Y-105084999D01*
X112077204Y-105060495D01*
X112080804Y-105036227D01*
X112086765Y-105012428D01*
X112095030Y-104989329D01*
X112105520Y-104967150D01*
X112118132Y-104946107D01*
X112132747Y-104926401D01*
X112149223Y-104908223D01*
X112167401Y-104891747D01*
X112187107Y-104877132D01*
X112208150Y-104864520D01*
X112230329Y-104854030D01*
X112253428Y-104845765D01*
X112277227Y-104839804D01*
X112301495Y-104836204D01*
X112325999Y-104835000D01*
X113226001Y-104835000D01*
X113250505Y-104836204D01*
X113250505Y-104836204D01*
G37*
D15*
X112776000Y-105410000D03*
G04 #@! TD*
D10*
G04 #@! TO.C,R22*
G36*
X128744505Y-106886204D02*
X128768773Y-106889804D01*
X128792572Y-106895765D01*
X128815671Y-106904030D01*
X128837850Y-106914520D01*
X128858893Y-106927132D01*
X128878599Y-106941747D01*
X128896777Y-106958223D01*
X128913253Y-106976401D01*
X128927868Y-106996107D01*
X128940480Y-107017150D01*
X128950970Y-107039329D01*
X128959235Y-107062428D01*
X128965196Y-107086227D01*
X128968796Y-107110495D01*
X128970000Y-107134999D01*
X128970000Y-107785001D01*
X128968796Y-107809505D01*
X128965196Y-107833773D01*
X128959235Y-107857572D01*
X128950970Y-107880671D01*
X128940480Y-107902850D01*
X128927868Y-107923893D01*
X128913253Y-107943599D01*
X128896777Y-107961777D01*
X128878599Y-107978253D01*
X128858893Y-107992868D01*
X128837850Y-108005480D01*
X128815671Y-108015970D01*
X128792572Y-108024235D01*
X128768773Y-108030196D01*
X128744505Y-108033796D01*
X128720001Y-108035000D01*
X127819999Y-108035000D01*
X127795495Y-108033796D01*
X127771227Y-108030196D01*
X127747428Y-108024235D01*
X127724329Y-108015970D01*
X127702150Y-108005480D01*
X127681107Y-107992868D01*
X127661401Y-107978253D01*
X127643223Y-107961777D01*
X127626747Y-107943599D01*
X127612132Y-107923893D01*
X127599520Y-107902850D01*
X127589030Y-107880671D01*
X127580765Y-107857572D01*
X127574804Y-107833773D01*
X127571204Y-107809505D01*
X127570000Y-107785001D01*
X127570000Y-107134999D01*
X127571204Y-107110495D01*
X127574804Y-107086227D01*
X127580765Y-107062428D01*
X127589030Y-107039329D01*
X127599520Y-107017150D01*
X127612132Y-106996107D01*
X127626747Y-106976401D01*
X127643223Y-106958223D01*
X127661401Y-106941747D01*
X127681107Y-106927132D01*
X127702150Y-106914520D01*
X127724329Y-106904030D01*
X127747428Y-106895765D01*
X127771227Y-106889804D01*
X127795495Y-106886204D01*
X127819999Y-106885000D01*
X128720001Y-106885000D01*
X128744505Y-106886204D01*
X128744505Y-106886204D01*
G37*
D15*
X128270000Y-107460000D03*
D10*
G36*
X128744505Y-104836204D02*
X128768773Y-104839804D01*
X128792572Y-104845765D01*
X128815671Y-104854030D01*
X128837850Y-104864520D01*
X128858893Y-104877132D01*
X128878599Y-104891747D01*
X128896777Y-104908223D01*
X128913253Y-104926401D01*
X128927868Y-104946107D01*
X128940480Y-104967150D01*
X128950970Y-104989329D01*
X128959235Y-105012428D01*
X128965196Y-105036227D01*
X128968796Y-105060495D01*
X128970000Y-105084999D01*
X128970000Y-105735001D01*
X128968796Y-105759505D01*
X128965196Y-105783773D01*
X128959235Y-105807572D01*
X128950970Y-105830671D01*
X128940480Y-105852850D01*
X128927868Y-105873893D01*
X128913253Y-105893599D01*
X128896777Y-105911777D01*
X128878599Y-105928253D01*
X128858893Y-105942868D01*
X128837850Y-105955480D01*
X128815671Y-105965970D01*
X128792572Y-105974235D01*
X128768773Y-105980196D01*
X128744505Y-105983796D01*
X128720001Y-105985000D01*
X127819999Y-105985000D01*
X127795495Y-105983796D01*
X127771227Y-105980196D01*
X127747428Y-105974235D01*
X127724329Y-105965970D01*
X127702150Y-105955480D01*
X127681107Y-105942868D01*
X127661401Y-105928253D01*
X127643223Y-105911777D01*
X127626747Y-105893599D01*
X127612132Y-105873893D01*
X127599520Y-105852850D01*
X127589030Y-105830671D01*
X127580765Y-105807572D01*
X127574804Y-105783773D01*
X127571204Y-105759505D01*
X127570000Y-105735001D01*
X127570000Y-105084999D01*
X127571204Y-105060495D01*
X127574804Y-105036227D01*
X127580765Y-105012428D01*
X127589030Y-104989329D01*
X127599520Y-104967150D01*
X127612132Y-104946107D01*
X127626747Y-104926401D01*
X127643223Y-104908223D01*
X127661401Y-104891747D01*
X127681107Y-104877132D01*
X127702150Y-104864520D01*
X127724329Y-104854030D01*
X127747428Y-104845765D01*
X127771227Y-104839804D01*
X127795495Y-104836204D01*
X127819999Y-104835000D01*
X128720001Y-104835000D01*
X128744505Y-104836204D01*
X128744505Y-104836204D01*
G37*
D15*
X128270000Y-105410000D03*
G04 #@! TD*
D10*
G04 #@! TO.C,R24*
G36*
X124680505Y-104836204D02*
X124704773Y-104839804D01*
X124728572Y-104845765D01*
X124751671Y-104854030D01*
X124773850Y-104864520D01*
X124794893Y-104877132D01*
X124814599Y-104891747D01*
X124832777Y-104908223D01*
X124849253Y-104926401D01*
X124863868Y-104946107D01*
X124876480Y-104967150D01*
X124886970Y-104989329D01*
X124895235Y-105012428D01*
X124901196Y-105036227D01*
X124904796Y-105060495D01*
X124906000Y-105084999D01*
X124906000Y-105735001D01*
X124904796Y-105759505D01*
X124901196Y-105783773D01*
X124895235Y-105807572D01*
X124886970Y-105830671D01*
X124876480Y-105852850D01*
X124863868Y-105873893D01*
X124849253Y-105893599D01*
X124832777Y-105911777D01*
X124814599Y-105928253D01*
X124794893Y-105942868D01*
X124773850Y-105955480D01*
X124751671Y-105965970D01*
X124728572Y-105974235D01*
X124704773Y-105980196D01*
X124680505Y-105983796D01*
X124656001Y-105985000D01*
X123755999Y-105985000D01*
X123731495Y-105983796D01*
X123707227Y-105980196D01*
X123683428Y-105974235D01*
X123660329Y-105965970D01*
X123638150Y-105955480D01*
X123617107Y-105942868D01*
X123597401Y-105928253D01*
X123579223Y-105911777D01*
X123562747Y-105893599D01*
X123548132Y-105873893D01*
X123535520Y-105852850D01*
X123525030Y-105830671D01*
X123516765Y-105807572D01*
X123510804Y-105783773D01*
X123507204Y-105759505D01*
X123506000Y-105735001D01*
X123506000Y-105084999D01*
X123507204Y-105060495D01*
X123510804Y-105036227D01*
X123516765Y-105012428D01*
X123525030Y-104989329D01*
X123535520Y-104967150D01*
X123548132Y-104946107D01*
X123562747Y-104926401D01*
X123579223Y-104908223D01*
X123597401Y-104891747D01*
X123617107Y-104877132D01*
X123638150Y-104864520D01*
X123660329Y-104854030D01*
X123683428Y-104845765D01*
X123707227Y-104839804D01*
X123731495Y-104836204D01*
X123755999Y-104835000D01*
X124656001Y-104835000D01*
X124680505Y-104836204D01*
X124680505Y-104836204D01*
G37*
D15*
X124206000Y-105410000D03*
D10*
G36*
X124680505Y-106886204D02*
X124704773Y-106889804D01*
X124728572Y-106895765D01*
X124751671Y-106904030D01*
X124773850Y-106914520D01*
X124794893Y-106927132D01*
X124814599Y-106941747D01*
X124832777Y-106958223D01*
X124849253Y-106976401D01*
X124863868Y-106996107D01*
X124876480Y-107017150D01*
X124886970Y-107039329D01*
X124895235Y-107062428D01*
X124901196Y-107086227D01*
X124904796Y-107110495D01*
X124906000Y-107134999D01*
X124906000Y-107785001D01*
X124904796Y-107809505D01*
X124901196Y-107833773D01*
X124895235Y-107857572D01*
X124886970Y-107880671D01*
X124876480Y-107902850D01*
X124863868Y-107923893D01*
X124849253Y-107943599D01*
X124832777Y-107961777D01*
X124814599Y-107978253D01*
X124794893Y-107992868D01*
X124773850Y-108005480D01*
X124751671Y-108015970D01*
X124728572Y-108024235D01*
X124704773Y-108030196D01*
X124680505Y-108033796D01*
X124656001Y-108035000D01*
X123755999Y-108035000D01*
X123731495Y-108033796D01*
X123707227Y-108030196D01*
X123683428Y-108024235D01*
X123660329Y-108015970D01*
X123638150Y-108005480D01*
X123617107Y-107992868D01*
X123597401Y-107978253D01*
X123579223Y-107961777D01*
X123562747Y-107943599D01*
X123548132Y-107923893D01*
X123535520Y-107902850D01*
X123525030Y-107880671D01*
X123516765Y-107857572D01*
X123510804Y-107833773D01*
X123507204Y-107809505D01*
X123506000Y-107785001D01*
X123506000Y-107134999D01*
X123507204Y-107110495D01*
X123510804Y-107086227D01*
X123516765Y-107062428D01*
X123525030Y-107039329D01*
X123535520Y-107017150D01*
X123548132Y-106996107D01*
X123562747Y-106976401D01*
X123579223Y-106958223D01*
X123597401Y-106941747D01*
X123617107Y-106927132D01*
X123638150Y-106914520D01*
X123660329Y-106904030D01*
X123683428Y-106895765D01*
X123707227Y-106889804D01*
X123731495Y-106886204D01*
X123755999Y-106885000D01*
X124656001Y-106885000D01*
X124680505Y-106886204D01*
X124680505Y-106886204D01*
G37*
D15*
X124206000Y-107460000D03*
G04 #@! TD*
D10*
G04 #@! TO.C,R26*
G36*
X109440505Y-106886204D02*
X109464773Y-106889804D01*
X109488572Y-106895765D01*
X109511671Y-106904030D01*
X109533850Y-106914520D01*
X109554893Y-106927132D01*
X109574599Y-106941747D01*
X109592777Y-106958223D01*
X109609253Y-106976401D01*
X109623868Y-106996107D01*
X109636480Y-107017150D01*
X109646970Y-107039329D01*
X109655235Y-107062428D01*
X109661196Y-107086227D01*
X109664796Y-107110495D01*
X109666000Y-107134999D01*
X109666000Y-107785001D01*
X109664796Y-107809505D01*
X109661196Y-107833773D01*
X109655235Y-107857572D01*
X109646970Y-107880671D01*
X109636480Y-107902850D01*
X109623868Y-107923893D01*
X109609253Y-107943599D01*
X109592777Y-107961777D01*
X109574599Y-107978253D01*
X109554893Y-107992868D01*
X109533850Y-108005480D01*
X109511671Y-108015970D01*
X109488572Y-108024235D01*
X109464773Y-108030196D01*
X109440505Y-108033796D01*
X109416001Y-108035000D01*
X108515999Y-108035000D01*
X108491495Y-108033796D01*
X108467227Y-108030196D01*
X108443428Y-108024235D01*
X108420329Y-108015970D01*
X108398150Y-108005480D01*
X108377107Y-107992868D01*
X108357401Y-107978253D01*
X108339223Y-107961777D01*
X108322747Y-107943599D01*
X108308132Y-107923893D01*
X108295520Y-107902850D01*
X108285030Y-107880671D01*
X108276765Y-107857572D01*
X108270804Y-107833773D01*
X108267204Y-107809505D01*
X108266000Y-107785001D01*
X108266000Y-107134999D01*
X108267204Y-107110495D01*
X108270804Y-107086227D01*
X108276765Y-107062428D01*
X108285030Y-107039329D01*
X108295520Y-107017150D01*
X108308132Y-106996107D01*
X108322747Y-106976401D01*
X108339223Y-106958223D01*
X108357401Y-106941747D01*
X108377107Y-106927132D01*
X108398150Y-106914520D01*
X108420329Y-106904030D01*
X108443428Y-106895765D01*
X108467227Y-106889804D01*
X108491495Y-106886204D01*
X108515999Y-106885000D01*
X109416001Y-106885000D01*
X109440505Y-106886204D01*
X109440505Y-106886204D01*
G37*
D15*
X108966000Y-107460000D03*
D10*
G36*
X109440505Y-104836204D02*
X109464773Y-104839804D01*
X109488572Y-104845765D01*
X109511671Y-104854030D01*
X109533850Y-104864520D01*
X109554893Y-104877132D01*
X109574599Y-104891747D01*
X109592777Y-104908223D01*
X109609253Y-104926401D01*
X109623868Y-104946107D01*
X109636480Y-104967150D01*
X109646970Y-104989329D01*
X109655235Y-105012428D01*
X109661196Y-105036227D01*
X109664796Y-105060495D01*
X109666000Y-105084999D01*
X109666000Y-105735001D01*
X109664796Y-105759505D01*
X109661196Y-105783773D01*
X109655235Y-105807572D01*
X109646970Y-105830671D01*
X109636480Y-105852850D01*
X109623868Y-105873893D01*
X109609253Y-105893599D01*
X109592777Y-105911777D01*
X109574599Y-105928253D01*
X109554893Y-105942868D01*
X109533850Y-105955480D01*
X109511671Y-105965970D01*
X109488572Y-105974235D01*
X109464773Y-105980196D01*
X109440505Y-105983796D01*
X109416001Y-105985000D01*
X108515999Y-105985000D01*
X108491495Y-105983796D01*
X108467227Y-105980196D01*
X108443428Y-105974235D01*
X108420329Y-105965970D01*
X108398150Y-105955480D01*
X108377107Y-105942868D01*
X108357401Y-105928253D01*
X108339223Y-105911777D01*
X108322747Y-105893599D01*
X108308132Y-105873893D01*
X108295520Y-105852850D01*
X108285030Y-105830671D01*
X108276765Y-105807572D01*
X108270804Y-105783773D01*
X108267204Y-105759505D01*
X108266000Y-105735001D01*
X108266000Y-105084999D01*
X108267204Y-105060495D01*
X108270804Y-105036227D01*
X108276765Y-105012428D01*
X108285030Y-104989329D01*
X108295520Y-104967150D01*
X108308132Y-104946107D01*
X108322747Y-104926401D01*
X108339223Y-104908223D01*
X108357401Y-104891747D01*
X108377107Y-104877132D01*
X108398150Y-104864520D01*
X108420329Y-104854030D01*
X108443428Y-104845765D01*
X108467227Y-104839804D01*
X108491495Y-104836204D01*
X108515999Y-104835000D01*
X109416001Y-104835000D01*
X109440505Y-104836204D01*
X109440505Y-104836204D01*
G37*
D15*
X108966000Y-105410000D03*
G04 #@! TD*
D10*
G04 #@! TO.C,R27*
G36*
X117314505Y-106886204D02*
X117338773Y-106889804D01*
X117362572Y-106895765D01*
X117385671Y-106904030D01*
X117407850Y-106914520D01*
X117428893Y-106927132D01*
X117448599Y-106941747D01*
X117466777Y-106958223D01*
X117483253Y-106976401D01*
X117497868Y-106996107D01*
X117510480Y-107017150D01*
X117520970Y-107039329D01*
X117529235Y-107062428D01*
X117535196Y-107086227D01*
X117538796Y-107110495D01*
X117540000Y-107134999D01*
X117540000Y-107785001D01*
X117538796Y-107809505D01*
X117535196Y-107833773D01*
X117529235Y-107857572D01*
X117520970Y-107880671D01*
X117510480Y-107902850D01*
X117497868Y-107923893D01*
X117483253Y-107943599D01*
X117466777Y-107961777D01*
X117448599Y-107978253D01*
X117428893Y-107992868D01*
X117407850Y-108005480D01*
X117385671Y-108015970D01*
X117362572Y-108024235D01*
X117338773Y-108030196D01*
X117314505Y-108033796D01*
X117290001Y-108035000D01*
X116389999Y-108035000D01*
X116365495Y-108033796D01*
X116341227Y-108030196D01*
X116317428Y-108024235D01*
X116294329Y-108015970D01*
X116272150Y-108005480D01*
X116251107Y-107992868D01*
X116231401Y-107978253D01*
X116213223Y-107961777D01*
X116196747Y-107943599D01*
X116182132Y-107923893D01*
X116169520Y-107902850D01*
X116159030Y-107880671D01*
X116150765Y-107857572D01*
X116144804Y-107833773D01*
X116141204Y-107809505D01*
X116140000Y-107785001D01*
X116140000Y-107134999D01*
X116141204Y-107110495D01*
X116144804Y-107086227D01*
X116150765Y-107062428D01*
X116159030Y-107039329D01*
X116169520Y-107017150D01*
X116182132Y-106996107D01*
X116196747Y-106976401D01*
X116213223Y-106958223D01*
X116231401Y-106941747D01*
X116251107Y-106927132D01*
X116272150Y-106914520D01*
X116294329Y-106904030D01*
X116317428Y-106895765D01*
X116341227Y-106889804D01*
X116365495Y-106886204D01*
X116389999Y-106885000D01*
X117290001Y-106885000D01*
X117314505Y-106886204D01*
X117314505Y-106886204D01*
G37*
D15*
X116840000Y-107460000D03*
D10*
G36*
X117314505Y-104836204D02*
X117338773Y-104839804D01*
X117362572Y-104845765D01*
X117385671Y-104854030D01*
X117407850Y-104864520D01*
X117428893Y-104877132D01*
X117448599Y-104891747D01*
X117466777Y-104908223D01*
X117483253Y-104926401D01*
X117497868Y-104946107D01*
X117510480Y-104967150D01*
X117520970Y-104989329D01*
X117529235Y-105012428D01*
X117535196Y-105036227D01*
X117538796Y-105060495D01*
X117540000Y-105084999D01*
X117540000Y-105735001D01*
X117538796Y-105759505D01*
X117535196Y-105783773D01*
X117529235Y-105807572D01*
X117520970Y-105830671D01*
X117510480Y-105852850D01*
X117497868Y-105873893D01*
X117483253Y-105893599D01*
X117466777Y-105911777D01*
X117448599Y-105928253D01*
X117428893Y-105942868D01*
X117407850Y-105955480D01*
X117385671Y-105965970D01*
X117362572Y-105974235D01*
X117338773Y-105980196D01*
X117314505Y-105983796D01*
X117290001Y-105985000D01*
X116389999Y-105985000D01*
X116365495Y-105983796D01*
X116341227Y-105980196D01*
X116317428Y-105974235D01*
X116294329Y-105965970D01*
X116272150Y-105955480D01*
X116251107Y-105942868D01*
X116231401Y-105928253D01*
X116213223Y-105911777D01*
X116196747Y-105893599D01*
X116182132Y-105873893D01*
X116169520Y-105852850D01*
X116159030Y-105830671D01*
X116150765Y-105807572D01*
X116144804Y-105783773D01*
X116141204Y-105759505D01*
X116140000Y-105735001D01*
X116140000Y-105084999D01*
X116141204Y-105060495D01*
X116144804Y-105036227D01*
X116150765Y-105012428D01*
X116159030Y-104989329D01*
X116169520Y-104967150D01*
X116182132Y-104946107D01*
X116196747Y-104926401D01*
X116213223Y-104908223D01*
X116231401Y-104891747D01*
X116251107Y-104877132D01*
X116272150Y-104864520D01*
X116294329Y-104854030D01*
X116317428Y-104845765D01*
X116341227Y-104839804D01*
X116365495Y-104836204D01*
X116389999Y-104835000D01*
X117290001Y-104835000D01*
X117314505Y-104836204D01*
X117314505Y-104836204D01*
G37*
D15*
X116840000Y-105410000D03*
G04 #@! TD*
D10*
G04 #@! TO.C,R30*
G36*
X132300505Y-106868204D02*
X132324773Y-106871804D01*
X132348572Y-106877765D01*
X132371671Y-106886030D01*
X132393850Y-106896520D01*
X132414893Y-106909132D01*
X132434599Y-106923747D01*
X132452777Y-106940223D01*
X132469253Y-106958401D01*
X132483868Y-106978107D01*
X132496480Y-106999150D01*
X132506970Y-107021329D01*
X132515235Y-107044428D01*
X132521196Y-107068227D01*
X132524796Y-107092495D01*
X132526000Y-107116999D01*
X132526000Y-107767001D01*
X132524796Y-107791505D01*
X132521196Y-107815773D01*
X132515235Y-107839572D01*
X132506970Y-107862671D01*
X132496480Y-107884850D01*
X132483868Y-107905893D01*
X132469253Y-107925599D01*
X132452777Y-107943777D01*
X132434599Y-107960253D01*
X132414893Y-107974868D01*
X132393850Y-107987480D01*
X132371671Y-107997970D01*
X132348572Y-108006235D01*
X132324773Y-108012196D01*
X132300505Y-108015796D01*
X132276001Y-108017000D01*
X131375999Y-108017000D01*
X131351495Y-108015796D01*
X131327227Y-108012196D01*
X131303428Y-108006235D01*
X131280329Y-107997970D01*
X131258150Y-107987480D01*
X131237107Y-107974868D01*
X131217401Y-107960253D01*
X131199223Y-107943777D01*
X131182747Y-107925599D01*
X131168132Y-107905893D01*
X131155520Y-107884850D01*
X131145030Y-107862671D01*
X131136765Y-107839572D01*
X131130804Y-107815773D01*
X131127204Y-107791505D01*
X131126000Y-107767001D01*
X131126000Y-107116999D01*
X131127204Y-107092495D01*
X131130804Y-107068227D01*
X131136765Y-107044428D01*
X131145030Y-107021329D01*
X131155520Y-106999150D01*
X131168132Y-106978107D01*
X131182747Y-106958401D01*
X131199223Y-106940223D01*
X131217401Y-106923747D01*
X131237107Y-106909132D01*
X131258150Y-106896520D01*
X131280329Y-106886030D01*
X131303428Y-106877765D01*
X131327227Y-106871804D01*
X131351495Y-106868204D01*
X131375999Y-106867000D01*
X132276001Y-106867000D01*
X132300505Y-106868204D01*
X132300505Y-106868204D01*
G37*
D15*
X131826000Y-107442000D03*
D10*
G36*
X132300505Y-104818204D02*
X132324773Y-104821804D01*
X132348572Y-104827765D01*
X132371671Y-104836030D01*
X132393850Y-104846520D01*
X132414893Y-104859132D01*
X132434599Y-104873747D01*
X132452777Y-104890223D01*
X132469253Y-104908401D01*
X132483868Y-104928107D01*
X132496480Y-104949150D01*
X132506970Y-104971329D01*
X132515235Y-104994428D01*
X132521196Y-105018227D01*
X132524796Y-105042495D01*
X132526000Y-105066999D01*
X132526000Y-105717001D01*
X132524796Y-105741505D01*
X132521196Y-105765773D01*
X132515235Y-105789572D01*
X132506970Y-105812671D01*
X132496480Y-105834850D01*
X132483868Y-105855893D01*
X132469253Y-105875599D01*
X132452777Y-105893777D01*
X132434599Y-105910253D01*
X132414893Y-105924868D01*
X132393850Y-105937480D01*
X132371671Y-105947970D01*
X132348572Y-105956235D01*
X132324773Y-105962196D01*
X132300505Y-105965796D01*
X132276001Y-105967000D01*
X131375999Y-105967000D01*
X131351495Y-105965796D01*
X131327227Y-105962196D01*
X131303428Y-105956235D01*
X131280329Y-105947970D01*
X131258150Y-105937480D01*
X131237107Y-105924868D01*
X131217401Y-105910253D01*
X131199223Y-105893777D01*
X131182747Y-105875599D01*
X131168132Y-105855893D01*
X131155520Y-105834850D01*
X131145030Y-105812671D01*
X131136765Y-105789572D01*
X131130804Y-105765773D01*
X131127204Y-105741505D01*
X131126000Y-105717001D01*
X131126000Y-105066999D01*
X131127204Y-105042495D01*
X131130804Y-105018227D01*
X131136765Y-104994428D01*
X131145030Y-104971329D01*
X131155520Y-104949150D01*
X131168132Y-104928107D01*
X131182747Y-104908401D01*
X131199223Y-104890223D01*
X131217401Y-104873747D01*
X131237107Y-104859132D01*
X131258150Y-104846520D01*
X131280329Y-104836030D01*
X131303428Y-104827765D01*
X131327227Y-104821804D01*
X131351495Y-104818204D01*
X131375999Y-104817000D01*
X132276001Y-104817000D01*
X132300505Y-104818204D01*
X132300505Y-104818204D01*
G37*
D15*
X131826000Y-105392000D03*
G04 #@! TD*
D10*
G04 #@! TO.C,R31*
G36*
X120870505Y-104836204D02*
X120894773Y-104839804D01*
X120918572Y-104845765D01*
X120941671Y-104854030D01*
X120963850Y-104864520D01*
X120984893Y-104877132D01*
X121004599Y-104891747D01*
X121022777Y-104908223D01*
X121039253Y-104926401D01*
X121053868Y-104946107D01*
X121066480Y-104967150D01*
X121076970Y-104989329D01*
X121085235Y-105012428D01*
X121091196Y-105036227D01*
X121094796Y-105060495D01*
X121096000Y-105084999D01*
X121096000Y-105735001D01*
X121094796Y-105759505D01*
X121091196Y-105783773D01*
X121085235Y-105807572D01*
X121076970Y-105830671D01*
X121066480Y-105852850D01*
X121053868Y-105873893D01*
X121039253Y-105893599D01*
X121022777Y-105911777D01*
X121004599Y-105928253D01*
X120984893Y-105942868D01*
X120963850Y-105955480D01*
X120941671Y-105965970D01*
X120918572Y-105974235D01*
X120894773Y-105980196D01*
X120870505Y-105983796D01*
X120846001Y-105985000D01*
X119945999Y-105985000D01*
X119921495Y-105983796D01*
X119897227Y-105980196D01*
X119873428Y-105974235D01*
X119850329Y-105965970D01*
X119828150Y-105955480D01*
X119807107Y-105942868D01*
X119787401Y-105928253D01*
X119769223Y-105911777D01*
X119752747Y-105893599D01*
X119738132Y-105873893D01*
X119725520Y-105852850D01*
X119715030Y-105830671D01*
X119706765Y-105807572D01*
X119700804Y-105783773D01*
X119697204Y-105759505D01*
X119696000Y-105735001D01*
X119696000Y-105084999D01*
X119697204Y-105060495D01*
X119700804Y-105036227D01*
X119706765Y-105012428D01*
X119715030Y-104989329D01*
X119725520Y-104967150D01*
X119738132Y-104946107D01*
X119752747Y-104926401D01*
X119769223Y-104908223D01*
X119787401Y-104891747D01*
X119807107Y-104877132D01*
X119828150Y-104864520D01*
X119850329Y-104854030D01*
X119873428Y-104845765D01*
X119897227Y-104839804D01*
X119921495Y-104836204D01*
X119945999Y-104835000D01*
X120846001Y-104835000D01*
X120870505Y-104836204D01*
X120870505Y-104836204D01*
G37*
D15*
X120396000Y-105410000D03*
D10*
G36*
X120870505Y-106886204D02*
X120894773Y-106889804D01*
X120918572Y-106895765D01*
X120941671Y-106904030D01*
X120963850Y-106914520D01*
X120984893Y-106927132D01*
X121004599Y-106941747D01*
X121022777Y-106958223D01*
X121039253Y-106976401D01*
X121053868Y-106996107D01*
X121066480Y-107017150D01*
X121076970Y-107039329D01*
X121085235Y-107062428D01*
X121091196Y-107086227D01*
X121094796Y-107110495D01*
X121096000Y-107134999D01*
X121096000Y-107785001D01*
X121094796Y-107809505D01*
X121091196Y-107833773D01*
X121085235Y-107857572D01*
X121076970Y-107880671D01*
X121066480Y-107902850D01*
X121053868Y-107923893D01*
X121039253Y-107943599D01*
X121022777Y-107961777D01*
X121004599Y-107978253D01*
X120984893Y-107992868D01*
X120963850Y-108005480D01*
X120941671Y-108015970D01*
X120918572Y-108024235D01*
X120894773Y-108030196D01*
X120870505Y-108033796D01*
X120846001Y-108035000D01*
X119945999Y-108035000D01*
X119921495Y-108033796D01*
X119897227Y-108030196D01*
X119873428Y-108024235D01*
X119850329Y-108015970D01*
X119828150Y-108005480D01*
X119807107Y-107992868D01*
X119787401Y-107978253D01*
X119769223Y-107961777D01*
X119752747Y-107943599D01*
X119738132Y-107923893D01*
X119725520Y-107902850D01*
X119715030Y-107880671D01*
X119706765Y-107857572D01*
X119700804Y-107833773D01*
X119697204Y-107809505D01*
X119696000Y-107785001D01*
X119696000Y-107134999D01*
X119697204Y-107110495D01*
X119700804Y-107086227D01*
X119706765Y-107062428D01*
X119715030Y-107039329D01*
X119725520Y-107017150D01*
X119738132Y-106996107D01*
X119752747Y-106976401D01*
X119769223Y-106958223D01*
X119787401Y-106941747D01*
X119807107Y-106927132D01*
X119828150Y-106914520D01*
X119850329Y-106904030D01*
X119873428Y-106895765D01*
X119897227Y-106889804D01*
X119921495Y-106886204D01*
X119945999Y-106885000D01*
X120846001Y-106885000D01*
X120870505Y-106886204D01*
X120870505Y-106886204D01*
G37*
D15*
X120396000Y-107460000D03*
G04 #@! TD*
D10*
G04 #@! TO.C,R35*
G36*
X133062505Y-67507204D02*
X133086773Y-67510804D01*
X133110572Y-67516765D01*
X133133671Y-67525030D01*
X133155850Y-67535520D01*
X133176893Y-67548132D01*
X133196599Y-67562747D01*
X133214777Y-67579223D01*
X133231253Y-67597401D01*
X133245868Y-67617107D01*
X133258480Y-67638150D01*
X133268970Y-67660329D01*
X133277235Y-67683428D01*
X133283196Y-67707227D01*
X133286796Y-67731495D01*
X133288000Y-67755999D01*
X133288000Y-68406001D01*
X133286796Y-68430505D01*
X133283196Y-68454773D01*
X133277235Y-68478572D01*
X133268970Y-68501671D01*
X133258480Y-68523850D01*
X133245868Y-68544893D01*
X133231253Y-68564599D01*
X133214777Y-68582777D01*
X133196599Y-68599253D01*
X133176893Y-68613868D01*
X133155850Y-68626480D01*
X133133671Y-68636970D01*
X133110572Y-68645235D01*
X133086773Y-68651196D01*
X133062505Y-68654796D01*
X133038001Y-68656000D01*
X132137999Y-68656000D01*
X132113495Y-68654796D01*
X132089227Y-68651196D01*
X132065428Y-68645235D01*
X132042329Y-68636970D01*
X132020150Y-68626480D01*
X131999107Y-68613868D01*
X131979401Y-68599253D01*
X131961223Y-68582777D01*
X131944747Y-68564599D01*
X131930132Y-68544893D01*
X131917520Y-68523850D01*
X131907030Y-68501671D01*
X131898765Y-68478572D01*
X131892804Y-68454773D01*
X131889204Y-68430505D01*
X131888000Y-68406001D01*
X131888000Y-67755999D01*
X131889204Y-67731495D01*
X131892804Y-67707227D01*
X131898765Y-67683428D01*
X131907030Y-67660329D01*
X131917520Y-67638150D01*
X131930132Y-67617107D01*
X131944747Y-67597401D01*
X131961223Y-67579223D01*
X131979401Y-67562747D01*
X131999107Y-67548132D01*
X132020150Y-67535520D01*
X132042329Y-67525030D01*
X132065428Y-67516765D01*
X132089227Y-67510804D01*
X132113495Y-67507204D01*
X132137999Y-67506000D01*
X133038001Y-67506000D01*
X133062505Y-67507204D01*
X133062505Y-67507204D01*
G37*
D15*
X132588000Y-68081000D03*
D10*
G36*
X133062505Y-65457204D02*
X133086773Y-65460804D01*
X133110572Y-65466765D01*
X133133671Y-65475030D01*
X133155850Y-65485520D01*
X133176893Y-65498132D01*
X133196599Y-65512747D01*
X133214777Y-65529223D01*
X133231253Y-65547401D01*
X133245868Y-65567107D01*
X133258480Y-65588150D01*
X133268970Y-65610329D01*
X133277235Y-65633428D01*
X133283196Y-65657227D01*
X133286796Y-65681495D01*
X133288000Y-65705999D01*
X133288000Y-66356001D01*
X133286796Y-66380505D01*
X133283196Y-66404773D01*
X133277235Y-66428572D01*
X133268970Y-66451671D01*
X133258480Y-66473850D01*
X133245868Y-66494893D01*
X133231253Y-66514599D01*
X133214777Y-66532777D01*
X133196599Y-66549253D01*
X133176893Y-66563868D01*
X133155850Y-66576480D01*
X133133671Y-66586970D01*
X133110572Y-66595235D01*
X133086773Y-66601196D01*
X133062505Y-66604796D01*
X133038001Y-66606000D01*
X132137999Y-66606000D01*
X132113495Y-66604796D01*
X132089227Y-66601196D01*
X132065428Y-66595235D01*
X132042329Y-66586970D01*
X132020150Y-66576480D01*
X131999107Y-66563868D01*
X131979401Y-66549253D01*
X131961223Y-66532777D01*
X131944747Y-66514599D01*
X131930132Y-66494893D01*
X131917520Y-66473850D01*
X131907030Y-66451671D01*
X131898765Y-66428572D01*
X131892804Y-66404773D01*
X131889204Y-66380505D01*
X131888000Y-66356001D01*
X131888000Y-65705999D01*
X131889204Y-65681495D01*
X131892804Y-65657227D01*
X131898765Y-65633428D01*
X131907030Y-65610329D01*
X131917520Y-65588150D01*
X131930132Y-65567107D01*
X131944747Y-65547401D01*
X131961223Y-65529223D01*
X131979401Y-65512747D01*
X131999107Y-65498132D01*
X132020150Y-65485520D01*
X132042329Y-65475030D01*
X132065428Y-65466765D01*
X132089227Y-65460804D01*
X132113495Y-65457204D01*
X132137999Y-65456000D01*
X133038001Y-65456000D01*
X133062505Y-65457204D01*
X133062505Y-65457204D01*
G37*
D15*
X132588000Y-66031000D03*
G04 #@! TD*
D10*
G04 #@! TO.C,R39*
G36*
X124426505Y-69530204D02*
X124450773Y-69533804D01*
X124474572Y-69539765D01*
X124497671Y-69548030D01*
X124519850Y-69558520D01*
X124540893Y-69571132D01*
X124560599Y-69585747D01*
X124578777Y-69602223D01*
X124595253Y-69620401D01*
X124609868Y-69640107D01*
X124622480Y-69661150D01*
X124632970Y-69683329D01*
X124641235Y-69706428D01*
X124647196Y-69730227D01*
X124650796Y-69754495D01*
X124652000Y-69778999D01*
X124652000Y-70429001D01*
X124650796Y-70453505D01*
X124647196Y-70477773D01*
X124641235Y-70501572D01*
X124632970Y-70524671D01*
X124622480Y-70546850D01*
X124609868Y-70567893D01*
X124595253Y-70587599D01*
X124578777Y-70605777D01*
X124560599Y-70622253D01*
X124540893Y-70636868D01*
X124519850Y-70649480D01*
X124497671Y-70659970D01*
X124474572Y-70668235D01*
X124450773Y-70674196D01*
X124426505Y-70677796D01*
X124402001Y-70679000D01*
X123501999Y-70679000D01*
X123477495Y-70677796D01*
X123453227Y-70674196D01*
X123429428Y-70668235D01*
X123406329Y-70659970D01*
X123384150Y-70649480D01*
X123363107Y-70636868D01*
X123343401Y-70622253D01*
X123325223Y-70605777D01*
X123308747Y-70587599D01*
X123294132Y-70567893D01*
X123281520Y-70546850D01*
X123271030Y-70524671D01*
X123262765Y-70501572D01*
X123256804Y-70477773D01*
X123253204Y-70453505D01*
X123252000Y-70429001D01*
X123252000Y-69778999D01*
X123253204Y-69754495D01*
X123256804Y-69730227D01*
X123262765Y-69706428D01*
X123271030Y-69683329D01*
X123281520Y-69661150D01*
X123294132Y-69640107D01*
X123308747Y-69620401D01*
X123325223Y-69602223D01*
X123343401Y-69585747D01*
X123363107Y-69571132D01*
X123384150Y-69558520D01*
X123406329Y-69548030D01*
X123429428Y-69539765D01*
X123453227Y-69533804D01*
X123477495Y-69530204D01*
X123501999Y-69529000D01*
X124402001Y-69529000D01*
X124426505Y-69530204D01*
X124426505Y-69530204D01*
G37*
D15*
X123952000Y-70104000D03*
D10*
G36*
X124426505Y-71580204D02*
X124450773Y-71583804D01*
X124474572Y-71589765D01*
X124497671Y-71598030D01*
X124519850Y-71608520D01*
X124540893Y-71621132D01*
X124560599Y-71635747D01*
X124578777Y-71652223D01*
X124595253Y-71670401D01*
X124609868Y-71690107D01*
X124622480Y-71711150D01*
X124632970Y-71733329D01*
X124641235Y-71756428D01*
X124647196Y-71780227D01*
X124650796Y-71804495D01*
X124652000Y-71828999D01*
X124652000Y-72479001D01*
X124650796Y-72503505D01*
X124647196Y-72527773D01*
X124641235Y-72551572D01*
X124632970Y-72574671D01*
X124622480Y-72596850D01*
X124609868Y-72617893D01*
X124595253Y-72637599D01*
X124578777Y-72655777D01*
X124560599Y-72672253D01*
X124540893Y-72686868D01*
X124519850Y-72699480D01*
X124497671Y-72709970D01*
X124474572Y-72718235D01*
X124450773Y-72724196D01*
X124426505Y-72727796D01*
X124402001Y-72729000D01*
X123501999Y-72729000D01*
X123477495Y-72727796D01*
X123453227Y-72724196D01*
X123429428Y-72718235D01*
X123406329Y-72709970D01*
X123384150Y-72699480D01*
X123363107Y-72686868D01*
X123343401Y-72672253D01*
X123325223Y-72655777D01*
X123308747Y-72637599D01*
X123294132Y-72617893D01*
X123281520Y-72596850D01*
X123271030Y-72574671D01*
X123262765Y-72551572D01*
X123256804Y-72527773D01*
X123253204Y-72503505D01*
X123252000Y-72479001D01*
X123252000Y-71828999D01*
X123253204Y-71804495D01*
X123256804Y-71780227D01*
X123262765Y-71756428D01*
X123271030Y-71733329D01*
X123281520Y-71711150D01*
X123294132Y-71690107D01*
X123308747Y-71670401D01*
X123325223Y-71652223D01*
X123343401Y-71635747D01*
X123363107Y-71621132D01*
X123384150Y-71608520D01*
X123406329Y-71598030D01*
X123429428Y-71589765D01*
X123453227Y-71583804D01*
X123477495Y-71580204D01*
X123501999Y-71579000D01*
X124402001Y-71579000D01*
X124426505Y-71580204D01*
X124426505Y-71580204D01*
G37*
D15*
X123952000Y-72154000D03*
G04 #@! TD*
D10*
G04 #@! TO.C,R40*
G36*
X122140505Y-71580204D02*
X122164773Y-71583804D01*
X122188572Y-71589765D01*
X122211671Y-71598030D01*
X122233850Y-71608520D01*
X122254893Y-71621132D01*
X122274599Y-71635747D01*
X122292777Y-71652223D01*
X122309253Y-71670401D01*
X122323868Y-71690107D01*
X122336480Y-71711150D01*
X122346970Y-71733329D01*
X122355235Y-71756428D01*
X122361196Y-71780227D01*
X122364796Y-71804495D01*
X122366000Y-71828999D01*
X122366000Y-72479001D01*
X122364796Y-72503505D01*
X122361196Y-72527773D01*
X122355235Y-72551572D01*
X122346970Y-72574671D01*
X122336480Y-72596850D01*
X122323868Y-72617893D01*
X122309253Y-72637599D01*
X122292777Y-72655777D01*
X122274599Y-72672253D01*
X122254893Y-72686868D01*
X122233850Y-72699480D01*
X122211671Y-72709970D01*
X122188572Y-72718235D01*
X122164773Y-72724196D01*
X122140505Y-72727796D01*
X122116001Y-72729000D01*
X121215999Y-72729000D01*
X121191495Y-72727796D01*
X121167227Y-72724196D01*
X121143428Y-72718235D01*
X121120329Y-72709970D01*
X121098150Y-72699480D01*
X121077107Y-72686868D01*
X121057401Y-72672253D01*
X121039223Y-72655777D01*
X121022747Y-72637599D01*
X121008132Y-72617893D01*
X120995520Y-72596850D01*
X120985030Y-72574671D01*
X120976765Y-72551572D01*
X120970804Y-72527773D01*
X120967204Y-72503505D01*
X120966000Y-72479001D01*
X120966000Y-71828999D01*
X120967204Y-71804495D01*
X120970804Y-71780227D01*
X120976765Y-71756428D01*
X120985030Y-71733329D01*
X120995520Y-71711150D01*
X121008132Y-71690107D01*
X121022747Y-71670401D01*
X121039223Y-71652223D01*
X121057401Y-71635747D01*
X121077107Y-71621132D01*
X121098150Y-71608520D01*
X121120329Y-71598030D01*
X121143428Y-71589765D01*
X121167227Y-71583804D01*
X121191495Y-71580204D01*
X121215999Y-71579000D01*
X122116001Y-71579000D01*
X122140505Y-71580204D01*
X122140505Y-71580204D01*
G37*
D15*
X121666000Y-72154000D03*
D10*
G36*
X122140505Y-69530204D02*
X122164773Y-69533804D01*
X122188572Y-69539765D01*
X122211671Y-69548030D01*
X122233850Y-69558520D01*
X122254893Y-69571132D01*
X122274599Y-69585747D01*
X122292777Y-69602223D01*
X122309253Y-69620401D01*
X122323868Y-69640107D01*
X122336480Y-69661150D01*
X122346970Y-69683329D01*
X122355235Y-69706428D01*
X122361196Y-69730227D01*
X122364796Y-69754495D01*
X122366000Y-69778999D01*
X122366000Y-70429001D01*
X122364796Y-70453505D01*
X122361196Y-70477773D01*
X122355235Y-70501572D01*
X122346970Y-70524671D01*
X122336480Y-70546850D01*
X122323868Y-70567893D01*
X122309253Y-70587599D01*
X122292777Y-70605777D01*
X122274599Y-70622253D01*
X122254893Y-70636868D01*
X122233850Y-70649480D01*
X122211671Y-70659970D01*
X122188572Y-70668235D01*
X122164773Y-70674196D01*
X122140505Y-70677796D01*
X122116001Y-70679000D01*
X121215999Y-70679000D01*
X121191495Y-70677796D01*
X121167227Y-70674196D01*
X121143428Y-70668235D01*
X121120329Y-70659970D01*
X121098150Y-70649480D01*
X121077107Y-70636868D01*
X121057401Y-70622253D01*
X121039223Y-70605777D01*
X121022747Y-70587599D01*
X121008132Y-70567893D01*
X120995520Y-70546850D01*
X120985030Y-70524671D01*
X120976765Y-70501572D01*
X120970804Y-70477773D01*
X120967204Y-70453505D01*
X120966000Y-70429001D01*
X120966000Y-69778999D01*
X120967204Y-69754495D01*
X120970804Y-69730227D01*
X120976765Y-69706428D01*
X120985030Y-69683329D01*
X120995520Y-69661150D01*
X121008132Y-69640107D01*
X121022747Y-69620401D01*
X121039223Y-69602223D01*
X121057401Y-69585747D01*
X121077107Y-69571132D01*
X121098150Y-69558520D01*
X121120329Y-69548030D01*
X121143428Y-69539765D01*
X121167227Y-69533804D01*
X121191495Y-69530204D01*
X121215999Y-69529000D01*
X122116001Y-69529000D01*
X122140505Y-69530204D01*
X122140505Y-69530204D01*
G37*
D15*
X121666000Y-70104000D03*
G04 #@! TD*
D10*
G04 #@! TO.C,C7*
G36*
X125306779Y-59470144D02*
X125329834Y-59473563D01*
X125352443Y-59479227D01*
X125374387Y-59487079D01*
X125395457Y-59497044D01*
X125415448Y-59509026D01*
X125434168Y-59522910D01*
X125451438Y-59538562D01*
X125467090Y-59555832D01*
X125480974Y-59574552D01*
X125492956Y-59594543D01*
X125502921Y-59615613D01*
X125510773Y-59637557D01*
X125516437Y-59660166D01*
X125519856Y-59683221D01*
X125521000Y-59706500D01*
X125521000Y-60181500D01*
X125519856Y-60204779D01*
X125516437Y-60227834D01*
X125510773Y-60250443D01*
X125502921Y-60272387D01*
X125492956Y-60293457D01*
X125480974Y-60313448D01*
X125467090Y-60332168D01*
X125451438Y-60349438D01*
X125434168Y-60365090D01*
X125415448Y-60378974D01*
X125395457Y-60390956D01*
X125374387Y-60400921D01*
X125352443Y-60408773D01*
X125329834Y-60414437D01*
X125306779Y-60417856D01*
X125283500Y-60419000D01*
X124708500Y-60419000D01*
X124685221Y-60417856D01*
X124662166Y-60414437D01*
X124639557Y-60408773D01*
X124617613Y-60400921D01*
X124596543Y-60390956D01*
X124576552Y-60378974D01*
X124557832Y-60365090D01*
X124540562Y-60349438D01*
X124524910Y-60332168D01*
X124511026Y-60313448D01*
X124499044Y-60293457D01*
X124489079Y-60272387D01*
X124481227Y-60250443D01*
X124475563Y-60227834D01*
X124472144Y-60204779D01*
X124471000Y-60181500D01*
X124471000Y-59706500D01*
X124472144Y-59683221D01*
X124475563Y-59660166D01*
X124481227Y-59637557D01*
X124489079Y-59615613D01*
X124499044Y-59594543D01*
X124511026Y-59574552D01*
X124524910Y-59555832D01*
X124540562Y-59538562D01*
X124557832Y-59522910D01*
X124576552Y-59509026D01*
X124596543Y-59497044D01*
X124617613Y-59487079D01*
X124639557Y-59479227D01*
X124662166Y-59473563D01*
X124685221Y-59470144D01*
X124708500Y-59469000D01*
X125283500Y-59469000D01*
X125306779Y-59470144D01*
X125306779Y-59470144D01*
G37*
D11*
X124996000Y-59944000D03*
D10*
G36*
X127056779Y-59470144D02*
X127079834Y-59473563D01*
X127102443Y-59479227D01*
X127124387Y-59487079D01*
X127145457Y-59497044D01*
X127165448Y-59509026D01*
X127184168Y-59522910D01*
X127201438Y-59538562D01*
X127217090Y-59555832D01*
X127230974Y-59574552D01*
X127242956Y-59594543D01*
X127252921Y-59615613D01*
X127260773Y-59637557D01*
X127266437Y-59660166D01*
X127269856Y-59683221D01*
X127271000Y-59706500D01*
X127271000Y-60181500D01*
X127269856Y-60204779D01*
X127266437Y-60227834D01*
X127260773Y-60250443D01*
X127252921Y-60272387D01*
X127242956Y-60293457D01*
X127230974Y-60313448D01*
X127217090Y-60332168D01*
X127201438Y-60349438D01*
X127184168Y-60365090D01*
X127165448Y-60378974D01*
X127145457Y-60390956D01*
X127124387Y-60400921D01*
X127102443Y-60408773D01*
X127079834Y-60414437D01*
X127056779Y-60417856D01*
X127033500Y-60419000D01*
X126458500Y-60419000D01*
X126435221Y-60417856D01*
X126412166Y-60414437D01*
X126389557Y-60408773D01*
X126367613Y-60400921D01*
X126346543Y-60390956D01*
X126326552Y-60378974D01*
X126307832Y-60365090D01*
X126290562Y-60349438D01*
X126274910Y-60332168D01*
X126261026Y-60313448D01*
X126249044Y-60293457D01*
X126239079Y-60272387D01*
X126231227Y-60250443D01*
X126225563Y-60227834D01*
X126222144Y-60204779D01*
X126221000Y-60181500D01*
X126221000Y-59706500D01*
X126222144Y-59683221D01*
X126225563Y-59660166D01*
X126231227Y-59637557D01*
X126239079Y-59615613D01*
X126249044Y-59594543D01*
X126261026Y-59574552D01*
X126274910Y-59555832D01*
X126290562Y-59538562D01*
X126307832Y-59522910D01*
X126326552Y-59509026D01*
X126346543Y-59497044D01*
X126367613Y-59487079D01*
X126389557Y-59479227D01*
X126412166Y-59473563D01*
X126435221Y-59470144D01*
X126458500Y-59469000D01*
X127033500Y-59469000D01*
X127056779Y-59470144D01*
X127056779Y-59470144D01*
G37*
D11*
X126746000Y-59944000D03*
G04 #@! TD*
D10*
G04 #@! TO.C,C17*
G36*
X116084779Y-88743144D02*
X116107834Y-88746563D01*
X116130443Y-88752227D01*
X116152387Y-88760079D01*
X116173457Y-88770044D01*
X116193448Y-88782026D01*
X116212168Y-88795910D01*
X116229438Y-88811562D01*
X116245090Y-88828832D01*
X116258974Y-88847552D01*
X116270956Y-88867543D01*
X116280921Y-88888613D01*
X116288773Y-88910557D01*
X116294437Y-88933166D01*
X116297856Y-88956221D01*
X116299000Y-88979500D01*
X116299000Y-89554500D01*
X116297856Y-89577779D01*
X116294437Y-89600834D01*
X116288773Y-89623443D01*
X116280921Y-89645387D01*
X116270956Y-89666457D01*
X116258974Y-89686448D01*
X116245090Y-89705168D01*
X116229438Y-89722438D01*
X116212168Y-89738090D01*
X116193448Y-89751974D01*
X116173457Y-89763956D01*
X116152387Y-89773921D01*
X116130443Y-89781773D01*
X116107834Y-89787437D01*
X116084779Y-89790856D01*
X116061500Y-89792000D01*
X115586500Y-89792000D01*
X115563221Y-89790856D01*
X115540166Y-89787437D01*
X115517557Y-89781773D01*
X115495613Y-89773921D01*
X115474543Y-89763956D01*
X115454552Y-89751974D01*
X115435832Y-89738090D01*
X115418562Y-89722438D01*
X115402910Y-89705168D01*
X115389026Y-89686448D01*
X115377044Y-89666457D01*
X115367079Y-89645387D01*
X115359227Y-89623443D01*
X115353563Y-89600834D01*
X115350144Y-89577779D01*
X115349000Y-89554500D01*
X115349000Y-88979500D01*
X115350144Y-88956221D01*
X115353563Y-88933166D01*
X115359227Y-88910557D01*
X115367079Y-88888613D01*
X115377044Y-88867543D01*
X115389026Y-88847552D01*
X115402910Y-88828832D01*
X115418562Y-88811562D01*
X115435832Y-88795910D01*
X115454552Y-88782026D01*
X115474543Y-88770044D01*
X115495613Y-88760079D01*
X115517557Y-88752227D01*
X115540166Y-88746563D01*
X115563221Y-88743144D01*
X115586500Y-88742000D01*
X116061500Y-88742000D01*
X116084779Y-88743144D01*
X116084779Y-88743144D01*
G37*
D11*
X115824000Y-89267000D03*
D10*
G36*
X116084779Y-86993144D02*
X116107834Y-86996563D01*
X116130443Y-87002227D01*
X116152387Y-87010079D01*
X116173457Y-87020044D01*
X116193448Y-87032026D01*
X116212168Y-87045910D01*
X116229438Y-87061562D01*
X116245090Y-87078832D01*
X116258974Y-87097552D01*
X116270956Y-87117543D01*
X116280921Y-87138613D01*
X116288773Y-87160557D01*
X116294437Y-87183166D01*
X116297856Y-87206221D01*
X116299000Y-87229500D01*
X116299000Y-87804500D01*
X116297856Y-87827779D01*
X116294437Y-87850834D01*
X116288773Y-87873443D01*
X116280921Y-87895387D01*
X116270956Y-87916457D01*
X116258974Y-87936448D01*
X116245090Y-87955168D01*
X116229438Y-87972438D01*
X116212168Y-87988090D01*
X116193448Y-88001974D01*
X116173457Y-88013956D01*
X116152387Y-88023921D01*
X116130443Y-88031773D01*
X116107834Y-88037437D01*
X116084779Y-88040856D01*
X116061500Y-88042000D01*
X115586500Y-88042000D01*
X115563221Y-88040856D01*
X115540166Y-88037437D01*
X115517557Y-88031773D01*
X115495613Y-88023921D01*
X115474543Y-88013956D01*
X115454552Y-88001974D01*
X115435832Y-87988090D01*
X115418562Y-87972438D01*
X115402910Y-87955168D01*
X115389026Y-87936448D01*
X115377044Y-87916457D01*
X115367079Y-87895387D01*
X115359227Y-87873443D01*
X115353563Y-87850834D01*
X115350144Y-87827779D01*
X115349000Y-87804500D01*
X115349000Y-87229500D01*
X115350144Y-87206221D01*
X115353563Y-87183166D01*
X115359227Y-87160557D01*
X115367079Y-87138613D01*
X115377044Y-87117543D01*
X115389026Y-87097552D01*
X115402910Y-87078832D01*
X115418562Y-87061562D01*
X115435832Y-87045910D01*
X115454552Y-87032026D01*
X115474543Y-87020044D01*
X115495613Y-87010079D01*
X115517557Y-87002227D01*
X115540166Y-86996563D01*
X115563221Y-86993144D01*
X115586500Y-86992000D01*
X116061500Y-86992000D01*
X116084779Y-86993144D01*
X116084779Y-86993144D01*
G37*
D11*
X115824000Y-87517000D03*
G04 #@! TD*
D10*
G04 #@! TO.C,C21*
G36*
X114495179Y-79713944D02*
X114518234Y-79717363D01*
X114540843Y-79723027D01*
X114562787Y-79730879D01*
X114583857Y-79740844D01*
X114603848Y-79752826D01*
X114622568Y-79766710D01*
X114639838Y-79782362D01*
X114655490Y-79799632D01*
X114669374Y-79818352D01*
X114681356Y-79838343D01*
X114691321Y-79859413D01*
X114699173Y-79881357D01*
X114704837Y-79903966D01*
X114708256Y-79927021D01*
X114709400Y-79950300D01*
X114709400Y-80425300D01*
X114708256Y-80448579D01*
X114704837Y-80471634D01*
X114699173Y-80494243D01*
X114691321Y-80516187D01*
X114681356Y-80537257D01*
X114669374Y-80557248D01*
X114655490Y-80575968D01*
X114639838Y-80593238D01*
X114622568Y-80608890D01*
X114603848Y-80622774D01*
X114583857Y-80634756D01*
X114562787Y-80644721D01*
X114540843Y-80652573D01*
X114518234Y-80658237D01*
X114495179Y-80661656D01*
X114471900Y-80662800D01*
X113896900Y-80662800D01*
X113873621Y-80661656D01*
X113850566Y-80658237D01*
X113827957Y-80652573D01*
X113806013Y-80644721D01*
X113784943Y-80634756D01*
X113764952Y-80622774D01*
X113746232Y-80608890D01*
X113728962Y-80593238D01*
X113713310Y-80575968D01*
X113699426Y-80557248D01*
X113687444Y-80537257D01*
X113677479Y-80516187D01*
X113669627Y-80494243D01*
X113663963Y-80471634D01*
X113660544Y-80448579D01*
X113659400Y-80425300D01*
X113659400Y-79950300D01*
X113660544Y-79927021D01*
X113663963Y-79903966D01*
X113669627Y-79881357D01*
X113677479Y-79859413D01*
X113687444Y-79838343D01*
X113699426Y-79818352D01*
X113713310Y-79799632D01*
X113728962Y-79782362D01*
X113746232Y-79766710D01*
X113764952Y-79752826D01*
X113784943Y-79740844D01*
X113806013Y-79730879D01*
X113827957Y-79723027D01*
X113850566Y-79717363D01*
X113873621Y-79713944D01*
X113896900Y-79712800D01*
X114471900Y-79712800D01*
X114495179Y-79713944D01*
X114495179Y-79713944D01*
G37*
D11*
X114184400Y-80187800D03*
D10*
G36*
X112745179Y-79713944D02*
X112768234Y-79717363D01*
X112790843Y-79723027D01*
X112812787Y-79730879D01*
X112833857Y-79740844D01*
X112853848Y-79752826D01*
X112872568Y-79766710D01*
X112889838Y-79782362D01*
X112905490Y-79799632D01*
X112919374Y-79818352D01*
X112931356Y-79838343D01*
X112941321Y-79859413D01*
X112949173Y-79881357D01*
X112954837Y-79903966D01*
X112958256Y-79927021D01*
X112959400Y-79950300D01*
X112959400Y-80425300D01*
X112958256Y-80448579D01*
X112954837Y-80471634D01*
X112949173Y-80494243D01*
X112941321Y-80516187D01*
X112931356Y-80537257D01*
X112919374Y-80557248D01*
X112905490Y-80575968D01*
X112889838Y-80593238D01*
X112872568Y-80608890D01*
X112853848Y-80622774D01*
X112833857Y-80634756D01*
X112812787Y-80644721D01*
X112790843Y-80652573D01*
X112768234Y-80658237D01*
X112745179Y-80661656D01*
X112721900Y-80662800D01*
X112146900Y-80662800D01*
X112123621Y-80661656D01*
X112100566Y-80658237D01*
X112077957Y-80652573D01*
X112056013Y-80644721D01*
X112034943Y-80634756D01*
X112014952Y-80622774D01*
X111996232Y-80608890D01*
X111978962Y-80593238D01*
X111963310Y-80575968D01*
X111949426Y-80557248D01*
X111937444Y-80537257D01*
X111927479Y-80516187D01*
X111919627Y-80494243D01*
X111913963Y-80471634D01*
X111910544Y-80448579D01*
X111909400Y-80425300D01*
X111909400Y-79950300D01*
X111910544Y-79927021D01*
X111913963Y-79903966D01*
X111919627Y-79881357D01*
X111927479Y-79859413D01*
X111937444Y-79838343D01*
X111949426Y-79818352D01*
X111963310Y-79799632D01*
X111978962Y-79782362D01*
X111996232Y-79766710D01*
X112014952Y-79752826D01*
X112034943Y-79740844D01*
X112056013Y-79730879D01*
X112077957Y-79723027D01*
X112100566Y-79717363D01*
X112123621Y-79713944D01*
X112146900Y-79712800D01*
X112721900Y-79712800D01*
X112745179Y-79713944D01*
X112745179Y-79713944D01*
G37*
D11*
X112434400Y-80187800D03*
G04 #@! TD*
D10*
G04 #@! TO.C,R48*
G36*
X127474505Y-45636204D02*
X127498773Y-45639804D01*
X127522572Y-45645765D01*
X127545671Y-45654030D01*
X127567850Y-45664520D01*
X127588893Y-45677132D01*
X127608599Y-45691747D01*
X127626777Y-45708223D01*
X127643253Y-45726401D01*
X127657868Y-45746107D01*
X127670480Y-45767150D01*
X127680970Y-45789329D01*
X127689235Y-45812428D01*
X127695196Y-45836227D01*
X127698796Y-45860495D01*
X127700000Y-45884999D01*
X127700000Y-46535001D01*
X127698796Y-46559505D01*
X127695196Y-46583773D01*
X127689235Y-46607572D01*
X127680970Y-46630671D01*
X127670480Y-46652850D01*
X127657868Y-46673893D01*
X127643253Y-46693599D01*
X127626777Y-46711777D01*
X127608599Y-46728253D01*
X127588893Y-46742868D01*
X127567850Y-46755480D01*
X127545671Y-46765970D01*
X127522572Y-46774235D01*
X127498773Y-46780196D01*
X127474505Y-46783796D01*
X127450001Y-46785000D01*
X126549999Y-46785000D01*
X126525495Y-46783796D01*
X126501227Y-46780196D01*
X126477428Y-46774235D01*
X126454329Y-46765970D01*
X126432150Y-46755480D01*
X126411107Y-46742868D01*
X126391401Y-46728253D01*
X126373223Y-46711777D01*
X126356747Y-46693599D01*
X126342132Y-46673893D01*
X126329520Y-46652850D01*
X126319030Y-46630671D01*
X126310765Y-46607572D01*
X126304804Y-46583773D01*
X126301204Y-46559505D01*
X126300000Y-46535001D01*
X126300000Y-45884999D01*
X126301204Y-45860495D01*
X126304804Y-45836227D01*
X126310765Y-45812428D01*
X126319030Y-45789329D01*
X126329520Y-45767150D01*
X126342132Y-45746107D01*
X126356747Y-45726401D01*
X126373223Y-45708223D01*
X126391401Y-45691747D01*
X126411107Y-45677132D01*
X126432150Y-45664520D01*
X126454329Y-45654030D01*
X126477428Y-45645765D01*
X126501227Y-45639804D01*
X126525495Y-45636204D01*
X126549999Y-45635000D01*
X127450001Y-45635000D01*
X127474505Y-45636204D01*
X127474505Y-45636204D01*
G37*
D15*
X127000000Y-46210000D03*
D10*
G36*
X127474505Y-47686204D02*
X127498773Y-47689804D01*
X127522572Y-47695765D01*
X127545671Y-47704030D01*
X127567850Y-47714520D01*
X127588893Y-47727132D01*
X127608599Y-47741747D01*
X127626777Y-47758223D01*
X127643253Y-47776401D01*
X127657868Y-47796107D01*
X127670480Y-47817150D01*
X127680970Y-47839329D01*
X127689235Y-47862428D01*
X127695196Y-47886227D01*
X127698796Y-47910495D01*
X127700000Y-47934999D01*
X127700000Y-48585001D01*
X127698796Y-48609505D01*
X127695196Y-48633773D01*
X127689235Y-48657572D01*
X127680970Y-48680671D01*
X127670480Y-48702850D01*
X127657868Y-48723893D01*
X127643253Y-48743599D01*
X127626777Y-48761777D01*
X127608599Y-48778253D01*
X127588893Y-48792868D01*
X127567850Y-48805480D01*
X127545671Y-48815970D01*
X127522572Y-48824235D01*
X127498773Y-48830196D01*
X127474505Y-48833796D01*
X127450001Y-48835000D01*
X126549999Y-48835000D01*
X126525495Y-48833796D01*
X126501227Y-48830196D01*
X126477428Y-48824235D01*
X126454329Y-48815970D01*
X126432150Y-48805480D01*
X126411107Y-48792868D01*
X126391401Y-48778253D01*
X126373223Y-48761777D01*
X126356747Y-48743599D01*
X126342132Y-48723893D01*
X126329520Y-48702850D01*
X126319030Y-48680671D01*
X126310765Y-48657572D01*
X126304804Y-48633773D01*
X126301204Y-48609505D01*
X126300000Y-48585001D01*
X126300000Y-47934999D01*
X126301204Y-47910495D01*
X126304804Y-47886227D01*
X126310765Y-47862428D01*
X126319030Y-47839329D01*
X126329520Y-47817150D01*
X126342132Y-47796107D01*
X126356747Y-47776401D01*
X126373223Y-47758223D01*
X126391401Y-47741747D01*
X126411107Y-47727132D01*
X126432150Y-47714520D01*
X126454329Y-47704030D01*
X126477428Y-47695765D01*
X126501227Y-47689804D01*
X126525495Y-47686204D01*
X126549999Y-47685000D01*
X127450001Y-47685000D01*
X127474505Y-47686204D01*
X127474505Y-47686204D01*
G37*
D15*
X127000000Y-48260000D03*
G04 #@! TD*
D10*
G04 #@! TO.C,R49*
G36*
X127474505Y-43622204D02*
X127498773Y-43625804D01*
X127522572Y-43631765D01*
X127545671Y-43640030D01*
X127567850Y-43650520D01*
X127588893Y-43663132D01*
X127608599Y-43677747D01*
X127626777Y-43694223D01*
X127643253Y-43712401D01*
X127657868Y-43732107D01*
X127670480Y-43753150D01*
X127680970Y-43775329D01*
X127689235Y-43798428D01*
X127695196Y-43822227D01*
X127698796Y-43846495D01*
X127700000Y-43870999D01*
X127700000Y-44521001D01*
X127698796Y-44545505D01*
X127695196Y-44569773D01*
X127689235Y-44593572D01*
X127680970Y-44616671D01*
X127670480Y-44638850D01*
X127657868Y-44659893D01*
X127643253Y-44679599D01*
X127626777Y-44697777D01*
X127608599Y-44714253D01*
X127588893Y-44728868D01*
X127567850Y-44741480D01*
X127545671Y-44751970D01*
X127522572Y-44760235D01*
X127498773Y-44766196D01*
X127474505Y-44769796D01*
X127450001Y-44771000D01*
X126549999Y-44771000D01*
X126525495Y-44769796D01*
X126501227Y-44766196D01*
X126477428Y-44760235D01*
X126454329Y-44751970D01*
X126432150Y-44741480D01*
X126411107Y-44728868D01*
X126391401Y-44714253D01*
X126373223Y-44697777D01*
X126356747Y-44679599D01*
X126342132Y-44659893D01*
X126329520Y-44638850D01*
X126319030Y-44616671D01*
X126310765Y-44593572D01*
X126304804Y-44569773D01*
X126301204Y-44545505D01*
X126300000Y-44521001D01*
X126300000Y-43870999D01*
X126301204Y-43846495D01*
X126304804Y-43822227D01*
X126310765Y-43798428D01*
X126319030Y-43775329D01*
X126329520Y-43753150D01*
X126342132Y-43732107D01*
X126356747Y-43712401D01*
X126373223Y-43694223D01*
X126391401Y-43677747D01*
X126411107Y-43663132D01*
X126432150Y-43650520D01*
X126454329Y-43640030D01*
X126477428Y-43631765D01*
X126501227Y-43625804D01*
X126525495Y-43622204D01*
X126549999Y-43621000D01*
X127450001Y-43621000D01*
X127474505Y-43622204D01*
X127474505Y-43622204D01*
G37*
D15*
X127000000Y-44196000D03*
D10*
G36*
X127474505Y-45672204D02*
X127498773Y-45675804D01*
X127522572Y-45681765D01*
X127545671Y-45690030D01*
X127567850Y-45700520D01*
X127588893Y-45713132D01*
X127608599Y-45727747D01*
X127626777Y-45744223D01*
X127643253Y-45762401D01*
X127657868Y-45782107D01*
X127670480Y-45803150D01*
X127680970Y-45825329D01*
X127689235Y-45848428D01*
X127695196Y-45872227D01*
X127698796Y-45896495D01*
X127700000Y-45920999D01*
X127700000Y-46571001D01*
X127698796Y-46595505D01*
X127695196Y-46619773D01*
X127689235Y-46643572D01*
X127680970Y-46666671D01*
X127670480Y-46688850D01*
X127657868Y-46709893D01*
X127643253Y-46729599D01*
X127626777Y-46747777D01*
X127608599Y-46764253D01*
X127588893Y-46778868D01*
X127567850Y-46791480D01*
X127545671Y-46801970D01*
X127522572Y-46810235D01*
X127498773Y-46816196D01*
X127474505Y-46819796D01*
X127450001Y-46821000D01*
X126549999Y-46821000D01*
X126525495Y-46819796D01*
X126501227Y-46816196D01*
X126477428Y-46810235D01*
X126454329Y-46801970D01*
X126432150Y-46791480D01*
X126411107Y-46778868D01*
X126391401Y-46764253D01*
X126373223Y-46747777D01*
X126356747Y-46729599D01*
X126342132Y-46709893D01*
X126329520Y-46688850D01*
X126319030Y-46666671D01*
X126310765Y-46643572D01*
X126304804Y-46619773D01*
X126301204Y-46595505D01*
X126300000Y-46571001D01*
X126300000Y-45920999D01*
X126301204Y-45896495D01*
X126304804Y-45872227D01*
X126310765Y-45848428D01*
X126319030Y-45825329D01*
X126329520Y-45803150D01*
X126342132Y-45782107D01*
X126356747Y-45762401D01*
X126373223Y-45744223D01*
X126391401Y-45727747D01*
X126411107Y-45713132D01*
X126432150Y-45700520D01*
X126454329Y-45690030D01*
X126477428Y-45681765D01*
X126501227Y-45675804D01*
X126525495Y-45672204D01*
X126549999Y-45671000D01*
X127450001Y-45671000D01*
X127474505Y-45672204D01*
X127474505Y-45672204D01*
G37*
D15*
X127000000Y-46246000D03*
G04 #@! TD*
M02*
