M48
;DRILL file {KiCad (5.0.2)-1} date 24/11/2020 18:05:33
;FORMAT={-:-/ absolute / inch / decimal}
FMAT,2
INCH,TZ
T1C0.0157
T2C0.0315
T3C0.0354
T4C0.0394
T5C0.0488
T6C0.0512
T7C0.0591
T8C0.0630
T9C0.1358
%
G90
G05
T1
X4.06Y-2.51
X4.064Y-4.581
X4.08Y-2.38
X4.09Y-2.91
X4.0996Y-3.61
X4.101Y-5.998
X4.124Y-4.723
X4.14Y-3.54
X4.15Y-4.785
X4.16Y-5.72
X4.17Y-2.83
X4.181Y-4.437
X4.19Y-2.79
X4.223Y-3.575
X4.23Y-4.583
X4.235Y-4.249
X4.236Y-4.193
X4.24Y-3.02
X4.248Y-4.672
X4.26Y-1.86
X4.279Y-5.802
X4.28Y-2.14
X4.28Y-2.88
X4.31Y-2.46
X4.33Y-2.87
X4.339Y-3.607
X4.3534Y-3.464
X4.36Y-3.21
X4.378Y-3.15
X4.379Y-3.423
X4.383Y-3.609
X4.39Y-3.89
X4.3971Y-4.2803
X4.4Y-2.61
X4.4156Y-3.0122
X4.42Y-1.86
X4.42Y-2.87
X4.4244Y-3.2944
X4.44Y-2.82
X4.4488Y-3.44
X4.4565Y-5.9714
X4.47Y-2.67
X4.47Y-5.18
X4.479Y-3.1156
X4.498Y-5.981
X4.5Y-4.15
X4.51Y-3.45
X4.51Y-4.23
X4.52Y-2.26
X4.52Y-2.59
X4.52Y-2.88
X4.536Y-5.754
X4.537Y-5.193
X4.54Y-3.12
X4.541Y-4.25
X4.55Y-3.61
X4.558Y-5.424
X4.56Y-2.74
X4.57Y-3.4
X4.58Y-2.88
X4.58Y-4.55
X4.586Y-5.855
X4.61Y-3.37
X4.61Y-3.83
X4.614Y-6.099
X4.6144Y-3.46
X4.6144Y-3.61
X4.627Y-5.457
X4.628Y-5.532
X4.66Y-4.14
X4.66Y-4.23
X4.67Y-3.21
X4.67Y-4.57
X4.6744Y-4.2624
X4.68Y-3.25
X4.69Y-3.33
X4.69Y-3.47
X4.7Y-2.88
X4.702Y-5.867
X4.71Y-4.99
X4.728Y-3.456
X4.73Y-2.83
X4.74Y-2.727
X4.75Y-2.66
X4.76Y-3.74
X4.766Y-5.576
X4.768Y-5.407
X4.77Y-3.67
X4.772Y-3.022
X4.78Y-3.6156
X4.809Y-2.687
X4.81Y-4.23
X4.813Y-3.028
X4.82Y-5.82
X4.83Y-3.29
X4.83Y-4.96
X4.833Y-5.578
X4.839Y-4.265
X4.84Y-2.08
X4.84Y-4.56
X4.8471Y-3.4793
X4.858Y-3.032
X4.8732Y-2.5498
X4.878Y-5.644
X4.88Y-2.3
X4.881Y-2.714
X4.897Y-3.013
X4.9Y-2.15
X4.91Y-5.8
X4.915Y-5.957
X4.92Y-1.86
X4.921Y-2.319
X4.9356Y-4.192
X4.94Y-1.78
X4.94Y-3.585
X4.9544Y-2.56
X4.9544Y-2.605
X4.959Y-3.63
X4.9672Y-3.5623
X4.97Y-5.73
X4.97Y-2.79
X4.978Y-5.527
X4.978Y-5.66
X4.99Y-2.314
X4.99Y-5.61
X4.991Y-4.217
X5.Y-2.8256
X5.01Y-3.65
X5.02Y-2.22
X5.02Y-3.3856
X5.02Y-3.5
X5.0212Y-3.6836
X5.024Y-2.437
X5.03Y-5.47
X5.031Y-5.917
X5.0402Y-2.52
X5.05Y-4.57
X5.05Y-5.52
X5.06Y-2.153
X5.06Y-2.84
X5.0636Y-4.2745
X5.07Y-4.81
X5.07Y-5.26
X5.08Y-2.34
X5.08Y-2.88
X5.082Y-5.794
X5.098Y-1.973
X5.1Y-3.24
X5.1Y-3.29
X5.1Y-5.5446
X5.105Y-3.484
X5.11Y-3.14
X5.111Y-3.34
X5.114Y-3.18
X5.13Y-3.58
X5.13Y-4.93
X5.135Y-4.223
X5.137Y-3.523
X5.14Y-2.74
X5.15Y-2.89
X5.15Y-2.95
X5.1514Y-5.2796
X5.156Y-5.045
X5.16Y-2.64
X5.161Y-6.046
X5.1744Y-3.374
X5.18Y-2.92
X5.19Y-4.57
X5.19Y-4.7
X5.1968Y-5.9132
X5.2Y-2.54
X5.203Y-2.033
X5.2054Y-5.689
X5.22Y-2.34
X5.23Y-3.2
X5.23Y-5.47
X5.239Y-5.808
X5.24Y-2.889
X5.2534Y-1.7104
X5.2556Y-1.802
X5.261Y-1.894
X5.27Y-4.23
X5.29Y-5.5
X5.3Y-3.1
X5.34Y-5.471
X5.34Y-5.55
T2
X4.13Y-6.083
X4.23Y-6.083
X4.33Y-6.083
T3
X4.18Y-5.57
X4.2784Y-5.57
X4.3769Y-5.57
T4
X4.14Y-3.71
X4.24Y-3.71
X5.32Y-2.42
X5.32Y-2.52
X5.32Y-2.62
X5.06Y-3.73
X5.06Y-4.03
X5.16Y-3.73
X5.16Y-4.03
X5.26Y-3.73
X5.26Y-4.03
X4.53Y-3.7
X4.53Y-3.8
X4.53Y-3.9
X4.53Y-4.
X4.881Y-3.899
X4.881Y-3.999
X4.14Y-4.01
X4.24Y-4.01
X5.33Y-1.57
X5.33Y-1.67
X5.33Y-1.77
X5.33Y-1.87
X5.33Y-1.97
X5.33Y-2.07
X5.32Y-2.82
X5.32Y-2.92
X5.32Y-3.02
X4.14Y-3.86
X4.24Y-3.86
X5.32Y-3.18
X5.32Y-3.28
X5.32Y-3.38
X5.32Y-3.48
X5.32Y-3.58
T5
X4.66Y-1.5531
X4.66Y-1.6516
X4.66Y-1.75
T6
X4.49Y-1.8454
X4.7853Y-1.8454
T7
X4.49Y-1.56
T8
X4.32Y-1.5539
X4.32Y-2.05
X4.9696Y-1.5539
X4.9696Y-2.05
T9
X4.3955Y-1.6978
X4.8798Y-1.6978
T0
M30
