G04 #@! TF.GenerationSoftware,KiCad,Pcbnew,(5.0.2)-1*
G04 #@! TF.CreationDate,2020-11-24T18:05:24+01:00*
G04 #@! TF.ProjectId,PCB_BLUETOOTH_V3,5043425f-424c-4554-9554-4f4f54485f56,rev?*
G04 #@! TF.SameCoordinates,Original*
G04 #@! TF.FileFunction,Soldermask,Top*
G04 #@! TF.FilePolarity,Negative*
%FSLAX46Y46*%
G04 Gerber Fmt 4.6, Leading zero omitted, Abs format (unit mm)*
G04 Created by KiCad (PCBNEW (5.0.2)-1) date 24/11/2020 18:05:24*
%MOMM*%
%LPD*%
G01*
G04 APERTURE LIST*
%ADD10C,0.100000*%
G04 APERTURE END LIST*
D10*
G36*
X131665800Y-155242400D02*
X130563800Y-155242400D01*
X130563800Y-154140400D01*
X131665800Y-154140400D01*
X131665800Y-155242400D01*
X131665800Y-155242400D01*
G37*
G36*
X110186472Y-153834138D02*
X110314049Y-153886982D01*
X110428865Y-153963700D01*
X110526500Y-154061335D01*
X110603218Y-154176151D01*
X110656062Y-154303728D01*
X110683000Y-154439156D01*
X110683000Y-154577244D01*
X110656062Y-154712672D01*
X110603218Y-154840249D01*
X110526500Y-154955065D01*
X110428865Y-155052700D01*
X110314049Y-155129418D01*
X110186472Y-155182262D01*
X110051044Y-155209200D01*
X109912956Y-155209200D01*
X109777528Y-155182262D01*
X109649951Y-155129418D01*
X109535135Y-155052700D01*
X109437500Y-154955065D01*
X109360782Y-154840249D01*
X109307938Y-154712672D01*
X109281000Y-154577244D01*
X109281000Y-154439156D01*
X109307938Y-154303728D01*
X109360782Y-154176151D01*
X109437500Y-154061335D01*
X109535135Y-153963700D01*
X109649951Y-153886982D01*
X109777528Y-153834138D01*
X109912956Y-153807200D01*
X110051044Y-153807200D01*
X110186472Y-153834138D01*
X110186472Y-153834138D01*
G37*
G36*
X107646472Y-153834138D02*
X107774049Y-153886982D01*
X107888865Y-153963700D01*
X107986500Y-154061335D01*
X108063218Y-154176151D01*
X108116062Y-154303728D01*
X108143000Y-154439156D01*
X108143000Y-154577244D01*
X108116062Y-154712672D01*
X108063218Y-154840249D01*
X107986500Y-154955065D01*
X107888865Y-155052700D01*
X107774049Y-155129418D01*
X107646472Y-155182262D01*
X107511044Y-155209200D01*
X107372956Y-155209200D01*
X107237528Y-155182262D01*
X107109951Y-155129418D01*
X106995135Y-155052700D01*
X106897500Y-154955065D01*
X106820782Y-154840249D01*
X106767938Y-154712672D01*
X106741000Y-154577244D01*
X106741000Y-154439156D01*
X106767938Y-154303728D01*
X106820782Y-154176151D01*
X106897500Y-154061335D01*
X106995135Y-153963700D01*
X107109951Y-153886982D01*
X107237528Y-153834138D01*
X107372956Y-153807200D01*
X107511044Y-153807200D01*
X107646472Y-153834138D01*
X107646472Y-153834138D01*
G37*
G36*
X105106472Y-153834138D02*
X105234049Y-153886982D01*
X105348865Y-153963700D01*
X105446500Y-154061335D01*
X105523218Y-154176151D01*
X105576062Y-154303728D01*
X105603000Y-154439156D01*
X105603000Y-154577244D01*
X105576062Y-154712672D01*
X105523218Y-154840249D01*
X105446500Y-154955065D01*
X105348865Y-155052700D01*
X105234049Y-155129418D01*
X105106472Y-155182262D01*
X104971044Y-155209200D01*
X104832956Y-155209200D01*
X104697528Y-155182262D01*
X104569951Y-155129418D01*
X104455135Y-155052700D01*
X104357500Y-154955065D01*
X104280782Y-154840249D01*
X104227938Y-154712672D01*
X104201000Y-154577244D01*
X104201000Y-154439156D01*
X104227938Y-154303728D01*
X104280782Y-154176151D01*
X104357500Y-154061335D01*
X104455135Y-153963700D01*
X104569951Y-153886982D01*
X104697528Y-153834138D01*
X104832956Y-153807200D01*
X104971044Y-153807200D01*
X105106472Y-153834138D01*
X105106472Y-153834138D01*
G37*
G36*
X137075200Y-154785000D02*
X135073200Y-154785000D01*
X135073200Y-152533000D01*
X137075200Y-152533000D01*
X137075200Y-154785000D01*
X137075200Y-154785000D01*
G37*
G36*
X133775200Y-154635000D02*
X132373200Y-154635000D01*
X132373200Y-153333000D01*
X133775200Y-153333000D01*
X133775200Y-154635000D01*
X133775200Y-154635000D01*
G37*
G36*
X115897677Y-152618665D02*
X115935364Y-152630098D01*
X115970103Y-152648666D01*
X116000548Y-152673652D01*
X116025534Y-152704097D01*
X116044102Y-152738836D01*
X116055535Y-152776523D01*
X116060000Y-152821861D01*
X116060000Y-153908539D01*
X116055535Y-153953877D01*
X116044102Y-153991564D01*
X116025534Y-154026303D01*
X116000548Y-154056748D01*
X115970103Y-154081734D01*
X115935364Y-154100302D01*
X115897677Y-154111735D01*
X115852339Y-154116200D01*
X115015661Y-154116200D01*
X114970323Y-154111735D01*
X114932636Y-154100302D01*
X114897897Y-154081734D01*
X114867452Y-154056748D01*
X114842466Y-154026303D01*
X114823898Y-153991564D01*
X114812465Y-153953877D01*
X114808000Y-153908539D01*
X114808000Y-152821861D01*
X114812465Y-152776523D01*
X114823898Y-152738836D01*
X114842466Y-152704097D01*
X114867452Y-152673652D01*
X114897897Y-152648666D01*
X114932636Y-152630098D01*
X114970323Y-152618665D01*
X115015661Y-152614200D01*
X115852339Y-152614200D01*
X115897677Y-152618665D01*
X115897677Y-152618665D01*
G37*
G36*
X117947677Y-152618665D02*
X117985364Y-152630098D01*
X118020103Y-152648666D01*
X118050548Y-152673652D01*
X118075534Y-152704097D01*
X118094102Y-152738836D01*
X118105535Y-152776523D01*
X118110000Y-152821861D01*
X118110000Y-153908539D01*
X118105535Y-153953877D01*
X118094102Y-153991564D01*
X118075534Y-154026303D01*
X118050548Y-154056748D01*
X118020103Y-154081734D01*
X117985364Y-154100302D01*
X117947677Y-154111735D01*
X117902339Y-154116200D01*
X117065661Y-154116200D01*
X117020323Y-154111735D01*
X116982636Y-154100302D01*
X116947897Y-154081734D01*
X116917452Y-154056748D01*
X116892466Y-154026303D01*
X116873898Y-153991564D01*
X116862465Y-153953877D01*
X116858000Y-153908539D01*
X116858000Y-152821861D01*
X116862465Y-152776523D01*
X116873898Y-152738836D01*
X116892466Y-152704097D01*
X116917452Y-152673652D01*
X116947897Y-152648666D01*
X116982636Y-152630098D01*
X117020323Y-152618665D01*
X117065661Y-152614200D01*
X117902339Y-152614200D01*
X117947677Y-152618665D01*
X117947677Y-152618665D01*
G37*
G36*
X134200200Y-153035000D02*
X132748200Y-153035000D01*
X132748200Y-149933000D01*
X134200200Y-149933000D01*
X134200200Y-153035000D01*
X134200200Y-153035000D01*
G37*
G36*
X131665800Y-152742400D02*
X130563800Y-152742400D01*
X130563800Y-151640400D01*
X131665800Y-151640400D01*
X131665800Y-152742400D01*
X131665800Y-152742400D01*
G37*
G36*
X127264200Y-151592800D02*
X125912200Y-151592800D01*
X125912200Y-150890800D01*
X127264200Y-150890800D01*
X127264200Y-151592800D01*
X127264200Y-151592800D01*
G37*
G36*
X129764200Y-151592800D02*
X128412200Y-151592800D01*
X128412200Y-148990800D01*
X129764200Y-148990800D01*
X129764200Y-151592800D01*
X129764200Y-151592800D01*
G37*
G36*
X104855677Y-150288865D02*
X104893364Y-150300298D01*
X104928103Y-150318866D01*
X104958548Y-150343852D01*
X104983534Y-150374297D01*
X105002102Y-150409036D01*
X105013535Y-150446723D01*
X105018000Y-150492061D01*
X105018000Y-151328739D01*
X105013535Y-151374077D01*
X105002102Y-151411764D01*
X104983534Y-151446503D01*
X104958548Y-151476948D01*
X104928103Y-151501934D01*
X104893364Y-151520502D01*
X104855677Y-151531935D01*
X104810339Y-151536400D01*
X103723661Y-151536400D01*
X103678323Y-151531935D01*
X103640636Y-151520502D01*
X103605897Y-151501934D01*
X103575452Y-151476948D01*
X103550466Y-151446503D01*
X103531898Y-151411764D01*
X103520465Y-151374077D01*
X103516000Y-151328739D01*
X103516000Y-150492061D01*
X103520465Y-150446723D01*
X103531898Y-150409036D01*
X103550466Y-150374297D01*
X103575452Y-150343852D01*
X103605897Y-150318866D01*
X103640636Y-150300298D01*
X103678323Y-150288865D01*
X103723661Y-150284400D01*
X104810339Y-150284400D01*
X104855677Y-150288865D01*
X104855677Y-150288865D01*
G37*
G36*
X109489477Y-149799265D02*
X109527164Y-149810698D01*
X109561903Y-149829266D01*
X109592348Y-149854252D01*
X109617334Y-149884697D01*
X109635902Y-149919436D01*
X109647335Y-149957123D01*
X109651800Y-150002461D01*
X109651800Y-151089139D01*
X109647335Y-151134477D01*
X109635902Y-151172164D01*
X109617334Y-151206903D01*
X109592348Y-151237348D01*
X109561903Y-151262334D01*
X109527164Y-151280902D01*
X109489477Y-151292335D01*
X109444139Y-151296800D01*
X108607461Y-151296800D01*
X108562123Y-151292335D01*
X108524436Y-151280902D01*
X108489697Y-151262334D01*
X108459252Y-151237348D01*
X108434266Y-151206903D01*
X108415698Y-151172164D01*
X108404265Y-151134477D01*
X108399800Y-151089139D01*
X108399800Y-150002461D01*
X108404265Y-149957123D01*
X108415698Y-149919436D01*
X108434266Y-149884697D01*
X108459252Y-149854252D01*
X108489697Y-149829266D01*
X108524436Y-149810698D01*
X108562123Y-149799265D01*
X108607461Y-149794800D01*
X109444139Y-149794800D01*
X109489477Y-149799265D01*
X109489477Y-149799265D01*
G37*
G36*
X107439477Y-149799265D02*
X107477164Y-149810698D01*
X107511903Y-149829266D01*
X107542348Y-149854252D01*
X107567334Y-149884697D01*
X107585902Y-149919436D01*
X107597335Y-149957123D01*
X107601800Y-150002461D01*
X107601800Y-151089139D01*
X107597335Y-151134477D01*
X107585902Y-151172164D01*
X107567334Y-151206903D01*
X107542348Y-151237348D01*
X107511903Y-151262334D01*
X107477164Y-151280902D01*
X107439477Y-151292335D01*
X107394139Y-151296800D01*
X106557461Y-151296800D01*
X106512123Y-151292335D01*
X106474436Y-151280902D01*
X106439697Y-151262334D01*
X106409252Y-151237348D01*
X106384266Y-151206903D01*
X106365698Y-151172164D01*
X106354265Y-151134477D01*
X106349800Y-151089139D01*
X106349800Y-150002461D01*
X106354265Y-149957123D01*
X106365698Y-149919436D01*
X106384266Y-149884697D01*
X106409252Y-149854252D01*
X106439697Y-149829266D01*
X106474436Y-149810698D01*
X106512123Y-149799265D01*
X106557461Y-149794800D01*
X107394139Y-149794800D01*
X107439477Y-149799265D01*
X107439477Y-149799265D01*
G37*
G36*
X115866066Y-149592629D02*
X115868468Y-149617015D01*
X115875581Y-149640464D01*
X115887132Y-149662075D01*
X115902678Y-149681017D01*
X115921620Y-149696563D01*
X115943231Y-149708114D01*
X115966680Y-149715227D01*
X115991066Y-149717629D01*
X116015452Y-149715227D01*
X116038901Y-149708114D01*
X116060512Y-149696563D01*
X116079454Y-149681017D01*
X116095000Y-149662075D01*
X116106551Y-149640464D01*
X116108641Y-149634623D01*
X116108794Y-149633070D01*
X116129113Y-149566087D01*
X116162109Y-149504355D01*
X116206515Y-149450246D01*
X116260624Y-149405840D01*
X116322356Y-149372844D01*
X116389339Y-149352525D01*
X116458999Y-149345664D01*
X116459001Y-149345664D01*
X116528661Y-149352525D01*
X116595644Y-149372844D01*
X116657376Y-149405840D01*
X116711485Y-149450246D01*
X116755891Y-149504355D01*
X116788887Y-149566087D01*
X116809206Y-149633070D01*
X116810800Y-149649255D01*
X116814383Y-149667266D01*
X116823760Y-149689905D01*
X116837374Y-149710279D01*
X116854701Y-149727606D01*
X116875076Y-149741220D01*
X116897715Y-149750598D01*
X116921748Y-149755378D01*
X116946252Y-149755378D01*
X116970286Y-149750597D01*
X116992925Y-149741220D01*
X117013299Y-149727606D01*
X117030626Y-149710279D01*
X117044240Y-149689904D01*
X117053618Y-149667265D01*
X117057200Y-149649257D01*
X117058794Y-149633070D01*
X117079113Y-149566087D01*
X117112109Y-149504355D01*
X117156515Y-149450246D01*
X117210624Y-149405840D01*
X117272356Y-149372844D01*
X117339339Y-149352525D01*
X117408999Y-149345664D01*
X117409001Y-149345664D01*
X117478661Y-149352525D01*
X117545644Y-149372844D01*
X117607376Y-149405840D01*
X117661485Y-149450246D01*
X117705891Y-149504355D01*
X117738887Y-149566087D01*
X117759206Y-149633070D01*
X117766067Y-149702730D01*
X117766067Y-150895834D01*
X117759206Y-150965494D01*
X117738887Y-151032477D01*
X117705891Y-151094209D01*
X117661485Y-151148318D01*
X117607376Y-151192724D01*
X117545644Y-151225720D01*
X117478661Y-151246039D01*
X117409001Y-151252900D01*
X117408999Y-151252900D01*
X117339339Y-151246039D01*
X117272356Y-151225720D01*
X117210624Y-151192724D01*
X117156515Y-151148318D01*
X117112109Y-151094209D01*
X117079113Y-151032477D01*
X117058794Y-150965494D01*
X117057200Y-150949309D01*
X117053617Y-150931298D01*
X117044240Y-150908659D01*
X117030626Y-150888285D01*
X117013299Y-150870958D01*
X116992924Y-150857344D01*
X116970285Y-150847966D01*
X116946252Y-150843186D01*
X116921748Y-150843186D01*
X116897714Y-150847967D01*
X116875075Y-150857344D01*
X116854701Y-150870958D01*
X116837374Y-150888285D01*
X116823760Y-150908660D01*
X116814382Y-150931299D01*
X116810800Y-150949307D01*
X116809206Y-150965494D01*
X116788887Y-151032477D01*
X116755891Y-151094209D01*
X116711485Y-151148318D01*
X116657376Y-151192724D01*
X116595644Y-151225720D01*
X116528661Y-151246039D01*
X116459001Y-151252900D01*
X116458999Y-151252900D01*
X116389339Y-151246039D01*
X116322356Y-151225720D01*
X116260624Y-151192724D01*
X116206515Y-151148318D01*
X116162109Y-151094209D01*
X116129113Y-151032477D01*
X116108794Y-150965494D01*
X116108741Y-150964961D01*
X116101306Y-150947011D01*
X116087693Y-150926636D01*
X116070366Y-150909309D01*
X116049991Y-150895695D01*
X116027352Y-150886318D01*
X116003319Y-150881537D01*
X115978814Y-150881537D01*
X115954781Y-150886317D01*
X115932142Y-150895695D01*
X115911767Y-150909308D01*
X115894440Y-150926635D01*
X115880826Y-150947010D01*
X115871449Y-150969649D01*
X115866668Y-150993682D01*
X115866066Y-151005935D01*
X115866066Y-151252900D01*
X115151934Y-151252900D01*
X115151934Y-149345664D01*
X115866066Y-149345664D01*
X115866066Y-149592629D01*
X115866066Y-149592629D01*
G37*
G36*
X113821877Y-149730065D02*
X113859564Y-149741498D01*
X113894303Y-149760066D01*
X113924748Y-149785052D01*
X113949734Y-149815497D01*
X113968302Y-149850236D01*
X113979735Y-149887923D01*
X113984200Y-149933261D01*
X113984200Y-150769939D01*
X113979735Y-150815277D01*
X113968302Y-150852964D01*
X113949734Y-150887703D01*
X113924748Y-150918148D01*
X113894303Y-150943134D01*
X113859564Y-150961702D01*
X113821877Y-150973135D01*
X113776539Y-150977600D01*
X112689861Y-150977600D01*
X112644523Y-150973135D01*
X112606836Y-150961702D01*
X112572097Y-150943134D01*
X112541652Y-150918148D01*
X112516666Y-150887703D01*
X112498098Y-150852964D01*
X112486665Y-150815277D01*
X112482200Y-150769939D01*
X112482200Y-149933261D01*
X112486665Y-149887923D01*
X112498098Y-149850236D01*
X112516666Y-149815497D01*
X112541652Y-149785052D01*
X112572097Y-149760066D01*
X112606836Y-149741498D01*
X112644523Y-149730065D01*
X112689861Y-149725600D01*
X113776539Y-149725600D01*
X113821877Y-149730065D01*
X113821877Y-149730065D01*
G37*
G36*
X137075200Y-150435000D02*
X135073200Y-150435000D01*
X135073200Y-148183000D01*
X137075200Y-148183000D01*
X137075200Y-150435000D01*
X137075200Y-150435000D01*
G37*
G36*
X127264200Y-149692800D02*
X125912200Y-149692800D01*
X125912200Y-148990800D01*
X127264200Y-148990800D01*
X127264200Y-149692800D01*
X127264200Y-149692800D01*
G37*
G36*
X133775200Y-149635000D02*
X132373200Y-149635000D01*
X132373200Y-148333000D01*
X133775200Y-148333000D01*
X133775200Y-149635000D01*
X133775200Y-149635000D01*
G37*
G36*
X104855677Y-148238865D02*
X104893364Y-148250298D01*
X104928103Y-148268866D01*
X104958548Y-148293852D01*
X104983534Y-148324297D01*
X105002102Y-148359036D01*
X105013535Y-148396723D01*
X105018000Y-148442061D01*
X105018000Y-149278739D01*
X105013535Y-149324077D01*
X105002102Y-149361764D01*
X104983534Y-149396503D01*
X104958548Y-149426948D01*
X104928103Y-149451934D01*
X104893364Y-149470502D01*
X104855677Y-149481935D01*
X104810339Y-149486400D01*
X103723661Y-149486400D01*
X103678323Y-149481935D01*
X103640636Y-149470502D01*
X103605897Y-149451934D01*
X103575452Y-149426948D01*
X103550466Y-149396503D01*
X103531898Y-149361764D01*
X103520465Y-149324077D01*
X103516000Y-149278739D01*
X103516000Y-148442061D01*
X103520465Y-148396723D01*
X103531898Y-148359036D01*
X103550466Y-148324297D01*
X103575452Y-148293852D01*
X103605897Y-148268866D01*
X103640636Y-148250298D01*
X103678323Y-148238865D01*
X103723661Y-148234400D01*
X104810339Y-148234400D01*
X104855677Y-148238865D01*
X104855677Y-148238865D01*
G37*
G36*
X121620000Y-149063000D02*
X120268000Y-149063000D01*
X120268000Y-146461000D01*
X121620000Y-146461000D01*
X121620000Y-149063000D01*
X121620000Y-149063000D01*
G37*
G36*
X124120000Y-149063000D02*
X122768000Y-149063000D01*
X122768000Y-148361000D01*
X124120000Y-148361000D01*
X124120000Y-149063000D01*
X124120000Y-149063000D01*
G37*
G36*
X115578661Y-147051561D02*
X115645644Y-147071880D01*
X115707376Y-147104876D01*
X115761485Y-147149282D01*
X115805891Y-147203391D01*
X115838887Y-147265123D01*
X115859206Y-147332106D01*
X115866067Y-147401766D01*
X115866067Y-148594870D01*
X115859206Y-148664530D01*
X115838887Y-148731513D01*
X115805891Y-148793245D01*
X115761485Y-148847354D01*
X115707376Y-148891760D01*
X115645644Y-148924756D01*
X115578661Y-148945075D01*
X115509001Y-148951936D01*
X115508999Y-148951936D01*
X115439339Y-148945075D01*
X115372356Y-148924756D01*
X115310624Y-148891760D01*
X115256515Y-148847354D01*
X115212109Y-148793245D01*
X115179113Y-148731513D01*
X115158794Y-148664530D01*
X115151933Y-148594870D01*
X115151933Y-147401766D01*
X115158794Y-147332106D01*
X115179113Y-147265123D01*
X115212109Y-147203391D01*
X115256515Y-147149282D01*
X115310624Y-147104876D01*
X115372356Y-147071880D01*
X115439339Y-147051561D01*
X115508999Y-147044700D01*
X115509001Y-147044700D01*
X115578661Y-147051561D01*
X115578661Y-147051561D01*
G37*
G36*
X117478661Y-147051561D02*
X117545644Y-147071880D01*
X117607376Y-147104876D01*
X117661485Y-147149282D01*
X117705891Y-147203391D01*
X117738887Y-147265123D01*
X117759206Y-147332106D01*
X117766067Y-147401766D01*
X117766067Y-148594870D01*
X117759206Y-148664530D01*
X117738887Y-148731513D01*
X117705891Y-148793245D01*
X117661485Y-148847354D01*
X117607376Y-148891760D01*
X117545644Y-148924756D01*
X117478661Y-148945075D01*
X117409001Y-148951936D01*
X117408999Y-148951936D01*
X117339339Y-148945075D01*
X117272356Y-148924756D01*
X117210624Y-148891760D01*
X117156515Y-148847354D01*
X117112109Y-148793245D01*
X117079113Y-148731513D01*
X117058794Y-148664530D01*
X117051933Y-148594870D01*
X117051933Y-147401766D01*
X117058794Y-147332106D01*
X117079113Y-147265123D01*
X117112109Y-147203391D01*
X117156515Y-147149282D01*
X117210624Y-147104876D01*
X117272356Y-147071880D01*
X117339339Y-147051561D01*
X117408999Y-147044700D01*
X117409001Y-147044700D01*
X117478661Y-147051561D01*
X117478661Y-147051561D01*
G37*
G36*
X113821877Y-147680065D02*
X113859564Y-147691498D01*
X113894303Y-147710066D01*
X113924748Y-147735052D01*
X113949734Y-147765497D01*
X113968302Y-147800236D01*
X113979735Y-147837923D01*
X113984200Y-147883261D01*
X113984200Y-148719939D01*
X113979735Y-148765277D01*
X113968302Y-148802964D01*
X113949734Y-148837703D01*
X113924748Y-148868148D01*
X113894303Y-148893134D01*
X113859564Y-148911702D01*
X113821877Y-148923135D01*
X113776539Y-148927600D01*
X112689861Y-148927600D01*
X112644523Y-148923135D01*
X112606836Y-148911702D01*
X112572097Y-148893134D01*
X112541652Y-148868148D01*
X112516666Y-148837703D01*
X112498098Y-148802964D01*
X112486665Y-148765277D01*
X112482200Y-148719939D01*
X112482200Y-147883261D01*
X112486665Y-147837923D01*
X112498098Y-147800236D01*
X112516666Y-147765497D01*
X112541652Y-147735052D01*
X112572097Y-147710066D01*
X112606836Y-147691498D01*
X112644523Y-147680065D01*
X112689861Y-147675600D01*
X113776539Y-147675600D01*
X113821877Y-147680065D01*
X113821877Y-147680065D01*
G37*
G36*
X110777721Y-146663174D02*
X110877995Y-146704709D01*
X110968245Y-146765012D01*
X111044988Y-146841755D01*
X111105291Y-146932005D01*
X111146826Y-147032279D01*
X111168000Y-147138730D01*
X111168000Y-147247270D01*
X111146826Y-147353721D01*
X111105291Y-147453995D01*
X111044988Y-147544245D01*
X110968245Y-147620988D01*
X110877995Y-147681291D01*
X110777721Y-147722826D01*
X110671270Y-147744000D01*
X110562730Y-147744000D01*
X110456279Y-147722826D01*
X110356005Y-147681291D01*
X110265755Y-147620988D01*
X110189012Y-147544245D01*
X110128709Y-147453995D01*
X110087174Y-147353721D01*
X110066000Y-147247270D01*
X110066000Y-147138730D01*
X110087174Y-147032279D01*
X110128709Y-146932005D01*
X110189012Y-146841755D01*
X110265755Y-146765012D01*
X110356005Y-146704709D01*
X110456279Y-146663174D01*
X110562730Y-146642000D01*
X110671270Y-146642000D01*
X110777721Y-146663174D01*
X110777721Y-146663174D01*
G37*
G36*
X124120000Y-147163000D02*
X122768000Y-147163000D01*
X122768000Y-146461000D01*
X124120000Y-146461000D01*
X124120000Y-147163000D01*
X124120000Y-147163000D01*
G37*
G36*
X104300721Y-146028174D02*
X104400995Y-146069709D01*
X104491245Y-146130012D01*
X104567988Y-146206755D01*
X104628291Y-146297005D01*
X104669826Y-146397279D01*
X104691000Y-146503730D01*
X104691000Y-146612270D01*
X104669826Y-146718721D01*
X104628291Y-146818995D01*
X104567988Y-146909245D01*
X104491245Y-146985988D01*
X104400995Y-147046291D01*
X104300721Y-147087826D01*
X104194270Y-147109000D01*
X104085730Y-147109000D01*
X103979279Y-147087826D01*
X103879005Y-147046291D01*
X103788755Y-146985988D01*
X103712012Y-146909245D01*
X103651709Y-146818995D01*
X103610174Y-146718721D01*
X103589000Y-146612270D01*
X103589000Y-146503730D01*
X103610174Y-146397279D01*
X103651709Y-146297005D01*
X103712012Y-146206755D01*
X103788755Y-146130012D01*
X103879005Y-146069709D01*
X103979279Y-146028174D01*
X104085730Y-146007000D01*
X104194270Y-146007000D01*
X104300721Y-146028174D01*
X104300721Y-146028174D01*
G37*
G36*
X108186921Y-145520174D02*
X108287195Y-145561709D01*
X108377445Y-145622012D01*
X108454188Y-145698755D01*
X108514491Y-145789005D01*
X108556026Y-145889279D01*
X108577200Y-145995730D01*
X108577200Y-146104270D01*
X108556026Y-146210721D01*
X108514491Y-146310995D01*
X108454188Y-146401245D01*
X108377445Y-146477988D01*
X108287195Y-146538291D01*
X108186921Y-146579826D01*
X108080470Y-146601000D01*
X107971930Y-146601000D01*
X107865479Y-146579826D01*
X107765205Y-146538291D01*
X107674955Y-146477988D01*
X107598212Y-146401245D01*
X107537909Y-146310995D01*
X107496374Y-146210721D01*
X107475200Y-146104270D01*
X107475200Y-145995730D01*
X107496374Y-145889279D01*
X107537909Y-145789005D01*
X107598212Y-145698755D01*
X107674955Y-145622012D01*
X107765205Y-145561709D01*
X107865479Y-145520174D01*
X107971930Y-145499000D01*
X108080470Y-145499000D01*
X108186921Y-145520174D01*
X108186921Y-145520174D01*
G37*
G36*
X132053677Y-145049465D02*
X132091364Y-145060898D01*
X132126103Y-145079466D01*
X132156548Y-145104452D01*
X132181534Y-145134897D01*
X132200102Y-145169636D01*
X132211535Y-145207323D01*
X132216000Y-145252661D01*
X132216000Y-146339339D01*
X132211535Y-146384677D01*
X132200102Y-146422364D01*
X132181534Y-146457103D01*
X132156548Y-146487548D01*
X132126103Y-146512534D01*
X132091364Y-146531102D01*
X132053677Y-146542535D01*
X132008339Y-146547000D01*
X131171661Y-146547000D01*
X131126323Y-146542535D01*
X131088636Y-146531102D01*
X131053897Y-146512534D01*
X131023452Y-146487548D01*
X130998466Y-146457103D01*
X130979898Y-146422364D01*
X130968465Y-146384677D01*
X130964000Y-146339339D01*
X130964000Y-145252661D01*
X130968465Y-145207323D01*
X130979898Y-145169636D01*
X130998466Y-145134897D01*
X131023452Y-145104452D01*
X131053897Y-145079466D01*
X131088636Y-145060898D01*
X131126323Y-145049465D01*
X131171661Y-145045000D01*
X132008339Y-145045000D01*
X132053677Y-145049465D01*
X132053677Y-145049465D01*
G37*
G36*
X130003677Y-145049465D02*
X130041364Y-145060898D01*
X130076103Y-145079466D01*
X130106548Y-145104452D01*
X130131534Y-145134897D01*
X130150102Y-145169636D01*
X130161535Y-145207323D01*
X130166000Y-145252661D01*
X130166000Y-146339339D01*
X130161535Y-146384677D01*
X130150102Y-146422364D01*
X130131534Y-146457103D01*
X130106548Y-146487548D01*
X130076103Y-146512534D01*
X130041364Y-146531102D01*
X130003677Y-146542535D01*
X129958339Y-146547000D01*
X129121661Y-146547000D01*
X129076323Y-146542535D01*
X129038636Y-146531102D01*
X129003897Y-146512534D01*
X128973452Y-146487548D01*
X128948466Y-146457103D01*
X128929898Y-146422364D01*
X128918465Y-146384677D01*
X128914000Y-146339339D01*
X128914000Y-145252661D01*
X128918465Y-145207323D01*
X128929898Y-145169636D01*
X128948466Y-145134897D01*
X128973452Y-145104452D01*
X129003897Y-145079466D01*
X129038636Y-145060898D01*
X129076323Y-145049465D01*
X129121661Y-145045000D01*
X129958339Y-145045000D01*
X130003677Y-145049465D01*
X130003677Y-145049465D01*
G37*
G36*
X127872499Y-144942445D02*
X127909993Y-144953819D01*
X127944557Y-144972294D01*
X127974847Y-144997153D01*
X127999706Y-145027443D01*
X128018181Y-145062007D01*
X128029555Y-145099501D01*
X128034000Y-145144638D01*
X128034000Y-145883362D01*
X128029555Y-145928499D01*
X128018181Y-145965993D01*
X127999706Y-146000557D01*
X127974847Y-146030847D01*
X127944557Y-146055706D01*
X127909993Y-146074181D01*
X127872499Y-146085555D01*
X127827362Y-146090000D01*
X127188638Y-146090000D01*
X127143501Y-146085555D01*
X127106007Y-146074181D01*
X127071443Y-146055706D01*
X127041153Y-146030847D01*
X127016294Y-146000557D01*
X126997819Y-145965993D01*
X126986445Y-145928499D01*
X126982000Y-145883362D01*
X126982000Y-145144638D01*
X126986445Y-145099501D01*
X126997819Y-145062007D01*
X127016294Y-145027443D01*
X127041153Y-144997153D01*
X127071443Y-144972294D01*
X127106007Y-144953819D01*
X127143501Y-144942445D01*
X127188638Y-144938000D01*
X127827362Y-144938000D01*
X127872499Y-144942445D01*
X127872499Y-144942445D01*
G37*
G36*
X134171699Y-144118245D02*
X134209193Y-144129619D01*
X134243757Y-144148094D01*
X134274047Y-144172953D01*
X134298906Y-144203243D01*
X134317381Y-144237807D01*
X134328755Y-144275301D01*
X134333200Y-144320438D01*
X134333200Y-145059162D01*
X134328755Y-145104299D01*
X134317381Y-145141793D01*
X134298906Y-145176357D01*
X134274047Y-145206647D01*
X134243757Y-145231506D01*
X134209193Y-145249981D01*
X134171699Y-145261355D01*
X134126562Y-145265800D01*
X133487838Y-145265800D01*
X133442701Y-145261355D01*
X133405207Y-145249981D01*
X133370643Y-145231506D01*
X133340353Y-145206647D01*
X133315494Y-145176357D01*
X133297019Y-145141793D01*
X133285645Y-145104299D01*
X133281200Y-145059162D01*
X133281200Y-144320438D01*
X133285645Y-144275301D01*
X133297019Y-144237807D01*
X133315494Y-144203243D01*
X133340353Y-144172953D01*
X133370643Y-144148094D01*
X133405207Y-144129619D01*
X133442701Y-144118245D01*
X133487838Y-144113800D01*
X134126562Y-144113800D01*
X134171699Y-144118245D01*
X134171699Y-144118245D01*
G37*
G36*
X127872499Y-143192445D02*
X127909993Y-143203819D01*
X127944557Y-143222294D01*
X127974847Y-143247153D01*
X127999706Y-143277443D01*
X128018181Y-143312007D01*
X128029555Y-143349501D01*
X128034000Y-143394638D01*
X128034000Y-144133362D01*
X128029555Y-144178499D01*
X128018181Y-144215993D01*
X127999706Y-144250557D01*
X127974847Y-144280847D01*
X127944557Y-144305706D01*
X127909993Y-144324181D01*
X127872499Y-144335555D01*
X127827362Y-144340000D01*
X127188638Y-144340000D01*
X127143501Y-144335555D01*
X127106007Y-144324181D01*
X127071443Y-144305706D01*
X127041153Y-144280847D01*
X127016294Y-144250557D01*
X126997819Y-144215993D01*
X126986445Y-144178499D01*
X126982000Y-144133362D01*
X126982000Y-143394638D01*
X126986445Y-143349501D01*
X126997819Y-143312007D01*
X127016294Y-143277443D01*
X127041153Y-143247153D01*
X127071443Y-143222294D01*
X127106007Y-143203819D01*
X127143501Y-143192445D01*
X127188638Y-143188000D01*
X127827362Y-143188000D01*
X127872499Y-143192445D01*
X127872499Y-143192445D01*
G37*
G36*
X129491515Y-141419835D02*
X129503066Y-141441446D01*
X129518612Y-141460388D01*
X129537554Y-141475934D01*
X129559165Y-141487485D01*
X129582614Y-141494598D01*
X129607000Y-141497000D01*
X131505000Y-141497000D01*
X131529386Y-141494598D01*
X131552835Y-141487485D01*
X131574446Y-141475934D01*
X131593388Y-141460388D01*
X131608934Y-141441446D01*
X131620485Y-141419835D01*
X131627412Y-141397000D01*
X132482000Y-141397000D01*
X132482000Y-144099000D01*
X131627412Y-144099000D01*
X131620485Y-144076165D01*
X131608934Y-144054554D01*
X131593388Y-144035612D01*
X131574446Y-144020066D01*
X131552835Y-144008515D01*
X131529386Y-144001402D01*
X131505000Y-143999000D01*
X129607000Y-143999000D01*
X129582614Y-144001402D01*
X129559165Y-144008515D01*
X129537554Y-144020066D01*
X129518612Y-144035612D01*
X129503066Y-144054554D01*
X129491515Y-144076165D01*
X129484588Y-144099000D01*
X128630000Y-144099000D01*
X128630000Y-141397000D01*
X129484588Y-141397000D01*
X129491515Y-141419835D01*
X129491515Y-141419835D01*
G37*
G36*
X134171699Y-142368245D02*
X134209193Y-142379619D01*
X134243757Y-142398094D01*
X134274047Y-142422953D01*
X134298906Y-142453243D01*
X134317381Y-142487807D01*
X134328755Y-142525301D01*
X134333200Y-142570438D01*
X134333200Y-143309162D01*
X134328755Y-143354299D01*
X134317381Y-143391793D01*
X134298906Y-143426357D01*
X134274047Y-143456647D01*
X134243757Y-143481506D01*
X134209193Y-143499981D01*
X134171699Y-143511355D01*
X134126562Y-143515800D01*
X133487838Y-143515800D01*
X133442701Y-143511355D01*
X133405207Y-143499981D01*
X133370643Y-143481506D01*
X133340353Y-143456647D01*
X133315494Y-143426357D01*
X133297019Y-143391793D01*
X133285645Y-143354299D01*
X133281200Y-143309162D01*
X133281200Y-142570438D01*
X133285645Y-142525301D01*
X133297019Y-142487807D01*
X133315494Y-142453243D01*
X133340353Y-142422953D01*
X133370643Y-142398094D01*
X133405207Y-142379619D01*
X133442701Y-142368245D01*
X133487838Y-142363800D01*
X134126562Y-142363800D01*
X134171699Y-142368245D01*
X134171699Y-142368245D01*
G37*
G36*
X106898000Y-142204000D02*
X105446000Y-142204000D01*
X105446000Y-140752000D01*
X106898000Y-140752000D01*
X106898000Y-142204000D01*
X106898000Y-142204000D01*
G37*
G36*
X111383767Y-140779899D02*
X111515891Y-140834627D01*
X111634799Y-140914079D01*
X111735921Y-141015201D01*
X111815373Y-141134109D01*
X111870101Y-141266233D01*
X111898000Y-141406494D01*
X111898000Y-141549506D01*
X111870101Y-141689767D01*
X111815373Y-141821891D01*
X111735921Y-141940799D01*
X111634799Y-142041921D01*
X111515891Y-142121373D01*
X111383767Y-142176101D01*
X111243506Y-142204000D01*
X111100494Y-142204000D01*
X110960233Y-142176101D01*
X110828109Y-142121373D01*
X110709201Y-142041921D01*
X110608079Y-141940799D01*
X110528627Y-141821891D01*
X110473899Y-141689767D01*
X110446000Y-141549506D01*
X110446000Y-141406494D01*
X110473899Y-141266233D01*
X110528627Y-141134109D01*
X110608079Y-141015201D01*
X110709201Y-140914079D01*
X110828109Y-140834627D01*
X110960233Y-140779899D01*
X111100494Y-140752000D01*
X111243506Y-140752000D01*
X111383767Y-140779899D01*
X111383767Y-140779899D01*
G37*
G36*
X108883767Y-140779899D02*
X109015891Y-140834627D01*
X109134799Y-140914079D01*
X109235921Y-141015201D01*
X109315373Y-141134109D01*
X109370101Y-141266233D01*
X109398000Y-141406494D01*
X109398000Y-141549506D01*
X109370101Y-141689767D01*
X109315373Y-141821891D01*
X109235921Y-141940799D01*
X109134799Y-142041921D01*
X109015891Y-142121373D01*
X108883767Y-142176101D01*
X108743506Y-142204000D01*
X108600494Y-142204000D01*
X108460233Y-142176101D01*
X108328109Y-142121373D01*
X108209201Y-142041921D01*
X108108079Y-141940799D01*
X108028627Y-141821891D01*
X107973899Y-141689767D01*
X107946000Y-141549506D01*
X107946000Y-141406494D01*
X107973899Y-141266233D01*
X108028627Y-141134109D01*
X108108079Y-141015201D01*
X108209201Y-140914079D01*
X108328109Y-140834627D01*
X108460233Y-140779899D01*
X108600494Y-140752000D01*
X108743506Y-140752000D01*
X108883767Y-140779899D01*
X108883767Y-140779899D01*
G37*
G36*
X121957400Y-140997400D02*
X120155400Y-140997400D01*
X120155400Y-139845400D01*
X121957400Y-139845400D01*
X121957400Y-140997400D01*
X121957400Y-140997400D01*
G37*
G36*
X119084099Y-139825645D02*
X119121593Y-139837019D01*
X119156157Y-139855494D01*
X119186447Y-139880353D01*
X119211306Y-139910643D01*
X119229781Y-139945207D01*
X119241155Y-139982701D01*
X119245600Y-140027838D01*
X119245600Y-140766562D01*
X119241155Y-140811699D01*
X119229781Y-140849193D01*
X119211306Y-140883757D01*
X119186447Y-140914047D01*
X119156157Y-140938906D01*
X119121593Y-140957381D01*
X119084099Y-140968755D01*
X119038962Y-140973200D01*
X118400238Y-140973200D01*
X118355101Y-140968755D01*
X118317607Y-140957381D01*
X118283043Y-140938906D01*
X118252753Y-140914047D01*
X118227894Y-140883757D01*
X118209419Y-140849193D01*
X118198045Y-140811699D01*
X118193600Y-140766562D01*
X118193600Y-140027838D01*
X118198045Y-139982701D01*
X118209419Y-139945207D01*
X118227894Y-139910643D01*
X118252753Y-139880353D01*
X118283043Y-139855494D01*
X118317607Y-139837019D01*
X118355101Y-139825645D01*
X118400238Y-139821200D01*
X119038962Y-139821200D01*
X119084099Y-139825645D01*
X119084099Y-139825645D01*
G37*
G36*
X123808499Y-139724045D02*
X123845993Y-139735419D01*
X123880557Y-139753894D01*
X123910847Y-139778753D01*
X123935706Y-139809043D01*
X123954181Y-139843607D01*
X123965555Y-139881101D01*
X123970000Y-139926238D01*
X123970000Y-140664962D01*
X123965555Y-140710099D01*
X123954181Y-140747593D01*
X123935706Y-140782157D01*
X123910847Y-140812447D01*
X123880557Y-140837306D01*
X123845993Y-140855781D01*
X123808499Y-140867155D01*
X123763362Y-140871600D01*
X123124638Y-140871600D01*
X123079501Y-140867155D01*
X123042007Y-140855781D01*
X123007443Y-140837306D01*
X122977153Y-140812447D01*
X122952294Y-140782157D01*
X122933819Y-140747593D01*
X122922445Y-140710099D01*
X122918000Y-140664962D01*
X122918000Y-139926238D01*
X122922445Y-139881101D01*
X122933819Y-139843607D01*
X122952294Y-139809043D01*
X122977153Y-139778753D01*
X123007443Y-139753894D01*
X123042007Y-139735419D01*
X123079501Y-139724045D01*
X123124638Y-139719600D01*
X123763362Y-139719600D01*
X123808499Y-139724045D01*
X123808499Y-139724045D01*
G37*
G36*
X116365721Y-139398774D02*
X116465995Y-139440309D01*
X116556245Y-139500612D01*
X116632988Y-139577355D01*
X116693291Y-139667605D01*
X116734826Y-139767879D01*
X116756000Y-139874330D01*
X116756000Y-139982870D01*
X116734826Y-140089321D01*
X116693291Y-140189595D01*
X116632988Y-140279845D01*
X116556245Y-140356588D01*
X116465995Y-140416891D01*
X116365721Y-140458426D01*
X116259270Y-140479600D01*
X116150730Y-140479600D01*
X116044279Y-140458426D01*
X115944005Y-140416891D01*
X115853755Y-140356588D01*
X115777012Y-140279845D01*
X115716709Y-140189595D01*
X115675174Y-140089321D01*
X115654000Y-139982870D01*
X115654000Y-139874330D01*
X115675174Y-139767879D01*
X115716709Y-139667605D01*
X115777012Y-139577355D01*
X115853755Y-139500612D01*
X115944005Y-139440309D01*
X116044279Y-139398774D01*
X116150730Y-139377600D01*
X116259270Y-139377600D01*
X116365721Y-139398774D01*
X116365721Y-139398774D01*
G37*
G36*
X119084099Y-138075645D02*
X119121593Y-138087019D01*
X119156157Y-138105494D01*
X119186447Y-138130353D01*
X119211306Y-138160643D01*
X119229781Y-138195207D01*
X119241155Y-138232701D01*
X119245600Y-138277838D01*
X119245600Y-139016562D01*
X119241155Y-139061699D01*
X119229781Y-139099193D01*
X119211306Y-139133757D01*
X119186447Y-139164047D01*
X119156157Y-139188906D01*
X119121593Y-139207381D01*
X119084099Y-139218755D01*
X119038962Y-139223200D01*
X118400238Y-139223200D01*
X118355101Y-139218755D01*
X118317607Y-139207381D01*
X118283043Y-139188906D01*
X118252753Y-139164047D01*
X118227894Y-139133757D01*
X118209419Y-139099193D01*
X118198045Y-139061699D01*
X118193600Y-139016562D01*
X118193600Y-138277838D01*
X118198045Y-138232701D01*
X118209419Y-138195207D01*
X118227894Y-138160643D01*
X118252753Y-138130353D01*
X118283043Y-138105494D01*
X118317607Y-138087019D01*
X118355101Y-138075645D01*
X118400238Y-138071200D01*
X119038962Y-138071200D01*
X119084099Y-138075645D01*
X119084099Y-138075645D01*
G37*
G36*
X123808499Y-137974045D02*
X123845993Y-137985419D01*
X123880557Y-138003894D01*
X123910847Y-138028753D01*
X123935706Y-138059043D01*
X123954181Y-138093607D01*
X123965555Y-138131101D01*
X123970000Y-138176238D01*
X123970000Y-138914962D01*
X123965555Y-138960099D01*
X123954181Y-138997593D01*
X123935706Y-139032157D01*
X123910847Y-139062447D01*
X123880557Y-139087306D01*
X123845993Y-139105781D01*
X123808499Y-139117155D01*
X123763362Y-139121600D01*
X123124638Y-139121600D01*
X123079501Y-139117155D01*
X123042007Y-139105781D01*
X123007443Y-139087306D01*
X122977153Y-139062447D01*
X122952294Y-139032157D01*
X122933819Y-138997593D01*
X122922445Y-138960099D01*
X122918000Y-138914962D01*
X122918000Y-138176238D01*
X122922445Y-138131101D01*
X122933819Y-138093607D01*
X122952294Y-138059043D01*
X122977153Y-138028753D01*
X123007443Y-138003894D01*
X123042007Y-137985419D01*
X123079501Y-137974045D01*
X123124638Y-137969600D01*
X123763362Y-137969600D01*
X123808499Y-137974045D01*
X123808499Y-137974045D01*
G37*
G36*
X121957400Y-139097400D02*
X120155400Y-139097400D01*
X120155400Y-137945400D01*
X121957400Y-137945400D01*
X121957400Y-139097400D01*
X121957400Y-139097400D01*
G37*
G36*
X136224677Y-136810465D02*
X136262364Y-136821898D01*
X136297103Y-136840466D01*
X136327548Y-136865452D01*
X136352534Y-136895897D01*
X136371102Y-136930636D01*
X136382535Y-136968323D01*
X136387000Y-137013661D01*
X136387000Y-137850339D01*
X136382535Y-137895677D01*
X136371102Y-137933364D01*
X136352534Y-137968103D01*
X136327548Y-137998548D01*
X136297103Y-138023534D01*
X136262364Y-138042102D01*
X136224677Y-138053535D01*
X136179339Y-138058000D01*
X135092661Y-138058000D01*
X135047323Y-138053535D01*
X135009636Y-138042102D01*
X134974897Y-138023534D01*
X134944452Y-137998548D01*
X134919466Y-137968103D01*
X134900898Y-137933364D01*
X134889465Y-137895677D01*
X134885000Y-137850339D01*
X134885000Y-137013661D01*
X134889465Y-136968323D01*
X134900898Y-136930636D01*
X134919466Y-136895897D01*
X134944452Y-136865452D01*
X134974897Y-136840466D01*
X135009636Y-136821898D01*
X135047323Y-136810465D01*
X135092661Y-136806000D01*
X136179339Y-136806000D01*
X136224677Y-136810465D01*
X136224677Y-136810465D01*
G37*
G36*
X131906677Y-136810465D02*
X131944364Y-136821898D01*
X131979103Y-136840466D01*
X132009548Y-136865452D01*
X132034534Y-136895897D01*
X132053102Y-136930636D01*
X132064535Y-136968323D01*
X132069000Y-137013661D01*
X132069000Y-137850339D01*
X132064535Y-137895677D01*
X132053102Y-137933364D01*
X132034534Y-137968103D01*
X132009548Y-137998548D01*
X131979103Y-138023534D01*
X131944364Y-138042102D01*
X131906677Y-138053535D01*
X131861339Y-138058000D01*
X130774661Y-138058000D01*
X130729323Y-138053535D01*
X130691636Y-138042102D01*
X130656897Y-138023534D01*
X130626452Y-137998548D01*
X130601466Y-137968103D01*
X130582898Y-137933364D01*
X130571465Y-137895677D01*
X130567000Y-137850339D01*
X130567000Y-137013661D01*
X130571465Y-136968323D01*
X130582898Y-136930636D01*
X130601466Y-136895897D01*
X130626452Y-136865452D01*
X130656897Y-136840466D01*
X130691636Y-136821898D01*
X130729323Y-136810465D01*
X130774661Y-136806000D01*
X131861339Y-136806000D01*
X131906677Y-136810465D01*
X131906677Y-136810465D01*
G37*
G36*
X129620677Y-136810465D02*
X129658364Y-136821898D01*
X129693103Y-136840466D01*
X129723548Y-136865452D01*
X129748534Y-136895897D01*
X129767102Y-136930636D01*
X129778535Y-136968323D01*
X129783000Y-137013661D01*
X129783000Y-137850339D01*
X129778535Y-137895677D01*
X129767102Y-137933364D01*
X129748534Y-137968103D01*
X129723548Y-137998548D01*
X129693103Y-138023534D01*
X129658364Y-138042102D01*
X129620677Y-138053535D01*
X129575339Y-138058000D01*
X128488661Y-138058000D01*
X128443323Y-138053535D01*
X128405636Y-138042102D01*
X128370897Y-138023534D01*
X128340452Y-137998548D01*
X128315466Y-137968103D01*
X128296898Y-137933364D01*
X128285465Y-137895677D01*
X128281000Y-137850339D01*
X128281000Y-137013661D01*
X128285465Y-136968323D01*
X128296898Y-136930636D01*
X128315466Y-136895897D01*
X128340452Y-136865452D01*
X128370897Y-136840466D01*
X128405636Y-136821898D01*
X128443323Y-136810465D01*
X128488661Y-136806000D01*
X129575339Y-136806000D01*
X129620677Y-136810465D01*
X129620677Y-136810465D01*
G37*
G36*
X134192677Y-136810465D02*
X134230364Y-136821898D01*
X134265103Y-136840466D01*
X134295548Y-136865452D01*
X134320534Y-136895897D01*
X134339102Y-136930636D01*
X134350535Y-136968323D01*
X134355000Y-137013661D01*
X134355000Y-137850339D01*
X134350535Y-137895677D01*
X134339102Y-137933364D01*
X134320534Y-137968103D01*
X134295548Y-137998548D01*
X134265103Y-138023534D01*
X134230364Y-138042102D01*
X134192677Y-138053535D01*
X134147339Y-138058000D01*
X133060661Y-138058000D01*
X133015323Y-138053535D01*
X132977636Y-138042102D01*
X132942897Y-138023534D01*
X132912452Y-137998548D01*
X132887466Y-137968103D01*
X132868898Y-137933364D01*
X132857465Y-137895677D01*
X132853000Y-137850339D01*
X132853000Y-137013661D01*
X132857465Y-136968323D01*
X132868898Y-136930636D01*
X132887466Y-136895897D01*
X132912452Y-136865452D01*
X132942897Y-136840466D01*
X132977636Y-136821898D01*
X133015323Y-136810465D01*
X133060661Y-136806000D01*
X134147339Y-136806000D01*
X134192677Y-136810465D01*
X134192677Y-136810465D01*
G37*
G36*
X123579000Y-136251000D02*
X111117000Y-136251000D01*
X111117000Y-132749000D01*
X123579000Y-132749000D01*
X123579000Y-136251000D01*
X123579000Y-136251000D01*
G37*
G36*
X131906677Y-134760465D02*
X131944364Y-134771898D01*
X131979103Y-134790466D01*
X132009548Y-134815452D01*
X132034534Y-134845897D01*
X132053102Y-134880636D01*
X132064535Y-134918323D01*
X132069000Y-134963661D01*
X132069000Y-135800339D01*
X132064535Y-135845677D01*
X132053102Y-135883364D01*
X132034534Y-135918103D01*
X132009548Y-135948548D01*
X131979103Y-135973534D01*
X131944364Y-135992102D01*
X131906677Y-136003535D01*
X131861339Y-136008000D01*
X130774661Y-136008000D01*
X130729323Y-136003535D01*
X130691636Y-135992102D01*
X130656897Y-135973534D01*
X130626452Y-135948548D01*
X130601466Y-135918103D01*
X130582898Y-135883364D01*
X130571465Y-135845677D01*
X130567000Y-135800339D01*
X130567000Y-134963661D01*
X130571465Y-134918323D01*
X130582898Y-134880636D01*
X130601466Y-134845897D01*
X130626452Y-134815452D01*
X130656897Y-134790466D01*
X130691636Y-134771898D01*
X130729323Y-134760465D01*
X130774661Y-134756000D01*
X131861339Y-134756000D01*
X131906677Y-134760465D01*
X131906677Y-134760465D01*
G37*
G36*
X136224677Y-134760465D02*
X136262364Y-134771898D01*
X136297103Y-134790466D01*
X136327548Y-134815452D01*
X136352534Y-134845897D01*
X136371102Y-134880636D01*
X136382535Y-134918323D01*
X136387000Y-134963661D01*
X136387000Y-135800339D01*
X136382535Y-135845677D01*
X136371102Y-135883364D01*
X136352534Y-135918103D01*
X136327548Y-135948548D01*
X136297103Y-135973534D01*
X136262364Y-135992102D01*
X136224677Y-136003535D01*
X136179339Y-136008000D01*
X135092661Y-136008000D01*
X135047323Y-136003535D01*
X135009636Y-135992102D01*
X134974897Y-135973534D01*
X134944452Y-135948548D01*
X134919466Y-135918103D01*
X134900898Y-135883364D01*
X134889465Y-135845677D01*
X134885000Y-135800339D01*
X134885000Y-134963661D01*
X134889465Y-134918323D01*
X134900898Y-134880636D01*
X134919466Y-134845897D01*
X134944452Y-134815452D01*
X134974897Y-134790466D01*
X135009636Y-134771898D01*
X135047323Y-134760465D01*
X135092661Y-134756000D01*
X136179339Y-134756000D01*
X136224677Y-134760465D01*
X136224677Y-134760465D01*
G37*
G36*
X134192677Y-134760465D02*
X134230364Y-134771898D01*
X134265103Y-134790466D01*
X134295548Y-134815452D01*
X134320534Y-134845897D01*
X134339102Y-134880636D01*
X134350535Y-134918323D01*
X134355000Y-134963661D01*
X134355000Y-135800339D01*
X134350535Y-135845677D01*
X134339102Y-135883364D01*
X134320534Y-135918103D01*
X134295548Y-135948548D01*
X134265103Y-135973534D01*
X134230364Y-135992102D01*
X134192677Y-136003535D01*
X134147339Y-136008000D01*
X133060661Y-136008000D01*
X133015323Y-136003535D01*
X132977636Y-135992102D01*
X132942897Y-135973534D01*
X132912452Y-135948548D01*
X132887466Y-135918103D01*
X132868898Y-135883364D01*
X132857465Y-135845677D01*
X132853000Y-135800339D01*
X132853000Y-134963661D01*
X132857465Y-134918323D01*
X132868898Y-134880636D01*
X132887466Y-134845897D01*
X132912452Y-134815452D01*
X132942897Y-134790466D01*
X132977636Y-134771898D01*
X133015323Y-134760465D01*
X133060661Y-134756000D01*
X134147339Y-134756000D01*
X134192677Y-134760465D01*
X134192677Y-134760465D01*
G37*
G36*
X129620677Y-134760465D02*
X129658364Y-134771898D01*
X129693103Y-134790466D01*
X129723548Y-134815452D01*
X129748534Y-134845897D01*
X129767102Y-134880636D01*
X129778535Y-134918323D01*
X129783000Y-134963661D01*
X129783000Y-135800339D01*
X129778535Y-135845677D01*
X129767102Y-135883364D01*
X129748534Y-135918103D01*
X129723548Y-135948548D01*
X129693103Y-135973534D01*
X129658364Y-135992102D01*
X129620677Y-136003535D01*
X129575339Y-136008000D01*
X128488661Y-136008000D01*
X128443323Y-136003535D01*
X128405636Y-135992102D01*
X128370897Y-135973534D01*
X128340452Y-135948548D01*
X128315466Y-135918103D01*
X128296898Y-135883364D01*
X128285465Y-135845677D01*
X128281000Y-135800339D01*
X128281000Y-134963661D01*
X128285465Y-134918323D01*
X128296898Y-134880636D01*
X128315466Y-134845897D01*
X128340452Y-134815452D01*
X128370897Y-134790466D01*
X128405636Y-134771898D01*
X128443323Y-134760465D01*
X128488661Y-134756000D01*
X129575339Y-134756000D01*
X129620677Y-134760465D01*
X129620677Y-134760465D01*
G37*
G36*
X133514177Y-129301465D02*
X133551864Y-129312898D01*
X133586603Y-129331466D01*
X133617048Y-129356452D01*
X133642034Y-129386897D01*
X133660602Y-129421636D01*
X133672035Y-129459323D01*
X133676500Y-129504661D01*
X133676500Y-130591339D01*
X133672035Y-130636677D01*
X133660602Y-130674364D01*
X133642034Y-130709103D01*
X133617048Y-130739548D01*
X133586603Y-130764534D01*
X133551864Y-130783102D01*
X133514177Y-130794535D01*
X133468839Y-130799000D01*
X132632161Y-130799000D01*
X132586823Y-130794535D01*
X132549136Y-130783102D01*
X132514397Y-130764534D01*
X132483952Y-130739548D01*
X132458966Y-130709103D01*
X132440398Y-130674364D01*
X132428965Y-130636677D01*
X132424500Y-130591339D01*
X132424500Y-129504661D01*
X132428965Y-129459323D01*
X132440398Y-129421636D01*
X132458966Y-129386897D01*
X132483952Y-129356452D01*
X132514397Y-129331466D01*
X132549136Y-129312898D01*
X132586823Y-129301465D01*
X132632161Y-129297000D01*
X133468839Y-129297000D01*
X133514177Y-129301465D01*
X133514177Y-129301465D01*
G37*
G36*
X135564177Y-129301465D02*
X135601864Y-129312898D01*
X135636603Y-129331466D01*
X135667048Y-129356452D01*
X135692034Y-129386897D01*
X135710602Y-129421636D01*
X135722035Y-129459323D01*
X135726500Y-129504661D01*
X135726500Y-130591339D01*
X135722035Y-130636677D01*
X135710602Y-130674364D01*
X135692034Y-130709103D01*
X135667048Y-130739548D01*
X135636603Y-130764534D01*
X135601864Y-130783102D01*
X135564177Y-130794535D01*
X135518839Y-130799000D01*
X134682161Y-130799000D01*
X134636823Y-130794535D01*
X134599136Y-130783102D01*
X134564397Y-130764534D01*
X134533952Y-130739548D01*
X134508966Y-130709103D01*
X134490398Y-130674364D01*
X134478965Y-130636677D01*
X134474500Y-130591339D01*
X134474500Y-129504661D01*
X134478965Y-129459323D01*
X134490398Y-129421636D01*
X134508966Y-129386897D01*
X134533952Y-129356452D01*
X134564397Y-129331466D01*
X134599136Y-129312898D01*
X134636823Y-129301465D01*
X134682161Y-129297000D01*
X135518839Y-129297000D01*
X135564177Y-129301465D01*
X135564177Y-129301465D01*
G37*
G36*
X135564177Y-126761465D02*
X135601864Y-126772898D01*
X135636603Y-126791466D01*
X135667048Y-126816452D01*
X135692034Y-126846897D01*
X135710602Y-126881636D01*
X135722035Y-126919323D01*
X135726500Y-126964661D01*
X135726500Y-128051339D01*
X135722035Y-128096677D01*
X135710602Y-128134364D01*
X135692034Y-128169103D01*
X135667048Y-128199548D01*
X135636603Y-128224534D01*
X135601864Y-128243102D01*
X135564177Y-128254535D01*
X135518839Y-128259000D01*
X134682161Y-128259000D01*
X134636823Y-128254535D01*
X134599136Y-128243102D01*
X134564397Y-128224534D01*
X134533952Y-128199548D01*
X134508966Y-128169103D01*
X134490398Y-128134364D01*
X134478965Y-128096677D01*
X134474500Y-128051339D01*
X134474500Y-126964661D01*
X134478965Y-126919323D01*
X134490398Y-126881636D01*
X134508966Y-126846897D01*
X134533952Y-126816452D01*
X134564397Y-126791466D01*
X134599136Y-126772898D01*
X134636823Y-126761465D01*
X134682161Y-126757000D01*
X135518839Y-126757000D01*
X135564177Y-126761465D01*
X135564177Y-126761465D01*
G37*
G36*
X133514177Y-126761465D02*
X133551864Y-126772898D01*
X133586603Y-126791466D01*
X133617048Y-126816452D01*
X133642034Y-126846897D01*
X133660602Y-126881636D01*
X133672035Y-126919323D01*
X133676500Y-126964661D01*
X133676500Y-128051339D01*
X133672035Y-128096677D01*
X133660602Y-128134364D01*
X133642034Y-128169103D01*
X133617048Y-128199548D01*
X133586603Y-128224534D01*
X133551864Y-128243102D01*
X133514177Y-128254535D01*
X133468839Y-128259000D01*
X132632161Y-128259000D01*
X132586823Y-128254535D01*
X132549136Y-128243102D01*
X132514397Y-128224534D01*
X132483952Y-128199548D01*
X132458966Y-128169103D01*
X132440398Y-128134364D01*
X132428965Y-128096677D01*
X132424500Y-128051339D01*
X132424500Y-126964661D01*
X132428965Y-126919323D01*
X132440398Y-126881636D01*
X132458966Y-126846897D01*
X132483952Y-126816452D01*
X132514397Y-126791466D01*
X132549136Y-126772898D01*
X132586823Y-126761465D01*
X132632161Y-126757000D01*
X133468839Y-126757000D01*
X133514177Y-126761465D01*
X133514177Y-126761465D01*
G37*
G36*
X133514177Y-124221465D02*
X133551864Y-124232898D01*
X133586603Y-124251466D01*
X133617048Y-124276452D01*
X133642034Y-124306897D01*
X133660602Y-124341636D01*
X133672035Y-124379323D01*
X133676500Y-124424661D01*
X133676500Y-125511339D01*
X133672035Y-125556677D01*
X133660602Y-125594364D01*
X133642034Y-125629103D01*
X133617048Y-125659548D01*
X133586603Y-125684534D01*
X133551864Y-125703102D01*
X133514177Y-125714535D01*
X133468839Y-125719000D01*
X132632161Y-125719000D01*
X132586823Y-125714535D01*
X132549136Y-125703102D01*
X132514397Y-125684534D01*
X132483952Y-125659548D01*
X132458966Y-125629103D01*
X132440398Y-125594364D01*
X132428965Y-125556677D01*
X132424500Y-125511339D01*
X132424500Y-124424661D01*
X132428965Y-124379323D01*
X132440398Y-124341636D01*
X132458966Y-124306897D01*
X132483952Y-124276452D01*
X132514397Y-124251466D01*
X132549136Y-124232898D01*
X132586823Y-124221465D01*
X132632161Y-124217000D01*
X133468839Y-124217000D01*
X133514177Y-124221465D01*
X133514177Y-124221465D01*
G37*
G36*
X135564177Y-124221465D02*
X135601864Y-124232898D01*
X135636603Y-124251466D01*
X135667048Y-124276452D01*
X135692034Y-124306897D01*
X135710602Y-124341636D01*
X135722035Y-124379323D01*
X135726500Y-124424661D01*
X135726500Y-125511339D01*
X135722035Y-125556677D01*
X135710602Y-125594364D01*
X135692034Y-125629103D01*
X135667048Y-125659548D01*
X135636603Y-125684534D01*
X135601864Y-125703102D01*
X135564177Y-125714535D01*
X135518839Y-125719000D01*
X134682161Y-125719000D01*
X134636823Y-125714535D01*
X134599136Y-125703102D01*
X134564397Y-125684534D01*
X134533952Y-125659548D01*
X134508966Y-125629103D01*
X134490398Y-125594364D01*
X134478965Y-125556677D01*
X134474500Y-125511339D01*
X134474500Y-124424661D01*
X134478965Y-124379323D01*
X134490398Y-124341636D01*
X134508966Y-124306897D01*
X134533952Y-124276452D01*
X134564397Y-124251466D01*
X134599136Y-124232898D01*
X134636823Y-124221465D01*
X134682161Y-124217000D01*
X135518839Y-124217000D01*
X135564177Y-124221465D01*
X135564177Y-124221465D01*
G37*
G36*
X133514177Y-121427465D02*
X133551864Y-121438898D01*
X133586603Y-121457466D01*
X133617048Y-121482452D01*
X133642034Y-121512897D01*
X133660602Y-121547636D01*
X133672035Y-121585323D01*
X133676500Y-121630661D01*
X133676500Y-122717339D01*
X133672035Y-122762677D01*
X133660602Y-122800364D01*
X133642034Y-122835103D01*
X133617048Y-122865548D01*
X133586603Y-122890534D01*
X133551864Y-122909102D01*
X133514177Y-122920535D01*
X133468839Y-122925000D01*
X132632161Y-122925000D01*
X132586823Y-122920535D01*
X132549136Y-122909102D01*
X132514397Y-122890534D01*
X132483952Y-122865548D01*
X132458966Y-122835103D01*
X132440398Y-122800364D01*
X132428965Y-122762677D01*
X132424500Y-122717339D01*
X132424500Y-121630661D01*
X132428965Y-121585323D01*
X132440398Y-121547636D01*
X132458966Y-121512897D01*
X132483952Y-121482452D01*
X132514397Y-121457466D01*
X132549136Y-121438898D01*
X132586823Y-121427465D01*
X132632161Y-121423000D01*
X133468839Y-121423000D01*
X133514177Y-121427465D01*
X133514177Y-121427465D01*
G37*
G36*
X135564177Y-121427465D02*
X135601864Y-121438898D01*
X135636603Y-121457466D01*
X135667048Y-121482452D01*
X135692034Y-121512897D01*
X135710602Y-121547636D01*
X135722035Y-121585323D01*
X135726500Y-121630661D01*
X135726500Y-122717339D01*
X135722035Y-122762677D01*
X135710602Y-122800364D01*
X135692034Y-122835103D01*
X135667048Y-122865548D01*
X135636603Y-122890534D01*
X135601864Y-122909102D01*
X135564177Y-122920535D01*
X135518839Y-122925000D01*
X134682161Y-122925000D01*
X134636823Y-122920535D01*
X134599136Y-122909102D01*
X134564397Y-122890534D01*
X134533952Y-122865548D01*
X134508966Y-122835103D01*
X134490398Y-122800364D01*
X134478965Y-122762677D01*
X134474500Y-122717339D01*
X134474500Y-121630661D01*
X134478965Y-121585323D01*
X134490398Y-121547636D01*
X134508966Y-121512897D01*
X134533952Y-121482452D01*
X134564397Y-121457466D01*
X134599136Y-121438898D01*
X134636823Y-121427465D01*
X134682161Y-121423000D01*
X135518839Y-121423000D01*
X135564177Y-121427465D01*
X135564177Y-121427465D01*
G37*
G36*
X103843521Y-120780574D02*
X103943795Y-120822109D01*
X104034045Y-120882412D01*
X104110788Y-120959155D01*
X104171091Y-121049405D01*
X104212626Y-121149679D01*
X104233800Y-121256130D01*
X104233800Y-121364670D01*
X104212626Y-121471121D01*
X104171091Y-121571395D01*
X104110788Y-121661645D01*
X104034045Y-121738388D01*
X103943795Y-121798691D01*
X103843521Y-121840226D01*
X103737070Y-121861400D01*
X103628530Y-121861400D01*
X103522079Y-121840226D01*
X103421805Y-121798691D01*
X103331555Y-121738388D01*
X103254812Y-121661645D01*
X103194509Y-121571395D01*
X103152974Y-121471121D01*
X103131800Y-121364670D01*
X103131800Y-121256130D01*
X103152974Y-121149679D01*
X103194509Y-121049405D01*
X103254812Y-120959155D01*
X103331555Y-120882412D01*
X103421805Y-120822109D01*
X103522079Y-120780574D01*
X103628530Y-120759400D01*
X103737070Y-120759400D01*
X103843521Y-120780574D01*
X103843521Y-120780574D01*
G37*
G36*
X123579000Y-121251000D02*
X111117000Y-121251000D01*
X111117000Y-117749000D01*
X123579000Y-117749000D01*
X123579000Y-121251000D01*
X123579000Y-121251000D01*
G37*
G36*
X105178099Y-118147245D02*
X105215593Y-118158619D01*
X105250157Y-118177094D01*
X105280447Y-118201953D01*
X105305306Y-118232243D01*
X105323781Y-118266807D01*
X105335155Y-118304301D01*
X105339600Y-118349438D01*
X105339600Y-118988162D01*
X105335155Y-119033299D01*
X105323781Y-119070793D01*
X105305306Y-119105357D01*
X105280447Y-119135647D01*
X105250157Y-119160506D01*
X105215593Y-119178981D01*
X105178099Y-119190355D01*
X105132962Y-119194800D01*
X104394238Y-119194800D01*
X104349101Y-119190355D01*
X104311607Y-119178981D01*
X104277043Y-119160506D01*
X104246753Y-119135647D01*
X104221894Y-119105357D01*
X104203419Y-119070793D01*
X104192045Y-119033299D01*
X104187600Y-118988162D01*
X104187600Y-118349438D01*
X104192045Y-118304301D01*
X104203419Y-118266807D01*
X104221894Y-118232243D01*
X104246753Y-118201953D01*
X104277043Y-118177094D01*
X104311607Y-118158619D01*
X104349101Y-118147245D01*
X104394238Y-118142800D01*
X105132962Y-118142800D01*
X105178099Y-118147245D01*
X105178099Y-118147245D01*
G37*
G36*
X106928099Y-118147245D02*
X106965593Y-118158619D01*
X107000157Y-118177094D01*
X107030447Y-118201953D01*
X107055306Y-118232243D01*
X107073781Y-118266807D01*
X107085155Y-118304301D01*
X107089600Y-118349438D01*
X107089600Y-118988162D01*
X107085155Y-119033299D01*
X107073781Y-119070793D01*
X107055306Y-119105357D01*
X107030447Y-119135647D01*
X107000157Y-119160506D01*
X106965593Y-119178981D01*
X106928099Y-119190355D01*
X106882962Y-119194800D01*
X106144238Y-119194800D01*
X106099101Y-119190355D01*
X106061607Y-119178981D01*
X106027043Y-119160506D01*
X105996753Y-119135647D01*
X105971894Y-119105357D01*
X105953419Y-119070793D01*
X105942045Y-119033299D01*
X105937600Y-118988162D01*
X105937600Y-118349438D01*
X105942045Y-118304301D01*
X105953419Y-118266807D01*
X105971894Y-118232243D01*
X105996753Y-118201953D01*
X106027043Y-118177094D01*
X106061607Y-118158619D01*
X106099101Y-118147245D01*
X106144238Y-118142800D01*
X106882962Y-118142800D01*
X106928099Y-118147245D01*
X106928099Y-118147245D01*
G37*
G36*
X106910600Y-117309200D02*
X105758600Y-117309200D01*
X105758600Y-115507200D01*
X106910600Y-115507200D01*
X106910600Y-117309200D01*
X106910600Y-117309200D01*
G37*
G36*
X105010600Y-117309200D02*
X103858600Y-117309200D01*
X103858600Y-115507200D01*
X105010600Y-115507200D01*
X105010600Y-117309200D01*
X105010600Y-117309200D01*
G37*
G36*
X128858677Y-113687465D02*
X128896364Y-113698898D01*
X128931103Y-113717466D01*
X128961548Y-113742452D01*
X128986534Y-113772897D01*
X129005102Y-113807636D01*
X129016535Y-113845323D01*
X129021000Y-113890661D01*
X129021000Y-114727339D01*
X129016535Y-114772677D01*
X129005102Y-114810364D01*
X128986534Y-114845103D01*
X128961548Y-114875548D01*
X128931103Y-114900534D01*
X128896364Y-114919102D01*
X128858677Y-114930535D01*
X128813339Y-114935000D01*
X127726661Y-114935000D01*
X127681323Y-114930535D01*
X127643636Y-114919102D01*
X127608897Y-114900534D01*
X127578452Y-114875548D01*
X127553466Y-114845103D01*
X127534898Y-114810364D01*
X127523465Y-114772677D01*
X127519000Y-114727339D01*
X127519000Y-113890661D01*
X127523465Y-113845323D01*
X127534898Y-113807636D01*
X127553466Y-113772897D01*
X127578452Y-113742452D01*
X127608897Y-113717466D01*
X127643636Y-113698898D01*
X127681323Y-113687465D01*
X127726661Y-113683000D01*
X128813339Y-113683000D01*
X128858677Y-113687465D01*
X128858677Y-113687465D01*
G37*
G36*
X120984677Y-113687465D02*
X121022364Y-113698898D01*
X121057103Y-113717466D01*
X121087548Y-113742452D01*
X121112534Y-113772897D01*
X121131102Y-113807636D01*
X121142535Y-113845323D01*
X121147000Y-113890661D01*
X121147000Y-114727339D01*
X121142535Y-114772677D01*
X121131102Y-114810364D01*
X121112534Y-114845103D01*
X121087548Y-114875548D01*
X121057103Y-114900534D01*
X121022364Y-114919102D01*
X120984677Y-114930535D01*
X120939339Y-114935000D01*
X119852661Y-114935000D01*
X119807323Y-114930535D01*
X119769636Y-114919102D01*
X119734897Y-114900534D01*
X119704452Y-114875548D01*
X119679466Y-114845103D01*
X119660898Y-114810364D01*
X119649465Y-114772677D01*
X119645000Y-114727339D01*
X119645000Y-113890661D01*
X119649465Y-113845323D01*
X119660898Y-113807636D01*
X119679466Y-113772897D01*
X119704452Y-113742452D01*
X119734897Y-113717466D01*
X119769636Y-113698898D01*
X119807323Y-113687465D01*
X119852661Y-113683000D01*
X120939339Y-113683000D01*
X120984677Y-113687465D01*
X120984677Y-113687465D01*
G37*
G36*
X132414677Y-113687465D02*
X132452364Y-113698898D01*
X132487103Y-113717466D01*
X132517548Y-113742452D01*
X132542534Y-113772897D01*
X132561102Y-113807636D01*
X132572535Y-113845323D01*
X132577000Y-113890661D01*
X132577000Y-114727339D01*
X132572535Y-114772677D01*
X132561102Y-114810364D01*
X132542534Y-114845103D01*
X132517548Y-114875548D01*
X132487103Y-114900534D01*
X132452364Y-114919102D01*
X132414677Y-114930535D01*
X132369339Y-114935000D01*
X131282661Y-114935000D01*
X131237323Y-114930535D01*
X131199636Y-114919102D01*
X131164897Y-114900534D01*
X131134452Y-114875548D01*
X131109466Y-114845103D01*
X131090898Y-114810364D01*
X131079465Y-114772677D01*
X131075000Y-114727339D01*
X131075000Y-113890661D01*
X131079465Y-113845323D01*
X131090898Y-113807636D01*
X131109466Y-113772897D01*
X131134452Y-113742452D01*
X131164897Y-113717466D01*
X131199636Y-113698898D01*
X131237323Y-113687465D01*
X131282661Y-113683000D01*
X132369339Y-113683000D01*
X132414677Y-113687465D01*
X132414677Y-113687465D01*
G37*
G36*
X113364677Y-113687465D02*
X113402364Y-113698898D01*
X113437103Y-113717466D01*
X113467548Y-113742452D01*
X113492534Y-113772897D01*
X113511102Y-113807636D01*
X113522535Y-113845323D01*
X113527000Y-113890661D01*
X113527000Y-114727339D01*
X113522535Y-114772677D01*
X113511102Y-114810364D01*
X113492534Y-114845103D01*
X113467548Y-114875548D01*
X113437103Y-114900534D01*
X113402364Y-114919102D01*
X113364677Y-114930535D01*
X113319339Y-114935000D01*
X112232661Y-114935000D01*
X112187323Y-114930535D01*
X112149636Y-114919102D01*
X112114897Y-114900534D01*
X112084452Y-114875548D01*
X112059466Y-114845103D01*
X112040898Y-114810364D01*
X112029465Y-114772677D01*
X112025000Y-114727339D01*
X112025000Y-113890661D01*
X112029465Y-113845323D01*
X112040898Y-113807636D01*
X112059466Y-113772897D01*
X112084452Y-113742452D01*
X112114897Y-113717466D01*
X112149636Y-113698898D01*
X112187323Y-113687465D01*
X112232661Y-113683000D01*
X113319339Y-113683000D01*
X113364677Y-113687465D01*
X113364677Y-113687465D01*
G37*
G36*
X124540677Y-113687465D02*
X124578364Y-113698898D01*
X124613103Y-113717466D01*
X124643548Y-113742452D01*
X124668534Y-113772897D01*
X124687102Y-113807636D01*
X124698535Y-113845323D01*
X124703000Y-113890661D01*
X124703000Y-114727339D01*
X124698535Y-114772677D01*
X124687102Y-114810364D01*
X124668534Y-114845103D01*
X124643548Y-114875548D01*
X124613103Y-114900534D01*
X124578364Y-114919102D01*
X124540677Y-114930535D01*
X124495339Y-114935000D01*
X123408661Y-114935000D01*
X123363323Y-114930535D01*
X123325636Y-114919102D01*
X123290897Y-114900534D01*
X123260452Y-114875548D01*
X123235466Y-114845103D01*
X123216898Y-114810364D01*
X123205465Y-114772677D01*
X123201000Y-114727339D01*
X123201000Y-113890661D01*
X123205465Y-113845323D01*
X123216898Y-113807636D01*
X123235466Y-113772897D01*
X123260452Y-113742452D01*
X123290897Y-113717466D01*
X123325636Y-113698898D01*
X123363323Y-113687465D01*
X123408661Y-113683000D01*
X124495339Y-113683000D01*
X124540677Y-113687465D01*
X124540677Y-113687465D01*
G37*
G36*
X109554677Y-113433465D02*
X109592364Y-113444898D01*
X109627103Y-113463466D01*
X109657548Y-113488452D01*
X109682534Y-113518897D01*
X109701102Y-113553636D01*
X109712535Y-113591323D01*
X109717000Y-113636661D01*
X109717000Y-114473339D01*
X109712535Y-114518677D01*
X109701102Y-114556364D01*
X109682534Y-114591103D01*
X109657548Y-114621548D01*
X109627103Y-114646534D01*
X109592364Y-114665102D01*
X109554677Y-114676535D01*
X109509339Y-114681000D01*
X108422661Y-114681000D01*
X108377323Y-114676535D01*
X108339636Y-114665102D01*
X108304897Y-114646534D01*
X108274452Y-114621548D01*
X108249466Y-114591103D01*
X108230898Y-114556364D01*
X108219465Y-114518677D01*
X108215000Y-114473339D01*
X108215000Y-113636661D01*
X108219465Y-113591323D01*
X108230898Y-113553636D01*
X108249466Y-113518897D01*
X108274452Y-113488452D01*
X108304897Y-113463466D01*
X108339636Y-113444898D01*
X108377323Y-113433465D01*
X108422661Y-113429000D01*
X109509339Y-113429000D01*
X109554677Y-113433465D01*
X109554677Y-113433465D01*
G37*
G36*
X116920677Y-113433465D02*
X116958364Y-113444898D01*
X116993103Y-113463466D01*
X117023548Y-113488452D01*
X117048534Y-113518897D01*
X117067102Y-113553636D01*
X117078535Y-113591323D01*
X117083000Y-113636661D01*
X117083000Y-114473339D01*
X117078535Y-114518677D01*
X117067102Y-114556364D01*
X117048534Y-114591103D01*
X117023548Y-114621548D01*
X116993103Y-114646534D01*
X116958364Y-114665102D01*
X116920677Y-114676535D01*
X116875339Y-114681000D01*
X115788661Y-114681000D01*
X115743323Y-114676535D01*
X115705636Y-114665102D01*
X115670897Y-114646534D01*
X115640452Y-114621548D01*
X115615466Y-114591103D01*
X115596898Y-114556364D01*
X115585465Y-114518677D01*
X115581000Y-114473339D01*
X115581000Y-113636661D01*
X115585465Y-113591323D01*
X115596898Y-113553636D01*
X115615466Y-113518897D01*
X115640452Y-113488452D01*
X115670897Y-113463466D01*
X115705636Y-113444898D01*
X115743323Y-113433465D01*
X115788661Y-113429000D01*
X116875339Y-113429000D01*
X116920677Y-113433465D01*
X116920677Y-113433465D01*
G37*
G36*
X106623299Y-113448245D02*
X106660793Y-113459619D01*
X106695357Y-113478094D01*
X106725647Y-113502953D01*
X106750506Y-113533243D01*
X106768981Y-113567807D01*
X106780355Y-113605301D01*
X106784800Y-113650438D01*
X106784800Y-114289162D01*
X106780355Y-114334299D01*
X106768981Y-114371793D01*
X106750506Y-114406357D01*
X106725647Y-114436647D01*
X106695357Y-114461506D01*
X106660793Y-114479981D01*
X106623299Y-114491355D01*
X106578162Y-114495800D01*
X105839438Y-114495800D01*
X105794301Y-114491355D01*
X105756807Y-114479981D01*
X105722243Y-114461506D01*
X105691953Y-114436647D01*
X105667094Y-114406357D01*
X105648619Y-114371793D01*
X105637245Y-114334299D01*
X105632800Y-114289162D01*
X105632800Y-113650438D01*
X105637245Y-113605301D01*
X105648619Y-113567807D01*
X105667094Y-113533243D01*
X105691953Y-113502953D01*
X105722243Y-113478094D01*
X105756807Y-113459619D01*
X105794301Y-113448245D01*
X105839438Y-113443800D01*
X106578162Y-113443800D01*
X106623299Y-113448245D01*
X106623299Y-113448245D01*
G37*
G36*
X104873299Y-113448245D02*
X104910793Y-113459619D01*
X104945357Y-113478094D01*
X104975647Y-113502953D01*
X105000506Y-113533243D01*
X105018981Y-113567807D01*
X105030355Y-113605301D01*
X105034800Y-113650438D01*
X105034800Y-114289162D01*
X105030355Y-114334299D01*
X105018981Y-114371793D01*
X105000506Y-114406357D01*
X104975647Y-114436647D01*
X104945357Y-114461506D01*
X104910793Y-114479981D01*
X104873299Y-114491355D01*
X104828162Y-114495800D01*
X104089438Y-114495800D01*
X104044301Y-114491355D01*
X104006807Y-114479981D01*
X103972243Y-114461506D01*
X103941953Y-114436647D01*
X103917094Y-114406357D01*
X103898619Y-114371793D01*
X103887245Y-114334299D01*
X103882800Y-114289162D01*
X103882800Y-113650438D01*
X103887245Y-113605301D01*
X103898619Y-113567807D01*
X103917094Y-113533243D01*
X103941953Y-113502953D01*
X103972243Y-113478094D01*
X104006807Y-113459619D01*
X104044301Y-113448245D01*
X104089438Y-113443800D01*
X104828162Y-113443800D01*
X104873299Y-113448245D01*
X104873299Y-113448245D01*
G37*
G36*
X120984677Y-111637465D02*
X121022364Y-111648898D01*
X121057103Y-111667466D01*
X121087548Y-111692452D01*
X121112534Y-111722897D01*
X121131102Y-111757636D01*
X121142535Y-111795323D01*
X121147000Y-111840661D01*
X121147000Y-112677339D01*
X121142535Y-112722677D01*
X121131102Y-112760364D01*
X121112534Y-112795103D01*
X121087548Y-112825548D01*
X121057103Y-112850534D01*
X121022364Y-112869102D01*
X120984677Y-112880535D01*
X120939339Y-112885000D01*
X119852661Y-112885000D01*
X119807323Y-112880535D01*
X119769636Y-112869102D01*
X119734897Y-112850534D01*
X119704452Y-112825548D01*
X119679466Y-112795103D01*
X119660898Y-112760364D01*
X119649465Y-112722677D01*
X119645000Y-112677339D01*
X119645000Y-111840661D01*
X119649465Y-111795323D01*
X119660898Y-111757636D01*
X119679466Y-111722897D01*
X119704452Y-111692452D01*
X119734897Y-111667466D01*
X119769636Y-111648898D01*
X119807323Y-111637465D01*
X119852661Y-111633000D01*
X120939339Y-111633000D01*
X120984677Y-111637465D01*
X120984677Y-111637465D01*
G37*
G36*
X132414677Y-111637465D02*
X132452364Y-111648898D01*
X132487103Y-111667466D01*
X132517548Y-111692452D01*
X132542534Y-111722897D01*
X132561102Y-111757636D01*
X132572535Y-111795323D01*
X132577000Y-111840661D01*
X132577000Y-112677339D01*
X132572535Y-112722677D01*
X132561102Y-112760364D01*
X132542534Y-112795103D01*
X132517548Y-112825548D01*
X132487103Y-112850534D01*
X132452364Y-112869102D01*
X132414677Y-112880535D01*
X132369339Y-112885000D01*
X131282661Y-112885000D01*
X131237323Y-112880535D01*
X131199636Y-112869102D01*
X131164897Y-112850534D01*
X131134452Y-112825548D01*
X131109466Y-112795103D01*
X131090898Y-112760364D01*
X131079465Y-112722677D01*
X131075000Y-112677339D01*
X131075000Y-111840661D01*
X131079465Y-111795323D01*
X131090898Y-111757636D01*
X131109466Y-111722897D01*
X131134452Y-111692452D01*
X131164897Y-111667466D01*
X131199636Y-111648898D01*
X131237323Y-111637465D01*
X131282661Y-111633000D01*
X132369339Y-111633000D01*
X132414677Y-111637465D01*
X132414677Y-111637465D01*
G37*
G36*
X124540677Y-111637465D02*
X124578364Y-111648898D01*
X124613103Y-111667466D01*
X124643548Y-111692452D01*
X124668534Y-111722897D01*
X124687102Y-111757636D01*
X124698535Y-111795323D01*
X124703000Y-111840661D01*
X124703000Y-112677339D01*
X124698535Y-112722677D01*
X124687102Y-112760364D01*
X124668534Y-112795103D01*
X124643548Y-112825548D01*
X124613103Y-112850534D01*
X124578364Y-112869102D01*
X124540677Y-112880535D01*
X124495339Y-112885000D01*
X123408661Y-112885000D01*
X123363323Y-112880535D01*
X123325636Y-112869102D01*
X123290897Y-112850534D01*
X123260452Y-112825548D01*
X123235466Y-112795103D01*
X123216898Y-112760364D01*
X123205465Y-112722677D01*
X123201000Y-112677339D01*
X123201000Y-111840661D01*
X123205465Y-111795323D01*
X123216898Y-111757636D01*
X123235466Y-111722897D01*
X123260452Y-111692452D01*
X123290897Y-111667466D01*
X123325636Y-111648898D01*
X123363323Y-111637465D01*
X123408661Y-111633000D01*
X124495339Y-111633000D01*
X124540677Y-111637465D01*
X124540677Y-111637465D01*
G37*
G36*
X128858677Y-111637465D02*
X128896364Y-111648898D01*
X128931103Y-111667466D01*
X128961548Y-111692452D01*
X128986534Y-111722897D01*
X129005102Y-111757636D01*
X129016535Y-111795323D01*
X129021000Y-111840661D01*
X129021000Y-112677339D01*
X129016535Y-112722677D01*
X129005102Y-112760364D01*
X128986534Y-112795103D01*
X128961548Y-112825548D01*
X128931103Y-112850534D01*
X128896364Y-112869102D01*
X128858677Y-112880535D01*
X128813339Y-112885000D01*
X127726661Y-112885000D01*
X127681323Y-112880535D01*
X127643636Y-112869102D01*
X127608897Y-112850534D01*
X127578452Y-112825548D01*
X127553466Y-112795103D01*
X127534898Y-112760364D01*
X127523465Y-112722677D01*
X127519000Y-112677339D01*
X127519000Y-111840661D01*
X127523465Y-111795323D01*
X127534898Y-111757636D01*
X127553466Y-111722897D01*
X127578452Y-111692452D01*
X127608897Y-111667466D01*
X127643636Y-111648898D01*
X127681323Y-111637465D01*
X127726661Y-111633000D01*
X128813339Y-111633000D01*
X128858677Y-111637465D01*
X128858677Y-111637465D01*
G37*
G36*
X113364677Y-111637465D02*
X113402364Y-111648898D01*
X113437103Y-111667466D01*
X113467548Y-111692452D01*
X113492534Y-111722897D01*
X113511102Y-111757636D01*
X113522535Y-111795323D01*
X113527000Y-111840661D01*
X113527000Y-112677339D01*
X113522535Y-112722677D01*
X113511102Y-112760364D01*
X113492534Y-112795103D01*
X113467548Y-112825548D01*
X113437103Y-112850534D01*
X113402364Y-112869102D01*
X113364677Y-112880535D01*
X113319339Y-112885000D01*
X112232661Y-112885000D01*
X112187323Y-112880535D01*
X112149636Y-112869102D01*
X112114897Y-112850534D01*
X112084452Y-112825548D01*
X112059466Y-112795103D01*
X112040898Y-112760364D01*
X112029465Y-112722677D01*
X112025000Y-112677339D01*
X112025000Y-111840661D01*
X112029465Y-111795323D01*
X112040898Y-111757636D01*
X112059466Y-111722897D01*
X112084452Y-111692452D01*
X112114897Y-111667466D01*
X112149636Y-111648898D01*
X112187323Y-111637465D01*
X112232661Y-111633000D01*
X113319339Y-111633000D01*
X113364677Y-111637465D01*
X113364677Y-111637465D01*
G37*
G36*
X109554677Y-111383465D02*
X109592364Y-111394898D01*
X109627103Y-111413466D01*
X109657548Y-111438452D01*
X109682534Y-111468897D01*
X109701102Y-111503636D01*
X109712535Y-111541323D01*
X109717000Y-111586661D01*
X109717000Y-112423339D01*
X109712535Y-112468677D01*
X109701102Y-112506364D01*
X109682534Y-112541103D01*
X109657548Y-112571548D01*
X109627103Y-112596534D01*
X109592364Y-112615102D01*
X109554677Y-112626535D01*
X109509339Y-112631000D01*
X108422661Y-112631000D01*
X108377323Y-112626535D01*
X108339636Y-112615102D01*
X108304897Y-112596534D01*
X108274452Y-112571548D01*
X108249466Y-112541103D01*
X108230898Y-112506364D01*
X108219465Y-112468677D01*
X108215000Y-112423339D01*
X108215000Y-111586661D01*
X108219465Y-111541323D01*
X108230898Y-111503636D01*
X108249466Y-111468897D01*
X108274452Y-111438452D01*
X108304897Y-111413466D01*
X108339636Y-111394898D01*
X108377323Y-111383465D01*
X108422661Y-111379000D01*
X109509339Y-111379000D01*
X109554677Y-111383465D01*
X109554677Y-111383465D01*
G37*
G36*
X116920677Y-111383465D02*
X116958364Y-111394898D01*
X116993103Y-111413466D01*
X117023548Y-111438452D01*
X117048534Y-111468897D01*
X117067102Y-111503636D01*
X117078535Y-111541323D01*
X117083000Y-111586661D01*
X117083000Y-112423339D01*
X117078535Y-112468677D01*
X117067102Y-112506364D01*
X117048534Y-112541103D01*
X117023548Y-112571548D01*
X116993103Y-112596534D01*
X116958364Y-112615102D01*
X116920677Y-112626535D01*
X116875339Y-112631000D01*
X115788661Y-112631000D01*
X115743323Y-112626535D01*
X115705636Y-112615102D01*
X115670897Y-112596534D01*
X115640452Y-112571548D01*
X115615466Y-112541103D01*
X115596898Y-112506364D01*
X115585465Y-112468677D01*
X115581000Y-112423339D01*
X115581000Y-111586661D01*
X115585465Y-111541323D01*
X115596898Y-111503636D01*
X115615466Y-111468897D01*
X115640452Y-111438452D01*
X115670897Y-111413466D01*
X115705636Y-111394898D01*
X115743323Y-111383465D01*
X115788661Y-111379000D01*
X116875339Y-111379000D01*
X116920677Y-111383465D01*
X116920677Y-111383465D01*
G37*
G36*
X109241600Y-109888400D02*
X108639600Y-109888400D01*
X108639600Y-109136400D01*
X109241600Y-109136400D01*
X109241600Y-109888400D01*
X109241600Y-109888400D01*
G37*
G36*
X116887000Y-109609000D02*
X116285000Y-109609000D01*
X116285000Y-108857000D01*
X116887000Y-108857000D01*
X116887000Y-109609000D01*
X116887000Y-109609000D01*
G37*
G36*
X132127000Y-109609000D02*
X131525000Y-109609000D01*
X131525000Y-108857000D01*
X132127000Y-108857000D01*
X132127000Y-109609000D01*
X132127000Y-109609000D01*
G37*
G36*
X120697000Y-109609000D02*
X120095000Y-109609000D01*
X120095000Y-108857000D01*
X120697000Y-108857000D01*
X120697000Y-109609000D01*
X120697000Y-109609000D01*
G37*
G36*
X124507000Y-109609000D02*
X123905000Y-109609000D01*
X123905000Y-108857000D01*
X124507000Y-108857000D01*
X124507000Y-109609000D01*
X124507000Y-109609000D01*
G37*
G36*
X113077000Y-109609000D02*
X112475000Y-109609000D01*
X112475000Y-108857000D01*
X113077000Y-108857000D01*
X113077000Y-109609000D01*
X113077000Y-109609000D01*
G37*
G36*
X128317000Y-109609000D02*
X127715000Y-109609000D01*
X127715000Y-108857000D01*
X128317000Y-108857000D01*
X128317000Y-109609000D01*
X128317000Y-109609000D01*
G37*
G36*
X108591600Y-108338400D02*
X107989600Y-108338400D01*
X107989600Y-107586400D01*
X108591600Y-107586400D01*
X108591600Y-108338400D01*
X108591600Y-108338400D01*
G37*
G36*
X109891600Y-108338400D02*
X109289600Y-108338400D01*
X109289600Y-107586400D01*
X109891600Y-107586400D01*
X109891600Y-108338400D01*
X109891600Y-108338400D01*
G37*
G36*
X112427000Y-108059000D02*
X111825000Y-108059000D01*
X111825000Y-107307000D01*
X112427000Y-107307000D01*
X112427000Y-108059000D01*
X112427000Y-108059000D01*
G37*
G36*
X116237000Y-108059000D02*
X115635000Y-108059000D01*
X115635000Y-107307000D01*
X116237000Y-107307000D01*
X116237000Y-108059000D01*
X116237000Y-108059000D01*
G37*
G36*
X117537000Y-108059000D02*
X116935000Y-108059000D01*
X116935000Y-107307000D01*
X117537000Y-107307000D01*
X117537000Y-108059000D01*
X117537000Y-108059000D01*
G37*
G36*
X121347000Y-108059000D02*
X120745000Y-108059000D01*
X120745000Y-107307000D01*
X121347000Y-107307000D01*
X121347000Y-108059000D01*
X121347000Y-108059000D01*
G37*
G36*
X123857000Y-108059000D02*
X123255000Y-108059000D01*
X123255000Y-107307000D01*
X123857000Y-107307000D01*
X123857000Y-108059000D01*
X123857000Y-108059000D01*
G37*
G36*
X125157000Y-108059000D02*
X124555000Y-108059000D01*
X124555000Y-107307000D01*
X125157000Y-107307000D01*
X125157000Y-108059000D01*
X125157000Y-108059000D01*
G37*
G36*
X128967000Y-108059000D02*
X128365000Y-108059000D01*
X128365000Y-107307000D01*
X128967000Y-107307000D01*
X128967000Y-108059000D01*
X128967000Y-108059000D01*
G37*
G36*
X127667000Y-108059000D02*
X127065000Y-108059000D01*
X127065000Y-107307000D01*
X127667000Y-107307000D01*
X127667000Y-108059000D01*
X127667000Y-108059000D01*
G37*
G36*
X120047000Y-108059000D02*
X119445000Y-108059000D01*
X119445000Y-107307000D01*
X120047000Y-107307000D01*
X120047000Y-108059000D01*
X120047000Y-108059000D01*
G37*
G36*
X113727000Y-108059000D02*
X113125000Y-108059000D01*
X113125000Y-107307000D01*
X113727000Y-107307000D01*
X113727000Y-108059000D01*
X113727000Y-108059000D01*
G37*
G36*
X132777000Y-108059000D02*
X132175000Y-108059000D01*
X132175000Y-107307000D01*
X132777000Y-107307000D01*
X132777000Y-108059000D01*
X132777000Y-108059000D01*
G37*
G36*
X131477000Y-108059000D02*
X130875000Y-108059000D01*
X130875000Y-107307000D01*
X131477000Y-107307000D01*
X131477000Y-108059000D01*
X131477000Y-108059000D01*
G37*
G36*
X133837643Y-101591781D02*
X133983415Y-101652162D01*
X134114611Y-101739824D01*
X134226176Y-101851389D01*
X134313838Y-101982585D01*
X134374219Y-102128357D01*
X134405000Y-102283107D01*
X134405000Y-102440893D01*
X134374219Y-102595643D01*
X134313838Y-102741415D01*
X134226176Y-102872611D01*
X134114611Y-102984176D01*
X133983415Y-103071838D01*
X133837643Y-103132219D01*
X133682893Y-103163000D01*
X133525107Y-103163000D01*
X133370357Y-103132219D01*
X133224585Y-103071838D01*
X133093389Y-102984176D01*
X132981824Y-102872611D01*
X132894162Y-102741415D01*
X132833781Y-102595643D01*
X132803000Y-102440893D01*
X132803000Y-102283107D01*
X132833781Y-102128357D01*
X132894162Y-101982585D01*
X132981824Y-101851389D01*
X133093389Y-101739824D01*
X133224585Y-101652162D01*
X133370357Y-101591781D01*
X133525107Y-101561000D01*
X133682893Y-101561000D01*
X133837643Y-101591781D01*
X133837643Y-101591781D01*
G37*
G36*
X131297643Y-101591781D02*
X131443415Y-101652162D01*
X131574611Y-101739824D01*
X131686176Y-101851389D01*
X131773838Y-101982585D01*
X131834219Y-102128357D01*
X131865000Y-102283107D01*
X131865000Y-102440893D01*
X131834219Y-102595643D01*
X131773838Y-102741415D01*
X131686176Y-102872611D01*
X131574611Y-102984176D01*
X131443415Y-103071838D01*
X131297643Y-103132219D01*
X131142893Y-103163000D01*
X130985107Y-103163000D01*
X130830357Y-103132219D01*
X130684585Y-103071838D01*
X130553389Y-102984176D01*
X130441824Y-102872611D01*
X130354162Y-102741415D01*
X130293781Y-102595643D01*
X130263000Y-102440893D01*
X130263000Y-102283107D01*
X130293781Y-102128357D01*
X130354162Y-101982585D01*
X130441824Y-101851389D01*
X130553389Y-101739824D01*
X130684585Y-101652162D01*
X130830357Y-101591781D01*
X130985107Y-101561000D01*
X131142893Y-101561000D01*
X131297643Y-101591781D01*
X131297643Y-101591781D01*
G37*
G36*
X128757643Y-101591781D02*
X128903415Y-101652162D01*
X129034611Y-101739824D01*
X129146176Y-101851389D01*
X129233838Y-101982585D01*
X129294219Y-102128357D01*
X129325000Y-102283107D01*
X129325000Y-102440893D01*
X129294219Y-102595643D01*
X129233838Y-102741415D01*
X129146176Y-102872611D01*
X129034611Y-102984176D01*
X128903415Y-103071838D01*
X128757643Y-103132219D01*
X128602893Y-103163000D01*
X128445107Y-103163000D01*
X128290357Y-103132219D01*
X128144585Y-103071838D01*
X128013389Y-102984176D01*
X127901824Y-102872611D01*
X127814162Y-102741415D01*
X127753781Y-102595643D01*
X127723000Y-102440893D01*
X127723000Y-102283107D01*
X127753781Y-102128357D01*
X127814162Y-101982585D01*
X127901824Y-101851389D01*
X128013389Y-101739824D01*
X128144585Y-101652162D01*
X128290357Y-101591781D01*
X128445107Y-101561000D01*
X128602893Y-101561000D01*
X128757643Y-101591781D01*
X128757643Y-101591781D01*
G37*
G36*
X105266443Y-100959519D02*
X105332627Y-100966037D01*
X105445853Y-101000384D01*
X105502467Y-101017557D01*
X105603593Y-101071611D01*
X105658991Y-101101222D01*
X105694729Y-101130552D01*
X105796186Y-101213814D01*
X105879448Y-101315271D01*
X105908778Y-101351009D01*
X105908779Y-101351011D01*
X105992443Y-101507533D01*
X105992443Y-101507534D01*
X106043963Y-101677373D01*
X106061359Y-101854000D01*
X106043963Y-102030627D01*
X106014317Y-102128357D01*
X105992443Y-102200467D01*
X105984789Y-102214786D01*
X105908778Y-102356991D01*
X105879448Y-102392729D01*
X105796186Y-102494186D01*
X105694729Y-102577448D01*
X105658991Y-102606778D01*
X105658989Y-102606779D01*
X105502467Y-102690443D01*
X105445853Y-102707616D01*
X105332627Y-102741963D01*
X105266442Y-102748482D01*
X105200260Y-102755000D01*
X105111740Y-102755000D01*
X105045557Y-102748481D01*
X104979373Y-102741963D01*
X104866147Y-102707616D01*
X104809533Y-102690443D01*
X104653011Y-102606779D01*
X104653009Y-102606778D01*
X104617271Y-102577448D01*
X104515814Y-102494186D01*
X104432552Y-102392729D01*
X104403222Y-102356991D01*
X104327211Y-102214786D01*
X104319557Y-102200467D01*
X104297683Y-102128357D01*
X104268037Y-102030627D01*
X104250641Y-101854000D01*
X104268037Y-101677373D01*
X104319557Y-101507534D01*
X104319557Y-101507533D01*
X104403221Y-101351011D01*
X104403222Y-101351009D01*
X104432552Y-101315271D01*
X104515814Y-101213814D01*
X104617271Y-101130552D01*
X104653009Y-101101222D01*
X104708407Y-101071611D01*
X104809533Y-101017557D01*
X104866147Y-101000384D01*
X104979373Y-100966037D01*
X105045558Y-100959518D01*
X105111740Y-100953000D01*
X105200260Y-100953000D01*
X105266443Y-100959519D01*
X105266443Y-100959519D01*
G37*
G36*
X108597000Y-102755000D02*
X106795000Y-102755000D01*
X106795000Y-100953000D01*
X108597000Y-100953000D01*
X108597000Y-102755000D01*
X108597000Y-102755000D01*
G37*
G36*
X115963000Y-102501000D02*
X114161000Y-102501000D01*
X114161000Y-100699000D01*
X115963000Y-100699000D01*
X115963000Y-102501000D01*
X115963000Y-102501000D01*
G37*
G36*
X124087843Y-100680119D02*
X124154027Y-100686637D01*
X124267253Y-100720984D01*
X124323867Y-100738157D01*
X124462487Y-100812252D01*
X124480391Y-100821822D01*
X124516129Y-100851152D01*
X124617586Y-100934414D01*
X124700848Y-101035871D01*
X124730178Y-101071609D01*
X124730179Y-101071611D01*
X124813843Y-101228133D01*
X124813843Y-101228134D01*
X124865363Y-101397973D01*
X124882759Y-101574600D01*
X124865363Y-101751227D01*
X124834979Y-101851389D01*
X124813843Y-101921067D01*
X124780961Y-101982584D01*
X124730178Y-102077591D01*
X124700848Y-102113329D01*
X124617586Y-102214786D01*
X124534335Y-102283107D01*
X124480391Y-102327378D01*
X124480389Y-102327379D01*
X124323867Y-102411043D01*
X124267253Y-102428216D01*
X124154027Y-102462563D01*
X124087842Y-102469082D01*
X124021660Y-102475600D01*
X123933140Y-102475600D01*
X123866957Y-102469081D01*
X123800773Y-102462563D01*
X123687547Y-102428216D01*
X123630933Y-102411043D01*
X123474411Y-102327379D01*
X123474409Y-102327378D01*
X123420465Y-102283107D01*
X123337214Y-102214786D01*
X123253952Y-102113329D01*
X123224622Y-102077591D01*
X123173839Y-101982584D01*
X123140957Y-101921067D01*
X123119821Y-101851389D01*
X123089437Y-101751227D01*
X123072041Y-101574600D01*
X123089437Y-101397973D01*
X123140957Y-101228134D01*
X123140957Y-101228133D01*
X123224621Y-101071611D01*
X123224622Y-101071609D01*
X123253952Y-101035871D01*
X123337214Y-100934414D01*
X123438671Y-100851152D01*
X123474409Y-100821822D01*
X123492313Y-100812252D01*
X123630933Y-100738157D01*
X123687547Y-100720984D01*
X123800773Y-100686637D01*
X123866957Y-100680119D01*
X123933140Y-100673600D01*
X124021660Y-100673600D01*
X124087843Y-100680119D01*
X124087843Y-100680119D01*
G37*
G36*
X115172443Y-98165519D02*
X115238627Y-98172037D01*
X115351853Y-98206384D01*
X115408467Y-98223557D01*
X115547087Y-98297652D01*
X115564991Y-98307222D01*
X115600729Y-98336552D01*
X115702186Y-98419814D01*
X115785448Y-98521271D01*
X115814778Y-98557009D01*
X115814779Y-98557011D01*
X115898443Y-98713533D01*
X115898443Y-98713534D01*
X115949963Y-98883373D01*
X115967359Y-99060000D01*
X115949963Y-99236627D01*
X115915616Y-99349853D01*
X115898443Y-99406467D01*
X115824348Y-99545087D01*
X115814778Y-99562991D01*
X115785448Y-99598729D01*
X115702186Y-99700186D01*
X115600729Y-99783448D01*
X115564991Y-99812778D01*
X115564989Y-99812779D01*
X115408467Y-99896443D01*
X115351853Y-99913616D01*
X115238627Y-99947963D01*
X115172443Y-99954481D01*
X115106260Y-99961000D01*
X115017740Y-99961000D01*
X114951557Y-99954481D01*
X114885373Y-99947963D01*
X114772147Y-99913616D01*
X114715533Y-99896443D01*
X114559011Y-99812779D01*
X114559009Y-99812778D01*
X114523271Y-99783448D01*
X114421814Y-99700186D01*
X114338552Y-99598729D01*
X114309222Y-99562991D01*
X114299652Y-99545087D01*
X114225557Y-99406467D01*
X114208384Y-99349853D01*
X114174037Y-99236627D01*
X114156641Y-99060000D01*
X114174037Y-98883373D01*
X114225557Y-98713534D01*
X114225557Y-98713533D01*
X114309221Y-98557011D01*
X114309222Y-98557009D01*
X114338552Y-98521271D01*
X114421814Y-98419814D01*
X114523271Y-98336552D01*
X114559009Y-98307222D01*
X114576913Y-98297652D01*
X114715533Y-98223557D01*
X114772147Y-98206384D01*
X114885373Y-98172037D01*
X114951557Y-98165519D01*
X115017740Y-98159000D01*
X115106260Y-98159000D01*
X115172443Y-98165519D01*
X115172443Y-98165519D01*
G37*
G36*
X124878400Y-99935600D02*
X123076400Y-99935600D01*
X123076400Y-98133600D01*
X124878400Y-98133600D01*
X124878400Y-99935600D01*
X124878400Y-99935600D01*
G37*
G36*
X106057000Y-98945000D02*
X104255000Y-98945000D01*
X104255000Y-97143000D01*
X106057000Y-97143000D01*
X106057000Y-98945000D01*
X106057000Y-98945000D01*
G37*
G36*
X107806443Y-97149519D02*
X107872627Y-97156037D01*
X107985853Y-97190384D01*
X108042467Y-97207557D01*
X108164485Y-97272778D01*
X108198991Y-97291222D01*
X108234729Y-97320552D01*
X108336186Y-97403814D01*
X108419448Y-97505271D01*
X108448778Y-97541009D01*
X108448779Y-97541011D01*
X108532443Y-97697533D01*
X108532443Y-97697534D01*
X108583963Y-97867373D01*
X108601359Y-98044000D01*
X108583963Y-98220627D01*
X108583074Y-98223557D01*
X108532443Y-98390467D01*
X108516756Y-98419814D01*
X108448778Y-98546991D01*
X108419448Y-98582729D01*
X108336186Y-98684186D01*
X108234729Y-98767448D01*
X108198991Y-98796778D01*
X108198989Y-98796779D01*
X108042467Y-98880443D01*
X107985853Y-98897616D01*
X107872627Y-98931963D01*
X107806443Y-98938481D01*
X107740260Y-98945000D01*
X107651740Y-98945000D01*
X107585558Y-98938482D01*
X107519373Y-98931963D01*
X107406147Y-98897616D01*
X107349533Y-98880443D01*
X107193011Y-98796779D01*
X107193009Y-98796778D01*
X107157271Y-98767448D01*
X107055814Y-98684186D01*
X106972552Y-98582729D01*
X106943222Y-98546991D01*
X106875244Y-98419814D01*
X106859557Y-98390467D01*
X106808926Y-98223557D01*
X106808037Y-98220627D01*
X106790641Y-98044000D01*
X106808037Y-97867373D01*
X106859557Y-97697534D01*
X106859557Y-97697533D01*
X106943221Y-97541011D01*
X106943222Y-97541009D01*
X106972552Y-97505271D01*
X107055814Y-97403814D01*
X107157271Y-97320552D01*
X107193009Y-97291222D01*
X107227515Y-97272778D01*
X107349533Y-97207557D01*
X107406147Y-97190384D01*
X107519373Y-97156037D01*
X107585558Y-97149518D01*
X107651740Y-97143000D01*
X107740260Y-97143000D01*
X107806443Y-97149519D01*
X107806443Y-97149519D01*
G37*
G36*
X115172442Y-95625518D02*
X115238627Y-95632037D01*
X115351853Y-95666384D01*
X115408467Y-95683557D01*
X115547087Y-95757652D01*
X115564991Y-95767222D01*
X115600729Y-95796552D01*
X115702186Y-95879814D01*
X115785448Y-95981271D01*
X115814778Y-96017009D01*
X115814779Y-96017011D01*
X115898443Y-96173533D01*
X115898443Y-96173534D01*
X115949963Y-96343373D01*
X115967359Y-96520000D01*
X115949963Y-96696627D01*
X115915616Y-96809853D01*
X115898443Y-96866467D01*
X115824348Y-97005087D01*
X115814778Y-97022991D01*
X115785448Y-97058729D01*
X115702186Y-97160186D01*
X115600729Y-97243448D01*
X115564991Y-97272778D01*
X115564989Y-97272779D01*
X115408467Y-97356443D01*
X115351853Y-97373616D01*
X115238627Y-97407963D01*
X115172442Y-97414482D01*
X115106260Y-97421000D01*
X115017740Y-97421000D01*
X114951558Y-97414482D01*
X114885373Y-97407963D01*
X114772147Y-97373616D01*
X114715533Y-97356443D01*
X114559011Y-97272779D01*
X114559009Y-97272778D01*
X114523271Y-97243448D01*
X114421814Y-97160186D01*
X114338552Y-97058729D01*
X114309222Y-97022991D01*
X114299652Y-97005087D01*
X114225557Y-96866467D01*
X114208384Y-96809853D01*
X114174037Y-96696627D01*
X114156641Y-96520000D01*
X114174037Y-96343373D01*
X114225557Y-96173534D01*
X114225557Y-96173533D01*
X114309221Y-96017011D01*
X114309222Y-96017009D01*
X114338552Y-95981271D01*
X114421814Y-95879814D01*
X114523271Y-95796552D01*
X114559009Y-95767222D01*
X114576913Y-95757652D01*
X114715533Y-95683557D01*
X114772147Y-95666384D01*
X114885373Y-95632037D01*
X114951558Y-95625518D01*
X115017740Y-95619000D01*
X115106260Y-95619000D01*
X115172442Y-95625518D01*
X115172442Y-95625518D01*
G37*
G36*
X120222677Y-94374465D02*
X120260364Y-94385898D01*
X120295103Y-94404466D01*
X120325548Y-94429452D01*
X120350534Y-94459897D01*
X120369102Y-94494636D01*
X120380535Y-94532323D01*
X120385000Y-94577661D01*
X120385000Y-95414339D01*
X120380535Y-95459677D01*
X120369102Y-95497364D01*
X120350534Y-95532103D01*
X120325548Y-95562548D01*
X120295103Y-95587534D01*
X120260364Y-95606102D01*
X120222677Y-95617535D01*
X120177339Y-95622000D01*
X119090661Y-95622000D01*
X119045323Y-95617535D01*
X119007636Y-95606102D01*
X118972897Y-95587534D01*
X118942452Y-95562548D01*
X118917466Y-95532103D01*
X118898898Y-95497364D01*
X118887465Y-95459677D01*
X118883000Y-95414339D01*
X118883000Y-94577661D01*
X118887465Y-94532323D01*
X118898898Y-94494636D01*
X118917466Y-94459897D01*
X118942452Y-94429452D01*
X118972897Y-94404466D01*
X119007636Y-94385898D01*
X119045323Y-94374465D01*
X119090661Y-94370000D01*
X120177339Y-94370000D01*
X120222677Y-94374465D01*
X120222677Y-94374465D01*
G37*
G36*
X128757643Y-93971781D02*
X128903415Y-94032162D01*
X129034611Y-94119824D01*
X129146176Y-94231389D01*
X129233838Y-94362585D01*
X129294219Y-94508357D01*
X129325000Y-94663107D01*
X129325000Y-94820893D01*
X129294219Y-94975643D01*
X129233838Y-95121415D01*
X129146176Y-95252611D01*
X129034611Y-95364176D01*
X128903415Y-95451838D01*
X128757643Y-95512219D01*
X128602893Y-95543000D01*
X128445107Y-95543000D01*
X128290357Y-95512219D01*
X128144585Y-95451838D01*
X128013389Y-95364176D01*
X127901824Y-95252611D01*
X127814162Y-95121415D01*
X127753781Y-94975643D01*
X127723000Y-94820893D01*
X127723000Y-94663107D01*
X127753781Y-94508357D01*
X127814162Y-94362585D01*
X127901824Y-94231389D01*
X128013389Y-94119824D01*
X128144585Y-94032162D01*
X128290357Y-93971781D01*
X128445107Y-93941000D01*
X128602893Y-93941000D01*
X128757643Y-93971781D01*
X128757643Y-93971781D01*
G37*
G36*
X131297643Y-93971781D02*
X131443415Y-94032162D01*
X131574611Y-94119824D01*
X131686176Y-94231389D01*
X131773838Y-94362585D01*
X131834219Y-94508357D01*
X131865000Y-94663107D01*
X131865000Y-94820893D01*
X131834219Y-94975643D01*
X131773838Y-95121415D01*
X131686176Y-95252611D01*
X131574611Y-95364176D01*
X131443415Y-95451838D01*
X131297643Y-95512219D01*
X131142893Y-95543000D01*
X130985107Y-95543000D01*
X130830357Y-95512219D01*
X130684585Y-95451838D01*
X130553389Y-95364176D01*
X130441824Y-95252611D01*
X130354162Y-95121415D01*
X130293781Y-94975643D01*
X130263000Y-94820893D01*
X130263000Y-94663107D01*
X130293781Y-94508357D01*
X130354162Y-94362585D01*
X130441824Y-94231389D01*
X130553389Y-94119824D01*
X130684585Y-94032162D01*
X130830357Y-93971781D01*
X130985107Y-93941000D01*
X131142893Y-93941000D01*
X131297643Y-93971781D01*
X131297643Y-93971781D01*
G37*
G36*
X133837643Y-93971781D02*
X133983415Y-94032162D01*
X134114611Y-94119824D01*
X134226176Y-94231389D01*
X134313838Y-94362585D01*
X134374219Y-94508357D01*
X134405000Y-94663107D01*
X134405000Y-94820893D01*
X134374219Y-94975643D01*
X134313838Y-95121415D01*
X134226176Y-95252611D01*
X134114611Y-95364176D01*
X133983415Y-95451838D01*
X133837643Y-95512219D01*
X133682893Y-95543000D01*
X133525107Y-95543000D01*
X133370357Y-95512219D01*
X133224585Y-95451838D01*
X133093389Y-95364176D01*
X132981824Y-95252611D01*
X132894162Y-95121415D01*
X132833781Y-94975643D01*
X132803000Y-94820893D01*
X132803000Y-94663107D01*
X132833781Y-94508357D01*
X132894162Y-94362585D01*
X132981824Y-94231389D01*
X133093389Y-94119824D01*
X133224585Y-94032162D01*
X133370357Y-93971781D01*
X133525107Y-93941000D01*
X133682893Y-93941000D01*
X133837643Y-93971781D01*
X133837643Y-93971781D01*
G37*
G36*
X107806442Y-93339518D02*
X107872627Y-93346037D01*
X107985853Y-93380384D01*
X108042467Y-93397557D01*
X108135648Y-93447364D01*
X108198991Y-93481222D01*
X108234729Y-93510552D01*
X108336186Y-93593814D01*
X108419448Y-93695271D01*
X108448778Y-93731009D01*
X108448779Y-93731011D01*
X108532443Y-93887533D01*
X108532443Y-93887534D01*
X108583963Y-94057373D01*
X108601359Y-94234000D01*
X108583963Y-94410627D01*
X108559594Y-94490962D01*
X108532443Y-94580467D01*
X108511213Y-94620185D01*
X108448778Y-94736991D01*
X108419448Y-94772729D01*
X108336186Y-94874186D01*
X108234729Y-94957448D01*
X108198991Y-94986778D01*
X108198989Y-94986779D01*
X108042467Y-95070443D01*
X107985853Y-95087616D01*
X107872627Y-95121963D01*
X107806442Y-95128482D01*
X107740260Y-95135000D01*
X107651740Y-95135000D01*
X107585558Y-95128482D01*
X107519373Y-95121963D01*
X107406147Y-95087616D01*
X107349533Y-95070443D01*
X107193011Y-94986779D01*
X107193009Y-94986778D01*
X107157271Y-94957448D01*
X107055814Y-94874186D01*
X106972552Y-94772729D01*
X106943222Y-94736991D01*
X106880787Y-94620185D01*
X106859557Y-94580467D01*
X106832406Y-94490962D01*
X106808037Y-94410627D01*
X106790641Y-94234000D01*
X106808037Y-94057373D01*
X106859557Y-93887534D01*
X106859557Y-93887533D01*
X106943221Y-93731011D01*
X106943222Y-93731009D01*
X106972552Y-93695271D01*
X107055814Y-93593814D01*
X107157271Y-93510552D01*
X107193009Y-93481222D01*
X107256352Y-93447364D01*
X107349533Y-93397557D01*
X107406147Y-93380384D01*
X107519373Y-93346037D01*
X107585558Y-93339518D01*
X107651740Y-93333000D01*
X107740260Y-93333000D01*
X107806442Y-93339518D01*
X107806442Y-93339518D01*
G37*
G36*
X106057000Y-95135000D02*
X104255000Y-95135000D01*
X104255000Y-93333000D01*
X106057000Y-93333000D01*
X106057000Y-95135000D01*
X106057000Y-95135000D01*
G37*
G36*
X115172443Y-93085519D02*
X115238627Y-93092037D01*
X115351853Y-93126384D01*
X115408467Y-93143557D01*
X115547087Y-93217652D01*
X115564991Y-93227222D01*
X115600729Y-93256552D01*
X115702186Y-93339814D01*
X115754847Y-93403983D01*
X115814778Y-93477009D01*
X115814779Y-93477011D01*
X115898443Y-93633533D01*
X115898443Y-93633534D01*
X115949963Y-93803373D01*
X115967359Y-93980000D01*
X115949963Y-94156627D01*
X115927284Y-94231389D01*
X115898443Y-94326467D01*
X115832563Y-94449718D01*
X115814778Y-94482991D01*
X115785448Y-94518729D01*
X115702186Y-94620186D01*
X115600729Y-94703448D01*
X115564991Y-94732778D01*
X115564989Y-94732779D01*
X115408467Y-94816443D01*
X115351853Y-94833616D01*
X115238627Y-94867963D01*
X115175453Y-94874185D01*
X115106260Y-94881000D01*
X115017740Y-94881000D01*
X114948547Y-94874185D01*
X114885373Y-94867963D01*
X114772147Y-94833616D01*
X114715533Y-94816443D01*
X114559011Y-94732779D01*
X114559009Y-94732778D01*
X114523271Y-94703448D01*
X114421814Y-94620186D01*
X114338552Y-94518729D01*
X114309222Y-94482991D01*
X114291437Y-94449718D01*
X114225557Y-94326467D01*
X114196716Y-94231389D01*
X114174037Y-94156627D01*
X114156641Y-93980000D01*
X114174037Y-93803373D01*
X114225557Y-93633534D01*
X114225557Y-93633533D01*
X114309221Y-93477011D01*
X114309222Y-93477009D01*
X114369153Y-93403983D01*
X114421814Y-93339814D01*
X114523271Y-93256552D01*
X114559009Y-93227222D01*
X114576913Y-93217652D01*
X114715533Y-93143557D01*
X114772147Y-93126384D01*
X114885373Y-93092037D01*
X114951557Y-93085519D01*
X115017740Y-93079000D01*
X115106260Y-93079000D01*
X115172443Y-93085519D01*
X115172443Y-93085519D01*
G37*
G36*
X120222677Y-92324465D02*
X120260364Y-92335898D01*
X120295103Y-92354466D01*
X120325548Y-92379452D01*
X120350534Y-92409897D01*
X120369102Y-92444636D01*
X120380535Y-92482323D01*
X120385000Y-92527661D01*
X120385000Y-93364339D01*
X120380535Y-93409677D01*
X120369102Y-93447364D01*
X120350534Y-93482103D01*
X120325548Y-93512548D01*
X120295103Y-93537534D01*
X120260364Y-93556102D01*
X120222677Y-93567535D01*
X120177339Y-93572000D01*
X119090661Y-93572000D01*
X119045323Y-93567535D01*
X119007636Y-93556102D01*
X118972897Y-93537534D01*
X118942452Y-93512548D01*
X118917466Y-93482103D01*
X118898898Y-93447364D01*
X118887465Y-93409677D01*
X118883000Y-93364339D01*
X118883000Y-92527661D01*
X118887465Y-92482323D01*
X118898898Y-92444636D01*
X118917466Y-92409897D01*
X118942452Y-92379452D01*
X118972897Y-92354466D01*
X119007636Y-92335898D01*
X119045323Y-92324465D01*
X119090661Y-92320000D01*
X120177339Y-92320000D01*
X120222677Y-92324465D01*
X120222677Y-92324465D01*
G37*
G36*
X136029000Y-91833000D02*
X134227000Y-91833000D01*
X134227000Y-90031000D01*
X136029000Y-90031000D01*
X136029000Y-91833000D01*
X136029000Y-91833000D01*
G37*
G36*
X129683000Y-91179000D02*
X128381000Y-91179000D01*
X128381000Y-90177000D01*
X129683000Y-90177000D01*
X129683000Y-91179000D01*
X129683000Y-91179000D01*
G37*
G36*
X110857000Y-90967000D02*
X110155000Y-90967000D01*
X110155000Y-88865000D01*
X110857000Y-88865000D01*
X110857000Y-90967000D01*
X110857000Y-90967000D01*
G37*
G36*
X111857000Y-90967000D02*
X111155000Y-90967000D01*
X111155000Y-88865000D01*
X111857000Y-88865000D01*
X111857000Y-90967000D01*
X111857000Y-90967000D01*
G37*
G36*
X114857000Y-90967000D02*
X114155000Y-90967000D01*
X114155000Y-88865000D01*
X114857000Y-88865000D01*
X114857000Y-90967000D01*
X114857000Y-90967000D01*
G37*
G36*
X119857000Y-90967000D02*
X119155000Y-90967000D01*
X119155000Y-88865000D01*
X119857000Y-88865000D01*
X119857000Y-90967000D01*
X119857000Y-90967000D01*
G37*
G36*
X121857000Y-90967000D02*
X121155000Y-90967000D01*
X121155000Y-88865000D01*
X121857000Y-88865000D01*
X121857000Y-90967000D01*
X121857000Y-90967000D01*
G37*
G36*
X120857000Y-90967000D02*
X120155000Y-90967000D01*
X120155000Y-88865000D01*
X120857000Y-88865000D01*
X120857000Y-90967000D01*
X120857000Y-90967000D01*
G37*
G36*
X122857000Y-90967000D02*
X122155000Y-90967000D01*
X122155000Y-88865000D01*
X122857000Y-88865000D01*
X122857000Y-90967000D01*
X122857000Y-90967000D01*
G37*
G36*
X124857000Y-90967000D02*
X124155000Y-90967000D01*
X124155000Y-89115000D01*
X124857000Y-89115000D01*
X124857000Y-90967000D01*
X124857000Y-90967000D01*
G37*
G36*
X123857000Y-90967000D02*
X123155000Y-90967000D01*
X123155000Y-88865000D01*
X123857000Y-88865000D01*
X123857000Y-90967000D01*
X123857000Y-90967000D01*
G37*
G36*
X108857000Y-90967000D02*
X108155000Y-90967000D01*
X108155000Y-88865000D01*
X108857000Y-88865000D01*
X108857000Y-90967000D01*
X108857000Y-90967000D01*
G37*
G36*
X109857000Y-90967000D02*
X109155000Y-90967000D01*
X109155000Y-88865000D01*
X109857000Y-88865000D01*
X109857000Y-90967000D01*
X109857000Y-90967000D01*
G37*
G36*
X112857000Y-90967000D02*
X112155000Y-90967000D01*
X112155000Y-88865000D01*
X112857000Y-88865000D01*
X112857000Y-90967000D01*
X112857000Y-90967000D01*
G37*
G36*
X113857000Y-90967000D02*
X113155000Y-90967000D01*
X113155000Y-88865000D01*
X113857000Y-88865000D01*
X113857000Y-90967000D01*
X113857000Y-90967000D01*
G37*
G36*
X118857000Y-90967000D02*
X118155000Y-90967000D01*
X118155000Y-88865000D01*
X118857000Y-88865000D01*
X118857000Y-90967000D01*
X118857000Y-90967000D01*
G37*
G36*
X116857000Y-90967000D02*
X116155000Y-90967000D01*
X116155000Y-88865000D01*
X116857000Y-88865000D01*
X116857000Y-90967000D01*
X116857000Y-90967000D01*
G37*
G36*
X117857000Y-90967000D02*
X117155000Y-90967000D01*
X117155000Y-88865000D01*
X117857000Y-88865000D01*
X117857000Y-90967000D01*
X117857000Y-90967000D01*
G37*
G36*
X115857000Y-90967000D02*
X115155000Y-90967000D01*
X115155000Y-88865000D01*
X115857000Y-88865000D01*
X115857000Y-90967000D01*
X115857000Y-90967000D01*
G37*
G36*
X132414677Y-88504965D02*
X132452364Y-88516398D01*
X132487103Y-88534966D01*
X132517548Y-88559952D01*
X132542534Y-88590397D01*
X132561102Y-88625136D01*
X132572535Y-88662823D01*
X132577000Y-88708161D01*
X132577000Y-89544839D01*
X132572535Y-89590177D01*
X132561102Y-89627864D01*
X132542534Y-89662603D01*
X132517548Y-89693048D01*
X132487103Y-89718034D01*
X132452364Y-89736602D01*
X132414677Y-89748035D01*
X132369339Y-89752500D01*
X131282661Y-89752500D01*
X131237323Y-89748035D01*
X131199636Y-89736602D01*
X131164897Y-89718034D01*
X131134452Y-89693048D01*
X131109466Y-89662603D01*
X131090898Y-89627864D01*
X131079465Y-89590177D01*
X131075000Y-89544839D01*
X131075000Y-88708161D01*
X131079465Y-88662823D01*
X131090898Y-88625136D01*
X131109466Y-88590397D01*
X131134452Y-88559952D01*
X131164897Y-88534966D01*
X131199636Y-88516398D01*
X131237323Y-88504965D01*
X131282661Y-88500500D01*
X132369339Y-88500500D01*
X132414677Y-88504965D01*
X132414677Y-88504965D01*
G37*
G36*
X135211237Y-87494839D02*
X135304627Y-87504037D01*
X135404994Y-87534483D01*
X135474467Y-87555557D01*
X135523073Y-87581538D01*
X135630991Y-87639222D01*
X135666098Y-87668034D01*
X135768186Y-87751814D01*
X135851448Y-87853271D01*
X135880778Y-87889009D01*
X135880779Y-87889011D01*
X135964443Y-88045533D01*
X135964443Y-88045534D01*
X136015963Y-88215373D01*
X136033359Y-88392000D01*
X136015963Y-88568627D01*
X135998821Y-88625136D01*
X135964443Y-88738467D01*
X135896809Y-88865000D01*
X135880778Y-88894991D01*
X135851448Y-88930729D01*
X135768186Y-89032186D01*
X135667275Y-89115000D01*
X135630991Y-89144778D01*
X135630989Y-89144779D01*
X135474467Y-89228443D01*
X135417853Y-89245616D01*
X135304627Y-89279963D01*
X135238443Y-89286481D01*
X135172260Y-89293000D01*
X135083740Y-89293000D01*
X135017557Y-89286481D01*
X134951373Y-89279963D01*
X134838147Y-89245616D01*
X134781533Y-89228443D01*
X134625011Y-89144779D01*
X134625009Y-89144778D01*
X134588725Y-89115000D01*
X134487814Y-89032186D01*
X134404552Y-88930729D01*
X134375222Y-88894991D01*
X134359191Y-88865000D01*
X134291557Y-88738467D01*
X134257179Y-88625136D01*
X134240037Y-88568627D01*
X134222641Y-88392000D01*
X134240037Y-88215373D01*
X134291557Y-88045534D01*
X134291557Y-88045533D01*
X134375221Y-87889011D01*
X134375222Y-87889009D01*
X134404552Y-87853271D01*
X134487814Y-87751814D01*
X134589902Y-87668034D01*
X134625009Y-87639222D01*
X134732927Y-87581538D01*
X134781533Y-87555557D01*
X134851006Y-87534483D01*
X134951373Y-87504037D01*
X135044763Y-87494839D01*
X135083740Y-87491000D01*
X135172260Y-87491000D01*
X135211237Y-87494839D01*
X135211237Y-87494839D01*
G37*
G36*
X126887000Y-88817000D02*
X125035000Y-88817000D01*
X125035000Y-88115000D01*
X126887000Y-88115000D01*
X126887000Y-88817000D01*
X126887000Y-88817000D01*
G37*
G36*
X129683000Y-87879000D02*
X128381000Y-87879000D01*
X128381000Y-86877000D01*
X129683000Y-86877000D01*
X129683000Y-87879000D01*
X129683000Y-87879000D01*
G37*
G36*
X126887000Y-87817000D02*
X124785000Y-87817000D01*
X124785000Y-87115000D01*
X126887000Y-87115000D01*
X126887000Y-87817000D01*
X126887000Y-87817000D01*
G37*
G36*
X132414677Y-86454965D02*
X132452364Y-86466398D01*
X132487103Y-86484966D01*
X132517548Y-86509952D01*
X132542534Y-86540397D01*
X132561102Y-86575136D01*
X132572535Y-86612823D01*
X132577000Y-86658161D01*
X132577000Y-87494839D01*
X132572535Y-87540177D01*
X132561102Y-87577864D01*
X132542534Y-87612603D01*
X132517548Y-87643048D01*
X132487103Y-87668034D01*
X132452364Y-87686602D01*
X132414677Y-87698035D01*
X132369339Y-87702500D01*
X131282661Y-87702500D01*
X131237323Y-87698035D01*
X131199636Y-87686602D01*
X131164897Y-87668034D01*
X131134452Y-87643048D01*
X131109466Y-87612603D01*
X131090898Y-87577864D01*
X131079465Y-87540177D01*
X131075000Y-87494839D01*
X131075000Y-86658161D01*
X131079465Y-86612823D01*
X131090898Y-86575136D01*
X131109466Y-86540397D01*
X131134452Y-86509952D01*
X131164897Y-86484966D01*
X131199636Y-86466398D01*
X131237323Y-86454965D01*
X131282661Y-86450500D01*
X132369339Y-86450500D01*
X132414677Y-86454965D01*
X132414677Y-86454965D01*
G37*
G36*
X126887000Y-86817000D02*
X124785000Y-86817000D01*
X124785000Y-86115000D01*
X126887000Y-86115000D01*
X126887000Y-86817000D01*
X126887000Y-86817000D01*
G37*
G36*
X135238442Y-84957518D02*
X135304627Y-84964037D01*
X135393812Y-84991091D01*
X135474467Y-85015557D01*
X135613087Y-85089652D01*
X135630991Y-85099222D01*
X135650216Y-85115000D01*
X135768186Y-85211814D01*
X135851448Y-85313271D01*
X135880778Y-85349009D01*
X135880779Y-85349011D01*
X135964443Y-85505533D01*
X135964443Y-85505534D01*
X136015963Y-85675373D01*
X136033359Y-85852000D01*
X136015963Y-86028627D01*
X135989762Y-86115000D01*
X135964443Y-86198467D01*
X135890348Y-86337087D01*
X135880778Y-86354991D01*
X135868293Y-86370204D01*
X135768186Y-86492186D01*
X135671586Y-86571462D01*
X135630991Y-86604778D01*
X135630989Y-86604779D01*
X135474467Y-86688443D01*
X135417853Y-86705616D01*
X135304627Y-86739963D01*
X135238443Y-86746481D01*
X135172260Y-86753000D01*
X135083740Y-86753000D01*
X135017557Y-86746481D01*
X134951373Y-86739963D01*
X134838147Y-86705616D01*
X134781533Y-86688443D01*
X134625011Y-86604779D01*
X134625009Y-86604778D01*
X134584414Y-86571462D01*
X134487814Y-86492186D01*
X134387707Y-86370204D01*
X134375222Y-86354991D01*
X134365652Y-86337087D01*
X134291557Y-86198467D01*
X134266238Y-86115000D01*
X134240037Y-86028627D01*
X134222641Y-85852000D01*
X134240037Y-85675373D01*
X134291557Y-85505534D01*
X134291557Y-85505533D01*
X134375221Y-85349011D01*
X134375222Y-85349009D01*
X134404552Y-85313271D01*
X134487814Y-85211814D01*
X134605784Y-85115000D01*
X134625009Y-85099222D01*
X134642913Y-85089652D01*
X134781533Y-85015557D01*
X134862188Y-84991091D01*
X134951373Y-84964037D01*
X135017558Y-84957518D01*
X135083740Y-84951000D01*
X135172260Y-84951000D01*
X135238442Y-84957518D01*
X135238442Y-84957518D01*
G37*
G36*
X128826938Y-85737716D02*
X128847556Y-85743970D01*
X128866556Y-85754126D01*
X128883208Y-85767792D01*
X128896874Y-85784444D01*
X128907030Y-85803444D01*
X128913284Y-85824062D01*
X128916000Y-85851640D01*
X128916000Y-86360360D01*
X128913284Y-86387938D01*
X128907030Y-86408556D01*
X128896874Y-86427556D01*
X128883208Y-86444208D01*
X128866556Y-86457874D01*
X128847556Y-86468030D01*
X128826938Y-86474284D01*
X128799360Y-86477000D01*
X128340640Y-86477000D01*
X128313062Y-86474284D01*
X128292444Y-86468030D01*
X128273444Y-86457874D01*
X128256792Y-86444208D01*
X128243126Y-86427556D01*
X128232970Y-86408556D01*
X128226716Y-86387938D01*
X128224000Y-86360360D01*
X128224000Y-85851640D01*
X128226716Y-85824062D01*
X128232970Y-85803444D01*
X128243126Y-85784444D01*
X128256792Y-85767792D01*
X128273444Y-85754126D01*
X128292444Y-85743970D01*
X128313062Y-85737716D01*
X128340640Y-85735000D01*
X128799360Y-85735000D01*
X128826938Y-85737716D01*
X128826938Y-85737716D01*
G37*
G36*
X129796938Y-85737716D02*
X129817556Y-85743970D01*
X129836556Y-85754126D01*
X129853208Y-85767792D01*
X129866874Y-85784444D01*
X129877030Y-85803444D01*
X129883284Y-85824062D01*
X129886000Y-85851640D01*
X129886000Y-86360360D01*
X129883284Y-86387938D01*
X129877030Y-86408556D01*
X129866874Y-86427556D01*
X129853208Y-86444208D01*
X129836556Y-86457874D01*
X129817556Y-86468030D01*
X129796938Y-86474284D01*
X129769360Y-86477000D01*
X129310640Y-86477000D01*
X129283062Y-86474284D01*
X129262444Y-86468030D01*
X129243444Y-86457874D01*
X129226792Y-86444208D01*
X129213126Y-86427556D01*
X129202970Y-86408556D01*
X129196716Y-86387938D01*
X129194000Y-86360360D01*
X129194000Y-85851640D01*
X129196716Y-85824062D01*
X129202970Y-85803444D01*
X129213126Y-85784444D01*
X129226792Y-85767792D01*
X129243444Y-85754126D01*
X129262444Y-85743970D01*
X129283062Y-85737716D01*
X129310640Y-85735000D01*
X129769360Y-85735000D01*
X129796938Y-85737716D01*
X129796938Y-85737716D01*
G37*
G36*
X133104899Y-84783845D02*
X133142393Y-84795219D01*
X133176957Y-84813694D01*
X133207247Y-84838553D01*
X133232106Y-84868843D01*
X133250581Y-84903407D01*
X133261955Y-84940901D01*
X133266400Y-84986038D01*
X133266400Y-85724762D01*
X133261955Y-85769899D01*
X133250581Y-85807393D01*
X133232106Y-85841957D01*
X133207247Y-85872247D01*
X133176957Y-85897106D01*
X133142393Y-85915581D01*
X133104899Y-85926955D01*
X133059762Y-85931400D01*
X132421038Y-85931400D01*
X132375901Y-85926955D01*
X132338407Y-85915581D01*
X132303843Y-85897106D01*
X132273553Y-85872247D01*
X132248694Y-85841957D01*
X132230219Y-85807393D01*
X132218845Y-85769899D01*
X132214400Y-85724762D01*
X132214400Y-84986038D01*
X132218845Y-84940901D01*
X132230219Y-84903407D01*
X132248694Y-84868843D01*
X132273553Y-84838553D01*
X132303843Y-84813694D01*
X132338407Y-84795219D01*
X132375901Y-84783845D01*
X132421038Y-84779400D01*
X133059762Y-84779400D01*
X133104899Y-84783845D01*
X133104899Y-84783845D01*
G37*
G36*
X126887000Y-85817000D02*
X124785000Y-85817000D01*
X124785000Y-85115000D01*
X126887000Y-85115000D01*
X126887000Y-85817000D01*
X126887000Y-85817000D01*
G37*
G36*
X131403099Y-83793245D02*
X131440593Y-83804619D01*
X131475157Y-83823094D01*
X131505447Y-83847953D01*
X131530306Y-83878243D01*
X131548781Y-83912807D01*
X131560155Y-83950301D01*
X131564600Y-83995438D01*
X131564600Y-84734162D01*
X131560155Y-84779299D01*
X131548781Y-84816793D01*
X131530306Y-84851357D01*
X131505447Y-84881647D01*
X131475157Y-84906506D01*
X131440593Y-84924981D01*
X131403099Y-84936355D01*
X131357962Y-84940800D01*
X130719238Y-84940800D01*
X130674101Y-84936355D01*
X130636607Y-84924981D01*
X130602043Y-84906506D01*
X130571753Y-84881647D01*
X130546894Y-84851357D01*
X130528419Y-84816793D01*
X130517045Y-84779299D01*
X130512600Y-84734162D01*
X130512600Y-83995438D01*
X130517045Y-83950301D01*
X130528419Y-83912807D01*
X130546894Y-83878243D01*
X130571753Y-83847953D01*
X130602043Y-83823094D01*
X130636607Y-83804619D01*
X130674101Y-83793245D01*
X130719238Y-83788800D01*
X131357962Y-83788800D01*
X131403099Y-83793245D01*
X131403099Y-83793245D01*
G37*
G36*
X126887000Y-84817000D02*
X124785000Y-84817000D01*
X124785000Y-84115000D01*
X126887000Y-84115000D01*
X126887000Y-84817000D01*
X126887000Y-84817000D01*
G37*
G36*
X135238443Y-82417519D02*
X135304627Y-82424037D01*
X135417853Y-82458384D01*
X135474467Y-82475557D01*
X135613087Y-82549652D01*
X135630991Y-82559222D01*
X135666729Y-82588552D01*
X135768186Y-82671814D01*
X135851448Y-82773271D01*
X135880778Y-82809009D01*
X135880779Y-82809011D01*
X135964443Y-82965533D01*
X135964904Y-82967053D01*
X136015963Y-83135373D01*
X136033359Y-83312000D01*
X136015963Y-83488627D01*
X135981616Y-83601853D01*
X135964443Y-83658467D01*
X135892402Y-83793245D01*
X135880778Y-83814991D01*
X135865897Y-83833123D01*
X135768186Y-83952186D01*
X135685676Y-84019899D01*
X135630991Y-84064778D01*
X135630989Y-84064779D01*
X135474467Y-84148443D01*
X135417969Y-84165581D01*
X135304627Y-84199963D01*
X135238442Y-84206482D01*
X135172260Y-84213000D01*
X135083740Y-84213000D01*
X135017558Y-84206482D01*
X134951373Y-84199963D01*
X134838031Y-84165581D01*
X134781533Y-84148443D01*
X134625011Y-84064779D01*
X134625009Y-84064778D01*
X134570324Y-84019899D01*
X134487814Y-83952186D01*
X134390103Y-83833123D01*
X134375222Y-83814991D01*
X134363598Y-83793245D01*
X134291557Y-83658467D01*
X134274384Y-83601853D01*
X134240037Y-83488627D01*
X134222641Y-83312000D01*
X134240037Y-83135373D01*
X134291096Y-82967053D01*
X134291557Y-82965533D01*
X134375221Y-82809011D01*
X134375222Y-82809009D01*
X134404552Y-82773271D01*
X134487814Y-82671814D01*
X134589271Y-82588552D01*
X134625009Y-82559222D01*
X134642913Y-82549652D01*
X134781533Y-82475557D01*
X134838147Y-82458384D01*
X134951373Y-82424037D01*
X135017557Y-82417519D01*
X135083740Y-82411000D01*
X135172260Y-82411000D01*
X135238443Y-82417519D01*
X135238443Y-82417519D01*
G37*
G36*
X133104899Y-83033845D02*
X133142393Y-83045219D01*
X133176957Y-83063694D01*
X133207247Y-83088553D01*
X133232106Y-83118843D01*
X133250581Y-83153407D01*
X133261955Y-83190901D01*
X133266400Y-83236038D01*
X133266400Y-83974762D01*
X133261955Y-84019899D01*
X133250581Y-84057393D01*
X133232106Y-84091957D01*
X133207247Y-84122247D01*
X133176957Y-84147106D01*
X133142393Y-84165581D01*
X133104899Y-84176955D01*
X133059762Y-84181400D01*
X132421038Y-84181400D01*
X132375901Y-84176955D01*
X132338407Y-84165581D01*
X132303843Y-84147106D01*
X132273553Y-84122247D01*
X132248694Y-84091957D01*
X132230219Y-84057393D01*
X132218845Y-84019899D01*
X132214400Y-83974762D01*
X132214400Y-83236038D01*
X132218845Y-83190901D01*
X132230219Y-83153407D01*
X132248694Y-83118843D01*
X132273553Y-83088553D01*
X132303843Y-83063694D01*
X132338407Y-83045219D01*
X132375901Y-83033845D01*
X132421038Y-83029400D01*
X133059762Y-83029400D01*
X133104899Y-83033845D01*
X133104899Y-83033845D01*
G37*
G36*
X128568499Y-82966445D02*
X128605993Y-82977819D01*
X128640557Y-82996294D01*
X128670847Y-83021153D01*
X128695706Y-83051443D01*
X128714181Y-83086007D01*
X128725555Y-83123501D01*
X128730000Y-83168638D01*
X128730000Y-83907362D01*
X128725555Y-83952499D01*
X128714181Y-83989993D01*
X128695706Y-84024557D01*
X128670847Y-84054847D01*
X128640557Y-84079706D01*
X128605993Y-84098181D01*
X128568499Y-84109555D01*
X128523362Y-84114000D01*
X127884638Y-84114000D01*
X127839501Y-84109555D01*
X127802007Y-84098181D01*
X127767443Y-84079706D01*
X127737153Y-84054847D01*
X127712294Y-84024557D01*
X127693819Y-83989993D01*
X127682445Y-83952499D01*
X127678000Y-83907362D01*
X127678000Y-83168638D01*
X127682445Y-83123501D01*
X127693819Y-83086007D01*
X127712294Y-83051443D01*
X127737153Y-83021153D01*
X127767443Y-82996294D01*
X127802007Y-82977819D01*
X127839501Y-82966445D01*
X127884638Y-82962000D01*
X128523362Y-82962000D01*
X128568499Y-82966445D01*
X128568499Y-82966445D01*
G37*
G36*
X126887000Y-83817000D02*
X124785000Y-83817000D01*
X124785000Y-83115000D01*
X126887000Y-83115000D01*
X126887000Y-83817000D01*
X126887000Y-83817000D01*
G37*
G36*
X131403099Y-82043245D02*
X131440593Y-82054619D01*
X131475157Y-82073094D01*
X131505447Y-82097953D01*
X131530306Y-82128243D01*
X131548781Y-82162807D01*
X131560155Y-82200301D01*
X131564600Y-82245438D01*
X131564600Y-82984162D01*
X131560155Y-83029299D01*
X131548781Y-83066793D01*
X131530306Y-83101357D01*
X131505447Y-83131647D01*
X131475157Y-83156506D01*
X131440593Y-83174981D01*
X131403099Y-83186355D01*
X131357962Y-83190800D01*
X130719238Y-83190800D01*
X130674101Y-83186355D01*
X130636607Y-83174981D01*
X130602043Y-83156506D01*
X130571753Y-83131647D01*
X130546894Y-83101357D01*
X130528419Y-83066793D01*
X130517045Y-83029299D01*
X130512600Y-82984162D01*
X130512600Y-82245438D01*
X130517045Y-82200301D01*
X130528419Y-82162807D01*
X130546894Y-82128243D01*
X130571753Y-82097953D01*
X130602043Y-82073094D01*
X130636607Y-82054619D01*
X130674101Y-82043245D01*
X130719238Y-82038800D01*
X131357962Y-82038800D01*
X131403099Y-82043245D01*
X131403099Y-82043245D01*
G37*
G36*
X126887000Y-82817000D02*
X124785000Y-82817000D01*
X124785000Y-82115000D01*
X126887000Y-82115000D01*
X126887000Y-82817000D01*
X126887000Y-82817000D01*
G37*
G36*
X128568499Y-81216445D02*
X128605993Y-81227819D01*
X128640557Y-81246294D01*
X128670847Y-81271153D01*
X128695706Y-81301443D01*
X128714181Y-81336007D01*
X128725555Y-81373501D01*
X128730000Y-81418638D01*
X128730000Y-82157362D01*
X128725555Y-82202499D01*
X128714181Y-82239993D01*
X128695706Y-82274557D01*
X128670847Y-82304847D01*
X128640557Y-82329706D01*
X128605993Y-82348181D01*
X128568499Y-82359555D01*
X128523362Y-82364000D01*
X127884638Y-82364000D01*
X127839501Y-82359555D01*
X127802007Y-82348181D01*
X127767443Y-82329706D01*
X127737153Y-82304847D01*
X127712294Y-82274557D01*
X127693819Y-82239993D01*
X127682445Y-82202499D01*
X127678000Y-82157362D01*
X127678000Y-81418638D01*
X127682445Y-81373501D01*
X127693819Y-81336007D01*
X127712294Y-81301443D01*
X127737153Y-81271153D01*
X127767443Y-81246294D01*
X127802007Y-81227819D01*
X127839501Y-81216445D01*
X127884638Y-81212000D01*
X128523362Y-81212000D01*
X128568499Y-81216445D01*
X128568499Y-81216445D01*
G37*
G36*
X126887000Y-81817000D02*
X124785000Y-81817000D01*
X124785000Y-81115000D01*
X126887000Y-81115000D01*
X126887000Y-81817000D01*
X126887000Y-81817000D01*
G37*
G36*
X135238442Y-79877518D02*
X135304627Y-79884037D01*
X135417853Y-79918384D01*
X135474467Y-79935557D01*
X135613087Y-80009652D01*
X135630991Y-80019222D01*
X135666729Y-80048552D01*
X135768186Y-80131814D01*
X135819584Y-80194444D01*
X135880778Y-80269009D01*
X135880779Y-80269011D01*
X135964443Y-80425533D01*
X135964443Y-80425534D01*
X136015963Y-80595373D01*
X136033359Y-80772000D01*
X136015963Y-80948627D01*
X135981616Y-81061853D01*
X135964443Y-81118467D01*
X135914448Y-81212000D01*
X135880778Y-81274991D01*
X135859069Y-81301443D01*
X135768186Y-81412186D01*
X135666729Y-81495448D01*
X135630991Y-81524778D01*
X135630989Y-81524779D01*
X135474467Y-81608443D01*
X135417853Y-81625616D01*
X135304627Y-81659963D01*
X135238442Y-81666482D01*
X135172260Y-81673000D01*
X135083740Y-81673000D01*
X135017558Y-81666482D01*
X134951373Y-81659963D01*
X134838147Y-81625616D01*
X134781533Y-81608443D01*
X134625011Y-81524779D01*
X134625009Y-81524778D01*
X134589271Y-81495448D01*
X134487814Y-81412186D01*
X134396931Y-81301443D01*
X134375222Y-81274991D01*
X134341552Y-81212000D01*
X134291557Y-81118467D01*
X134274384Y-81061853D01*
X134240037Y-80948627D01*
X134222641Y-80772000D01*
X134240037Y-80595373D01*
X134291557Y-80425534D01*
X134291557Y-80425533D01*
X134375221Y-80269011D01*
X134375222Y-80269009D01*
X134436416Y-80194444D01*
X134487814Y-80131814D01*
X134589271Y-80048552D01*
X134625009Y-80019222D01*
X134642913Y-80009652D01*
X134781533Y-79935557D01*
X134838147Y-79918384D01*
X134951373Y-79884037D01*
X135017558Y-79877518D01*
X135083740Y-79871000D01*
X135172260Y-79871000D01*
X135238442Y-79877518D01*
X135238442Y-79877518D01*
G37*
G36*
X128551938Y-80128716D02*
X128572556Y-80134970D01*
X128591556Y-80145126D01*
X128608208Y-80158792D01*
X128621874Y-80175444D01*
X128632030Y-80194444D01*
X128638284Y-80215062D01*
X128641000Y-80242640D01*
X128641000Y-80701360D01*
X128638284Y-80728938D01*
X128632030Y-80749556D01*
X128621874Y-80768556D01*
X128608208Y-80785208D01*
X128591556Y-80798874D01*
X128572556Y-80809030D01*
X128551938Y-80815284D01*
X128524360Y-80818000D01*
X128015640Y-80818000D01*
X127988062Y-80815284D01*
X127967444Y-80809030D01*
X127948444Y-80798874D01*
X127931792Y-80785208D01*
X127918126Y-80768556D01*
X127907970Y-80749556D01*
X127901716Y-80728938D01*
X127899000Y-80701360D01*
X127899000Y-80242640D01*
X127901716Y-80215062D01*
X127907970Y-80194444D01*
X127918126Y-80175444D01*
X127931792Y-80158792D01*
X127948444Y-80145126D01*
X127967444Y-80134970D01*
X127988062Y-80128716D01*
X128015640Y-80126000D01*
X128524360Y-80126000D01*
X128551938Y-80128716D01*
X128551938Y-80128716D01*
G37*
G36*
X126887000Y-80817000D02*
X124785000Y-80817000D01*
X124785000Y-80115000D01*
X126887000Y-80115000D01*
X126887000Y-80817000D01*
X126887000Y-80817000D01*
G37*
G36*
X128551938Y-79158716D02*
X128572556Y-79164970D01*
X128591556Y-79175126D01*
X128608208Y-79188792D01*
X128621874Y-79205444D01*
X128632030Y-79224444D01*
X128638284Y-79245062D01*
X128641000Y-79272640D01*
X128641000Y-79731360D01*
X128638284Y-79758938D01*
X128632030Y-79779556D01*
X128621874Y-79798556D01*
X128608208Y-79815208D01*
X128591556Y-79828874D01*
X128572556Y-79839030D01*
X128551938Y-79845284D01*
X128524360Y-79848000D01*
X128015640Y-79848000D01*
X127988062Y-79845284D01*
X127967444Y-79839030D01*
X127948444Y-79828874D01*
X127931792Y-79815208D01*
X127918126Y-79798556D01*
X127907970Y-79779556D01*
X127901716Y-79758938D01*
X127899000Y-79731360D01*
X127899000Y-79272640D01*
X127901716Y-79245062D01*
X127907970Y-79224444D01*
X127918126Y-79205444D01*
X127931792Y-79188792D01*
X127948444Y-79175126D01*
X127967444Y-79164970D01*
X127988062Y-79158716D01*
X128015640Y-79156000D01*
X128524360Y-79156000D01*
X128551938Y-79158716D01*
X128551938Y-79158716D01*
G37*
G36*
X126887000Y-79817000D02*
X124785000Y-79817000D01*
X124785000Y-79115000D01*
X126887000Y-79115000D01*
X126887000Y-79817000D01*
X126887000Y-79817000D01*
G37*
G36*
X132668677Y-78127465D02*
X132706364Y-78138898D01*
X132741103Y-78157466D01*
X132771548Y-78182452D01*
X132796534Y-78212897D01*
X132815102Y-78247636D01*
X132826535Y-78285323D01*
X132831000Y-78330661D01*
X132831000Y-79167339D01*
X132826535Y-79212677D01*
X132815102Y-79250364D01*
X132796534Y-79285103D01*
X132771548Y-79315548D01*
X132741103Y-79340534D01*
X132706364Y-79359102D01*
X132668677Y-79370535D01*
X132623339Y-79375000D01*
X131536661Y-79375000D01*
X131491323Y-79370535D01*
X131453636Y-79359102D01*
X131418897Y-79340534D01*
X131388452Y-79315548D01*
X131363466Y-79285103D01*
X131344898Y-79250364D01*
X131333465Y-79212677D01*
X131329000Y-79167339D01*
X131329000Y-78330661D01*
X131333465Y-78285323D01*
X131344898Y-78247636D01*
X131363466Y-78212897D01*
X131388452Y-78182452D01*
X131418897Y-78157466D01*
X131453636Y-78138898D01*
X131491323Y-78127465D01*
X131536661Y-78123000D01*
X132623339Y-78123000D01*
X132668677Y-78127465D01*
X132668677Y-78127465D01*
G37*
G36*
X126887000Y-78817000D02*
X124785000Y-78817000D01*
X124785000Y-78115000D01*
X126887000Y-78115000D01*
X126887000Y-78817000D01*
X126887000Y-78817000D01*
G37*
G36*
X126887000Y-77817000D02*
X124785000Y-77817000D01*
X124785000Y-77115000D01*
X126887000Y-77115000D01*
X126887000Y-77817000D01*
X126887000Y-77817000D01*
G37*
G36*
X129620677Y-76566965D02*
X129658364Y-76578398D01*
X129693103Y-76596966D01*
X129723548Y-76621952D01*
X129748534Y-76652397D01*
X129767102Y-76687136D01*
X129778535Y-76724823D01*
X129783000Y-76770161D01*
X129783000Y-77606839D01*
X129778535Y-77652177D01*
X129767102Y-77689864D01*
X129748534Y-77724603D01*
X129723548Y-77755048D01*
X129693103Y-77780034D01*
X129658364Y-77798602D01*
X129620677Y-77810035D01*
X129575339Y-77814500D01*
X128488661Y-77814500D01*
X128443323Y-77810035D01*
X128405636Y-77798602D01*
X128370897Y-77780034D01*
X128340452Y-77755048D01*
X128315466Y-77724603D01*
X128296898Y-77689864D01*
X128285465Y-77652177D01*
X128281000Y-77606839D01*
X128281000Y-76770161D01*
X128285465Y-76724823D01*
X128296898Y-76687136D01*
X128315466Y-76652397D01*
X128340452Y-76621952D01*
X128370897Y-76596966D01*
X128405636Y-76578398D01*
X128443323Y-76566965D01*
X128488661Y-76562500D01*
X129575339Y-76562500D01*
X129620677Y-76566965D01*
X129620677Y-76566965D01*
G37*
G36*
X136029000Y-77609000D02*
X134227000Y-77609000D01*
X134227000Y-75807000D01*
X136029000Y-75807000D01*
X136029000Y-77609000D01*
X136029000Y-77609000D01*
G37*
G36*
X132668677Y-76077465D02*
X132706364Y-76088898D01*
X132741103Y-76107466D01*
X132771548Y-76132452D01*
X132796534Y-76162897D01*
X132815102Y-76197636D01*
X132826535Y-76235323D01*
X132831000Y-76280661D01*
X132831000Y-77117339D01*
X132826535Y-77162677D01*
X132815102Y-77200364D01*
X132796534Y-77235103D01*
X132771548Y-77265548D01*
X132741103Y-77290534D01*
X132706364Y-77309102D01*
X132668677Y-77320535D01*
X132623339Y-77325000D01*
X131536661Y-77325000D01*
X131491323Y-77320535D01*
X131453636Y-77309102D01*
X131418897Y-77290534D01*
X131388452Y-77265548D01*
X131363466Y-77235103D01*
X131344898Y-77200364D01*
X131333465Y-77162677D01*
X131329000Y-77117339D01*
X131329000Y-76280661D01*
X131333465Y-76235323D01*
X131344898Y-76197636D01*
X131363466Y-76162897D01*
X131388452Y-76132452D01*
X131418897Y-76107466D01*
X131453636Y-76088898D01*
X131491323Y-76077465D01*
X131536661Y-76073000D01*
X132623339Y-76073000D01*
X132668677Y-76077465D01*
X132668677Y-76077465D01*
G37*
G36*
X126887000Y-76817000D02*
X125035000Y-76817000D01*
X125035000Y-76115000D01*
X126887000Y-76115000D01*
X126887000Y-76817000D01*
X126887000Y-76817000D01*
G37*
G36*
X113857000Y-76067000D02*
X113155000Y-76067000D01*
X113155000Y-73965000D01*
X113857000Y-73965000D01*
X113857000Y-76067000D01*
X113857000Y-76067000D01*
G37*
G36*
X123857000Y-76067000D02*
X123155000Y-76067000D01*
X123155000Y-73965000D01*
X123857000Y-73965000D01*
X123857000Y-76067000D01*
X123857000Y-76067000D01*
G37*
G36*
X122857000Y-76067000D02*
X122155000Y-76067000D01*
X122155000Y-73965000D01*
X122857000Y-73965000D01*
X122857000Y-76067000D01*
X122857000Y-76067000D01*
G37*
G36*
X121857000Y-76067000D02*
X121155000Y-76067000D01*
X121155000Y-73965000D01*
X121857000Y-73965000D01*
X121857000Y-76067000D01*
X121857000Y-76067000D01*
G37*
G36*
X120857000Y-76067000D02*
X120155000Y-76067000D01*
X120155000Y-73965000D01*
X120857000Y-73965000D01*
X120857000Y-76067000D01*
X120857000Y-76067000D01*
G37*
G36*
X110857000Y-76067000D02*
X110155000Y-76067000D01*
X110155000Y-73965000D01*
X110857000Y-73965000D01*
X110857000Y-76067000D01*
X110857000Y-76067000D01*
G37*
G36*
X119857000Y-76067000D02*
X119155000Y-76067000D01*
X119155000Y-73965000D01*
X119857000Y-73965000D01*
X119857000Y-76067000D01*
X119857000Y-76067000D01*
G37*
G36*
X118857000Y-76067000D02*
X118155000Y-76067000D01*
X118155000Y-73965000D01*
X118857000Y-73965000D01*
X118857000Y-76067000D01*
X118857000Y-76067000D01*
G37*
G36*
X117857000Y-76067000D02*
X117155000Y-76067000D01*
X117155000Y-73965000D01*
X117857000Y-73965000D01*
X117857000Y-76067000D01*
X117857000Y-76067000D01*
G37*
G36*
X116857000Y-76067000D02*
X116155000Y-76067000D01*
X116155000Y-73965000D01*
X116857000Y-73965000D01*
X116857000Y-76067000D01*
X116857000Y-76067000D01*
G37*
G36*
X114857000Y-76067000D02*
X114155000Y-76067000D01*
X114155000Y-73965000D01*
X114857000Y-73965000D01*
X114857000Y-76067000D01*
X114857000Y-76067000D01*
G37*
G36*
X112857000Y-76067000D02*
X112155000Y-76067000D01*
X112155000Y-73965000D01*
X112857000Y-73965000D01*
X112857000Y-76067000D01*
X112857000Y-76067000D01*
G37*
G36*
X111857000Y-76067000D02*
X111155000Y-76067000D01*
X111155000Y-73965000D01*
X111857000Y-73965000D01*
X111857000Y-76067000D01*
X111857000Y-76067000D01*
G37*
G36*
X109857000Y-76067000D02*
X109155000Y-76067000D01*
X109155000Y-73965000D01*
X109857000Y-73965000D01*
X109857000Y-76067000D01*
X109857000Y-76067000D01*
G37*
G36*
X108857000Y-76067000D02*
X108155000Y-76067000D01*
X108155000Y-73965000D01*
X108857000Y-73965000D01*
X108857000Y-76067000D01*
X108857000Y-76067000D01*
G37*
G36*
X107857000Y-76067000D02*
X107155000Y-76067000D01*
X107155000Y-73965000D01*
X107857000Y-73965000D01*
X107857000Y-76067000D01*
X107857000Y-76067000D01*
G37*
G36*
X106857000Y-76067000D02*
X106155000Y-76067000D01*
X106155000Y-73965000D01*
X106857000Y-73965000D01*
X106857000Y-76067000D01*
X106857000Y-76067000D01*
G37*
G36*
X105857000Y-76067000D02*
X105155000Y-76067000D01*
X105155000Y-73965000D01*
X105857000Y-73965000D01*
X105857000Y-76067000D01*
X105857000Y-76067000D01*
G37*
G36*
X115857000Y-76067000D02*
X115155000Y-76067000D01*
X115155000Y-73965000D01*
X115857000Y-73965000D01*
X115857000Y-76067000D01*
X115857000Y-76067000D01*
G37*
G36*
X124857000Y-75817000D02*
X124155000Y-75817000D01*
X124155000Y-73965000D01*
X124857000Y-73965000D01*
X124857000Y-75817000D01*
X124857000Y-75817000D01*
G37*
G36*
X129620677Y-74516965D02*
X129658364Y-74528398D01*
X129693103Y-74546966D01*
X129723548Y-74571952D01*
X129748534Y-74602397D01*
X129767102Y-74637136D01*
X129778535Y-74674823D01*
X129783000Y-74720161D01*
X129783000Y-75556839D01*
X129778535Y-75602177D01*
X129767102Y-75639864D01*
X129748534Y-75674603D01*
X129723548Y-75705048D01*
X129693103Y-75730034D01*
X129658364Y-75748602D01*
X129620677Y-75760035D01*
X129575339Y-75764500D01*
X128488661Y-75764500D01*
X128443323Y-75760035D01*
X128405636Y-75748602D01*
X128370897Y-75730034D01*
X128340452Y-75705048D01*
X128315466Y-75674603D01*
X128296898Y-75639864D01*
X128285465Y-75602177D01*
X128281000Y-75556839D01*
X128281000Y-74720161D01*
X128285465Y-74674823D01*
X128296898Y-74637136D01*
X128315466Y-74602397D01*
X128340452Y-74571952D01*
X128370897Y-74546966D01*
X128405636Y-74528398D01*
X128443323Y-74516965D01*
X128488661Y-74512500D01*
X129575339Y-74512500D01*
X129620677Y-74516965D01*
X129620677Y-74516965D01*
G37*
G36*
X135238443Y-73273519D02*
X135304627Y-73280037D01*
X135417853Y-73314384D01*
X135474467Y-73331557D01*
X135613087Y-73405652D01*
X135630991Y-73415222D01*
X135666729Y-73444552D01*
X135768186Y-73527814D01*
X135851448Y-73629271D01*
X135880778Y-73665009D01*
X135880779Y-73665011D01*
X135964443Y-73821533D01*
X135964443Y-73821534D01*
X136015963Y-73991373D01*
X136033359Y-74168000D01*
X136015963Y-74344627D01*
X135981616Y-74457853D01*
X135964443Y-74514467D01*
X135917443Y-74602397D01*
X135880778Y-74670991D01*
X135877633Y-74674823D01*
X135768186Y-74808186D01*
X135666729Y-74891448D01*
X135630991Y-74920778D01*
X135630989Y-74920779D01*
X135474467Y-75004443D01*
X135417853Y-75021616D01*
X135304627Y-75055963D01*
X135238443Y-75062481D01*
X135172260Y-75069000D01*
X135083740Y-75069000D01*
X135017557Y-75062481D01*
X134951373Y-75055963D01*
X134838147Y-75021616D01*
X134781533Y-75004443D01*
X134625011Y-74920779D01*
X134625009Y-74920778D01*
X134589271Y-74891448D01*
X134487814Y-74808186D01*
X134378367Y-74674823D01*
X134375222Y-74670991D01*
X134338557Y-74602397D01*
X134291557Y-74514467D01*
X134274384Y-74457853D01*
X134240037Y-74344627D01*
X134222641Y-74168000D01*
X134240037Y-73991373D01*
X134291557Y-73821534D01*
X134291557Y-73821533D01*
X134375221Y-73665011D01*
X134375222Y-73665009D01*
X134404552Y-73629271D01*
X134487814Y-73527814D01*
X134589271Y-73444552D01*
X134625009Y-73415222D01*
X134642913Y-73405652D01*
X134781533Y-73331557D01*
X134838147Y-73314384D01*
X134951373Y-73280037D01*
X135017557Y-73273519D01*
X135083740Y-73267000D01*
X135172260Y-73267000D01*
X135238443Y-73273519D01*
X135238443Y-73273519D01*
G37*
G36*
X135238442Y-70733518D02*
X135304627Y-70740037D01*
X135417853Y-70774384D01*
X135474467Y-70791557D01*
X135613087Y-70865652D01*
X135630991Y-70875222D01*
X135666729Y-70904552D01*
X135768186Y-70987814D01*
X135851448Y-71089271D01*
X135880778Y-71125009D01*
X135880779Y-71125011D01*
X135964443Y-71281533D01*
X135976072Y-71319869D01*
X136015963Y-71451373D01*
X136033359Y-71628000D01*
X136015963Y-71804627D01*
X135981616Y-71917853D01*
X135964443Y-71974467D01*
X135890348Y-72113087D01*
X135880778Y-72130991D01*
X135851448Y-72166729D01*
X135768186Y-72268186D01*
X135707073Y-72318339D01*
X135630991Y-72380778D01*
X135630989Y-72380779D01*
X135474467Y-72464443D01*
X135417853Y-72481616D01*
X135304627Y-72515963D01*
X135238442Y-72522482D01*
X135172260Y-72529000D01*
X135083740Y-72529000D01*
X135017558Y-72522482D01*
X134951373Y-72515963D01*
X134838147Y-72481616D01*
X134781533Y-72464443D01*
X134625011Y-72380779D01*
X134625009Y-72380778D01*
X134548927Y-72318339D01*
X134487814Y-72268186D01*
X134404552Y-72166729D01*
X134375222Y-72130991D01*
X134365652Y-72113087D01*
X134291557Y-71974467D01*
X134274384Y-71917853D01*
X134240037Y-71804627D01*
X134222641Y-71628000D01*
X134240037Y-71451373D01*
X134279928Y-71319869D01*
X134291557Y-71281533D01*
X134375221Y-71125011D01*
X134375222Y-71125009D01*
X134404552Y-71089271D01*
X134487814Y-70987814D01*
X134589271Y-70904552D01*
X134625009Y-70875222D01*
X134642913Y-70865652D01*
X134781533Y-70791557D01*
X134838147Y-70774384D01*
X134951373Y-70740037D01*
X135017558Y-70733518D01*
X135083740Y-70727000D01*
X135172260Y-70727000D01*
X135238442Y-70733518D01*
X135238442Y-70733518D01*
G37*
G36*
X132668677Y-71278465D02*
X132706364Y-71289898D01*
X132741103Y-71308466D01*
X132771548Y-71333452D01*
X132796534Y-71363897D01*
X132815102Y-71398636D01*
X132826535Y-71436323D01*
X132831000Y-71481661D01*
X132831000Y-72318339D01*
X132826535Y-72363677D01*
X132815102Y-72401364D01*
X132796534Y-72436103D01*
X132771548Y-72466548D01*
X132741103Y-72491534D01*
X132706364Y-72510102D01*
X132668677Y-72521535D01*
X132623339Y-72526000D01*
X131536661Y-72526000D01*
X131491323Y-72521535D01*
X131453636Y-72510102D01*
X131418897Y-72491534D01*
X131388452Y-72466548D01*
X131363466Y-72436103D01*
X131344898Y-72401364D01*
X131333465Y-72363677D01*
X131329000Y-72318339D01*
X131329000Y-71481661D01*
X131333465Y-71436323D01*
X131344898Y-71398636D01*
X131363466Y-71363897D01*
X131388452Y-71333452D01*
X131418897Y-71308466D01*
X131453636Y-71289898D01*
X131491323Y-71278465D01*
X131536661Y-71274000D01*
X132623339Y-71274000D01*
X132668677Y-71278465D01*
X132668677Y-71278465D01*
G37*
G36*
X108392499Y-70344445D02*
X108429993Y-70355819D01*
X108464557Y-70374294D01*
X108494847Y-70399153D01*
X108519706Y-70429443D01*
X108538181Y-70464007D01*
X108549555Y-70501501D01*
X108554000Y-70546638D01*
X108554000Y-71185362D01*
X108549555Y-71230499D01*
X108538181Y-71267993D01*
X108519706Y-71302557D01*
X108494847Y-71332847D01*
X108464557Y-71357706D01*
X108429993Y-71376181D01*
X108392499Y-71387555D01*
X108347362Y-71392000D01*
X107608638Y-71392000D01*
X107563501Y-71387555D01*
X107526007Y-71376181D01*
X107491443Y-71357706D01*
X107461153Y-71332847D01*
X107436294Y-71302557D01*
X107417819Y-71267993D01*
X107406445Y-71230499D01*
X107402000Y-71185362D01*
X107402000Y-70546638D01*
X107406445Y-70501501D01*
X107417819Y-70464007D01*
X107436294Y-70429443D01*
X107461153Y-70399153D01*
X107491443Y-70374294D01*
X107526007Y-70355819D01*
X107563501Y-70344445D01*
X107608638Y-70340000D01*
X108347362Y-70340000D01*
X108392499Y-70344445D01*
X108392499Y-70344445D01*
G37*
G36*
X110142499Y-70344445D02*
X110179993Y-70355819D01*
X110214557Y-70374294D01*
X110244847Y-70399153D01*
X110269706Y-70429443D01*
X110288181Y-70464007D01*
X110299555Y-70501501D01*
X110304000Y-70546638D01*
X110304000Y-71185362D01*
X110299555Y-71230499D01*
X110288181Y-71267993D01*
X110269706Y-71302557D01*
X110244847Y-71332847D01*
X110214557Y-71357706D01*
X110179993Y-71376181D01*
X110142499Y-71387555D01*
X110097362Y-71392000D01*
X109358638Y-71392000D01*
X109313501Y-71387555D01*
X109276007Y-71376181D01*
X109241443Y-71357706D01*
X109211153Y-71332847D01*
X109186294Y-71302557D01*
X109167819Y-71267993D01*
X109156445Y-71230499D01*
X109152000Y-71185362D01*
X109152000Y-70546638D01*
X109156445Y-70501501D01*
X109167819Y-70464007D01*
X109186294Y-70429443D01*
X109211153Y-70399153D01*
X109241443Y-70374294D01*
X109276007Y-70355819D01*
X109313501Y-70344445D01*
X109358638Y-70340000D01*
X110097362Y-70340000D01*
X110142499Y-70344445D01*
X110142499Y-70344445D01*
G37*
G36*
X132668677Y-69228465D02*
X132706364Y-69239898D01*
X132741103Y-69258466D01*
X132771548Y-69283452D01*
X132796534Y-69313897D01*
X132815102Y-69348636D01*
X132826535Y-69386323D01*
X132831000Y-69431661D01*
X132831000Y-70268339D01*
X132826535Y-70313677D01*
X132815102Y-70351364D01*
X132796534Y-70386103D01*
X132771548Y-70416548D01*
X132741103Y-70441534D01*
X132706364Y-70460102D01*
X132668677Y-70471535D01*
X132623339Y-70476000D01*
X131536661Y-70476000D01*
X131491323Y-70471535D01*
X131453636Y-70460102D01*
X131418897Y-70441534D01*
X131388452Y-70416548D01*
X131363466Y-70386103D01*
X131344898Y-70351364D01*
X131333465Y-70313677D01*
X131329000Y-70268339D01*
X131329000Y-69431661D01*
X131333465Y-69386323D01*
X131344898Y-69348636D01*
X131363466Y-69313897D01*
X131388452Y-69283452D01*
X131418897Y-69258466D01*
X131453636Y-69239898D01*
X131491323Y-69228465D01*
X131536661Y-69224000D01*
X132623339Y-69224000D01*
X132668677Y-69228465D01*
X132668677Y-69228465D01*
G37*
G36*
X112749677Y-67071465D02*
X112787364Y-67082898D01*
X112822103Y-67101466D01*
X112852548Y-67126452D01*
X112877534Y-67156897D01*
X112896102Y-67191636D01*
X112907535Y-67229323D01*
X112912000Y-67274661D01*
X112912000Y-68361339D01*
X112907535Y-68406677D01*
X112896102Y-68444364D01*
X112877534Y-68479103D01*
X112852548Y-68509548D01*
X112822103Y-68534534D01*
X112787364Y-68553102D01*
X112749677Y-68564535D01*
X112704339Y-68569000D01*
X111867661Y-68569000D01*
X111822323Y-68564535D01*
X111784636Y-68553102D01*
X111749897Y-68534534D01*
X111719452Y-68509548D01*
X111694466Y-68479103D01*
X111675898Y-68444364D01*
X111664465Y-68406677D01*
X111660000Y-68361339D01*
X111660000Y-67274661D01*
X111664465Y-67229323D01*
X111675898Y-67191636D01*
X111694466Y-67156897D01*
X111719452Y-67126452D01*
X111749897Y-67101466D01*
X111784636Y-67082898D01*
X111822323Y-67071465D01*
X111867661Y-67067000D01*
X112704339Y-67067000D01*
X112749677Y-67071465D01*
X112749677Y-67071465D01*
G37*
G36*
X110717677Y-67071465D02*
X110755364Y-67082898D01*
X110790103Y-67101466D01*
X110820548Y-67126452D01*
X110845534Y-67156897D01*
X110864102Y-67191636D01*
X110875535Y-67229323D01*
X110880000Y-67274661D01*
X110880000Y-68361339D01*
X110875535Y-68406677D01*
X110864102Y-68444364D01*
X110845534Y-68479103D01*
X110820548Y-68509548D01*
X110790103Y-68534534D01*
X110755364Y-68553102D01*
X110717677Y-68564535D01*
X110672339Y-68569000D01*
X109817661Y-68569000D01*
X109772323Y-68564535D01*
X109734636Y-68553102D01*
X109699897Y-68534534D01*
X109669452Y-68509548D01*
X109644466Y-68479103D01*
X109625898Y-68444364D01*
X109614465Y-68406677D01*
X109610000Y-68361339D01*
X109610000Y-67274661D01*
X109614465Y-67229323D01*
X109625898Y-67191636D01*
X109644466Y-67156897D01*
X109669452Y-67126452D01*
X109699897Y-67101466D01*
X109734636Y-67082898D01*
X109772323Y-67071465D01*
X109817661Y-67067000D01*
X110672339Y-67067000D01*
X110717677Y-67071465D01*
X110717677Y-67071465D01*
G37*
G36*
X108667677Y-67071465D02*
X108705364Y-67082898D01*
X108740103Y-67101466D01*
X108770548Y-67126452D01*
X108795534Y-67156897D01*
X108814102Y-67191636D01*
X108825535Y-67229323D01*
X108830000Y-67274661D01*
X108830000Y-68361339D01*
X108825535Y-68406677D01*
X108814102Y-68444364D01*
X108795534Y-68479103D01*
X108770548Y-68509548D01*
X108740103Y-68534534D01*
X108705364Y-68553102D01*
X108667677Y-68564535D01*
X108622339Y-68569000D01*
X107785661Y-68569000D01*
X107740323Y-68564535D01*
X107702636Y-68553102D01*
X107667897Y-68534534D01*
X107637452Y-68509548D01*
X107612466Y-68479103D01*
X107593898Y-68444364D01*
X107582465Y-68406677D01*
X107578000Y-68361339D01*
X107578000Y-67274661D01*
X107582465Y-67229323D01*
X107593898Y-67191636D01*
X107612466Y-67156897D01*
X107637452Y-67126452D01*
X107667897Y-67101466D01*
X107702636Y-67082898D01*
X107740323Y-67071465D01*
X107785661Y-67067000D01*
X108622339Y-67067000D01*
X108667677Y-67071465D01*
X108667677Y-67071465D01*
G37*
G36*
X126987500Y-68542100D02*
X124523300Y-68542100D01*
X124523300Y-66941500D01*
X126987500Y-66941500D01*
X126987500Y-68542100D01*
X126987500Y-68542100D01*
G37*
G36*
X119381177Y-66309465D02*
X119418864Y-66320898D01*
X119453603Y-66339466D01*
X119484048Y-66364452D01*
X119509034Y-66394897D01*
X119527602Y-66429636D01*
X119539035Y-66467323D01*
X119543500Y-66512661D01*
X119543500Y-67599339D01*
X119539035Y-67644677D01*
X119527602Y-67682364D01*
X119509034Y-67717103D01*
X119484048Y-67747548D01*
X119453603Y-67772534D01*
X119418864Y-67791102D01*
X119381177Y-67802535D01*
X119335839Y-67807000D01*
X118499161Y-67807000D01*
X118453823Y-67802535D01*
X118416136Y-67791102D01*
X118381397Y-67772534D01*
X118350952Y-67747548D01*
X118325966Y-67717103D01*
X118307398Y-67682364D01*
X118295965Y-67644677D01*
X118291500Y-67599339D01*
X118291500Y-66512661D01*
X118295965Y-66467323D01*
X118307398Y-66429636D01*
X118325966Y-66394897D01*
X118350952Y-66364452D01*
X118381397Y-66339466D01*
X118416136Y-66320898D01*
X118453823Y-66309465D01*
X118499161Y-66305000D01*
X119335839Y-66305000D01*
X119381177Y-66309465D01*
X119381177Y-66309465D01*
G37*
G36*
X117331177Y-66309465D02*
X117368864Y-66320898D01*
X117403603Y-66339466D01*
X117434048Y-66364452D01*
X117459034Y-66394897D01*
X117477602Y-66429636D01*
X117489035Y-66467323D01*
X117493500Y-66512661D01*
X117493500Y-67599339D01*
X117489035Y-67644677D01*
X117477602Y-67682364D01*
X117459034Y-67717103D01*
X117434048Y-67747548D01*
X117403603Y-67772534D01*
X117368864Y-67791102D01*
X117331177Y-67802535D01*
X117285839Y-67807000D01*
X116449161Y-67807000D01*
X116403823Y-67802535D01*
X116366136Y-67791102D01*
X116331397Y-67772534D01*
X116300952Y-67747548D01*
X116275966Y-67717103D01*
X116257398Y-67682364D01*
X116245965Y-67644677D01*
X116241500Y-67599339D01*
X116241500Y-66512661D01*
X116245965Y-66467323D01*
X116257398Y-66429636D01*
X116275966Y-66394897D01*
X116300952Y-66364452D01*
X116331397Y-66339466D01*
X116366136Y-66320898D01*
X116403823Y-66309465D01*
X116449161Y-66305000D01*
X117285839Y-66305000D01*
X117331177Y-66309465D01*
X117331177Y-66309465D01*
G37*
G36*
X135232569Y-65652940D02*
X135304627Y-65660037D01*
X135417853Y-65694384D01*
X135474467Y-65711557D01*
X135577906Y-65766847D01*
X135630991Y-65795222D01*
X135649218Y-65810181D01*
X135768186Y-65907814D01*
X135851448Y-66009271D01*
X135880778Y-66045009D01*
X135880779Y-66045011D01*
X135964443Y-66201533D01*
X135964443Y-66201534D01*
X136015963Y-66371373D01*
X136033359Y-66548000D01*
X136015963Y-66724627D01*
X135981616Y-66837853D01*
X135964443Y-66894467D01*
X135939303Y-66941500D01*
X135880778Y-67050991D01*
X135863975Y-67071465D01*
X135768186Y-67188186D01*
X135666729Y-67271448D01*
X135630991Y-67300778D01*
X135630989Y-67300779D01*
X135474467Y-67384443D01*
X135417853Y-67401616D01*
X135304627Y-67435963D01*
X135238443Y-67442481D01*
X135172260Y-67449000D01*
X135083740Y-67449000D01*
X135017557Y-67442481D01*
X134951373Y-67435963D01*
X134838147Y-67401616D01*
X134781533Y-67384443D01*
X134625011Y-67300779D01*
X134625009Y-67300778D01*
X134589271Y-67271448D01*
X134487814Y-67188186D01*
X134392025Y-67071465D01*
X134375222Y-67050991D01*
X134316697Y-66941500D01*
X134291557Y-66894467D01*
X134274384Y-66837853D01*
X134240037Y-66724627D01*
X134222641Y-66548000D01*
X134240037Y-66371373D01*
X134291557Y-66201534D01*
X134291557Y-66201533D01*
X134375221Y-66045011D01*
X134375222Y-66045009D01*
X134404552Y-66009271D01*
X134487814Y-65907814D01*
X134606782Y-65810181D01*
X134625009Y-65795222D01*
X134678094Y-65766847D01*
X134781533Y-65711557D01*
X134838147Y-65694384D01*
X134951373Y-65660037D01*
X135023431Y-65652940D01*
X135083740Y-65647000D01*
X135172260Y-65647000D01*
X135232569Y-65652940D01*
X135232569Y-65652940D01*
G37*
G36*
X104758499Y-64678445D02*
X104795993Y-64689819D01*
X104830557Y-64708294D01*
X104860847Y-64733153D01*
X104885706Y-64763443D01*
X104904181Y-64798007D01*
X104915555Y-64835501D01*
X104920000Y-64880638D01*
X104920000Y-65619362D01*
X104915555Y-65664499D01*
X104904181Y-65701993D01*
X104885706Y-65736557D01*
X104860847Y-65766847D01*
X104830557Y-65791706D01*
X104795993Y-65810181D01*
X104758499Y-65821555D01*
X104713362Y-65826000D01*
X104074638Y-65826000D01*
X104029501Y-65821555D01*
X103992007Y-65810181D01*
X103957443Y-65791706D01*
X103927153Y-65766847D01*
X103902294Y-65736557D01*
X103883819Y-65701993D01*
X103872445Y-65664499D01*
X103868000Y-65619362D01*
X103868000Y-64880638D01*
X103872445Y-64835501D01*
X103883819Y-64798007D01*
X103902294Y-64763443D01*
X103927153Y-64733153D01*
X103957443Y-64708294D01*
X103992007Y-64689819D01*
X104029501Y-64678445D01*
X104074638Y-64674000D01*
X104713362Y-64674000D01*
X104758499Y-64678445D01*
X104758499Y-64678445D01*
G37*
G36*
X106536499Y-64678445D02*
X106573993Y-64689819D01*
X106608557Y-64708294D01*
X106638847Y-64733153D01*
X106663706Y-64763443D01*
X106682181Y-64798007D01*
X106693555Y-64835501D01*
X106698000Y-64880638D01*
X106698000Y-65619362D01*
X106693555Y-65664499D01*
X106682181Y-65701993D01*
X106663706Y-65736557D01*
X106638847Y-65766847D01*
X106608557Y-65791706D01*
X106573993Y-65810181D01*
X106536499Y-65821555D01*
X106491362Y-65826000D01*
X105852638Y-65826000D01*
X105807501Y-65821555D01*
X105770007Y-65810181D01*
X105735443Y-65791706D01*
X105705153Y-65766847D01*
X105680294Y-65736557D01*
X105661819Y-65701993D01*
X105650445Y-65664499D01*
X105646000Y-65619362D01*
X105646000Y-64880638D01*
X105650445Y-64835501D01*
X105661819Y-64798007D01*
X105680294Y-64763443D01*
X105705153Y-64733153D01*
X105735443Y-64708294D01*
X105770007Y-64689819D01*
X105807501Y-64678445D01*
X105852638Y-64674000D01*
X106491362Y-64674000D01*
X106536499Y-64678445D01*
X106536499Y-64678445D01*
G37*
G36*
X112749677Y-64189871D02*
X112787364Y-64201304D01*
X112822103Y-64219872D01*
X112852548Y-64244858D01*
X112877534Y-64275303D01*
X112896102Y-64310042D01*
X112907535Y-64347729D01*
X112912000Y-64393067D01*
X112912000Y-65479745D01*
X112907535Y-65525083D01*
X112896102Y-65562770D01*
X112877534Y-65597509D01*
X112852548Y-65627954D01*
X112822103Y-65652940D01*
X112787364Y-65671508D01*
X112749677Y-65682941D01*
X112704339Y-65687406D01*
X111867661Y-65687406D01*
X111822323Y-65682941D01*
X111784636Y-65671508D01*
X111749897Y-65652940D01*
X111719452Y-65627954D01*
X111694466Y-65597509D01*
X111675898Y-65562770D01*
X111664465Y-65525083D01*
X111660000Y-65479745D01*
X111660000Y-64393067D01*
X111664465Y-64347729D01*
X111675898Y-64310042D01*
X111694466Y-64275303D01*
X111719452Y-64244858D01*
X111749897Y-64219872D01*
X111784636Y-64201304D01*
X111822323Y-64189871D01*
X111867661Y-64185406D01*
X112704339Y-64185406D01*
X112749677Y-64189871D01*
X112749677Y-64189871D01*
G37*
G36*
X110731149Y-64189871D02*
X110768836Y-64201304D01*
X110803575Y-64219872D01*
X110834020Y-64244858D01*
X110859006Y-64275303D01*
X110877574Y-64310042D01*
X110889007Y-64347729D01*
X110893472Y-64393067D01*
X110893472Y-65479745D01*
X110889007Y-65525083D01*
X110877574Y-65562770D01*
X110859006Y-65597509D01*
X110834020Y-65627954D01*
X110803575Y-65652940D01*
X110768836Y-65671508D01*
X110731149Y-65682941D01*
X110685811Y-65687406D01*
X109817661Y-65687406D01*
X109772323Y-65682941D01*
X109734636Y-65671508D01*
X109699897Y-65652940D01*
X109669452Y-65627954D01*
X109644466Y-65597509D01*
X109625898Y-65562770D01*
X109614465Y-65525083D01*
X109610000Y-65479745D01*
X109610000Y-64393067D01*
X109614465Y-64347729D01*
X109625898Y-64310042D01*
X109644466Y-64275303D01*
X109669452Y-64244858D01*
X109699897Y-64219872D01*
X109734636Y-64201304D01*
X109772323Y-64189871D01*
X109817661Y-64185406D01*
X110685811Y-64185406D01*
X110731149Y-64189871D01*
X110731149Y-64189871D01*
G37*
G36*
X108681149Y-64189871D02*
X108718836Y-64201304D01*
X108753575Y-64219872D01*
X108784020Y-64244858D01*
X108809006Y-64275303D01*
X108827574Y-64310042D01*
X108839007Y-64347729D01*
X108843472Y-64393067D01*
X108843472Y-65479745D01*
X108839007Y-65525083D01*
X108827574Y-65562770D01*
X108809006Y-65597509D01*
X108784020Y-65627954D01*
X108753575Y-65652940D01*
X108718836Y-65671508D01*
X108681149Y-65682941D01*
X108635811Y-65687406D01*
X107799133Y-65687406D01*
X107753795Y-65682941D01*
X107716108Y-65671508D01*
X107681369Y-65652940D01*
X107650924Y-65627954D01*
X107625938Y-65597509D01*
X107607370Y-65562770D01*
X107595937Y-65525083D01*
X107591472Y-65479745D01*
X107591472Y-64393067D01*
X107595937Y-64347729D01*
X107607370Y-64310042D01*
X107625938Y-64275303D01*
X107650924Y-64244858D01*
X107681369Y-64219872D01*
X107716108Y-64201304D01*
X107753795Y-64189871D01*
X107799133Y-64185406D01*
X108635811Y-64185406D01*
X108681149Y-64189871D01*
X108681149Y-64189871D01*
G37*
G36*
X135238443Y-63113519D02*
X135304627Y-63120037D01*
X135417853Y-63154384D01*
X135474467Y-63171557D01*
X135503358Y-63187000D01*
X135630991Y-63255222D01*
X135666729Y-63284552D01*
X135768186Y-63367814D01*
X135835619Y-63449983D01*
X135880778Y-63505009D01*
X135880779Y-63505011D01*
X135964443Y-63661533D01*
X135964443Y-63661534D01*
X136015963Y-63831373D01*
X136033359Y-64008000D01*
X136015963Y-64184627D01*
X135988457Y-64275303D01*
X135964443Y-64354467D01*
X135909328Y-64457579D01*
X135880778Y-64510991D01*
X135851448Y-64546729D01*
X135768186Y-64648186D01*
X135666729Y-64731448D01*
X135630991Y-64760778D01*
X135630989Y-64760779D01*
X135474467Y-64844443D01*
X135417853Y-64861616D01*
X135304627Y-64895963D01*
X135238442Y-64902482D01*
X135172260Y-64909000D01*
X135083740Y-64909000D01*
X135017558Y-64902482D01*
X134951373Y-64895963D01*
X134838147Y-64861616D01*
X134781533Y-64844443D01*
X134625011Y-64760779D01*
X134625009Y-64760778D01*
X134589271Y-64731448D01*
X134487814Y-64648186D01*
X134404552Y-64546729D01*
X134375222Y-64510991D01*
X134346672Y-64457579D01*
X134291557Y-64354467D01*
X134267543Y-64275303D01*
X134240037Y-64184627D01*
X134222641Y-64008000D01*
X134240037Y-63831373D01*
X134291557Y-63661534D01*
X134291557Y-63661533D01*
X134375221Y-63505011D01*
X134375222Y-63505009D01*
X134420381Y-63449983D01*
X134487814Y-63367814D01*
X134589271Y-63284552D01*
X134625009Y-63255222D01*
X134752642Y-63187000D01*
X134781533Y-63171557D01*
X134838147Y-63154384D01*
X134951373Y-63120037D01*
X135017557Y-63113519D01*
X135083740Y-63107000D01*
X135172260Y-63107000D01*
X135238443Y-63113519D01*
X135238443Y-63113519D01*
G37*
G36*
X126987500Y-64173300D02*
X124523300Y-64173300D01*
X124523300Y-62572700D01*
X126987500Y-62572700D01*
X126987500Y-64173300D01*
X126987500Y-64173300D01*
G37*
G36*
X104758499Y-62928445D02*
X104795993Y-62939819D01*
X104830557Y-62958294D01*
X104860847Y-62983153D01*
X104885706Y-63013443D01*
X104904181Y-63048007D01*
X104915555Y-63085501D01*
X104920000Y-63130638D01*
X104920000Y-63869362D01*
X104915555Y-63914499D01*
X104904181Y-63951993D01*
X104885706Y-63986557D01*
X104860847Y-64016847D01*
X104830557Y-64041706D01*
X104795993Y-64060181D01*
X104758499Y-64071555D01*
X104713362Y-64076000D01*
X104074638Y-64076000D01*
X104029501Y-64071555D01*
X103992007Y-64060181D01*
X103957443Y-64041706D01*
X103927153Y-64016847D01*
X103902294Y-63986557D01*
X103883819Y-63951993D01*
X103872445Y-63914499D01*
X103868000Y-63869362D01*
X103868000Y-63130638D01*
X103872445Y-63085501D01*
X103883819Y-63048007D01*
X103902294Y-63013443D01*
X103927153Y-62983153D01*
X103957443Y-62958294D01*
X103992007Y-62939819D01*
X104029501Y-62928445D01*
X104074638Y-62924000D01*
X104713362Y-62924000D01*
X104758499Y-62928445D01*
X104758499Y-62928445D01*
G37*
G36*
X106536499Y-62928445D02*
X106573993Y-62939819D01*
X106608557Y-62958294D01*
X106638847Y-62983153D01*
X106663706Y-63013443D01*
X106682181Y-63048007D01*
X106693555Y-63085501D01*
X106698000Y-63130638D01*
X106698000Y-63869362D01*
X106693555Y-63914499D01*
X106682181Y-63951993D01*
X106663706Y-63986557D01*
X106638847Y-64016847D01*
X106608557Y-64041706D01*
X106573993Y-64060181D01*
X106536499Y-64071555D01*
X106491362Y-64076000D01*
X105852638Y-64076000D01*
X105807501Y-64071555D01*
X105770007Y-64060181D01*
X105735443Y-64041706D01*
X105705153Y-64016847D01*
X105680294Y-63986557D01*
X105661819Y-63951993D01*
X105650445Y-63914499D01*
X105646000Y-63869362D01*
X105646000Y-63130638D01*
X105650445Y-63085501D01*
X105661819Y-63048007D01*
X105680294Y-63013443D01*
X105705153Y-62983153D01*
X105735443Y-62958294D01*
X105770007Y-62939819D01*
X105807501Y-62928445D01*
X105852638Y-62924000D01*
X106491362Y-62924000D01*
X106536499Y-62928445D01*
X106536499Y-62928445D01*
G37*
G36*
X132668677Y-62370465D02*
X132706364Y-62381898D01*
X132741103Y-62400466D01*
X132771548Y-62425452D01*
X132796534Y-62455897D01*
X132815102Y-62490636D01*
X132826535Y-62528323D01*
X132831000Y-62573661D01*
X132831000Y-63410339D01*
X132826535Y-63455677D01*
X132815102Y-63493364D01*
X132796534Y-63528103D01*
X132771548Y-63558548D01*
X132741103Y-63583534D01*
X132706364Y-63602102D01*
X132668677Y-63613535D01*
X132623339Y-63618000D01*
X131536661Y-63618000D01*
X131491323Y-63613535D01*
X131453636Y-63602102D01*
X131418897Y-63583534D01*
X131388452Y-63558548D01*
X131363466Y-63528103D01*
X131344898Y-63493364D01*
X131333465Y-63455677D01*
X131329000Y-63410339D01*
X131329000Y-62573661D01*
X131333465Y-62528323D01*
X131344898Y-62490636D01*
X131363466Y-62455897D01*
X131388452Y-62425452D01*
X131418897Y-62400466D01*
X131453636Y-62381898D01*
X131491323Y-62370465D01*
X131536661Y-62366000D01*
X132623339Y-62366000D01*
X132668677Y-62370465D01*
X132668677Y-62370465D01*
G37*
G36*
X108538677Y-61880465D02*
X108576364Y-61891898D01*
X108611103Y-61910466D01*
X108641548Y-61935452D01*
X108666534Y-61965897D01*
X108685102Y-62000636D01*
X108696535Y-62038323D01*
X108701000Y-62083661D01*
X108701000Y-62920339D01*
X108696535Y-62965677D01*
X108685102Y-63003364D01*
X108666534Y-63038103D01*
X108641548Y-63068548D01*
X108611103Y-63093534D01*
X108576364Y-63112102D01*
X108538677Y-63123535D01*
X108493339Y-63128000D01*
X107406661Y-63128000D01*
X107361323Y-63123535D01*
X107323636Y-63112102D01*
X107288897Y-63093534D01*
X107258452Y-63068548D01*
X107233466Y-63038103D01*
X107214898Y-63003364D01*
X107203465Y-62965677D01*
X107199000Y-62920339D01*
X107199000Y-62083661D01*
X107203465Y-62038323D01*
X107214898Y-62000636D01*
X107233466Y-61965897D01*
X107258452Y-61935452D01*
X107288897Y-61910466D01*
X107323636Y-61891898D01*
X107361323Y-61880465D01*
X107406661Y-61876000D01*
X108493339Y-61876000D01*
X108538677Y-61880465D01*
X108538677Y-61880465D01*
G37*
G36*
X111840677Y-61617465D02*
X111878364Y-61628898D01*
X111913103Y-61647466D01*
X111943548Y-61672452D01*
X111968534Y-61702897D01*
X111987102Y-61737636D01*
X111998535Y-61775323D01*
X112003000Y-61820661D01*
X112003000Y-62657339D01*
X111998535Y-62702677D01*
X111987102Y-62740364D01*
X111968534Y-62775103D01*
X111943548Y-62805548D01*
X111913103Y-62830534D01*
X111878364Y-62849102D01*
X111840677Y-62860535D01*
X111795339Y-62865000D01*
X110708661Y-62865000D01*
X110663323Y-62860535D01*
X110625636Y-62849102D01*
X110590897Y-62830534D01*
X110560452Y-62805548D01*
X110535466Y-62775103D01*
X110516898Y-62740364D01*
X110505465Y-62702677D01*
X110501000Y-62657339D01*
X110501000Y-61820661D01*
X110505465Y-61775323D01*
X110516898Y-61737636D01*
X110535466Y-61702897D01*
X110560452Y-61672452D01*
X110590897Y-61647466D01*
X110625636Y-61628898D01*
X110663323Y-61617465D01*
X110708661Y-61613000D01*
X111795339Y-61613000D01*
X111840677Y-61617465D01*
X111840677Y-61617465D01*
G37*
G36*
X117303677Y-61229465D02*
X117341364Y-61240898D01*
X117376103Y-61259466D01*
X117406548Y-61284452D01*
X117431534Y-61314897D01*
X117450102Y-61349636D01*
X117461535Y-61387323D01*
X117466000Y-61432661D01*
X117466000Y-62519339D01*
X117461535Y-62564677D01*
X117450102Y-62602364D01*
X117431534Y-62637103D01*
X117406548Y-62667548D01*
X117376103Y-62692534D01*
X117341364Y-62711102D01*
X117303677Y-62722535D01*
X117258339Y-62727000D01*
X116421661Y-62727000D01*
X116376323Y-62722535D01*
X116338636Y-62711102D01*
X116303897Y-62692534D01*
X116273452Y-62667548D01*
X116248466Y-62637103D01*
X116229898Y-62602364D01*
X116218465Y-62564677D01*
X116214000Y-62519339D01*
X116214000Y-61432661D01*
X116218465Y-61387323D01*
X116229898Y-61349636D01*
X116248466Y-61314897D01*
X116273452Y-61284452D01*
X116303897Y-61259466D01*
X116338636Y-61240898D01*
X116376323Y-61229465D01*
X116421661Y-61225000D01*
X117258339Y-61225000D01*
X117303677Y-61229465D01*
X117303677Y-61229465D01*
G37*
G36*
X119353677Y-61229465D02*
X119391364Y-61240898D01*
X119426103Y-61259466D01*
X119456548Y-61284452D01*
X119481534Y-61314897D01*
X119500102Y-61349636D01*
X119511535Y-61387323D01*
X119516000Y-61432661D01*
X119516000Y-62519339D01*
X119511535Y-62564677D01*
X119500102Y-62602364D01*
X119481534Y-62637103D01*
X119456548Y-62667548D01*
X119426103Y-62692534D01*
X119391364Y-62711102D01*
X119353677Y-62722535D01*
X119308339Y-62727000D01*
X118471661Y-62727000D01*
X118426323Y-62722535D01*
X118388636Y-62711102D01*
X118353897Y-62692534D01*
X118323452Y-62667548D01*
X118298466Y-62637103D01*
X118279898Y-62602364D01*
X118268465Y-62564677D01*
X118264000Y-62519339D01*
X118264000Y-61432661D01*
X118268465Y-61387323D01*
X118279898Y-61349636D01*
X118298466Y-61314897D01*
X118323452Y-61284452D01*
X118353897Y-61259466D01*
X118388636Y-61240898D01*
X118426323Y-61229465D01*
X118471661Y-61225000D01*
X119308339Y-61225000D01*
X119353677Y-61229465D01*
X119353677Y-61229465D01*
G37*
G36*
X136029000Y-62369000D02*
X134227000Y-62369000D01*
X134227000Y-60567000D01*
X136029000Y-60567000D01*
X136029000Y-62369000D01*
X136029000Y-62369000D01*
G37*
G36*
X132668677Y-60320465D02*
X132706364Y-60331898D01*
X132741103Y-60350466D01*
X132771548Y-60375452D01*
X132796534Y-60405897D01*
X132815102Y-60440636D01*
X132826535Y-60478323D01*
X132831000Y-60523661D01*
X132831000Y-61360339D01*
X132826535Y-61405677D01*
X132815102Y-61443364D01*
X132796534Y-61478103D01*
X132771548Y-61508548D01*
X132741103Y-61533534D01*
X132706364Y-61552102D01*
X132668677Y-61563535D01*
X132623339Y-61568000D01*
X131536661Y-61568000D01*
X131491323Y-61563535D01*
X131453636Y-61552102D01*
X131418897Y-61533534D01*
X131388452Y-61508548D01*
X131363466Y-61478103D01*
X131344898Y-61443364D01*
X131333465Y-61405677D01*
X131329000Y-61360339D01*
X131329000Y-60523661D01*
X131333465Y-60478323D01*
X131344898Y-60440636D01*
X131363466Y-60405897D01*
X131388452Y-60375452D01*
X131418897Y-60350466D01*
X131453636Y-60331898D01*
X131491323Y-60320465D01*
X131536661Y-60316000D01*
X132623339Y-60316000D01*
X132668677Y-60320465D01*
X132668677Y-60320465D01*
G37*
G36*
X108538677Y-59830465D02*
X108576364Y-59841898D01*
X108611103Y-59860466D01*
X108641548Y-59885452D01*
X108666534Y-59915897D01*
X108685102Y-59950636D01*
X108696535Y-59988323D01*
X108701000Y-60033661D01*
X108701000Y-60870339D01*
X108696535Y-60915677D01*
X108685102Y-60953364D01*
X108666534Y-60988103D01*
X108641548Y-61018548D01*
X108611103Y-61043534D01*
X108576364Y-61062102D01*
X108538677Y-61073535D01*
X108493339Y-61078000D01*
X107406661Y-61078000D01*
X107361323Y-61073535D01*
X107323636Y-61062102D01*
X107288897Y-61043534D01*
X107258452Y-61018548D01*
X107233466Y-60988103D01*
X107214898Y-60953364D01*
X107203465Y-60915677D01*
X107199000Y-60870339D01*
X107199000Y-60033661D01*
X107203465Y-59988323D01*
X107214898Y-59950636D01*
X107233466Y-59915897D01*
X107258452Y-59885452D01*
X107288897Y-59860466D01*
X107323636Y-59841898D01*
X107361323Y-59830465D01*
X107406661Y-59826000D01*
X108493339Y-59826000D01*
X108538677Y-59830465D01*
X108538677Y-59830465D01*
G37*
G36*
X111840677Y-59567465D02*
X111878364Y-59578898D01*
X111913103Y-59597466D01*
X111943548Y-59622452D01*
X111968534Y-59652897D01*
X111987102Y-59687636D01*
X111998535Y-59725323D01*
X112003000Y-59770661D01*
X112003000Y-60607339D01*
X111998535Y-60652677D01*
X111987102Y-60690364D01*
X111968534Y-60725103D01*
X111943548Y-60755548D01*
X111913103Y-60780534D01*
X111878364Y-60799102D01*
X111840677Y-60810535D01*
X111795339Y-60815000D01*
X110708661Y-60815000D01*
X110663323Y-60810535D01*
X110625636Y-60799102D01*
X110590897Y-60780534D01*
X110560452Y-60755548D01*
X110535466Y-60725103D01*
X110516898Y-60690364D01*
X110505465Y-60652677D01*
X110501000Y-60607339D01*
X110501000Y-59770661D01*
X110505465Y-59725323D01*
X110516898Y-59687636D01*
X110535466Y-59652897D01*
X110560452Y-59622452D01*
X110590897Y-59597466D01*
X110625636Y-59578898D01*
X110663323Y-59567465D01*
X110708661Y-59563000D01*
X111795339Y-59563000D01*
X111840677Y-59567465D01*
X111840677Y-59567465D01*
G37*
G36*
X117303677Y-59197465D02*
X117341364Y-59208898D01*
X117376103Y-59227466D01*
X117406548Y-59252452D01*
X117431534Y-59282897D01*
X117450102Y-59317636D01*
X117461535Y-59355323D01*
X117466000Y-59400661D01*
X117466000Y-60487339D01*
X117461535Y-60532677D01*
X117450102Y-60570364D01*
X117431534Y-60605103D01*
X117406548Y-60635548D01*
X117376103Y-60660534D01*
X117341364Y-60679102D01*
X117303677Y-60690535D01*
X117258339Y-60695000D01*
X116421661Y-60695000D01*
X116376323Y-60690535D01*
X116338636Y-60679102D01*
X116303897Y-60660534D01*
X116273452Y-60635548D01*
X116248466Y-60605103D01*
X116229898Y-60570364D01*
X116218465Y-60532677D01*
X116214000Y-60487339D01*
X116214000Y-59400661D01*
X116218465Y-59355323D01*
X116229898Y-59317636D01*
X116248466Y-59282897D01*
X116273452Y-59252452D01*
X116303897Y-59227466D01*
X116338636Y-59208898D01*
X116376323Y-59197465D01*
X116421661Y-59193000D01*
X117258339Y-59193000D01*
X117303677Y-59197465D01*
X117303677Y-59197465D01*
G37*
G36*
X119353677Y-59197465D02*
X119391364Y-59208898D01*
X119426103Y-59227466D01*
X119456548Y-59252452D01*
X119481534Y-59282897D01*
X119500102Y-59317636D01*
X119511535Y-59355323D01*
X119516000Y-59400661D01*
X119516000Y-60487339D01*
X119511535Y-60532677D01*
X119500102Y-60570364D01*
X119481534Y-60605103D01*
X119456548Y-60635548D01*
X119426103Y-60660534D01*
X119391364Y-60679102D01*
X119353677Y-60690535D01*
X119308339Y-60695000D01*
X118471661Y-60695000D01*
X118426323Y-60690535D01*
X118388636Y-60679102D01*
X118353897Y-60660534D01*
X118323452Y-60635548D01*
X118298466Y-60605103D01*
X118279898Y-60570364D01*
X118268465Y-60532677D01*
X118264000Y-60487339D01*
X118264000Y-59400661D01*
X118268465Y-59355323D01*
X118279898Y-59317636D01*
X118298466Y-59282897D01*
X118323452Y-59252452D01*
X118353897Y-59227466D01*
X118388636Y-59208898D01*
X118426323Y-59197465D01*
X118471661Y-59193000D01*
X119308339Y-59193000D01*
X119353677Y-59197465D01*
X119353677Y-59197465D01*
G37*
G36*
X106536499Y-58582445D02*
X106573993Y-58593819D01*
X106608557Y-58612294D01*
X106638847Y-58637153D01*
X106663706Y-58667443D01*
X106682181Y-58702007D01*
X106693555Y-58739501D01*
X106698000Y-58784638D01*
X106698000Y-59523362D01*
X106693555Y-59568499D01*
X106682181Y-59605993D01*
X106663706Y-59640557D01*
X106638847Y-59670847D01*
X106608557Y-59695706D01*
X106573993Y-59714181D01*
X106536499Y-59725555D01*
X106491362Y-59730000D01*
X105852638Y-59730000D01*
X105807501Y-59725555D01*
X105770007Y-59714181D01*
X105735443Y-59695706D01*
X105705153Y-59670847D01*
X105680294Y-59640557D01*
X105661819Y-59605993D01*
X105650445Y-59568499D01*
X105646000Y-59523362D01*
X105646000Y-58784638D01*
X105650445Y-58739501D01*
X105661819Y-58702007D01*
X105680294Y-58667443D01*
X105705153Y-58637153D01*
X105735443Y-58612294D01*
X105770007Y-58593819D01*
X105807501Y-58582445D01*
X105852638Y-58578000D01*
X106491362Y-58578000D01*
X106536499Y-58582445D01*
X106536499Y-58582445D01*
G37*
G36*
X104504499Y-58582445D02*
X104541993Y-58593819D01*
X104576557Y-58612294D01*
X104606847Y-58637153D01*
X104631706Y-58667443D01*
X104650181Y-58702007D01*
X104661555Y-58739501D01*
X104666000Y-58784638D01*
X104666000Y-59523362D01*
X104661555Y-59568499D01*
X104650181Y-59605993D01*
X104631706Y-59640557D01*
X104606847Y-59670847D01*
X104576557Y-59695706D01*
X104541993Y-59714181D01*
X104504499Y-59725555D01*
X104459362Y-59730000D01*
X103820638Y-59730000D01*
X103775501Y-59725555D01*
X103738007Y-59714181D01*
X103703443Y-59695706D01*
X103673153Y-59670847D01*
X103648294Y-59640557D01*
X103629819Y-59605993D01*
X103618445Y-59568499D01*
X103614000Y-59523362D01*
X103614000Y-58784638D01*
X103618445Y-58739501D01*
X103629819Y-58702007D01*
X103648294Y-58667443D01*
X103673153Y-58637153D01*
X103703443Y-58612294D01*
X103738007Y-58593819D01*
X103775501Y-58582445D01*
X103820638Y-58578000D01*
X104459362Y-58578000D01*
X104504499Y-58582445D01*
X104504499Y-58582445D01*
G37*
G36*
X104504499Y-56832445D02*
X104541993Y-56843819D01*
X104576557Y-56862294D01*
X104606847Y-56887153D01*
X104631706Y-56917443D01*
X104650181Y-56952007D01*
X104661555Y-56989501D01*
X104666000Y-57034638D01*
X104666000Y-57773362D01*
X104661555Y-57818499D01*
X104650181Y-57855993D01*
X104631706Y-57890557D01*
X104606847Y-57920847D01*
X104576557Y-57945706D01*
X104541993Y-57964181D01*
X104504499Y-57975555D01*
X104459362Y-57980000D01*
X103820638Y-57980000D01*
X103775501Y-57975555D01*
X103738007Y-57964181D01*
X103703443Y-57945706D01*
X103673153Y-57920847D01*
X103648294Y-57890557D01*
X103629819Y-57855993D01*
X103618445Y-57818499D01*
X103614000Y-57773362D01*
X103614000Y-57034638D01*
X103618445Y-56989501D01*
X103629819Y-56952007D01*
X103648294Y-56917443D01*
X103673153Y-56887153D01*
X103703443Y-56862294D01*
X103738007Y-56843819D01*
X103775501Y-56832445D01*
X103820638Y-56828000D01*
X104459362Y-56828000D01*
X104504499Y-56832445D01*
X104504499Y-56832445D01*
G37*
G36*
X106536499Y-56832445D02*
X106573993Y-56843819D01*
X106608557Y-56862294D01*
X106638847Y-56887153D01*
X106663706Y-56917443D01*
X106682181Y-56952007D01*
X106693555Y-56989501D01*
X106698000Y-57034638D01*
X106698000Y-57773362D01*
X106693555Y-57818499D01*
X106682181Y-57855993D01*
X106663706Y-57890557D01*
X106638847Y-57920847D01*
X106608557Y-57945706D01*
X106573993Y-57964181D01*
X106536499Y-57975555D01*
X106491362Y-57980000D01*
X105852638Y-57980000D01*
X105807501Y-57975555D01*
X105770007Y-57964181D01*
X105735443Y-57945706D01*
X105705153Y-57920847D01*
X105680294Y-57890557D01*
X105661819Y-57855993D01*
X105650445Y-57818499D01*
X105646000Y-57773362D01*
X105646000Y-57034638D01*
X105650445Y-56989501D01*
X105661819Y-56952007D01*
X105680294Y-56917443D01*
X105705153Y-56887153D01*
X105735443Y-56862294D01*
X105770007Y-56843819D01*
X105807501Y-56832445D01*
X105852638Y-56828000D01*
X106491362Y-56828000D01*
X106536499Y-56832445D01*
X106536499Y-56832445D01*
G37*
G36*
X130350277Y-54066665D02*
X130387964Y-54078098D01*
X130422703Y-54096666D01*
X130453148Y-54121652D01*
X130478134Y-54152097D01*
X130496702Y-54186836D01*
X130508135Y-54224523D01*
X130512600Y-54269861D01*
X130512600Y-55356539D01*
X130508135Y-55401877D01*
X130496702Y-55439564D01*
X130478134Y-55474303D01*
X130453148Y-55504748D01*
X130422703Y-55529734D01*
X130387964Y-55548302D01*
X130350277Y-55559735D01*
X130304939Y-55564200D01*
X129468261Y-55564200D01*
X129422923Y-55559735D01*
X129385236Y-55548302D01*
X129350497Y-55529734D01*
X129320052Y-55504748D01*
X129295066Y-55474303D01*
X129276498Y-55439564D01*
X129265065Y-55401877D01*
X129260600Y-55356539D01*
X129260600Y-54269861D01*
X129265065Y-54224523D01*
X129276498Y-54186836D01*
X129295066Y-54152097D01*
X129320052Y-54121652D01*
X129350497Y-54096666D01*
X129385236Y-54078098D01*
X129422923Y-54066665D01*
X129468261Y-54062200D01*
X130304939Y-54062200D01*
X130350277Y-54066665D01*
X130350277Y-54066665D01*
G37*
G36*
X132400277Y-54066665D02*
X132437964Y-54078098D01*
X132472703Y-54096666D01*
X132503148Y-54121652D01*
X132528134Y-54152097D01*
X132546702Y-54186836D01*
X132558135Y-54224523D01*
X132562600Y-54269861D01*
X132562600Y-55356539D01*
X132558135Y-55401877D01*
X132546702Y-55439564D01*
X132528134Y-55474303D01*
X132503148Y-55504748D01*
X132472703Y-55529734D01*
X132437964Y-55548302D01*
X132400277Y-55559735D01*
X132354939Y-55564200D01*
X131518261Y-55564200D01*
X131472923Y-55559735D01*
X131435236Y-55548302D01*
X131400497Y-55529734D01*
X131370052Y-55504748D01*
X131345066Y-55474303D01*
X131326498Y-55439564D01*
X131315065Y-55401877D01*
X131310600Y-55356539D01*
X131310600Y-54269861D01*
X131315065Y-54224523D01*
X131326498Y-54186836D01*
X131345066Y-54152097D01*
X131370052Y-54121652D01*
X131400497Y-54096666D01*
X131435236Y-54078098D01*
X131472923Y-54066665D01*
X131518261Y-54062200D01*
X132354939Y-54062200D01*
X132400277Y-54066665D01*
X132400277Y-54066665D01*
G37*
G36*
X131518200Y-53630400D02*
X129716200Y-53630400D01*
X129716200Y-52328400D01*
X131518200Y-52328400D01*
X131518200Y-53630400D01*
X131518200Y-53630400D01*
G37*
G36*
X135492442Y-51683518D02*
X135558627Y-51690037D01*
X135671853Y-51724384D01*
X135728467Y-51741557D01*
X135867087Y-51815652D01*
X135884991Y-51825222D01*
X135920729Y-51854552D01*
X136022186Y-51937814D01*
X136105448Y-52039271D01*
X136134778Y-52075009D01*
X136134779Y-52075011D01*
X136218443Y-52231533D01*
X136218443Y-52231534D01*
X136269963Y-52401373D01*
X136287359Y-52578000D01*
X136269963Y-52754627D01*
X136235734Y-52867466D01*
X136218443Y-52924467D01*
X136155773Y-53041713D01*
X136134778Y-53080991D01*
X136105448Y-53116729D01*
X136022186Y-53218186D01*
X135955485Y-53272925D01*
X135884991Y-53330778D01*
X135884989Y-53330779D01*
X135728467Y-53414443D01*
X135671853Y-53431616D01*
X135558627Y-53465963D01*
X135492443Y-53472481D01*
X135426260Y-53479000D01*
X135337740Y-53479000D01*
X135271557Y-53472481D01*
X135205373Y-53465963D01*
X135092147Y-53431616D01*
X135035533Y-53414443D01*
X134879011Y-53330779D01*
X134879009Y-53330778D01*
X134808515Y-53272925D01*
X134741814Y-53218186D01*
X134658552Y-53116729D01*
X134629222Y-53080991D01*
X134608227Y-53041713D01*
X134545557Y-52924467D01*
X134528266Y-52867466D01*
X134494037Y-52754627D01*
X134476641Y-52578000D01*
X134494037Y-52401373D01*
X134545557Y-52231534D01*
X134545557Y-52231533D01*
X134629221Y-52075011D01*
X134629222Y-52075009D01*
X134658552Y-52039271D01*
X134741814Y-51937814D01*
X134843271Y-51854552D01*
X134879009Y-51825222D01*
X134896913Y-51815652D01*
X135035533Y-51741557D01*
X135092147Y-51724384D01*
X135205373Y-51690037D01*
X135271558Y-51683518D01*
X135337740Y-51677000D01*
X135426260Y-51677000D01*
X135492442Y-51683518D01*
X135492442Y-51683518D01*
G37*
G36*
X109911636Y-50831019D02*
X110092903Y-50867075D01*
X110320571Y-50961378D01*
X110524542Y-51097668D01*
X110525469Y-51098287D01*
X110699713Y-51272531D01*
X110699715Y-51272534D01*
X110836622Y-51477429D01*
X110930925Y-51705097D01*
X110935958Y-51730400D01*
X110979000Y-51946786D01*
X110979000Y-52193214D01*
X110966981Y-52253636D01*
X110930925Y-52434903D01*
X110836622Y-52662571D01*
X110700332Y-52866542D01*
X110699713Y-52867469D01*
X110525469Y-53041713D01*
X110525466Y-53041715D01*
X110320571Y-53178622D01*
X110092903Y-53272925D01*
X109911635Y-53308981D01*
X109851214Y-53321000D01*
X109604786Y-53321000D01*
X109544364Y-53308981D01*
X109363097Y-53272925D01*
X109135429Y-53178622D01*
X108930534Y-53041715D01*
X108930531Y-53041713D01*
X108756287Y-52867469D01*
X108755668Y-52866542D01*
X108619378Y-52662571D01*
X108525075Y-52434903D01*
X108489019Y-52253636D01*
X108477000Y-52193214D01*
X108477000Y-51946786D01*
X108520042Y-51730400D01*
X108525075Y-51705097D01*
X108619378Y-51477429D01*
X108756285Y-51272534D01*
X108756287Y-51272531D01*
X108930531Y-51098287D01*
X108931458Y-51097668D01*
X109135429Y-50961378D01*
X109363097Y-50867075D01*
X109544364Y-50831019D01*
X109604786Y-50819000D01*
X109851214Y-50819000D01*
X109911636Y-50831019D01*
X109911636Y-50831019D01*
G37*
G36*
X126411636Y-50831019D02*
X126592903Y-50867075D01*
X126820571Y-50961378D01*
X127024542Y-51097668D01*
X127025469Y-51098287D01*
X127199713Y-51272531D01*
X127199715Y-51272534D01*
X127336622Y-51477429D01*
X127430925Y-51705097D01*
X127435958Y-51730400D01*
X127479000Y-51946786D01*
X127479000Y-52193214D01*
X127466981Y-52253635D01*
X127430925Y-52434903D01*
X127336622Y-52662571D01*
X127200332Y-52866542D01*
X127199713Y-52867469D01*
X127025469Y-53041713D01*
X127025466Y-53041715D01*
X126820571Y-53178622D01*
X126592903Y-53272925D01*
X126411635Y-53308981D01*
X126351214Y-53321000D01*
X126104786Y-53321000D01*
X126044364Y-53308981D01*
X125863097Y-53272925D01*
X125635429Y-53178622D01*
X125430534Y-53041715D01*
X125430531Y-53041713D01*
X125256287Y-52867469D01*
X125255668Y-52866542D01*
X125119378Y-52662571D01*
X125025075Y-52434903D01*
X124989019Y-52253636D01*
X124977000Y-52193214D01*
X124977000Y-51946786D01*
X125020042Y-51730400D01*
X125025075Y-51705097D01*
X125119378Y-51477429D01*
X125256285Y-51272534D01*
X125256287Y-51272531D01*
X125430531Y-51098287D01*
X125431458Y-51097668D01*
X125635429Y-50961378D01*
X125863097Y-50867075D01*
X126044364Y-50831019D01*
X126104786Y-50819000D01*
X126351214Y-50819000D01*
X126411636Y-50831019D01*
X126411636Y-50831019D01*
G37*
G36*
X130218200Y-51730400D02*
X129716200Y-51730400D01*
X129716200Y-50428400D01*
X130218200Y-50428400D01*
X130218200Y-51730400D01*
X130218200Y-51730400D01*
G37*
G36*
X131518200Y-51730400D02*
X131016200Y-51730400D01*
X131016200Y-50428400D01*
X131518200Y-50428400D01*
X131518200Y-51730400D01*
X131518200Y-51730400D01*
G37*
G36*
X135492443Y-49143519D02*
X135558627Y-49150037D01*
X135671853Y-49184384D01*
X135728467Y-49201557D01*
X135817416Y-49249102D01*
X135884991Y-49285222D01*
X135920729Y-49314552D01*
X136022186Y-49397814D01*
X136105448Y-49499271D01*
X136134778Y-49535009D01*
X136134779Y-49535011D01*
X136218443Y-49691533D01*
X136218443Y-49691534D01*
X136269963Y-49861373D01*
X136287359Y-50038000D01*
X136269963Y-50214627D01*
X136235616Y-50327853D01*
X136218443Y-50384467D01*
X136194960Y-50428400D01*
X136134778Y-50540991D01*
X136105448Y-50576729D01*
X136022186Y-50678186D01*
X135920729Y-50761448D01*
X135884991Y-50790778D01*
X135884989Y-50790779D01*
X135728467Y-50874443D01*
X135671853Y-50891616D01*
X135558627Y-50925963D01*
X135492443Y-50932481D01*
X135426260Y-50939000D01*
X135337740Y-50939000D01*
X135271557Y-50932481D01*
X135205373Y-50925963D01*
X135092147Y-50891616D01*
X135035533Y-50874443D01*
X134879011Y-50790779D01*
X134879009Y-50790778D01*
X134843271Y-50761448D01*
X134741814Y-50678186D01*
X134658552Y-50576729D01*
X134629222Y-50540991D01*
X134569040Y-50428400D01*
X134545557Y-50384467D01*
X134528384Y-50327853D01*
X134494037Y-50214627D01*
X134476641Y-50038000D01*
X134494037Y-49861373D01*
X134545557Y-49691534D01*
X134545557Y-49691533D01*
X134629221Y-49535011D01*
X134629222Y-49535009D01*
X134658552Y-49499271D01*
X134741814Y-49397814D01*
X134843271Y-49314552D01*
X134879009Y-49285222D01*
X134946584Y-49249102D01*
X135035533Y-49201557D01*
X135092147Y-49184384D01*
X135205373Y-49150037D01*
X135271557Y-49143519D01*
X135337740Y-49137000D01*
X135426260Y-49137000D01*
X135492443Y-49143519D01*
X135492443Y-49143519D01*
G37*
G36*
X130426477Y-47767465D02*
X130464164Y-47778898D01*
X130498903Y-47797466D01*
X130529348Y-47822452D01*
X130554334Y-47852897D01*
X130572902Y-47887636D01*
X130584335Y-47925323D01*
X130588800Y-47970661D01*
X130588800Y-49057339D01*
X130584335Y-49102677D01*
X130572902Y-49140364D01*
X130554334Y-49175103D01*
X130529348Y-49205548D01*
X130498903Y-49230534D01*
X130464164Y-49249102D01*
X130426477Y-49260535D01*
X130381139Y-49265000D01*
X129544461Y-49265000D01*
X129499123Y-49260535D01*
X129461436Y-49249102D01*
X129426697Y-49230534D01*
X129396252Y-49205548D01*
X129371266Y-49175103D01*
X129352698Y-49140364D01*
X129341265Y-49102677D01*
X129336800Y-49057339D01*
X129336800Y-47970661D01*
X129341265Y-47925323D01*
X129352698Y-47887636D01*
X129371266Y-47852897D01*
X129396252Y-47822452D01*
X129426697Y-47797466D01*
X129461436Y-47778898D01*
X129499123Y-47767465D01*
X129544461Y-47763000D01*
X130381139Y-47763000D01*
X130426477Y-47767465D01*
X130426477Y-47767465D01*
G37*
G36*
X132476477Y-47767465D02*
X132514164Y-47778898D01*
X132548903Y-47797466D01*
X132579348Y-47822452D01*
X132604334Y-47852897D01*
X132622902Y-47887636D01*
X132634335Y-47925323D01*
X132638800Y-47970661D01*
X132638800Y-49057339D01*
X132634335Y-49102677D01*
X132622902Y-49140364D01*
X132604334Y-49175103D01*
X132579348Y-49205548D01*
X132548903Y-49230534D01*
X132514164Y-49249102D01*
X132476477Y-49260535D01*
X132431139Y-49265000D01*
X131594461Y-49265000D01*
X131549123Y-49260535D01*
X131511436Y-49249102D01*
X131476697Y-49230534D01*
X131446252Y-49205548D01*
X131421266Y-49175103D01*
X131402698Y-49140364D01*
X131391265Y-49102677D01*
X131386800Y-49057339D01*
X131386800Y-47970661D01*
X131391265Y-47925323D01*
X131402698Y-47887636D01*
X131421266Y-47852897D01*
X131446252Y-47822452D01*
X131476697Y-47797466D01*
X131511436Y-47778898D01*
X131549123Y-47767465D01*
X131594461Y-47763000D01*
X132431139Y-47763000D01*
X132476477Y-47767465D01*
X132476477Y-47767465D01*
G37*
G36*
X135492443Y-46603519D02*
X135558627Y-46610037D01*
X135671853Y-46644384D01*
X135728467Y-46661557D01*
X135867087Y-46735652D01*
X135884991Y-46745222D01*
X135918773Y-46772946D01*
X136022186Y-46857814D01*
X136087766Y-46937725D01*
X136134778Y-46995009D01*
X136134779Y-46995011D01*
X136218443Y-47151533D01*
X136235616Y-47208147D01*
X136269963Y-47321373D01*
X136287359Y-47498000D01*
X136269963Y-47674627D01*
X136243155Y-47763000D01*
X136218443Y-47844467D01*
X136175224Y-47925323D01*
X136134778Y-48000991D01*
X136106725Y-48035173D01*
X136022186Y-48138186D01*
X135920729Y-48221448D01*
X135884991Y-48250778D01*
X135884989Y-48250779D01*
X135728467Y-48334443D01*
X135671853Y-48351616D01*
X135558627Y-48385963D01*
X135492442Y-48392482D01*
X135426260Y-48399000D01*
X135337740Y-48399000D01*
X135271558Y-48392482D01*
X135205373Y-48385963D01*
X135092147Y-48351616D01*
X135035533Y-48334443D01*
X134879011Y-48250779D01*
X134879009Y-48250778D01*
X134843271Y-48221448D01*
X134741814Y-48138186D01*
X134657275Y-48035173D01*
X134629222Y-48000991D01*
X134588776Y-47925323D01*
X134545557Y-47844467D01*
X134520845Y-47763000D01*
X134494037Y-47674627D01*
X134476641Y-47498000D01*
X134494037Y-47321373D01*
X134528384Y-47208147D01*
X134545557Y-47151533D01*
X134629221Y-46995011D01*
X134629222Y-46995009D01*
X134676234Y-46937725D01*
X134741814Y-46857814D01*
X134845227Y-46772946D01*
X134879009Y-46745222D01*
X134896913Y-46735652D01*
X135035533Y-46661557D01*
X135092147Y-46644384D01*
X135205373Y-46610037D01*
X135271557Y-46603519D01*
X135337740Y-46597000D01*
X135426260Y-46597000D01*
X135492443Y-46603519D01*
X135492443Y-46603519D01*
G37*
G36*
X121845272Y-45887428D02*
X122031992Y-45964770D01*
X122200040Y-46077056D01*
X122342944Y-46219960D01*
X122455230Y-46388008D01*
X122532572Y-46574728D01*
X122572000Y-46772946D01*
X122572000Y-46975054D01*
X122532572Y-47173272D01*
X122455230Y-47359992D01*
X122342944Y-47528040D01*
X122200040Y-47670944D01*
X122031992Y-47783230D01*
X121845272Y-47860572D01*
X121647054Y-47900000D01*
X121444946Y-47900000D01*
X121246728Y-47860572D01*
X121060008Y-47783230D01*
X120891960Y-47670944D01*
X120749056Y-47528040D01*
X120636770Y-47359992D01*
X120559428Y-47173272D01*
X120520000Y-46975054D01*
X120520000Y-46772946D01*
X120559428Y-46574728D01*
X120636770Y-46388008D01*
X120749056Y-46219960D01*
X120891960Y-46077056D01*
X121060008Y-45964770D01*
X121246728Y-45887428D01*
X121444946Y-45848000D01*
X121647054Y-45848000D01*
X121845272Y-45887428D01*
X121845272Y-45887428D01*
G37*
G36*
X114345272Y-45887428D02*
X114531992Y-45964770D01*
X114700040Y-46077056D01*
X114842944Y-46219960D01*
X114955230Y-46388008D01*
X115032572Y-46574728D01*
X115072000Y-46772946D01*
X115072000Y-46975054D01*
X115032572Y-47173272D01*
X114955230Y-47359992D01*
X114842944Y-47528040D01*
X114700040Y-47670944D01*
X114531992Y-47783230D01*
X114345272Y-47860572D01*
X114147054Y-47900000D01*
X113944946Y-47900000D01*
X113746728Y-47860572D01*
X113560008Y-47783230D01*
X113391960Y-47670944D01*
X113249056Y-47528040D01*
X113136770Y-47359992D01*
X113059428Y-47173272D01*
X113020000Y-46975054D01*
X113020000Y-46772946D01*
X113059428Y-46574728D01*
X113136770Y-46388008D01*
X113249056Y-46219960D01*
X113391960Y-46077056D01*
X113560008Y-45964770D01*
X113746728Y-45887428D01*
X113944946Y-45848000D01*
X114147054Y-45848000D01*
X114345272Y-45887428D01*
X114345272Y-45887428D01*
G37*
G36*
X130401077Y-45659265D02*
X130438764Y-45670698D01*
X130473503Y-45689266D01*
X130503948Y-45714252D01*
X130528934Y-45744697D01*
X130547502Y-45779436D01*
X130558935Y-45817123D01*
X130563400Y-45862461D01*
X130563400Y-46949139D01*
X130558935Y-46994477D01*
X130547502Y-47032164D01*
X130528934Y-47066903D01*
X130503948Y-47097348D01*
X130473503Y-47122334D01*
X130438764Y-47140902D01*
X130401077Y-47152335D01*
X130355739Y-47156800D01*
X129519061Y-47156800D01*
X129473723Y-47152335D01*
X129436036Y-47140902D01*
X129401297Y-47122334D01*
X129370852Y-47097348D01*
X129345866Y-47066903D01*
X129327298Y-47032164D01*
X129315865Y-46994477D01*
X129311400Y-46949139D01*
X129311400Y-45862461D01*
X129315865Y-45817123D01*
X129327298Y-45779436D01*
X129345866Y-45744697D01*
X129370852Y-45714252D01*
X129401297Y-45689266D01*
X129436036Y-45670698D01*
X129473723Y-45659265D01*
X129519061Y-45654800D01*
X130355739Y-45654800D01*
X130401077Y-45659265D01*
X130401077Y-45659265D01*
G37*
G36*
X132451077Y-45659265D02*
X132488764Y-45670698D01*
X132523503Y-45689266D01*
X132553948Y-45714252D01*
X132578934Y-45744697D01*
X132597502Y-45779436D01*
X132608935Y-45817123D01*
X132613400Y-45862461D01*
X132613400Y-46949139D01*
X132608935Y-46994477D01*
X132597502Y-47032164D01*
X132578934Y-47066903D01*
X132553948Y-47097348D01*
X132523503Y-47122334D01*
X132488764Y-47140902D01*
X132451077Y-47152335D01*
X132405739Y-47156800D01*
X131569061Y-47156800D01*
X131523723Y-47152335D01*
X131486036Y-47140902D01*
X131451297Y-47122334D01*
X131420852Y-47097348D01*
X131395866Y-47066903D01*
X131377298Y-47032164D01*
X131365865Y-46994477D01*
X131361400Y-46949139D01*
X131361400Y-45862461D01*
X131365865Y-45817123D01*
X131377298Y-45779436D01*
X131395866Y-45744697D01*
X131420852Y-45714252D01*
X131451297Y-45689266D01*
X131486036Y-45670698D01*
X131523723Y-45659265D01*
X131569061Y-45654800D01*
X132405739Y-45654800D01*
X132451077Y-45659265D01*
X132451077Y-45659265D01*
G37*
G36*
X135492443Y-44063519D02*
X135558627Y-44070037D01*
X135671853Y-44104384D01*
X135728467Y-44121557D01*
X135867087Y-44195652D01*
X135884991Y-44205222D01*
X135920729Y-44234552D01*
X136022186Y-44317814D01*
X136105448Y-44419271D01*
X136134778Y-44455009D01*
X136134779Y-44455011D01*
X136218443Y-44611533D01*
X136218443Y-44611534D01*
X136269963Y-44781373D01*
X136287359Y-44958000D01*
X136269963Y-45134627D01*
X136246495Y-45211990D01*
X136218443Y-45304467D01*
X136150809Y-45431000D01*
X136134778Y-45460991D01*
X136105448Y-45496729D01*
X136022186Y-45598186D01*
X135927955Y-45675518D01*
X135884991Y-45710778D01*
X135884989Y-45710779D01*
X135728467Y-45794443D01*
X135671853Y-45811616D01*
X135558627Y-45845963D01*
X135492443Y-45852481D01*
X135426260Y-45859000D01*
X135337740Y-45859000D01*
X135271557Y-45852481D01*
X135205373Y-45845963D01*
X135092147Y-45811616D01*
X135035533Y-45794443D01*
X134879011Y-45710779D01*
X134879009Y-45710778D01*
X134836045Y-45675518D01*
X134741814Y-45598186D01*
X134658552Y-45496729D01*
X134629222Y-45460991D01*
X134613191Y-45431000D01*
X134545557Y-45304467D01*
X134517505Y-45211990D01*
X134494037Y-45134627D01*
X134476641Y-44958000D01*
X134494037Y-44781373D01*
X134545557Y-44611534D01*
X134545557Y-44611533D01*
X134629221Y-44455011D01*
X134629222Y-44455009D01*
X134658552Y-44419271D01*
X134741814Y-44317814D01*
X134843271Y-44234552D01*
X134879009Y-44205222D01*
X134896913Y-44195652D01*
X135035533Y-44121557D01*
X135092147Y-44104384D01*
X135205373Y-44070037D01*
X135271557Y-44063519D01*
X135337740Y-44057000D01*
X135426260Y-44057000D01*
X135492443Y-44063519D01*
X135492443Y-44063519D01*
G37*
G36*
X118485345Y-43473918D02*
X118650147Y-43506699D01*
X118828678Y-43580649D01*
X118989351Y-43688007D01*
X119125993Y-43824649D01*
X119233351Y-43985322D01*
X119307301Y-44163853D01*
X119345000Y-44353380D01*
X119345000Y-44546620D01*
X119307301Y-44736147D01*
X119233351Y-44914678D01*
X119125993Y-45075351D01*
X118989351Y-45211993D01*
X118828678Y-45319351D01*
X118650147Y-45393301D01*
X118508002Y-45421575D01*
X118460621Y-45431000D01*
X118267379Y-45431000D01*
X118219998Y-45421575D01*
X118077853Y-45393301D01*
X117899322Y-45319351D01*
X117738649Y-45211993D01*
X117602007Y-45075351D01*
X117494649Y-44914678D01*
X117420699Y-44736147D01*
X117383000Y-44546620D01*
X117383000Y-44353380D01*
X117420699Y-44163853D01*
X117494649Y-43985322D01*
X117602007Y-43824649D01*
X117738649Y-43688007D01*
X117899322Y-43580649D01*
X118077853Y-43506699D01*
X118242655Y-43473918D01*
X118267379Y-43469000D01*
X118460621Y-43469000D01*
X118485345Y-43473918D01*
X118485345Y-43473918D01*
G37*
G36*
X132451077Y-43398665D02*
X132488764Y-43410098D01*
X132523503Y-43428666D01*
X132553948Y-43453652D01*
X132578934Y-43484097D01*
X132597502Y-43518836D01*
X132608935Y-43556523D01*
X132613400Y-43601861D01*
X132613400Y-44688539D01*
X132608935Y-44733877D01*
X132597502Y-44771564D01*
X132578934Y-44806303D01*
X132553948Y-44836748D01*
X132523503Y-44861734D01*
X132488764Y-44880302D01*
X132451077Y-44891735D01*
X132405739Y-44896200D01*
X131569061Y-44896200D01*
X131523723Y-44891735D01*
X131486036Y-44880302D01*
X131451297Y-44861734D01*
X131420852Y-44836748D01*
X131395866Y-44806303D01*
X131377298Y-44771564D01*
X131365865Y-44733877D01*
X131361400Y-44688539D01*
X131361400Y-43601861D01*
X131365865Y-43556523D01*
X131377298Y-43518836D01*
X131395866Y-43484097D01*
X131420852Y-43453652D01*
X131451297Y-43428666D01*
X131486036Y-43410098D01*
X131523723Y-43398665D01*
X131569061Y-43394200D01*
X132405739Y-43394200D01*
X132451077Y-43398665D01*
X132451077Y-43398665D01*
G37*
G36*
X130401077Y-43398665D02*
X130438764Y-43410098D01*
X130473503Y-43428666D01*
X130503948Y-43453652D01*
X130528934Y-43484097D01*
X130547502Y-43518836D01*
X130558935Y-43556523D01*
X130563400Y-43601861D01*
X130563400Y-44688539D01*
X130558935Y-44733877D01*
X130547502Y-44771564D01*
X130528934Y-44806303D01*
X130503948Y-44836748D01*
X130473503Y-44861734D01*
X130438764Y-44880302D01*
X130401077Y-44891735D01*
X130355739Y-44896200D01*
X129519061Y-44896200D01*
X129473723Y-44891735D01*
X129436036Y-44880302D01*
X129401297Y-44861734D01*
X129370852Y-44836748D01*
X129345866Y-44806303D01*
X129327298Y-44771564D01*
X129315865Y-44733877D01*
X129311400Y-44688539D01*
X129311400Y-43601861D01*
X129315865Y-43556523D01*
X129327298Y-43518836D01*
X129345866Y-43484097D01*
X129370852Y-43453652D01*
X129401297Y-43428666D01*
X129436036Y-43410098D01*
X129473723Y-43398665D01*
X129519061Y-43394200D01*
X130355739Y-43394200D01*
X130401077Y-43398665D01*
X130401077Y-43398665D01*
G37*
G36*
X111824215Y-42228052D02*
X111912458Y-42245605D01*
X111981319Y-42274128D01*
X112078703Y-42314466D01*
X112228325Y-42414440D01*
X112355560Y-42541675D01*
X112455534Y-42691297D01*
X112485841Y-42764466D01*
X112524395Y-42857542D01*
X112559500Y-43034028D01*
X112559500Y-43213972D01*
X112524395Y-43390458D01*
X112503845Y-43440069D01*
X112455534Y-43556703D01*
X112355560Y-43706325D01*
X112228325Y-43833560D01*
X112078703Y-43933534D01*
X111981319Y-43973872D01*
X111912458Y-44002395D01*
X111824215Y-44019947D01*
X111735973Y-44037500D01*
X111556027Y-44037500D01*
X111467785Y-44019947D01*
X111379542Y-44002395D01*
X111310681Y-43973872D01*
X111213297Y-43933534D01*
X111063675Y-43833560D01*
X110936440Y-43706325D01*
X110836466Y-43556703D01*
X110788155Y-43440069D01*
X110767605Y-43390458D01*
X110732500Y-43213972D01*
X110732500Y-43034028D01*
X110767605Y-42857542D01*
X110806159Y-42764466D01*
X110836466Y-42691297D01*
X110936440Y-42541675D01*
X111063675Y-42414440D01*
X111213297Y-42314466D01*
X111310681Y-42274128D01*
X111379542Y-42245605D01*
X111467785Y-42228052D01*
X111556027Y-42210500D01*
X111735973Y-42210500D01*
X111824215Y-42228052D01*
X111824215Y-42228052D01*
G37*
G36*
X124124215Y-42228052D02*
X124212458Y-42245605D01*
X124281319Y-42274128D01*
X124378703Y-42314466D01*
X124528325Y-42414440D01*
X124655560Y-42541675D01*
X124755534Y-42691297D01*
X124785841Y-42764466D01*
X124824395Y-42857542D01*
X124859500Y-43034028D01*
X124859500Y-43213972D01*
X124824395Y-43390458D01*
X124803845Y-43440069D01*
X124755534Y-43556703D01*
X124655560Y-43706325D01*
X124528325Y-43833560D01*
X124378703Y-43933534D01*
X124281319Y-43973872D01*
X124212458Y-44002395D01*
X124124215Y-44019947D01*
X124035973Y-44037500D01*
X123856027Y-44037500D01*
X123767785Y-44019947D01*
X123679542Y-44002395D01*
X123610681Y-43973872D01*
X123513297Y-43933534D01*
X123363675Y-43833560D01*
X123236440Y-43706325D01*
X123136466Y-43556703D01*
X123088155Y-43440069D01*
X123067605Y-43390458D01*
X123032500Y-43213972D01*
X123032500Y-43034028D01*
X123067605Y-42857542D01*
X123106159Y-42764466D01*
X123136466Y-42691297D01*
X123236440Y-42541675D01*
X123363675Y-42414440D01*
X123513297Y-42314466D01*
X123610681Y-42274128D01*
X123679542Y-42245605D01*
X123767785Y-42228052D01*
X123856027Y-42210500D01*
X124035973Y-42210500D01*
X124124215Y-42228052D01*
X124124215Y-42228052D01*
G37*
G36*
X135492443Y-41523519D02*
X135558627Y-41530037D01*
X135671853Y-41564384D01*
X135728467Y-41581557D01*
X135867087Y-41655652D01*
X135884991Y-41665222D01*
X135920729Y-41694552D01*
X136022186Y-41777814D01*
X136084200Y-41853380D01*
X136134778Y-41915009D01*
X136134779Y-41915011D01*
X136218443Y-42071533D01*
X136218443Y-42071534D01*
X136269963Y-42241373D01*
X136287359Y-42418000D01*
X136269963Y-42594627D01*
X136235616Y-42707853D01*
X136218443Y-42764467D01*
X136168692Y-42857543D01*
X136134778Y-42920991D01*
X136105448Y-42956729D01*
X136022186Y-43058186D01*
X135920729Y-43141448D01*
X135884991Y-43170778D01*
X135884989Y-43170779D01*
X135728467Y-43254443D01*
X135671853Y-43271616D01*
X135558627Y-43305963D01*
X135492443Y-43312481D01*
X135426260Y-43319000D01*
X135337740Y-43319000D01*
X135271557Y-43312481D01*
X135205373Y-43305963D01*
X135092147Y-43271616D01*
X135035533Y-43254443D01*
X134879011Y-43170779D01*
X134879009Y-43170778D01*
X134843271Y-43141448D01*
X134741814Y-43058186D01*
X134658552Y-42956729D01*
X134629222Y-42920991D01*
X134595308Y-42857543D01*
X134545557Y-42764467D01*
X134528384Y-42707853D01*
X134494037Y-42594627D01*
X134476641Y-42418000D01*
X134494037Y-42241373D01*
X134545557Y-42071534D01*
X134545557Y-42071533D01*
X134629221Y-41915011D01*
X134629222Y-41915009D01*
X134679800Y-41853380D01*
X134741814Y-41777814D01*
X134843271Y-41694552D01*
X134879009Y-41665222D01*
X134896913Y-41655652D01*
X135035533Y-41581557D01*
X135092147Y-41564384D01*
X135205373Y-41530037D01*
X135271558Y-41523518D01*
X135337740Y-41517000D01*
X135426260Y-41517000D01*
X135492443Y-41523519D01*
X135492443Y-41523519D01*
G37*
G36*
X118508002Y-40978425D02*
X118650147Y-41006699D01*
X118828678Y-41080649D01*
X118989351Y-41188007D01*
X119125993Y-41324649D01*
X119233351Y-41485322D01*
X119307301Y-41663853D01*
X119345000Y-41853380D01*
X119345000Y-42046620D01*
X119307301Y-42236147D01*
X119233351Y-42414678D01*
X119125993Y-42575351D01*
X118989351Y-42711993D01*
X118828678Y-42819351D01*
X118650147Y-42893301D01*
X118510949Y-42920989D01*
X118460621Y-42931000D01*
X118267379Y-42931000D01*
X118217051Y-42920989D01*
X118077853Y-42893301D01*
X117899322Y-42819351D01*
X117738649Y-42711993D01*
X117602007Y-42575351D01*
X117494649Y-42414678D01*
X117420699Y-42236147D01*
X117383000Y-42046620D01*
X117383000Y-41853380D01*
X117420699Y-41663853D01*
X117494649Y-41485322D01*
X117602007Y-41324649D01*
X117738649Y-41188007D01*
X117899322Y-41080649D01*
X118077853Y-41006699D01*
X118219998Y-40978425D01*
X118267379Y-40969000D01*
X118460621Y-40969000D01*
X118508002Y-40978425D01*
X118508002Y-40978425D01*
G37*
G36*
X114267400Y-38469000D02*
X114389027Y-38493193D01*
X114603045Y-38581842D01*
X114761936Y-38688010D01*
X114795659Y-38710543D01*
X114959457Y-38874341D01*
X114959459Y-38874344D01*
X115088158Y-39066955D01*
X115176807Y-39280973D01*
X115222000Y-39508174D01*
X115222000Y-39739826D01*
X115176807Y-39967027D01*
X115088158Y-40181045D01*
X114960326Y-40372358D01*
X114959457Y-40373659D01*
X114795659Y-40537457D01*
X114795656Y-40537459D01*
X114603045Y-40666158D01*
X114389027Y-40754807D01*
X114275427Y-40777403D01*
X114161827Y-40800000D01*
X113930173Y-40800000D01*
X113816573Y-40777403D01*
X113702973Y-40754807D01*
X113488955Y-40666158D01*
X113296344Y-40537459D01*
X113296341Y-40537457D01*
X113132543Y-40373659D01*
X113131674Y-40372358D01*
X113003842Y-40181045D01*
X112915193Y-39967027D01*
X112870000Y-39739826D01*
X112870000Y-39508174D01*
X112915193Y-39280973D01*
X113003842Y-39066955D01*
X113132541Y-38874344D01*
X113132543Y-38874341D01*
X113296341Y-38710543D01*
X113330064Y-38688010D01*
X113488955Y-38581842D01*
X113702973Y-38493193D01*
X113824600Y-38469000D01*
X113930173Y-38448000D01*
X114161827Y-38448000D01*
X114267400Y-38469000D01*
X114267400Y-38469000D01*
G37*
G36*
X136283000Y-40779000D02*
X134481000Y-40779000D01*
X134481000Y-38977000D01*
X136283000Y-38977000D01*
X136283000Y-40779000D01*
X136283000Y-40779000D01*
G37*
G36*
X109911636Y-38231019D02*
X110092903Y-38267075D01*
X110320571Y-38361378D01*
X110450209Y-38448000D01*
X110525469Y-38498287D01*
X110699713Y-38672531D01*
X110699715Y-38672534D01*
X110836622Y-38877429D01*
X110930925Y-39105097D01*
X110979000Y-39346787D01*
X110979000Y-39593213D01*
X110930925Y-39834903D01*
X110836622Y-40062571D01*
X110736783Y-40211990D01*
X110699713Y-40267469D01*
X110525469Y-40441713D01*
X110525466Y-40441715D01*
X110320571Y-40578622D01*
X110092903Y-40672925D01*
X109911636Y-40708981D01*
X109851214Y-40721000D01*
X109604786Y-40721000D01*
X109544364Y-40708981D01*
X109363097Y-40672925D01*
X109135429Y-40578622D01*
X108930534Y-40441715D01*
X108930531Y-40441713D01*
X108756287Y-40267469D01*
X108719217Y-40211990D01*
X108619378Y-40062571D01*
X108525075Y-39834903D01*
X108477000Y-39593213D01*
X108477000Y-39346787D01*
X108525075Y-39105097D01*
X108619378Y-38877429D01*
X108756285Y-38672534D01*
X108756287Y-38672531D01*
X108930531Y-38498287D01*
X109005791Y-38448000D01*
X109135429Y-38361378D01*
X109363097Y-38267075D01*
X109544364Y-38231019D01*
X109604786Y-38219000D01*
X109851214Y-38219000D01*
X109911636Y-38231019D01*
X109911636Y-38231019D01*
G37*
G36*
X126411636Y-38231019D02*
X126592903Y-38267075D01*
X126820571Y-38361378D01*
X126950209Y-38448000D01*
X127025469Y-38498287D01*
X127199713Y-38672531D01*
X127199715Y-38672534D01*
X127336622Y-38877429D01*
X127430925Y-39105097D01*
X127479000Y-39346787D01*
X127479000Y-39593213D01*
X127430925Y-39834903D01*
X127336622Y-40062571D01*
X127236783Y-40211990D01*
X127199713Y-40267469D01*
X127025469Y-40441713D01*
X127025466Y-40441715D01*
X126820571Y-40578622D01*
X126592903Y-40672925D01*
X126411636Y-40708981D01*
X126351214Y-40721000D01*
X126104786Y-40721000D01*
X126044364Y-40708981D01*
X125863097Y-40672925D01*
X125635429Y-40578622D01*
X125430534Y-40441715D01*
X125430531Y-40441713D01*
X125256287Y-40267469D01*
X125219217Y-40211990D01*
X125119378Y-40062571D01*
X125025075Y-39834903D01*
X124977000Y-39593213D01*
X124977000Y-39346787D01*
X125025075Y-39105097D01*
X125119378Y-38877429D01*
X125256285Y-38672534D01*
X125256287Y-38672531D01*
X125430531Y-38498287D01*
X125505791Y-38448000D01*
X125635429Y-38361378D01*
X125863097Y-38267075D01*
X126044364Y-38231019D01*
X126104786Y-38219000D01*
X126351214Y-38219000D01*
X126411636Y-38231019D01*
X126411636Y-38231019D01*
G37*
G36*
X118508002Y-38478425D02*
X118650147Y-38506699D01*
X118828678Y-38580649D01*
X118989351Y-38688007D01*
X119125993Y-38824649D01*
X119233351Y-38985322D01*
X119307301Y-39163853D01*
X119330597Y-39280973D01*
X119343689Y-39346786D01*
X119345000Y-39353380D01*
X119345000Y-39546620D01*
X119307301Y-39736147D01*
X119233351Y-39914678D01*
X119125993Y-40075351D01*
X118989351Y-40211993D01*
X118828678Y-40319351D01*
X118650147Y-40393301D01*
X118508002Y-40421575D01*
X118460621Y-40431000D01*
X118267379Y-40431000D01*
X118219998Y-40421575D01*
X118077853Y-40393301D01*
X117899322Y-40319351D01*
X117738649Y-40211993D01*
X117602007Y-40075351D01*
X117494649Y-39914678D01*
X117420699Y-39736147D01*
X117383000Y-39546620D01*
X117383000Y-39353380D01*
X117384312Y-39346786D01*
X117397403Y-39280973D01*
X117420699Y-39163853D01*
X117494649Y-38985322D01*
X117602007Y-38824649D01*
X117738649Y-38688007D01*
X117899322Y-38580649D01*
X118077853Y-38506699D01*
X118219998Y-38478425D01*
X118267379Y-38469000D01*
X118460621Y-38469000D01*
X118508002Y-38478425D01*
X118508002Y-38478425D01*
G37*
M02*
