G04 #@! TF.GenerationSoftware,KiCad,Pcbnew,(5.0.2)-1*
G04 #@! TF.CreationDate,2020-11-24T18:05:24+01:00*
G04 #@! TF.ProjectId,PCB_BLUETOOTH_V3,5043425f-424c-4554-9554-4f4f54485f56,rev?*
G04 #@! TF.SameCoordinates,Original*
G04 #@! TF.FileFunction,Legend,Top*
G04 #@! TF.FilePolarity,Positive*
%FSLAX46Y46*%
G04 Gerber Fmt 4.6, Leading zero omitted, Abs format (unit mm)*
G04 Created by KiCad (PCBNEW (5.0.2)-1) date 24/11/2020 18:05:24*
%MOMM*%
%LPD*%
G01*
G04 APERTURE LIST*
%ADD10C,0.300000*%
%ADD11C,0.200000*%
%ADD12C,0.125000*%
%ADD13C,0.120000*%
%ADD14C,0.254000*%
%ADD15C,0.100000*%
%ADD16C,0.152400*%
%ADD17C,0.150000*%
%ADD18C,0.250000*%
%ADD19C,0.187500*%
%ADD20C,0.075000*%
G04 APERTURE END LIST*
D10*
X128016000Y-58420000D02*
G75*
G03X128016000Y-58420000I-254000J0D01*
G01*
X129133600Y-53568600D02*
G75*
G03X129133600Y-53568600I-254000J0D01*
G01*
X120255000Y-146342000D02*
G75*
G03X120255000Y-146342000I-254000J0D01*
G01*
X129844800Y-152425400D02*
G75*
G03X129844800Y-152425400I-254000J0D01*
G01*
X119288605Y-151638000D02*
G75*
G03X119288605Y-151638000I-289605J0D01*
G01*
D11*
X107751775Y-150685163D02*
X108259775Y-150939163D01*
X107518200Y-150698200D02*
X107772200Y-150698200D01*
X108280200Y-150723600D02*
X108534200Y-150723600D01*
X107746800Y-151231600D02*
X107746800Y-150215600D01*
X108259775Y-150939163D02*
X108259775Y-150431163D01*
X108259775Y-150431163D02*
X107751775Y-150685163D01*
X133939175Y-130111163D02*
X134447175Y-130365163D01*
X133685175Y-130111163D02*
X133939175Y-130111163D01*
X134447175Y-130111163D02*
X134701175Y-130111163D01*
X133939175Y-130619163D02*
X133939175Y-129603163D01*
X134447175Y-130365163D02*
X134447175Y-129857163D01*
X134447175Y-129857163D02*
X133939175Y-130111163D01*
X134284825Y-127444837D02*
X133776825Y-127190837D01*
X134538825Y-127444837D02*
X134284825Y-127444837D01*
X133776825Y-127444837D02*
X133522825Y-127444837D01*
X134284825Y-126936837D02*
X134284825Y-127952837D01*
X133776825Y-127190837D02*
X133776825Y-127698837D01*
X133776825Y-127698837D02*
X134284825Y-127444837D01*
X134284825Y-125158837D02*
X133776825Y-124904837D01*
X134538825Y-125158837D02*
X134284825Y-125158837D01*
X133776825Y-125158837D02*
X133522825Y-125158837D01*
X134284825Y-124650837D02*
X134284825Y-125666837D01*
X133776825Y-124904837D02*
X133776825Y-125412837D01*
X133776825Y-125412837D02*
X134284825Y-125158837D01*
X134518400Y-122097800D02*
X134284825Y-122110837D01*
X133776825Y-122110837D02*
X133522825Y-122110837D01*
X134284825Y-121602837D02*
X134284825Y-122618837D01*
X133776825Y-121856837D02*
X133776825Y-122364837D01*
X133776825Y-122364837D02*
X134284825Y-122110837D01*
X129032000Y-89408000D02*
X129286000Y-88900000D01*
X129032000Y-89662000D02*
X129032000Y-89408000D01*
X129032000Y-88900000D02*
X129032000Y-88646000D01*
X129540000Y-89408000D02*
X128524000Y-89408000D01*
X129286000Y-88900000D02*
X128778000Y-88900000D01*
X128778000Y-88900000D02*
X129032000Y-89408000D01*
X129032000Y-75946000D02*
X128778000Y-76454000D01*
X129032000Y-75692000D02*
X129032000Y-75946000D01*
X129032000Y-76454000D02*
X129032000Y-76708000D01*
X128524000Y-75946000D02*
X129540000Y-75946000D01*
X128778000Y-76454000D02*
X129286000Y-76454000D01*
X129286000Y-76454000D02*
X129032000Y-75946000D01*
D12*
X127747876Y-73725885D02*
X127819304Y-73749695D01*
X127843114Y-73773504D01*
X127866923Y-73821123D01*
X127866923Y-73892552D01*
X127843114Y-73940171D01*
X127819304Y-73963980D01*
X127771685Y-73987790D01*
X127581209Y-73987790D01*
X127581209Y-73487790D01*
X127747876Y-73487790D01*
X127795495Y-73511600D01*
X127819304Y-73535409D01*
X127843114Y-73583028D01*
X127843114Y-73630647D01*
X127819304Y-73678266D01*
X127795495Y-73702076D01*
X127747876Y-73725885D01*
X127581209Y-73725885D01*
X128057400Y-73844933D02*
X128295495Y-73844933D01*
X128009780Y-73987790D02*
X128176447Y-73487790D01*
X128343114Y-73987790D01*
X128438352Y-73487790D02*
X128724066Y-73487790D01*
X128581209Y-73987790D02*
X128581209Y-73487790D01*
X129509780Y-73987790D02*
X129271685Y-73987790D01*
X129271685Y-73487790D01*
X129771685Y-73487790D02*
X129866923Y-73487790D01*
X129914542Y-73511600D01*
X129962161Y-73559219D01*
X129985971Y-73654457D01*
X129985971Y-73821123D01*
X129962161Y-73916361D01*
X129914542Y-73963980D01*
X129866923Y-73987790D01*
X129771685Y-73987790D01*
X129724066Y-73963980D01*
X129676447Y-73916361D01*
X129652638Y-73821123D01*
X129652638Y-73654457D01*
X129676447Y-73559219D01*
X129724066Y-73511600D01*
X129771685Y-73487790D01*
X130152638Y-73487790D02*
X130271685Y-73987790D01*
X130366923Y-73630647D01*
X130462161Y-73987790D01*
X130581209Y-73487790D01*
X106309552Y-152575390D02*
X106309552Y-152075390D01*
X106500028Y-152075390D01*
X106547647Y-152099200D01*
X106571457Y-152123009D01*
X106595266Y-152170628D01*
X106595266Y-152242057D01*
X106571457Y-152289676D01*
X106547647Y-152313485D01*
X106500028Y-152337295D01*
X106309552Y-152337295D01*
X106904790Y-152075390D02*
X107000028Y-152075390D01*
X107047647Y-152099200D01*
X107095266Y-152146819D01*
X107119076Y-152242057D01*
X107119076Y-152408723D01*
X107095266Y-152503961D01*
X107047647Y-152551580D01*
X107000028Y-152575390D01*
X106904790Y-152575390D01*
X106857171Y-152551580D01*
X106809552Y-152503961D01*
X106785742Y-152408723D01*
X106785742Y-152242057D01*
X106809552Y-152146819D01*
X106857171Y-152099200D01*
X106904790Y-152075390D01*
X107285742Y-152075390D02*
X107404790Y-152575390D01*
X107500028Y-152218247D01*
X107595266Y-152575390D01*
X107714314Y-152075390D01*
X107904790Y-152313485D02*
X108071457Y-152313485D01*
X108142885Y-152575390D02*
X107904790Y-152575390D01*
X107904790Y-152075390D01*
X108142885Y-152075390D01*
X108642885Y-152575390D02*
X108476219Y-152337295D01*
X108357171Y-152575390D02*
X108357171Y-152075390D01*
X108547647Y-152075390D01*
X108595266Y-152099200D01*
X108619076Y-152123009D01*
X108642885Y-152170628D01*
X108642885Y-152242057D01*
X108619076Y-152289676D01*
X108595266Y-152313485D01*
X108547647Y-152337295D01*
X108357171Y-152337295D01*
X109333361Y-152075390D02*
X109428600Y-152075390D01*
X109476219Y-152099200D01*
X109523838Y-152146819D01*
X109547647Y-152242057D01*
X109547647Y-152408723D01*
X109523838Y-152503961D01*
X109476219Y-152551580D01*
X109428600Y-152575390D01*
X109333361Y-152575390D01*
X109285742Y-152551580D01*
X109238123Y-152503961D01*
X109214314Y-152408723D01*
X109214314Y-152242057D01*
X109238123Y-152146819D01*
X109285742Y-152099200D01*
X109333361Y-152075390D01*
X109761933Y-152575390D02*
X109761933Y-152075390D01*
X110047647Y-152575390D01*
X110047647Y-152075390D01*
X116935380Y-65634371D02*
X116911571Y-65658180D01*
X116840142Y-65681990D01*
X116792523Y-65681990D01*
X116721095Y-65658180D01*
X116673476Y-65610561D01*
X116649666Y-65562942D01*
X116625857Y-65467704D01*
X116625857Y-65396276D01*
X116649666Y-65301038D01*
X116673476Y-65253419D01*
X116721095Y-65205800D01*
X116792523Y-65181990D01*
X116840142Y-65181990D01*
X116911571Y-65205800D01*
X116935380Y-65229609D01*
X117149666Y-65681990D02*
X117149666Y-65181990D01*
X117149666Y-65420085D02*
X117435380Y-65420085D01*
X117435380Y-65681990D02*
X117435380Y-65181990D01*
X117649666Y-65539133D02*
X117887761Y-65539133D01*
X117602047Y-65681990D02*
X117768714Y-65181990D01*
X117935380Y-65681990D01*
X118387761Y-65681990D02*
X118221095Y-65443895D01*
X118102047Y-65681990D02*
X118102047Y-65181990D01*
X118292523Y-65181990D01*
X118340142Y-65205800D01*
X118363952Y-65229609D01*
X118387761Y-65277228D01*
X118387761Y-65348657D01*
X118363952Y-65396276D01*
X118340142Y-65420085D01*
X118292523Y-65443895D01*
X118102047Y-65443895D01*
X118863952Y-65205800D02*
X118816333Y-65181990D01*
X118744904Y-65181990D01*
X118673476Y-65205800D01*
X118625857Y-65253419D01*
X118602047Y-65301038D01*
X118578238Y-65396276D01*
X118578238Y-65467704D01*
X118602047Y-65562942D01*
X118625857Y-65610561D01*
X118673476Y-65658180D01*
X118744904Y-65681990D01*
X118792523Y-65681990D01*
X118863952Y-65658180D01*
X118887761Y-65634371D01*
X118887761Y-65467704D01*
X118792523Y-65467704D01*
X119102047Y-65420085D02*
X119268714Y-65420085D01*
X119340142Y-65681990D02*
X119102047Y-65681990D01*
X119102047Y-65181990D01*
X119340142Y-65181990D01*
D11*
X58898857Y-82376095D02*
X58898857Y-81076095D01*
X59398857Y-82004666D01*
X59898857Y-81076095D01*
X59898857Y-82376095D01*
X60613142Y-81695142D02*
X61113142Y-81695142D01*
X61327428Y-82376095D02*
X60613142Y-82376095D01*
X60613142Y-81076095D01*
X61327428Y-81076095D01*
X61756000Y-81076095D02*
X62613142Y-81076095D01*
X62184571Y-82376095D02*
X62184571Y-81076095D01*
X62898857Y-81076095D02*
X63756000Y-81076095D01*
X63327428Y-82376095D02*
X63327428Y-81076095D01*
X65113142Y-82376095D02*
X64613142Y-81757047D01*
X64256000Y-82376095D02*
X64256000Y-81076095D01*
X64827428Y-81076095D01*
X64970285Y-81138000D01*
X65041714Y-81199904D01*
X65113142Y-81323714D01*
X65113142Y-81509428D01*
X65041714Y-81633238D01*
X64970285Y-81695142D01*
X64827428Y-81757047D01*
X64256000Y-81757047D01*
X65756000Y-81695142D02*
X66256000Y-81695142D01*
X66470285Y-82376095D02*
X65756000Y-82376095D01*
X65756000Y-81076095D01*
X66470285Y-81076095D01*
X68184571Y-82314190D02*
X68398857Y-82376095D01*
X68756000Y-82376095D01*
X68898857Y-82314190D01*
X68970285Y-82252285D01*
X69041714Y-82128476D01*
X69041714Y-82004666D01*
X68970285Y-81880857D01*
X68898857Y-81818952D01*
X68756000Y-81757047D01*
X68470285Y-81695142D01*
X68327428Y-81633238D01*
X68256000Y-81571333D01*
X68184571Y-81447523D01*
X68184571Y-81323714D01*
X68256000Y-81199904D01*
X68327428Y-81138000D01*
X68470285Y-81076095D01*
X68827428Y-81076095D01*
X69041714Y-81138000D01*
X69684571Y-82376095D02*
X69684571Y-81076095D01*
X69684571Y-81695142D02*
X70541714Y-81695142D01*
X70541714Y-82376095D02*
X70541714Y-81076095D01*
X71256000Y-82376095D02*
X71256000Y-81076095D01*
X71970285Y-81695142D02*
X72470285Y-81695142D01*
X72684571Y-82376095D02*
X71970285Y-82376095D01*
X71970285Y-81076095D01*
X72684571Y-81076095D01*
X74041714Y-82376095D02*
X73327428Y-82376095D01*
X73327428Y-81076095D01*
X74541714Y-82376095D02*
X74541714Y-81076095D01*
X74898857Y-81076095D01*
X75113142Y-81138000D01*
X75256000Y-81261809D01*
X75327428Y-81385619D01*
X75398857Y-81633238D01*
X75398857Y-81818952D01*
X75327428Y-82066571D01*
X75256000Y-82190380D01*
X75113142Y-82314190D01*
X74898857Y-82376095D01*
X74541714Y-82376095D01*
X76041714Y-82376095D02*
X76041714Y-81076095D01*
X76756000Y-82376095D02*
X76756000Y-81076095D01*
X77613142Y-82376095D01*
X77613142Y-81076095D01*
X79113142Y-81138000D02*
X78970285Y-81076095D01*
X78756000Y-81076095D01*
X78541714Y-81138000D01*
X78398857Y-81261809D01*
X78327428Y-81385619D01*
X78256000Y-81633238D01*
X78256000Y-81818952D01*
X78327428Y-82066571D01*
X78398857Y-82190380D01*
X78541714Y-82314190D01*
X78756000Y-82376095D01*
X78898857Y-82376095D01*
X79113142Y-82314190D01*
X79184571Y-82252285D01*
X79184571Y-81818952D01*
X78898857Y-81818952D01*
X80756000Y-81076095D02*
X81256000Y-82376095D01*
X81756000Y-81076095D01*
X82256000Y-82376095D02*
X82256000Y-81076095D01*
X82898857Y-82004666D02*
X83613142Y-82004666D01*
X82756000Y-82376095D02*
X83256000Y-81076095D01*
X83756000Y-82376095D01*
X85398857Y-81695142D02*
X85898857Y-81695142D01*
X86113142Y-82376095D02*
X85398857Y-82376095D01*
X85398857Y-81076095D01*
X86113142Y-81076095D01*
X86541714Y-81076095D02*
X87398857Y-81076095D01*
X86970285Y-82376095D02*
X86970285Y-81076095D01*
X88827428Y-81076095D02*
X89327428Y-82376095D01*
X89827428Y-81076095D01*
X90327428Y-82376095D02*
X90327428Y-81076095D01*
X90970285Y-82004666D02*
X91684571Y-82004666D01*
X90827428Y-82376095D02*
X91327428Y-81076095D01*
X91827428Y-82376095D01*
X92256000Y-82314190D02*
X92470285Y-82376095D01*
X92827428Y-82376095D01*
X92970285Y-82314190D01*
X93041714Y-82252285D01*
X93113142Y-82128476D01*
X93113142Y-82004666D01*
X93041714Y-81880857D01*
X92970285Y-81818952D01*
X92827428Y-81757047D01*
X92541714Y-81695142D01*
X92398857Y-81633238D01*
X92327428Y-81571333D01*
X92256000Y-81447523D01*
X92256000Y-81323714D01*
X92327428Y-81199904D01*
X92398857Y-81138000D01*
X92541714Y-81076095D01*
X92898857Y-81076095D01*
X93113142Y-81138000D01*
X94756000Y-81076095D02*
X95113142Y-82376095D01*
X95398857Y-81447523D01*
X95684571Y-82376095D01*
X96041714Y-81076095D01*
X96398857Y-81076095D02*
X97256000Y-81076095D01*
X96827428Y-82376095D02*
X96827428Y-81076095D01*
X97613142Y-81076095D02*
X98541714Y-81076095D01*
X98041714Y-81571333D01*
X98256000Y-81571333D01*
X98398857Y-81633238D01*
X98470285Y-81695142D01*
X98541714Y-81818952D01*
X98541714Y-82128476D01*
X98470285Y-82252285D01*
X98398857Y-82314190D01*
X98256000Y-82376095D01*
X97827428Y-82376095D01*
X97684571Y-82314190D01*
X97613142Y-82252285D01*
X99113142Y-81199904D02*
X99184571Y-81138000D01*
X99327428Y-81076095D01*
X99684571Y-81076095D01*
X99827428Y-81138000D01*
X99898857Y-81199904D01*
X99970285Y-81323714D01*
X99970285Y-81447523D01*
X99898857Y-81633238D01*
X99041714Y-82376095D01*
X99970285Y-82376095D01*
X100613142Y-82376095D02*
X100613142Y-81076095D01*
D10*
X113602285Y-12826571D02*
X114530857Y-12826571D01*
X114030857Y-13398000D01*
X114245142Y-13398000D01*
X114388000Y-13469428D01*
X114459428Y-13540857D01*
X114530857Y-13683714D01*
X114530857Y-14040857D01*
X114459428Y-14183714D01*
X114388000Y-14255142D01*
X114245142Y-14326571D01*
X113816571Y-14326571D01*
X113673714Y-14255142D01*
X113602285Y-14183714D01*
X115888000Y-12826571D02*
X115173714Y-12826571D01*
X115102285Y-13540857D01*
X115173714Y-13469428D01*
X115316571Y-13398000D01*
X115673714Y-13398000D01*
X115816571Y-13469428D01*
X115888000Y-13540857D01*
X115959428Y-13683714D01*
X115959428Y-14040857D01*
X115888000Y-14183714D01*
X115816571Y-14255142D01*
X115673714Y-14326571D01*
X115316571Y-14326571D01*
X115173714Y-14255142D01*
X115102285Y-14183714D01*
X116673714Y-14255142D02*
X116673714Y-14326571D01*
X116602285Y-14469428D01*
X116530857Y-14540857D01*
X118030857Y-12826571D02*
X117316571Y-12826571D01*
X117245142Y-13540857D01*
X117316571Y-13469428D01*
X117459428Y-13398000D01*
X117816571Y-13398000D01*
X117959428Y-13469428D01*
X118030857Y-13540857D01*
X118102285Y-13683714D01*
X118102285Y-14040857D01*
X118030857Y-14183714D01*
X117959428Y-14255142D01*
X117816571Y-14326571D01*
X117459428Y-14326571D01*
X117316571Y-14255142D01*
X117245142Y-14183714D01*
X119388000Y-12826571D02*
X119102285Y-12826571D01*
X118959428Y-12898000D01*
X118888000Y-12969428D01*
X118745142Y-13183714D01*
X118673714Y-13469428D01*
X118673714Y-14040857D01*
X118745142Y-14183714D01*
X118816571Y-14255142D01*
X118959428Y-14326571D01*
X119245142Y-14326571D01*
X119388000Y-14255142D01*
X119459428Y-14183714D01*
X119530857Y-14040857D01*
X119530857Y-13683714D01*
X119459428Y-13540857D01*
X119388000Y-13469428D01*
X119245142Y-13398000D01*
X118959428Y-13398000D01*
X118816571Y-13469428D01*
X118745142Y-13540857D01*
X118673714Y-13683714D01*
X120459428Y-12826571D02*
X120602285Y-12826571D01*
X120745142Y-12898000D01*
X120816571Y-12969428D01*
X120888000Y-13112285D01*
X120959428Y-13398000D01*
X120959428Y-13755142D01*
X120888000Y-14040857D01*
X120816571Y-14183714D01*
X120745142Y-14255142D01*
X120602285Y-14326571D01*
X120459428Y-14326571D01*
X120316571Y-14255142D01*
X120245142Y-14183714D01*
X120173714Y-14040857D01*
X120102285Y-13755142D01*
X120102285Y-13398000D01*
X120173714Y-13112285D01*
X120245142Y-12969428D01*
X120316571Y-12898000D01*
X120459428Y-12826571D01*
X122745142Y-14326571D02*
X122745142Y-13326571D01*
X122745142Y-13469428D02*
X122816571Y-13398000D01*
X122959428Y-13326571D01*
X123173714Y-13326571D01*
X123316571Y-13398000D01*
X123388000Y-13540857D01*
X123388000Y-14326571D01*
X123388000Y-13540857D02*
X123459428Y-13398000D01*
X123602285Y-13326571D01*
X123816571Y-13326571D01*
X123959428Y-13398000D01*
X124030857Y-13540857D01*
X124030857Y-14326571D01*
X124745142Y-14326571D02*
X124745142Y-13326571D01*
X124745142Y-13469428D02*
X124816571Y-13398000D01*
X124959428Y-13326571D01*
X125173714Y-13326571D01*
X125316571Y-13398000D01*
X125388000Y-13540857D01*
X125388000Y-14326571D01*
X125388000Y-13540857D02*
X125459428Y-13398000D01*
X125602285Y-13326571D01*
X125816571Y-13326571D01*
X125959428Y-13398000D01*
X126030857Y-13540857D01*
X126030857Y-14326571D01*
X102108000Y-15748000D02*
X137668000Y-15748000D01*
X102108000Y-37592000D02*
X102108000Y-15161579D01*
X137668000Y-37592000D02*
X137668000Y-15161579D01*
X137668000Y-15748000D02*
X136541496Y-16334421D01*
X137668000Y-15748000D02*
X136541496Y-15161579D01*
X102108000Y-15748000D02*
X103234504Y-16334421D01*
X102108000Y-15748000D02*
X103234504Y-15161579D01*
X98616607Y-71365722D02*
X98616607Y-72222865D01*
X98616607Y-71794294D02*
X97116607Y-71794294D01*
X97330893Y-71937151D01*
X97473750Y-72080008D01*
X97545178Y-72222865D01*
X97116607Y-70008580D02*
X97116607Y-70722865D01*
X97830893Y-70794294D01*
X97759464Y-70722865D01*
X97688036Y-70580008D01*
X97688036Y-70222865D01*
X97759464Y-70080008D01*
X97830893Y-70008580D01*
X97973750Y-69937151D01*
X98330893Y-69937151D01*
X98473750Y-70008580D01*
X98545178Y-70080008D01*
X98616607Y-70222865D01*
X98616607Y-70580008D01*
X98545178Y-70722865D01*
X98473750Y-70794294D01*
X98545178Y-69222865D02*
X98616607Y-69222865D01*
X98759464Y-69294294D01*
X98830893Y-69365722D01*
X97259464Y-68651437D02*
X97188036Y-68580008D01*
X97116607Y-68437151D01*
X97116607Y-68080008D01*
X97188036Y-67937151D01*
X97259464Y-67865722D01*
X97402321Y-67794294D01*
X97545178Y-67794294D01*
X97759464Y-67865722D01*
X98616607Y-68722865D01*
X98616607Y-67794294D01*
X97616607Y-66508580D02*
X98616607Y-66508580D01*
X97045178Y-66865722D02*
X98116607Y-67222865D01*
X98116607Y-66294294D01*
X97116607Y-65437151D02*
X97116607Y-65294294D01*
X97188036Y-65151437D01*
X97259464Y-65080008D01*
X97402321Y-65008580D01*
X97688036Y-64937151D01*
X98045178Y-64937151D01*
X98330893Y-65008580D01*
X98473750Y-65080008D01*
X98545178Y-65151437D01*
X98616607Y-65294294D01*
X98616607Y-65437151D01*
X98545178Y-65580008D01*
X98473750Y-65651437D01*
X98330893Y-65722865D01*
X98045178Y-65794294D01*
X97688036Y-65794294D01*
X97402321Y-65722865D01*
X97259464Y-65651437D01*
X97188036Y-65580008D01*
X97116607Y-65437151D01*
X98616607Y-63151437D02*
X97616607Y-63151437D01*
X97759464Y-63151437D02*
X97688036Y-63080008D01*
X97616607Y-62937151D01*
X97616607Y-62722865D01*
X97688036Y-62580008D01*
X97830893Y-62508580D01*
X98616607Y-62508580D01*
X97830893Y-62508580D02*
X97688036Y-62437151D01*
X97616607Y-62294294D01*
X97616607Y-62080008D01*
X97688036Y-61937151D01*
X97830893Y-61865722D01*
X98616607Y-61865722D01*
X98616607Y-61151437D02*
X97616607Y-61151437D01*
X97759464Y-61151437D02*
X97688036Y-61080008D01*
X97616607Y-60937151D01*
X97616607Y-60722865D01*
X97688036Y-60580008D01*
X97830893Y-60508580D01*
X98616607Y-60508580D01*
X97830893Y-60508580D02*
X97688036Y-60437151D01*
X97616607Y-60294294D01*
X97616607Y-60080008D01*
X97688036Y-59937151D01*
X97830893Y-59865722D01*
X98616607Y-59865722D01*
X100038036Y-73628580D02*
X100038036Y-58388580D01*
X102070036Y-73628580D02*
X99451615Y-73628580D01*
X102070036Y-58388580D02*
X99451615Y-58388580D01*
X100038036Y-58388580D02*
X100624457Y-59515084D01*
X100038036Y-58388580D02*
X99451615Y-59515084D01*
X100038036Y-73628580D02*
X100624457Y-72502076D01*
X100038036Y-73628580D02*
X99451615Y-72502076D01*
X93541597Y-87534721D02*
X94541596Y-87535856D01*
X92969764Y-87891215D02*
X94040786Y-88249574D01*
X94041840Y-87321003D01*
X93043219Y-86105583D02*
X93042894Y-86391297D01*
X93114161Y-86534235D01*
X93185508Y-86605745D01*
X93399632Y-86748845D01*
X93685265Y-86820598D01*
X94256693Y-86821247D01*
X94399631Y-86749980D01*
X94471141Y-86678633D01*
X94542731Y-86535857D01*
X94543056Y-86250143D01*
X94471789Y-86107205D01*
X94400442Y-86035695D01*
X94257666Y-85964104D01*
X93900523Y-85963699D01*
X93757585Y-86034965D01*
X93686075Y-86106313D01*
X93614485Y-86249089D01*
X93614161Y-86534803D01*
X93685427Y-86677741D01*
X93756774Y-86749251D01*
X93899550Y-86820841D01*
X94472762Y-85250062D02*
X94544191Y-85250143D01*
X94686967Y-85321734D01*
X94758314Y-85393244D01*
X93044759Y-84748441D02*
X93045894Y-83748442D01*
X94545163Y-84393001D01*
X94547433Y-82393002D02*
X94546460Y-83250145D01*
X94546947Y-82821573D02*
X93046948Y-82819871D01*
X93261071Y-82962971D01*
X93403766Y-83105990D01*
X93475032Y-83248929D01*
X93048002Y-81891300D02*
X93049055Y-80962729D01*
X93619916Y-81463378D01*
X93620159Y-81249092D01*
X93691750Y-81106316D01*
X93763260Y-81034969D01*
X93906198Y-80963702D01*
X94263340Y-80964107D01*
X94406116Y-81035698D01*
X94477464Y-81107208D01*
X94548730Y-81250146D01*
X94548244Y-81678717D01*
X94476653Y-81821493D01*
X94405144Y-81892840D01*
X94551081Y-79178719D02*
X93551082Y-79177584D01*
X93693939Y-79177746D02*
X93622591Y-79106236D01*
X93551325Y-78963298D01*
X93551568Y-78749013D01*
X93623159Y-78606237D01*
X93766097Y-78534970D01*
X94551811Y-78535862D01*
X93766097Y-78534970D02*
X93623321Y-78463379D01*
X93552055Y-78320441D01*
X93552298Y-78106156D01*
X93623888Y-77963380D01*
X93766827Y-77892113D01*
X94552540Y-77893005D01*
X94553351Y-77178720D02*
X93553352Y-77177585D01*
X93696209Y-77177747D02*
X93624861Y-77106238D01*
X93553595Y-76963299D01*
X93553838Y-76749014D01*
X93625429Y-76606238D01*
X93768367Y-76534971D01*
X94554081Y-76535863D01*
X93768367Y-76534971D02*
X93625591Y-76463381D01*
X93554324Y-76320443D01*
X93554568Y-76106157D01*
X93626158Y-75963381D01*
X93769096Y-75892115D01*
X94554810Y-75893006D01*
X95942760Y-105393776D02*
X95995775Y-58681170D01*
X100461742Y-105398905D02*
X95356340Y-105393111D01*
X100514757Y-58686299D02*
X95409355Y-58680505D01*
X95995775Y-58681170D02*
X96580917Y-59808339D01*
X95995775Y-58681170D02*
X95408076Y-59807007D01*
X95942760Y-105393776D02*
X96530459Y-104267939D01*
X95942760Y-105393776D02*
X95357618Y-104266607D01*
X97722265Y-103528762D02*
X97722265Y-104385905D01*
X97722265Y-103957334D02*
X96222265Y-103957334D01*
X96436551Y-104100191D01*
X96579408Y-104243048D01*
X96650836Y-104385905D01*
X96222265Y-102171620D02*
X96222265Y-102885905D01*
X96936551Y-102957334D01*
X96865122Y-102885905D01*
X96793694Y-102743048D01*
X96793694Y-102385905D01*
X96865122Y-102243048D01*
X96936551Y-102171620D01*
X97079408Y-102100191D01*
X97436551Y-102100191D01*
X97579408Y-102171620D01*
X97650836Y-102243048D01*
X97722265Y-102385905D01*
X97722265Y-102743048D01*
X97650836Y-102885905D01*
X97579408Y-102957334D01*
X97650836Y-101385905D02*
X97722265Y-101385905D01*
X97865122Y-101457334D01*
X97936551Y-101528762D01*
X96365122Y-100814477D02*
X96293694Y-100743048D01*
X96222265Y-100600191D01*
X96222265Y-100243048D01*
X96293694Y-100100191D01*
X96365122Y-100028762D01*
X96507979Y-99957334D01*
X96650836Y-99957334D01*
X96865122Y-100028762D01*
X97722265Y-100885905D01*
X97722265Y-99957334D01*
X96722265Y-98671620D02*
X97722265Y-98671620D01*
X96150836Y-99028762D02*
X97222265Y-99385905D01*
X97222265Y-98457334D01*
X96222265Y-97600191D02*
X96222265Y-97457334D01*
X96293694Y-97314477D01*
X96365122Y-97243048D01*
X96507979Y-97171620D01*
X96793694Y-97100191D01*
X97150836Y-97100191D01*
X97436551Y-97171620D01*
X97579408Y-97243048D01*
X97650836Y-97314477D01*
X97722265Y-97457334D01*
X97722265Y-97600191D01*
X97650836Y-97743048D01*
X97579408Y-97814477D01*
X97436551Y-97885905D01*
X97150836Y-97957334D01*
X96793694Y-97957334D01*
X96507979Y-97885905D01*
X96365122Y-97814477D01*
X96293694Y-97743048D01*
X96222265Y-97600191D01*
X97722265Y-95314477D02*
X96722265Y-95314477D01*
X96865122Y-95314477D02*
X96793694Y-95243048D01*
X96722265Y-95100191D01*
X96722265Y-94885905D01*
X96793694Y-94743048D01*
X96936551Y-94671620D01*
X97722265Y-94671620D01*
X96936551Y-94671620D02*
X96793694Y-94600191D01*
X96722265Y-94457334D01*
X96722265Y-94243048D01*
X96793694Y-94100191D01*
X96936551Y-94028762D01*
X97722265Y-94028762D01*
X97722265Y-93314477D02*
X96722265Y-93314477D01*
X96865122Y-93314477D02*
X96793694Y-93243048D01*
X96722265Y-93100191D01*
X96722265Y-92885905D01*
X96793694Y-92743048D01*
X96936551Y-92671620D01*
X97722265Y-92671620D01*
X96936551Y-92671620D02*
X96793694Y-92600191D01*
X96722265Y-92457334D01*
X96722265Y-92243048D01*
X96793694Y-92100191D01*
X96936551Y-92028762D01*
X97722265Y-92028762D01*
X99143694Y-90551620D02*
X99143694Y-105791620D01*
X102191694Y-90551620D02*
X98557273Y-90551620D01*
X102191694Y-105791620D02*
X98557273Y-105791620D01*
X99143694Y-105791620D02*
X98557273Y-104665116D01*
X99143694Y-105791620D02*
X99730115Y-104665116D01*
X99143694Y-90551620D02*
X98557273Y-91678124D01*
X99143694Y-90551620D02*
X99730115Y-91678124D01*
X88199441Y-102424213D02*
X88198904Y-103281356D01*
X88199173Y-102852784D02*
X86699173Y-102851845D01*
X86913369Y-102994836D01*
X87056137Y-103137783D01*
X87127476Y-103280684D01*
X88200336Y-100995642D02*
X88199799Y-101852785D01*
X88200068Y-101424213D02*
X86700068Y-101423273D01*
X86914264Y-101566265D01*
X87057032Y-101709211D01*
X87128371Y-101852113D01*
X88200784Y-100281356D02*
X88200963Y-99995642D01*
X88129624Y-99852740D01*
X88058240Y-99781267D01*
X87844044Y-99638275D01*
X87558374Y-99566668D01*
X86986946Y-99566310D01*
X86844044Y-99637649D01*
X86772571Y-99709033D01*
X86701053Y-99851845D01*
X86700874Y-100137559D01*
X86772213Y-100280461D01*
X86843596Y-100351935D01*
X86986409Y-100423453D01*
X87343552Y-100423676D01*
X87486453Y-100352337D01*
X87557927Y-100280954D01*
X87629445Y-100138141D01*
X87629624Y-99852427D01*
X87558285Y-99709525D01*
X87486901Y-99638052D01*
X87344089Y-99566534D01*
X88130250Y-98852740D02*
X88201679Y-98852785D01*
X88344491Y-98924303D01*
X88415875Y-98995776D01*
X88202574Y-97424214D02*
X88202037Y-98281357D01*
X88202305Y-97852785D02*
X86702305Y-97851846D01*
X86916502Y-97994837D01*
X87059269Y-98137784D01*
X87130608Y-98280685D01*
X87345968Y-96566534D02*
X87274450Y-96709347D01*
X87202977Y-96780730D01*
X87060075Y-96852070D01*
X86988646Y-96852025D01*
X86845834Y-96780507D01*
X86774450Y-96709033D01*
X86703111Y-96566132D01*
X86703290Y-96280417D01*
X86774808Y-96137605D01*
X86846281Y-96066221D01*
X86989183Y-95994882D01*
X87060612Y-95994927D01*
X87203424Y-96066445D01*
X87274808Y-96137918D01*
X87346147Y-96280820D01*
X87345968Y-96566534D01*
X87417307Y-96709436D01*
X87488691Y-96780909D01*
X87631503Y-96852428D01*
X87917217Y-96852607D01*
X88060119Y-96781267D01*
X88131593Y-96709884D01*
X88203111Y-96567071D01*
X88203290Y-96281357D01*
X88131950Y-96138455D01*
X88060567Y-96066982D01*
X87917754Y-95995464D01*
X87632040Y-95995285D01*
X87489138Y-96066624D01*
X87417665Y-96138008D01*
X87346147Y-96280820D01*
X88204363Y-94567072D02*
X88203826Y-95424214D01*
X88204095Y-94995643D02*
X86704095Y-94994703D01*
X86918291Y-95137695D01*
X87061059Y-95280641D01*
X87132398Y-95423543D01*
X88205482Y-92781358D02*
X87205482Y-92780731D01*
X87348339Y-92780821D02*
X87276956Y-92709347D01*
X87205617Y-92566446D01*
X87205751Y-92352160D01*
X87277269Y-92209348D01*
X87420171Y-92138008D01*
X88205885Y-92138501D01*
X87420171Y-92138008D02*
X87277358Y-92066490D01*
X87206019Y-91923589D01*
X87206153Y-91709303D01*
X87277672Y-91566491D01*
X87420573Y-91495151D01*
X88206288Y-91495644D01*
X88206735Y-90781358D02*
X87206735Y-90780732D01*
X87349592Y-90780821D02*
X87278208Y-90709348D01*
X87206869Y-90566446D01*
X87207004Y-90352160D01*
X87278522Y-90209348D01*
X87421424Y-90138009D01*
X88207138Y-90138501D01*
X87421424Y-90138009D02*
X87278611Y-90066491D01*
X87207272Y-89923589D01*
X87207406Y-89709303D01*
X87278924Y-89566491D01*
X87421826Y-89495152D01*
X88207540Y-89495644D01*
X89587344Y-155944179D02*
X89662004Y-36763175D01*
X108458000Y-155956000D02*
X89000923Y-155943811D01*
X108532660Y-36774996D02*
X89075583Y-36762807D01*
X89662004Y-36763175D02*
X90247719Y-37890046D01*
X89662004Y-36763175D02*
X89074878Y-37889311D01*
X89587344Y-155944179D02*
X90174470Y-154818043D01*
X89587344Y-155944179D02*
X89001629Y-154817308D01*
D13*
G04 #@! TO.C,R18*
X131548600Y-83318533D02*
X131548600Y-83661067D01*
X130528600Y-83318533D02*
X130528600Y-83661067D01*
G04 #@! TO.C,D9*
X116032500Y-68016000D02*
X118892500Y-68016000D01*
X116032500Y-66096000D02*
X116032500Y-68016000D01*
X118892500Y-66096000D02*
X116032500Y-66096000D01*
G04 #@! TO.C,D1*
X133075500Y-123134000D02*
X135935500Y-123134000D01*
X135935500Y-123134000D02*
X135935500Y-121214000D01*
X135935500Y-121214000D02*
X133075500Y-121214000D01*
G04 #@! TO.C,D2*
X135935500Y-124008000D02*
X133075500Y-124008000D01*
X135935500Y-125928000D02*
X135935500Y-124008000D01*
X133075500Y-125928000D02*
X135935500Y-125928000D01*
G04 #@! TO.C,D3*
X133075500Y-128468000D02*
X135935500Y-128468000D01*
X135935500Y-128468000D02*
X135935500Y-126548000D01*
X135935500Y-126548000D02*
X133075500Y-126548000D01*
G04 #@! TO.C,D12*
X132786000Y-89961500D02*
X132786000Y-87101500D01*
X130866000Y-89961500D02*
X132786000Y-89961500D01*
X130866000Y-87101500D02*
X130866000Y-89961500D01*
G04 #@! TO.C,D13*
X109000800Y-149585800D02*
X106140800Y-149585800D01*
X106140800Y-149585800D02*
X106140800Y-151505800D01*
X106140800Y-151505800D02*
X109000800Y-151505800D01*
G04 #@! TO.C,D4*
X132215500Y-131008000D02*
X135075500Y-131008000D01*
X132215500Y-129088000D02*
X132215500Y-131008000D01*
X135075500Y-129088000D02*
X132215500Y-129088000D01*
G04 #@! TO.C,D14*
X129992000Y-77163500D02*
X129992000Y-74303500D01*
X129992000Y-74303500D02*
X128072000Y-74303500D01*
X128072000Y-74303500D02*
X128072000Y-77163500D01*
D14*
G04 #@! TO.C,IC7*
X102436000Y-90416000D02*
X102436000Y-74516000D01*
X102436000Y-90416000D02*
X107678000Y-90416000D01*
X102436000Y-74516000D02*
X104467000Y-74516000D01*
X126336000Y-90416000D02*
X126336000Y-89270000D01*
X126336000Y-90416000D02*
X125270000Y-90416000D01*
X126336000Y-74516000D02*
X125166000Y-74516000D01*
X126336000Y-74516000D02*
X126336000Y-75866000D01*
X108062000Y-91888000D02*
G75*
G03X108062000Y-91888000I-174000J0D01*
G01*
D11*
G04 #@! TO.C,D7*
X129713200Y-151791800D02*
X128463200Y-151791800D01*
X128113200Y-148841800D02*
X128113200Y-151741800D01*
X127563200Y-148841800D02*
X128113200Y-148841800D01*
X127563200Y-151741800D02*
X127563200Y-148841800D01*
X128113200Y-151741800D02*
X127563200Y-151741800D01*
D15*
G04 #@! TO.C,Q6*
X131226000Y-107158000D02*
G75*
G03X131126000Y-107158000I-50000J0D01*
G01*
X131126000Y-107158000D02*
G75*
G03X131226000Y-107158000I50000J0D01*
G01*
X131126000Y-107158000D02*
X131126000Y-107158000D01*
X131226000Y-107158000D02*
X131226000Y-107158000D01*
X130826000Y-109083000D02*
X130826000Y-108458000D01*
X131326000Y-109083000D02*
X130826000Y-109083000D01*
X132826000Y-109083000D02*
X132826000Y-108458000D01*
X132326000Y-109083000D02*
X132826000Y-109083000D01*
G04 #@! TO.C,Q5*
X117086000Y-109083000D02*
X117586000Y-109083000D01*
X117586000Y-109083000D02*
X117586000Y-108458000D01*
X116086000Y-109083000D02*
X115586000Y-109083000D01*
X115586000Y-109083000D02*
X115586000Y-108458000D01*
X115986000Y-107158000D02*
X115986000Y-107158000D01*
X115886000Y-107158000D02*
X115886000Y-107158000D01*
X115886000Y-107158000D02*
G75*
G03X115986000Y-107158000I50000J0D01*
G01*
X115986000Y-107158000D02*
G75*
G03X115886000Y-107158000I-50000J0D01*
G01*
G04 #@! TO.C,Q4*
X108340600Y-107437400D02*
G75*
G03X108240600Y-107437400I-50000J0D01*
G01*
X108240600Y-107437400D02*
G75*
G03X108340600Y-107437400I50000J0D01*
G01*
X108240600Y-107437400D02*
X108240600Y-107437400D01*
X108340600Y-107437400D02*
X108340600Y-107437400D01*
X107940600Y-109362400D02*
X107940600Y-108737400D01*
X108440600Y-109362400D02*
X107940600Y-109362400D01*
X109940600Y-109362400D02*
X109940600Y-108737400D01*
X109440600Y-109362400D02*
X109940600Y-109362400D01*
G04 #@! TO.C,Q3*
X124706000Y-109083000D02*
X125206000Y-109083000D01*
X125206000Y-109083000D02*
X125206000Y-108458000D01*
X123706000Y-109083000D02*
X123206000Y-109083000D01*
X123206000Y-109083000D02*
X123206000Y-108458000D01*
X123606000Y-107158000D02*
X123606000Y-107158000D01*
X123506000Y-107158000D02*
X123506000Y-107158000D01*
X123506000Y-107158000D02*
G75*
G03X123606000Y-107158000I50000J0D01*
G01*
X123606000Y-107158000D02*
G75*
G03X123506000Y-107158000I-50000J0D01*
G01*
G04 #@! TO.C,Q2*
X127416000Y-107158000D02*
G75*
G03X127316000Y-107158000I-50000J0D01*
G01*
X127316000Y-107158000D02*
G75*
G03X127416000Y-107158000I50000J0D01*
G01*
X127316000Y-107158000D02*
X127316000Y-107158000D01*
X127416000Y-107158000D02*
X127416000Y-107158000D01*
X127016000Y-109083000D02*
X127016000Y-108458000D01*
X127516000Y-109083000D02*
X127016000Y-109083000D01*
X129016000Y-109083000D02*
X129016000Y-108458000D01*
X128516000Y-109083000D02*
X129016000Y-109083000D01*
G04 #@! TO.C,Q1*
X113276000Y-109083000D02*
X113776000Y-109083000D01*
X113776000Y-109083000D02*
X113776000Y-108458000D01*
X112276000Y-109083000D02*
X111776000Y-109083000D01*
X111776000Y-109083000D02*
X111776000Y-108458000D01*
X112176000Y-107158000D02*
X112176000Y-107158000D01*
X112076000Y-107158000D02*
X112076000Y-107158000D01*
X112076000Y-107158000D02*
G75*
G03X112176000Y-107158000I50000J0D01*
G01*
X112176000Y-107158000D02*
G75*
G03X112076000Y-107158000I-50000J0D01*
G01*
G04 #@! TO.C,Q7*
X119796000Y-107158000D02*
G75*
G03X119696000Y-107158000I-50000J0D01*
G01*
X119696000Y-107158000D02*
G75*
G03X119796000Y-107158000I50000J0D01*
G01*
X119696000Y-107158000D02*
X119696000Y-107158000D01*
X119796000Y-107158000D02*
X119796000Y-107158000D01*
X119396000Y-109083000D02*
X119396000Y-108458000D01*
X119896000Y-109083000D02*
X119396000Y-109083000D01*
X121396000Y-109083000D02*
X121396000Y-108458000D01*
X120896000Y-109083000D02*
X121396000Y-109083000D01*
D13*
G04 #@! TO.C,JP3*
X122647400Y-102904600D02*
X125307400Y-102904600D01*
X122647400Y-100304600D02*
X122647400Y-102904600D01*
X125307400Y-100304600D02*
X125307400Y-102904600D01*
X122647400Y-100304600D02*
X125307400Y-100304600D01*
X122647400Y-99034600D02*
X122647400Y-97704600D01*
X122647400Y-97704600D02*
X123977400Y-97704600D01*
G04 #@! TO.C,C2*
X131172852Y-55523200D02*
X130650348Y-55523200D01*
X131172852Y-54103200D02*
X130650348Y-54103200D01*
D15*
G04 #@! TO.C,S1*
X110982000Y-154908200D02*
X111652000Y-154908200D01*
X111652000Y-154908200D02*
X111652000Y-161308200D01*
X111652000Y-161308200D02*
X103232000Y-161308200D01*
X103232000Y-161308200D02*
X103232000Y-154908200D01*
X103232000Y-154908200D02*
X103982000Y-154908200D01*
X107442000Y-153508200D02*
X107442000Y-153508200D01*
X107442000Y-153408200D02*
X107442000Y-153408200D01*
X107442000Y-153408200D02*
G75*
G02X107442000Y-153508200I0J-50000D01*
G01*
X107442000Y-153508200D02*
G75*
G02X107442000Y-153408200I0J50000D01*
G01*
D11*
G04 #@! TO.C,J5*
X106172000Y-143278000D02*
X113622000Y-143278000D01*
X113622000Y-143278000D02*
X113622000Y-138378000D01*
X113622000Y-138378000D02*
X103722000Y-138378000D01*
X103722000Y-138378000D02*
X103722000Y-141478000D01*
D14*
G04 #@! TO.C,IC6*
X128806000Y-140948000D02*
G75*
G03X128806000Y-140948000I-125000J0D01*
G01*
D13*
G04 #@! TO.C,R34*
X131370000Y-70613748D02*
X131370000Y-71136252D01*
X132790000Y-70613748D02*
X132790000Y-71136252D01*
G04 #@! TO.C,R37*
X131370000Y-62228252D02*
X131370000Y-61705748D01*
X132790000Y-62228252D02*
X132790000Y-61705748D01*
D15*
G04 #@! TO.C,DS1*
X124848000Y-134500000D02*
X127148000Y-134500000D01*
X127148000Y-134500000D02*
X127148000Y-134500000D01*
X127148000Y-134500000D02*
X124848000Y-134500000D01*
X124848000Y-134500000D02*
X124848000Y-134500000D01*
X127148000Y-119500000D02*
X124598000Y-119500000D01*
X124598000Y-119500000D02*
X124598000Y-119500000D01*
X124598000Y-119500000D02*
X127148000Y-119500000D01*
X127148000Y-119500000D02*
X127148000Y-119500000D01*
X110098000Y-119500000D02*
X107548000Y-119500000D01*
X107548000Y-119500000D02*
X107548000Y-119500000D01*
X107548000Y-119500000D02*
X110098000Y-119500000D01*
X110098000Y-119500000D02*
X110098000Y-119500000D01*
X107548000Y-134500000D02*
X109848000Y-134500000D01*
X109848000Y-134500000D02*
X109848000Y-134500000D01*
X109848000Y-134500000D02*
X107548000Y-134500000D01*
X107548000Y-134500000D02*
X107548000Y-134500000D01*
X127148000Y-134500000D02*
X127148000Y-134500000D01*
X127148000Y-134500000D02*
X127148000Y-119500000D01*
X127148000Y-119500000D02*
X127148000Y-119500000D01*
X127148000Y-119500000D02*
X127148000Y-134500000D01*
X107548000Y-119500000D02*
X107548000Y-119500000D01*
X107548000Y-119500000D02*
X107548000Y-134500000D01*
X107548000Y-134500000D02*
X107548000Y-134500000D01*
X107548000Y-134500000D02*
X107548000Y-119500000D01*
D11*
X122448000Y-116600000D02*
X122448000Y-116600000D01*
X122348000Y-116600000D02*
X122348000Y-116600000D01*
X122448000Y-116600000D02*
X122448000Y-116600000D01*
X122348000Y-116600000D02*
G75*
G02X122448000Y-116600000I50000J0D01*
G01*
X122448000Y-116600000D02*
G75*
G02X122348000Y-116600000I-50000J0D01*
G01*
X122348000Y-116600000D02*
G75*
G02X122448000Y-116600000I50000J0D01*
G01*
D13*
G04 #@! TO.C,D5*
X128032000Y-91278000D02*
X128032000Y-87378000D01*
X130032000Y-91278000D02*
X130032000Y-87378000D01*
X128032000Y-91278000D02*
X130032000Y-91278000D01*
G04 #@! TO.C,J1*
X115062000Y-102930000D02*
X113732000Y-102930000D01*
X113732000Y-102930000D02*
X113732000Y-101600000D01*
X113732000Y-100330000D02*
X113732000Y-92650000D01*
X116392000Y-92650000D02*
X113732000Y-92650000D01*
X116392000Y-100330000D02*
X116392000Y-92650000D01*
X116392000Y-100330000D02*
X113732000Y-100330000D01*
D14*
G04 #@! TO.C,J8*
X132372260Y-152841000D02*
G75*
G03X132372260Y-152841000I-63060J0D01*
G01*
X138445200Y-147774000D02*
X133445200Y-147774000D01*
X138445200Y-155194000D02*
X138445200Y-147774000D01*
X133445200Y-155194000D02*
X138445200Y-155194000D01*
D13*
G04 #@! TO.C,J9*
X134052000Y-41148000D02*
X136712000Y-41148000D01*
X134052000Y-41148000D02*
X134052000Y-53908000D01*
X134052000Y-53908000D02*
X136712000Y-53908000D01*
X136712000Y-41148000D02*
X136712000Y-53908000D01*
X136712000Y-38548000D02*
X136712000Y-39878000D01*
X135382000Y-38548000D02*
X136712000Y-38548000D01*
G04 #@! TO.C,JP4*
X109026000Y-95564000D02*
X109026000Y-92904000D01*
X106426000Y-95564000D02*
X109026000Y-95564000D01*
X106426000Y-92904000D02*
X109026000Y-92904000D01*
X106426000Y-95564000D02*
X106426000Y-92904000D01*
X105156000Y-95564000D02*
X103826000Y-95564000D01*
X103826000Y-95564000D02*
X103826000Y-94234000D01*
G04 #@! TO.C,JP5*
X103826000Y-99374000D02*
X103826000Y-98044000D01*
X105156000Y-99374000D02*
X103826000Y-99374000D01*
X106426000Y-99374000D02*
X106426000Y-96714000D01*
X106426000Y-96714000D02*
X109026000Y-96714000D01*
X106426000Y-99374000D02*
X109026000Y-99374000D01*
X109026000Y-99374000D02*
X109026000Y-96714000D01*
G04 #@! TO.C,JP8*
X109026000Y-100524000D02*
X109026000Y-101854000D01*
X107696000Y-100524000D02*
X109026000Y-100524000D01*
X106426000Y-100524000D02*
X106426000Y-103184000D01*
X106426000Y-103184000D02*
X103826000Y-103184000D01*
X106426000Y-100524000D02*
X103826000Y-100524000D01*
X103826000Y-100524000D02*
X103826000Y-103184000D01*
D15*
G04 #@! TO.C,S2*
X126064000Y-93552000D02*
X136064000Y-93552000D01*
X136064000Y-93552000D02*
X136064000Y-103552000D01*
X136064000Y-103552000D02*
X126064000Y-103552000D01*
X126064000Y-103552000D02*
X126064000Y-93552000D01*
D11*
X128524000Y-104362000D02*
X128524000Y-104362000D01*
X128324000Y-104362000D02*
X128324000Y-104362000D01*
X128324000Y-104362000D02*
G75*
G02X128524000Y-104362000I100000J0D01*
G01*
X128524000Y-104362000D02*
G75*
G02X128324000Y-104362000I-100000J0D01*
G01*
G04 #@! TO.C,IC3*
X122256400Y-137996400D02*
X122256400Y-139046400D01*
X120044400Y-139396400D02*
X122068400Y-139396400D01*
X120044400Y-139546400D02*
X120044400Y-139396400D01*
X122068400Y-139546400D02*
X120044400Y-139546400D01*
X122068400Y-139396400D02*
X122068400Y-139546400D01*
G04 #@! TO.C,IC4*
X105309600Y-115396200D02*
X105459600Y-115396200D01*
X105459600Y-115396200D02*
X105459600Y-117420200D01*
X105459600Y-117420200D02*
X105309600Y-117420200D01*
X105309600Y-117420200D02*
X105309600Y-115396200D01*
X103909600Y-115208200D02*
X104959600Y-115208200D01*
D15*
G04 #@! TO.C,J4*
X119364000Y-38450000D02*
X120864000Y-38450000D01*
X120864000Y-38450000D02*
X120864000Y-46450000D01*
X120864000Y-46450000D02*
X115864000Y-46450000D01*
X115864000Y-46450000D02*
X115864000Y-38450000D01*
X115864000Y-38450000D02*
X117364000Y-38450000D01*
X116364000Y-38350000D02*
X116364000Y-36850000D01*
X116364000Y-36850000D02*
X120364000Y-36850000D01*
X120364000Y-36850000D02*
X120364000Y-38350000D01*
X120364000Y-36850000D02*
X120864000Y-36850000D01*
X120864000Y-36850000D02*
X120864000Y-33850000D01*
X120864000Y-33850000D02*
X115864000Y-33850000D01*
X115864000Y-33850000D02*
X115864000Y-36850000D01*
X115864000Y-36850000D02*
X116364000Y-36850000D01*
X120114000Y-33850000D02*
X120114000Y-25350000D01*
X120114000Y-25350000D02*
X116614000Y-25350000D01*
X116614000Y-25350000D02*
X116614000Y-33850000D01*
X119364000Y-25350000D02*
X119364000Y-21550000D01*
X119364000Y-21550000D02*
X118864000Y-20550000D01*
X118864000Y-20550000D02*
X117864000Y-20550000D01*
X117864000Y-20550000D02*
X117364000Y-21550000D01*
X117364000Y-21550000D02*
X117364000Y-25350000D01*
D11*
G04 #@! TO.C,D6*
X121919000Y-146312000D02*
X122469000Y-146312000D01*
X122469000Y-146312000D02*
X122469000Y-149212000D01*
X122469000Y-149212000D02*
X121919000Y-149212000D01*
X121919000Y-149212000D02*
X121919000Y-146312000D01*
X120319000Y-146262000D02*
X121569000Y-146262000D01*
D13*
G04 #@! TO.C,D8*
X131964800Y-151541400D02*
X131964800Y-154691400D01*
X130264800Y-151541400D02*
X130264800Y-154691400D01*
X131964800Y-151541400D02*
X130264800Y-151541400D01*
D11*
G04 #@! TO.C,J3*
X110346000Y-39524000D02*
G75*
G02X110446000Y-39524000I50000J0D01*
G01*
X110446000Y-39524000D02*
G75*
G02X110346000Y-39524000I-50000J0D01*
G01*
X110346000Y-39524000D02*
G75*
G02X110446000Y-39524000I50000J0D01*
G01*
X110446000Y-39524000D02*
X110446000Y-39524000D01*
X110346000Y-39524000D02*
X110346000Y-39524000D01*
X110446000Y-39524000D02*
X110446000Y-39524000D01*
D15*
X124296000Y-40624000D02*
X124296000Y-26174000D01*
X124296000Y-40624000D02*
X124296000Y-40624000D01*
X124296000Y-26174000D02*
X124296000Y-40624000D01*
X124296000Y-26174000D02*
X124296000Y-26174000D01*
X111296000Y-26174000D02*
X111296000Y-26174000D01*
X124296000Y-26174000D02*
X111296000Y-26174000D01*
X124296000Y-26174000D02*
X124296000Y-26174000D01*
X111296000Y-26174000D02*
X124296000Y-26174000D01*
X111296000Y-26174000D02*
X111296000Y-40874000D01*
X111296000Y-26174000D02*
X111296000Y-26174000D01*
X111296000Y-40874000D02*
X111296000Y-26174000D01*
X111296000Y-40874000D02*
X111296000Y-40874000D01*
X111296000Y-45624000D02*
X111296000Y-48074000D01*
X111296000Y-45624000D02*
X111296000Y-45624000D01*
X111296000Y-48074000D02*
X111296000Y-45624000D01*
X111296000Y-48074000D02*
X111296000Y-48074000D01*
X113046000Y-48074000D02*
X113046000Y-48074000D01*
X111296000Y-48074000D02*
X113046000Y-48074000D01*
X111296000Y-48074000D02*
X111296000Y-48074000D01*
X113046000Y-48074000D02*
X111296000Y-48074000D01*
X120546000Y-48074000D02*
X120546000Y-48074000D01*
X115046000Y-48074000D02*
X120546000Y-48074000D01*
X115046000Y-48074000D02*
X115046000Y-48074000D01*
X120546000Y-48074000D02*
X115046000Y-48074000D01*
X124296000Y-48074000D02*
X124296000Y-48074000D01*
X122296000Y-48074000D02*
X124296000Y-48074000D01*
X122296000Y-48074000D02*
X122296000Y-48074000D01*
X124296000Y-48074000D02*
X122296000Y-48074000D01*
X124296000Y-48074000D02*
X124296000Y-45374000D01*
X124296000Y-48074000D02*
X124296000Y-48074000D01*
X124296000Y-45374000D02*
X124296000Y-48074000D01*
X124296000Y-45374000D02*
X124296000Y-45374000D01*
D13*
G04 #@! TO.C,JP1*
X136458000Y-78038000D02*
X135128000Y-78038000D01*
X136458000Y-76708000D02*
X136458000Y-78038000D01*
X136458000Y-75438000D02*
X133798000Y-75438000D01*
X133798000Y-75438000D02*
X133798000Y-70298000D01*
X136458000Y-75438000D02*
X136458000Y-70298000D01*
X136458000Y-70298000D02*
X133798000Y-70298000D01*
G04 #@! TO.C,JP2*
X133798000Y-67878000D02*
X136458000Y-67878000D01*
X133798000Y-62738000D02*
X133798000Y-67878000D01*
X136458000Y-62738000D02*
X136458000Y-67878000D01*
X133798000Y-62738000D02*
X136458000Y-62738000D01*
X133798000Y-61468000D02*
X133798000Y-60138000D01*
X133798000Y-60138000D02*
X135128000Y-60138000D01*
G04 #@! TO.C,C11*
X134317200Y-143643533D02*
X134317200Y-143986067D01*
X133297200Y-143643533D02*
X133297200Y-143986067D01*
G04 #@! TO.C,C12*
X119229600Y-139693467D02*
X119229600Y-139350933D01*
X118209600Y-139693467D02*
X118209600Y-139350933D01*
G04 #@! TO.C,C13*
X105809867Y-119178800D02*
X105467333Y-119178800D01*
X105809867Y-118158800D02*
X105467333Y-118158800D01*
G04 #@! TO.C,C19*
X104904000Y-64546267D02*
X104904000Y-64203733D01*
X103884000Y-64546267D02*
X103884000Y-64203733D01*
G04 #@! TO.C,C24*
X106682000Y-64546267D02*
X106682000Y-64203733D01*
X105662000Y-64546267D02*
X105662000Y-64203733D01*
G04 #@! TO.C,C27*
X108681733Y-70356000D02*
X109024267Y-70356000D01*
X108681733Y-71376000D02*
X109024267Y-71376000D01*
G04 #@! TO.C,L2*
X103630000Y-58450267D02*
X103630000Y-58107733D01*
X104650000Y-58450267D02*
X104650000Y-58107733D01*
G04 #@! TO.C,L3*
X106682000Y-58450267D02*
X106682000Y-58107733D01*
X105662000Y-58450267D02*
X105662000Y-58107733D01*
G04 #@! TO.C,J6*
X136458000Y-89662000D02*
X133798000Y-89662000D01*
X136458000Y-89662000D02*
X136458000Y-79442000D01*
X136458000Y-79442000D02*
X133798000Y-79442000D01*
X133798000Y-89662000D02*
X133798000Y-79442000D01*
X133798000Y-92262000D02*
X133798000Y-90932000D01*
X135128000Y-92262000D02*
X133798000Y-92262000D01*
G04 #@! TO.C,C1*
X116197748Y-154075200D02*
X116720252Y-154075200D01*
X116197748Y-152655200D02*
X116720252Y-152655200D01*
G04 #@! TO.C,C3*
X131249052Y-47804000D02*
X130726548Y-47804000D01*
X131249052Y-49224000D02*
X130726548Y-49224000D01*
G04 #@! TO.C,C9*
X113943200Y-149065348D02*
X113943200Y-149587852D01*
X112523200Y-149065348D02*
X112523200Y-149587852D01*
G04 #@! TO.C,C25*
X107240000Y-61215748D02*
X107240000Y-61738252D01*
X108660000Y-61215748D02*
X108660000Y-61738252D01*
D15*
G04 #@! TO.C,J2*
X107928000Y-29970000D02*
X128028000Y-29970000D01*
X128028000Y-29970000D02*
X128028000Y-55070000D01*
X128028000Y-55070000D02*
X107928000Y-55070000D01*
X107928000Y-55070000D02*
X107928000Y-29970000D01*
X107428000Y-52020000D02*
X107428000Y-52020000D01*
X107428000Y-52120000D02*
X107428000Y-52120000D01*
X107428000Y-52120000D02*
G75*
G02X107428000Y-52020000I0J50000D01*
G01*
X107428000Y-52020000D02*
G75*
G02X107428000Y-52120000I0J-50000D01*
G01*
D13*
G04 #@! TO.C,R1*
X131223652Y-43435200D02*
X130701148Y-43435200D01*
X131223652Y-44855200D02*
X130701148Y-44855200D01*
G04 #@! TO.C,R2*
X130701148Y-45695800D02*
X131223652Y-45695800D01*
X130701148Y-47115800D02*
X131223652Y-47115800D01*
G04 #@! TO.C,R5*
X130826252Y-145086000D02*
X130303748Y-145086000D01*
X130826252Y-146506000D02*
X130303748Y-146506000D01*
G04 #@! TO.C,R6*
X128322000Y-136668252D02*
X128322000Y-136145748D01*
X129742000Y-136668252D02*
X129742000Y-136145748D01*
G04 #@! TO.C,R7*
X136346000Y-136145748D02*
X136346000Y-136668252D01*
X134926000Y-136145748D02*
X134926000Y-136668252D01*
G04 #@! TO.C,R8*
X130608000Y-136668252D02*
X130608000Y-136145748D01*
X132028000Y-136668252D02*
X132028000Y-136145748D01*
G04 #@! TO.C,R9*
X134314000Y-136668252D02*
X134314000Y-136145748D01*
X132894000Y-136668252D02*
X132894000Y-136145748D01*
G04 #@! TO.C,R10*
X111962000Y-60952748D02*
X111962000Y-61475252D01*
X110542000Y-60952748D02*
X110542000Y-61475252D01*
G04 #@! TO.C,R11*
X118126252Y-59234000D02*
X117603748Y-59234000D01*
X118126252Y-60654000D02*
X117603748Y-60654000D01*
G04 #@! TO.C,R13*
X118126252Y-62686000D02*
X117603748Y-62686000D01*
X118126252Y-61266000D02*
X117603748Y-61266000D01*
G04 #@! TO.C,R19*
X120344000Y-94232252D02*
X120344000Y-93709748D01*
X118924000Y-94232252D02*
X118924000Y-93709748D01*
G04 #@! TO.C,R21*
X113486000Y-113545252D02*
X113486000Y-113022748D01*
X112066000Y-113545252D02*
X112066000Y-113022748D01*
G04 #@! TO.C,R23*
X128980000Y-113545252D02*
X128980000Y-113022748D01*
X127560000Y-113545252D02*
X127560000Y-113022748D01*
G04 #@! TO.C,R25*
X123242000Y-113545252D02*
X123242000Y-113022748D01*
X124662000Y-113545252D02*
X124662000Y-113022748D01*
G04 #@! TO.C,R28*
X108256000Y-113291252D02*
X108256000Y-112768748D01*
X109676000Y-113291252D02*
X109676000Y-112768748D01*
G04 #@! TO.C,R29*
X117042000Y-113291252D02*
X117042000Y-112768748D01*
X115622000Y-113291252D02*
X115622000Y-112768748D01*
G04 #@! TO.C,R32*
X131116000Y-113545252D02*
X131116000Y-113022748D01*
X132536000Y-113545252D02*
X132536000Y-113022748D01*
G04 #@! TO.C,R33*
X119686000Y-113545252D02*
X119686000Y-113022748D01*
X121106000Y-113545252D02*
X121106000Y-113022748D01*
G04 #@! TO.C,R36*
X131370000Y-77462748D02*
X131370000Y-77985252D01*
X132790000Y-77462748D02*
X132790000Y-77985252D01*
G04 #@! TO.C,C4*
X126998000Y-144467733D02*
X126998000Y-144810267D01*
X128018000Y-144467733D02*
X128018000Y-144810267D01*
G04 #@! TO.C,C14*
X105162533Y-113459800D02*
X105505067Y-113459800D01*
X105162533Y-114479800D02*
X105505067Y-114479800D01*
G04 #@! TO.C,C15*
X123954000Y-139249333D02*
X123954000Y-139591867D01*
X122934000Y-139249333D02*
X122934000Y-139591867D01*
G04 #@! TO.C,C16*
X133250400Y-84309133D02*
X133250400Y-84651667D01*
X132230400Y-84309133D02*
X132230400Y-84651667D01*
G04 #@! TO.C,C22*
X127694000Y-82834267D02*
X127694000Y-82491733D01*
X128714000Y-82834267D02*
X128714000Y-82491733D01*
G04 #@! TO.C,R44*
X109490252Y-67108000D02*
X108967748Y-67108000D01*
X109490252Y-68528000D02*
X108967748Y-68528000D01*
G04 #@! TO.C,R45*
X110999748Y-67108000D02*
X111522252Y-67108000D01*
X110999748Y-68528000D02*
X111522252Y-68528000D01*
G04 #@! TO.C,R46*
X109503724Y-64226406D02*
X108981220Y-64226406D01*
X109503724Y-65646406D02*
X108981220Y-65646406D01*
G04 #@! TO.C,R47*
X110999748Y-64226406D02*
X111522252Y-64226406D01*
X110999748Y-65646406D02*
X111522252Y-65646406D01*
G04 #@! TO.C,R52*
X104977000Y-149624148D02*
X104977000Y-150146652D01*
X103557000Y-149624148D02*
X103557000Y-150146652D01*
G04 #@! TO.C,TP1*
X111317000Y-147193000D02*
G75*
G03X111317000Y-147193000I-700000J0D01*
G01*
G04 #@! TO.C,TP2*
X108726200Y-146050000D02*
G75*
G03X108726200Y-146050000I-700000J0D01*
G01*
G04 #@! TO.C,TP4*
X104840000Y-146558000D02*
G75*
G03X104840000Y-146558000I-700000J0D01*
G01*
G04 #@! TO.C,TP7*
X116905000Y-139928600D02*
G75*
G03X116905000Y-139928600I-700000J0D01*
G01*
G04 #@! TO.C,TP8*
X104382800Y-121310400D02*
G75*
G03X104382800Y-121310400I-700000J0D01*
G01*
D16*
G04 #@! TO.C,IC8*
X127355600Y-65252600D02*
X127355600Y-63957200D01*
X127355600Y-65862200D02*
X127355600Y-65252600D01*
X127355600Y-67157600D02*
X127355600Y-65862200D01*
X124155200Y-63957200D02*
X124155200Y-67157600D01*
D17*
G04 #@! TO.C,U1*
X118159000Y-150548800D02*
X118159000Y-147748800D01*
X114759000Y-150548800D02*
X114759000Y-147748800D01*
D18*
X115609000Y-152051900D02*
G75*
G03X115609000Y-152051900I-125000J0D01*
G01*
D11*
G04 #@! TO.C,U2*
X129517200Y-53579400D02*
X129517200Y-52379400D01*
G04 #@! TO.C,R18*
D12*
X130666371Y-81455390D02*
X130499704Y-81217295D01*
X130380657Y-81455390D02*
X130380657Y-80955390D01*
X130571133Y-80955390D01*
X130618752Y-80979200D01*
X130642561Y-81003009D01*
X130666371Y-81050628D01*
X130666371Y-81122057D01*
X130642561Y-81169676D01*
X130618752Y-81193485D01*
X130571133Y-81217295D01*
X130380657Y-81217295D01*
X131142561Y-81455390D02*
X130856847Y-81455390D01*
X130999704Y-81455390D02*
X130999704Y-80955390D01*
X130952085Y-81026819D01*
X130904466Y-81074438D01*
X130856847Y-81098247D01*
X131428276Y-81169676D02*
X131380657Y-81145866D01*
X131356847Y-81122057D01*
X131333038Y-81074438D01*
X131333038Y-81050628D01*
X131356847Y-81003009D01*
X131380657Y-80979200D01*
X131428276Y-80955390D01*
X131523514Y-80955390D01*
X131571133Y-80979200D01*
X131594942Y-81003009D01*
X131618752Y-81050628D01*
X131618752Y-81074438D01*
X131594942Y-81122057D01*
X131571133Y-81145866D01*
X131523514Y-81169676D01*
X131428276Y-81169676D01*
X131380657Y-81193485D01*
X131356847Y-81217295D01*
X131333038Y-81264914D01*
X131333038Y-81360152D01*
X131356847Y-81407771D01*
X131380657Y-81431580D01*
X131428276Y-81455390D01*
X131523514Y-81455390D01*
X131571133Y-81431580D01*
X131594942Y-81407771D01*
X131618752Y-81360152D01*
X131618752Y-81264914D01*
X131594942Y-81217295D01*
X131571133Y-81193485D01*
X131523514Y-81169676D01*
G04 #@! TO.C,D9*
D17*
X114273104Y-67559180D02*
X114273104Y-66559180D01*
X114511200Y-66559180D01*
X114654057Y-66606800D01*
X114749295Y-66702038D01*
X114796914Y-66797276D01*
X114844533Y-66987752D01*
X114844533Y-67130609D01*
X114796914Y-67321085D01*
X114749295Y-67416323D01*
X114654057Y-67511561D01*
X114511200Y-67559180D01*
X114273104Y-67559180D01*
X115320723Y-67559180D02*
X115511200Y-67559180D01*
X115606438Y-67511561D01*
X115654057Y-67463942D01*
X115749295Y-67321085D01*
X115796914Y-67130609D01*
X115796914Y-66749657D01*
X115749295Y-66654419D01*
X115701676Y-66606800D01*
X115606438Y-66559180D01*
X115415961Y-66559180D01*
X115320723Y-66606800D01*
X115273104Y-66654419D01*
X115225485Y-66749657D01*
X115225485Y-66987752D01*
X115273104Y-67082990D01*
X115320723Y-67130609D01*
X115415961Y-67178228D01*
X115606438Y-67178228D01*
X115701676Y-67130609D01*
X115749295Y-67082990D01*
X115796914Y-66987752D01*
G04 #@! TO.C,D1*
X130325904Y-122473980D02*
X130325904Y-121473980D01*
X130564000Y-121473980D01*
X130706857Y-121521600D01*
X130802095Y-121616838D01*
X130849714Y-121712076D01*
X130897333Y-121902552D01*
X130897333Y-122045409D01*
X130849714Y-122235885D01*
X130802095Y-122331123D01*
X130706857Y-122426361D01*
X130564000Y-122473980D01*
X130325904Y-122473980D01*
X131849714Y-122473980D02*
X131278285Y-122473980D01*
X131564000Y-122473980D02*
X131564000Y-121473980D01*
X131468761Y-121616838D01*
X131373523Y-121712076D01*
X131278285Y-121759695D01*
G04 #@! TO.C,D2*
X130554504Y-124861580D02*
X130554504Y-123861580D01*
X130792600Y-123861580D01*
X130935457Y-123909200D01*
X131030695Y-124004438D01*
X131078314Y-124099676D01*
X131125933Y-124290152D01*
X131125933Y-124433009D01*
X131078314Y-124623485D01*
X131030695Y-124718723D01*
X130935457Y-124813961D01*
X130792600Y-124861580D01*
X130554504Y-124861580D01*
X131506885Y-123956819D02*
X131554504Y-123909200D01*
X131649742Y-123861580D01*
X131887838Y-123861580D01*
X131983076Y-123909200D01*
X132030695Y-123956819D01*
X132078314Y-124052057D01*
X132078314Y-124147295D01*
X132030695Y-124290152D01*
X131459266Y-124861580D01*
X132078314Y-124861580D01*
G04 #@! TO.C,D3*
X130351304Y-127553980D02*
X130351304Y-126553980D01*
X130589400Y-126553980D01*
X130732257Y-126601600D01*
X130827495Y-126696838D01*
X130875114Y-126792076D01*
X130922733Y-126982552D01*
X130922733Y-127125409D01*
X130875114Y-127315885D01*
X130827495Y-127411123D01*
X130732257Y-127506361D01*
X130589400Y-127553980D01*
X130351304Y-127553980D01*
X131256066Y-126553980D02*
X131875114Y-126553980D01*
X131541780Y-126934933D01*
X131684638Y-126934933D01*
X131779876Y-126982552D01*
X131827495Y-127030171D01*
X131875114Y-127125409D01*
X131875114Y-127363504D01*
X131827495Y-127458742D01*
X131779876Y-127506361D01*
X131684638Y-127553980D01*
X131398923Y-127553980D01*
X131303685Y-127506361D01*
X131256066Y-127458742D01*
G04 #@! TO.C,D12*
D12*
X133525390Y-89354742D02*
X133025390Y-89354742D01*
X133025390Y-89235695D01*
X133049200Y-89164266D01*
X133096819Y-89116647D01*
X133144438Y-89092838D01*
X133239676Y-89069028D01*
X133311104Y-89069028D01*
X133406342Y-89092838D01*
X133453961Y-89116647D01*
X133501580Y-89164266D01*
X133525390Y-89235695D01*
X133525390Y-89354742D01*
X133525390Y-88592838D02*
X133525390Y-88878552D01*
X133525390Y-88735695D02*
X133025390Y-88735695D01*
X133096819Y-88783314D01*
X133144438Y-88830933D01*
X133168247Y-88878552D01*
X133073009Y-88402361D02*
X133049200Y-88378552D01*
X133025390Y-88330933D01*
X133025390Y-88211885D01*
X133049200Y-88164266D01*
X133073009Y-88140457D01*
X133120628Y-88116647D01*
X133168247Y-88116647D01*
X133239676Y-88140457D01*
X133525390Y-88426171D01*
X133525390Y-88116647D01*
G04 #@! TO.C,D13*
D17*
X106786514Y-149348180D02*
X106786514Y-148348180D01*
X107024609Y-148348180D01*
X107167466Y-148395800D01*
X107262704Y-148491038D01*
X107310323Y-148586276D01*
X107357942Y-148776752D01*
X107357942Y-148919609D01*
X107310323Y-149110085D01*
X107262704Y-149205323D01*
X107167466Y-149300561D01*
X107024609Y-149348180D01*
X106786514Y-149348180D01*
X108310323Y-149348180D02*
X107738895Y-149348180D01*
X108024609Y-149348180D02*
X108024609Y-148348180D01*
X107929371Y-148491038D01*
X107834133Y-148586276D01*
X107738895Y-148633895D01*
X108643657Y-148348180D02*
X109262704Y-148348180D01*
X108929371Y-148729133D01*
X109072228Y-148729133D01*
X109167466Y-148776752D01*
X109215085Y-148824371D01*
X109262704Y-148919609D01*
X109262704Y-149157704D01*
X109215085Y-149252942D01*
X109167466Y-149300561D01*
X109072228Y-149348180D01*
X108786514Y-149348180D01*
X108691276Y-149300561D01*
X108643657Y-149252942D01*
G04 #@! TO.C,D4*
X130376704Y-130525780D02*
X130376704Y-129525780D01*
X130614800Y-129525780D01*
X130757657Y-129573400D01*
X130852895Y-129668638D01*
X130900514Y-129763876D01*
X130948133Y-129954352D01*
X130948133Y-130097209D01*
X130900514Y-130287685D01*
X130852895Y-130382923D01*
X130757657Y-130478161D01*
X130614800Y-130525780D01*
X130376704Y-130525780D01*
X131805276Y-129859114D02*
X131805276Y-130525780D01*
X131567180Y-129478161D02*
X131329085Y-130192447D01*
X131948133Y-130192447D01*
G04 #@! TO.C,D14*
X130946085Y-77669514D02*
X130196085Y-77669514D01*
X130196085Y-77490942D01*
X130231800Y-77383800D01*
X130303228Y-77312371D01*
X130374657Y-77276657D01*
X130517514Y-77240942D01*
X130624657Y-77240942D01*
X130767514Y-77276657D01*
X130838942Y-77312371D01*
X130910371Y-77383800D01*
X130946085Y-77490942D01*
X130946085Y-77669514D01*
X130946085Y-76526657D02*
X130946085Y-76955228D01*
X130946085Y-76740942D02*
X130196085Y-76740942D01*
X130303228Y-76812371D01*
X130374657Y-76883800D01*
X130410371Y-76955228D01*
X130446085Y-75883800D02*
X130946085Y-75883800D01*
X130160371Y-76062371D02*
X130696085Y-76240942D01*
X130696085Y-75776657D01*
G04 #@! TO.C,IC7*
D14*
X104276238Y-91930523D02*
X104276238Y-90660523D01*
X105606714Y-91809571D02*
X105546238Y-91870047D01*
X105364809Y-91930523D01*
X105243857Y-91930523D01*
X105062428Y-91870047D01*
X104941476Y-91749095D01*
X104881000Y-91628142D01*
X104820523Y-91386238D01*
X104820523Y-91204809D01*
X104881000Y-90962904D01*
X104941476Y-90841952D01*
X105062428Y-90721000D01*
X105243857Y-90660523D01*
X105364809Y-90660523D01*
X105546238Y-90721000D01*
X105606714Y-90781476D01*
X106030047Y-90660523D02*
X106876714Y-90660523D01*
X106332428Y-91930523D01*
G04 #@! TO.C,D7*
D19*
X126116228Y-153272685D02*
X126116228Y-152522685D01*
X126294800Y-152522685D01*
X126401942Y-152558400D01*
X126473371Y-152629828D01*
X126509085Y-152701257D01*
X126544800Y-152844114D01*
X126544800Y-152951257D01*
X126509085Y-153094114D01*
X126473371Y-153165542D01*
X126401942Y-153236971D01*
X126294800Y-153272685D01*
X126116228Y-153272685D01*
X126794800Y-152522685D02*
X127294800Y-152522685D01*
X126973371Y-153272685D01*
G04 #@! TO.C,Q6*
D14*
X131578047Y-106359476D02*
X131457095Y-106299000D01*
X131336142Y-106178047D01*
X131154714Y-105996619D01*
X131033761Y-105936142D01*
X130912809Y-105936142D01*
X130973285Y-106238523D02*
X130852333Y-106178047D01*
X130731380Y-106057095D01*
X130670904Y-105815190D01*
X130670904Y-105391857D01*
X130731380Y-105149952D01*
X130852333Y-105029000D01*
X130973285Y-104968523D01*
X131215190Y-104968523D01*
X131336142Y-105029000D01*
X131457095Y-105149952D01*
X131517571Y-105391857D01*
X131517571Y-105815190D01*
X131457095Y-106057095D01*
X131336142Y-106178047D01*
X131215190Y-106238523D01*
X130973285Y-106238523D01*
X132606142Y-104968523D02*
X132364238Y-104968523D01*
X132243285Y-105029000D01*
X132182809Y-105089476D01*
X132061857Y-105270904D01*
X132001380Y-105512809D01*
X132001380Y-105996619D01*
X132061857Y-106117571D01*
X132122333Y-106178047D01*
X132243285Y-106238523D01*
X132485190Y-106238523D01*
X132606142Y-106178047D01*
X132666619Y-106117571D01*
X132727095Y-105996619D01*
X132727095Y-105694238D01*
X132666619Y-105573285D01*
X132606142Y-105512809D01*
X132485190Y-105452333D01*
X132243285Y-105452333D01*
X132122333Y-105512809D01*
X132061857Y-105573285D01*
X132001380Y-105694238D01*
G04 #@! TO.C,Q5*
X116592047Y-106384876D02*
X116471095Y-106324400D01*
X116350142Y-106203447D01*
X116168714Y-106022019D01*
X116047761Y-105961542D01*
X115926809Y-105961542D01*
X115987285Y-106263923D02*
X115866333Y-106203447D01*
X115745380Y-106082495D01*
X115684904Y-105840590D01*
X115684904Y-105417257D01*
X115745380Y-105175352D01*
X115866333Y-105054400D01*
X115987285Y-104993923D01*
X116229190Y-104993923D01*
X116350142Y-105054400D01*
X116471095Y-105175352D01*
X116531571Y-105417257D01*
X116531571Y-105840590D01*
X116471095Y-106082495D01*
X116350142Y-106203447D01*
X116229190Y-106263923D01*
X115987285Y-106263923D01*
X117680619Y-104993923D02*
X117075857Y-104993923D01*
X117015380Y-105598685D01*
X117075857Y-105538209D01*
X117196809Y-105477733D01*
X117499190Y-105477733D01*
X117620142Y-105538209D01*
X117680619Y-105598685D01*
X117741095Y-105719638D01*
X117741095Y-106022019D01*
X117680619Y-106142971D01*
X117620142Y-106203447D01*
X117499190Y-106263923D01*
X117196809Y-106263923D01*
X117075857Y-106203447D01*
X117015380Y-106142971D01*
G04 #@! TO.C,Q4*
X108845047Y-106689676D02*
X108724095Y-106629200D01*
X108603142Y-106508247D01*
X108421714Y-106326819D01*
X108300761Y-106266342D01*
X108179809Y-106266342D01*
X108240285Y-106568723D02*
X108119333Y-106508247D01*
X107998380Y-106387295D01*
X107937904Y-106145390D01*
X107937904Y-105722057D01*
X107998380Y-105480152D01*
X108119333Y-105359200D01*
X108240285Y-105298723D01*
X108482190Y-105298723D01*
X108603142Y-105359200D01*
X108724095Y-105480152D01*
X108784571Y-105722057D01*
X108784571Y-106145390D01*
X108724095Y-106387295D01*
X108603142Y-106508247D01*
X108482190Y-106568723D01*
X108240285Y-106568723D01*
X109873142Y-105722057D02*
X109873142Y-106568723D01*
X109570761Y-105238247D02*
X109268380Y-106145390D01*
X110054571Y-106145390D01*
G04 #@! TO.C,Q3*
X123831047Y-106334076D02*
X123710095Y-106273600D01*
X123589142Y-106152647D01*
X123407714Y-105971219D01*
X123286761Y-105910742D01*
X123165809Y-105910742D01*
X123226285Y-106213123D02*
X123105333Y-106152647D01*
X122984380Y-106031695D01*
X122923904Y-105789790D01*
X122923904Y-105366457D01*
X122984380Y-105124552D01*
X123105333Y-105003600D01*
X123226285Y-104943123D01*
X123468190Y-104943123D01*
X123589142Y-105003600D01*
X123710095Y-105124552D01*
X123770571Y-105366457D01*
X123770571Y-105789790D01*
X123710095Y-106031695D01*
X123589142Y-106152647D01*
X123468190Y-106213123D01*
X123226285Y-106213123D01*
X124193904Y-104943123D02*
X124980095Y-104943123D01*
X124556761Y-105426933D01*
X124738190Y-105426933D01*
X124859142Y-105487409D01*
X124919619Y-105547885D01*
X124980095Y-105668838D01*
X124980095Y-105971219D01*
X124919619Y-106092171D01*
X124859142Y-106152647D01*
X124738190Y-106213123D01*
X124375333Y-106213123D01*
X124254380Y-106152647D01*
X124193904Y-106092171D01*
G04 #@! TO.C,Q2*
X127768047Y-106308676D02*
X127647095Y-106248200D01*
X127526142Y-106127247D01*
X127344714Y-105945819D01*
X127223761Y-105885342D01*
X127102809Y-105885342D01*
X127163285Y-106187723D02*
X127042333Y-106127247D01*
X126921380Y-106006295D01*
X126860904Y-105764390D01*
X126860904Y-105341057D01*
X126921380Y-105099152D01*
X127042333Y-104978200D01*
X127163285Y-104917723D01*
X127405190Y-104917723D01*
X127526142Y-104978200D01*
X127647095Y-105099152D01*
X127707571Y-105341057D01*
X127707571Y-105764390D01*
X127647095Y-106006295D01*
X127526142Y-106127247D01*
X127405190Y-106187723D01*
X127163285Y-106187723D01*
X128191380Y-105038676D02*
X128251857Y-104978200D01*
X128372809Y-104917723D01*
X128675190Y-104917723D01*
X128796142Y-104978200D01*
X128856619Y-105038676D01*
X128917095Y-105159628D01*
X128917095Y-105280580D01*
X128856619Y-105462009D01*
X128130904Y-106187723D01*
X128917095Y-106187723D01*
G04 #@! TO.C,Q1*
X112578847Y-106308676D02*
X112457895Y-106248200D01*
X112336942Y-106127247D01*
X112155514Y-105945819D01*
X112034561Y-105885342D01*
X111913609Y-105885342D01*
X111974085Y-106187723D02*
X111853133Y-106127247D01*
X111732180Y-106006295D01*
X111671704Y-105764390D01*
X111671704Y-105341057D01*
X111732180Y-105099152D01*
X111853133Y-104978200D01*
X111974085Y-104917723D01*
X112215990Y-104917723D01*
X112336942Y-104978200D01*
X112457895Y-105099152D01*
X112518371Y-105341057D01*
X112518371Y-105764390D01*
X112457895Y-106006295D01*
X112336942Y-106127247D01*
X112215990Y-106187723D01*
X111974085Y-106187723D01*
X113727895Y-106187723D02*
X113002180Y-106187723D01*
X113365038Y-106187723D02*
X113365038Y-104917723D01*
X113244085Y-105099152D01*
X113123133Y-105220104D01*
X113002180Y-105280580D01*
G04 #@! TO.C,Q7*
X120376647Y-106410276D02*
X120255695Y-106349800D01*
X120134742Y-106228847D01*
X119953314Y-106047419D01*
X119832361Y-105986942D01*
X119711409Y-105986942D01*
X119771885Y-106289323D02*
X119650933Y-106228847D01*
X119529980Y-106107895D01*
X119469504Y-105865990D01*
X119469504Y-105442657D01*
X119529980Y-105200752D01*
X119650933Y-105079800D01*
X119771885Y-105019323D01*
X120013790Y-105019323D01*
X120134742Y-105079800D01*
X120255695Y-105200752D01*
X120316171Y-105442657D01*
X120316171Y-105865990D01*
X120255695Y-106107895D01*
X120134742Y-106228847D01*
X120013790Y-106289323D01*
X119771885Y-106289323D01*
X120739504Y-105019323D02*
X121586171Y-105019323D01*
X121041885Y-106289323D01*
G04 #@! TO.C,JP3*
D17*
X123144066Y-96156980D02*
X123144066Y-96871266D01*
X123096447Y-97014123D01*
X123001209Y-97109361D01*
X122858352Y-97156980D01*
X122763114Y-97156980D01*
X123620257Y-97156980D02*
X123620257Y-96156980D01*
X124001209Y-96156980D01*
X124096447Y-96204600D01*
X124144066Y-96252219D01*
X124191685Y-96347457D01*
X124191685Y-96490314D01*
X124144066Y-96585552D01*
X124096447Y-96633171D01*
X124001209Y-96680790D01*
X123620257Y-96680790D01*
X124525019Y-96156980D02*
X125144066Y-96156980D01*
X124810733Y-96537933D01*
X124953590Y-96537933D01*
X125048828Y-96585552D01*
X125096447Y-96633171D01*
X125144066Y-96728409D01*
X125144066Y-96966504D01*
X125096447Y-97061742D01*
X125048828Y-97109361D01*
X124953590Y-97156980D01*
X124667876Y-97156980D01*
X124572638Y-97109361D01*
X124525019Y-97061742D01*
G04 #@! TO.C,C2*
X130744933Y-56820342D02*
X130697314Y-56867961D01*
X130554457Y-56915580D01*
X130459219Y-56915580D01*
X130316361Y-56867961D01*
X130221123Y-56772723D01*
X130173504Y-56677485D01*
X130125885Y-56487009D01*
X130125885Y-56344152D01*
X130173504Y-56153676D01*
X130221123Y-56058438D01*
X130316361Y-55963200D01*
X130459219Y-55915580D01*
X130554457Y-55915580D01*
X130697314Y-55963200D01*
X130744933Y-56010819D01*
X131125885Y-56010819D02*
X131173504Y-55963200D01*
X131268742Y-55915580D01*
X131506838Y-55915580D01*
X131602076Y-55963200D01*
X131649695Y-56010819D01*
X131697314Y-56106057D01*
X131697314Y-56201295D01*
X131649695Y-56344152D01*
X131078266Y-56915580D01*
X131697314Y-56915580D01*
G04 #@! TO.C,S1*
D18*
X112217295Y-154963761D02*
X112360152Y-155011380D01*
X112598247Y-155011380D01*
X112693485Y-154963761D01*
X112741104Y-154916142D01*
X112788723Y-154820904D01*
X112788723Y-154725666D01*
X112741104Y-154630428D01*
X112693485Y-154582809D01*
X112598247Y-154535190D01*
X112407771Y-154487571D01*
X112312533Y-154439952D01*
X112264914Y-154392333D01*
X112217295Y-154297095D01*
X112217295Y-154201857D01*
X112264914Y-154106619D01*
X112312533Y-154059000D01*
X112407771Y-154011380D01*
X112645866Y-154011380D01*
X112788723Y-154059000D01*
X113741104Y-155011380D02*
X113169676Y-155011380D01*
X113455390Y-155011380D02*
X113455390Y-154011380D01*
X113360152Y-154154238D01*
X113264914Y-154249476D01*
X113169676Y-154297095D01*
G04 #@! TO.C,J5*
D14*
X108009266Y-138598123D02*
X108009266Y-139505266D01*
X107948790Y-139686695D01*
X107827838Y-139807647D01*
X107646409Y-139868123D01*
X107525457Y-139868123D01*
X109218790Y-138598123D02*
X108614028Y-138598123D01*
X108553552Y-139202885D01*
X108614028Y-139142409D01*
X108734980Y-139081933D01*
X109037361Y-139081933D01*
X109158314Y-139142409D01*
X109218790Y-139202885D01*
X109279266Y-139323838D01*
X109279266Y-139626219D01*
X109218790Y-139747171D01*
X109158314Y-139807647D01*
X109037361Y-139868123D01*
X108734980Y-139868123D01*
X108614028Y-139807647D01*
X108553552Y-139747171D01*
G04 #@! TO.C,IC6*
D17*
X130291009Y-140660380D02*
X130291009Y-139660380D01*
X131338628Y-140565142D02*
X131291009Y-140612761D01*
X131148152Y-140660380D01*
X131052914Y-140660380D01*
X130910057Y-140612761D01*
X130814819Y-140517523D01*
X130767200Y-140422285D01*
X130719580Y-140231809D01*
X130719580Y-140088952D01*
X130767200Y-139898476D01*
X130814819Y-139803238D01*
X130910057Y-139708000D01*
X131052914Y-139660380D01*
X131148152Y-139660380D01*
X131291009Y-139708000D01*
X131338628Y-139755619D01*
X132195771Y-139660380D02*
X132005295Y-139660380D01*
X131910057Y-139708000D01*
X131862438Y-139755619D01*
X131767200Y-139898476D01*
X131719580Y-140088952D01*
X131719580Y-140469904D01*
X131767200Y-140565142D01*
X131814819Y-140612761D01*
X131910057Y-140660380D01*
X132100533Y-140660380D01*
X132195771Y-140612761D01*
X132243390Y-140565142D01*
X132291009Y-140469904D01*
X132291009Y-140231809D01*
X132243390Y-140136571D01*
X132195771Y-140088952D01*
X132100533Y-140041333D01*
X131910057Y-140041333D01*
X131814819Y-140088952D01*
X131767200Y-140136571D01*
X131719580Y-140231809D01*
G04 #@! TO.C,R34*
X131541780Y-67571857D02*
X131065590Y-67905190D01*
X131541780Y-68143285D02*
X130541780Y-68143285D01*
X130541780Y-67762333D01*
X130589400Y-67667095D01*
X130637019Y-67619476D01*
X130732257Y-67571857D01*
X130875114Y-67571857D01*
X130970352Y-67619476D01*
X131017971Y-67667095D01*
X131065590Y-67762333D01*
X131065590Y-68143285D01*
X130541780Y-67238523D02*
X130541780Y-66619476D01*
X130922733Y-66952809D01*
X130922733Y-66809952D01*
X130970352Y-66714714D01*
X131017971Y-66667095D01*
X131113209Y-66619476D01*
X131351304Y-66619476D01*
X131446542Y-66667095D01*
X131494161Y-66714714D01*
X131541780Y-66809952D01*
X131541780Y-67095666D01*
X131494161Y-67190904D01*
X131446542Y-67238523D01*
X130875114Y-65762333D02*
X131541780Y-65762333D01*
X130494161Y-66000428D02*
X131208447Y-66238523D01*
X131208447Y-65619476D01*
G04 #@! TO.C,R37*
X130882380Y-62609857D02*
X130406190Y-62943190D01*
X130882380Y-63181285D02*
X129882380Y-63181285D01*
X129882380Y-62800333D01*
X129930000Y-62705095D01*
X129977619Y-62657476D01*
X130072857Y-62609857D01*
X130215714Y-62609857D01*
X130310952Y-62657476D01*
X130358571Y-62705095D01*
X130406190Y-62800333D01*
X130406190Y-63181285D01*
X129882380Y-62276523D02*
X129882380Y-61657476D01*
X130263333Y-61990809D01*
X130263333Y-61847952D01*
X130310952Y-61752714D01*
X130358571Y-61705095D01*
X130453809Y-61657476D01*
X130691904Y-61657476D01*
X130787142Y-61705095D01*
X130834761Y-61752714D01*
X130882380Y-61847952D01*
X130882380Y-62133666D01*
X130834761Y-62228904D01*
X130787142Y-62276523D01*
X129882380Y-61324142D02*
X129882380Y-60657476D01*
X130882380Y-61086047D01*
G04 #@! TO.C,DS1*
D14*
X115805857Y-126949523D02*
X115805857Y-125679523D01*
X116108238Y-125679523D01*
X116289666Y-125740000D01*
X116410619Y-125860952D01*
X116471095Y-125981904D01*
X116531571Y-126223809D01*
X116531571Y-126405238D01*
X116471095Y-126647142D01*
X116410619Y-126768095D01*
X116289666Y-126889047D01*
X116108238Y-126949523D01*
X115805857Y-126949523D01*
X117015380Y-126889047D02*
X117196809Y-126949523D01*
X117499190Y-126949523D01*
X117620142Y-126889047D01*
X117680619Y-126828571D01*
X117741095Y-126707619D01*
X117741095Y-126586666D01*
X117680619Y-126465714D01*
X117620142Y-126405238D01*
X117499190Y-126344761D01*
X117257285Y-126284285D01*
X117136333Y-126223809D01*
X117075857Y-126163333D01*
X117015380Y-126042380D01*
X117015380Y-125921428D01*
X117075857Y-125800476D01*
X117136333Y-125740000D01*
X117257285Y-125679523D01*
X117559666Y-125679523D01*
X117741095Y-125740000D01*
X118950619Y-126949523D02*
X118224904Y-126949523D01*
X118587761Y-126949523D02*
X118587761Y-125679523D01*
X118466809Y-125860952D01*
X118345857Y-125981904D01*
X118224904Y-126042380D01*
G04 #@! TO.C,D5*
D17*
X127706380Y-91162095D02*
X126706380Y-91162095D01*
X126706380Y-90924000D01*
X126754000Y-90781142D01*
X126849238Y-90685904D01*
X126944476Y-90638285D01*
X127134952Y-90590666D01*
X127277809Y-90590666D01*
X127468285Y-90638285D01*
X127563523Y-90685904D01*
X127658761Y-90781142D01*
X127706380Y-90924000D01*
X127706380Y-91162095D01*
X126706380Y-89685904D02*
X126706380Y-90162095D01*
X127182571Y-90209714D01*
X127134952Y-90162095D01*
X127087333Y-90066857D01*
X127087333Y-89828761D01*
X127134952Y-89733523D01*
X127182571Y-89685904D01*
X127277809Y-89638285D01*
X127515904Y-89638285D01*
X127611142Y-89685904D01*
X127658761Y-89733523D01*
X127706380Y-89828761D01*
X127706380Y-90066857D01*
X127658761Y-90162095D01*
X127611142Y-90209714D01*
G04 #@! TO.C,J1*
X114728666Y-103822380D02*
X114728666Y-104536666D01*
X114681047Y-104679523D01*
X114585809Y-104774761D01*
X114442952Y-104822380D01*
X114347714Y-104822380D01*
X115728666Y-104822380D02*
X115157238Y-104822380D01*
X115442952Y-104822380D02*
X115442952Y-103822380D01*
X115347714Y-103965238D01*
X115252476Y-104060476D01*
X115157238Y-104108095D01*
G04 #@! TO.C,J8*
D19*
X135640000Y-146375885D02*
X135640000Y-146911600D01*
X135604285Y-147018742D01*
X135532857Y-147090171D01*
X135425714Y-147125885D01*
X135354285Y-147125885D01*
X136104285Y-146697314D02*
X136032857Y-146661600D01*
X135997142Y-146625885D01*
X135961428Y-146554457D01*
X135961428Y-146518742D01*
X135997142Y-146447314D01*
X136032857Y-146411600D01*
X136104285Y-146375885D01*
X136247142Y-146375885D01*
X136318571Y-146411600D01*
X136354285Y-146447314D01*
X136390000Y-146518742D01*
X136390000Y-146554457D01*
X136354285Y-146625885D01*
X136318571Y-146661600D01*
X136247142Y-146697314D01*
X136104285Y-146697314D01*
X136032857Y-146733028D01*
X135997142Y-146768742D01*
X135961428Y-146840171D01*
X135961428Y-146983028D01*
X135997142Y-147054457D01*
X136032857Y-147090171D01*
X136104285Y-147125885D01*
X136247142Y-147125885D01*
X136318571Y-147090171D01*
X136354285Y-147054457D01*
X136390000Y-146983028D01*
X136390000Y-146840171D01*
X136354285Y-146768742D01*
X136318571Y-146733028D01*
X136247142Y-146697314D01*
G04 #@! TO.C,J9*
D17*
X133270666Y-38568380D02*
X133270666Y-39282666D01*
X133223047Y-39425523D01*
X133127809Y-39520761D01*
X132984952Y-39568380D01*
X132889714Y-39568380D01*
X133794476Y-39568380D02*
X133984952Y-39568380D01*
X134080190Y-39520761D01*
X134127809Y-39473142D01*
X134223047Y-39330285D01*
X134270666Y-39139809D01*
X134270666Y-38758857D01*
X134223047Y-38663619D01*
X134175428Y-38616000D01*
X134080190Y-38568380D01*
X133889714Y-38568380D01*
X133794476Y-38616000D01*
X133746857Y-38663619D01*
X133699238Y-38758857D01*
X133699238Y-38996952D01*
X133746857Y-39092190D01*
X133794476Y-39139809D01*
X133889714Y-39187428D01*
X134080190Y-39187428D01*
X134175428Y-39139809D01*
X134223047Y-39092190D01*
X134270666Y-38996952D01*
G04 #@! TO.C,JP4*
X109434380Y-95575333D02*
X110148666Y-95575333D01*
X110291523Y-95622952D01*
X110386761Y-95718190D01*
X110434380Y-95861047D01*
X110434380Y-95956285D01*
X110434380Y-95099142D02*
X109434380Y-95099142D01*
X109434380Y-94718190D01*
X109482000Y-94622952D01*
X109529619Y-94575333D01*
X109624857Y-94527714D01*
X109767714Y-94527714D01*
X109862952Y-94575333D01*
X109910571Y-94622952D01*
X109958190Y-94718190D01*
X109958190Y-95099142D01*
X109767714Y-93670571D02*
X110434380Y-93670571D01*
X109386761Y-93908666D02*
X110101047Y-94146761D01*
X110101047Y-93527714D01*
G04 #@! TO.C,JP5*
X109688380Y-99385333D02*
X110402666Y-99385333D01*
X110545523Y-99432952D01*
X110640761Y-99528190D01*
X110688380Y-99671047D01*
X110688380Y-99766285D01*
X110688380Y-98909142D02*
X109688380Y-98909142D01*
X109688380Y-98528190D01*
X109736000Y-98432952D01*
X109783619Y-98385333D01*
X109878857Y-98337714D01*
X110021714Y-98337714D01*
X110116952Y-98385333D01*
X110164571Y-98432952D01*
X110212190Y-98528190D01*
X110212190Y-98909142D01*
X109688380Y-97432952D02*
X109688380Y-97909142D01*
X110164571Y-97956761D01*
X110116952Y-97909142D01*
X110069333Y-97813904D01*
X110069333Y-97575809D01*
X110116952Y-97480571D01*
X110164571Y-97432952D01*
X110259809Y-97385333D01*
X110497904Y-97385333D01*
X110593142Y-97432952D01*
X110640761Y-97480571D01*
X110688380Y-97575809D01*
X110688380Y-97813904D01*
X110640761Y-97909142D01*
X110593142Y-97956761D01*
G04 #@! TO.C,JP8*
X109688380Y-102941333D02*
X110402666Y-102941333D01*
X110545523Y-102988952D01*
X110640761Y-103084190D01*
X110688380Y-103227047D01*
X110688380Y-103322285D01*
X110688380Y-102465142D02*
X109688380Y-102465142D01*
X109688380Y-102084190D01*
X109736000Y-101988952D01*
X109783619Y-101941333D01*
X109878857Y-101893714D01*
X110021714Y-101893714D01*
X110116952Y-101941333D01*
X110164571Y-101988952D01*
X110212190Y-102084190D01*
X110212190Y-102465142D01*
X110116952Y-101322285D02*
X110069333Y-101417523D01*
X110021714Y-101465142D01*
X109926476Y-101512761D01*
X109878857Y-101512761D01*
X109783619Y-101465142D01*
X109736000Y-101417523D01*
X109688380Y-101322285D01*
X109688380Y-101131809D01*
X109736000Y-101036571D01*
X109783619Y-100988952D01*
X109878857Y-100941333D01*
X109926476Y-100941333D01*
X110021714Y-100988952D01*
X110069333Y-101036571D01*
X110116952Y-101131809D01*
X110116952Y-101322285D01*
X110164571Y-101417523D01*
X110212190Y-101465142D01*
X110307428Y-101512761D01*
X110497904Y-101512761D01*
X110593142Y-101465142D01*
X110640761Y-101417523D01*
X110688380Y-101322285D01*
X110688380Y-101131809D01*
X110640761Y-101036571D01*
X110593142Y-100988952D01*
X110497904Y-100941333D01*
X110307428Y-100941333D01*
X110212190Y-100988952D01*
X110164571Y-101036571D01*
X110116952Y-101131809D01*
G04 #@! TO.C,S2*
D14*
X130096380Y-99521047D02*
X130277809Y-99581523D01*
X130580190Y-99581523D01*
X130701142Y-99521047D01*
X130761619Y-99460571D01*
X130822095Y-99339619D01*
X130822095Y-99218666D01*
X130761619Y-99097714D01*
X130701142Y-99037238D01*
X130580190Y-98976761D01*
X130338285Y-98916285D01*
X130217333Y-98855809D01*
X130156857Y-98795333D01*
X130096380Y-98674380D01*
X130096380Y-98553428D01*
X130156857Y-98432476D01*
X130217333Y-98372000D01*
X130338285Y-98311523D01*
X130640666Y-98311523D01*
X130822095Y-98372000D01*
X131305904Y-98432476D02*
X131366380Y-98372000D01*
X131487333Y-98311523D01*
X131789714Y-98311523D01*
X131910666Y-98372000D01*
X131971142Y-98432476D01*
X132031619Y-98553428D01*
X132031619Y-98674380D01*
X131971142Y-98855809D01*
X131245428Y-99581523D01*
X132031619Y-99581523D01*
G04 #@! TO.C,IC3*
D18*
X119978609Y-143352780D02*
X119978609Y-142352780D01*
X121026228Y-143257542D02*
X120978609Y-143305161D01*
X120835752Y-143352780D01*
X120740514Y-143352780D01*
X120597657Y-143305161D01*
X120502419Y-143209923D01*
X120454800Y-143114685D01*
X120407180Y-142924209D01*
X120407180Y-142781352D01*
X120454800Y-142590876D01*
X120502419Y-142495638D01*
X120597657Y-142400400D01*
X120740514Y-142352780D01*
X120835752Y-142352780D01*
X120978609Y-142400400D01*
X121026228Y-142448019D01*
X121359561Y-142352780D02*
X121978609Y-142352780D01*
X121645276Y-142733733D01*
X121788133Y-142733733D01*
X121883371Y-142781352D01*
X121930990Y-142828971D01*
X121978609Y-142924209D01*
X121978609Y-143162304D01*
X121930990Y-143257542D01*
X121883371Y-143305161D01*
X121788133Y-143352780D01*
X121502419Y-143352780D01*
X121407180Y-143305161D01*
X121359561Y-143257542D01*
G04 #@! TO.C,IC4*
D14*
X109362723Y-118003561D02*
X108092723Y-118003561D01*
X109241771Y-116673085D02*
X109302247Y-116733561D01*
X109362723Y-116914990D01*
X109362723Y-117035942D01*
X109302247Y-117217371D01*
X109181295Y-117338323D01*
X109060342Y-117398800D01*
X108818438Y-117459276D01*
X108637009Y-117459276D01*
X108395104Y-117398800D01*
X108274152Y-117338323D01*
X108153200Y-117217371D01*
X108092723Y-117035942D01*
X108092723Y-116914990D01*
X108153200Y-116733561D01*
X108213676Y-116673085D01*
X108516057Y-115584514D02*
X109362723Y-115584514D01*
X108032247Y-115886895D02*
X108939390Y-116189276D01*
X108939390Y-115403085D01*
G04 #@! TO.C,J4*
X121986523Y-40047333D02*
X122893666Y-40047333D01*
X123075095Y-40107809D01*
X123196047Y-40228761D01*
X123256523Y-40410190D01*
X123256523Y-40531142D01*
X122409857Y-38898285D02*
X123256523Y-38898285D01*
X121926047Y-39200666D02*
X122833190Y-39503047D01*
X122833190Y-38716857D01*
G04 #@! TO.C,D6*
D19*
X122687228Y-150834285D02*
X122687228Y-150084285D01*
X122865800Y-150084285D01*
X122972942Y-150120000D01*
X123044371Y-150191428D01*
X123080085Y-150262857D01*
X123115800Y-150405714D01*
X123115800Y-150512857D01*
X123080085Y-150655714D01*
X123044371Y-150727142D01*
X122972942Y-150798571D01*
X122865800Y-150834285D01*
X122687228Y-150834285D01*
X123758657Y-150084285D02*
X123615800Y-150084285D01*
X123544371Y-150120000D01*
X123508657Y-150155714D01*
X123437228Y-150262857D01*
X123401514Y-150405714D01*
X123401514Y-150691428D01*
X123437228Y-150762857D01*
X123472942Y-150798571D01*
X123544371Y-150834285D01*
X123687228Y-150834285D01*
X123758657Y-150798571D01*
X123794371Y-150762857D01*
X123830085Y-150691428D01*
X123830085Y-150512857D01*
X123794371Y-150441428D01*
X123758657Y-150405714D01*
X123687228Y-150370000D01*
X123544371Y-150370000D01*
X123472942Y-150405714D01*
X123437228Y-150441428D01*
X123401514Y-150512857D01*
G04 #@! TO.C,D8*
D17*
X128395504Y-154935180D02*
X128395504Y-153935180D01*
X128633600Y-153935180D01*
X128776457Y-153982800D01*
X128871695Y-154078038D01*
X128919314Y-154173276D01*
X128966933Y-154363752D01*
X128966933Y-154506609D01*
X128919314Y-154697085D01*
X128871695Y-154792323D01*
X128776457Y-154887561D01*
X128633600Y-154935180D01*
X128395504Y-154935180D01*
X129538361Y-154363752D02*
X129443123Y-154316133D01*
X129395504Y-154268514D01*
X129347885Y-154173276D01*
X129347885Y-154125657D01*
X129395504Y-154030419D01*
X129443123Y-153982800D01*
X129538361Y-153935180D01*
X129728838Y-153935180D01*
X129824076Y-153982800D01*
X129871695Y-154030419D01*
X129919314Y-154125657D01*
X129919314Y-154173276D01*
X129871695Y-154268514D01*
X129824076Y-154316133D01*
X129728838Y-154363752D01*
X129538361Y-154363752D01*
X129443123Y-154411371D01*
X129395504Y-154458990D01*
X129347885Y-154554228D01*
X129347885Y-154744704D01*
X129395504Y-154839942D01*
X129443123Y-154887561D01*
X129538361Y-154935180D01*
X129728838Y-154935180D01*
X129824076Y-154887561D01*
X129871695Y-154839942D01*
X129919314Y-154744704D01*
X129919314Y-154554228D01*
X129871695Y-154458990D01*
X129824076Y-154411371D01*
X129728838Y-154363752D01*
G04 #@! TO.C,J3*
D14*
X107272666Y-38674523D02*
X107272666Y-39581666D01*
X107212190Y-39763095D01*
X107091238Y-39884047D01*
X106909809Y-39944523D01*
X106788857Y-39944523D01*
X107756476Y-38674523D02*
X108542666Y-38674523D01*
X108119333Y-39158333D01*
X108300761Y-39158333D01*
X108421714Y-39218809D01*
X108482190Y-39279285D01*
X108542666Y-39400238D01*
X108542666Y-39702619D01*
X108482190Y-39823571D01*
X108421714Y-39884047D01*
X108300761Y-39944523D01*
X107937904Y-39944523D01*
X107816952Y-39884047D01*
X107756476Y-39823571D01*
G04 #@! TO.C,JP1*
D17*
X134294666Y-68540380D02*
X134294666Y-69254666D01*
X134247047Y-69397523D01*
X134151809Y-69492761D01*
X134008952Y-69540380D01*
X133913714Y-69540380D01*
X134770857Y-69540380D02*
X134770857Y-68540380D01*
X135151809Y-68540380D01*
X135247047Y-68588000D01*
X135294666Y-68635619D01*
X135342285Y-68730857D01*
X135342285Y-68873714D01*
X135294666Y-68968952D01*
X135247047Y-69016571D01*
X135151809Y-69064190D01*
X134770857Y-69064190D01*
X136294666Y-69540380D02*
X135723238Y-69540380D01*
X136008952Y-69540380D02*
X136008952Y-68540380D01*
X135913714Y-68683238D01*
X135818476Y-68778476D01*
X135723238Y-68826095D01*
G04 #@! TO.C,JP2*
X134294666Y-58380380D02*
X134294666Y-59094666D01*
X134247047Y-59237523D01*
X134151809Y-59332761D01*
X134008952Y-59380380D01*
X133913714Y-59380380D01*
X134770857Y-59380380D02*
X134770857Y-58380380D01*
X135151809Y-58380380D01*
X135247047Y-58428000D01*
X135294666Y-58475619D01*
X135342285Y-58570857D01*
X135342285Y-58713714D01*
X135294666Y-58808952D01*
X135247047Y-58856571D01*
X135151809Y-58904190D01*
X134770857Y-58904190D01*
X135723238Y-58475619D02*
X135770857Y-58428000D01*
X135866095Y-58380380D01*
X136104190Y-58380380D01*
X136199428Y-58428000D01*
X136247047Y-58475619D01*
X136294666Y-58570857D01*
X136294666Y-58666095D01*
X136247047Y-58808952D01*
X135675619Y-59380380D01*
X136294666Y-59380380D01*
G04 #@! TO.C,C11*
X135637542Y-144965657D02*
X135685161Y-145013276D01*
X135732780Y-145156133D01*
X135732780Y-145251371D01*
X135685161Y-145394228D01*
X135589923Y-145489466D01*
X135494685Y-145537085D01*
X135304209Y-145584704D01*
X135161352Y-145584704D01*
X134970876Y-145537085D01*
X134875638Y-145489466D01*
X134780400Y-145394228D01*
X134732780Y-145251371D01*
X134732780Y-145156133D01*
X134780400Y-145013276D01*
X134828019Y-144965657D01*
X135732780Y-144013276D02*
X135732780Y-144584704D01*
X135732780Y-144298990D02*
X134732780Y-144298990D01*
X134875638Y-144394228D01*
X134970876Y-144489466D01*
X135018495Y-144584704D01*
X135732780Y-143060895D02*
X135732780Y-143632323D01*
X135732780Y-143346609D02*
X134732780Y-143346609D01*
X134875638Y-143441847D01*
X134970876Y-143537085D01*
X135018495Y-143632323D01*
G04 #@! TO.C,C12*
X116730542Y-142292342D02*
X116682923Y-142339961D01*
X116540066Y-142387580D01*
X116444828Y-142387580D01*
X116301971Y-142339961D01*
X116206733Y-142244723D01*
X116159114Y-142149485D01*
X116111495Y-141959009D01*
X116111495Y-141816152D01*
X116159114Y-141625676D01*
X116206733Y-141530438D01*
X116301971Y-141435200D01*
X116444828Y-141387580D01*
X116540066Y-141387580D01*
X116682923Y-141435200D01*
X116730542Y-141482819D01*
X117682923Y-142387580D02*
X117111495Y-142387580D01*
X117397209Y-142387580D02*
X117397209Y-141387580D01*
X117301971Y-141530438D01*
X117206733Y-141625676D01*
X117111495Y-141673295D01*
X118063876Y-141482819D02*
X118111495Y-141435200D01*
X118206733Y-141387580D01*
X118444828Y-141387580D01*
X118540066Y-141435200D01*
X118587685Y-141482819D01*
X118635304Y-141578057D01*
X118635304Y-141673295D01*
X118587685Y-141816152D01*
X118016257Y-142387580D01*
X118635304Y-142387580D01*
G04 #@! TO.C,C13*
X107011742Y-121597657D02*
X107059361Y-121645276D01*
X107106980Y-121788133D01*
X107106980Y-121883371D01*
X107059361Y-122026228D01*
X106964123Y-122121466D01*
X106868885Y-122169085D01*
X106678409Y-122216704D01*
X106535552Y-122216704D01*
X106345076Y-122169085D01*
X106249838Y-122121466D01*
X106154600Y-122026228D01*
X106106980Y-121883371D01*
X106106980Y-121788133D01*
X106154600Y-121645276D01*
X106202219Y-121597657D01*
X107106980Y-120645276D02*
X107106980Y-121216704D01*
X107106980Y-120930990D02*
X106106980Y-120930990D01*
X106249838Y-121026228D01*
X106345076Y-121121466D01*
X106392695Y-121216704D01*
X106106980Y-120311942D02*
X106106980Y-119692895D01*
X106487933Y-120026228D01*
X106487933Y-119883371D01*
X106535552Y-119788133D01*
X106583171Y-119740514D01*
X106678409Y-119692895D01*
X106916504Y-119692895D01*
X107011742Y-119740514D01*
X107059361Y-119788133D01*
X107106980Y-119883371D01*
X107106980Y-120169085D01*
X107059361Y-120264323D01*
X107011742Y-120311942D01*
G04 #@! TO.C,C19*
X104751142Y-67952857D02*
X104798761Y-68000476D01*
X104846380Y-68143333D01*
X104846380Y-68238571D01*
X104798761Y-68381428D01*
X104703523Y-68476666D01*
X104608285Y-68524285D01*
X104417809Y-68571904D01*
X104274952Y-68571904D01*
X104084476Y-68524285D01*
X103989238Y-68476666D01*
X103894000Y-68381428D01*
X103846380Y-68238571D01*
X103846380Y-68143333D01*
X103894000Y-68000476D01*
X103941619Y-67952857D01*
X104846380Y-67000476D02*
X104846380Y-67571904D01*
X104846380Y-67286190D02*
X103846380Y-67286190D01*
X103989238Y-67381428D01*
X104084476Y-67476666D01*
X104132095Y-67571904D01*
X104846380Y-66524285D02*
X104846380Y-66333809D01*
X104798761Y-66238571D01*
X104751142Y-66190952D01*
X104608285Y-66095714D01*
X104417809Y-66048095D01*
X104036857Y-66048095D01*
X103941619Y-66095714D01*
X103894000Y-66143333D01*
X103846380Y-66238571D01*
X103846380Y-66429047D01*
X103894000Y-66524285D01*
X103941619Y-66571904D01*
X104036857Y-66619523D01*
X104274952Y-66619523D01*
X104370190Y-66571904D01*
X104417809Y-66524285D01*
X104465428Y-66429047D01*
X104465428Y-66238571D01*
X104417809Y-66143333D01*
X104370190Y-66095714D01*
X104274952Y-66048095D01*
G04 #@! TO.C,C24*
X106529142Y-68178857D02*
X106576761Y-68226476D01*
X106624380Y-68369333D01*
X106624380Y-68464571D01*
X106576761Y-68607428D01*
X106481523Y-68702666D01*
X106386285Y-68750285D01*
X106195809Y-68797904D01*
X106052952Y-68797904D01*
X105862476Y-68750285D01*
X105767238Y-68702666D01*
X105672000Y-68607428D01*
X105624380Y-68464571D01*
X105624380Y-68369333D01*
X105672000Y-68226476D01*
X105719619Y-68178857D01*
X105719619Y-67797904D02*
X105672000Y-67750285D01*
X105624380Y-67655047D01*
X105624380Y-67416952D01*
X105672000Y-67321714D01*
X105719619Y-67274095D01*
X105814857Y-67226476D01*
X105910095Y-67226476D01*
X106052952Y-67274095D01*
X106624380Y-67845523D01*
X106624380Y-67226476D01*
X105957714Y-66369333D02*
X106624380Y-66369333D01*
X105576761Y-66607428D02*
X106291047Y-66845523D01*
X106291047Y-66226476D01*
G04 #@! TO.C,C27*
X107205542Y-72670942D02*
X107157923Y-72718561D01*
X107015066Y-72766180D01*
X106919828Y-72766180D01*
X106776971Y-72718561D01*
X106681733Y-72623323D01*
X106634114Y-72528085D01*
X106586495Y-72337609D01*
X106586495Y-72194752D01*
X106634114Y-72004276D01*
X106681733Y-71909038D01*
X106776971Y-71813800D01*
X106919828Y-71766180D01*
X107015066Y-71766180D01*
X107157923Y-71813800D01*
X107205542Y-71861419D01*
X107586495Y-71861419D02*
X107634114Y-71813800D01*
X107729352Y-71766180D01*
X107967447Y-71766180D01*
X108062685Y-71813800D01*
X108110304Y-71861419D01*
X108157923Y-71956657D01*
X108157923Y-72051895D01*
X108110304Y-72194752D01*
X107538876Y-72766180D01*
X108157923Y-72766180D01*
X108491257Y-71766180D02*
X109157923Y-71766180D01*
X108729352Y-72766180D01*
G04 #@! TO.C,L2*
X104592380Y-56046666D02*
X104592380Y-56522857D01*
X103592380Y-56522857D01*
X103687619Y-55760952D02*
X103640000Y-55713333D01*
X103592380Y-55618095D01*
X103592380Y-55380000D01*
X103640000Y-55284761D01*
X103687619Y-55237142D01*
X103782857Y-55189523D01*
X103878095Y-55189523D01*
X104020952Y-55237142D01*
X104592380Y-55808571D01*
X104592380Y-55189523D01*
G04 #@! TO.C,L3*
X106624380Y-56046666D02*
X106624380Y-56522857D01*
X105624380Y-56522857D01*
X105624380Y-55808571D02*
X105624380Y-55189523D01*
X106005333Y-55522857D01*
X106005333Y-55380000D01*
X106052952Y-55284761D01*
X106100571Y-55237142D01*
X106195809Y-55189523D01*
X106433904Y-55189523D01*
X106529142Y-55237142D01*
X106576761Y-55284761D01*
X106624380Y-55380000D01*
X106624380Y-55665714D01*
X106576761Y-55760952D01*
X106529142Y-55808571D01*
G04 #@! TO.C,J6*
X136318666Y-90892380D02*
X136318666Y-91606666D01*
X136271047Y-91749523D01*
X136175809Y-91844761D01*
X136032952Y-91892380D01*
X135937714Y-91892380D01*
X137223428Y-90892380D02*
X137032952Y-90892380D01*
X136937714Y-90940000D01*
X136890095Y-90987619D01*
X136794857Y-91130476D01*
X136747238Y-91320952D01*
X136747238Y-91701904D01*
X136794857Y-91797142D01*
X136842476Y-91844761D01*
X136937714Y-91892380D01*
X137128190Y-91892380D01*
X137223428Y-91844761D01*
X137271047Y-91797142D01*
X137318666Y-91701904D01*
X137318666Y-91463809D01*
X137271047Y-91368571D01*
X137223428Y-91320952D01*
X137128190Y-91273333D01*
X136937714Y-91273333D01*
X136842476Y-91320952D01*
X136794857Y-91368571D01*
X136747238Y-91463809D01*
G04 #@! TO.C,C1*
X119365733Y-153925542D02*
X119318114Y-153973161D01*
X119175257Y-154020780D01*
X119080019Y-154020780D01*
X118937161Y-153973161D01*
X118841923Y-153877923D01*
X118794304Y-153782685D01*
X118746685Y-153592209D01*
X118746685Y-153449352D01*
X118794304Y-153258876D01*
X118841923Y-153163638D01*
X118937161Y-153068400D01*
X119080019Y-153020780D01*
X119175257Y-153020780D01*
X119318114Y-153068400D01*
X119365733Y-153116019D01*
X120318114Y-154020780D02*
X119746685Y-154020780D01*
X120032400Y-154020780D02*
X120032400Y-153020780D01*
X119937161Y-153163638D01*
X119841923Y-153258876D01*
X119746685Y-153306495D01*
G04 #@! TO.C,C3*
D20*
X133528571Y-48597333D02*
X133552380Y-48621142D01*
X133576190Y-48692571D01*
X133576190Y-48740190D01*
X133552380Y-48811619D01*
X133504761Y-48859238D01*
X133457142Y-48883047D01*
X133361904Y-48906857D01*
X133290476Y-48906857D01*
X133195238Y-48883047D01*
X133147619Y-48859238D01*
X133100000Y-48811619D01*
X133076190Y-48740190D01*
X133076190Y-48692571D01*
X133100000Y-48621142D01*
X133123809Y-48597333D01*
X133076190Y-48430666D02*
X133076190Y-48121142D01*
X133266666Y-48287809D01*
X133266666Y-48216380D01*
X133290476Y-48168761D01*
X133314285Y-48144952D01*
X133361904Y-48121142D01*
X133480952Y-48121142D01*
X133528571Y-48144952D01*
X133552380Y-48168761D01*
X133576190Y-48216380D01*
X133576190Y-48359238D01*
X133552380Y-48406857D01*
X133528571Y-48430666D01*
G04 #@! TO.C,C9*
D17*
X111863142Y-150560066D02*
X111910761Y-150607685D01*
X111958380Y-150750542D01*
X111958380Y-150845780D01*
X111910761Y-150988638D01*
X111815523Y-151083876D01*
X111720285Y-151131495D01*
X111529809Y-151179114D01*
X111386952Y-151179114D01*
X111196476Y-151131495D01*
X111101238Y-151083876D01*
X111006000Y-150988638D01*
X110958380Y-150845780D01*
X110958380Y-150750542D01*
X111006000Y-150607685D01*
X111053619Y-150560066D01*
X111958380Y-150083876D02*
X111958380Y-149893400D01*
X111910761Y-149798161D01*
X111863142Y-149750542D01*
X111720285Y-149655304D01*
X111529809Y-149607685D01*
X111148857Y-149607685D01*
X111053619Y-149655304D01*
X111006000Y-149702923D01*
X110958380Y-149798161D01*
X110958380Y-149988638D01*
X111006000Y-150083876D01*
X111053619Y-150131495D01*
X111148857Y-150179114D01*
X111386952Y-150179114D01*
X111482190Y-150131495D01*
X111529809Y-150083876D01*
X111577428Y-149988638D01*
X111577428Y-149798161D01*
X111529809Y-149702923D01*
X111482190Y-149655304D01*
X111386952Y-149607685D01*
G04 #@! TO.C,C25*
X108815142Y-59062857D02*
X108862761Y-59110476D01*
X108910380Y-59253333D01*
X108910380Y-59348571D01*
X108862761Y-59491428D01*
X108767523Y-59586666D01*
X108672285Y-59634285D01*
X108481809Y-59681904D01*
X108338952Y-59681904D01*
X108148476Y-59634285D01*
X108053238Y-59586666D01*
X107958000Y-59491428D01*
X107910380Y-59348571D01*
X107910380Y-59253333D01*
X107958000Y-59110476D01*
X108005619Y-59062857D01*
X108005619Y-58681904D02*
X107958000Y-58634285D01*
X107910380Y-58539047D01*
X107910380Y-58300952D01*
X107958000Y-58205714D01*
X108005619Y-58158095D01*
X108100857Y-58110476D01*
X108196095Y-58110476D01*
X108338952Y-58158095D01*
X108910380Y-58729523D01*
X108910380Y-58110476D01*
X107910380Y-57205714D02*
X107910380Y-57681904D01*
X108386571Y-57729523D01*
X108338952Y-57681904D01*
X108291333Y-57586666D01*
X108291333Y-57348571D01*
X108338952Y-57253333D01*
X108386571Y-57205714D01*
X108481809Y-57158095D01*
X108719904Y-57158095D01*
X108815142Y-57205714D01*
X108862761Y-57253333D01*
X108910380Y-57348571D01*
X108910380Y-57586666D01*
X108862761Y-57681904D01*
X108815142Y-57729523D01*
G04 #@! TO.C,J2*
D14*
X117554666Y-44124523D02*
X117554666Y-45031666D01*
X117494190Y-45213095D01*
X117373238Y-45334047D01*
X117191809Y-45394523D01*
X117070857Y-45394523D01*
X118098952Y-44245476D02*
X118159428Y-44185000D01*
X118280380Y-44124523D01*
X118582761Y-44124523D01*
X118703714Y-44185000D01*
X118764190Y-44245476D01*
X118824666Y-44366428D01*
X118824666Y-44487380D01*
X118764190Y-44668809D01*
X118038476Y-45394523D01*
X118824666Y-45394523D01*
G04 #@! TO.C,R1*
D17*
X131013233Y-42942876D02*
X130679900Y-42466686D01*
X130441804Y-42942876D02*
X130441804Y-41942876D01*
X130822757Y-41942876D01*
X130917995Y-41990496D01*
X130965614Y-42038115D01*
X131013233Y-42133353D01*
X131013233Y-42276210D01*
X130965614Y-42371448D01*
X130917995Y-42419067D01*
X130822757Y-42466686D01*
X130441804Y-42466686D01*
X131965614Y-42942876D02*
X131394185Y-42942876D01*
X131679900Y-42942876D02*
X131679900Y-41942876D01*
X131584661Y-42085734D01*
X131489423Y-42180972D01*
X131394185Y-42228591D01*
G04 #@! TO.C,R2*
D20*
X133525390Y-46641533D02*
X133287295Y-46808200D01*
X133525390Y-46927247D02*
X133025390Y-46927247D01*
X133025390Y-46736771D01*
X133049200Y-46689152D01*
X133073009Y-46665342D01*
X133120628Y-46641533D01*
X133192057Y-46641533D01*
X133239676Y-46665342D01*
X133263485Y-46689152D01*
X133287295Y-46736771D01*
X133287295Y-46927247D01*
X133073009Y-46451057D02*
X133049200Y-46427247D01*
X133025390Y-46379628D01*
X133025390Y-46260580D01*
X133049200Y-46212961D01*
X133073009Y-46189152D01*
X133120628Y-46165342D01*
X133168247Y-46165342D01*
X133239676Y-46189152D01*
X133525390Y-46474866D01*
X133525390Y-46165342D01*
G04 #@! TO.C,R5*
D17*
X130398333Y-147898380D02*
X130065000Y-147422190D01*
X129826904Y-147898380D02*
X129826904Y-146898380D01*
X130207857Y-146898380D01*
X130303095Y-146946000D01*
X130350714Y-146993619D01*
X130398333Y-147088857D01*
X130398333Y-147231714D01*
X130350714Y-147326952D01*
X130303095Y-147374571D01*
X130207857Y-147422190D01*
X129826904Y-147422190D01*
X131303095Y-146898380D02*
X130826904Y-146898380D01*
X130779285Y-147374571D01*
X130826904Y-147326952D01*
X130922142Y-147279333D01*
X131160238Y-147279333D01*
X131255476Y-147326952D01*
X131303095Y-147374571D01*
X131350714Y-147469809D01*
X131350714Y-147707904D01*
X131303095Y-147803142D01*
X131255476Y-147850761D01*
X131160238Y-147898380D01*
X130922142Y-147898380D01*
X130826904Y-147850761D01*
X130779285Y-147803142D01*
G04 #@! TO.C,R6*
X129484380Y-133770666D02*
X129008190Y-134104000D01*
X129484380Y-134342095D02*
X128484380Y-134342095D01*
X128484380Y-133961142D01*
X128532000Y-133865904D01*
X128579619Y-133818285D01*
X128674857Y-133770666D01*
X128817714Y-133770666D01*
X128912952Y-133818285D01*
X128960571Y-133865904D01*
X129008190Y-133961142D01*
X129008190Y-134342095D01*
X128484380Y-132913523D02*
X128484380Y-133104000D01*
X128532000Y-133199238D01*
X128579619Y-133246857D01*
X128722476Y-133342095D01*
X128912952Y-133389714D01*
X129293904Y-133389714D01*
X129389142Y-133342095D01*
X129436761Y-133294476D01*
X129484380Y-133199238D01*
X129484380Y-133008761D01*
X129436761Y-132913523D01*
X129389142Y-132865904D01*
X129293904Y-132818285D01*
X129055809Y-132818285D01*
X128960571Y-132865904D01*
X128912952Y-132913523D01*
X128865333Y-133008761D01*
X128865333Y-133199238D01*
X128912952Y-133294476D01*
X128960571Y-133342095D01*
X129055809Y-133389714D01*
G04 #@! TO.C,R7*
X136342380Y-133516666D02*
X135866190Y-133850000D01*
X136342380Y-134088095D02*
X135342380Y-134088095D01*
X135342380Y-133707142D01*
X135390000Y-133611904D01*
X135437619Y-133564285D01*
X135532857Y-133516666D01*
X135675714Y-133516666D01*
X135770952Y-133564285D01*
X135818571Y-133611904D01*
X135866190Y-133707142D01*
X135866190Y-134088095D01*
X135342380Y-133183333D02*
X135342380Y-132516666D01*
X136342380Y-132945238D01*
G04 #@! TO.C,R8*
X131770380Y-133816166D02*
X131294190Y-134149500D01*
X131770380Y-134387595D02*
X130770380Y-134387595D01*
X130770380Y-134006642D01*
X130818000Y-133911404D01*
X130865619Y-133863785D01*
X130960857Y-133816166D01*
X131103714Y-133816166D01*
X131198952Y-133863785D01*
X131246571Y-133911404D01*
X131294190Y-134006642D01*
X131294190Y-134387595D01*
X131198952Y-133244738D02*
X131151333Y-133339976D01*
X131103714Y-133387595D01*
X131008476Y-133435214D01*
X130960857Y-133435214D01*
X130865619Y-133387595D01*
X130818000Y-133339976D01*
X130770380Y-133244738D01*
X130770380Y-133054261D01*
X130818000Y-132959023D01*
X130865619Y-132911404D01*
X130960857Y-132863785D01*
X131008476Y-132863785D01*
X131103714Y-132911404D01*
X131151333Y-132959023D01*
X131198952Y-133054261D01*
X131198952Y-133244738D01*
X131246571Y-133339976D01*
X131294190Y-133387595D01*
X131389428Y-133435214D01*
X131579904Y-133435214D01*
X131675142Y-133387595D01*
X131722761Y-133339976D01*
X131770380Y-133244738D01*
X131770380Y-133054261D01*
X131722761Y-132959023D01*
X131675142Y-132911404D01*
X131579904Y-132863785D01*
X131389428Y-132863785D01*
X131294190Y-132911404D01*
X131246571Y-132959023D01*
X131198952Y-133054261D01*
G04 #@! TO.C,R9*
X134310380Y-133816166D02*
X133834190Y-134149500D01*
X134310380Y-134387595D02*
X133310380Y-134387595D01*
X133310380Y-134006642D01*
X133358000Y-133911404D01*
X133405619Y-133863785D01*
X133500857Y-133816166D01*
X133643714Y-133816166D01*
X133738952Y-133863785D01*
X133786571Y-133911404D01*
X133834190Y-134006642D01*
X133834190Y-134387595D01*
X134310380Y-133339976D02*
X134310380Y-133149500D01*
X134262761Y-133054261D01*
X134215142Y-133006642D01*
X134072285Y-132911404D01*
X133881809Y-132863785D01*
X133500857Y-132863785D01*
X133405619Y-132911404D01*
X133358000Y-132959023D01*
X133310380Y-133054261D01*
X133310380Y-133244738D01*
X133358000Y-133339976D01*
X133405619Y-133387595D01*
X133500857Y-133435214D01*
X133738952Y-133435214D01*
X133834190Y-133387595D01*
X133881809Y-133339976D01*
X133929428Y-133244738D01*
X133929428Y-133054261D01*
X133881809Y-132959023D01*
X133834190Y-132911404D01*
X133738952Y-132863785D01*
G04 #@! TO.C,R10*
X111704380Y-58300857D02*
X111228190Y-58634190D01*
X111704380Y-58872285D02*
X110704380Y-58872285D01*
X110704380Y-58491333D01*
X110752000Y-58396095D01*
X110799619Y-58348476D01*
X110894857Y-58300857D01*
X111037714Y-58300857D01*
X111132952Y-58348476D01*
X111180571Y-58396095D01*
X111228190Y-58491333D01*
X111228190Y-58872285D01*
X111704380Y-57348476D02*
X111704380Y-57919904D01*
X111704380Y-57634190D02*
X110704380Y-57634190D01*
X110847238Y-57729428D01*
X110942476Y-57824666D01*
X110990095Y-57919904D01*
X110704380Y-56729428D02*
X110704380Y-56634190D01*
X110752000Y-56538952D01*
X110799619Y-56491333D01*
X110894857Y-56443714D01*
X111085333Y-56396095D01*
X111323428Y-56396095D01*
X111513904Y-56443714D01*
X111609142Y-56491333D01*
X111656761Y-56538952D01*
X111704380Y-56634190D01*
X111704380Y-56729428D01*
X111656761Y-56824666D01*
X111609142Y-56872285D01*
X111513904Y-56919904D01*
X111323428Y-56967523D01*
X111085333Y-56967523D01*
X110894857Y-56919904D01*
X110799619Y-56872285D01*
X110752000Y-56824666D01*
X110704380Y-56729428D01*
G04 #@! TO.C,R11*
X114936142Y-58872380D02*
X114602809Y-58396190D01*
X114364714Y-58872380D02*
X114364714Y-57872380D01*
X114745666Y-57872380D01*
X114840904Y-57920000D01*
X114888523Y-57967619D01*
X114936142Y-58062857D01*
X114936142Y-58205714D01*
X114888523Y-58300952D01*
X114840904Y-58348571D01*
X114745666Y-58396190D01*
X114364714Y-58396190D01*
X115888523Y-58872380D02*
X115317095Y-58872380D01*
X115602809Y-58872380D02*
X115602809Y-57872380D01*
X115507571Y-58015238D01*
X115412333Y-58110476D01*
X115317095Y-58158095D01*
X116840904Y-58872380D02*
X116269476Y-58872380D01*
X116555190Y-58872380D02*
X116555190Y-57872380D01*
X116459952Y-58015238D01*
X116364714Y-58110476D01*
X116269476Y-58158095D01*
G04 #@! TO.C,R13*
X117222142Y-64078380D02*
X116888809Y-63602190D01*
X116650714Y-64078380D02*
X116650714Y-63078380D01*
X117031666Y-63078380D01*
X117126904Y-63126000D01*
X117174523Y-63173619D01*
X117222142Y-63268857D01*
X117222142Y-63411714D01*
X117174523Y-63506952D01*
X117126904Y-63554571D01*
X117031666Y-63602190D01*
X116650714Y-63602190D01*
X118174523Y-64078380D02*
X117603095Y-64078380D01*
X117888809Y-64078380D02*
X117888809Y-63078380D01*
X117793571Y-63221238D01*
X117698333Y-63316476D01*
X117603095Y-63364095D01*
X118507857Y-63078380D02*
X119126904Y-63078380D01*
X118793571Y-63459333D01*
X118936428Y-63459333D01*
X119031666Y-63506952D01*
X119079285Y-63554571D01*
X119126904Y-63649809D01*
X119126904Y-63887904D01*
X119079285Y-63983142D01*
X119031666Y-64030761D01*
X118936428Y-64078380D01*
X118650714Y-64078380D01*
X118555476Y-64030761D01*
X118507857Y-63983142D01*
G04 #@! TO.C,R19*
X118359180Y-94572057D02*
X117882990Y-94905390D01*
X118359180Y-95143485D02*
X117359180Y-95143485D01*
X117359180Y-94762533D01*
X117406800Y-94667295D01*
X117454419Y-94619676D01*
X117549657Y-94572057D01*
X117692514Y-94572057D01*
X117787752Y-94619676D01*
X117835371Y-94667295D01*
X117882990Y-94762533D01*
X117882990Y-95143485D01*
X118359180Y-93619676D02*
X118359180Y-94191104D01*
X118359180Y-93905390D02*
X117359180Y-93905390D01*
X117502038Y-94000628D01*
X117597276Y-94095866D01*
X117644895Y-94191104D01*
X118359180Y-93143485D02*
X118359180Y-92953009D01*
X118311561Y-92857771D01*
X118263942Y-92810152D01*
X118121085Y-92714914D01*
X117930609Y-92667295D01*
X117549657Y-92667295D01*
X117454419Y-92714914D01*
X117406800Y-92762533D01*
X117359180Y-92857771D01*
X117359180Y-93048247D01*
X117406800Y-93143485D01*
X117454419Y-93191104D01*
X117549657Y-93238723D01*
X117787752Y-93238723D01*
X117882990Y-93191104D01*
X117930609Y-93143485D01*
X117978228Y-93048247D01*
X117978228Y-92857771D01*
X117930609Y-92762533D01*
X117882990Y-92714914D01*
X117787752Y-92667295D01*
G04 #@! TO.C,R21*
X111578380Y-113926857D02*
X111102190Y-114260190D01*
X111578380Y-114498285D02*
X110578380Y-114498285D01*
X110578380Y-114117333D01*
X110626000Y-114022095D01*
X110673619Y-113974476D01*
X110768857Y-113926857D01*
X110911714Y-113926857D01*
X111006952Y-113974476D01*
X111054571Y-114022095D01*
X111102190Y-114117333D01*
X111102190Y-114498285D01*
X110673619Y-113545904D02*
X110626000Y-113498285D01*
X110578380Y-113403047D01*
X110578380Y-113164952D01*
X110626000Y-113069714D01*
X110673619Y-113022095D01*
X110768857Y-112974476D01*
X110864095Y-112974476D01*
X111006952Y-113022095D01*
X111578380Y-113593523D01*
X111578380Y-112974476D01*
X111578380Y-112022095D02*
X111578380Y-112593523D01*
X111578380Y-112307809D02*
X110578380Y-112307809D01*
X110721238Y-112403047D01*
X110816476Y-112498285D01*
X110864095Y-112593523D01*
G04 #@! TO.C,R23*
X127072380Y-113926857D02*
X126596190Y-114260190D01*
X127072380Y-114498285D02*
X126072380Y-114498285D01*
X126072380Y-114117333D01*
X126120000Y-114022095D01*
X126167619Y-113974476D01*
X126262857Y-113926857D01*
X126405714Y-113926857D01*
X126500952Y-113974476D01*
X126548571Y-114022095D01*
X126596190Y-114117333D01*
X126596190Y-114498285D01*
X126167619Y-113545904D02*
X126120000Y-113498285D01*
X126072380Y-113403047D01*
X126072380Y-113164952D01*
X126120000Y-113069714D01*
X126167619Y-113022095D01*
X126262857Y-112974476D01*
X126358095Y-112974476D01*
X126500952Y-113022095D01*
X127072380Y-113593523D01*
X127072380Y-112974476D01*
X126072380Y-112641142D02*
X126072380Y-112022095D01*
X126453333Y-112355428D01*
X126453333Y-112212571D01*
X126500952Y-112117333D01*
X126548571Y-112069714D01*
X126643809Y-112022095D01*
X126881904Y-112022095D01*
X126977142Y-112069714D01*
X127024761Y-112117333D01*
X127072380Y-112212571D01*
X127072380Y-112498285D01*
X127024761Y-112593523D01*
X126977142Y-112641142D01*
G04 #@! TO.C,R25*
X122754380Y-113926857D02*
X122278190Y-114260190D01*
X122754380Y-114498285D02*
X121754380Y-114498285D01*
X121754380Y-114117333D01*
X121802000Y-114022095D01*
X121849619Y-113974476D01*
X121944857Y-113926857D01*
X122087714Y-113926857D01*
X122182952Y-113974476D01*
X122230571Y-114022095D01*
X122278190Y-114117333D01*
X122278190Y-114498285D01*
X121849619Y-113545904D02*
X121802000Y-113498285D01*
X121754380Y-113403047D01*
X121754380Y-113164952D01*
X121802000Y-113069714D01*
X121849619Y-113022095D01*
X121944857Y-112974476D01*
X122040095Y-112974476D01*
X122182952Y-113022095D01*
X122754380Y-113593523D01*
X122754380Y-112974476D01*
X121754380Y-112069714D02*
X121754380Y-112545904D01*
X122230571Y-112593523D01*
X122182952Y-112545904D01*
X122135333Y-112450666D01*
X122135333Y-112212571D01*
X122182952Y-112117333D01*
X122230571Y-112069714D01*
X122325809Y-112022095D01*
X122563904Y-112022095D01*
X122659142Y-112069714D01*
X122706761Y-112117333D01*
X122754380Y-112212571D01*
X122754380Y-112450666D01*
X122706761Y-112545904D01*
X122659142Y-112593523D01*
G04 #@! TO.C,R28*
X107818180Y-112021857D02*
X107341990Y-112355190D01*
X107818180Y-112593285D02*
X106818180Y-112593285D01*
X106818180Y-112212333D01*
X106865800Y-112117095D01*
X106913419Y-112069476D01*
X107008657Y-112021857D01*
X107151514Y-112021857D01*
X107246752Y-112069476D01*
X107294371Y-112117095D01*
X107341990Y-112212333D01*
X107341990Y-112593285D01*
X106913419Y-111640904D02*
X106865800Y-111593285D01*
X106818180Y-111498047D01*
X106818180Y-111259952D01*
X106865800Y-111164714D01*
X106913419Y-111117095D01*
X107008657Y-111069476D01*
X107103895Y-111069476D01*
X107246752Y-111117095D01*
X107818180Y-111688523D01*
X107818180Y-111069476D01*
X107246752Y-110498047D02*
X107199133Y-110593285D01*
X107151514Y-110640904D01*
X107056276Y-110688523D01*
X107008657Y-110688523D01*
X106913419Y-110640904D01*
X106865800Y-110593285D01*
X106818180Y-110498047D01*
X106818180Y-110307571D01*
X106865800Y-110212333D01*
X106913419Y-110164714D01*
X107008657Y-110117095D01*
X107056276Y-110117095D01*
X107151514Y-110164714D01*
X107199133Y-110212333D01*
X107246752Y-110307571D01*
X107246752Y-110498047D01*
X107294371Y-110593285D01*
X107341990Y-110640904D01*
X107437228Y-110688523D01*
X107627704Y-110688523D01*
X107722942Y-110640904D01*
X107770561Y-110593285D01*
X107818180Y-110498047D01*
X107818180Y-110307571D01*
X107770561Y-110212333D01*
X107722942Y-110164714D01*
X107627704Y-110117095D01*
X107437228Y-110117095D01*
X107341990Y-110164714D01*
X107294371Y-110212333D01*
X107246752Y-110307571D01*
G04 #@! TO.C,R29*
X115134380Y-113672857D02*
X114658190Y-114006190D01*
X115134380Y-114244285D02*
X114134380Y-114244285D01*
X114134380Y-113863333D01*
X114182000Y-113768095D01*
X114229619Y-113720476D01*
X114324857Y-113672857D01*
X114467714Y-113672857D01*
X114562952Y-113720476D01*
X114610571Y-113768095D01*
X114658190Y-113863333D01*
X114658190Y-114244285D01*
X114229619Y-113291904D02*
X114182000Y-113244285D01*
X114134380Y-113149047D01*
X114134380Y-112910952D01*
X114182000Y-112815714D01*
X114229619Y-112768095D01*
X114324857Y-112720476D01*
X114420095Y-112720476D01*
X114562952Y-112768095D01*
X115134380Y-113339523D01*
X115134380Y-112720476D01*
X115134380Y-112244285D02*
X115134380Y-112053809D01*
X115086761Y-111958571D01*
X115039142Y-111910952D01*
X114896285Y-111815714D01*
X114705809Y-111768095D01*
X114324857Y-111768095D01*
X114229619Y-111815714D01*
X114182000Y-111863333D01*
X114134380Y-111958571D01*
X114134380Y-112149047D01*
X114182000Y-112244285D01*
X114229619Y-112291904D01*
X114324857Y-112339523D01*
X114562952Y-112339523D01*
X114658190Y-112291904D01*
X114705809Y-112244285D01*
X114753428Y-112149047D01*
X114753428Y-111958571D01*
X114705809Y-111863333D01*
X114658190Y-111815714D01*
X114562952Y-111768095D01*
G04 #@! TO.C,R32*
X130628380Y-113926857D02*
X130152190Y-114260190D01*
X130628380Y-114498285D02*
X129628380Y-114498285D01*
X129628380Y-114117333D01*
X129676000Y-114022095D01*
X129723619Y-113974476D01*
X129818857Y-113926857D01*
X129961714Y-113926857D01*
X130056952Y-113974476D01*
X130104571Y-114022095D01*
X130152190Y-114117333D01*
X130152190Y-114498285D01*
X129628380Y-113593523D02*
X129628380Y-112974476D01*
X130009333Y-113307809D01*
X130009333Y-113164952D01*
X130056952Y-113069714D01*
X130104571Y-113022095D01*
X130199809Y-112974476D01*
X130437904Y-112974476D01*
X130533142Y-113022095D01*
X130580761Y-113069714D01*
X130628380Y-113164952D01*
X130628380Y-113450666D01*
X130580761Y-113545904D01*
X130533142Y-113593523D01*
X129723619Y-112593523D02*
X129676000Y-112545904D01*
X129628380Y-112450666D01*
X129628380Y-112212571D01*
X129676000Y-112117333D01*
X129723619Y-112069714D01*
X129818857Y-112022095D01*
X129914095Y-112022095D01*
X130056952Y-112069714D01*
X130628380Y-112641142D01*
X130628380Y-112022095D01*
G04 #@! TO.C,R33*
X119198380Y-113926857D02*
X118722190Y-114260190D01*
X119198380Y-114498285D02*
X118198380Y-114498285D01*
X118198380Y-114117333D01*
X118246000Y-114022095D01*
X118293619Y-113974476D01*
X118388857Y-113926857D01*
X118531714Y-113926857D01*
X118626952Y-113974476D01*
X118674571Y-114022095D01*
X118722190Y-114117333D01*
X118722190Y-114498285D01*
X118198380Y-113593523D02*
X118198380Y-112974476D01*
X118579333Y-113307809D01*
X118579333Y-113164952D01*
X118626952Y-113069714D01*
X118674571Y-113022095D01*
X118769809Y-112974476D01*
X119007904Y-112974476D01*
X119103142Y-113022095D01*
X119150761Y-113069714D01*
X119198380Y-113164952D01*
X119198380Y-113450666D01*
X119150761Y-113545904D01*
X119103142Y-113593523D01*
X118198380Y-112641142D02*
X118198380Y-112022095D01*
X118579333Y-112355428D01*
X118579333Y-112212571D01*
X118626952Y-112117333D01*
X118674571Y-112069714D01*
X118769809Y-112022095D01*
X119007904Y-112022095D01*
X119103142Y-112069714D01*
X119150761Y-112117333D01*
X119198380Y-112212571D01*
X119198380Y-112498285D01*
X119150761Y-112593523D01*
X119103142Y-112641142D01*
G04 #@! TO.C,R36*
X132004257Y-75574085D02*
X131754257Y-75216942D01*
X131575685Y-75574085D02*
X131575685Y-74824085D01*
X131861400Y-74824085D01*
X131932828Y-74859800D01*
X131968542Y-74895514D01*
X132004257Y-74966942D01*
X132004257Y-75074085D01*
X131968542Y-75145514D01*
X131932828Y-75181228D01*
X131861400Y-75216942D01*
X131575685Y-75216942D01*
X132254257Y-74824085D02*
X132718542Y-74824085D01*
X132468542Y-75109800D01*
X132575685Y-75109800D01*
X132647114Y-75145514D01*
X132682828Y-75181228D01*
X132718542Y-75252657D01*
X132718542Y-75431228D01*
X132682828Y-75502657D01*
X132647114Y-75538371D01*
X132575685Y-75574085D01*
X132361400Y-75574085D01*
X132289971Y-75538371D01*
X132254257Y-75502657D01*
X133361400Y-74824085D02*
X133218542Y-74824085D01*
X133147114Y-74859800D01*
X133111400Y-74895514D01*
X133039971Y-75002657D01*
X133004257Y-75145514D01*
X133004257Y-75431228D01*
X133039971Y-75502657D01*
X133075685Y-75538371D01*
X133147114Y-75574085D01*
X133289971Y-75574085D01*
X133361400Y-75538371D01*
X133397114Y-75502657D01*
X133432828Y-75431228D01*
X133432828Y-75252657D01*
X133397114Y-75181228D01*
X133361400Y-75145514D01*
X133289971Y-75109800D01*
X133147114Y-75109800D01*
X133075685Y-75145514D01*
X133039971Y-75181228D01*
X133004257Y-75252657D01*
G04 #@! TO.C,C4*
X124979133Y-145010142D02*
X124931514Y-145057761D01*
X124788657Y-145105380D01*
X124693419Y-145105380D01*
X124550561Y-145057761D01*
X124455323Y-144962523D01*
X124407704Y-144867285D01*
X124360085Y-144676809D01*
X124360085Y-144533952D01*
X124407704Y-144343476D01*
X124455323Y-144248238D01*
X124550561Y-144153000D01*
X124693419Y-144105380D01*
X124788657Y-144105380D01*
X124931514Y-144153000D01*
X124979133Y-144200619D01*
X125836276Y-144438714D02*
X125836276Y-145105380D01*
X125598180Y-144057761D02*
X125360085Y-144772047D01*
X125979133Y-144772047D01*
G04 #@! TO.C,C14*
X103903542Y-112802942D02*
X103855923Y-112850561D01*
X103713066Y-112898180D01*
X103617828Y-112898180D01*
X103474971Y-112850561D01*
X103379733Y-112755323D01*
X103332114Y-112660085D01*
X103284495Y-112469609D01*
X103284495Y-112326752D01*
X103332114Y-112136276D01*
X103379733Y-112041038D01*
X103474971Y-111945800D01*
X103617828Y-111898180D01*
X103713066Y-111898180D01*
X103855923Y-111945800D01*
X103903542Y-111993419D01*
X104855923Y-112898180D02*
X104284495Y-112898180D01*
X104570209Y-112898180D02*
X104570209Y-111898180D01*
X104474971Y-112041038D01*
X104379733Y-112136276D01*
X104284495Y-112183895D01*
X105713066Y-112231514D02*
X105713066Y-112898180D01*
X105474971Y-111850561D02*
X105236876Y-112564847D01*
X105855923Y-112564847D01*
G04 #@! TO.C,C15*
X125231142Y-140063457D02*
X125278761Y-140111076D01*
X125326380Y-140253933D01*
X125326380Y-140349171D01*
X125278761Y-140492028D01*
X125183523Y-140587266D01*
X125088285Y-140634885D01*
X124897809Y-140682504D01*
X124754952Y-140682504D01*
X124564476Y-140634885D01*
X124469238Y-140587266D01*
X124374000Y-140492028D01*
X124326380Y-140349171D01*
X124326380Y-140253933D01*
X124374000Y-140111076D01*
X124421619Y-140063457D01*
X125326380Y-139111076D02*
X125326380Y-139682504D01*
X125326380Y-139396790D02*
X124326380Y-139396790D01*
X124469238Y-139492028D01*
X124564476Y-139587266D01*
X124612095Y-139682504D01*
X124326380Y-138206314D02*
X124326380Y-138682504D01*
X124802571Y-138730123D01*
X124754952Y-138682504D01*
X124707333Y-138587266D01*
X124707333Y-138349171D01*
X124754952Y-138253933D01*
X124802571Y-138206314D01*
X124897809Y-138158695D01*
X125135904Y-138158695D01*
X125231142Y-138206314D01*
X125278761Y-138253933D01*
X125326380Y-138349171D01*
X125326380Y-138587266D01*
X125278761Y-138682504D01*
X125231142Y-138730123D01*
G04 #@! TO.C,C16*
D12*
X132444371Y-82449171D02*
X132420561Y-82472980D01*
X132349133Y-82496790D01*
X132301514Y-82496790D01*
X132230085Y-82472980D01*
X132182466Y-82425361D01*
X132158657Y-82377742D01*
X132134847Y-82282504D01*
X132134847Y-82211076D01*
X132158657Y-82115838D01*
X132182466Y-82068219D01*
X132230085Y-82020600D01*
X132301514Y-81996790D01*
X132349133Y-81996790D01*
X132420561Y-82020600D01*
X132444371Y-82044409D01*
X132920561Y-82496790D02*
X132634847Y-82496790D01*
X132777704Y-82496790D02*
X132777704Y-81996790D01*
X132730085Y-82068219D01*
X132682466Y-82115838D01*
X132634847Y-82139647D01*
X133349133Y-81996790D02*
X133253895Y-81996790D01*
X133206276Y-82020600D01*
X133182466Y-82044409D01*
X133134847Y-82115838D01*
X133111038Y-82211076D01*
X133111038Y-82401552D01*
X133134847Y-82449171D01*
X133158657Y-82472980D01*
X133206276Y-82496790D01*
X133301514Y-82496790D01*
X133349133Y-82472980D01*
X133372942Y-82449171D01*
X133396752Y-82401552D01*
X133396752Y-82282504D01*
X133372942Y-82234885D01*
X133349133Y-82211076D01*
X133301514Y-82187266D01*
X133206276Y-82187266D01*
X133158657Y-82211076D01*
X133134847Y-82234885D01*
X133111038Y-82282504D01*
G04 #@! TO.C,C22*
D17*
X129934857Y-83336942D02*
X129970571Y-83372657D01*
X130006285Y-83479800D01*
X130006285Y-83551228D01*
X129970571Y-83658371D01*
X129899142Y-83729800D01*
X129827714Y-83765514D01*
X129684857Y-83801228D01*
X129577714Y-83801228D01*
X129434857Y-83765514D01*
X129363428Y-83729800D01*
X129292000Y-83658371D01*
X129256285Y-83551228D01*
X129256285Y-83479800D01*
X129292000Y-83372657D01*
X129327714Y-83336942D01*
X129327714Y-83051228D02*
X129292000Y-83015514D01*
X129256285Y-82944085D01*
X129256285Y-82765514D01*
X129292000Y-82694085D01*
X129327714Y-82658371D01*
X129399142Y-82622657D01*
X129470571Y-82622657D01*
X129577714Y-82658371D01*
X130006285Y-83086942D01*
X130006285Y-82622657D01*
X129327714Y-82336942D02*
X129292000Y-82301228D01*
X129256285Y-82229800D01*
X129256285Y-82051228D01*
X129292000Y-81979800D01*
X129327714Y-81944085D01*
X129399142Y-81908371D01*
X129470571Y-81908371D01*
X129577714Y-81944085D01*
X130006285Y-82372657D01*
X130006285Y-81908371D01*
G04 #@! TO.C,R44*
X107815142Y-69794380D02*
X107481809Y-69318190D01*
X107243714Y-69794380D02*
X107243714Y-68794380D01*
X107624666Y-68794380D01*
X107719904Y-68842000D01*
X107767523Y-68889619D01*
X107815142Y-68984857D01*
X107815142Y-69127714D01*
X107767523Y-69222952D01*
X107719904Y-69270571D01*
X107624666Y-69318190D01*
X107243714Y-69318190D01*
X108672285Y-69127714D02*
X108672285Y-69794380D01*
X108434190Y-68746761D02*
X108196095Y-69461047D01*
X108815142Y-69461047D01*
X109624666Y-69127714D02*
X109624666Y-69794380D01*
X109386571Y-68746761D02*
X109148476Y-69461047D01*
X109767523Y-69461047D01*
G04 #@! TO.C,R45*
X111371142Y-69794380D02*
X111037809Y-69318190D01*
X110799714Y-69794380D02*
X110799714Y-68794380D01*
X111180666Y-68794380D01*
X111275904Y-68842000D01*
X111323523Y-68889619D01*
X111371142Y-68984857D01*
X111371142Y-69127714D01*
X111323523Y-69222952D01*
X111275904Y-69270571D01*
X111180666Y-69318190D01*
X110799714Y-69318190D01*
X112228285Y-69127714D02*
X112228285Y-69794380D01*
X111990190Y-68746761D02*
X111752095Y-69461047D01*
X112371142Y-69461047D01*
X113228285Y-68794380D02*
X112752095Y-68794380D01*
X112704476Y-69270571D01*
X112752095Y-69222952D01*
X112847333Y-69175333D01*
X113085428Y-69175333D01*
X113180666Y-69222952D01*
X113228285Y-69270571D01*
X113275904Y-69365809D01*
X113275904Y-69603904D01*
X113228285Y-69699142D01*
X113180666Y-69746761D01*
X113085428Y-69794380D01*
X112847333Y-69794380D01*
X112752095Y-69746761D01*
X112704476Y-69699142D01*
G04 #@! TO.C,R46*
X108306057Y-66734885D02*
X108056057Y-66377742D01*
X107877485Y-66734885D02*
X107877485Y-65984885D01*
X108163200Y-65984885D01*
X108234628Y-66020600D01*
X108270342Y-66056314D01*
X108306057Y-66127742D01*
X108306057Y-66234885D01*
X108270342Y-66306314D01*
X108234628Y-66342028D01*
X108163200Y-66377742D01*
X107877485Y-66377742D01*
X108948914Y-66234885D02*
X108948914Y-66734885D01*
X108770342Y-65949171D02*
X108591771Y-66484885D01*
X109056057Y-66484885D01*
X109663200Y-65984885D02*
X109520342Y-65984885D01*
X109448914Y-66020600D01*
X109413200Y-66056314D01*
X109341771Y-66163457D01*
X109306057Y-66306314D01*
X109306057Y-66592028D01*
X109341771Y-66663457D01*
X109377485Y-66699171D01*
X109448914Y-66734885D01*
X109591771Y-66734885D01*
X109663200Y-66699171D01*
X109698914Y-66663457D01*
X109734628Y-66592028D01*
X109734628Y-66413457D01*
X109698914Y-66342028D01*
X109663200Y-66306314D01*
X109591771Y-66270600D01*
X109448914Y-66270600D01*
X109377485Y-66306314D01*
X109341771Y-66342028D01*
X109306057Y-66413457D01*
G04 #@! TO.C,R47*
X113106657Y-63763085D02*
X112856657Y-63405942D01*
X112678085Y-63763085D02*
X112678085Y-63013085D01*
X112963800Y-63013085D01*
X113035228Y-63048800D01*
X113070942Y-63084514D01*
X113106657Y-63155942D01*
X113106657Y-63263085D01*
X113070942Y-63334514D01*
X113035228Y-63370228D01*
X112963800Y-63405942D01*
X112678085Y-63405942D01*
X113749514Y-63263085D02*
X113749514Y-63763085D01*
X113570942Y-62977371D02*
X113392371Y-63513085D01*
X113856657Y-63513085D01*
X114070942Y-63013085D02*
X114570942Y-63013085D01*
X114249514Y-63763085D01*
G04 #@! TO.C,R52*
X106370380Y-148293057D02*
X105894190Y-148626390D01*
X106370380Y-148864485D02*
X105370380Y-148864485D01*
X105370380Y-148483533D01*
X105418000Y-148388295D01*
X105465619Y-148340676D01*
X105560857Y-148293057D01*
X105703714Y-148293057D01*
X105798952Y-148340676D01*
X105846571Y-148388295D01*
X105894190Y-148483533D01*
X105894190Y-148864485D01*
X105370380Y-147388295D02*
X105370380Y-147864485D01*
X105846571Y-147912104D01*
X105798952Y-147864485D01*
X105751333Y-147769247D01*
X105751333Y-147531152D01*
X105798952Y-147435914D01*
X105846571Y-147388295D01*
X105941809Y-147340676D01*
X106179904Y-147340676D01*
X106275142Y-147388295D01*
X106322761Y-147435914D01*
X106370380Y-147531152D01*
X106370380Y-147769247D01*
X106322761Y-147864485D01*
X106275142Y-147912104D01*
X105465619Y-146959723D02*
X105418000Y-146912104D01*
X105370380Y-146816866D01*
X105370380Y-146578771D01*
X105418000Y-146483533D01*
X105465619Y-146435914D01*
X105560857Y-146388295D01*
X105656095Y-146388295D01*
X105798952Y-146435914D01*
X106370380Y-147007342D01*
X106370380Y-146388295D01*
G04 #@! TO.C,R53*
D12*
X128304171Y-85468590D02*
X128137504Y-85230495D01*
X128018457Y-85468590D02*
X128018457Y-84968590D01*
X128208933Y-84968590D01*
X128256552Y-84992400D01*
X128280361Y-85016209D01*
X128304171Y-85063828D01*
X128304171Y-85135257D01*
X128280361Y-85182876D01*
X128256552Y-85206685D01*
X128208933Y-85230495D01*
X128018457Y-85230495D01*
X128756552Y-84968590D02*
X128518457Y-84968590D01*
X128494647Y-85206685D01*
X128518457Y-85182876D01*
X128566076Y-85159066D01*
X128685123Y-85159066D01*
X128732742Y-85182876D01*
X128756552Y-85206685D01*
X128780361Y-85254304D01*
X128780361Y-85373352D01*
X128756552Y-85420971D01*
X128732742Y-85444780D01*
X128685123Y-85468590D01*
X128566076Y-85468590D01*
X128518457Y-85444780D01*
X128494647Y-85420971D01*
X128947028Y-84968590D02*
X129256552Y-84968590D01*
X129089885Y-85159066D01*
X129161314Y-85159066D01*
X129208933Y-85182876D01*
X129232742Y-85206685D01*
X129256552Y-85254304D01*
X129256552Y-85373352D01*
X129232742Y-85420971D01*
X129208933Y-85444780D01*
X129161314Y-85468590D01*
X129018457Y-85468590D01*
X128970838Y-85444780D01*
X128947028Y-85420971D01*
G04 #@! TO.C,R54*
D17*
X129779285Y-80469142D02*
X129422142Y-80719142D01*
X129779285Y-80897714D02*
X129029285Y-80897714D01*
X129029285Y-80612000D01*
X129065000Y-80540571D01*
X129100714Y-80504857D01*
X129172142Y-80469142D01*
X129279285Y-80469142D01*
X129350714Y-80504857D01*
X129386428Y-80540571D01*
X129422142Y-80612000D01*
X129422142Y-80897714D01*
X129029285Y-79790571D02*
X129029285Y-80147714D01*
X129386428Y-80183428D01*
X129350714Y-80147714D01*
X129315000Y-80076285D01*
X129315000Y-79897714D01*
X129350714Y-79826285D01*
X129386428Y-79790571D01*
X129457857Y-79754857D01*
X129636428Y-79754857D01*
X129707857Y-79790571D01*
X129743571Y-79826285D01*
X129779285Y-79897714D01*
X129779285Y-80076285D01*
X129743571Y-80147714D01*
X129707857Y-80183428D01*
X129279285Y-79112000D02*
X129779285Y-79112000D01*
X128993571Y-79290571D02*
X129529285Y-79469142D01*
X129529285Y-79004857D01*
G04 #@! TO.C,TP1*
X110625095Y-145248380D02*
X111196523Y-145248380D01*
X110910809Y-146248380D02*
X110910809Y-145248380D01*
X111529857Y-146248380D02*
X111529857Y-145248380D01*
X111910809Y-145248380D01*
X112006047Y-145296000D01*
X112053666Y-145343619D01*
X112101285Y-145438857D01*
X112101285Y-145581714D01*
X112053666Y-145676952D01*
X112006047Y-145724571D01*
X111910809Y-145772190D01*
X111529857Y-145772190D01*
X113053666Y-146248380D02*
X112482238Y-146248380D01*
X112767952Y-146248380D02*
X112767952Y-145248380D01*
X112672714Y-145391238D01*
X112577476Y-145486476D01*
X112482238Y-145534095D01*
G04 #@! TO.C,TP2*
X107069095Y-143825980D02*
X107640523Y-143825980D01*
X107354809Y-144825980D02*
X107354809Y-143825980D01*
X107973857Y-144825980D02*
X107973857Y-143825980D01*
X108354809Y-143825980D01*
X108450047Y-143873600D01*
X108497666Y-143921219D01*
X108545285Y-144016457D01*
X108545285Y-144159314D01*
X108497666Y-144254552D01*
X108450047Y-144302171D01*
X108354809Y-144349790D01*
X107973857Y-144349790D01*
X108926238Y-143921219D02*
X108973857Y-143873600D01*
X109069095Y-143825980D01*
X109307190Y-143825980D01*
X109402428Y-143873600D01*
X109450047Y-143921219D01*
X109497666Y-144016457D01*
X109497666Y-144111695D01*
X109450047Y-144254552D01*
X108878619Y-144825980D01*
X109497666Y-144825980D01*
G04 #@! TO.C,TP4*
X102878095Y-144562380D02*
X103449523Y-144562380D01*
X103163809Y-145562380D02*
X103163809Y-144562380D01*
X103782857Y-145562380D02*
X103782857Y-144562380D01*
X104163809Y-144562380D01*
X104259047Y-144610000D01*
X104306666Y-144657619D01*
X104354285Y-144752857D01*
X104354285Y-144895714D01*
X104306666Y-144990952D01*
X104259047Y-145038571D01*
X104163809Y-145086190D01*
X103782857Y-145086190D01*
X105211428Y-144895714D02*
X105211428Y-145562380D01*
X104973333Y-144514761D02*
X104735238Y-145229047D01*
X105354285Y-145229047D01*
G04 #@! TO.C,TP7*
X112657095Y-139380980D02*
X113228523Y-139380980D01*
X112942809Y-140380980D02*
X112942809Y-139380980D01*
X113561857Y-140380980D02*
X113561857Y-139380980D01*
X113942809Y-139380980D01*
X114038047Y-139428600D01*
X114085666Y-139476219D01*
X114133285Y-139571457D01*
X114133285Y-139714314D01*
X114085666Y-139809552D01*
X114038047Y-139857171D01*
X113942809Y-139904790D01*
X113561857Y-139904790D01*
X114466619Y-139380980D02*
X115133285Y-139380980D01*
X114704714Y-140380980D01*
G04 #@! TO.C,TP8*
X102420895Y-122210780D02*
X102992323Y-122210780D01*
X102706609Y-123210780D02*
X102706609Y-122210780D01*
X103325657Y-123210780D02*
X103325657Y-122210780D01*
X103706609Y-122210780D01*
X103801847Y-122258400D01*
X103849466Y-122306019D01*
X103897085Y-122401257D01*
X103897085Y-122544114D01*
X103849466Y-122639352D01*
X103801847Y-122686971D01*
X103706609Y-122734590D01*
X103325657Y-122734590D01*
X104468514Y-122639352D02*
X104373276Y-122591733D01*
X104325657Y-122544114D01*
X104278038Y-122448876D01*
X104278038Y-122401257D01*
X104325657Y-122306019D01*
X104373276Y-122258400D01*
X104468514Y-122210780D01*
X104658990Y-122210780D01*
X104754228Y-122258400D01*
X104801847Y-122306019D01*
X104849466Y-122401257D01*
X104849466Y-122448876D01*
X104801847Y-122544114D01*
X104754228Y-122591733D01*
X104658990Y-122639352D01*
X104468514Y-122639352D01*
X104373276Y-122686971D01*
X104325657Y-122734590D01*
X104278038Y-122829828D01*
X104278038Y-123020304D01*
X104325657Y-123115542D01*
X104373276Y-123163161D01*
X104468514Y-123210780D01*
X104658990Y-123210780D01*
X104754228Y-123163161D01*
X104801847Y-123115542D01*
X104849466Y-123020304D01*
X104849466Y-122829828D01*
X104801847Y-122734590D01*
X104754228Y-122686971D01*
X104658990Y-122639352D01*
G04 #@! TO.C,IC8*
D14*
X129073123Y-67787761D02*
X127803123Y-67787761D01*
X128952171Y-66457285D02*
X129012647Y-66517761D01*
X129073123Y-66699190D01*
X129073123Y-66820142D01*
X129012647Y-67001571D01*
X128891695Y-67122523D01*
X128770742Y-67183000D01*
X128528838Y-67243476D01*
X128347409Y-67243476D01*
X128105504Y-67183000D01*
X127984552Y-67122523D01*
X127863600Y-67001571D01*
X127803123Y-66820142D01*
X127803123Y-66699190D01*
X127863600Y-66517761D01*
X127924076Y-66457285D01*
X128347409Y-65731571D02*
X128286933Y-65852523D01*
X128226457Y-65913000D01*
X128105504Y-65973476D01*
X128045028Y-65973476D01*
X127924076Y-65913000D01*
X127863600Y-65852523D01*
X127803123Y-65731571D01*
X127803123Y-65489666D01*
X127863600Y-65368714D01*
X127924076Y-65308238D01*
X128045028Y-65247761D01*
X128105504Y-65247761D01*
X128226457Y-65308238D01*
X128286933Y-65368714D01*
X128347409Y-65489666D01*
X128347409Y-65731571D01*
X128407885Y-65852523D01*
X128468361Y-65913000D01*
X128589314Y-65973476D01*
X128831219Y-65973476D01*
X128952171Y-65913000D01*
X129012647Y-65852523D01*
X129073123Y-65731571D01*
X129073123Y-65489666D01*
X129012647Y-65368714D01*
X128952171Y-65308238D01*
X128831219Y-65247761D01*
X128589314Y-65247761D01*
X128468361Y-65308238D01*
X128407885Y-65368714D01*
X128347409Y-65489666D01*
G04 #@! TO.C,U1*
D17*
X115930995Y-145375380D02*
X115930995Y-146184904D01*
X115978614Y-146280142D01*
X116026233Y-146327761D01*
X116121471Y-146375380D01*
X116311947Y-146375380D01*
X116407185Y-146327761D01*
X116454804Y-146280142D01*
X116502423Y-146184904D01*
X116502423Y-145375380D01*
X117502423Y-146375380D02*
X116930995Y-146375380D01*
X117216709Y-146375380D02*
X117216709Y-145375380D01*
X117121471Y-145518238D01*
X117026233Y-145613476D01*
X116930995Y-145661095D01*
G04 #@! TO.C,U2*
D20*
X130312447Y-49494990D02*
X130312447Y-49899752D01*
X130336257Y-49947371D01*
X130360066Y-49971180D01*
X130407685Y-49994990D01*
X130502923Y-49994990D01*
X130550542Y-49971180D01*
X130574352Y-49947371D01*
X130598161Y-49899752D01*
X130598161Y-49494990D01*
X130812447Y-49542609D02*
X130836257Y-49518800D01*
X130883876Y-49494990D01*
X131002923Y-49494990D01*
X131050542Y-49518800D01*
X131074352Y-49542609D01*
X131098161Y-49590228D01*
X131098161Y-49637847D01*
X131074352Y-49709276D01*
X130788638Y-49994990D01*
X131098161Y-49994990D01*
G04 #@! TD*
M02*
