G04 #@! TF.GenerationSoftware,KiCad,Pcbnew,(5.0.2)-1*
G04 #@! TF.CreationDate,2020-11-24T18:05:24+01:00*
G04 #@! TF.ProjectId,PCB_BLUETOOTH_V3,5043425f-424c-4554-9554-4f4f54485f56,rev?*
G04 #@! TF.SameCoordinates,Original*
G04 #@! TF.FileFunction,Copper,L3,Inr*
G04 #@! TF.FilePolarity,Positive*
%FSLAX46Y46*%
G04 Gerber Fmt 4.6, Leading zero omitted, Abs format (unit mm)*
G04 Created by KiCad (PCBNEW (5.0.2)-1) date 24/11/2020 18:05:24*
%MOMM*%
%LPD*%
G01*
G04 APERTURE LIST*
G04 #@! TA.AperFunction,ViaPad*
%ADD10R,1.700000X1.700000*%
G04 #@! TD*
G04 #@! TA.AperFunction,ViaPad*
%ADD11O,1.700000X1.700000*%
G04 #@! TD*
G04 #@! TA.AperFunction,ViaPad*
%ADD12C,1.300000*%
G04 #@! TD*
G04 #@! TA.AperFunction,ViaPad*
%ADD13R,1.350000X1.350000*%
G04 #@! TD*
G04 #@! TA.AperFunction,ViaPad*
%ADD14C,1.350000*%
G04 #@! TD*
G04 #@! TA.AperFunction,ViaPad*
%ADD15C,1.500000*%
G04 #@! TD*
G04 #@! TA.AperFunction,ViaPad*
%ADD16C,1.860000*%
G04 #@! TD*
G04 #@! TA.AperFunction,ViaPad*
%ADD17C,1.725000*%
G04 #@! TD*
G04 #@! TA.AperFunction,ViaPad*
%ADD18C,1.950000*%
G04 #@! TD*
G04 #@! TA.AperFunction,ViaPad*
%ADD19C,2.250000*%
G04 #@! TD*
G04 #@! TA.AperFunction,ViaPad*
%ADD20C,2.400000*%
G04 #@! TD*
G04 #@! TA.AperFunction,ViaPad*
%ADD21C,0.700000*%
G04 #@! TD*
G04 #@! TA.AperFunction,Conductor*
%ADD22C,0.250000*%
G04 #@! TD*
G04 #@! TA.AperFunction,Conductor*
%ADD23C,0.254000*%
G04 #@! TD*
G04 APERTURE END LIST*
D10*
G04 #@! TO.N,UART_RX_2*
G04 #@! TO.C,JP3*
X123977400Y-99034600D03*
D11*
G04 #@! TO.N,UART_TX_2*
X123977400Y-101574600D03*
G04 #@! TD*
D12*
G04 #@! TO.N,V_LDO*
G04 #@! TO.C,S1*
X107442000Y-154508200D03*
G04 #@! TO.N,Net-(C1-Pad1)*
X109982000Y-154508200D03*
G04 #@! TO.N,Net-(S1-Pad3)*
X104902000Y-154508200D03*
G04 #@! TD*
D13*
G04 #@! TO.N,VBAT_IN*
G04 #@! TO.C,J5*
X106172000Y-141478000D03*
D14*
G04 #@! TO.N,BAT_TH*
X108672000Y-141478000D03*
G04 #@! TO.N,GND*
X111172000Y-141478000D03*
G04 #@! TD*
D11*
G04 #@! TO.N,UART_TX*
G04 #@! TO.C,J1*
X115062000Y-93980000D03*
G04 #@! TO.N,UART_RX*
X115062000Y-96520000D03*
G04 #@! TO.N,GND*
X115062000Y-99060000D03*
D10*
G04 #@! TO.N,Net-(J1-Pad1)*
X115062000Y-101600000D03*
G04 #@! TD*
G04 #@! TO.N,3V3*
G04 #@! TO.C,J9*
X135382000Y-39878000D03*
D11*
G04 #@! TO.N,SPI_MOSI*
X135382000Y-42418000D03*
G04 #@! TO.N,SPI_MISO*
X135382000Y-44958000D03*
G04 #@! TO.N,SPI_CLK*
X135382000Y-47498000D03*
G04 #@! TO.N,SPI_CS*
X135382000Y-50038000D03*
G04 #@! TO.N,GND*
X135382000Y-52578000D03*
G04 #@! TD*
D10*
G04 #@! TO.N,MCLR*
G04 #@! TO.C,JP4*
X105156000Y-94234000D03*
D11*
G04 #@! TO.N,Net-(C17-Pad1)*
X107696000Y-94234000D03*
G04 #@! TD*
G04 #@! TO.N,UART_RX*
G04 #@! TO.C,JP5*
X107696000Y-98044000D03*
D10*
G04 #@! TO.N,Net-(IC2-Pad44)*
X105156000Y-98044000D03*
G04 #@! TD*
D11*
G04 #@! TO.N,Net-(IC2-Pad1)*
G04 #@! TO.C,JP8*
X105156000Y-101854000D03*
D10*
G04 #@! TO.N,UART_TX*
X107696000Y-101854000D03*
G04 #@! TD*
D15*
G04 #@! TO.N,ROTARY_IN1*
G04 #@! TO.C,S2*
X128524000Y-102362000D03*
G04 #@! TO.N,ROTARY_IN2*
X133604000Y-94742000D03*
G04 #@! TO.N,PGC*
X133604000Y-102362000D03*
G04 #@! TO.N,PGD*
X128524000Y-94742000D03*
G04 #@! TO.N,3V3*
X131064000Y-102362000D03*
X131064000Y-94742000D03*
G04 #@! TD*
D16*
G04 #@! TO.N,Net-(J4-Pad1)*
G04 #@! TO.C,J4*
X118364000Y-44450000D03*
G04 #@! TO.N,Net-(J4-Pad2)*
X118364000Y-41950000D03*
G04 #@! TO.N,GND*
X118364000Y-39450000D03*
G04 #@! TD*
D17*
G04 #@! TO.N,N/C*
G04 #@! TO.C,J3*
X111646000Y-43124000D03*
X123946000Y-43124000D03*
D18*
G04 #@! TO.N,AUDIO_OUT_P_LEFT_MONO*
X114046000Y-46874000D03*
G04 #@! TO.N,Net-(J3-PadT1)*
X121546000Y-46874000D03*
D19*
G04 #@! TO.N,GND*
X114046000Y-39624000D03*
G04 #@! TD*
D11*
G04 #@! TO.N,Net-(JP1-Pad3)*
G04 #@! TO.C,JP1*
X135128000Y-71628000D03*
G04 #@! TO.N,AUDIO_ROUTING*
X135128000Y-74168000D03*
D10*
G04 #@! TO.N,Net-(JP1-Pad1)*
X135128000Y-76708000D03*
G04 #@! TD*
G04 #@! TO.N,Net-(JP2-Pad1)*
G04 #@! TO.C,JP2*
X135128000Y-61468000D03*
D11*
G04 #@! TO.N,AUDIO_MONO_STEREO*
X135128000Y-64008000D03*
G04 #@! TO.N,Net-(JP2-Pad3)*
X135128000Y-66548000D03*
G04 #@! TD*
D10*
G04 #@! TO.N,PGC*
G04 #@! TO.C,J6*
X135128000Y-90932000D03*
D11*
G04 #@! TO.N,PGD*
X135128000Y-88392000D03*
G04 #@! TO.N,GND*
X135128000Y-85852000D03*
G04 #@! TO.N,3V3*
X135128000Y-83312000D03*
G04 #@! TO.N,Net-(J6-Pad5)*
X135128000Y-80772000D03*
G04 #@! TD*
D20*
G04 #@! TO.N,Net-(J2-Pad1)*
G04 #@! TO.C,J2*
X109728000Y-52070000D03*
G04 #@! TO.N,GND*
X109728000Y-39470000D03*
G04 #@! TO.N,Net-(J2-Pad4)*
X126228000Y-52070000D03*
G04 #@! TO.N,Net-(J2-Pad6)*
X126228000Y-39470000D03*
G04 #@! TD*
D21*
G04 #@! TO.N,GND*
X126238000Y-145542000D03*
X103124000Y-63754000D03*
X109474000Y-62484000D03*
X107696000Y-76708000D03*
X116332000Y-73152000D03*
X106426000Y-70866000D03*
X114808000Y-65786000D03*
X123952000Y-58420000D03*
X124460000Y-54610000D03*
X129794000Y-79756000D03*
X127508000Y-88900000D03*
X127508000Y-85994010D03*
X132588000Y-59436000D03*
X134620000Y-78740000D03*
X129032000Y-59436000D03*
X129540000Y-83566000D03*
X116078000Y-86360000D03*
X103886000Y-73914000D03*
X130810000Y-74930000D03*
X112156432Y-76509994D03*
X113195824Y-151673995D03*
X116484400Y-148717000D03*
X117195600Y-154914600D03*
X132217000Y-144500600D03*
X104165400Y-152349200D03*
X108686600Y-147370800D03*
X133492000Y-45770800D03*
X132156200Y-51638200D03*
X125842000Y-65024000D03*
X125842000Y-66167000D03*
X124993400Y-58902600D03*
X124383800Y-76530200D03*
X117525800Y-138607800D03*
X121056400Y-141630400D03*
X121107200Y-137337800D03*
X122758200Y-141681200D03*
X103225600Y-116357400D03*
X107442000Y-116408200D03*
X104749600Y-119964200D03*
X106197400Y-112699800D03*
X122148600Y-68249800D03*
X112379873Y-83677873D03*
X110210600Y-91617800D03*
X111328200Y-91668600D03*
X115316000Y-79248000D03*
X111201200Y-80010000D03*
X123780462Y-64763738D03*
X107569000Y-107924600D03*
X111687446Y-108719516D03*
X115341400Y-107950000D03*
X130429000Y-107264200D03*
X122910600Y-108331000D03*
X118730000Y-108264220D03*
X126771400Y-107111800D03*
X122428000Y-147828000D03*
X131089400Y-153568400D03*
X127787400Y-150291800D03*
X133629400Y-48107600D03*
X112776000Y-71628000D03*
X130479800Y-89484200D03*
X131998995Y-150195005D03*
X133070600Y-147523200D03*
X131430000Y-85699600D03*
X110577390Y-87985600D03*
G04 #@! TO.N,Net-(IC2-Pad44)*
X118618000Y-81534000D03*
X110744000Y-81534000D03*
X104129610Y-91694000D03*
G04 #@! TO.N,3V3*
X120650000Y-67564000D03*
X132080001Y-64515999D03*
X133436480Y-43444280D03*
X129489200Y-50114200D03*
X120904000Y-94996000D03*
X130556000Y-69596000D03*
X126746000Y-58775600D03*
X127609600Y-61899800D03*
X129895600Y-80772000D03*
X117551200Y-140512800D03*
X120396000Y-69265800D03*
X123977400Y-68935601D03*
X107264200Y-90805000D03*
X113766600Y-79136000D03*
X107899200Y-118668800D03*
X115214400Y-146151600D03*
X125476000Y-91059000D03*
G04 #@! TO.N,Net-(C17-Pad1)*
X115570000Y-91694000D03*
G04 #@! TO.N,VUSB*
X119430800Y-149021800D03*
X133096000Y-73380600D03*
X130962400Y-128143000D03*
G04 #@! TO.N,Net-(IC2-Pad1)*
X118872000Y-82550000D03*
X105156000Y-89916000D03*
G04 #@! TO.N,G_7SEG*
X129540000Y-82296000D03*
X132842000Y-81280000D03*
G04 #@! TO.N,ROTARY_IN1*
X127538605Y-93563817D03*
G04 #@! TO.N,ROTARY_IN2*
X127254000Y-92710000D03*
G04 #@! TO.N,PGC*
X126166519Y-90481761D03*
G04 #@! TO.N,PGD*
X130301996Y-90932000D03*
G04 #@! TO.N,MCLR*
X119126000Y-88138000D03*
X122682000Y-83566000D03*
X121158000Y-93218000D03*
X129819400Y-84836000D03*
G04 #@! TO.N,DIG2_7SEG*
X117094000Y-85598000D03*
X112999999Y-87376000D03*
X105410000Y-121539000D03*
G04 #@! TO.N,DIG1_7SEG*
X114554000Y-87630000D03*
X119126000Y-84582000D03*
X115773200Y-137769600D03*
G04 #@! TO.N,A_7SEG*
X111506001Y-98806000D03*
X114300000Y-105410000D03*
G04 #@! TO.N,Net-(IC6-Pad4)*
X127762000Y-138938000D03*
X126441200Y-140385800D03*
G04 #@! TO.N,Net-(IC6-Pad5)*
X126746000Y-142494000D03*
X128270000Y-140208000D03*
G04 #@! TO.N,Net-(IC7-Pad36)*
X119380000Y-73152000D03*
G04 #@! TO.N,UART_TX*
X117094000Y-97282000D03*
X118364000Y-105156000D03*
G04 #@! TO.N,SPI_MISO*
X128019902Y-64008000D03*
X127000000Y-71770002D03*
G04 #@! TO.N,SPI_CLK*
X128524000Y-72136000D03*
G04 #@! TO.N,SPI_MOSI*
X126238004Y-70866000D03*
G04 #@! TO.N,SPI_CS*
X129032000Y-73152000D03*
G04 #@! TO.N,Net-(D1-Pad2)*
X128778000Y-133604000D03*
X128778000Y-122174000D03*
G04 #@! TO.N,Net-(D1-Pad1)*
X132842000Y-138938000D03*
X135636000Y-138963400D03*
G04 #@! TO.N,Net-(D2-Pad2)*
X130302000Y-125222000D03*
X130845235Y-134103072D03*
G04 #@! TO.N,V_LDO*
X124841000Y-151307800D03*
G04 #@! TO.N,SEG_G*
X131826000Y-119380000D03*
X131826000Y-116078000D03*
G04 #@! TO.N,SEG_D*
X113538000Y-131572000D03*
X116332000Y-115570000D03*
G04 #@! TO.N,SEG_E*
X118618000Y-116078000D03*
X115239800Y-131902200D03*
G04 #@! TO.N,SEG_C*
X119634000Y-126746000D03*
X122936000Y-115824000D03*
G04 #@! TO.N,SEG_B*
X122682000Y-125984000D03*
X128270000Y-116078000D03*
G04 #@! TO.N,BAT_TH*
X129540000Y-140833000D03*
X123901200Y-143357600D03*
G04 #@! TO.N,VBAT_IN*
X105664000Y-145288000D03*
X129082800Y-147167600D03*
X126441200Y-143764000D03*
X111226600Y-86944200D03*
G04 #@! TO.N,SDA*
X135636000Y-140970000D03*
X117205990Y-87884000D03*
X117205990Y-91694000D03*
X121208800Y-76758800D03*
X121412000Y-91836000D03*
G04 #@! TO.N,SCL*
X120142000Y-71882000D03*
X134366000Y-139700000D03*
X130810000Y-73406000D03*
G04 #@! TO.N,JACK_IN*
X128524000Y-54686200D03*
G04 #@! TO.N,RESET_WT32i*
X129666998Y-88493600D03*
G04 #@! TO.N,AUDIO_OUT_P_LEFT*
X105918000Y-71882000D03*
G04 #@! TO.N,AUDIO_IN_P_RIGHT*
X114808000Y-73152000D03*
G04 #@! TO.N,AUDIO_IN_N_RIGHT*
X112268000Y-72898000D03*
G04 #@! TO.N,AUDIO_OUT_P_RIGHT*
X108712000Y-73152000D03*
G04 #@! TO.N,Net-(J3-PadT1)*
X108712000Y-54356000D03*
X122936000Y-52832000D03*
G04 #@! TO.N,Net-(C27-Pad2)*
X111760000Y-66294000D03*
X109982000Y-72898000D03*
G04 #@! TO.N,Net-(C28-Pad1)*
X114808000Y-57404000D03*
X127508000Y-56388000D03*
X113537998Y-67818000D03*
G04 #@! TO.N,AUDIO_MONO_STEREO*
X131064000Y-67056000D03*
G04 #@! TO.N,AUDIO_ROUTING*
X131572000Y-74168000D03*
G04 #@! TO.N,Net-(J2-Pad1)*
X124968000Y-47244000D03*
G04 #@! TO.N,AUDIO_OUT_P_LEFT_MONO*
X125476000Y-45212000D03*
X112268000Y-47244000D03*
X108204000Y-47244000D03*
G04 #@! TO.N,Net-(C1-Pad1)*
X124714000Y-147320000D03*
X114249200Y-151917400D03*
G04 #@! TO.N,Net-(D9-Pad1)*
X115824000Y-69596000D03*
G04 #@! TO.N,/DIFF2+*
X103632000Y-60452000D03*
G04 #@! TO.N,UART_RX_2*
X120091200Y-87782400D03*
X122250200Y-76911200D03*
G04 #@! TO.N,UART_TX_2*
X123393200Y-77012800D03*
X125958600Y-92202000D03*
X123116000Y-88373412D03*
G04 #@! TO.N,Net-(Q6-Pad2)*
X133858000Y-107442000D03*
G04 #@! TO.N,Net-(Q7-Pad2)*
X122174000Y-107442000D03*
G04 #@! TO.N,Net-(Q5-Pad2)*
X118364000Y-107442000D03*
G04 #@! TO.N,Net-(Q4-Pad2)*
X107594400Y-106502200D03*
G04 #@! TO.N,Net-(Q3-Pad2)*
X125363611Y-106476800D03*
G04 #@! TO.N,Net-(Q2-Pad2)*
X128615092Y-108571417D03*
G04 #@! TO.N,Net-(Q1-Pad2)*
X114554000Y-107442000D03*
G04 #@! TD*
D22*
G04 #@! TO.N,3V3*
X120904000Y-94996000D02*
X120954800Y-95046800D01*
G04 #@! TD*
D23*
G04 #@! TO.N,3V3*
G36*
X108172362Y-38430556D02*
X107893000Y-39104996D01*
X107893000Y-39835004D01*
X108172362Y-40509444D01*
X108688556Y-41025638D01*
X109362996Y-41305000D01*
X110093004Y-41305000D01*
X110767444Y-41025638D01*
X111283638Y-40509444D01*
X111563000Y-39835004D01*
X111563000Y-39104996D01*
X111283638Y-38430556D01*
X111155082Y-38302000D01*
X112878984Y-38302000D01*
X112553944Y-38627040D01*
X112286000Y-39273914D01*
X112286000Y-39974086D01*
X112553944Y-40620960D01*
X113049040Y-41116056D01*
X113695914Y-41384000D01*
X114396086Y-41384000D01*
X115042960Y-41116056D01*
X115538056Y-40620960D01*
X115806000Y-39974086D01*
X115806000Y-39273914D01*
X115538056Y-38627040D01*
X115213016Y-38302000D01*
X117298756Y-38302000D01*
X117037257Y-38563499D01*
X116799000Y-39138702D01*
X116799000Y-39761298D01*
X117037257Y-40336501D01*
X117400756Y-40700000D01*
X117037257Y-41063499D01*
X116799000Y-41638702D01*
X116799000Y-42261298D01*
X117037257Y-42836501D01*
X117400756Y-43200000D01*
X117037257Y-43563499D01*
X116799000Y-44138702D01*
X116799000Y-44761298D01*
X117037257Y-45336501D01*
X117477499Y-45776743D01*
X118052702Y-46015000D01*
X118675298Y-46015000D01*
X119250501Y-45776743D01*
X119690743Y-45336501D01*
X119823469Y-45016071D01*
X124491000Y-45016071D01*
X124491000Y-45407929D01*
X124640958Y-45769958D01*
X124918042Y-46047042D01*
X125280071Y-46197000D01*
X125671929Y-46197000D01*
X126033958Y-46047042D01*
X126311042Y-45769958D01*
X126391850Y-45574871D01*
X132507000Y-45574871D01*
X132507000Y-45966729D01*
X132656958Y-46328758D01*
X132934042Y-46605842D01*
X133296071Y-46755800D01*
X133687929Y-46755800D01*
X134049958Y-46605842D01*
X134327042Y-46328758D01*
X134421016Y-46101885D01*
X134609761Y-46228000D01*
X134311375Y-46427375D01*
X133983161Y-46918582D01*
X133933654Y-47167470D01*
X133825329Y-47122600D01*
X133433471Y-47122600D01*
X133071442Y-47272558D01*
X132794358Y-47549642D01*
X132644400Y-47911671D01*
X132644400Y-48303529D01*
X132794358Y-48665558D01*
X133071442Y-48942642D01*
X133433471Y-49092600D01*
X133825329Y-49092600D01*
X134187358Y-48942642D01*
X134461239Y-48668761D01*
X134609761Y-48768000D01*
X134311375Y-48967375D01*
X133983161Y-49458582D01*
X133867908Y-50038000D01*
X133983161Y-50617418D01*
X134311375Y-51108625D01*
X134609761Y-51308000D01*
X134311375Y-51507375D01*
X133983161Y-51998582D01*
X133867908Y-52578000D01*
X133983161Y-53157418D01*
X134311375Y-53648625D01*
X134802582Y-53976839D01*
X135235744Y-54063000D01*
X135528256Y-54063000D01*
X135961418Y-53976839D01*
X136452625Y-53648625D01*
X136780839Y-53157418D01*
X136896092Y-52578000D01*
X136780839Y-51998582D01*
X136452625Y-51507375D01*
X136154239Y-51308000D01*
X136452625Y-51108625D01*
X136780839Y-50617418D01*
X136896092Y-50038000D01*
X136780839Y-49458582D01*
X136452625Y-48967375D01*
X136154239Y-48768000D01*
X136452625Y-48568625D01*
X136780839Y-48077418D01*
X136896092Y-47498000D01*
X136780839Y-46918582D01*
X136452625Y-46427375D01*
X136154239Y-46228000D01*
X136452625Y-46028625D01*
X136780839Y-45537418D01*
X136896092Y-44958000D01*
X136780839Y-44378582D01*
X136452625Y-43887375D01*
X136154239Y-43688000D01*
X136452625Y-43488625D01*
X136780839Y-42997418D01*
X136896092Y-42418000D01*
X136780839Y-41838582D01*
X136452625Y-41347375D01*
X136430967Y-41332904D01*
X136591698Y-41266327D01*
X136770327Y-41087699D01*
X136867000Y-40854310D01*
X136867000Y-40163750D01*
X136708250Y-40005000D01*
X135509000Y-40005000D01*
X135509000Y-40025000D01*
X135255000Y-40025000D01*
X135255000Y-40005000D01*
X134055750Y-40005000D01*
X133897000Y-40163750D01*
X133897000Y-40854310D01*
X133993673Y-41087699D01*
X134172302Y-41266327D01*
X134333033Y-41332904D01*
X134311375Y-41347375D01*
X133983161Y-41838582D01*
X133867908Y-42418000D01*
X133983161Y-42997418D01*
X134311375Y-43488625D01*
X134609761Y-43688000D01*
X134311375Y-43887375D01*
X133983161Y-44378582D01*
X133885853Y-44867783D01*
X133687929Y-44785800D01*
X133296071Y-44785800D01*
X132934042Y-44935758D01*
X132656958Y-45212842D01*
X132507000Y-45574871D01*
X126391850Y-45574871D01*
X126461000Y-45407929D01*
X126461000Y-45016071D01*
X126311042Y-44654042D01*
X126033958Y-44376958D01*
X125671929Y-44227000D01*
X125280071Y-44227000D01*
X124918042Y-44376958D01*
X124640958Y-44654042D01*
X124491000Y-45016071D01*
X119823469Y-45016071D01*
X119929000Y-44761298D01*
X119929000Y-44138702D01*
X119690743Y-43563499D01*
X119327244Y-43200000D01*
X119690743Y-42836501D01*
X119695039Y-42826129D01*
X122448500Y-42826129D01*
X122448500Y-43421871D01*
X122676481Y-43972266D01*
X123097734Y-44393519D01*
X123648129Y-44621500D01*
X124243871Y-44621500D01*
X124794266Y-44393519D01*
X125215519Y-43972266D01*
X125443500Y-43421871D01*
X125443500Y-42826129D01*
X125215519Y-42275734D01*
X124794266Y-41854481D01*
X124243871Y-41626500D01*
X123648129Y-41626500D01*
X123097734Y-41854481D01*
X122676481Y-42275734D01*
X122448500Y-42826129D01*
X119695039Y-42826129D01*
X119929000Y-42261298D01*
X119929000Y-41638702D01*
X119690743Y-41063499D01*
X119327244Y-40700000D01*
X119690743Y-40336501D01*
X119929000Y-39761298D01*
X119929000Y-39138702D01*
X119690743Y-38563499D01*
X119429244Y-38302000D01*
X124800918Y-38302000D01*
X124672362Y-38430556D01*
X124393000Y-39104996D01*
X124393000Y-39835004D01*
X124672362Y-40509444D01*
X125188556Y-41025638D01*
X125862996Y-41305000D01*
X126593004Y-41305000D01*
X127267444Y-41025638D01*
X127783638Y-40509444D01*
X128063000Y-39835004D01*
X128063000Y-39104996D01*
X127978788Y-38901690D01*
X133897000Y-38901690D01*
X133897000Y-39592250D01*
X134055750Y-39751000D01*
X135255000Y-39751000D01*
X135255000Y-38551750D01*
X135509000Y-38551750D01*
X135509000Y-39751000D01*
X136708250Y-39751000D01*
X136867000Y-39592250D01*
X136867000Y-38901690D01*
X136770327Y-38668301D01*
X136591698Y-38489673D01*
X136358309Y-38393000D01*
X135667750Y-38393000D01*
X135509000Y-38551750D01*
X135255000Y-38551750D01*
X135096250Y-38393000D01*
X134405691Y-38393000D01*
X134172302Y-38489673D01*
X133993673Y-38668301D01*
X133897000Y-38901690D01*
X127978788Y-38901690D01*
X127783638Y-38430556D01*
X127655082Y-38302000D01*
X136958000Y-38302000D01*
X136958001Y-155246000D01*
X118124486Y-155246000D01*
X118180600Y-155110529D01*
X118180600Y-154718671D01*
X118030642Y-154356642D01*
X117753558Y-154079558D01*
X117391529Y-153929600D01*
X116999671Y-153929600D01*
X116637642Y-154079558D01*
X116360558Y-154356642D01*
X116210600Y-154718671D01*
X116210600Y-155110529D01*
X116266714Y-155246000D01*
X111061465Y-155246000D01*
X111071371Y-155236094D01*
X111267000Y-154763802D01*
X111267000Y-154252598D01*
X111071371Y-153780306D01*
X110709894Y-153418829D01*
X110597976Y-153372471D01*
X130104400Y-153372471D01*
X130104400Y-153764329D01*
X130254358Y-154126358D01*
X130531442Y-154403442D01*
X130893471Y-154553400D01*
X131285329Y-154553400D01*
X131647358Y-154403442D01*
X131924442Y-154126358D01*
X132074400Y-153764329D01*
X132074400Y-153372471D01*
X131924442Y-153010442D01*
X131647358Y-152733358D01*
X131285329Y-152583400D01*
X130893471Y-152583400D01*
X130531442Y-152733358D01*
X130254358Y-153010442D01*
X130104400Y-153372471D01*
X110597976Y-153372471D01*
X110237602Y-153223200D01*
X109726398Y-153223200D01*
X109254106Y-153418829D01*
X108892629Y-153780306D01*
X108712000Y-154216385D01*
X108531371Y-153780306D01*
X108169894Y-153418829D01*
X107697602Y-153223200D01*
X107186398Y-153223200D01*
X106714106Y-153418829D01*
X106352629Y-153780306D01*
X106172000Y-154216385D01*
X105991371Y-153780306D01*
X105629894Y-153418829D01*
X105157602Y-153223200D01*
X104646398Y-153223200D01*
X104174106Y-153418829D01*
X103812629Y-153780306D01*
X103617000Y-154252598D01*
X103617000Y-154763802D01*
X103812629Y-155236094D01*
X103822535Y-155246000D01*
X102818000Y-155246000D01*
X102818000Y-152153271D01*
X103180400Y-152153271D01*
X103180400Y-152545129D01*
X103330358Y-152907158D01*
X103607442Y-153184242D01*
X103969471Y-153334200D01*
X104361329Y-153334200D01*
X104723358Y-153184242D01*
X105000442Y-152907158D01*
X105150400Y-152545129D01*
X105150400Y-152153271D01*
X105000442Y-151791242D01*
X104723358Y-151514158D01*
X104636225Y-151478066D01*
X112210824Y-151478066D01*
X112210824Y-151869924D01*
X112360782Y-152231953D01*
X112637866Y-152509037D01*
X112999895Y-152658995D01*
X113391753Y-152658995D01*
X113537447Y-152598647D01*
X113691242Y-152752442D01*
X114053271Y-152902400D01*
X114445129Y-152902400D01*
X114807158Y-152752442D01*
X115084242Y-152475358D01*
X115234200Y-152113329D01*
X115234200Y-151721471D01*
X115084242Y-151359442D01*
X114836671Y-151111871D01*
X123856000Y-151111871D01*
X123856000Y-151503729D01*
X124005958Y-151865758D01*
X124283042Y-152142842D01*
X124645071Y-152292800D01*
X125036929Y-152292800D01*
X125398958Y-152142842D01*
X125676042Y-151865758D01*
X125826000Y-151503729D01*
X125826000Y-151111871D01*
X125676042Y-150749842D01*
X125398958Y-150472758D01*
X125036929Y-150322800D01*
X124645071Y-150322800D01*
X124283042Y-150472758D01*
X124005958Y-150749842D01*
X123856000Y-151111871D01*
X114836671Y-151111871D01*
X114807158Y-151082358D01*
X114445129Y-150932400D01*
X114053271Y-150932400D01*
X113907577Y-150992748D01*
X113753782Y-150838953D01*
X113391753Y-150688995D01*
X112999895Y-150688995D01*
X112637866Y-150838953D01*
X112360782Y-151116037D01*
X112210824Y-151478066D01*
X104636225Y-151478066D01*
X104361329Y-151364200D01*
X103969471Y-151364200D01*
X103607442Y-151514158D01*
X103330358Y-151791242D01*
X103180400Y-152153271D01*
X102818000Y-152153271D01*
X102818000Y-150095871D01*
X126802400Y-150095871D01*
X126802400Y-150487729D01*
X126952358Y-150849758D01*
X127229442Y-151126842D01*
X127591471Y-151276800D01*
X127983329Y-151276800D01*
X128345358Y-151126842D01*
X128622442Y-150849758D01*
X128772400Y-150487729D01*
X128772400Y-150095871D01*
X128732307Y-149999076D01*
X131013995Y-149999076D01*
X131013995Y-150390934D01*
X131163953Y-150752963D01*
X131441037Y-151030047D01*
X131803066Y-151180005D01*
X132194924Y-151180005D01*
X132556953Y-151030047D01*
X132834037Y-150752963D01*
X132983995Y-150390934D01*
X132983995Y-149999076D01*
X132834037Y-149637047D01*
X132556953Y-149359963D01*
X132194924Y-149210005D01*
X131803066Y-149210005D01*
X131441037Y-149359963D01*
X131163953Y-149637047D01*
X131013995Y-149999076D01*
X128732307Y-149999076D01*
X128622442Y-149733842D01*
X128345358Y-149456758D01*
X127983329Y-149306800D01*
X127591471Y-149306800D01*
X127229442Y-149456758D01*
X126952358Y-149733842D01*
X126802400Y-150095871D01*
X102818000Y-150095871D01*
X102818000Y-148521071D01*
X115499400Y-148521071D01*
X115499400Y-148912929D01*
X115649358Y-149274958D01*
X115926442Y-149552042D01*
X116288471Y-149702000D01*
X116680329Y-149702000D01*
X117042358Y-149552042D01*
X117319442Y-149274958D01*
X117469400Y-148912929D01*
X117469400Y-148825871D01*
X118445800Y-148825871D01*
X118445800Y-149217729D01*
X118595758Y-149579758D01*
X118872842Y-149856842D01*
X119234871Y-150006800D01*
X119626729Y-150006800D01*
X119988758Y-149856842D01*
X120265842Y-149579758D01*
X120415800Y-149217729D01*
X120415800Y-148825871D01*
X120265842Y-148463842D01*
X119988758Y-148186758D01*
X119626729Y-148036800D01*
X119234871Y-148036800D01*
X118872842Y-148186758D01*
X118595758Y-148463842D01*
X118445800Y-148825871D01*
X117469400Y-148825871D01*
X117469400Y-148521071D01*
X117319442Y-148159042D01*
X117042358Y-147881958D01*
X116680329Y-147732000D01*
X116288471Y-147732000D01*
X115926442Y-147881958D01*
X115649358Y-148159042D01*
X115499400Y-148521071D01*
X102818000Y-148521071D01*
X102818000Y-147174871D01*
X107701600Y-147174871D01*
X107701600Y-147566729D01*
X107851558Y-147928758D01*
X108128642Y-148205842D01*
X108490671Y-148355800D01*
X108882529Y-148355800D01*
X109244558Y-148205842D01*
X109521642Y-147928758D01*
X109644534Y-147632071D01*
X121443000Y-147632071D01*
X121443000Y-148023929D01*
X121592958Y-148385958D01*
X121870042Y-148663042D01*
X122232071Y-148813000D01*
X122623929Y-148813000D01*
X122985958Y-148663042D01*
X123263042Y-148385958D01*
X123413000Y-148023929D01*
X123413000Y-147632071D01*
X123263042Y-147270042D01*
X123117071Y-147124071D01*
X123729000Y-147124071D01*
X123729000Y-147515929D01*
X123878958Y-147877958D01*
X124156042Y-148155042D01*
X124518071Y-148305000D01*
X124909929Y-148305000D01*
X125271958Y-148155042D01*
X125549042Y-147877958D01*
X125699000Y-147515929D01*
X125699000Y-147124071D01*
X125635874Y-146971671D01*
X128097800Y-146971671D01*
X128097800Y-147363529D01*
X128247758Y-147725558D01*
X128524842Y-148002642D01*
X128886871Y-148152600D01*
X129278729Y-148152600D01*
X129640758Y-148002642D01*
X129917842Y-147725558D01*
X130067800Y-147363529D01*
X130067800Y-147327271D01*
X132085600Y-147327271D01*
X132085600Y-147719129D01*
X132235558Y-148081158D01*
X132512642Y-148358242D01*
X132874671Y-148508200D01*
X133266529Y-148508200D01*
X133628558Y-148358242D01*
X133905642Y-148081158D01*
X134055600Y-147719129D01*
X134055600Y-147327271D01*
X133905642Y-146965242D01*
X133628558Y-146688158D01*
X133266529Y-146538200D01*
X132874671Y-146538200D01*
X132512642Y-146688158D01*
X132235558Y-146965242D01*
X132085600Y-147327271D01*
X130067800Y-147327271D01*
X130067800Y-146971671D01*
X129917842Y-146609642D01*
X129640758Y-146332558D01*
X129278729Y-146182600D01*
X128886871Y-146182600D01*
X128524842Y-146332558D01*
X128247758Y-146609642D01*
X128097800Y-146971671D01*
X125635874Y-146971671D01*
X125549042Y-146762042D01*
X125271958Y-146484958D01*
X124909929Y-146335000D01*
X124518071Y-146335000D01*
X124156042Y-146484958D01*
X123878958Y-146762042D01*
X123729000Y-147124071D01*
X123117071Y-147124071D01*
X122985958Y-146992958D01*
X122623929Y-146843000D01*
X122232071Y-146843000D01*
X121870042Y-146992958D01*
X121592958Y-147270042D01*
X121443000Y-147632071D01*
X109644534Y-147632071D01*
X109671600Y-147566729D01*
X109671600Y-147174871D01*
X109521642Y-146812842D01*
X109244558Y-146535758D01*
X108882529Y-146385800D01*
X108490671Y-146385800D01*
X108128642Y-146535758D01*
X107851558Y-146812842D01*
X107701600Y-147174871D01*
X102818000Y-147174871D01*
X102818000Y-145092071D01*
X104679000Y-145092071D01*
X104679000Y-145483929D01*
X104828958Y-145845958D01*
X105106042Y-146123042D01*
X105468071Y-146273000D01*
X105859929Y-146273000D01*
X106221958Y-146123042D01*
X106499042Y-145845958D01*
X106649000Y-145483929D01*
X106649000Y-145346071D01*
X125253000Y-145346071D01*
X125253000Y-145737929D01*
X125402958Y-146099958D01*
X125680042Y-146377042D01*
X126042071Y-146527000D01*
X126433929Y-146527000D01*
X126795958Y-146377042D01*
X127073042Y-146099958D01*
X127223000Y-145737929D01*
X127223000Y-145346071D01*
X127073042Y-144984042D01*
X126795958Y-144706958D01*
X126767292Y-144695084D01*
X126999158Y-144599042D01*
X127276242Y-144321958D01*
X127283402Y-144304671D01*
X131232000Y-144304671D01*
X131232000Y-144696529D01*
X131381958Y-145058558D01*
X131659042Y-145335642D01*
X132021071Y-145485600D01*
X132412929Y-145485600D01*
X132774958Y-145335642D01*
X133052042Y-145058558D01*
X133202000Y-144696529D01*
X133202000Y-144304671D01*
X133052042Y-143942642D01*
X132774958Y-143665558D01*
X132412929Y-143515600D01*
X132021071Y-143515600D01*
X131659042Y-143665558D01*
X131381958Y-143942642D01*
X131232000Y-144304671D01*
X127283402Y-144304671D01*
X127426200Y-143959929D01*
X127426200Y-143568071D01*
X127320386Y-143312614D01*
X127581042Y-143051958D01*
X127731000Y-142689929D01*
X127731000Y-142298071D01*
X127581042Y-141936042D01*
X127303958Y-141658958D01*
X126941929Y-141509000D01*
X126550071Y-141509000D01*
X126188042Y-141658958D01*
X125910958Y-141936042D01*
X125761000Y-142298071D01*
X125761000Y-142689929D01*
X125866814Y-142945386D01*
X125606158Y-143206042D01*
X125456200Y-143568071D01*
X125456200Y-143959929D01*
X125606158Y-144321958D01*
X125883242Y-144599042D01*
X125911908Y-144610916D01*
X125680042Y-144706958D01*
X125402958Y-144984042D01*
X125253000Y-145346071D01*
X106649000Y-145346071D01*
X106649000Y-145092071D01*
X106499042Y-144730042D01*
X106221958Y-144452958D01*
X105859929Y-144303000D01*
X105468071Y-144303000D01*
X105106042Y-144452958D01*
X104828958Y-144730042D01*
X104679000Y-145092071D01*
X102818000Y-145092071D01*
X102818000Y-143161671D01*
X122916200Y-143161671D01*
X122916200Y-143553529D01*
X123066158Y-143915558D01*
X123343242Y-144192642D01*
X123705271Y-144342600D01*
X124097129Y-144342600D01*
X124459158Y-144192642D01*
X124736242Y-143915558D01*
X124886200Y-143553529D01*
X124886200Y-143161671D01*
X124736242Y-142799642D01*
X124459158Y-142522558D01*
X124097129Y-142372600D01*
X123705271Y-142372600D01*
X123343242Y-142522558D01*
X123066158Y-142799642D01*
X122916200Y-143161671D01*
X102818000Y-143161671D01*
X102818000Y-140803000D01*
X104849560Y-140803000D01*
X104849560Y-142153000D01*
X104898843Y-142400765D01*
X105039191Y-142610809D01*
X105249235Y-142751157D01*
X105497000Y-142800440D01*
X106847000Y-142800440D01*
X107094765Y-142751157D01*
X107304809Y-142610809D01*
X107445157Y-142400765D01*
X107494440Y-142153000D01*
X107494440Y-142058313D01*
X107561436Y-142220055D01*
X107929945Y-142588564D01*
X108411425Y-142788000D01*
X108932575Y-142788000D01*
X109414055Y-142588564D01*
X109782564Y-142220055D01*
X109922000Y-141883427D01*
X110061436Y-142220055D01*
X110429945Y-142588564D01*
X110911425Y-142788000D01*
X111432575Y-142788000D01*
X111914055Y-142588564D01*
X112282564Y-142220055D01*
X112482000Y-141738575D01*
X112482000Y-141434471D01*
X120071400Y-141434471D01*
X120071400Y-141826329D01*
X120221358Y-142188358D01*
X120498442Y-142465442D01*
X120860471Y-142615400D01*
X121252329Y-142615400D01*
X121614358Y-142465442D01*
X121891442Y-142188358D01*
X121896779Y-142175474D01*
X121923158Y-142239158D01*
X122200242Y-142516242D01*
X122562271Y-142666200D01*
X122954129Y-142666200D01*
X123316158Y-142516242D01*
X123593242Y-142239158D01*
X123743200Y-141877129D01*
X123743200Y-141485271D01*
X123593242Y-141123242D01*
X123316158Y-140846158D01*
X122954129Y-140696200D01*
X122562271Y-140696200D01*
X122200242Y-140846158D01*
X121923158Y-141123242D01*
X121917821Y-141136126D01*
X121891442Y-141072442D01*
X121614358Y-140795358D01*
X121252329Y-140645400D01*
X120860471Y-140645400D01*
X120498442Y-140795358D01*
X120221358Y-141072442D01*
X120071400Y-141434471D01*
X112482000Y-141434471D01*
X112482000Y-141217425D01*
X112282564Y-140735945D01*
X111914055Y-140367436D01*
X111485377Y-140189871D01*
X125456200Y-140189871D01*
X125456200Y-140581729D01*
X125606158Y-140943758D01*
X125883242Y-141220842D01*
X126245271Y-141370800D01*
X126637129Y-141370800D01*
X126999158Y-141220842D01*
X127276242Y-140943758D01*
X127392424Y-140663272D01*
X127434958Y-140765958D01*
X127712042Y-141043042D01*
X128074071Y-141193000D01*
X128465929Y-141193000D01*
X128599964Y-141137481D01*
X128704958Y-141390958D01*
X128982042Y-141668042D01*
X129344071Y-141818000D01*
X129735929Y-141818000D01*
X130097958Y-141668042D01*
X130375042Y-141390958D01*
X130525000Y-141028929D01*
X130525000Y-140637071D01*
X130375042Y-140275042D01*
X130097958Y-139997958D01*
X129735929Y-139848000D01*
X129344071Y-139848000D01*
X129210036Y-139903519D01*
X129105042Y-139650042D01*
X128827958Y-139372958D01*
X128674346Y-139309330D01*
X128747000Y-139133929D01*
X128747000Y-138742071D01*
X131857000Y-138742071D01*
X131857000Y-139133929D01*
X132006958Y-139495958D01*
X132284042Y-139773042D01*
X132646071Y-139923000D01*
X133037929Y-139923000D01*
X133381000Y-139780895D01*
X133381000Y-139895929D01*
X133530958Y-140257958D01*
X133808042Y-140535042D01*
X134170071Y-140685000D01*
X134561929Y-140685000D01*
X134713983Y-140622017D01*
X134651000Y-140774071D01*
X134651000Y-141165929D01*
X134800958Y-141527958D01*
X135078042Y-141805042D01*
X135440071Y-141955000D01*
X135831929Y-141955000D01*
X136193958Y-141805042D01*
X136471042Y-141527958D01*
X136621000Y-141165929D01*
X136621000Y-140774071D01*
X136471042Y-140412042D01*
X136193958Y-140134958D01*
X135831929Y-139985000D01*
X135440071Y-139985000D01*
X135288017Y-140047983D01*
X135345493Y-139909224D01*
X135440071Y-139948400D01*
X135831929Y-139948400D01*
X136193958Y-139798442D01*
X136471042Y-139521358D01*
X136621000Y-139159329D01*
X136621000Y-138767471D01*
X136471042Y-138405442D01*
X136193958Y-138128358D01*
X135831929Y-137978400D01*
X135440071Y-137978400D01*
X135078042Y-138128358D01*
X134800958Y-138405442D01*
X134656507Y-138754176D01*
X134561929Y-138715000D01*
X134170071Y-138715000D01*
X133827000Y-138857105D01*
X133827000Y-138742071D01*
X133677042Y-138380042D01*
X133399958Y-138102958D01*
X133037929Y-137953000D01*
X132646071Y-137953000D01*
X132284042Y-138102958D01*
X132006958Y-138380042D01*
X131857000Y-138742071D01*
X128747000Y-138742071D01*
X128597042Y-138380042D01*
X128319958Y-138102958D01*
X127957929Y-137953000D01*
X127566071Y-137953000D01*
X127204042Y-138102958D01*
X126926958Y-138380042D01*
X126777000Y-138742071D01*
X126777000Y-139133929D01*
X126926958Y-139495958D01*
X126969454Y-139538454D01*
X126637129Y-139400800D01*
X126245271Y-139400800D01*
X125883242Y-139550758D01*
X125606158Y-139827842D01*
X125456200Y-140189871D01*
X111485377Y-140189871D01*
X111432575Y-140168000D01*
X110911425Y-140168000D01*
X110429945Y-140367436D01*
X110061436Y-140735945D01*
X109922000Y-141072573D01*
X109782564Y-140735945D01*
X109414055Y-140367436D01*
X108932575Y-140168000D01*
X108411425Y-140168000D01*
X107929945Y-140367436D01*
X107561436Y-140735945D01*
X107494440Y-140897687D01*
X107494440Y-140803000D01*
X107445157Y-140555235D01*
X107304809Y-140345191D01*
X107094765Y-140204843D01*
X106847000Y-140155560D01*
X105497000Y-140155560D01*
X105249235Y-140204843D01*
X105039191Y-140345191D01*
X104898843Y-140555235D01*
X104849560Y-140803000D01*
X102818000Y-140803000D01*
X102818000Y-137573671D01*
X114788200Y-137573671D01*
X114788200Y-137965529D01*
X114938158Y-138327558D01*
X115215242Y-138604642D01*
X115577271Y-138754600D01*
X115969129Y-138754600D01*
X116331158Y-138604642D01*
X116552730Y-138383070D01*
X116540800Y-138411871D01*
X116540800Y-138803729D01*
X116690758Y-139165758D01*
X116967842Y-139442842D01*
X117329871Y-139592800D01*
X117721729Y-139592800D01*
X118083758Y-139442842D01*
X118360842Y-139165758D01*
X118510800Y-138803729D01*
X118510800Y-138411871D01*
X118360842Y-138049842D01*
X118083758Y-137772758D01*
X117721729Y-137622800D01*
X117329871Y-137622800D01*
X116967842Y-137772758D01*
X116746270Y-137994330D01*
X116758200Y-137965529D01*
X116758200Y-137573671D01*
X116608242Y-137211642D01*
X116538471Y-137141871D01*
X120122200Y-137141871D01*
X120122200Y-137533729D01*
X120272158Y-137895758D01*
X120549242Y-138172842D01*
X120911271Y-138322800D01*
X121303129Y-138322800D01*
X121665158Y-138172842D01*
X121942242Y-137895758D01*
X122092200Y-137533729D01*
X122092200Y-137141871D01*
X121942242Y-136779842D01*
X121665158Y-136502758D01*
X121303129Y-136352800D01*
X120911271Y-136352800D01*
X120549242Y-136502758D01*
X120272158Y-136779842D01*
X120122200Y-137141871D01*
X116538471Y-137141871D01*
X116331158Y-136934558D01*
X115969129Y-136784600D01*
X115577271Y-136784600D01*
X115215242Y-136934558D01*
X114938158Y-137211642D01*
X114788200Y-137573671D01*
X102818000Y-137573671D01*
X102818000Y-133408071D01*
X127793000Y-133408071D01*
X127793000Y-133799929D01*
X127942958Y-134161958D01*
X128220042Y-134439042D01*
X128582071Y-134589000D01*
X128973929Y-134589000D01*
X129335958Y-134439042D01*
X129613042Y-134161958D01*
X129718590Y-133907143D01*
X129860235Y-133907143D01*
X129860235Y-134299001D01*
X130010193Y-134661030D01*
X130287277Y-134938114D01*
X130649306Y-135088072D01*
X131041164Y-135088072D01*
X131403193Y-134938114D01*
X131680277Y-134661030D01*
X131830235Y-134299001D01*
X131830235Y-133907143D01*
X131680277Y-133545114D01*
X131403193Y-133268030D01*
X131041164Y-133118072D01*
X130649306Y-133118072D01*
X130287277Y-133268030D01*
X130010193Y-133545114D01*
X129860235Y-133907143D01*
X129718590Y-133907143D01*
X129763000Y-133799929D01*
X129763000Y-133408071D01*
X129613042Y-133046042D01*
X129335958Y-132768958D01*
X128973929Y-132619000D01*
X128582071Y-132619000D01*
X128220042Y-132768958D01*
X127942958Y-133046042D01*
X127793000Y-133408071D01*
X102818000Y-133408071D01*
X102818000Y-131376071D01*
X112553000Y-131376071D01*
X112553000Y-131767929D01*
X112702958Y-132129958D01*
X112980042Y-132407042D01*
X113342071Y-132557000D01*
X113733929Y-132557000D01*
X114095958Y-132407042D01*
X114298755Y-132204245D01*
X114404758Y-132460158D01*
X114681842Y-132737242D01*
X115043871Y-132887200D01*
X115435729Y-132887200D01*
X115797758Y-132737242D01*
X116074842Y-132460158D01*
X116224800Y-132098129D01*
X116224800Y-131706271D01*
X116074842Y-131344242D01*
X115797758Y-131067158D01*
X115435729Y-130917200D01*
X115043871Y-130917200D01*
X114681842Y-131067158D01*
X114479045Y-131269955D01*
X114373042Y-131014042D01*
X114095958Y-130736958D01*
X113733929Y-130587000D01*
X113342071Y-130587000D01*
X112980042Y-130736958D01*
X112702958Y-131014042D01*
X112553000Y-131376071D01*
X102818000Y-131376071D01*
X102818000Y-127947071D01*
X129977400Y-127947071D01*
X129977400Y-128338929D01*
X130127358Y-128700958D01*
X130404442Y-128978042D01*
X130766471Y-129128000D01*
X131158329Y-129128000D01*
X131520358Y-128978042D01*
X131797442Y-128700958D01*
X131947400Y-128338929D01*
X131947400Y-127947071D01*
X131797442Y-127585042D01*
X131520358Y-127307958D01*
X131158329Y-127158000D01*
X130766471Y-127158000D01*
X130404442Y-127307958D01*
X130127358Y-127585042D01*
X129977400Y-127947071D01*
X102818000Y-127947071D01*
X102818000Y-126550071D01*
X118649000Y-126550071D01*
X118649000Y-126941929D01*
X118798958Y-127303958D01*
X119076042Y-127581042D01*
X119438071Y-127731000D01*
X119829929Y-127731000D01*
X120191958Y-127581042D01*
X120469042Y-127303958D01*
X120619000Y-126941929D01*
X120619000Y-126550071D01*
X120469042Y-126188042D01*
X120191958Y-125910958D01*
X119895284Y-125788071D01*
X121697000Y-125788071D01*
X121697000Y-126179929D01*
X121846958Y-126541958D01*
X122124042Y-126819042D01*
X122486071Y-126969000D01*
X122877929Y-126969000D01*
X123239958Y-126819042D01*
X123517042Y-126541958D01*
X123667000Y-126179929D01*
X123667000Y-125788071D01*
X123517042Y-125426042D01*
X123239958Y-125148958D01*
X122943284Y-125026071D01*
X129317000Y-125026071D01*
X129317000Y-125417929D01*
X129466958Y-125779958D01*
X129744042Y-126057042D01*
X130106071Y-126207000D01*
X130497929Y-126207000D01*
X130859958Y-126057042D01*
X131137042Y-125779958D01*
X131287000Y-125417929D01*
X131287000Y-125026071D01*
X131137042Y-124664042D01*
X130859958Y-124386958D01*
X130497929Y-124237000D01*
X130106071Y-124237000D01*
X129744042Y-124386958D01*
X129466958Y-124664042D01*
X129317000Y-125026071D01*
X122943284Y-125026071D01*
X122877929Y-124999000D01*
X122486071Y-124999000D01*
X122124042Y-125148958D01*
X121846958Y-125426042D01*
X121697000Y-125788071D01*
X119895284Y-125788071D01*
X119829929Y-125761000D01*
X119438071Y-125761000D01*
X119076042Y-125910958D01*
X118798958Y-126188042D01*
X118649000Y-126550071D01*
X102818000Y-126550071D01*
X102818000Y-119768271D01*
X103764600Y-119768271D01*
X103764600Y-120160129D01*
X103914558Y-120522158D01*
X104191642Y-120799242D01*
X104553671Y-120949200D01*
X104606800Y-120949200D01*
X104574958Y-120981042D01*
X104425000Y-121343071D01*
X104425000Y-121734929D01*
X104574958Y-122096958D01*
X104852042Y-122374042D01*
X105214071Y-122524000D01*
X105605929Y-122524000D01*
X105967958Y-122374042D01*
X106245042Y-122096958D01*
X106294286Y-121978071D01*
X127793000Y-121978071D01*
X127793000Y-122369929D01*
X127942958Y-122731958D01*
X128220042Y-123009042D01*
X128582071Y-123159000D01*
X128973929Y-123159000D01*
X129335958Y-123009042D01*
X129613042Y-122731958D01*
X129763000Y-122369929D01*
X129763000Y-121978071D01*
X129613042Y-121616042D01*
X129335958Y-121338958D01*
X128973929Y-121189000D01*
X128582071Y-121189000D01*
X128220042Y-121338958D01*
X127942958Y-121616042D01*
X127793000Y-121978071D01*
X106294286Y-121978071D01*
X106395000Y-121734929D01*
X106395000Y-121343071D01*
X106245042Y-120981042D01*
X105967958Y-120703958D01*
X105605929Y-120554000D01*
X105552800Y-120554000D01*
X105584642Y-120522158D01*
X105734600Y-120160129D01*
X105734600Y-119768271D01*
X105584642Y-119406242D01*
X105362471Y-119184071D01*
X130841000Y-119184071D01*
X130841000Y-119575929D01*
X130990958Y-119937958D01*
X131268042Y-120215042D01*
X131630071Y-120365000D01*
X132021929Y-120365000D01*
X132383958Y-120215042D01*
X132661042Y-119937958D01*
X132811000Y-119575929D01*
X132811000Y-119184071D01*
X132661042Y-118822042D01*
X132383958Y-118544958D01*
X132021929Y-118395000D01*
X131630071Y-118395000D01*
X131268042Y-118544958D01*
X130990958Y-118822042D01*
X130841000Y-119184071D01*
X105362471Y-119184071D01*
X105307558Y-119129158D01*
X104945529Y-118979200D01*
X104553671Y-118979200D01*
X104191642Y-119129158D01*
X103914558Y-119406242D01*
X103764600Y-119768271D01*
X102818000Y-119768271D01*
X102818000Y-117254723D01*
X103029671Y-117342400D01*
X103421529Y-117342400D01*
X103783558Y-117192442D01*
X104060642Y-116915358D01*
X104210600Y-116553329D01*
X104210600Y-116212271D01*
X106457000Y-116212271D01*
X106457000Y-116604129D01*
X106606958Y-116966158D01*
X106884042Y-117243242D01*
X107246071Y-117393200D01*
X107637929Y-117393200D01*
X107999958Y-117243242D01*
X108277042Y-116966158D01*
X108427000Y-116604129D01*
X108427000Y-116212271D01*
X108277042Y-115850242D01*
X107999958Y-115573158D01*
X107637929Y-115423200D01*
X107246071Y-115423200D01*
X106884042Y-115573158D01*
X106606958Y-115850242D01*
X106457000Y-116212271D01*
X104210600Y-116212271D01*
X104210600Y-116161471D01*
X104060642Y-115799442D01*
X103783558Y-115522358D01*
X103425564Y-115374071D01*
X115347000Y-115374071D01*
X115347000Y-115765929D01*
X115496958Y-116127958D01*
X115774042Y-116405042D01*
X116136071Y-116555000D01*
X116527929Y-116555000D01*
X116889958Y-116405042D01*
X117167042Y-116127958D01*
X117268892Y-115882071D01*
X117633000Y-115882071D01*
X117633000Y-116273929D01*
X117782958Y-116635958D01*
X118060042Y-116913042D01*
X118422071Y-117063000D01*
X118813929Y-117063000D01*
X119175958Y-116913042D01*
X119453042Y-116635958D01*
X119603000Y-116273929D01*
X119603000Y-115882071D01*
X119497790Y-115628071D01*
X121951000Y-115628071D01*
X121951000Y-116019929D01*
X122100958Y-116381958D01*
X122378042Y-116659042D01*
X122740071Y-116809000D01*
X123131929Y-116809000D01*
X123493958Y-116659042D01*
X123771042Y-116381958D01*
X123921000Y-116019929D01*
X123921000Y-115882071D01*
X127285000Y-115882071D01*
X127285000Y-116273929D01*
X127434958Y-116635958D01*
X127712042Y-116913042D01*
X128074071Y-117063000D01*
X128465929Y-117063000D01*
X128827958Y-116913042D01*
X129105042Y-116635958D01*
X129255000Y-116273929D01*
X129255000Y-115882071D01*
X130841000Y-115882071D01*
X130841000Y-116273929D01*
X130990958Y-116635958D01*
X131268042Y-116913042D01*
X131630071Y-117063000D01*
X132021929Y-117063000D01*
X132383958Y-116913042D01*
X132661042Y-116635958D01*
X132811000Y-116273929D01*
X132811000Y-115882071D01*
X132661042Y-115520042D01*
X132383958Y-115242958D01*
X132021929Y-115093000D01*
X131630071Y-115093000D01*
X131268042Y-115242958D01*
X130990958Y-115520042D01*
X130841000Y-115882071D01*
X129255000Y-115882071D01*
X129105042Y-115520042D01*
X128827958Y-115242958D01*
X128465929Y-115093000D01*
X128074071Y-115093000D01*
X127712042Y-115242958D01*
X127434958Y-115520042D01*
X127285000Y-115882071D01*
X123921000Y-115882071D01*
X123921000Y-115628071D01*
X123771042Y-115266042D01*
X123493958Y-114988958D01*
X123131929Y-114839000D01*
X122740071Y-114839000D01*
X122378042Y-114988958D01*
X122100958Y-115266042D01*
X121951000Y-115628071D01*
X119497790Y-115628071D01*
X119453042Y-115520042D01*
X119175958Y-115242958D01*
X118813929Y-115093000D01*
X118422071Y-115093000D01*
X118060042Y-115242958D01*
X117782958Y-115520042D01*
X117633000Y-115882071D01*
X117268892Y-115882071D01*
X117317000Y-115765929D01*
X117317000Y-115374071D01*
X117167042Y-115012042D01*
X116889958Y-114734958D01*
X116527929Y-114585000D01*
X116136071Y-114585000D01*
X115774042Y-114734958D01*
X115496958Y-115012042D01*
X115347000Y-115374071D01*
X103425564Y-115374071D01*
X103421529Y-115372400D01*
X103029671Y-115372400D01*
X102818000Y-115460077D01*
X102818000Y-112503871D01*
X105212400Y-112503871D01*
X105212400Y-112895729D01*
X105362358Y-113257758D01*
X105639442Y-113534842D01*
X106001471Y-113684800D01*
X106393329Y-113684800D01*
X106755358Y-113534842D01*
X107032442Y-113257758D01*
X107182400Y-112895729D01*
X107182400Y-112503871D01*
X107032442Y-112141842D01*
X106755358Y-111864758D01*
X106393329Y-111714800D01*
X106001471Y-111714800D01*
X105639442Y-111864758D01*
X105362358Y-112141842D01*
X105212400Y-112503871D01*
X102818000Y-112503871D01*
X102818000Y-107728671D01*
X106584000Y-107728671D01*
X106584000Y-108120529D01*
X106733958Y-108482558D01*
X107011042Y-108759642D01*
X107373071Y-108909600D01*
X107764929Y-108909600D01*
X108126958Y-108759642D01*
X108363013Y-108523587D01*
X110702446Y-108523587D01*
X110702446Y-108915445D01*
X110852404Y-109277474D01*
X111129488Y-109554558D01*
X111491517Y-109704516D01*
X111883375Y-109704516D01*
X112245404Y-109554558D01*
X112522488Y-109277474D01*
X112672446Y-108915445D01*
X112672446Y-108523587D01*
X112522488Y-108161558D01*
X112245404Y-107884474D01*
X111883375Y-107734516D01*
X111491517Y-107734516D01*
X111129488Y-107884474D01*
X110852404Y-108161558D01*
X110702446Y-108523587D01*
X108363013Y-108523587D01*
X108404042Y-108482558D01*
X108554000Y-108120529D01*
X108554000Y-107728671D01*
X108404042Y-107366642D01*
X108283471Y-107246071D01*
X113569000Y-107246071D01*
X113569000Y-107637929D01*
X113718958Y-107999958D01*
X113996042Y-108277042D01*
X114358071Y-108427000D01*
X114472824Y-108427000D01*
X114506358Y-108507958D01*
X114783442Y-108785042D01*
X115145471Y-108935000D01*
X115537329Y-108935000D01*
X115899358Y-108785042D01*
X116176442Y-108507958D01*
X116326400Y-108145929D01*
X116326400Y-107754071D01*
X116176442Y-107392042D01*
X116030471Y-107246071D01*
X117379000Y-107246071D01*
X117379000Y-107637929D01*
X117528958Y-107999958D01*
X117745000Y-108216000D01*
X117745000Y-108460149D01*
X117894958Y-108822178D01*
X118172042Y-109099262D01*
X118534071Y-109249220D01*
X118925929Y-109249220D01*
X119287958Y-109099262D01*
X119565042Y-108822178D01*
X119715000Y-108460149D01*
X119715000Y-108068291D01*
X119565042Y-107706262D01*
X119349000Y-107490220D01*
X119349000Y-107246071D01*
X121189000Y-107246071D01*
X121189000Y-107637929D01*
X121338958Y-107999958D01*
X121616042Y-108277042D01*
X121925600Y-108405266D01*
X121925600Y-108526929D01*
X122075558Y-108888958D01*
X122352642Y-109166042D01*
X122714671Y-109316000D01*
X123106529Y-109316000D01*
X123468558Y-109166042D01*
X123745642Y-108888958D01*
X123895600Y-108526929D01*
X123895600Y-108375488D01*
X127630092Y-108375488D01*
X127630092Y-108767346D01*
X127780050Y-109129375D01*
X128057134Y-109406459D01*
X128419163Y-109556417D01*
X128811021Y-109556417D01*
X129173050Y-109406459D01*
X129450134Y-109129375D01*
X129600092Y-108767346D01*
X129600092Y-108375488D01*
X129450134Y-108013459D01*
X129173050Y-107736375D01*
X128811021Y-107586417D01*
X128419163Y-107586417D01*
X128057134Y-107736375D01*
X127780050Y-108013459D01*
X127630092Y-108375488D01*
X123895600Y-108375488D01*
X123895600Y-108135071D01*
X123745642Y-107773042D01*
X123468558Y-107495958D01*
X123159000Y-107367734D01*
X123159000Y-107246071D01*
X123009042Y-106884042D01*
X122731958Y-106606958D01*
X122369929Y-106457000D01*
X121978071Y-106457000D01*
X121616042Y-106606958D01*
X121338958Y-106884042D01*
X121189000Y-107246071D01*
X119349000Y-107246071D01*
X119199042Y-106884042D01*
X118921958Y-106606958D01*
X118559929Y-106457000D01*
X118168071Y-106457000D01*
X117806042Y-106606958D01*
X117528958Y-106884042D01*
X117379000Y-107246071D01*
X116030471Y-107246071D01*
X115899358Y-107114958D01*
X115537329Y-106965000D01*
X115422576Y-106965000D01*
X115389042Y-106884042D01*
X115111958Y-106606958D01*
X114749929Y-106457000D01*
X114358071Y-106457000D01*
X113996042Y-106606958D01*
X113718958Y-106884042D01*
X113569000Y-107246071D01*
X108283471Y-107246071D01*
X108263500Y-107226100D01*
X108429442Y-107060158D01*
X108579400Y-106698129D01*
X108579400Y-106306271D01*
X108429442Y-105944242D01*
X108152358Y-105667158D01*
X107790329Y-105517200D01*
X107398471Y-105517200D01*
X107036442Y-105667158D01*
X106759358Y-105944242D01*
X106609400Y-106306271D01*
X106609400Y-106698129D01*
X106759358Y-107060158D01*
X106899900Y-107200700D01*
X106733958Y-107366642D01*
X106584000Y-107728671D01*
X102818000Y-107728671D01*
X102818000Y-105214071D01*
X113315000Y-105214071D01*
X113315000Y-105605929D01*
X113464958Y-105967958D01*
X113742042Y-106245042D01*
X114104071Y-106395000D01*
X114495929Y-106395000D01*
X114771459Y-106280871D01*
X124378611Y-106280871D01*
X124378611Y-106672729D01*
X124528569Y-107034758D01*
X124805653Y-107311842D01*
X125167682Y-107461800D01*
X125559540Y-107461800D01*
X125807649Y-107359029D01*
X125936358Y-107669758D01*
X126213442Y-107946842D01*
X126575471Y-108096800D01*
X126967329Y-108096800D01*
X127329358Y-107946842D01*
X127606442Y-107669758D01*
X127756400Y-107307729D01*
X127756400Y-107068271D01*
X129444000Y-107068271D01*
X129444000Y-107460129D01*
X129593958Y-107822158D01*
X129871042Y-108099242D01*
X130233071Y-108249200D01*
X130624929Y-108249200D01*
X130986958Y-108099242D01*
X131264042Y-107822158D01*
X131414000Y-107460129D01*
X131414000Y-107246071D01*
X132873000Y-107246071D01*
X132873000Y-107637929D01*
X133022958Y-107999958D01*
X133300042Y-108277042D01*
X133662071Y-108427000D01*
X134053929Y-108427000D01*
X134415958Y-108277042D01*
X134693042Y-107999958D01*
X134843000Y-107637929D01*
X134843000Y-107246071D01*
X134693042Y-106884042D01*
X134415958Y-106606958D01*
X134053929Y-106457000D01*
X133662071Y-106457000D01*
X133300042Y-106606958D01*
X133022958Y-106884042D01*
X132873000Y-107246071D01*
X131414000Y-107246071D01*
X131414000Y-107068271D01*
X131264042Y-106706242D01*
X130986958Y-106429158D01*
X130624929Y-106279200D01*
X130233071Y-106279200D01*
X129871042Y-106429158D01*
X129593958Y-106706242D01*
X129444000Y-107068271D01*
X127756400Y-107068271D01*
X127756400Y-106915871D01*
X127606442Y-106553842D01*
X127329358Y-106276758D01*
X126967329Y-106126800D01*
X126575471Y-106126800D01*
X126327362Y-106229571D01*
X126198653Y-105918842D01*
X125921569Y-105641758D01*
X125559540Y-105491800D01*
X125167682Y-105491800D01*
X124805653Y-105641758D01*
X124528569Y-105918842D01*
X124378611Y-106280871D01*
X114771459Y-106280871D01*
X114857958Y-106245042D01*
X115135042Y-105967958D01*
X115285000Y-105605929D01*
X115285000Y-105214071D01*
X115179790Y-104960071D01*
X117379000Y-104960071D01*
X117379000Y-105351929D01*
X117528958Y-105713958D01*
X117806042Y-105991042D01*
X118168071Y-106141000D01*
X118559929Y-106141000D01*
X118921958Y-105991042D01*
X119199042Y-105713958D01*
X119349000Y-105351929D01*
X119349000Y-104960071D01*
X119199042Y-104598042D01*
X118921958Y-104320958D01*
X118559929Y-104171000D01*
X118168071Y-104171000D01*
X117806042Y-104320958D01*
X117528958Y-104598042D01*
X117379000Y-104960071D01*
X115179790Y-104960071D01*
X115135042Y-104852042D01*
X114857958Y-104574958D01*
X114495929Y-104425000D01*
X114104071Y-104425000D01*
X113742042Y-104574958D01*
X113464958Y-104852042D01*
X113315000Y-105214071D01*
X102818000Y-105214071D01*
X102818000Y-101854000D01*
X103641908Y-101854000D01*
X103757161Y-102433418D01*
X104085375Y-102924625D01*
X104576582Y-103252839D01*
X105009744Y-103339000D01*
X105302256Y-103339000D01*
X105735418Y-103252839D01*
X106226625Y-102924625D01*
X106238816Y-102906381D01*
X106247843Y-102951765D01*
X106388191Y-103161809D01*
X106598235Y-103302157D01*
X106846000Y-103351440D01*
X108546000Y-103351440D01*
X108793765Y-103302157D01*
X109003809Y-103161809D01*
X109144157Y-102951765D01*
X109193440Y-102704000D01*
X109193440Y-101004000D01*
X109144157Y-100756235D01*
X109003809Y-100546191D01*
X108793765Y-100405843D01*
X108546000Y-100356560D01*
X106846000Y-100356560D01*
X106598235Y-100405843D01*
X106388191Y-100546191D01*
X106247843Y-100756235D01*
X106238816Y-100801619D01*
X106226625Y-100783375D01*
X105735418Y-100455161D01*
X105302256Y-100369000D01*
X105009744Y-100369000D01*
X104576582Y-100455161D01*
X104085375Y-100783375D01*
X103757161Y-101274582D01*
X103641908Y-101854000D01*
X102818000Y-101854000D01*
X102818000Y-97194000D01*
X103658560Y-97194000D01*
X103658560Y-98894000D01*
X103707843Y-99141765D01*
X103848191Y-99351809D01*
X104058235Y-99492157D01*
X104306000Y-99541440D01*
X106006000Y-99541440D01*
X106253765Y-99492157D01*
X106463809Y-99351809D01*
X106604157Y-99141765D01*
X106613184Y-99096381D01*
X106625375Y-99114625D01*
X107116582Y-99442839D01*
X107549744Y-99529000D01*
X107842256Y-99529000D01*
X108275418Y-99442839D01*
X108766625Y-99114625D01*
X109094839Y-98623418D01*
X109097493Y-98610071D01*
X110521001Y-98610071D01*
X110521001Y-99001929D01*
X110670959Y-99363958D01*
X110948043Y-99641042D01*
X111310072Y-99791000D01*
X111701930Y-99791000D01*
X112063959Y-99641042D01*
X112341043Y-99363958D01*
X112491001Y-99001929D01*
X112491001Y-98610071D01*
X112341043Y-98248042D01*
X112063959Y-97970958D01*
X111701930Y-97821000D01*
X111310072Y-97821000D01*
X110948043Y-97970958D01*
X110670959Y-98248042D01*
X110521001Y-98610071D01*
X109097493Y-98610071D01*
X109210092Y-98044000D01*
X109094839Y-97464582D01*
X108766625Y-96973375D01*
X108275418Y-96645161D01*
X107842256Y-96559000D01*
X107549744Y-96559000D01*
X107116582Y-96645161D01*
X106625375Y-96973375D01*
X106613184Y-96991619D01*
X106604157Y-96946235D01*
X106463809Y-96736191D01*
X106253765Y-96595843D01*
X106006000Y-96546560D01*
X104306000Y-96546560D01*
X104058235Y-96595843D01*
X103848191Y-96736191D01*
X103707843Y-96946235D01*
X103658560Y-97194000D01*
X102818000Y-97194000D01*
X102818000Y-93384000D01*
X103658560Y-93384000D01*
X103658560Y-95084000D01*
X103707843Y-95331765D01*
X103848191Y-95541809D01*
X104058235Y-95682157D01*
X104306000Y-95731440D01*
X106006000Y-95731440D01*
X106253765Y-95682157D01*
X106463809Y-95541809D01*
X106604157Y-95331765D01*
X106613184Y-95286381D01*
X106625375Y-95304625D01*
X107116582Y-95632839D01*
X107549744Y-95719000D01*
X107842256Y-95719000D01*
X108275418Y-95632839D01*
X108766625Y-95304625D01*
X109094839Y-94813418D01*
X109210092Y-94234000D01*
X109159569Y-93980000D01*
X113547908Y-93980000D01*
X113663161Y-94559418D01*
X113991375Y-95050625D01*
X114289761Y-95250000D01*
X113991375Y-95449375D01*
X113663161Y-95940582D01*
X113547908Y-96520000D01*
X113663161Y-97099418D01*
X113991375Y-97590625D01*
X114289761Y-97790000D01*
X113991375Y-97989375D01*
X113663161Y-98480582D01*
X113547908Y-99060000D01*
X113663161Y-99639418D01*
X113991375Y-100130625D01*
X114009619Y-100142816D01*
X113964235Y-100151843D01*
X113754191Y-100292191D01*
X113613843Y-100502235D01*
X113564560Y-100750000D01*
X113564560Y-102450000D01*
X113613843Y-102697765D01*
X113754191Y-102907809D01*
X113964235Y-103048157D01*
X114212000Y-103097440D01*
X115912000Y-103097440D01*
X116159765Y-103048157D01*
X116369809Y-102907809D01*
X116510157Y-102697765D01*
X116559440Y-102450000D01*
X116559440Y-101574600D01*
X122463308Y-101574600D01*
X122578561Y-102154018D01*
X122906775Y-102645225D01*
X123397982Y-102973439D01*
X123831144Y-103059600D01*
X124123656Y-103059600D01*
X124556818Y-102973439D01*
X125048025Y-102645225D01*
X125376239Y-102154018D01*
X125389667Y-102086506D01*
X127139000Y-102086506D01*
X127139000Y-102637494D01*
X127349853Y-103146540D01*
X127739460Y-103536147D01*
X128248506Y-103747000D01*
X128799494Y-103747000D01*
X129308540Y-103536147D01*
X129511170Y-103333517D01*
X130272088Y-103333517D01*
X130340077Y-103574460D01*
X130859171Y-103759201D01*
X131409448Y-103731230D01*
X131787923Y-103574460D01*
X131855912Y-103333517D01*
X131064000Y-102541605D01*
X130272088Y-103333517D01*
X129511170Y-103333517D01*
X129698147Y-103146540D01*
X129787397Y-102931070D01*
X129851540Y-103085923D01*
X130092483Y-103153912D01*
X130884395Y-102362000D01*
X131243605Y-102362000D01*
X132035517Y-103153912D01*
X132276460Y-103085923D01*
X132335745Y-102919342D01*
X132429853Y-103146540D01*
X132819460Y-103536147D01*
X133328506Y-103747000D01*
X133879494Y-103747000D01*
X134388540Y-103536147D01*
X134778147Y-103146540D01*
X134989000Y-102637494D01*
X134989000Y-102086506D01*
X134778147Y-101577460D01*
X134388540Y-101187853D01*
X133879494Y-100977000D01*
X133328506Y-100977000D01*
X132819460Y-101187853D01*
X132429853Y-101577460D01*
X132340603Y-101792930D01*
X132276460Y-101638077D01*
X132035517Y-101570088D01*
X131243605Y-102362000D01*
X130884395Y-102362000D01*
X130092483Y-101570088D01*
X129851540Y-101638077D01*
X129792255Y-101804658D01*
X129698147Y-101577460D01*
X129511170Y-101390483D01*
X130272088Y-101390483D01*
X131064000Y-102182395D01*
X131855912Y-101390483D01*
X131787923Y-101149540D01*
X131268829Y-100964799D01*
X130718552Y-100992770D01*
X130340077Y-101149540D01*
X130272088Y-101390483D01*
X129511170Y-101390483D01*
X129308540Y-101187853D01*
X128799494Y-100977000D01*
X128248506Y-100977000D01*
X127739460Y-101187853D01*
X127349853Y-101577460D01*
X127139000Y-102086506D01*
X125389667Y-102086506D01*
X125491492Y-101574600D01*
X125376239Y-100995182D01*
X125048025Y-100503975D01*
X125029781Y-100491784D01*
X125075165Y-100482757D01*
X125285209Y-100342409D01*
X125425557Y-100132365D01*
X125474840Y-99884600D01*
X125474840Y-98184600D01*
X125425557Y-97936835D01*
X125285209Y-97726791D01*
X125075165Y-97586443D01*
X124827400Y-97537160D01*
X123127400Y-97537160D01*
X122879635Y-97586443D01*
X122669591Y-97726791D01*
X122529243Y-97936835D01*
X122479960Y-98184600D01*
X122479960Y-99884600D01*
X122529243Y-100132365D01*
X122669591Y-100342409D01*
X122879635Y-100482757D01*
X122925019Y-100491784D01*
X122906775Y-100503975D01*
X122578561Y-100995182D01*
X122463308Y-101574600D01*
X116559440Y-101574600D01*
X116559440Y-100750000D01*
X116510157Y-100502235D01*
X116369809Y-100292191D01*
X116159765Y-100151843D01*
X116114381Y-100142816D01*
X116132625Y-100130625D01*
X116460839Y-99639418D01*
X116576092Y-99060000D01*
X116460839Y-98480582D01*
X116132625Y-97989375D01*
X115834239Y-97790000D01*
X116132625Y-97590625D01*
X116146857Y-97569325D01*
X116258958Y-97839958D01*
X116536042Y-98117042D01*
X116898071Y-98267000D01*
X117289929Y-98267000D01*
X117651958Y-98117042D01*
X117929042Y-97839958D01*
X118079000Y-97477929D01*
X118079000Y-97086071D01*
X117929042Y-96724042D01*
X117651958Y-96446958D01*
X117289929Y-96297000D01*
X116898071Y-96297000D01*
X116559620Y-96437191D01*
X116460839Y-95940582D01*
X116132625Y-95449375D01*
X115834239Y-95250000D01*
X116132625Y-95050625D01*
X116460839Y-94559418D01*
X116576092Y-93980000D01*
X116460839Y-93400582D01*
X116207927Y-93022071D01*
X120173000Y-93022071D01*
X120173000Y-93413929D01*
X120322958Y-93775958D01*
X120600042Y-94053042D01*
X120962071Y-94203000D01*
X121353929Y-94203000D01*
X121715958Y-94053042D01*
X121993042Y-93775958D01*
X122143000Y-93413929D01*
X122143000Y-93022071D01*
X121993042Y-92660042D01*
X121987000Y-92654000D01*
X122247042Y-92393958D01*
X122397000Y-92031929D01*
X122397000Y-92006071D01*
X124973600Y-92006071D01*
X124973600Y-92397929D01*
X125123558Y-92759958D01*
X125400642Y-93037042D01*
X125762671Y-93187000D01*
X126154529Y-93187000D01*
X126351610Y-93105366D01*
X126418958Y-93267958D01*
X126553605Y-93402605D01*
X126553605Y-93759746D01*
X126703563Y-94121775D01*
X126980647Y-94398859D01*
X127139726Y-94464752D01*
X127139000Y-94466506D01*
X127139000Y-95017494D01*
X127349853Y-95526540D01*
X127739460Y-95916147D01*
X128248506Y-96127000D01*
X128799494Y-96127000D01*
X129308540Y-95916147D01*
X129511170Y-95713517D01*
X130272088Y-95713517D01*
X130340077Y-95954460D01*
X130859171Y-96139201D01*
X131409448Y-96111230D01*
X131787923Y-95954460D01*
X131855912Y-95713517D01*
X131064000Y-94921605D01*
X130272088Y-95713517D01*
X129511170Y-95713517D01*
X129698147Y-95526540D01*
X129787397Y-95311070D01*
X129851540Y-95465923D01*
X130092483Y-95533912D01*
X130884395Y-94742000D01*
X131243605Y-94742000D01*
X132035517Y-95533912D01*
X132276460Y-95465923D01*
X132335745Y-95299342D01*
X132429853Y-95526540D01*
X132819460Y-95916147D01*
X133328506Y-96127000D01*
X133879494Y-96127000D01*
X134388540Y-95916147D01*
X134778147Y-95526540D01*
X134989000Y-95017494D01*
X134989000Y-94466506D01*
X134778147Y-93957460D01*
X134388540Y-93567853D01*
X133879494Y-93357000D01*
X133328506Y-93357000D01*
X132819460Y-93567853D01*
X132429853Y-93957460D01*
X132340603Y-94172930D01*
X132276460Y-94018077D01*
X132035517Y-93950088D01*
X131243605Y-94742000D01*
X130884395Y-94742000D01*
X130092483Y-93950088D01*
X129851540Y-94018077D01*
X129792255Y-94184658D01*
X129698147Y-93957460D01*
X129511170Y-93770483D01*
X130272088Y-93770483D01*
X131064000Y-94562395D01*
X131855912Y-93770483D01*
X131787923Y-93529540D01*
X131268829Y-93344799D01*
X130718552Y-93372770D01*
X130340077Y-93529540D01*
X130272088Y-93770483D01*
X129511170Y-93770483D01*
X129308540Y-93567853D01*
X128799494Y-93357000D01*
X128519095Y-93357000D01*
X128373647Y-93005859D01*
X128239000Y-92871212D01*
X128239000Y-92514071D01*
X128089042Y-92152042D01*
X127811958Y-91874958D01*
X127449929Y-91725000D01*
X127058071Y-91725000D01*
X126860990Y-91806634D01*
X126793642Y-91644042D01*
X126541991Y-91392391D01*
X126724477Y-91316803D01*
X127001561Y-91039719D01*
X127151519Y-90677690D01*
X127151519Y-90285832D01*
X127001561Y-89923803D01*
X126724477Y-89646719D01*
X126362448Y-89496761D01*
X125970590Y-89496761D01*
X125608561Y-89646719D01*
X125331477Y-89923803D01*
X125181519Y-90285832D01*
X125181519Y-90677690D01*
X125331477Y-91039719D01*
X125583128Y-91291370D01*
X125400642Y-91366958D01*
X125123558Y-91644042D01*
X124973600Y-92006071D01*
X122397000Y-92006071D01*
X122397000Y-91640071D01*
X122247042Y-91278042D01*
X121969958Y-91000958D01*
X121607929Y-90851000D01*
X121216071Y-90851000D01*
X120854042Y-91000958D01*
X120576958Y-91278042D01*
X120427000Y-91640071D01*
X120427000Y-92031929D01*
X120576958Y-92393958D01*
X120583000Y-92400000D01*
X120322958Y-92660042D01*
X120173000Y-93022071D01*
X116207927Y-93022071D01*
X116132625Y-92909375D01*
X115779458Y-92673396D01*
X116127958Y-92529042D01*
X116387995Y-92269005D01*
X116648032Y-92529042D01*
X117010061Y-92679000D01*
X117401919Y-92679000D01*
X117763948Y-92529042D01*
X118041032Y-92251958D01*
X118190990Y-91889929D01*
X118190990Y-91498071D01*
X118041032Y-91136042D01*
X117763948Y-90858958D01*
X117401919Y-90709000D01*
X117010061Y-90709000D01*
X116648032Y-90858958D01*
X116387995Y-91118995D01*
X116127958Y-90858958D01*
X115765929Y-90709000D01*
X115374071Y-90709000D01*
X115012042Y-90858958D01*
X114734958Y-91136042D01*
X114585000Y-91498071D01*
X114585000Y-91889929D01*
X114734958Y-92251958D01*
X114978000Y-92495000D01*
X114915744Y-92495000D01*
X114482582Y-92581161D01*
X113991375Y-92909375D01*
X113663161Y-93400582D01*
X113547908Y-93980000D01*
X109159569Y-93980000D01*
X109094839Y-93654582D01*
X108766625Y-93163375D01*
X108275418Y-92835161D01*
X107842256Y-92749000D01*
X107549744Y-92749000D01*
X107116582Y-92835161D01*
X106625375Y-93163375D01*
X106613184Y-93181619D01*
X106604157Y-93136235D01*
X106463809Y-92926191D01*
X106253765Y-92785843D01*
X106006000Y-92736560D01*
X104306000Y-92736560D01*
X104058235Y-92785843D01*
X103848191Y-92926191D01*
X103707843Y-93136235D01*
X103658560Y-93384000D01*
X102818000Y-93384000D01*
X102818000Y-91498071D01*
X103144610Y-91498071D01*
X103144610Y-91889929D01*
X103294568Y-92251958D01*
X103571652Y-92529042D01*
X103933681Y-92679000D01*
X104325539Y-92679000D01*
X104687568Y-92529042D01*
X104964652Y-92251958D01*
X105114610Y-91889929D01*
X105114610Y-91498071D01*
X105083047Y-91421871D01*
X109225600Y-91421871D01*
X109225600Y-91813729D01*
X109375558Y-92175758D01*
X109652642Y-92452842D01*
X110014671Y-92602800D01*
X110406529Y-92602800D01*
X110733828Y-92467228D01*
X110770242Y-92503642D01*
X111132271Y-92653600D01*
X111524129Y-92653600D01*
X111886158Y-92503642D01*
X112163242Y-92226558D01*
X112313200Y-91864529D01*
X112313200Y-91472671D01*
X112163242Y-91110642D01*
X111886158Y-90833558D01*
X111524129Y-90683600D01*
X111132271Y-90683600D01*
X110804972Y-90819172D01*
X110768558Y-90782758D01*
X110406529Y-90632800D01*
X110014671Y-90632800D01*
X109652642Y-90782758D01*
X109375558Y-91059842D01*
X109225600Y-91421871D01*
X105083047Y-91421871D01*
X104964652Y-91136042D01*
X104687568Y-90858958D01*
X104325539Y-90709000D01*
X103933681Y-90709000D01*
X103571652Y-90858958D01*
X103294568Y-91136042D01*
X103144610Y-91498071D01*
X102818000Y-91498071D01*
X102818000Y-89720071D01*
X104171000Y-89720071D01*
X104171000Y-90111929D01*
X104320958Y-90473958D01*
X104598042Y-90751042D01*
X104960071Y-90901000D01*
X105351929Y-90901000D01*
X105713958Y-90751042D01*
X105991042Y-90473958D01*
X106141000Y-90111929D01*
X106141000Y-89720071D01*
X105991042Y-89358042D01*
X105713958Y-89080958D01*
X105351929Y-88931000D01*
X104960071Y-88931000D01*
X104598042Y-89080958D01*
X104320958Y-89358042D01*
X104171000Y-89720071D01*
X102818000Y-89720071D01*
X102818000Y-88034661D01*
X108204000Y-88034661D01*
X108252601Y-88024994D01*
X108293803Y-87997464D01*
X108321333Y-87956262D01*
X108331000Y-87907661D01*
X108331000Y-87789671D01*
X109592390Y-87789671D01*
X109592390Y-88181529D01*
X109742348Y-88543558D01*
X110019432Y-88820642D01*
X110381461Y-88970600D01*
X110773319Y-88970600D01*
X111135348Y-88820642D01*
X111412432Y-88543558D01*
X111562390Y-88181529D01*
X111562390Y-87871267D01*
X111784558Y-87779242D01*
X112014999Y-87548801D01*
X112014999Y-87571929D01*
X112164957Y-87933958D01*
X112442041Y-88211042D01*
X112804070Y-88361000D01*
X113195928Y-88361000D01*
X113557957Y-88211042D01*
X113678563Y-88090436D01*
X113718958Y-88187958D01*
X113996042Y-88465042D01*
X114358071Y-88615000D01*
X114749929Y-88615000D01*
X115111958Y-88465042D01*
X115389042Y-88187958D01*
X115539000Y-87825929D01*
X115539000Y-87434071D01*
X115389042Y-87072042D01*
X115111958Y-86794958D01*
X114749929Y-86645000D01*
X114358071Y-86645000D01*
X113996042Y-86794958D01*
X113875436Y-86915564D01*
X113835041Y-86818042D01*
X113557957Y-86540958D01*
X113195928Y-86391000D01*
X112804070Y-86391000D01*
X112442041Y-86540958D01*
X112211600Y-86771399D01*
X112211600Y-86748271D01*
X112061642Y-86386242D01*
X111839471Y-86164071D01*
X115093000Y-86164071D01*
X115093000Y-86555929D01*
X115242958Y-86917958D01*
X115520042Y-87195042D01*
X115882071Y-87345000D01*
X116273929Y-87345000D01*
X116407188Y-87289802D01*
X116370948Y-87326042D01*
X116220990Y-87688071D01*
X116220990Y-88079929D01*
X116370948Y-88441958D01*
X116648032Y-88719042D01*
X117010061Y-88869000D01*
X117401919Y-88869000D01*
X117763948Y-88719042D01*
X118041032Y-88441958D01*
X118141000Y-88200615D01*
X118141000Y-88333929D01*
X118290958Y-88695958D01*
X118568042Y-88973042D01*
X118930071Y-89123000D01*
X119321929Y-89123000D01*
X119683958Y-88973042D01*
X119891261Y-88765739D01*
X119895271Y-88767400D01*
X120287129Y-88767400D01*
X120649158Y-88617442D01*
X120926242Y-88340358D01*
X120993707Y-88177483D01*
X122131000Y-88177483D01*
X122131000Y-88569341D01*
X122280958Y-88931370D01*
X122558042Y-89208454D01*
X122920071Y-89358412D01*
X123311929Y-89358412D01*
X123673958Y-89208454D01*
X123951042Y-88931370D01*
X124045192Y-88704071D01*
X126523000Y-88704071D01*
X126523000Y-89095929D01*
X126672958Y-89457958D01*
X126950042Y-89735042D01*
X127312071Y-89885000D01*
X127703929Y-89885000D01*
X128065958Y-89735042D01*
X128343042Y-89457958D01*
X128493000Y-89095929D01*
X128493000Y-88704071D01*
X128343042Y-88342042D01*
X128298671Y-88297671D01*
X128681998Y-88297671D01*
X128681998Y-88689529D01*
X128831956Y-89051558D01*
X129109040Y-89328642D01*
X129471069Y-89478600D01*
X129494800Y-89478600D01*
X129494800Y-89680129D01*
X129644758Y-90042158D01*
X129721798Y-90119198D01*
X129466954Y-90374042D01*
X129316996Y-90736071D01*
X129316996Y-91127929D01*
X129466954Y-91489958D01*
X129744038Y-91767042D01*
X130106067Y-91917000D01*
X130497925Y-91917000D01*
X130859954Y-91767042D01*
X131137038Y-91489958D01*
X131286996Y-91127929D01*
X131286996Y-90736071D01*
X131137038Y-90374042D01*
X131059998Y-90297002D01*
X131314842Y-90042158D01*
X131464800Y-89680129D01*
X131464800Y-89288271D01*
X131314842Y-88926242D01*
X131037758Y-88649158D01*
X130675729Y-88499200D01*
X130651998Y-88499200D01*
X130651998Y-88297671D01*
X130502040Y-87935642D01*
X130224956Y-87658558D01*
X129862927Y-87508600D01*
X129471069Y-87508600D01*
X129109040Y-87658558D01*
X128831956Y-87935642D01*
X128681998Y-88297671D01*
X128298671Y-88297671D01*
X128065958Y-88064958D01*
X127703929Y-87915000D01*
X127312071Y-87915000D01*
X126950042Y-88064958D01*
X126672958Y-88342042D01*
X126523000Y-88704071D01*
X124045192Y-88704071D01*
X124101000Y-88569341D01*
X124101000Y-88177483D01*
X123951042Y-87815454D01*
X123673958Y-87538370D01*
X123311929Y-87388412D01*
X122920071Y-87388412D01*
X122558042Y-87538370D01*
X122280958Y-87815454D01*
X122131000Y-88177483D01*
X120993707Y-88177483D01*
X121076200Y-87978329D01*
X121076200Y-87586471D01*
X120926242Y-87224442D01*
X120649158Y-86947358D01*
X120287129Y-86797400D01*
X119895271Y-86797400D01*
X119533242Y-86947358D01*
X119325939Y-87154661D01*
X119321929Y-87153000D01*
X118930071Y-87153000D01*
X118568042Y-87302958D01*
X118290958Y-87580042D01*
X118190990Y-87821385D01*
X118190990Y-87688071D01*
X118041032Y-87326042D01*
X117763948Y-87048958D01*
X117401919Y-86899000D01*
X117010061Y-86899000D01*
X116876802Y-86954198D01*
X116913042Y-86917958D01*
X117051787Y-86583000D01*
X117289929Y-86583000D01*
X117651958Y-86433042D01*
X117929042Y-86155958D01*
X118077280Y-85798081D01*
X126523000Y-85798081D01*
X126523000Y-86189939D01*
X126672958Y-86551968D01*
X126950042Y-86829052D01*
X127312071Y-86979010D01*
X127703929Y-86979010D01*
X128065958Y-86829052D01*
X128343042Y-86551968D01*
X128493000Y-86189939D01*
X128493000Y-85798081D01*
X128343042Y-85436052D01*
X128065958Y-85158968D01*
X127703929Y-85009010D01*
X127312071Y-85009010D01*
X126950042Y-85158968D01*
X126672958Y-85436052D01*
X126523000Y-85798081D01*
X118077280Y-85798081D01*
X118079000Y-85793929D01*
X118079000Y-85402071D01*
X117929042Y-85040042D01*
X117651958Y-84762958D01*
X117289929Y-84613000D01*
X116898071Y-84613000D01*
X116536042Y-84762958D01*
X116258958Y-85040042D01*
X116120213Y-85375000D01*
X115882071Y-85375000D01*
X115520042Y-85524958D01*
X115242958Y-85802042D01*
X115093000Y-86164071D01*
X111839471Y-86164071D01*
X111784558Y-86109158D01*
X111422529Y-85959200D01*
X111030671Y-85959200D01*
X110668642Y-86109158D01*
X110391558Y-86386242D01*
X110241600Y-86748271D01*
X110241600Y-87058533D01*
X110019432Y-87150558D01*
X109742348Y-87427642D01*
X109592390Y-87789671D01*
X108331000Y-87789671D01*
X108331000Y-83481944D01*
X111394873Y-83481944D01*
X111394873Y-83873802D01*
X111544831Y-84235831D01*
X111821915Y-84512915D01*
X112183944Y-84662873D01*
X112575802Y-84662873D01*
X112937831Y-84512915D01*
X113064675Y-84386071D01*
X118141000Y-84386071D01*
X118141000Y-84777929D01*
X118290958Y-85139958D01*
X118568042Y-85417042D01*
X118930071Y-85567000D01*
X119321929Y-85567000D01*
X119683958Y-85417042D01*
X119961042Y-85139958D01*
X120111000Y-84777929D01*
X120111000Y-84386071D01*
X119961042Y-84024042D01*
X119683958Y-83746958D01*
X119321929Y-83597000D01*
X118930071Y-83597000D01*
X118568042Y-83746958D01*
X118290958Y-84024042D01*
X118141000Y-84386071D01*
X113064675Y-84386071D01*
X113214915Y-84235831D01*
X113364873Y-83873802D01*
X113364873Y-83481944D01*
X113214915Y-83119915D01*
X112937831Y-82842831D01*
X112575802Y-82692873D01*
X112183944Y-82692873D01*
X111821915Y-82842831D01*
X111544831Y-83119915D01*
X111394873Y-83481944D01*
X108331000Y-83481944D01*
X108331000Y-81338071D01*
X109759000Y-81338071D01*
X109759000Y-81729929D01*
X109908958Y-82091958D01*
X110186042Y-82369042D01*
X110548071Y-82519000D01*
X110939929Y-82519000D01*
X111301958Y-82369042D01*
X111579042Y-82091958D01*
X111729000Y-81729929D01*
X111729000Y-81338071D01*
X117633000Y-81338071D01*
X117633000Y-81729929D01*
X117782958Y-82091958D01*
X117933298Y-82242298D01*
X117887000Y-82354071D01*
X117887000Y-82745929D01*
X118036958Y-83107958D01*
X118314042Y-83385042D01*
X118676071Y-83535000D01*
X119067929Y-83535000D01*
X119429958Y-83385042D01*
X119444929Y-83370071D01*
X121697000Y-83370071D01*
X121697000Y-83761929D01*
X121846958Y-84123958D01*
X122124042Y-84401042D01*
X122486071Y-84551000D01*
X122877929Y-84551000D01*
X123239958Y-84401042D01*
X123517042Y-84123958D01*
X123667000Y-83761929D01*
X123667000Y-83370071D01*
X123517042Y-83008042D01*
X123239958Y-82730958D01*
X122877929Y-82581000D01*
X122486071Y-82581000D01*
X122124042Y-82730958D01*
X121846958Y-83008042D01*
X121697000Y-83370071D01*
X119444929Y-83370071D01*
X119707042Y-83107958D01*
X119857000Y-82745929D01*
X119857000Y-82354071D01*
X119751790Y-82100071D01*
X128555000Y-82100071D01*
X128555000Y-82491929D01*
X128704958Y-82853958D01*
X128782000Y-82931000D01*
X128704958Y-83008042D01*
X128555000Y-83370071D01*
X128555000Y-83761929D01*
X128704958Y-84123958D01*
X128947654Y-84366654D01*
X128834400Y-84640071D01*
X128834400Y-85031929D01*
X128984358Y-85393958D01*
X129261442Y-85671042D01*
X129623471Y-85821000D01*
X130015329Y-85821000D01*
X130377358Y-85671042D01*
X130445000Y-85603400D01*
X130445000Y-85895529D01*
X130594958Y-86257558D01*
X130872042Y-86534642D01*
X131234071Y-86684600D01*
X131625929Y-86684600D01*
X131987958Y-86534642D01*
X132265042Y-86257558D01*
X132415000Y-85895529D01*
X132415000Y-85852000D01*
X133613908Y-85852000D01*
X133729161Y-86431418D01*
X134057375Y-86922625D01*
X134355761Y-87122000D01*
X134057375Y-87321375D01*
X133729161Y-87812582D01*
X133613908Y-88392000D01*
X133729161Y-88971418D01*
X134057375Y-89462625D01*
X134075619Y-89474816D01*
X134030235Y-89483843D01*
X133820191Y-89624191D01*
X133679843Y-89834235D01*
X133630560Y-90082000D01*
X133630560Y-91782000D01*
X133679843Y-92029765D01*
X133820191Y-92239809D01*
X134030235Y-92380157D01*
X134278000Y-92429440D01*
X135978000Y-92429440D01*
X136225765Y-92380157D01*
X136435809Y-92239809D01*
X136576157Y-92029765D01*
X136625440Y-91782000D01*
X136625440Y-90082000D01*
X136576157Y-89834235D01*
X136435809Y-89624191D01*
X136225765Y-89483843D01*
X136180381Y-89474816D01*
X136198625Y-89462625D01*
X136526839Y-88971418D01*
X136642092Y-88392000D01*
X136526839Y-87812582D01*
X136198625Y-87321375D01*
X135900239Y-87122000D01*
X136198625Y-86922625D01*
X136526839Y-86431418D01*
X136642092Y-85852000D01*
X136526839Y-85272582D01*
X136198625Y-84781375D01*
X135879522Y-84568157D01*
X136009358Y-84507183D01*
X136399645Y-84078924D01*
X136569476Y-83668890D01*
X136448155Y-83439000D01*
X135255000Y-83439000D01*
X135255000Y-83459000D01*
X135001000Y-83459000D01*
X135001000Y-83439000D01*
X133807845Y-83439000D01*
X133686524Y-83668890D01*
X133856355Y-84078924D01*
X134246642Y-84507183D01*
X134376478Y-84568157D01*
X134057375Y-84781375D01*
X133729161Y-85272582D01*
X133613908Y-85852000D01*
X132415000Y-85852000D01*
X132415000Y-85503671D01*
X132265042Y-85141642D01*
X131987958Y-84864558D01*
X131625929Y-84714600D01*
X131234071Y-84714600D01*
X130872042Y-84864558D01*
X130804400Y-84932200D01*
X130804400Y-84640071D01*
X130654442Y-84278042D01*
X130411746Y-84035346D01*
X130525000Y-83761929D01*
X130525000Y-83370071D01*
X130375042Y-83008042D01*
X130298000Y-82931000D01*
X130375042Y-82853958D01*
X130525000Y-82491929D01*
X130525000Y-82100071D01*
X130375042Y-81738042D01*
X130097958Y-81460958D01*
X129735929Y-81311000D01*
X129344071Y-81311000D01*
X128982042Y-81460958D01*
X128704958Y-81738042D01*
X128555000Y-82100071D01*
X119751790Y-82100071D01*
X119707042Y-81992042D01*
X119556702Y-81841702D01*
X119603000Y-81729929D01*
X119603000Y-81338071D01*
X119453042Y-80976042D01*
X119175958Y-80698958D01*
X118813929Y-80549000D01*
X118422071Y-80549000D01*
X118060042Y-80698958D01*
X117782958Y-80976042D01*
X117633000Y-81338071D01*
X111729000Y-81338071D01*
X111579042Y-80976042D01*
X111539166Y-80936166D01*
X111759158Y-80845042D01*
X112036242Y-80567958D01*
X112186200Y-80205929D01*
X112186200Y-79814071D01*
X112036242Y-79452042D01*
X111759158Y-79174958D01*
X111462484Y-79052071D01*
X114331000Y-79052071D01*
X114331000Y-79443929D01*
X114480958Y-79805958D01*
X114758042Y-80083042D01*
X115120071Y-80233000D01*
X115511929Y-80233000D01*
X115873958Y-80083042D01*
X116151042Y-79805958D01*
X116252892Y-79560071D01*
X128809000Y-79560071D01*
X128809000Y-79951929D01*
X128958958Y-80313958D01*
X129236042Y-80591042D01*
X129598071Y-80741000D01*
X129989929Y-80741000D01*
X130351958Y-80591042D01*
X130629042Y-80313958D01*
X130779000Y-79951929D01*
X130779000Y-79560071D01*
X130629042Y-79198042D01*
X130351958Y-78920958D01*
X129989929Y-78771000D01*
X129598071Y-78771000D01*
X129236042Y-78920958D01*
X128958958Y-79198042D01*
X128809000Y-79560071D01*
X116252892Y-79560071D01*
X116301000Y-79443929D01*
X116301000Y-79052071D01*
X116151042Y-78690042D01*
X115873958Y-78412958D01*
X115511929Y-78263000D01*
X115120071Y-78263000D01*
X114758042Y-78412958D01*
X114480958Y-78690042D01*
X114331000Y-79052071D01*
X111462484Y-79052071D01*
X111397129Y-79025000D01*
X111005271Y-79025000D01*
X110643242Y-79174958D01*
X110366158Y-79452042D01*
X110216200Y-79814071D01*
X110216200Y-80205929D01*
X110366158Y-80567958D01*
X110406034Y-80607834D01*
X110186042Y-80698958D01*
X109908958Y-80976042D01*
X109759000Y-81338071D01*
X108331000Y-81338071D01*
X108331000Y-77747661D01*
X108321333Y-77699060D01*
X108293803Y-77657858D01*
X108252601Y-77630328D01*
X108204000Y-77620661D01*
X108066570Y-77620661D01*
X108253958Y-77543042D01*
X108531042Y-77265958D01*
X108681000Y-76903929D01*
X108681000Y-76512071D01*
X108598983Y-76314065D01*
X111171432Y-76314065D01*
X111171432Y-76705923D01*
X111321390Y-77067952D01*
X111598474Y-77345036D01*
X111960503Y-77494994D01*
X112352361Y-77494994D01*
X112714390Y-77345036D01*
X112991474Y-77067952D01*
X113141432Y-76705923D01*
X113141432Y-76562871D01*
X120223800Y-76562871D01*
X120223800Y-76954729D01*
X120373758Y-77316758D01*
X120650842Y-77593842D01*
X121012871Y-77743800D01*
X121404729Y-77743800D01*
X121606304Y-77660304D01*
X121692242Y-77746242D01*
X122054271Y-77896200D01*
X122446129Y-77896200D01*
X122755467Y-77768067D01*
X122835242Y-77847842D01*
X123197271Y-77997800D01*
X123589129Y-77997800D01*
X123951158Y-77847842D01*
X124228242Y-77570758D01*
X124251255Y-77515200D01*
X124579729Y-77515200D01*
X124941758Y-77365242D01*
X125218842Y-77088158D01*
X125368800Y-76726129D01*
X125368800Y-76334271D01*
X125218842Y-75972242D01*
X124941758Y-75695158D01*
X124579729Y-75545200D01*
X124187871Y-75545200D01*
X123825842Y-75695158D01*
X123548758Y-75972242D01*
X123525745Y-76027800D01*
X123197271Y-76027800D01*
X122887933Y-76155933D01*
X122808158Y-76076158D01*
X122446129Y-75926200D01*
X122054271Y-75926200D01*
X121852696Y-76009696D01*
X121766758Y-75923758D01*
X121404729Y-75773800D01*
X121012871Y-75773800D01*
X120650842Y-75923758D01*
X120373758Y-76200842D01*
X120223800Y-76562871D01*
X113141432Y-76562871D01*
X113141432Y-76314065D01*
X112991474Y-75952036D01*
X112714390Y-75674952D01*
X112352361Y-75524994D01*
X111960503Y-75524994D01*
X111598474Y-75674952D01*
X111321390Y-75952036D01*
X111171432Y-76314065D01*
X108598983Y-76314065D01*
X108531042Y-76150042D01*
X108253958Y-75872958D01*
X107891929Y-75723000D01*
X107500071Y-75723000D01*
X107138042Y-75872958D01*
X106860958Y-76150042D01*
X106711000Y-76512071D01*
X106711000Y-76903929D01*
X106860958Y-77265958D01*
X107138042Y-77543042D01*
X107325430Y-77620661D01*
X102818000Y-77620661D01*
X102818000Y-73718071D01*
X102901000Y-73718071D01*
X102901000Y-74109929D01*
X103050958Y-74471958D01*
X103328042Y-74749042D01*
X103690071Y-74899000D01*
X104081929Y-74899000D01*
X104443958Y-74749042D01*
X104721042Y-74471958D01*
X104871000Y-74109929D01*
X104871000Y-73718071D01*
X104721042Y-73356042D01*
X104443958Y-73078958D01*
X104147284Y-72956071D01*
X107727000Y-72956071D01*
X107727000Y-73347929D01*
X107876958Y-73709958D01*
X108154042Y-73987042D01*
X108516071Y-74137000D01*
X108907929Y-74137000D01*
X109269958Y-73987042D01*
X109494693Y-73762307D01*
X109786071Y-73883000D01*
X110177929Y-73883000D01*
X110539958Y-73733042D01*
X110817042Y-73455958D01*
X110967000Y-73093929D01*
X110967000Y-72702071D01*
X111283000Y-72702071D01*
X111283000Y-73093929D01*
X111432958Y-73455958D01*
X111710042Y-73733042D01*
X112072071Y-73883000D01*
X112463929Y-73883000D01*
X112825958Y-73733042D01*
X113103042Y-73455958D01*
X113253000Y-73093929D01*
X113253000Y-72956071D01*
X113823000Y-72956071D01*
X113823000Y-73347929D01*
X113972958Y-73709958D01*
X114250042Y-73987042D01*
X114612071Y-74137000D01*
X115003929Y-74137000D01*
X115365958Y-73987042D01*
X115570000Y-73783000D01*
X115774042Y-73987042D01*
X116136071Y-74137000D01*
X116527929Y-74137000D01*
X116889958Y-73987042D01*
X117167042Y-73709958D01*
X117317000Y-73347929D01*
X117317000Y-72956071D01*
X118395000Y-72956071D01*
X118395000Y-73347929D01*
X118544958Y-73709958D01*
X118822042Y-73987042D01*
X119184071Y-74137000D01*
X119575929Y-74137000D01*
X119937958Y-73987042D01*
X120215042Y-73709958D01*
X120365000Y-73347929D01*
X120365000Y-72956071D01*
X120328105Y-72867000D01*
X120337929Y-72867000D01*
X120699958Y-72717042D01*
X120977042Y-72439958D01*
X121127000Y-72077929D01*
X121127000Y-71686071D01*
X120977042Y-71324042D01*
X120699958Y-71046958D01*
X120337929Y-70897000D01*
X119946071Y-70897000D01*
X119584042Y-71046958D01*
X119306958Y-71324042D01*
X119157000Y-71686071D01*
X119157000Y-72077929D01*
X119193895Y-72167000D01*
X119184071Y-72167000D01*
X118822042Y-72316958D01*
X118544958Y-72594042D01*
X118395000Y-72956071D01*
X117317000Y-72956071D01*
X117167042Y-72594042D01*
X116889958Y-72316958D01*
X116527929Y-72167000D01*
X116136071Y-72167000D01*
X115774042Y-72316958D01*
X115570000Y-72521000D01*
X115365958Y-72316958D01*
X115003929Y-72167000D01*
X114612071Y-72167000D01*
X114250042Y-72316958D01*
X113972958Y-72594042D01*
X113823000Y-72956071D01*
X113253000Y-72956071D01*
X113253000Y-72702071D01*
X113180346Y-72526670D01*
X113333958Y-72463042D01*
X113611042Y-72185958D01*
X113761000Y-71823929D01*
X113761000Y-71432071D01*
X113611042Y-71070042D01*
X113333958Y-70792958D01*
X113037284Y-70670071D01*
X125253004Y-70670071D01*
X125253004Y-71061929D01*
X125402962Y-71423958D01*
X125680046Y-71701042D01*
X126015000Y-71839785D01*
X126015000Y-71965931D01*
X126164958Y-72327960D01*
X126442042Y-72605044D01*
X126804071Y-72755002D01*
X127195929Y-72755002D01*
X127557958Y-72605044D01*
X127624546Y-72538456D01*
X127688958Y-72693958D01*
X127966042Y-72971042D01*
X128047000Y-73004576D01*
X128047000Y-73347929D01*
X128196958Y-73709958D01*
X128474042Y-73987042D01*
X128836071Y-74137000D01*
X129227929Y-74137000D01*
X129589958Y-73987042D01*
X129867042Y-73709958D01*
X129868395Y-73706692D01*
X129974958Y-73963958D01*
X130179000Y-74168000D01*
X129974958Y-74372042D01*
X129825000Y-74734071D01*
X129825000Y-75125929D01*
X129974958Y-75487958D01*
X130252042Y-75765042D01*
X130614071Y-75915000D01*
X131005929Y-75915000D01*
X131367958Y-75765042D01*
X131645042Y-75487958D01*
X131787071Y-75145071D01*
X132129958Y-75003042D01*
X132407042Y-74725958D01*
X132557000Y-74363929D01*
X132557000Y-74223495D01*
X132900071Y-74365600D01*
X133291929Y-74365600D01*
X133625712Y-74227342D01*
X133729161Y-74747418D01*
X134057375Y-75238625D01*
X134075619Y-75250816D01*
X134030235Y-75259843D01*
X133820191Y-75400191D01*
X133679843Y-75610235D01*
X133630560Y-75858000D01*
X133630560Y-77558000D01*
X133679843Y-77805765D01*
X133820191Y-78015809D01*
X133898720Y-78068280D01*
X133784958Y-78182042D01*
X133635000Y-78544071D01*
X133635000Y-78935929D01*
X133784958Y-79297958D01*
X134062042Y-79575042D01*
X134175877Y-79622194D01*
X134057375Y-79701375D01*
X133729161Y-80192582D01*
X133632671Y-80677671D01*
X133399958Y-80444958D01*
X133037929Y-80295000D01*
X132646071Y-80295000D01*
X132284042Y-80444958D01*
X132006958Y-80722042D01*
X131857000Y-81084071D01*
X131857000Y-81475929D01*
X132006958Y-81837958D01*
X132284042Y-82115042D01*
X132646071Y-82265000D01*
X133037929Y-82265000D01*
X133399958Y-82115042D01*
X133677042Y-81837958D01*
X133821396Y-81489458D01*
X134057375Y-81842625D01*
X134376478Y-82055843D01*
X134246642Y-82116817D01*
X133856355Y-82545076D01*
X133686524Y-82955110D01*
X133807845Y-83185000D01*
X135001000Y-83185000D01*
X135001000Y-83165000D01*
X135255000Y-83165000D01*
X135255000Y-83185000D01*
X136448155Y-83185000D01*
X136569476Y-82955110D01*
X136399645Y-82545076D01*
X136009358Y-82116817D01*
X135879522Y-82055843D01*
X136198625Y-81842625D01*
X136526839Y-81351418D01*
X136642092Y-80772000D01*
X136526839Y-80192582D01*
X136198625Y-79701375D01*
X135707418Y-79373161D01*
X135434188Y-79318812D01*
X135455042Y-79297958D01*
X135605000Y-78935929D01*
X135605000Y-78544071D01*
X135464734Y-78205440D01*
X135978000Y-78205440D01*
X136225765Y-78156157D01*
X136435809Y-78015809D01*
X136576157Y-77805765D01*
X136625440Y-77558000D01*
X136625440Y-75858000D01*
X136576157Y-75610235D01*
X136435809Y-75400191D01*
X136225765Y-75259843D01*
X136180381Y-75250816D01*
X136198625Y-75238625D01*
X136526839Y-74747418D01*
X136642092Y-74168000D01*
X136526839Y-73588582D01*
X136198625Y-73097375D01*
X135900239Y-72898000D01*
X136198625Y-72698625D01*
X136526839Y-72207418D01*
X136642092Y-71628000D01*
X136526839Y-71048582D01*
X136198625Y-70557375D01*
X135707418Y-70229161D01*
X135274256Y-70143000D01*
X134981744Y-70143000D01*
X134548582Y-70229161D01*
X134057375Y-70557375D01*
X133729161Y-71048582D01*
X133613908Y-71628000D01*
X133729161Y-72207418D01*
X134057375Y-72698625D01*
X134355761Y-72898000D01*
X134057375Y-73097375D01*
X134049637Y-73108955D01*
X133931042Y-72822642D01*
X133653958Y-72545558D01*
X133291929Y-72395600D01*
X132900071Y-72395600D01*
X132538042Y-72545558D01*
X132260958Y-72822642D01*
X132111000Y-73184671D01*
X132111000Y-73325105D01*
X131787071Y-73190929D01*
X131645042Y-72848042D01*
X131367958Y-72570958D01*
X131005929Y-72421000D01*
X130614071Y-72421000D01*
X130252042Y-72570958D01*
X129974958Y-72848042D01*
X129973605Y-72851308D01*
X129867042Y-72594042D01*
X129589958Y-72316958D01*
X129509000Y-72283424D01*
X129509000Y-71940071D01*
X129359042Y-71578042D01*
X129081958Y-71300958D01*
X128719929Y-71151000D01*
X128328071Y-71151000D01*
X127966042Y-71300958D01*
X127899454Y-71367546D01*
X127835042Y-71212044D01*
X127557958Y-70934960D01*
X127223004Y-70796217D01*
X127223004Y-70670071D01*
X127073046Y-70308042D01*
X126795962Y-70030958D01*
X126433933Y-69881000D01*
X126042075Y-69881000D01*
X125680046Y-70030958D01*
X125402962Y-70308042D01*
X125253004Y-70670071D01*
X113037284Y-70670071D01*
X112971929Y-70643000D01*
X112580071Y-70643000D01*
X112218042Y-70792958D01*
X111940958Y-71070042D01*
X111791000Y-71432071D01*
X111791000Y-71823929D01*
X111863654Y-71999330D01*
X111710042Y-72062958D01*
X111432958Y-72340042D01*
X111283000Y-72702071D01*
X110967000Y-72702071D01*
X110817042Y-72340042D01*
X110539958Y-72062958D01*
X110177929Y-71913000D01*
X109786071Y-71913000D01*
X109424042Y-72062958D01*
X109199307Y-72287693D01*
X108907929Y-72167000D01*
X108516071Y-72167000D01*
X108154042Y-72316958D01*
X107876958Y-72594042D01*
X107727000Y-72956071D01*
X104147284Y-72956071D01*
X104081929Y-72929000D01*
X103690071Y-72929000D01*
X103328042Y-73078958D01*
X103050958Y-73356042D01*
X102901000Y-73718071D01*
X102818000Y-73718071D01*
X102818000Y-71686071D01*
X104933000Y-71686071D01*
X104933000Y-72077929D01*
X105082958Y-72439958D01*
X105360042Y-72717042D01*
X105722071Y-72867000D01*
X106113929Y-72867000D01*
X106475958Y-72717042D01*
X106753042Y-72439958D01*
X106903000Y-72077929D01*
X106903000Y-71734576D01*
X106983958Y-71701042D01*
X107261042Y-71423958D01*
X107411000Y-71061929D01*
X107411000Y-70670071D01*
X107261042Y-70308042D01*
X106983958Y-70030958D01*
X106621929Y-69881000D01*
X106230071Y-69881000D01*
X105868042Y-70030958D01*
X105590958Y-70308042D01*
X105441000Y-70670071D01*
X105441000Y-71013424D01*
X105360042Y-71046958D01*
X105082958Y-71324042D01*
X104933000Y-71686071D01*
X102818000Y-71686071D01*
X102818000Y-69400071D01*
X114839000Y-69400071D01*
X114839000Y-69791929D01*
X114988958Y-70153958D01*
X115266042Y-70431042D01*
X115628071Y-70581000D01*
X116019929Y-70581000D01*
X116381958Y-70431042D01*
X116659042Y-70153958D01*
X116809000Y-69791929D01*
X116809000Y-69400071D01*
X116659042Y-69038042D01*
X116381958Y-68760958D01*
X116019929Y-68611000D01*
X115628071Y-68611000D01*
X115266042Y-68760958D01*
X114988958Y-69038042D01*
X114839000Y-69400071D01*
X102818000Y-69400071D01*
X102818000Y-67622071D01*
X112552998Y-67622071D01*
X112552998Y-68013929D01*
X112702956Y-68375958D01*
X112980040Y-68653042D01*
X113342069Y-68803000D01*
X113733927Y-68803000D01*
X114095956Y-68653042D01*
X114373040Y-68375958D01*
X114506453Y-68053871D01*
X121163600Y-68053871D01*
X121163600Y-68445729D01*
X121313558Y-68807758D01*
X121590642Y-69084842D01*
X121952671Y-69234800D01*
X122344529Y-69234800D01*
X122706558Y-69084842D01*
X122983642Y-68807758D01*
X123133600Y-68445729D01*
X123133600Y-68053871D01*
X122983642Y-67691842D01*
X122706558Y-67414758D01*
X122344529Y-67264800D01*
X121952671Y-67264800D01*
X121590642Y-67414758D01*
X121313558Y-67691842D01*
X121163600Y-68053871D01*
X114506453Y-68053871D01*
X114522998Y-68013929D01*
X114522998Y-67622071D01*
X114373040Y-67260042D01*
X114095956Y-66982958D01*
X113733927Y-66833000D01*
X113342069Y-66833000D01*
X112980040Y-66982958D01*
X112702956Y-67260042D01*
X112552998Y-67622071D01*
X102818000Y-67622071D01*
X102818000Y-66098071D01*
X110775000Y-66098071D01*
X110775000Y-66489929D01*
X110924958Y-66851958D01*
X111202042Y-67129042D01*
X111564071Y-67279000D01*
X111955929Y-67279000D01*
X112317958Y-67129042D01*
X112595042Y-66851958D01*
X112745000Y-66489929D01*
X112745000Y-66098071D01*
X112595042Y-65736042D01*
X112449071Y-65590071D01*
X113823000Y-65590071D01*
X113823000Y-65981929D01*
X113972958Y-66343958D01*
X114250042Y-66621042D01*
X114612071Y-66771000D01*
X115003929Y-66771000D01*
X115365958Y-66621042D01*
X115643042Y-66343958D01*
X115793000Y-65981929D01*
X115793000Y-65590071D01*
X115643042Y-65228042D01*
X115365958Y-64950958D01*
X115003929Y-64801000D01*
X114612071Y-64801000D01*
X114250042Y-64950958D01*
X113972958Y-65228042D01*
X113823000Y-65590071D01*
X112449071Y-65590071D01*
X112317958Y-65458958D01*
X111955929Y-65309000D01*
X111564071Y-65309000D01*
X111202042Y-65458958D01*
X110924958Y-65736042D01*
X110775000Y-66098071D01*
X102818000Y-66098071D01*
X102818000Y-64693407D01*
X102928071Y-64739000D01*
X103319929Y-64739000D01*
X103681958Y-64589042D01*
X103703191Y-64567809D01*
X122795462Y-64567809D01*
X122795462Y-64959667D01*
X122945420Y-65321696D01*
X123222504Y-65598780D01*
X123584533Y-65748738D01*
X123976391Y-65748738D01*
X124338420Y-65598780D01*
X124615504Y-65321696D01*
X124765462Y-64959667D01*
X124765462Y-64828071D01*
X124857000Y-64828071D01*
X124857000Y-65219929D01*
X125006958Y-65581958D01*
X125020500Y-65595500D01*
X125006958Y-65609042D01*
X124857000Y-65971071D01*
X124857000Y-66362929D01*
X125006958Y-66724958D01*
X125284042Y-67002042D01*
X125646071Y-67152000D01*
X126037929Y-67152000D01*
X126399958Y-67002042D01*
X126541929Y-66860071D01*
X130079000Y-66860071D01*
X130079000Y-67251929D01*
X130228958Y-67613958D01*
X130506042Y-67891042D01*
X130868071Y-68041000D01*
X131259929Y-68041000D01*
X131621958Y-67891042D01*
X131899042Y-67613958D01*
X132049000Y-67251929D01*
X132049000Y-66860071D01*
X131899042Y-66498042D01*
X131621958Y-66220958D01*
X131259929Y-66071000D01*
X130868071Y-66071000D01*
X130506042Y-66220958D01*
X130228958Y-66498042D01*
X130079000Y-66860071D01*
X126541929Y-66860071D01*
X126677042Y-66724958D01*
X126827000Y-66362929D01*
X126827000Y-65971071D01*
X126677042Y-65609042D01*
X126663500Y-65595500D01*
X126677042Y-65581958D01*
X126827000Y-65219929D01*
X126827000Y-64828071D01*
X126677042Y-64466042D01*
X126399958Y-64188958D01*
X126037929Y-64039000D01*
X125646071Y-64039000D01*
X125284042Y-64188958D01*
X125006958Y-64466042D01*
X124857000Y-64828071D01*
X124765462Y-64828071D01*
X124765462Y-64567809D01*
X124615504Y-64205780D01*
X124338420Y-63928696D01*
X124056864Y-63812071D01*
X127034902Y-63812071D01*
X127034902Y-64203929D01*
X127184860Y-64565958D01*
X127461944Y-64843042D01*
X127823973Y-64993000D01*
X128215831Y-64993000D01*
X128577860Y-64843042D01*
X128854944Y-64565958D01*
X129004902Y-64203929D01*
X129004902Y-64008000D01*
X133613908Y-64008000D01*
X133729161Y-64587418D01*
X134057375Y-65078625D01*
X134355761Y-65278000D01*
X134057375Y-65477375D01*
X133729161Y-65968582D01*
X133613908Y-66548000D01*
X133729161Y-67127418D01*
X134057375Y-67618625D01*
X134548582Y-67946839D01*
X134981744Y-68033000D01*
X135274256Y-68033000D01*
X135707418Y-67946839D01*
X136198625Y-67618625D01*
X136526839Y-67127418D01*
X136642092Y-66548000D01*
X136526839Y-65968582D01*
X136198625Y-65477375D01*
X135900239Y-65278000D01*
X136198625Y-65078625D01*
X136526839Y-64587418D01*
X136642092Y-64008000D01*
X136526839Y-63428582D01*
X136198625Y-62937375D01*
X136180381Y-62925184D01*
X136225765Y-62916157D01*
X136435809Y-62775809D01*
X136576157Y-62565765D01*
X136625440Y-62318000D01*
X136625440Y-60618000D01*
X136576157Y-60370235D01*
X136435809Y-60160191D01*
X136225765Y-60019843D01*
X135978000Y-59970560D01*
X134278000Y-59970560D01*
X134030235Y-60019843D01*
X133820191Y-60160191D01*
X133679843Y-60370235D01*
X133630560Y-60618000D01*
X133630560Y-62318000D01*
X133679843Y-62565765D01*
X133820191Y-62775809D01*
X134030235Y-62916157D01*
X134075619Y-62925184D01*
X134057375Y-62937375D01*
X133729161Y-63428582D01*
X133613908Y-64008000D01*
X129004902Y-64008000D01*
X129004902Y-63812071D01*
X128854944Y-63450042D01*
X128577860Y-63172958D01*
X128215831Y-63023000D01*
X127823973Y-63023000D01*
X127461944Y-63172958D01*
X127184860Y-63450042D01*
X127034902Y-63812071D01*
X124056864Y-63812071D01*
X123976391Y-63778738D01*
X123584533Y-63778738D01*
X123222504Y-63928696D01*
X122945420Y-64205780D01*
X122795462Y-64567809D01*
X103703191Y-64567809D01*
X103959042Y-64311958D01*
X104109000Y-63949929D01*
X104109000Y-63558071D01*
X103959042Y-63196042D01*
X103681958Y-62918958D01*
X103319929Y-62769000D01*
X102928071Y-62769000D01*
X102818000Y-62814593D01*
X102818000Y-62288071D01*
X108489000Y-62288071D01*
X108489000Y-62679929D01*
X108638958Y-63041958D01*
X108916042Y-63319042D01*
X109278071Y-63469000D01*
X109669929Y-63469000D01*
X110031958Y-63319042D01*
X110309042Y-63041958D01*
X110459000Y-62679929D01*
X110459000Y-62288071D01*
X110309042Y-61926042D01*
X110031958Y-61648958D01*
X109669929Y-61499000D01*
X109278071Y-61499000D01*
X108916042Y-61648958D01*
X108638958Y-61926042D01*
X108489000Y-62288071D01*
X102818000Y-62288071D01*
X102818000Y-61031000D01*
X103074042Y-61287042D01*
X103436071Y-61437000D01*
X103827929Y-61437000D01*
X104189958Y-61287042D01*
X104467042Y-61009958D01*
X104617000Y-60647929D01*
X104617000Y-60256071D01*
X104467042Y-59894042D01*
X104189958Y-59616958D01*
X103827929Y-59467000D01*
X103436071Y-59467000D01*
X103074042Y-59616958D01*
X102818000Y-59873000D01*
X102818000Y-57208071D01*
X113823000Y-57208071D01*
X113823000Y-57599929D01*
X113972958Y-57961958D01*
X114250042Y-58239042D01*
X114612071Y-58389000D01*
X115003929Y-58389000D01*
X115365958Y-58239042D01*
X115380929Y-58224071D01*
X122967000Y-58224071D01*
X122967000Y-58615929D01*
X123116958Y-58977958D01*
X123394042Y-59255042D01*
X123756071Y-59405000D01*
X124135345Y-59405000D01*
X124158358Y-59460558D01*
X124435442Y-59737642D01*
X124797471Y-59887600D01*
X125189329Y-59887600D01*
X125551358Y-59737642D01*
X125828442Y-59460558D01*
X125919771Y-59240071D01*
X128047000Y-59240071D01*
X128047000Y-59631929D01*
X128196958Y-59993958D01*
X128474042Y-60271042D01*
X128836071Y-60421000D01*
X129227929Y-60421000D01*
X129589958Y-60271042D01*
X129867042Y-59993958D01*
X130017000Y-59631929D01*
X130017000Y-59240071D01*
X131603000Y-59240071D01*
X131603000Y-59631929D01*
X131752958Y-59993958D01*
X132030042Y-60271042D01*
X132392071Y-60421000D01*
X132783929Y-60421000D01*
X133145958Y-60271042D01*
X133423042Y-59993958D01*
X133573000Y-59631929D01*
X133573000Y-59240071D01*
X133423042Y-58878042D01*
X133145958Y-58600958D01*
X132783929Y-58451000D01*
X132392071Y-58451000D01*
X132030042Y-58600958D01*
X131752958Y-58878042D01*
X131603000Y-59240071D01*
X130017000Y-59240071D01*
X129867042Y-58878042D01*
X129589958Y-58600958D01*
X129227929Y-58451000D01*
X128836071Y-58451000D01*
X128474042Y-58600958D01*
X128196958Y-58878042D01*
X128047000Y-59240071D01*
X125919771Y-59240071D01*
X125978400Y-59098529D01*
X125978400Y-58706671D01*
X125828442Y-58344642D01*
X125551358Y-58067558D01*
X125189329Y-57917600D01*
X124810055Y-57917600D01*
X124787042Y-57862042D01*
X124509958Y-57584958D01*
X124147929Y-57435000D01*
X123756071Y-57435000D01*
X123394042Y-57584958D01*
X123116958Y-57862042D01*
X122967000Y-58224071D01*
X115380929Y-58224071D01*
X115643042Y-57961958D01*
X115793000Y-57599929D01*
X115793000Y-57208071D01*
X115643042Y-56846042D01*
X115365958Y-56568958D01*
X115003929Y-56419000D01*
X114612071Y-56419000D01*
X114250042Y-56568958D01*
X113972958Y-56846042D01*
X113823000Y-57208071D01*
X102818000Y-57208071D01*
X102818000Y-56192071D01*
X126523000Y-56192071D01*
X126523000Y-56583929D01*
X126672958Y-56945958D01*
X126950042Y-57223042D01*
X127312071Y-57373000D01*
X127703929Y-57373000D01*
X128065958Y-57223042D01*
X128343042Y-56945958D01*
X128493000Y-56583929D01*
X128493000Y-56192071D01*
X128343042Y-55830042D01*
X128082467Y-55569467D01*
X128328071Y-55671200D01*
X128719929Y-55671200D01*
X129081958Y-55521242D01*
X129359042Y-55244158D01*
X129509000Y-54882129D01*
X129509000Y-54490271D01*
X129359042Y-54128242D01*
X129081958Y-53851158D01*
X128719929Y-53701200D01*
X128328071Y-53701200D01*
X127966042Y-53851158D01*
X127688958Y-54128242D01*
X127539000Y-54490271D01*
X127539000Y-54882129D01*
X127688958Y-55244158D01*
X127949533Y-55504733D01*
X127703929Y-55403000D01*
X127312071Y-55403000D01*
X126950042Y-55552958D01*
X126672958Y-55830042D01*
X126523000Y-56192071D01*
X102818000Y-56192071D01*
X102818000Y-54160071D01*
X107727000Y-54160071D01*
X107727000Y-54551929D01*
X107876958Y-54913958D01*
X108154042Y-55191042D01*
X108516071Y-55341000D01*
X108907929Y-55341000D01*
X109269958Y-55191042D01*
X109547042Y-54913958D01*
X109697000Y-54551929D01*
X109697000Y-54414071D01*
X123475000Y-54414071D01*
X123475000Y-54805929D01*
X123624958Y-55167958D01*
X123902042Y-55445042D01*
X124264071Y-55595000D01*
X124655929Y-55595000D01*
X125017958Y-55445042D01*
X125295042Y-55167958D01*
X125445000Y-54805929D01*
X125445000Y-54414071D01*
X125295042Y-54052042D01*
X125017958Y-53774958D01*
X124655929Y-53625000D01*
X124264071Y-53625000D01*
X123902042Y-53774958D01*
X123624958Y-54052042D01*
X123475000Y-54414071D01*
X109697000Y-54414071D01*
X109697000Y-54160071D01*
X109591346Y-53905000D01*
X110093004Y-53905000D01*
X110767444Y-53625638D01*
X111283638Y-53109444D01*
X111479715Y-52636071D01*
X121951000Y-52636071D01*
X121951000Y-53027929D01*
X122100958Y-53389958D01*
X122378042Y-53667042D01*
X122740071Y-53817000D01*
X123131929Y-53817000D01*
X123493958Y-53667042D01*
X123771042Y-53389958D01*
X123921000Y-53027929D01*
X123921000Y-52636071D01*
X123771042Y-52274042D01*
X123493958Y-51996958D01*
X123131929Y-51847000D01*
X122740071Y-51847000D01*
X122378042Y-51996958D01*
X122100958Y-52274042D01*
X121951000Y-52636071D01*
X111479715Y-52636071D01*
X111563000Y-52435004D01*
X111563000Y-51704996D01*
X124393000Y-51704996D01*
X124393000Y-52435004D01*
X124672362Y-53109444D01*
X125188556Y-53625638D01*
X125862996Y-53905000D01*
X126593004Y-53905000D01*
X127267444Y-53625638D01*
X127783638Y-53109444D01*
X128063000Y-52435004D01*
X128063000Y-51704996D01*
X127954176Y-51442271D01*
X131171200Y-51442271D01*
X131171200Y-51834129D01*
X131321158Y-52196158D01*
X131598242Y-52473242D01*
X131960271Y-52623200D01*
X132352129Y-52623200D01*
X132714158Y-52473242D01*
X132991242Y-52196158D01*
X133141200Y-51834129D01*
X133141200Y-51442271D01*
X132991242Y-51080242D01*
X132714158Y-50803158D01*
X132352129Y-50653200D01*
X131960271Y-50653200D01*
X131598242Y-50803158D01*
X131321158Y-51080242D01*
X131171200Y-51442271D01*
X127954176Y-51442271D01*
X127783638Y-51030556D01*
X127267444Y-50514362D01*
X126593004Y-50235000D01*
X125862996Y-50235000D01*
X125188556Y-50514362D01*
X124672362Y-51030556D01*
X124393000Y-51704996D01*
X111563000Y-51704996D01*
X111283638Y-51030556D01*
X110767444Y-50514362D01*
X110093004Y-50235000D01*
X109362996Y-50235000D01*
X108688556Y-50514362D01*
X108172362Y-51030556D01*
X107893000Y-51704996D01*
X107893000Y-52435004D01*
X108172362Y-53109444D01*
X108457980Y-53395062D01*
X108154042Y-53520958D01*
X107876958Y-53798042D01*
X107727000Y-54160071D01*
X102818000Y-54160071D01*
X102818000Y-47048071D01*
X107219000Y-47048071D01*
X107219000Y-47439929D01*
X107368958Y-47801958D01*
X107646042Y-48079042D01*
X108008071Y-48229000D01*
X108399929Y-48229000D01*
X108761958Y-48079042D01*
X109039042Y-47801958D01*
X109189000Y-47439929D01*
X109189000Y-47048071D01*
X111283000Y-47048071D01*
X111283000Y-47439929D01*
X111432958Y-47801958D01*
X111710042Y-48079042D01*
X112072071Y-48229000D01*
X112463929Y-48229000D01*
X112825958Y-48079042D01*
X112900058Y-48004942D01*
X113134008Y-48238892D01*
X113725751Y-48484000D01*
X114366249Y-48484000D01*
X114957992Y-48238892D01*
X115410892Y-47785992D01*
X115656000Y-47194249D01*
X115656000Y-46553751D01*
X119936000Y-46553751D01*
X119936000Y-47194249D01*
X120181108Y-47785992D01*
X120634008Y-48238892D01*
X121225751Y-48484000D01*
X121866249Y-48484000D01*
X122457992Y-48238892D01*
X122910892Y-47785992D01*
X123156000Y-47194249D01*
X123156000Y-47048071D01*
X123983000Y-47048071D01*
X123983000Y-47439929D01*
X124132958Y-47801958D01*
X124410042Y-48079042D01*
X124772071Y-48229000D01*
X125163929Y-48229000D01*
X125525958Y-48079042D01*
X125803042Y-47801958D01*
X125953000Y-47439929D01*
X125953000Y-47048071D01*
X125803042Y-46686042D01*
X125525958Y-46408958D01*
X125163929Y-46259000D01*
X124772071Y-46259000D01*
X124410042Y-46408958D01*
X124132958Y-46686042D01*
X123983000Y-47048071D01*
X123156000Y-47048071D01*
X123156000Y-46553751D01*
X122910892Y-45962008D01*
X122457992Y-45509108D01*
X121866249Y-45264000D01*
X121225751Y-45264000D01*
X120634008Y-45509108D01*
X120181108Y-45962008D01*
X119936000Y-46553751D01*
X115656000Y-46553751D01*
X115410892Y-45962008D01*
X114957992Y-45509108D01*
X114366249Y-45264000D01*
X113725751Y-45264000D01*
X113134008Y-45509108D01*
X112681108Y-45962008D01*
X112544300Y-46292291D01*
X112463929Y-46259000D01*
X112072071Y-46259000D01*
X111710042Y-46408958D01*
X111432958Y-46686042D01*
X111283000Y-47048071D01*
X109189000Y-47048071D01*
X109039042Y-46686042D01*
X108761958Y-46408958D01*
X108399929Y-46259000D01*
X108008071Y-46259000D01*
X107646042Y-46408958D01*
X107368958Y-46686042D01*
X107219000Y-47048071D01*
X102818000Y-47048071D01*
X102818000Y-42826129D01*
X110148500Y-42826129D01*
X110148500Y-43421871D01*
X110376481Y-43972266D01*
X110797734Y-44393519D01*
X111348129Y-44621500D01*
X111943871Y-44621500D01*
X112494266Y-44393519D01*
X112915519Y-43972266D01*
X113143500Y-43421871D01*
X113143500Y-42826129D01*
X112915519Y-42275734D01*
X112494266Y-41854481D01*
X111943871Y-41626500D01*
X111348129Y-41626500D01*
X110797734Y-41854481D01*
X110376481Y-42275734D01*
X110148500Y-42826129D01*
X102818000Y-42826129D01*
X102818000Y-38302000D01*
X108300918Y-38302000D01*
X108172362Y-38430556D01*
X108172362Y-38430556D01*
G37*
X108172362Y-38430556D02*
X107893000Y-39104996D01*
X107893000Y-39835004D01*
X108172362Y-40509444D01*
X108688556Y-41025638D01*
X109362996Y-41305000D01*
X110093004Y-41305000D01*
X110767444Y-41025638D01*
X111283638Y-40509444D01*
X111563000Y-39835004D01*
X111563000Y-39104996D01*
X111283638Y-38430556D01*
X111155082Y-38302000D01*
X112878984Y-38302000D01*
X112553944Y-38627040D01*
X112286000Y-39273914D01*
X112286000Y-39974086D01*
X112553944Y-40620960D01*
X113049040Y-41116056D01*
X113695914Y-41384000D01*
X114396086Y-41384000D01*
X115042960Y-41116056D01*
X115538056Y-40620960D01*
X115806000Y-39974086D01*
X115806000Y-39273914D01*
X115538056Y-38627040D01*
X115213016Y-38302000D01*
X117298756Y-38302000D01*
X117037257Y-38563499D01*
X116799000Y-39138702D01*
X116799000Y-39761298D01*
X117037257Y-40336501D01*
X117400756Y-40700000D01*
X117037257Y-41063499D01*
X116799000Y-41638702D01*
X116799000Y-42261298D01*
X117037257Y-42836501D01*
X117400756Y-43200000D01*
X117037257Y-43563499D01*
X116799000Y-44138702D01*
X116799000Y-44761298D01*
X117037257Y-45336501D01*
X117477499Y-45776743D01*
X118052702Y-46015000D01*
X118675298Y-46015000D01*
X119250501Y-45776743D01*
X119690743Y-45336501D01*
X119823469Y-45016071D01*
X124491000Y-45016071D01*
X124491000Y-45407929D01*
X124640958Y-45769958D01*
X124918042Y-46047042D01*
X125280071Y-46197000D01*
X125671929Y-46197000D01*
X126033958Y-46047042D01*
X126311042Y-45769958D01*
X126391850Y-45574871D01*
X132507000Y-45574871D01*
X132507000Y-45966729D01*
X132656958Y-46328758D01*
X132934042Y-46605842D01*
X133296071Y-46755800D01*
X133687929Y-46755800D01*
X134049958Y-46605842D01*
X134327042Y-46328758D01*
X134421016Y-46101885D01*
X134609761Y-46228000D01*
X134311375Y-46427375D01*
X133983161Y-46918582D01*
X133933654Y-47167470D01*
X133825329Y-47122600D01*
X133433471Y-47122600D01*
X133071442Y-47272558D01*
X132794358Y-47549642D01*
X132644400Y-47911671D01*
X132644400Y-48303529D01*
X132794358Y-48665558D01*
X133071442Y-48942642D01*
X133433471Y-49092600D01*
X133825329Y-49092600D01*
X134187358Y-48942642D01*
X134461239Y-48668761D01*
X134609761Y-48768000D01*
X134311375Y-48967375D01*
X133983161Y-49458582D01*
X133867908Y-50038000D01*
X133983161Y-50617418D01*
X134311375Y-51108625D01*
X134609761Y-51308000D01*
X134311375Y-51507375D01*
X133983161Y-51998582D01*
X133867908Y-52578000D01*
X133983161Y-53157418D01*
X134311375Y-53648625D01*
X134802582Y-53976839D01*
X135235744Y-54063000D01*
X135528256Y-54063000D01*
X135961418Y-53976839D01*
X136452625Y-53648625D01*
X136780839Y-53157418D01*
X136896092Y-52578000D01*
X136780839Y-51998582D01*
X136452625Y-51507375D01*
X136154239Y-51308000D01*
X136452625Y-51108625D01*
X136780839Y-50617418D01*
X136896092Y-50038000D01*
X136780839Y-49458582D01*
X136452625Y-48967375D01*
X136154239Y-48768000D01*
X136452625Y-48568625D01*
X136780839Y-48077418D01*
X136896092Y-47498000D01*
X136780839Y-46918582D01*
X136452625Y-46427375D01*
X136154239Y-46228000D01*
X136452625Y-46028625D01*
X136780839Y-45537418D01*
X136896092Y-44958000D01*
X136780839Y-44378582D01*
X136452625Y-43887375D01*
X136154239Y-43688000D01*
X136452625Y-43488625D01*
X136780839Y-42997418D01*
X136896092Y-42418000D01*
X136780839Y-41838582D01*
X136452625Y-41347375D01*
X136430967Y-41332904D01*
X136591698Y-41266327D01*
X136770327Y-41087699D01*
X136867000Y-40854310D01*
X136867000Y-40163750D01*
X136708250Y-40005000D01*
X135509000Y-40005000D01*
X135509000Y-40025000D01*
X135255000Y-40025000D01*
X135255000Y-40005000D01*
X134055750Y-40005000D01*
X133897000Y-40163750D01*
X133897000Y-40854310D01*
X133993673Y-41087699D01*
X134172302Y-41266327D01*
X134333033Y-41332904D01*
X134311375Y-41347375D01*
X133983161Y-41838582D01*
X133867908Y-42418000D01*
X133983161Y-42997418D01*
X134311375Y-43488625D01*
X134609761Y-43688000D01*
X134311375Y-43887375D01*
X133983161Y-44378582D01*
X133885853Y-44867783D01*
X133687929Y-44785800D01*
X133296071Y-44785800D01*
X132934042Y-44935758D01*
X132656958Y-45212842D01*
X132507000Y-45574871D01*
X126391850Y-45574871D01*
X126461000Y-45407929D01*
X126461000Y-45016071D01*
X126311042Y-44654042D01*
X126033958Y-44376958D01*
X125671929Y-44227000D01*
X125280071Y-44227000D01*
X124918042Y-44376958D01*
X124640958Y-44654042D01*
X124491000Y-45016071D01*
X119823469Y-45016071D01*
X119929000Y-44761298D01*
X119929000Y-44138702D01*
X119690743Y-43563499D01*
X119327244Y-43200000D01*
X119690743Y-42836501D01*
X119695039Y-42826129D01*
X122448500Y-42826129D01*
X122448500Y-43421871D01*
X122676481Y-43972266D01*
X123097734Y-44393519D01*
X123648129Y-44621500D01*
X124243871Y-44621500D01*
X124794266Y-44393519D01*
X125215519Y-43972266D01*
X125443500Y-43421871D01*
X125443500Y-42826129D01*
X125215519Y-42275734D01*
X124794266Y-41854481D01*
X124243871Y-41626500D01*
X123648129Y-41626500D01*
X123097734Y-41854481D01*
X122676481Y-42275734D01*
X122448500Y-42826129D01*
X119695039Y-42826129D01*
X119929000Y-42261298D01*
X119929000Y-41638702D01*
X119690743Y-41063499D01*
X119327244Y-40700000D01*
X119690743Y-40336501D01*
X119929000Y-39761298D01*
X119929000Y-39138702D01*
X119690743Y-38563499D01*
X119429244Y-38302000D01*
X124800918Y-38302000D01*
X124672362Y-38430556D01*
X124393000Y-39104996D01*
X124393000Y-39835004D01*
X124672362Y-40509444D01*
X125188556Y-41025638D01*
X125862996Y-41305000D01*
X126593004Y-41305000D01*
X127267444Y-41025638D01*
X127783638Y-40509444D01*
X128063000Y-39835004D01*
X128063000Y-39104996D01*
X127978788Y-38901690D01*
X133897000Y-38901690D01*
X133897000Y-39592250D01*
X134055750Y-39751000D01*
X135255000Y-39751000D01*
X135255000Y-38551750D01*
X135509000Y-38551750D01*
X135509000Y-39751000D01*
X136708250Y-39751000D01*
X136867000Y-39592250D01*
X136867000Y-38901690D01*
X136770327Y-38668301D01*
X136591698Y-38489673D01*
X136358309Y-38393000D01*
X135667750Y-38393000D01*
X135509000Y-38551750D01*
X135255000Y-38551750D01*
X135096250Y-38393000D01*
X134405691Y-38393000D01*
X134172302Y-38489673D01*
X133993673Y-38668301D01*
X133897000Y-38901690D01*
X127978788Y-38901690D01*
X127783638Y-38430556D01*
X127655082Y-38302000D01*
X136958000Y-38302000D01*
X136958001Y-155246000D01*
X118124486Y-155246000D01*
X118180600Y-155110529D01*
X118180600Y-154718671D01*
X118030642Y-154356642D01*
X117753558Y-154079558D01*
X117391529Y-153929600D01*
X116999671Y-153929600D01*
X116637642Y-154079558D01*
X116360558Y-154356642D01*
X116210600Y-154718671D01*
X116210600Y-155110529D01*
X116266714Y-155246000D01*
X111061465Y-155246000D01*
X111071371Y-155236094D01*
X111267000Y-154763802D01*
X111267000Y-154252598D01*
X111071371Y-153780306D01*
X110709894Y-153418829D01*
X110597976Y-153372471D01*
X130104400Y-153372471D01*
X130104400Y-153764329D01*
X130254358Y-154126358D01*
X130531442Y-154403442D01*
X130893471Y-154553400D01*
X131285329Y-154553400D01*
X131647358Y-154403442D01*
X131924442Y-154126358D01*
X132074400Y-153764329D01*
X132074400Y-153372471D01*
X131924442Y-153010442D01*
X131647358Y-152733358D01*
X131285329Y-152583400D01*
X130893471Y-152583400D01*
X130531442Y-152733358D01*
X130254358Y-153010442D01*
X130104400Y-153372471D01*
X110597976Y-153372471D01*
X110237602Y-153223200D01*
X109726398Y-153223200D01*
X109254106Y-153418829D01*
X108892629Y-153780306D01*
X108712000Y-154216385D01*
X108531371Y-153780306D01*
X108169894Y-153418829D01*
X107697602Y-153223200D01*
X107186398Y-153223200D01*
X106714106Y-153418829D01*
X106352629Y-153780306D01*
X106172000Y-154216385D01*
X105991371Y-153780306D01*
X105629894Y-153418829D01*
X105157602Y-153223200D01*
X104646398Y-153223200D01*
X104174106Y-153418829D01*
X103812629Y-153780306D01*
X103617000Y-154252598D01*
X103617000Y-154763802D01*
X103812629Y-155236094D01*
X103822535Y-155246000D01*
X102818000Y-155246000D01*
X102818000Y-152153271D01*
X103180400Y-152153271D01*
X103180400Y-152545129D01*
X103330358Y-152907158D01*
X103607442Y-153184242D01*
X103969471Y-153334200D01*
X104361329Y-153334200D01*
X104723358Y-153184242D01*
X105000442Y-152907158D01*
X105150400Y-152545129D01*
X105150400Y-152153271D01*
X105000442Y-151791242D01*
X104723358Y-151514158D01*
X104636225Y-151478066D01*
X112210824Y-151478066D01*
X112210824Y-151869924D01*
X112360782Y-152231953D01*
X112637866Y-152509037D01*
X112999895Y-152658995D01*
X113391753Y-152658995D01*
X113537447Y-152598647D01*
X113691242Y-152752442D01*
X114053271Y-152902400D01*
X114445129Y-152902400D01*
X114807158Y-152752442D01*
X115084242Y-152475358D01*
X115234200Y-152113329D01*
X115234200Y-151721471D01*
X115084242Y-151359442D01*
X114836671Y-151111871D01*
X123856000Y-151111871D01*
X123856000Y-151503729D01*
X124005958Y-151865758D01*
X124283042Y-152142842D01*
X124645071Y-152292800D01*
X125036929Y-152292800D01*
X125398958Y-152142842D01*
X125676042Y-151865758D01*
X125826000Y-151503729D01*
X125826000Y-151111871D01*
X125676042Y-150749842D01*
X125398958Y-150472758D01*
X125036929Y-150322800D01*
X124645071Y-150322800D01*
X124283042Y-150472758D01*
X124005958Y-150749842D01*
X123856000Y-151111871D01*
X114836671Y-151111871D01*
X114807158Y-151082358D01*
X114445129Y-150932400D01*
X114053271Y-150932400D01*
X113907577Y-150992748D01*
X113753782Y-150838953D01*
X113391753Y-150688995D01*
X112999895Y-150688995D01*
X112637866Y-150838953D01*
X112360782Y-151116037D01*
X112210824Y-151478066D01*
X104636225Y-151478066D01*
X104361329Y-151364200D01*
X103969471Y-151364200D01*
X103607442Y-151514158D01*
X103330358Y-151791242D01*
X103180400Y-152153271D01*
X102818000Y-152153271D01*
X102818000Y-150095871D01*
X126802400Y-150095871D01*
X126802400Y-150487729D01*
X126952358Y-150849758D01*
X127229442Y-151126842D01*
X127591471Y-151276800D01*
X127983329Y-151276800D01*
X128345358Y-151126842D01*
X128622442Y-150849758D01*
X128772400Y-150487729D01*
X128772400Y-150095871D01*
X128732307Y-149999076D01*
X131013995Y-149999076D01*
X131013995Y-150390934D01*
X131163953Y-150752963D01*
X131441037Y-151030047D01*
X131803066Y-151180005D01*
X132194924Y-151180005D01*
X132556953Y-151030047D01*
X132834037Y-150752963D01*
X132983995Y-150390934D01*
X132983995Y-149999076D01*
X132834037Y-149637047D01*
X132556953Y-149359963D01*
X132194924Y-149210005D01*
X131803066Y-149210005D01*
X131441037Y-149359963D01*
X131163953Y-149637047D01*
X131013995Y-149999076D01*
X128732307Y-149999076D01*
X128622442Y-149733842D01*
X128345358Y-149456758D01*
X127983329Y-149306800D01*
X127591471Y-149306800D01*
X127229442Y-149456758D01*
X126952358Y-149733842D01*
X126802400Y-150095871D01*
X102818000Y-150095871D01*
X102818000Y-148521071D01*
X115499400Y-148521071D01*
X115499400Y-148912929D01*
X115649358Y-149274958D01*
X115926442Y-149552042D01*
X116288471Y-149702000D01*
X116680329Y-149702000D01*
X117042358Y-149552042D01*
X117319442Y-149274958D01*
X117469400Y-148912929D01*
X117469400Y-148825871D01*
X118445800Y-148825871D01*
X118445800Y-149217729D01*
X118595758Y-149579758D01*
X118872842Y-149856842D01*
X119234871Y-150006800D01*
X119626729Y-150006800D01*
X119988758Y-149856842D01*
X120265842Y-149579758D01*
X120415800Y-149217729D01*
X120415800Y-148825871D01*
X120265842Y-148463842D01*
X119988758Y-148186758D01*
X119626729Y-148036800D01*
X119234871Y-148036800D01*
X118872842Y-148186758D01*
X118595758Y-148463842D01*
X118445800Y-148825871D01*
X117469400Y-148825871D01*
X117469400Y-148521071D01*
X117319442Y-148159042D01*
X117042358Y-147881958D01*
X116680329Y-147732000D01*
X116288471Y-147732000D01*
X115926442Y-147881958D01*
X115649358Y-148159042D01*
X115499400Y-148521071D01*
X102818000Y-148521071D01*
X102818000Y-147174871D01*
X107701600Y-147174871D01*
X107701600Y-147566729D01*
X107851558Y-147928758D01*
X108128642Y-148205842D01*
X108490671Y-148355800D01*
X108882529Y-148355800D01*
X109244558Y-148205842D01*
X109521642Y-147928758D01*
X109644534Y-147632071D01*
X121443000Y-147632071D01*
X121443000Y-148023929D01*
X121592958Y-148385958D01*
X121870042Y-148663042D01*
X122232071Y-148813000D01*
X122623929Y-148813000D01*
X122985958Y-148663042D01*
X123263042Y-148385958D01*
X123413000Y-148023929D01*
X123413000Y-147632071D01*
X123263042Y-147270042D01*
X123117071Y-147124071D01*
X123729000Y-147124071D01*
X123729000Y-147515929D01*
X123878958Y-147877958D01*
X124156042Y-148155042D01*
X124518071Y-148305000D01*
X124909929Y-148305000D01*
X125271958Y-148155042D01*
X125549042Y-147877958D01*
X125699000Y-147515929D01*
X125699000Y-147124071D01*
X125635874Y-146971671D01*
X128097800Y-146971671D01*
X128097800Y-147363529D01*
X128247758Y-147725558D01*
X128524842Y-148002642D01*
X128886871Y-148152600D01*
X129278729Y-148152600D01*
X129640758Y-148002642D01*
X129917842Y-147725558D01*
X130067800Y-147363529D01*
X130067800Y-147327271D01*
X132085600Y-147327271D01*
X132085600Y-147719129D01*
X132235558Y-148081158D01*
X132512642Y-148358242D01*
X132874671Y-148508200D01*
X133266529Y-148508200D01*
X133628558Y-148358242D01*
X133905642Y-148081158D01*
X134055600Y-147719129D01*
X134055600Y-147327271D01*
X133905642Y-146965242D01*
X133628558Y-146688158D01*
X133266529Y-146538200D01*
X132874671Y-146538200D01*
X132512642Y-146688158D01*
X132235558Y-146965242D01*
X132085600Y-147327271D01*
X130067800Y-147327271D01*
X130067800Y-146971671D01*
X129917842Y-146609642D01*
X129640758Y-146332558D01*
X129278729Y-146182600D01*
X128886871Y-146182600D01*
X128524842Y-146332558D01*
X128247758Y-146609642D01*
X128097800Y-146971671D01*
X125635874Y-146971671D01*
X125549042Y-146762042D01*
X125271958Y-146484958D01*
X124909929Y-146335000D01*
X124518071Y-146335000D01*
X124156042Y-146484958D01*
X123878958Y-146762042D01*
X123729000Y-147124071D01*
X123117071Y-147124071D01*
X122985958Y-146992958D01*
X122623929Y-146843000D01*
X122232071Y-146843000D01*
X121870042Y-146992958D01*
X121592958Y-147270042D01*
X121443000Y-147632071D01*
X109644534Y-147632071D01*
X109671600Y-147566729D01*
X109671600Y-147174871D01*
X109521642Y-146812842D01*
X109244558Y-146535758D01*
X108882529Y-146385800D01*
X108490671Y-146385800D01*
X108128642Y-146535758D01*
X107851558Y-146812842D01*
X107701600Y-147174871D01*
X102818000Y-147174871D01*
X102818000Y-145092071D01*
X104679000Y-145092071D01*
X104679000Y-145483929D01*
X104828958Y-145845958D01*
X105106042Y-146123042D01*
X105468071Y-146273000D01*
X105859929Y-146273000D01*
X106221958Y-146123042D01*
X106499042Y-145845958D01*
X106649000Y-145483929D01*
X106649000Y-145346071D01*
X125253000Y-145346071D01*
X125253000Y-145737929D01*
X125402958Y-146099958D01*
X125680042Y-146377042D01*
X126042071Y-146527000D01*
X126433929Y-146527000D01*
X126795958Y-146377042D01*
X127073042Y-146099958D01*
X127223000Y-145737929D01*
X127223000Y-145346071D01*
X127073042Y-144984042D01*
X126795958Y-144706958D01*
X126767292Y-144695084D01*
X126999158Y-144599042D01*
X127276242Y-144321958D01*
X127283402Y-144304671D01*
X131232000Y-144304671D01*
X131232000Y-144696529D01*
X131381958Y-145058558D01*
X131659042Y-145335642D01*
X132021071Y-145485600D01*
X132412929Y-145485600D01*
X132774958Y-145335642D01*
X133052042Y-145058558D01*
X133202000Y-144696529D01*
X133202000Y-144304671D01*
X133052042Y-143942642D01*
X132774958Y-143665558D01*
X132412929Y-143515600D01*
X132021071Y-143515600D01*
X131659042Y-143665558D01*
X131381958Y-143942642D01*
X131232000Y-144304671D01*
X127283402Y-144304671D01*
X127426200Y-143959929D01*
X127426200Y-143568071D01*
X127320386Y-143312614D01*
X127581042Y-143051958D01*
X127731000Y-142689929D01*
X127731000Y-142298071D01*
X127581042Y-141936042D01*
X127303958Y-141658958D01*
X126941929Y-141509000D01*
X126550071Y-141509000D01*
X126188042Y-141658958D01*
X125910958Y-141936042D01*
X125761000Y-142298071D01*
X125761000Y-142689929D01*
X125866814Y-142945386D01*
X125606158Y-143206042D01*
X125456200Y-143568071D01*
X125456200Y-143959929D01*
X125606158Y-144321958D01*
X125883242Y-144599042D01*
X125911908Y-144610916D01*
X125680042Y-144706958D01*
X125402958Y-144984042D01*
X125253000Y-145346071D01*
X106649000Y-145346071D01*
X106649000Y-145092071D01*
X106499042Y-144730042D01*
X106221958Y-144452958D01*
X105859929Y-144303000D01*
X105468071Y-144303000D01*
X105106042Y-144452958D01*
X104828958Y-144730042D01*
X104679000Y-145092071D01*
X102818000Y-145092071D01*
X102818000Y-143161671D01*
X122916200Y-143161671D01*
X122916200Y-143553529D01*
X123066158Y-143915558D01*
X123343242Y-144192642D01*
X123705271Y-144342600D01*
X124097129Y-144342600D01*
X124459158Y-144192642D01*
X124736242Y-143915558D01*
X124886200Y-143553529D01*
X124886200Y-143161671D01*
X124736242Y-142799642D01*
X124459158Y-142522558D01*
X124097129Y-142372600D01*
X123705271Y-142372600D01*
X123343242Y-142522558D01*
X123066158Y-142799642D01*
X122916200Y-143161671D01*
X102818000Y-143161671D01*
X102818000Y-140803000D01*
X104849560Y-140803000D01*
X104849560Y-142153000D01*
X104898843Y-142400765D01*
X105039191Y-142610809D01*
X105249235Y-142751157D01*
X105497000Y-142800440D01*
X106847000Y-142800440D01*
X107094765Y-142751157D01*
X107304809Y-142610809D01*
X107445157Y-142400765D01*
X107494440Y-142153000D01*
X107494440Y-142058313D01*
X107561436Y-142220055D01*
X107929945Y-142588564D01*
X108411425Y-142788000D01*
X108932575Y-142788000D01*
X109414055Y-142588564D01*
X109782564Y-142220055D01*
X109922000Y-141883427D01*
X110061436Y-142220055D01*
X110429945Y-142588564D01*
X110911425Y-142788000D01*
X111432575Y-142788000D01*
X111914055Y-142588564D01*
X112282564Y-142220055D01*
X112482000Y-141738575D01*
X112482000Y-141434471D01*
X120071400Y-141434471D01*
X120071400Y-141826329D01*
X120221358Y-142188358D01*
X120498442Y-142465442D01*
X120860471Y-142615400D01*
X121252329Y-142615400D01*
X121614358Y-142465442D01*
X121891442Y-142188358D01*
X121896779Y-142175474D01*
X121923158Y-142239158D01*
X122200242Y-142516242D01*
X122562271Y-142666200D01*
X122954129Y-142666200D01*
X123316158Y-142516242D01*
X123593242Y-142239158D01*
X123743200Y-141877129D01*
X123743200Y-141485271D01*
X123593242Y-141123242D01*
X123316158Y-140846158D01*
X122954129Y-140696200D01*
X122562271Y-140696200D01*
X122200242Y-140846158D01*
X121923158Y-141123242D01*
X121917821Y-141136126D01*
X121891442Y-141072442D01*
X121614358Y-140795358D01*
X121252329Y-140645400D01*
X120860471Y-140645400D01*
X120498442Y-140795358D01*
X120221358Y-141072442D01*
X120071400Y-141434471D01*
X112482000Y-141434471D01*
X112482000Y-141217425D01*
X112282564Y-140735945D01*
X111914055Y-140367436D01*
X111485377Y-140189871D01*
X125456200Y-140189871D01*
X125456200Y-140581729D01*
X125606158Y-140943758D01*
X125883242Y-141220842D01*
X126245271Y-141370800D01*
X126637129Y-141370800D01*
X126999158Y-141220842D01*
X127276242Y-140943758D01*
X127392424Y-140663272D01*
X127434958Y-140765958D01*
X127712042Y-141043042D01*
X128074071Y-141193000D01*
X128465929Y-141193000D01*
X128599964Y-141137481D01*
X128704958Y-141390958D01*
X128982042Y-141668042D01*
X129344071Y-141818000D01*
X129735929Y-141818000D01*
X130097958Y-141668042D01*
X130375042Y-141390958D01*
X130525000Y-141028929D01*
X130525000Y-140637071D01*
X130375042Y-140275042D01*
X130097958Y-139997958D01*
X129735929Y-139848000D01*
X129344071Y-139848000D01*
X129210036Y-139903519D01*
X129105042Y-139650042D01*
X128827958Y-139372958D01*
X128674346Y-139309330D01*
X128747000Y-139133929D01*
X128747000Y-138742071D01*
X131857000Y-138742071D01*
X131857000Y-139133929D01*
X132006958Y-139495958D01*
X132284042Y-139773042D01*
X132646071Y-139923000D01*
X133037929Y-139923000D01*
X133381000Y-139780895D01*
X133381000Y-139895929D01*
X133530958Y-140257958D01*
X133808042Y-140535042D01*
X134170071Y-140685000D01*
X134561929Y-140685000D01*
X134713983Y-140622017D01*
X134651000Y-140774071D01*
X134651000Y-141165929D01*
X134800958Y-141527958D01*
X135078042Y-141805042D01*
X135440071Y-141955000D01*
X135831929Y-141955000D01*
X136193958Y-141805042D01*
X136471042Y-141527958D01*
X136621000Y-141165929D01*
X136621000Y-140774071D01*
X136471042Y-140412042D01*
X136193958Y-140134958D01*
X135831929Y-139985000D01*
X135440071Y-139985000D01*
X135288017Y-140047983D01*
X135345493Y-139909224D01*
X135440071Y-139948400D01*
X135831929Y-139948400D01*
X136193958Y-139798442D01*
X136471042Y-139521358D01*
X136621000Y-139159329D01*
X136621000Y-138767471D01*
X136471042Y-138405442D01*
X136193958Y-138128358D01*
X135831929Y-137978400D01*
X135440071Y-137978400D01*
X135078042Y-138128358D01*
X134800958Y-138405442D01*
X134656507Y-138754176D01*
X134561929Y-138715000D01*
X134170071Y-138715000D01*
X133827000Y-138857105D01*
X133827000Y-138742071D01*
X133677042Y-138380042D01*
X133399958Y-138102958D01*
X133037929Y-137953000D01*
X132646071Y-137953000D01*
X132284042Y-138102958D01*
X132006958Y-138380042D01*
X131857000Y-138742071D01*
X128747000Y-138742071D01*
X128597042Y-138380042D01*
X128319958Y-138102958D01*
X127957929Y-137953000D01*
X127566071Y-137953000D01*
X127204042Y-138102958D01*
X126926958Y-138380042D01*
X126777000Y-138742071D01*
X126777000Y-139133929D01*
X126926958Y-139495958D01*
X126969454Y-139538454D01*
X126637129Y-139400800D01*
X126245271Y-139400800D01*
X125883242Y-139550758D01*
X125606158Y-139827842D01*
X125456200Y-140189871D01*
X111485377Y-140189871D01*
X111432575Y-140168000D01*
X110911425Y-140168000D01*
X110429945Y-140367436D01*
X110061436Y-140735945D01*
X109922000Y-141072573D01*
X109782564Y-140735945D01*
X109414055Y-140367436D01*
X108932575Y-140168000D01*
X108411425Y-140168000D01*
X107929945Y-140367436D01*
X107561436Y-140735945D01*
X107494440Y-140897687D01*
X107494440Y-140803000D01*
X107445157Y-140555235D01*
X107304809Y-140345191D01*
X107094765Y-140204843D01*
X106847000Y-140155560D01*
X105497000Y-140155560D01*
X105249235Y-140204843D01*
X105039191Y-140345191D01*
X104898843Y-140555235D01*
X104849560Y-140803000D01*
X102818000Y-140803000D01*
X102818000Y-137573671D01*
X114788200Y-137573671D01*
X114788200Y-137965529D01*
X114938158Y-138327558D01*
X115215242Y-138604642D01*
X115577271Y-138754600D01*
X115969129Y-138754600D01*
X116331158Y-138604642D01*
X116552730Y-138383070D01*
X116540800Y-138411871D01*
X116540800Y-138803729D01*
X116690758Y-139165758D01*
X116967842Y-139442842D01*
X117329871Y-139592800D01*
X117721729Y-139592800D01*
X118083758Y-139442842D01*
X118360842Y-139165758D01*
X118510800Y-138803729D01*
X118510800Y-138411871D01*
X118360842Y-138049842D01*
X118083758Y-137772758D01*
X117721729Y-137622800D01*
X117329871Y-137622800D01*
X116967842Y-137772758D01*
X116746270Y-137994330D01*
X116758200Y-137965529D01*
X116758200Y-137573671D01*
X116608242Y-137211642D01*
X116538471Y-137141871D01*
X120122200Y-137141871D01*
X120122200Y-137533729D01*
X120272158Y-137895758D01*
X120549242Y-138172842D01*
X120911271Y-138322800D01*
X121303129Y-138322800D01*
X121665158Y-138172842D01*
X121942242Y-137895758D01*
X122092200Y-137533729D01*
X122092200Y-137141871D01*
X121942242Y-136779842D01*
X121665158Y-136502758D01*
X121303129Y-136352800D01*
X120911271Y-136352800D01*
X120549242Y-136502758D01*
X120272158Y-136779842D01*
X120122200Y-137141871D01*
X116538471Y-137141871D01*
X116331158Y-136934558D01*
X115969129Y-136784600D01*
X115577271Y-136784600D01*
X115215242Y-136934558D01*
X114938158Y-137211642D01*
X114788200Y-137573671D01*
X102818000Y-137573671D01*
X102818000Y-133408071D01*
X127793000Y-133408071D01*
X127793000Y-133799929D01*
X127942958Y-134161958D01*
X128220042Y-134439042D01*
X128582071Y-134589000D01*
X128973929Y-134589000D01*
X129335958Y-134439042D01*
X129613042Y-134161958D01*
X129718590Y-133907143D01*
X129860235Y-133907143D01*
X129860235Y-134299001D01*
X130010193Y-134661030D01*
X130287277Y-134938114D01*
X130649306Y-135088072D01*
X131041164Y-135088072D01*
X131403193Y-134938114D01*
X131680277Y-134661030D01*
X131830235Y-134299001D01*
X131830235Y-133907143D01*
X131680277Y-133545114D01*
X131403193Y-133268030D01*
X131041164Y-133118072D01*
X130649306Y-133118072D01*
X130287277Y-133268030D01*
X130010193Y-133545114D01*
X129860235Y-133907143D01*
X129718590Y-133907143D01*
X129763000Y-133799929D01*
X129763000Y-133408071D01*
X129613042Y-133046042D01*
X129335958Y-132768958D01*
X128973929Y-132619000D01*
X128582071Y-132619000D01*
X128220042Y-132768958D01*
X127942958Y-133046042D01*
X127793000Y-133408071D01*
X102818000Y-133408071D01*
X102818000Y-131376071D01*
X112553000Y-131376071D01*
X112553000Y-131767929D01*
X112702958Y-132129958D01*
X112980042Y-132407042D01*
X113342071Y-132557000D01*
X113733929Y-132557000D01*
X114095958Y-132407042D01*
X114298755Y-132204245D01*
X114404758Y-132460158D01*
X114681842Y-132737242D01*
X115043871Y-132887200D01*
X115435729Y-132887200D01*
X115797758Y-132737242D01*
X116074842Y-132460158D01*
X116224800Y-132098129D01*
X116224800Y-131706271D01*
X116074842Y-131344242D01*
X115797758Y-131067158D01*
X115435729Y-130917200D01*
X115043871Y-130917200D01*
X114681842Y-131067158D01*
X114479045Y-131269955D01*
X114373042Y-131014042D01*
X114095958Y-130736958D01*
X113733929Y-130587000D01*
X113342071Y-130587000D01*
X112980042Y-130736958D01*
X112702958Y-131014042D01*
X112553000Y-131376071D01*
X102818000Y-131376071D01*
X102818000Y-127947071D01*
X129977400Y-127947071D01*
X129977400Y-128338929D01*
X130127358Y-128700958D01*
X130404442Y-128978042D01*
X130766471Y-129128000D01*
X131158329Y-129128000D01*
X131520358Y-128978042D01*
X131797442Y-128700958D01*
X131947400Y-128338929D01*
X131947400Y-127947071D01*
X131797442Y-127585042D01*
X131520358Y-127307958D01*
X131158329Y-127158000D01*
X130766471Y-127158000D01*
X130404442Y-127307958D01*
X130127358Y-127585042D01*
X129977400Y-127947071D01*
X102818000Y-127947071D01*
X102818000Y-126550071D01*
X118649000Y-126550071D01*
X118649000Y-126941929D01*
X118798958Y-127303958D01*
X119076042Y-127581042D01*
X119438071Y-127731000D01*
X119829929Y-127731000D01*
X120191958Y-127581042D01*
X120469042Y-127303958D01*
X120619000Y-126941929D01*
X120619000Y-126550071D01*
X120469042Y-126188042D01*
X120191958Y-125910958D01*
X119895284Y-125788071D01*
X121697000Y-125788071D01*
X121697000Y-126179929D01*
X121846958Y-126541958D01*
X122124042Y-126819042D01*
X122486071Y-126969000D01*
X122877929Y-126969000D01*
X123239958Y-126819042D01*
X123517042Y-126541958D01*
X123667000Y-126179929D01*
X123667000Y-125788071D01*
X123517042Y-125426042D01*
X123239958Y-125148958D01*
X122943284Y-125026071D01*
X129317000Y-125026071D01*
X129317000Y-125417929D01*
X129466958Y-125779958D01*
X129744042Y-126057042D01*
X130106071Y-126207000D01*
X130497929Y-126207000D01*
X130859958Y-126057042D01*
X131137042Y-125779958D01*
X131287000Y-125417929D01*
X131287000Y-125026071D01*
X131137042Y-124664042D01*
X130859958Y-124386958D01*
X130497929Y-124237000D01*
X130106071Y-124237000D01*
X129744042Y-124386958D01*
X129466958Y-124664042D01*
X129317000Y-125026071D01*
X122943284Y-125026071D01*
X122877929Y-124999000D01*
X122486071Y-124999000D01*
X122124042Y-125148958D01*
X121846958Y-125426042D01*
X121697000Y-125788071D01*
X119895284Y-125788071D01*
X119829929Y-125761000D01*
X119438071Y-125761000D01*
X119076042Y-125910958D01*
X118798958Y-126188042D01*
X118649000Y-126550071D01*
X102818000Y-126550071D01*
X102818000Y-119768271D01*
X103764600Y-119768271D01*
X103764600Y-120160129D01*
X103914558Y-120522158D01*
X104191642Y-120799242D01*
X104553671Y-120949200D01*
X104606800Y-120949200D01*
X104574958Y-120981042D01*
X104425000Y-121343071D01*
X104425000Y-121734929D01*
X104574958Y-122096958D01*
X104852042Y-122374042D01*
X105214071Y-122524000D01*
X105605929Y-122524000D01*
X105967958Y-122374042D01*
X106245042Y-122096958D01*
X106294286Y-121978071D01*
X127793000Y-121978071D01*
X127793000Y-122369929D01*
X127942958Y-122731958D01*
X128220042Y-123009042D01*
X128582071Y-123159000D01*
X128973929Y-123159000D01*
X129335958Y-123009042D01*
X129613042Y-122731958D01*
X129763000Y-122369929D01*
X129763000Y-121978071D01*
X129613042Y-121616042D01*
X129335958Y-121338958D01*
X128973929Y-121189000D01*
X128582071Y-121189000D01*
X128220042Y-121338958D01*
X127942958Y-121616042D01*
X127793000Y-121978071D01*
X106294286Y-121978071D01*
X106395000Y-121734929D01*
X106395000Y-121343071D01*
X106245042Y-120981042D01*
X105967958Y-120703958D01*
X105605929Y-120554000D01*
X105552800Y-120554000D01*
X105584642Y-120522158D01*
X105734600Y-120160129D01*
X105734600Y-119768271D01*
X105584642Y-119406242D01*
X105362471Y-119184071D01*
X130841000Y-119184071D01*
X130841000Y-119575929D01*
X130990958Y-119937958D01*
X131268042Y-120215042D01*
X131630071Y-120365000D01*
X132021929Y-120365000D01*
X132383958Y-120215042D01*
X132661042Y-119937958D01*
X132811000Y-119575929D01*
X132811000Y-119184071D01*
X132661042Y-118822042D01*
X132383958Y-118544958D01*
X132021929Y-118395000D01*
X131630071Y-118395000D01*
X131268042Y-118544958D01*
X130990958Y-118822042D01*
X130841000Y-119184071D01*
X105362471Y-119184071D01*
X105307558Y-119129158D01*
X104945529Y-118979200D01*
X104553671Y-118979200D01*
X104191642Y-119129158D01*
X103914558Y-119406242D01*
X103764600Y-119768271D01*
X102818000Y-119768271D01*
X102818000Y-117254723D01*
X103029671Y-117342400D01*
X103421529Y-117342400D01*
X103783558Y-117192442D01*
X104060642Y-116915358D01*
X104210600Y-116553329D01*
X104210600Y-116212271D01*
X106457000Y-116212271D01*
X106457000Y-116604129D01*
X106606958Y-116966158D01*
X106884042Y-117243242D01*
X107246071Y-117393200D01*
X107637929Y-117393200D01*
X107999958Y-117243242D01*
X108277042Y-116966158D01*
X108427000Y-116604129D01*
X108427000Y-116212271D01*
X108277042Y-115850242D01*
X107999958Y-115573158D01*
X107637929Y-115423200D01*
X107246071Y-115423200D01*
X106884042Y-115573158D01*
X106606958Y-115850242D01*
X106457000Y-116212271D01*
X104210600Y-116212271D01*
X104210600Y-116161471D01*
X104060642Y-115799442D01*
X103783558Y-115522358D01*
X103425564Y-115374071D01*
X115347000Y-115374071D01*
X115347000Y-115765929D01*
X115496958Y-116127958D01*
X115774042Y-116405042D01*
X116136071Y-116555000D01*
X116527929Y-116555000D01*
X116889958Y-116405042D01*
X117167042Y-116127958D01*
X117268892Y-115882071D01*
X117633000Y-115882071D01*
X117633000Y-116273929D01*
X117782958Y-116635958D01*
X118060042Y-116913042D01*
X118422071Y-117063000D01*
X118813929Y-117063000D01*
X119175958Y-116913042D01*
X119453042Y-116635958D01*
X119603000Y-116273929D01*
X119603000Y-115882071D01*
X119497790Y-115628071D01*
X121951000Y-115628071D01*
X121951000Y-116019929D01*
X122100958Y-116381958D01*
X122378042Y-116659042D01*
X122740071Y-116809000D01*
X123131929Y-116809000D01*
X123493958Y-116659042D01*
X123771042Y-116381958D01*
X123921000Y-116019929D01*
X123921000Y-115882071D01*
X127285000Y-115882071D01*
X127285000Y-116273929D01*
X127434958Y-116635958D01*
X127712042Y-116913042D01*
X128074071Y-117063000D01*
X128465929Y-117063000D01*
X128827958Y-116913042D01*
X129105042Y-116635958D01*
X129255000Y-116273929D01*
X129255000Y-115882071D01*
X130841000Y-115882071D01*
X130841000Y-116273929D01*
X130990958Y-116635958D01*
X131268042Y-116913042D01*
X131630071Y-117063000D01*
X132021929Y-117063000D01*
X132383958Y-116913042D01*
X132661042Y-116635958D01*
X132811000Y-116273929D01*
X132811000Y-115882071D01*
X132661042Y-115520042D01*
X132383958Y-115242958D01*
X132021929Y-115093000D01*
X131630071Y-115093000D01*
X131268042Y-115242958D01*
X130990958Y-115520042D01*
X130841000Y-115882071D01*
X129255000Y-115882071D01*
X129105042Y-115520042D01*
X128827958Y-115242958D01*
X128465929Y-115093000D01*
X128074071Y-115093000D01*
X127712042Y-115242958D01*
X127434958Y-115520042D01*
X127285000Y-115882071D01*
X123921000Y-115882071D01*
X123921000Y-115628071D01*
X123771042Y-115266042D01*
X123493958Y-114988958D01*
X123131929Y-114839000D01*
X122740071Y-114839000D01*
X122378042Y-114988958D01*
X122100958Y-115266042D01*
X121951000Y-115628071D01*
X119497790Y-115628071D01*
X119453042Y-115520042D01*
X119175958Y-115242958D01*
X118813929Y-115093000D01*
X118422071Y-115093000D01*
X118060042Y-115242958D01*
X117782958Y-115520042D01*
X117633000Y-115882071D01*
X117268892Y-115882071D01*
X117317000Y-115765929D01*
X117317000Y-115374071D01*
X117167042Y-115012042D01*
X116889958Y-114734958D01*
X116527929Y-114585000D01*
X116136071Y-114585000D01*
X115774042Y-114734958D01*
X115496958Y-115012042D01*
X115347000Y-115374071D01*
X103425564Y-115374071D01*
X103421529Y-115372400D01*
X103029671Y-115372400D01*
X102818000Y-115460077D01*
X102818000Y-112503871D01*
X105212400Y-112503871D01*
X105212400Y-112895729D01*
X105362358Y-113257758D01*
X105639442Y-113534842D01*
X106001471Y-113684800D01*
X106393329Y-113684800D01*
X106755358Y-113534842D01*
X107032442Y-113257758D01*
X107182400Y-112895729D01*
X107182400Y-112503871D01*
X107032442Y-112141842D01*
X106755358Y-111864758D01*
X106393329Y-111714800D01*
X106001471Y-111714800D01*
X105639442Y-111864758D01*
X105362358Y-112141842D01*
X105212400Y-112503871D01*
X102818000Y-112503871D01*
X102818000Y-107728671D01*
X106584000Y-107728671D01*
X106584000Y-108120529D01*
X106733958Y-108482558D01*
X107011042Y-108759642D01*
X107373071Y-108909600D01*
X107764929Y-108909600D01*
X108126958Y-108759642D01*
X108363013Y-108523587D01*
X110702446Y-108523587D01*
X110702446Y-108915445D01*
X110852404Y-109277474D01*
X111129488Y-109554558D01*
X111491517Y-109704516D01*
X111883375Y-109704516D01*
X112245404Y-109554558D01*
X112522488Y-109277474D01*
X112672446Y-108915445D01*
X112672446Y-108523587D01*
X112522488Y-108161558D01*
X112245404Y-107884474D01*
X111883375Y-107734516D01*
X111491517Y-107734516D01*
X111129488Y-107884474D01*
X110852404Y-108161558D01*
X110702446Y-108523587D01*
X108363013Y-108523587D01*
X108404042Y-108482558D01*
X108554000Y-108120529D01*
X108554000Y-107728671D01*
X108404042Y-107366642D01*
X108283471Y-107246071D01*
X113569000Y-107246071D01*
X113569000Y-107637929D01*
X113718958Y-107999958D01*
X113996042Y-108277042D01*
X114358071Y-108427000D01*
X114472824Y-108427000D01*
X114506358Y-108507958D01*
X114783442Y-108785042D01*
X115145471Y-108935000D01*
X115537329Y-108935000D01*
X115899358Y-108785042D01*
X116176442Y-108507958D01*
X116326400Y-108145929D01*
X116326400Y-107754071D01*
X116176442Y-107392042D01*
X116030471Y-107246071D01*
X117379000Y-107246071D01*
X117379000Y-107637929D01*
X117528958Y-107999958D01*
X117745000Y-108216000D01*
X117745000Y-108460149D01*
X117894958Y-108822178D01*
X118172042Y-109099262D01*
X118534071Y-109249220D01*
X118925929Y-109249220D01*
X119287958Y-109099262D01*
X119565042Y-108822178D01*
X119715000Y-108460149D01*
X119715000Y-108068291D01*
X119565042Y-107706262D01*
X119349000Y-107490220D01*
X119349000Y-107246071D01*
X121189000Y-107246071D01*
X121189000Y-107637929D01*
X121338958Y-107999958D01*
X121616042Y-108277042D01*
X121925600Y-108405266D01*
X121925600Y-108526929D01*
X122075558Y-108888958D01*
X122352642Y-109166042D01*
X122714671Y-109316000D01*
X123106529Y-109316000D01*
X123468558Y-109166042D01*
X123745642Y-108888958D01*
X123895600Y-108526929D01*
X123895600Y-108375488D01*
X127630092Y-108375488D01*
X127630092Y-108767346D01*
X127780050Y-109129375D01*
X128057134Y-109406459D01*
X128419163Y-109556417D01*
X128811021Y-109556417D01*
X129173050Y-109406459D01*
X129450134Y-109129375D01*
X129600092Y-108767346D01*
X129600092Y-108375488D01*
X129450134Y-108013459D01*
X129173050Y-107736375D01*
X128811021Y-107586417D01*
X128419163Y-107586417D01*
X128057134Y-107736375D01*
X127780050Y-108013459D01*
X127630092Y-108375488D01*
X123895600Y-108375488D01*
X123895600Y-108135071D01*
X123745642Y-107773042D01*
X123468558Y-107495958D01*
X123159000Y-107367734D01*
X123159000Y-107246071D01*
X123009042Y-106884042D01*
X122731958Y-106606958D01*
X122369929Y-106457000D01*
X121978071Y-106457000D01*
X121616042Y-106606958D01*
X121338958Y-106884042D01*
X121189000Y-107246071D01*
X119349000Y-107246071D01*
X119199042Y-106884042D01*
X118921958Y-106606958D01*
X118559929Y-106457000D01*
X118168071Y-106457000D01*
X117806042Y-106606958D01*
X117528958Y-106884042D01*
X117379000Y-107246071D01*
X116030471Y-107246071D01*
X115899358Y-107114958D01*
X115537329Y-106965000D01*
X115422576Y-106965000D01*
X115389042Y-106884042D01*
X115111958Y-106606958D01*
X114749929Y-106457000D01*
X114358071Y-106457000D01*
X113996042Y-106606958D01*
X113718958Y-106884042D01*
X113569000Y-107246071D01*
X108283471Y-107246071D01*
X108263500Y-107226100D01*
X108429442Y-107060158D01*
X108579400Y-106698129D01*
X108579400Y-106306271D01*
X108429442Y-105944242D01*
X108152358Y-105667158D01*
X107790329Y-105517200D01*
X107398471Y-105517200D01*
X107036442Y-105667158D01*
X106759358Y-105944242D01*
X106609400Y-106306271D01*
X106609400Y-106698129D01*
X106759358Y-107060158D01*
X106899900Y-107200700D01*
X106733958Y-107366642D01*
X106584000Y-107728671D01*
X102818000Y-107728671D01*
X102818000Y-105214071D01*
X113315000Y-105214071D01*
X113315000Y-105605929D01*
X113464958Y-105967958D01*
X113742042Y-106245042D01*
X114104071Y-106395000D01*
X114495929Y-106395000D01*
X114771459Y-106280871D01*
X124378611Y-106280871D01*
X124378611Y-106672729D01*
X124528569Y-107034758D01*
X124805653Y-107311842D01*
X125167682Y-107461800D01*
X125559540Y-107461800D01*
X125807649Y-107359029D01*
X125936358Y-107669758D01*
X126213442Y-107946842D01*
X126575471Y-108096800D01*
X126967329Y-108096800D01*
X127329358Y-107946842D01*
X127606442Y-107669758D01*
X127756400Y-107307729D01*
X127756400Y-107068271D01*
X129444000Y-107068271D01*
X129444000Y-107460129D01*
X129593958Y-107822158D01*
X129871042Y-108099242D01*
X130233071Y-108249200D01*
X130624929Y-108249200D01*
X130986958Y-108099242D01*
X131264042Y-107822158D01*
X131414000Y-107460129D01*
X131414000Y-107246071D01*
X132873000Y-107246071D01*
X132873000Y-107637929D01*
X133022958Y-107999958D01*
X133300042Y-108277042D01*
X133662071Y-108427000D01*
X134053929Y-108427000D01*
X134415958Y-108277042D01*
X134693042Y-107999958D01*
X134843000Y-107637929D01*
X134843000Y-107246071D01*
X134693042Y-106884042D01*
X134415958Y-106606958D01*
X134053929Y-106457000D01*
X133662071Y-106457000D01*
X133300042Y-106606958D01*
X133022958Y-106884042D01*
X132873000Y-107246071D01*
X131414000Y-107246071D01*
X131414000Y-107068271D01*
X131264042Y-106706242D01*
X130986958Y-106429158D01*
X130624929Y-106279200D01*
X130233071Y-106279200D01*
X129871042Y-106429158D01*
X129593958Y-106706242D01*
X129444000Y-107068271D01*
X127756400Y-107068271D01*
X127756400Y-106915871D01*
X127606442Y-106553842D01*
X127329358Y-106276758D01*
X126967329Y-106126800D01*
X126575471Y-106126800D01*
X126327362Y-106229571D01*
X126198653Y-105918842D01*
X125921569Y-105641758D01*
X125559540Y-105491800D01*
X125167682Y-105491800D01*
X124805653Y-105641758D01*
X124528569Y-105918842D01*
X124378611Y-106280871D01*
X114771459Y-106280871D01*
X114857958Y-106245042D01*
X115135042Y-105967958D01*
X115285000Y-105605929D01*
X115285000Y-105214071D01*
X115179790Y-104960071D01*
X117379000Y-104960071D01*
X117379000Y-105351929D01*
X117528958Y-105713958D01*
X117806042Y-105991042D01*
X118168071Y-106141000D01*
X118559929Y-106141000D01*
X118921958Y-105991042D01*
X119199042Y-105713958D01*
X119349000Y-105351929D01*
X119349000Y-104960071D01*
X119199042Y-104598042D01*
X118921958Y-104320958D01*
X118559929Y-104171000D01*
X118168071Y-104171000D01*
X117806042Y-104320958D01*
X117528958Y-104598042D01*
X117379000Y-104960071D01*
X115179790Y-104960071D01*
X115135042Y-104852042D01*
X114857958Y-104574958D01*
X114495929Y-104425000D01*
X114104071Y-104425000D01*
X113742042Y-104574958D01*
X113464958Y-104852042D01*
X113315000Y-105214071D01*
X102818000Y-105214071D01*
X102818000Y-101854000D01*
X103641908Y-101854000D01*
X103757161Y-102433418D01*
X104085375Y-102924625D01*
X104576582Y-103252839D01*
X105009744Y-103339000D01*
X105302256Y-103339000D01*
X105735418Y-103252839D01*
X106226625Y-102924625D01*
X106238816Y-102906381D01*
X106247843Y-102951765D01*
X106388191Y-103161809D01*
X106598235Y-103302157D01*
X106846000Y-103351440D01*
X108546000Y-103351440D01*
X108793765Y-103302157D01*
X109003809Y-103161809D01*
X109144157Y-102951765D01*
X109193440Y-102704000D01*
X109193440Y-101004000D01*
X109144157Y-100756235D01*
X109003809Y-100546191D01*
X108793765Y-100405843D01*
X108546000Y-100356560D01*
X106846000Y-100356560D01*
X106598235Y-100405843D01*
X106388191Y-100546191D01*
X106247843Y-100756235D01*
X106238816Y-100801619D01*
X106226625Y-100783375D01*
X105735418Y-100455161D01*
X105302256Y-100369000D01*
X105009744Y-100369000D01*
X104576582Y-100455161D01*
X104085375Y-100783375D01*
X103757161Y-101274582D01*
X103641908Y-101854000D01*
X102818000Y-101854000D01*
X102818000Y-97194000D01*
X103658560Y-97194000D01*
X103658560Y-98894000D01*
X103707843Y-99141765D01*
X103848191Y-99351809D01*
X104058235Y-99492157D01*
X104306000Y-99541440D01*
X106006000Y-99541440D01*
X106253765Y-99492157D01*
X106463809Y-99351809D01*
X106604157Y-99141765D01*
X106613184Y-99096381D01*
X106625375Y-99114625D01*
X107116582Y-99442839D01*
X107549744Y-99529000D01*
X107842256Y-99529000D01*
X108275418Y-99442839D01*
X108766625Y-99114625D01*
X109094839Y-98623418D01*
X109097493Y-98610071D01*
X110521001Y-98610071D01*
X110521001Y-99001929D01*
X110670959Y-99363958D01*
X110948043Y-99641042D01*
X111310072Y-99791000D01*
X111701930Y-99791000D01*
X112063959Y-99641042D01*
X112341043Y-99363958D01*
X112491001Y-99001929D01*
X112491001Y-98610071D01*
X112341043Y-98248042D01*
X112063959Y-97970958D01*
X111701930Y-97821000D01*
X111310072Y-97821000D01*
X110948043Y-97970958D01*
X110670959Y-98248042D01*
X110521001Y-98610071D01*
X109097493Y-98610071D01*
X109210092Y-98044000D01*
X109094839Y-97464582D01*
X108766625Y-96973375D01*
X108275418Y-96645161D01*
X107842256Y-96559000D01*
X107549744Y-96559000D01*
X107116582Y-96645161D01*
X106625375Y-96973375D01*
X106613184Y-96991619D01*
X106604157Y-96946235D01*
X106463809Y-96736191D01*
X106253765Y-96595843D01*
X106006000Y-96546560D01*
X104306000Y-96546560D01*
X104058235Y-96595843D01*
X103848191Y-96736191D01*
X103707843Y-96946235D01*
X103658560Y-97194000D01*
X102818000Y-97194000D01*
X102818000Y-93384000D01*
X103658560Y-93384000D01*
X103658560Y-95084000D01*
X103707843Y-95331765D01*
X103848191Y-95541809D01*
X104058235Y-95682157D01*
X104306000Y-95731440D01*
X106006000Y-95731440D01*
X106253765Y-95682157D01*
X106463809Y-95541809D01*
X106604157Y-95331765D01*
X106613184Y-95286381D01*
X106625375Y-95304625D01*
X107116582Y-95632839D01*
X107549744Y-95719000D01*
X107842256Y-95719000D01*
X108275418Y-95632839D01*
X108766625Y-95304625D01*
X109094839Y-94813418D01*
X109210092Y-94234000D01*
X109159569Y-93980000D01*
X113547908Y-93980000D01*
X113663161Y-94559418D01*
X113991375Y-95050625D01*
X114289761Y-95250000D01*
X113991375Y-95449375D01*
X113663161Y-95940582D01*
X113547908Y-96520000D01*
X113663161Y-97099418D01*
X113991375Y-97590625D01*
X114289761Y-97790000D01*
X113991375Y-97989375D01*
X113663161Y-98480582D01*
X113547908Y-99060000D01*
X113663161Y-99639418D01*
X113991375Y-100130625D01*
X114009619Y-100142816D01*
X113964235Y-100151843D01*
X113754191Y-100292191D01*
X113613843Y-100502235D01*
X113564560Y-100750000D01*
X113564560Y-102450000D01*
X113613843Y-102697765D01*
X113754191Y-102907809D01*
X113964235Y-103048157D01*
X114212000Y-103097440D01*
X115912000Y-103097440D01*
X116159765Y-103048157D01*
X116369809Y-102907809D01*
X116510157Y-102697765D01*
X116559440Y-102450000D01*
X116559440Y-101574600D01*
X122463308Y-101574600D01*
X122578561Y-102154018D01*
X122906775Y-102645225D01*
X123397982Y-102973439D01*
X123831144Y-103059600D01*
X124123656Y-103059600D01*
X124556818Y-102973439D01*
X125048025Y-102645225D01*
X125376239Y-102154018D01*
X125389667Y-102086506D01*
X127139000Y-102086506D01*
X127139000Y-102637494D01*
X127349853Y-103146540D01*
X127739460Y-103536147D01*
X128248506Y-103747000D01*
X128799494Y-103747000D01*
X129308540Y-103536147D01*
X129511170Y-103333517D01*
X130272088Y-103333517D01*
X130340077Y-103574460D01*
X130859171Y-103759201D01*
X131409448Y-103731230D01*
X131787923Y-103574460D01*
X131855912Y-103333517D01*
X131064000Y-102541605D01*
X130272088Y-103333517D01*
X129511170Y-103333517D01*
X129698147Y-103146540D01*
X129787397Y-102931070D01*
X129851540Y-103085923D01*
X130092483Y-103153912D01*
X130884395Y-102362000D01*
X131243605Y-102362000D01*
X132035517Y-103153912D01*
X132276460Y-103085923D01*
X132335745Y-102919342D01*
X132429853Y-103146540D01*
X132819460Y-103536147D01*
X133328506Y-103747000D01*
X133879494Y-103747000D01*
X134388540Y-103536147D01*
X134778147Y-103146540D01*
X134989000Y-102637494D01*
X134989000Y-102086506D01*
X134778147Y-101577460D01*
X134388540Y-101187853D01*
X133879494Y-100977000D01*
X133328506Y-100977000D01*
X132819460Y-101187853D01*
X132429853Y-101577460D01*
X132340603Y-101792930D01*
X132276460Y-101638077D01*
X132035517Y-101570088D01*
X131243605Y-102362000D01*
X130884395Y-102362000D01*
X130092483Y-101570088D01*
X129851540Y-101638077D01*
X129792255Y-101804658D01*
X129698147Y-101577460D01*
X129511170Y-101390483D01*
X130272088Y-101390483D01*
X131064000Y-102182395D01*
X131855912Y-101390483D01*
X131787923Y-101149540D01*
X131268829Y-100964799D01*
X130718552Y-100992770D01*
X130340077Y-101149540D01*
X130272088Y-101390483D01*
X129511170Y-101390483D01*
X129308540Y-101187853D01*
X128799494Y-100977000D01*
X128248506Y-100977000D01*
X127739460Y-101187853D01*
X127349853Y-101577460D01*
X127139000Y-102086506D01*
X125389667Y-102086506D01*
X125491492Y-101574600D01*
X125376239Y-100995182D01*
X125048025Y-100503975D01*
X125029781Y-100491784D01*
X125075165Y-100482757D01*
X125285209Y-100342409D01*
X125425557Y-100132365D01*
X125474840Y-99884600D01*
X125474840Y-98184600D01*
X125425557Y-97936835D01*
X125285209Y-97726791D01*
X125075165Y-97586443D01*
X124827400Y-97537160D01*
X123127400Y-97537160D01*
X122879635Y-97586443D01*
X122669591Y-97726791D01*
X122529243Y-97936835D01*
X122479960Y-98184600D01*
X122479960Y-99884600D01*
X122529243Y-100132365D01*
X122669591Y-100342409D01*
X122879635Y-100482757D01*
X122925019Y-100491784D01*
X122906775Y-100503975D01*
X122578561Y-100995182D01*
X122463308Y-101574600D01*
X116559440Y-101574600D01*
X116559440Y-100750000D01*
X116510157Y-100502235D01*
X116369809Y-100292191D01*
X116159765Y-100151843D01*
X116114381Y-100142816D01*
X116132625Y-100130625D01*
X116460839Y-99639418D01*
X116576092Y-99060000D01*
X116460839Y-98480582D01*
X116132625Y-97989375D01*
X115834239Y-97790000D01*
X116132625Y-97590625D01*
X116146857Y-97569325D01*
X116258958Y-97839958D01*
X116536042Y-98117042D01*
X116898071Y-98267000D01*
X117289929Y-98267000D01*
X117651958Y-98117042D01*
X117929042Y-97839958D01*
X118079000Y-97477929D01*
X118079000Y-97086071D01*
X117929042Y-96724042D01*
X117651958Y-96446958D01*
X117289929Y-96297000D01*
X116898071Y-96297000D01*
X116559620Y-96437191D01*
X116460839Y-95940582D01*
X116132625Y-95449375D01*
X115834239Y-95250000D01*
X116132625Y-95050625D01*
X116460839Y-94559418D01*
X116576092Y-93980000D01*
X116460839Y-93400582D01*
X116207927Y-93022071D01*
X120173000Y-93022071D01*
X120173000Y-93413929D01*
X120322958Y-93775958D01*
X120600042Y-94053042D01*
X120962071Y-94203000D01*
X121353929Y-94203000D01*
X121715958Y-94053042D01*
X121993042Y-93775958D01*
X122143000Y-93413929D01*
X122143000Y-93022071D01*
X121993042Y-92660042D01*
X121987000Y-92654000D01*
X122247042Y-92393958D01*
X122397000Y-92031929D01*
X122397000Y-92006071D01*
X124973600Y-92006071D01*
X124973600Y-92397929D01*
X125123558Y-92759958D01*
X125400642Y-93037042D01*
X125762671Y-93187000D01*
X126154529Y-93187000D01*
X126351610Y-93105366D01*
X126418958Y-93267958D01*
X126553605Y-93402605D01*
X126553605Y-93759746D01*
X126703563Y-94121775D01*
X126980647Y-94398859D01*
X127139726Y-94464752D01*
X127139000Y-94466506D01*
X127139000Y-95017494D01*
X127349853Y-95526540D01*
X127739460Y-95916147D01*
X128248506Y-96127000D01*
X128799494Y-96127000D01*
X129308540Y-95916147D01*
X129511170Y-95713517D01*
X130272088Y-95713517D01*
X130340077Y-95954460D01*
X130859171Y-96139201D01*
X131409448Y-96111230D01*
X131787923Y-95954460D01*
X131855912Y-95713517D01*
X131064000Y-94921605D01*
X130272088Y-95713517D01*
X129511170Y-95713517D01*
X129698147Y-95526540D01*
X129787397Y-95311070D01*
X129851540Y-95465923D01*
X130092483Y-95533912D01*
X130884395Y-94742000D01*
X131243605Y-94742000D01*
X132035517Y-95533912D01*
X132276460Y-95465923D01*
X132335745Y-95299342D01*
X132429853Y-95526540D01*
X132819460Y-95916147D01*
X133328506Y-96127000D01*
X133879494Y-96127000D01*
X134388540Y-95916147D01*
X134778147Y-95526540D01*
X134989000Y-95017494D01*
X134989000Y-94466506D01*
X134778147Y-93957460D01*
X134388540Y-93567853D01*
X133879494Y-93357000D01*
X133328506Y-93357000D01*
X132819460Y-93567853D01*
X132429853Y-93957460D01*
X132340603Y-94172930D01*
X132276460Y-94018077D01*
X132035517Y-93950088D01*
X131243605Y-94742000D01*
X130884395Y-94742000D01*
X130092483Y-93950088D01*
X129851540Y-94018077D01*
X129792255Y-94184658D01*
X129698147Y-93957460D01*
X129511170Y-93770483D01*
X130272088Y-93770483D01*
X131064000Y-94562395D01*
X131855912Y-93770483D01*
X131787923Y-93529540D01*
X131268829Y-93344799D01*
X130718552Y-93372770D01*
X130340077Y-93529540D01*
X130272088Y-93770483D01*
X129511170Y-93770483D01*
X129308540Y-93567853D01*
X128799494Y-93357000D01*
X128519095Y-93357000D01*
X128373647Y-93005859D01*
X128239000Y-92871212D01*
X128239000Y-92514071D01*
X128089042Y-92152042D01*
X127811958Y-91874958D01*
X127449929Y-91725000D01*
X127058071Y-91725000D01*
X126860990Y-91806634D01*
X126793642Y-91644042D01*
X126541991Y-91392391D01*
X126724477Y-91316803D01*
X127001561Y-91039719D01*
X127151519Y-90677690D01*
X127151519Y-90285832D01*
X127001561Y-89923803D01*
X126724477Y-89646719D01*
X126362448Y-89496761D01*
X125970590Y-89496761D01*
X125608561Y-89646719D01*
X125331477Y-89923803D01*
X125181519Y-90285832D01*
X125181519Y-90677690D01*
X125331477Y-91039719D01*
X125583128Y-91291370D01*
X125400642Y-91366958D01*
X125123558Y-91644042D01*
X124973600Y-92006071D01*
X122397000Y-92006071D01*
X122397000Y-91640071D01*
X122247042Y-91278042D01*
X121969958Y-91000958D01*
X121607929Y-90851000D01*
X121216071Y-90851000D01*
X120854042Y-91000958D01*
X120576958Y-91278042D01*
X120427000Y-91640071D01*
X120427000Y-92031929D01*
X120576958Y-92393958D01*
X120583000Y-92400000D01*
X120322958Y-92660042D01*
X120173000Y-93022071D01*
X116207927Y-93022071D01*
X116132625Y-92909375D01*
X115779458Y-92673396D01*
X116127958Y-92529042D01*
X116387995Y-92269005D01*
X116648032Y-92529042D01*
X117010061Y-92679000D01*
X117401919Y-92679000D01*
X117763948Y-92529042D01*
X118041032Y-92251958D01*
X118190990Y-91889929D01*
X118190990Y-91498071D01*
X118041032Y-91136042D01*
X117763948Y-90858958D01*
X117401919Y-90709000D01*
X117010061Y-90709000D01*
X116648032Y-90858958D01*
X116387995Y-91118995D01*
X116127958Y-90858958D01*
X115765929Y-90709000D01*
X115374071Y-90709000D01*
X115012042Y-90858958D01*
X114734958Y-91136042D01*
X114585000Y-91498071D01*
X114585000Y-91889929D01*
X114734958Y-92251958D01*
X114978000Y-92495000D01*
X114915744Y-92495000D01*
X114482582Y-92581161D01*
X113991375Y-92909375D01*
X113663161Y-93400582D01*
X113547908Y-93980000D01*
X109159569Y-93980000D01*
X109094839Y-93654582D01*
X108766625Y-93163375D01*
X108275418Y-92835161D01*
X107842256Y-92749000D01*
X107549744Y-92749000D01*
X107116582Y-92835161D01*
X106625375Y-93163375D01*
X106613184Y-93181619D01*
X106604157Y-93136235D01*
X106463809Y-92926191D01*
X106253765Y-92785843D01*
X106006000Y-92736560D01*
X104306000Y-92736560D01*
X104058235Y-92785843D01*
X103848191Y-92926191D01*
X103707843Y-93136235D01*
X103658560Y-93384000D01*
X102818000Y-93384000D01*
X102818000Y-91498071D01*
X103144610Y-91498071D01*
X103144610Y-91889929D01*
X103294568Y-92251958D01*
X103571652Y-92529042D01*
X103933681Y-92679000D01*
X104325539Y-92679000D01*
X104687568Y-92529042D01*
X104964652Y-92251958D01*
X105114610Y-91889929D01*
X105114610Y-91498071D01*
X105083047Y-91421871D01*
X109225600Y-91421871D01*
X109225600Y-91813729D01*
X109375558Y-92175758D01*
X109652642Y-92452842D01*
X110014671Y-92602800D01*
X110406529Y-92602800D01*
X110733828Y-92467228D01*
X110770242Y-92503642D01*
X111132271Y-92653600D01*
X111524129Y-92653600D01*
X111886158Y-92503642D01*
X112163242Y-92226558D01*
X112313200Y-91864529D01*
X112313200Y-91472671D01*
X112163242Y-91110642D01*
X111886158Y-90833558D01*
X111524129Y-90683600D01*
X111132271Y-90683600D01*
X110804972Y-90819172D01*
X110768558Y-90782758D01*
X110406529Y-90632800D01*
X110014671Y-90632800D01*
X109652642Y-90782758D01*
X109375558Y-91059842D01*
X109225600Y-91421871D01*
X105083047Y-91421871D01*
X104964652Y-91136042D01*
X104687568Y-90858958D01*
X104325539Y-90709000D01*
X103933681Y-90709000D01*
X103571652Y-90858958D01*
X103294568Y-91136042D01*
X103144610Y-91498071D01*
X102818000Y-91498071D01*
X102818000Y-89720071D01*
X104171000Y-89720071D01*
X104171000Y-90111929D01*
X104320958Y-90473958D01*
X104598042Y-90751042D01*
X104960071Y-90901000D01*
X105351929Y-90901000D01*
X105713958Y-90751042D01*
X105991042Y-90473958D01*
X106141000Y-90111929D01*
X106141000Y-89720071D01*
X105991042Y-89358042D01*
X105713958Y-89080958D01*
X105351929Y-88931000D01*
X104960071Y-88931000D01*
X104598042Y-89080958D01*
X104320958Y-89358042D01*
X104171000Y-89720071D01*
X102818000Y-89720071D01*
X102818000Y-88034661D01*
X108204000Y-88034661D01*
X108252601Y-88024994D01*
X108293803Y-87997464D01*
X108321333Y-87956262D01*
X108331000Y-87907661D01*
X108331000Y-87789671D01*
X109592390Y-87789671D01*
X109592390Y-88181529D01*
X109742348Y-88543558D01*
X110019432Y-88820642D01*
X110381461Y-88970600D01*
X110773319Y-88970600D01*
X111135348Y-88820642D01*
X111412432Y-88543558D01*
X111562390Y-88181529D01*
X111562390Y-87871267D01*
X111784558Y-87779242D01*
X112014999Y-87548801D01*
X112014999Y-87571929D01*
X112164957Y-87933958D01*
X112442041Y-88211042D01*
X112804070Y-88361000D01*
X113195928Y-88361000D01*
X113557957Y-88211042D01*
X113678563Y-88090436D01*
X113718958Y-88187958D01*
X113996042Y-88465042D01*
X114358071Y-88615000D01*
X114749929Y-88615000D01*
X115111958Y-88465042D01*
X115389042Y-88187958D01*
X115539000Y-87825929D01*
X115539000Y-87434071D01*
X115389042Y-87072042D01*
X115111958Y-86794958D01*
X114749929Y-86645000D01*
X114358071Y-86645000D01*
X113996042Y-86794958D01*
X113875436Y-86915564D01*
X113835041Y-86818042D01*
X113557957Y-86540958D01*
X113195928Y-86391000D01*
X112804070Y-86391000D01*
X112442041Y-86540958D01*
X112211600Y-86771399D01*
X112211600Y-86748271D01*
X112061642Y-86386242D01*
X111839471Y-86164071D01*
X115093000Y-86164071D01*
X115093000Y-86555929D01*
X115242958Y-86917958D01*
X115520042Y-87195042D01*
X115882071Y-87345000D01*
X116273929Y-87345000D01*
X116407188Y-87289802D01*
X116370948Y-87326042D01*
X116220990Y-87688071D01*
X116220990Y-88079929D01*
X116370948Y-88441958D01*
X116648032Y-88719042D01*
X117010061Y-88869000D01*
X117401919Y-88869000D01*
X117763948Y-88719042D01*
X118041032Y-88441958D01*
X118141000Y-88200615D01*
X118141000Y-88333929D01*
X118290958Y-88695958D01*
X118568042Y-88973042D01*
X118930071Y-89123000D01*
X119321929Y-89123000D01*
X119683958Y-88973042D01*
X119891261Y-88765739D01*
X119895271Y-88767400D01*
X120287129Y-88767400D01*
X120649158Y-88617442D01*
X120926242Y-88340358D01*
X120993707Y-88177483D01*
X122131000Y-88177483D01*
X122131000Y-88569341D01*
X122280958Y-88931370D01*
X122558042Y-89208454D01*
X122920071Y-89358412D01*
X123311929Y-89358412D01*
X123673958Y-89208454D01*
X123951042Y-88931370D01*
X124045192Y-88704071D01*
X126523000Y-88704071D01*
X126523000Y-89095929D01*
X126672958Y-89457958D01*
X126950042Y-89735042D01*
X127312071Y-89885000D01*
X127703929Y-89885000D01*
X128065958Y-89735042D01*
X128343042Y-89457958D01*
X128493000Y-89095929D01*
X128493000Y-88704071D01*
X128343042Y-88342042D01*
X128298671Y-88297671D01*
X128681998Y-88297671D01*
X128681998Y-88689529D01*
X128831956Y-89051558D01*
X129109040Y-89328642D01*
X129471069Y-89478600D01*
X129494800Y-89478600D01*
X129494800Y-89680129D01*
X129644758Y-90042158D01*
X129721798Y-90119198D01*
X129466954Y-90374042D01*
X129316996Y-90736071D01*
X129316996Y-91127929D01*
X129466954Y-91489958D01*
X129744038Y-91767042D01*
X130106067Y-91917000D01*
X130497925Y-91917000D01*
X130859954Y-91767042D01*
X131137038Y-91489958D01*
X131286996Y-91127929D01*
X131286996Y-90736071D01*
X131137038Y-90374042D01*
X131059998Y-90297002D01*
X131314842Y-90042158D01*
X131464800Y-89680129D01*
X131464800Y-89288271D01*
X131314842Y-88926242D01*
X131037758Y-88649158D01*
X130675729Y-88499200D01*
X130651998Y-88499200D01*
X130651998Y-88297671D01*
X130502040Y-87935642D01*
X130224956Y-87658558D01*
X129862927Y-87508600D01*
X129471069Y-87508600D01*
X129109040Y-87658558D01*
X128831956Y-87935642D01*
X128681998Y-88297671D01*
X128298671Y-88297671D01*
X128065958Y-88064958D01*
X127703929Y-87915000D01*
X127312071Y-87915000D01*
X126950042Y-88064958D01*
X126672958Y-88342042D01*
X126523000Y-88704071D01*
X124045192Y-88704071D01*
X124101000Y-88569341D01*
X124101000Y-88177483D01*
X123951042Y-87815454D01*
X123673958Y-87538370D01*
X123311929Y-87388412D01*
X122920071Y-87388412D01*
X122558042Y-87538370D01*
X122280958Y-87815454D01*
X122131000Y-88177483D01*
X120993707Y-88177483D01*
X121076200Y-87978329D01*
X121076200Y-87586471D01*
X120926242Y-87224442D01*
X120649158Y-86947358D01*
X120287129Y-86797400D01*
X119895271Y-86797400D01*
X119533242Y-86947358D01*
X119325939Y-87154661D01*
X119321929Y-87153000D01*
X118930071Y-87153000D01*
X118568042Y-87302958D01*
X118290958Y-87580042D01*
X118190990Y-87821385D01*
X118190990Y-87688071D01*
X118041032Y-87326042D01*
X117763948Y-87048958D01*
X117401919Y-86899000D01*
X117010061Y-86899000D01*
X116876802Y-86954198D01*
X116913042Y-86917958D01*
X117051787Y-86583000D01*
X117289929Y-86583000D01*
X117651958Y-86433042D01*
X117929042Y-86155958D01*
X118077280Y-85798081D01*
X126523000Y-85798081D01*
X126523000Y-86189939D01*
X126672958Y-86551968D01*
X126950042Y-86829052D01*
X127312071Y-86979010D01*
X127703929Y-86979010D01*
X128065958Y-86829052D01*
X128343042Y-86551968D01*
X128493000Y-86189939D01*
X128493000Y-85798081D01*
X128343042Y-85436052D01*
X128065958Y-85158968D01*
X127703929Y-85009010D01*
X127312071Y-85009010D01*
X126950042Y-85158968D01*
X126672958Y-85436052D01*
X126523000Y-85798081D01*
X118077280Y-85798081D01*
X118079000Y-85793929D01*
X118079000Y-85402071D01*
X117929042Y-85040042D01*
X117651958Y-84762958D01*
X117289929Y-84613000D01*
X116898071Y-84613000D01*
X116536042Y-84762958D01*
X116258958Y-85040042D01*
X116120213Y-85375000D01*
X115882071Y-85375000D01*
X115520042Y-85524958D01*
X115242958Y-85802042D01*
X115093000Y-86164071D01*
X111839471Y-86164071D01*
X111784558Y-86109158D01*
X111422529Y-85959200D01*
X111030671Y-85959200D01*
X110668642Y-86109158D01*
X110391558Y-86386242D01*
X110241600Y-86748271D01*
X110241600Y-87058533D01*
X110019432Y-87150558D01*
X109742348Y-87427642D01*
X109592390Y-87789671D01*
X108331000Y-87789671D01*
X108331000Y-83481944D01*
X111394873Y-83481944D01*
X111394873Y-83873802D01*
X111544831Y-84235831D01*
X111821915Y-84512915D01*
X112183944Y-84662873D01*
X112575802Y-84662873D01*
X112937831Y-84512915D01*
X113064675Y-84386071D01*
X118141000Y-84386071D01*
X118141000Y-84777929D01*
X118290958Y-85139958D01*
X118568042Y-85417042D01*
X118930071Y-85567000D01*
X119321929Y-85567000D01*
X119683958Y-85417042D01*
X119961042Y-85139958D01*
X120111000Y-84777929D01*
X120111000Y-84386071D01*
X119961042Y-84024042D01*
X119683958Y-83746958D01*
X119321929Y-83597000D01*
X118930071Y-83597000D01*
X118568042Y-83746958D01*
X118290958Y-84024042D01*
X118141000Y-84386071D01*
X113064675Y-84386071D01*
X113214915Y-84235831D01*
X113364873Y-83873802D01*
X113364873Y-83481944D01*
X113214915Y-83119915D01*
X112937831Y-82842831D01*
X112575802Y-82692873D01*
X112183944Y-82692873D01*
X111821915Y-82842831D01*
X111544831Y-83119915D01*
X111394873Y-83481944D01*
X108331000Y-83481944D01*
X108331000Y-81338071D01*
X109759000Y-81338071D01*
X109759000Y-81729929D01*
X109908958Y-82091958D01*
X110186042Y-82369042D01*
X110548071Y-82519000D01*
X110939929Y-82519000D01*
X111301958Y-82369042D01*
X111579042Y-82091958D01*
X111729000Y-81729929D01*
X111729000Y-81338071D01*
X117633000Y-81338071D01*
X117633000Y-81729929D01*
X117782958Y-82091958D01*
X117933298Y-82242298D01*
X117887000Y-82354071D01*
X117887000Y-82745929D01*
X118036958Y-83107958D01*
X118314042Y-83385042D01*
X118676071Y-83535000D01*
X119067929Y-83535000D01*
X119429958Y-83385042D01*
X119444929Y-83370071D01*
X121697000Y-83370071D01*
X121697000Y-83761929D01*
X121846958Y-84123958D01*
X122124042Y-84401042D01*
X122486071Y-84551000D01*
X122877929Y-84551000D01*
X123239958Y-84401042D01*
X123517042Y-84123958D01*
X123667000Y-83761929D01*
X123667000Y-83370071D01*
X123517042Y-83008042D01*
X123239958Y-82730958D01*
X122877929Y-82581000D01*
X122486071Y-82581000D01*
X122124042Y-82730958D01*
X121846958Y-83008042D01*
X121697000Y-83370071D01*
X119444929Y-83370071D01*
X119707042Y-83107958D01*
X119857000Y-82745929D01*
X119857000Y-82354071D01*
X119751790Y-82100071D01*
X128555000Y-82100071D01*
X128555000Y-82491929D01*
X128704958Y-82853958D01*
X128782000Y-82931000D01*
X128704958Y-83008042D01*
X128555000Y-83370071D01*
X128555000Y-83761929D01*
X128704958Y-84123958D01*
X128947654Y-84366654D01*
X128834400Y-84640071D01*
X128834400Y-85031929D01*
X128984358Y-85393958D01*
X129261442Y-85671042D01*
X129623471Y-85821000D01*
X130015329Y-85821000D01*
X130377358Y-85671042D01*
X130445000Y-85603400D01*
X130445000Y-85895529D01*
X130594958Y-86257558D01*
X130872042Y-86534642D01*
X131234071Y-86684600D01*
X131625929Y-86684600D01*
X131987958Y-86534642D01*
X132265042Y-86257558D01*
X132415000Y-85895529D01*
X132415000Y-85852000D01*
X133613908Y-85852000D01*
X133729161Y-86431418D01*
X134057375Y-86922625D01*
X134355761Y-87122000D01*
X134057375Y-87321375D01*
X133729161Y-87812582D01*
X133613908Y-88392000D01*
X133729161Y-88971418D01*
X134057375Y-89462625D01*
X134075619Y-89474816D01*
X134030235Y-89483843D01*
X133820191Y-89624191D01*
X133679843Y-89834235D01*
X133630560Y-90082000D01*
X133630560Y-91782000D01*
X133679843Y-92029765D01*
X133820191Y-92239809D01*
X134030235Y-92380157D01*
X134278000Y-92429440D01*
X135978000Y-92429440D01*
X136225765Y-92380157D01*
X136435809Y-92239809D01*
X136576157Y-92029765D01*
X136625440Y-91782000D01*
X136625440Y-90082000D01*
X136576157Y-89834235D01*
X136435809Y-89624191D01*
X136225765Y-89483843D01*
X136180381Y-89474816D01*
X136198625Y-89462625D01*
X136526839Y-88971418D01*
X136642092Y-88392000D01*
X136526839Y-87812582D01*
X136198625Y-87321375D01*
X135900239Y-87122000D01*
X136198625Y-86922625D01*
X136526839Y-86431418D01*
X136642092Y-85852000D01*
X136526839Y-85272582D01*
X136198625Y-84781375D01*
X135879522Y-84568157D01*
X136009358Y-84507183D01*
X136399645Y-84078924D01*
X136569476Y-83668890D01*
X136448155Y-83439000D01*
X135255000Y-83439000D01*
X135255000Y-83459000D01*
X135001000Y-83459000D01*
X135001000Y-83439000D01*
X133807845Y-83439000D01*
X133686524Y-83668890D01*
X133856355Y-84078924D01*
X134246642Y-84507183D01*
X134376478Y-84568157D01*
X134057375Y-84781375D01*
X133729161Y-85272582D01*
X133613908Y-85852000D01*
X132415000Y-85852000D01*
X132415000Y-85503671D01*
X132265042Y-85141642D01*
X131987958Y-84864558D01*
X131625929Y-84714600D01*
X131234071Y-84714600D01*
X130872042Y-84864558D01*
X130804400Y-84932200D01*
X130804400Y-84640071D01*
X130654442Y-84278042D01*
X130411746Y-84035346D01*
X130525000Y-83761929D01*
X130525000Y-83370071D01*
X130375042Y-83008042D01*
X130298000Y-82931000D01*
X130375042Y-82853958D01*
X130525000Y-82491929D01*
X130525000Y-82100071D01*
X130375042Y-81738042D01*
X130097958Y-81460958D01*
X129735929Y-81311000D01*
X129344071Y-81311000D01*
X128982042Y-81460958D01*
X128704958Y-81738042D01*
X128555000Y-82100071D01*
X119751790Y-82100071D01*
X119707042Y-81992042D01*
X119556702Y-81841702D01*
X119603000Y-81729929D01*
X119603000Y-81338071D01*
X119453042Y-80976042D01*
X119175958Y-80698958D01*
X118813929Y-80549000D01*
X118422071Y-80549000D01*
X118060042Y-80698958D01*
X117782958Y-80976042D01*
X117633000Y-81338071D01*
X111729000Y-81338071D01*
X111579042Y-80976042D01*
X111539166Y-80936166D01*
X111759158Y-80845042D01*
X112036242Y-80567958D01*
X112186200Y-80205929D01*
X112186200Y-79814071D01*
X112036242Y-79452042D01*
X111759158Y-79174958D01*
X111462484Y-79052071D01*
X114331000Y-79052071D01*
X114331000Y-79443929D01*
X114480958Y-79805958D01*
X114758042Y-80083042D01*
X115120071Y-80233000D01*
X115511929Y-80233000D01*
X115873958Y-80083042D01*
X116151042Y-79805958D01*
X116252892Y-79560071D01*
X128809000Y-79560071D01*
X128809000Y-79951929D01*
X128958958Y-80313958D01*
X129236042Y-80591042D01*
X129598071Y-80741000D01*
X129989929Y-80741000D01*
X130351958Y-80591042D01*
X130629042Y-80313958D01*
X130779000Y-79951929D01*
X130779000Y-79560071D01*
X130629042Y-79198042D01*
X130351958Y-78920958D01*
X129989929Y-78771000D01*
X129598071Y-78771000D01*
X129236042Y-78920958D01*
X128958958Y-79198042D01*
X128809000Y-79560071D01*
X116252892Y-79560071D01*
X116301000Y-79443929D01*
X116301000Y-79052071D01*
X116151042Y-78690042D01*
X115873958Y-78412958D01*
X115511929Y-78263000D01*
X115120071Y-78263000D01*
X114758042Y-78412958D01*
X114480958Y-78690042D01*
X114331000Y-79052071D01*
X111462484Y-79052071D01*
X111397129Y-79025000D01*
X111005271Y-79025000D01*
X110643242Y-79174958D01*
X110366158Y-79452042D01*
X110216200Y-79814071D01*
X110216200Y-80205929D01*
X110366158Y-80567958D01*
X110406034Y-80607834D01*
X110186042Y-80698958D01*
X109908958Y-80976042D01*
X109759000Y-81338071D01*
X108331000Y-81338071D01*
X108331000Y-77747661D01*
X108321333Y-77699060D01*
X108293803Y-77657858D01*
X108252601Y-77630328D01*
X108204000Y-77620661D01*
X108066570Y-77620661D01*
X108253958Y-77543042D01*
X108531042Y-77265958D01*
X108681000Y-76903929D01*
X108681000Y-76512071D01*
X108598983Y-76314065D01*
X111171432Y-76314065D01*
X111171432Y-76705923D01*
X111321390Y-77067952D01*
X111598474Y-77345036D01*
X111960503Y-77494994D01*
X112352361Y-77494994D01*
X112714390Y-77345036D01*
X112991474Y-77067952D01*
X113141432Y-76705923D01*
X113141432Y-76562871D01*
X120223800Y-76562871D01*
X120223800Y-76954729D01*
X120373758Y-77316758D01*
X120650842Y-77593842D01*
X121012871Y-77743800D01*
X121404729Y-77743800D01*
X121606304Y-77660304D01*
X121692242Y-77746242D01*
X122054271Y-77896200D01*
X122446129Y-77896200D01*
X122755467Y-77768067D01*
X122835242Y-77847842D01*
X123197271Y-77997800D01*
X123589129Y-77997800D01*
X123951158Y-77847842D01*
X124228242Y-77570758D01*
X124251255Y-77515200D01*
X124579729Y-77515200D01*
X124941758Y-77365242D01*
X125218842Y-77088158D01*
X125368800Y-76726129D01*
X125368800Y-76334271D01*
X125218842Y-75972242D01*
X124941758Y-75695158D01*
X124579729Y-75545200D01*
X124187871Y-75545200D01*
X123825842Y-75695158D01*
X123548758Y-75972242D01*
X123525745Y-76027800D01*
X123197271Y-76027800D01*
X122887933Y-76155933D01*
X122808158Y-76076158D01*
X122446129Y-75926200D01*
X122054271Y-75926200D01*
X121852696Y-76009696D01*
X121766758Y-75923758D01*
X121404729Y-75773800D01*
X121012871Y-75773800D01*
X120650842Y-75923758D01*
X120373758Y-76200842D01*
X120223800Y-76562871D01*
X113141432Y-76562871D01*
X113141432Y-76314065D01*
X112991474Y-75952036D01*
X112714390Y-75674952D01*
X112352361Y-75524994D01*
X111960503Y-75524994D01*
X111598474Y-75674952D01*
X111321390Y-75952036D01*
X111171432Y-76314065D01*
X108598983Y-76314065D01*
X108531042Y-76150042D01*
X108253958Y-75872958D01*
X107891929Y-75723000D01*
X107500071Y-75723000D01*
X107138042Y-75872958D01*
X106860958Y-76150042D01*
X106711000Y-76512071D01*
X106711000Y-76903929D01*
X106860958Y-77265958D01*
X107138042Y-77543042D01*
X107325430Y-77620661D01*
X102818000Y-77620661D01*
X102818000Y-73718071D01*
X102901000Y-73718071D01*
X102901000Y-74109929D01*
X103050958Y-74471958D01*
X103328042Y-74749042D01*
X103690071Y-74899000D01*
X104081929Y-74899000D01*
X104443958Y-74749042D01*
X104721042Y-74471958D01*
X104871000Y-74109929D01*
X104871000Y-73718071D01*
X104721042Y-73356042D01*
X104443958Y-73078958D01*
X104147284Y-72956071D01*
X107727000Y-72956071D01*
X107727000Y-73347929D01*
X107876958Y-73709958D01*
X108154042Y-73987042D01*
X108516071Y-74137000D01*
X108907929Y-74137000D01*
X109269958Y-73987042D01*
X109494693Y-73762307D01*
X109786071Y-73883000D01*
X110177929Y-73883000D01*
X110539958Y-73733042D01*
X110817042Y-73455958D01*
X110967000Y-73093929D01*
X110967000Y-72702071D01*
X111283000Y-72702071D01*
X111283000Y-73093929D01*
X111432958Y-73455958D01*
X111710042Y-73733042D01*
X112072071Y-73883000D01*
X112463929Y-73883000D01*
X112825958Y-73733042D01*
X113103042Y-73455958D01*
X113253000Y-73093929D01*
X113253000Y-72956071D01*
X113823000Y-72956071D01*
X113823000Y-73347929D01*
X113972958Y-73709958D01*
X114250042Y-73987042D01*
X114612071Y-74137000D01*
X115003929Y-74137000D01*
X115365958Y-73987042D01*
X115570000Y-73783000D01*
X115774042Y-73987042D01*
X116136071Y-74137000D01*
X116527929Y-74137000D01*
X116889958Y-73987042D01*
X117167042Y-73709958D01*
X117317000Y-73347929D01*
X117317000Y-72956071D01*
X118395000Y-72956071D01*
X118395000Y-73347929D01*
X118544958Y-73709958D01*
X118822042Y-73987042D01*
X119184071Y-74137000D01*
X119575929Y-74137000D01*
X119937958Y-73987042D01*
X120215042Y-73709958D01*
X120365000Y-73347929D01*
X120365000Y-72956071D01*
X120328105Y-72867000D01*
X120337929Y-72867000D01*
X120699958Y-72717042D01*
X120977042Y-72439958D01*
X121127000Y-72077929D01*
X121127000Y-71686071D01*
X120977042Y-71324042D01*
X120699958Y-71046958D01*
X120337929Y-70897000D01*
X119946071Y-70897000D01*
X119584042Y-71046958D01*
X119306958Y-71324042D01*
X119157000Y-71686071D01*
X119157000Y-72077929D01*
X119193895Y-72167000D01*
X119184071Y-72167000D01*
X118822042Y-72316958D01*
X118544958Y-72594042D01*
X118395000Y-72956071D01*
X117317000Y-72956071D01*
X117167042Y-72594042D01*
X116889958Y-72316958D01*
X116527929Y-72167000D01*
X116136071Y-72167000D01*
X115774042Y-72316958D01*
X115570000Y-72521000D01*
X115365958Y-72316958D01*
X115003929Y-72167000D01*
X114612071Y-72167000D01*
X114250042Y-72316958D01*
X113972958Y-72594042D01*
X113823000Y-72956071D01*
X113253000Y-72956071D01*
X113253000Y-72702071D01*
X113180346Y-72526670D01*
X113333958Y-72463042D01*
X113611042Y-72185958D01*
X113761000Y-71823929D01*
X113761000Y-71432071D01*
X113611042Y-71070042D01*
X113333958Y-70792958D01*
X113037284Y-70670071D01*
X125253004Y-70670071D01*
X125253004Y-71061929D01*
X125402962Y-71423958D01*
X125680046Y-71701042D01*
X126015000Y-71839785D01*
X126015000Y-71965931D01*
X126164958Y-72327960D01*
X126442042Y-72605044D01*
X126804071Y-72755002D01*
X127195929Y-72755002D01*
X127557958Y-72605044D01*
X127624546Y-72538456D01*
X127688958Y-72693958D01*
X127966042Y-72971042D01*
X128047000Y-73004576D01*
X128047000Y-73347929D01*
X128196958Y-73709958D01*
X128474042Y-73987042D01*
X128836071Y-74137000D01*
X129227929Y-74137000D01*
X129589958Y-73987042D01*
X129867042Y-73709958D01*
X129868395Y-73706692D01*
X129974958Y-73963958D01*
X130179000Y-74168000D01*
X129974958Y-74372042D01*
X129825000Y-74734071D01*
X129825000Y-75125929D01*
X129974958Y-75487958D01*
X130252042Y-75765042D01*
X130614071Y-75915000D01*
X131005929Y-75915000D01*
X131367958Y-75765042D01*
X131645042Y-75487958D01*
X131787071Y-75145071D01*
X132129958Y-75003042D01*
X132407042Y-74725958D01*
X132557000Y-74363929D01*
X132557000Y-74223495D01*
X132900071Y-74365600D01*
X133291929Y-74365600D01*
X133625712Y-74227342D01*
X133729161Y-74747418D01*
X134057375Y-75238625D01*
X134075619Y-75250816D01*
X134030235Y-75259843D01*
X133820191Y-75400191D01*
X133679843Y-75610235D01*
X133630560Y-75858000D01*
X133630560Y-77558000D01*
X133679843Y-77805765D01*
X133820191Y-78015809D01*
X133898720Y-78068280D01*
X133784958Y-78182042D01*
X133635000Y-78544071D01*
X133635000Y-78935929D01*
X133784958Y-79297958D01*
X134062042Y-79575042D01*
X134175877Y-79622194D01*
X134057375Y-79701375D01*
X133729161Y-80192582D01*
X133632671Y-80677671D01*
X133399958Y-80444958D01*
X133037929Y-80295000D01*
X132646071Y-80295000D01*
X132284042Y-80444958D01*
X132006958Y-80722042D01*
X131857000Y-81084071D01*
X131857000Y-81475929D01*
X132006958Y-81837958D01*
X132284042Y-82115042D01*
X132646071Y-82265000D01*
X133037929Y-82265000D01*
X133399958Y-82115042D01*
X133677042Y-81837958D01*
X133821396Y-81489458D01*
X134057375Y-81842625D01*
X134376478Y-82055843D01*
X134246642Y-82116817D01*
X133856355Y-82545076D01*
X133686524Y-82955110D01*
X133807845Y-83185000D01*
X135001000Y-83185000D01*
X135001000Y-83165000D01*
X135255000Y-83165000D01*
X135255000Y-83185000D01*
X136448155Y-83185000D01*
X136569476Y-82955110D01*
X136399645Y-82545076D01*
X136009358Y-82116817D01*
X135879522Y-82055843D01*
X136198625Y-81842625D01*
X136526839Y-81351418D01*
X136642092Y-80772000D01*
X136526839Y-80192582D01*
X136198625Y-79701375D01*
X135707418Y-79373161D01*
X135434188Y-79318812D01*
X135455042Y-79297958D01*
X135605000Y-78935929D01*
X135605000Y-78544071D01*
X135464734Y-78205440D01*
X135978000Y-78205440D01*
X136225765Y-78156157D01*
X136435809Y-78015809D01*
X136576157Y-77805765D01*
X136625440Y-77558000D01*
X136625440Y-75858000D01*
X136576157Y-75610235D01*
X136435809Y-75400191D01*
X136225765Y-75259843D01*
X136180381Y-75250816D01*
X136198625Y-75238625D01*
X136526839Y-74747418D01*
X136642092Y-74168000D01*
X136526839Y-73588582D01*
X136198625Y-73097375D01*
X135900239Y-72898000D01*
X136198625Y-72698625D01*
X136526839Y-72207418D01*
X136642092Y-71628000D01*
X136526839Y-71048582D01*
X136198625Y-70557375D01*
X135707418Y-70229161D01*
X135274256Y-70143000D01*
X134981744Y-70143000D01*
X134548582Y-70229161D01*
X134057375Y-70557375D01*
X133729161Y-71048582D01*
X133613908Y-71628000D01*
X133729161Y-72207418D01*
X134057375Y-72698625D01*
X134355761Y-72898000D01*
X134057375Y-73097375D01*
X134049637Y-73108955D01*
X133931042Y-72822642D01*
X133653958Y-72545558D01*
X133291929Y-72395600D01*
X132900071Y-72395600D01*
X132538042Y-72545558D01*
X132260958Y-72822642D01*
X132111000Y-73184671D01*
X132111000Y-73325105D01*
X131787071Y-73190929D01*
X131645042Y-72848042D01*
X131367958Y-72570958D01*
X131005929Y-72421000D01*
X130614071Y-72421000D01*
X130252042Y-72570958D01*
X129974958Y-72848042D01*
X129973605Y-72851308D01*
X129867042Y-72594042D01*
X129589958Y-72316958D01*
X129509000Y-72283424D01*
X129509000Y-71940071D01*
X129359042Y-71578042D01*
X129081958Y-71300958D01*
X128719929Y-71151000D01*
X128328071Y-71151000D01*
X127966042Y-71300958D01*
X127899454Y-71367546D01*
X127835042Y-71212044D01*
X127557958Y-70934960D01*
X127223004Y-70796217D01*
X127223004Y-70670071D01*
X127073046Y-70308042D01*
X126795962Y-70030958D01*
X126433933Y-69881000D01*
X126042075Y-69881000D01*
X125680046Y-70030958D01*
X125402962Y-70308042D01*
X125253004Y-70670071D01*
X113037284Y-70670071D01*
X112971929Y-70643000D01*
X112580071Y-70643000D01*
X112218042Y-70792958D01*
X111940958Y-71070042D01*
X111791000Y-71432071D01*
X111791000Y-71823929D01*
X111863654Y-71999330D01*
X111710042Y-72062958D01*
X111432958Y-72340042D01*
X111283000Y-72702071D01*
X110967000Y-72702071D01*
X110817042Y-72340042D01*
X110539958Y-72062958D01*
X110177929Y-71913000D01*
X109786071Y-71913000D01*
X109424042Y-72062958D01*
X109199307Y-72287693D01*
X108907929Y-72167000D01*
X108516071Y-72167000D01*
X108154042Y-72316958D01*
X107876958Y-72594042D01*
X107727000Y-72956071D01*
X104147284Y-72956071D01*
X104081929Y-72929000D01*
X103690071Y-72929000D01*
X103328042Y-73078958D01*
X103050958Y-73356042D01*
X102901000Y-73718071D01*
X102818000Y-73718071D01*
X102818000Y-71686071D01*
X104933000Y-71686071D01*
X104933000Y-72077929D01*
X105082958Y-72439958D01*
X105360042Y-72717042D01*
X105722071Y-72867000D01*
X106113929Y-72867000D01*
X106475958Y-72717042D01*
X106753042Y-72439958D01*
X106903000Y-72077929D01*
X106903000Y-71734576D01*
X106983958Y-71701042D01*
X107261042Y-71423958D01*
X107411000Y-71061929D01*
X107411000Y-70670071D01*
X107261042Y-70308042D01*
X106983958Y-70030958D01*
X106621929Y-69881000D01*
X106230071Y-69881000D01*
X105868042Y-70030958D01*
X105590958Y-70308042D01*
X105441000Y-70670071D01*
X105441000Y-71013424D01*
X105360042Y-71046958D01*
X105082958Y-71324042D01*
X104933000Y-71686071D01*
X102818000Y-71686071D01*
X102818000Y-69400071D01*
X114839000Y-69400071D01*
X114839000Y-69791929D01*
X114988958Y-70153958D01*
X115266042Y-70431042D01*
X115628071Y-70581000D01*
X116019929Y-70581000D01*
X116381958Y-70431042D01*
X116659042Y-70153958D01*
X116809000Y-69791929D01*
X116809000Y-69400071D01*
X116659042Y-69038042D01*
X116381958Y-68760958D01*
X116019929Y-68611000D01*
X115628071Y-68611000D01*
X115266042Y-68760958D01*
X114988958Y-69038042D01*
X114839000Y-69400071D01*
X102818000Y-69400071D01*
X102818000Y-67622071D01*
X112552998Y-67622071D01*
X112552998Y-68013929D01*
X112702956Y-68375958D01*
X112980040Y-68653042D01*
X113342069Y-68803000D01*
X113733927Y-68803000D01*
X114095956Y-68653042D01*
X114373040Y-68375958D01*
X114506453Y-68053871D01*
X121163600Y-68053871D01*
X121163600Y-68445729D01*
X121313558Y-68807758D01*
X121590642Y-69084842D01*
X121952671Y-69234800D01*
X122344529Y-69234800D01*
X122706558Y-69084842D01*
X122983642Y-68807758D01*
X123133600Y-68445729D01*
X123133600Y-68053871D01*
X122983642Y-67691842D01*
X122706558Y-67414758D01*
X122344529Y-67264800D01*
X121952671Y-67264800D01*
X121590642Y-67414758D01*
X121313558Y-67691842D01*
X121163600Y-68053871D01*
X114506453Y-68053871D01*
X114522998Y-68013929D01*
X114522998Y-67622071D01*
X114373040Y-67260042D01*
X114095956Y-66982958D01*
X113733927Y-66833000D01*
X113342069Y-66833000D01*
X112980040Y-66982958D01*
X112702956Y-67260042D01*
X112552998Y-67622071D01*
X102818000Y-67622071D01*
X102818000Y-66098071D01*
X110775000Y-66098071D01*
X110775000Y-66489929D01*
X110924958Y-66851958D01*
X111202042Y-67129042D01*
X111564071Y-67279000D01*
X111955929Y-67279000D01*
X112317958Y-67129042D01*
X112595042Y-66851958D01*
X112745000Y-66489929D01*
X112745000Y-66098071D01*
X112595042Y-65736042D01*
X112449071Y-65590071D01*
X113823000Y-65590071D01*
X113823000Y-65981929D01*
X113972958Y-66343958D01*
X114250042Y-66621042D01*
X114612071Y-66771000D01*
X115003929Y-66771000D01*
X115365958Y-66621042D01*
X115643042Y-66343958D01*
X115793000Y-65981929D01*
X115793000Y-65590071D01*
X115643042Y-65228042D01*
X115365958Y-64950958D01*
X115003929Y-64801000D01*
X114612071Y-64801000D01*
X114250042Y-64950958D01*
X113972958Y-65228042D01*
X113823000Y-65590071D01*
X112449071Y-65590071D01*
X112317958Y-65458958D01*
X111955929Y-65309000D01*
X111564071Y-65309000D01*
X111202042Y-65458958D01*
X110924958Y-65736042D01*
X110775000Y-66098071D01*
X102818000Y-66098071D01*
X102818000Y-64693407D01*
X102928071Y-64739000D01*
X103319929Y-64739000D01*
X103681958Y-64589042D01*
X103703191Y-64567809D01*
X122795462Y-64567809D01*
X122795462Y-64959667D01*
X122945420Y-65321696D01*
X123222504Y-65598780D01*
X123584533Y-65748738D01*
X123976391Y-65748738D01*
X124338420Y-65598780D01*
X124615504Y-65321696D01*
X124765462Y-64959667D01*
X124765462Y-64828071D01*
X124857000Y-64828071D01*
X124857000Y-65219929D01*
X125006958Y-65581958D01*
X125020500Y-65595500D01*
X125006958Y-65609042D01*
X124857000Y-65971071D01*
X124857000Y-66362929D01*
X125006958Y-66724958D01*
X125284042Y-67002042D01*
X125646071Y-67152000D01*
X126037929Y-67152000D01*
X126399958Y-67002042D01*
X126541929Y-66860071D01*
X130079000Y-66860071D01*
X130079000Y-67251929D01*
X130228958Y-67613958D01*
X130506042Y-67891042D01*
X130868071Y-68041000D01*
X131259929Y-68041000D01*
X131621958Y-67891042D01*
X131899042Y-67613958D01*
X132049000Y-67251929D01*
X132049000Y-66860071D01*
X131899042Y-66498042D01*
X131621958Y-66220958D01*
X131259929Y-66071000D01*
X130868071Y-66071000D01*
X130506042Y-66220958D01*
X130228958Y-66498042D01*
X130079000Y-66860071D01*
X126541929Y-66860071D01*
X126677042Y-66724958D01*
X126827000Y-66362929D01*
X126827000Y-65971071D01*
X126677042Y-65609042D01*
X126663500Y-65595500D01*
X126677042Y-65581958D01*
X126827000Y-65219929D01*
X126827000Y-64828071D01*
X126677042Y-64466042D01*
X126399958Y-64188958D01*
X126037929Y-64039000D01*
X125646071Y-64039000D01*
X125284042Y-64188958D01*
X125006958Y-64466042D01*
X124857000Y-64828071D01*
X124765462Y-64828071D01*
X124765462Y-64567809D01*
X124615504Y-64205780D01*
X124338420Y-63928696D01*
X124056864Y-63812071D01*
X127034902Y-63812071D01*
X127034902Y-64203929D01*
X127184860Y-64565958D01*
X127461944Y-64843042D01*
X127823973Y-64993000D01*
X128215831Y-64993000D01*
X128577860Y-64843042D01*
X128854944Y-64565958D01*
X129004902Y-64203929D01*
X129004902Y-64008000D01*
X133613908Y-64008000D01*
X133729161Y-64587418D01*
X134057375Y-65078625D01*
X134355761Y-65278000D01*
X134057375Y-65477375D01*
X133729161Y-65968582D01*
X133613908Y-66548000D01*
X133729161Y-67127418D01*
X134057375Y-67618625D01*
X134548582Y-67946839D01*
X134981744Y-68033000D01*
X135274256Y-68033000D01*
X135707418Y-67946839D01*
X136198625Y-67618625D01*
X136526839Y-67127418D01*
X136642092Y-66548000D01*
X136526839Y-65968582D01*
X136198625Y-65477375D01*
X135900239Y-65278000D01*
X136198625Y-65078625D01*
X136526839Y-64587418D01*
X136642092Y-64008000D01*
X136526839Y-63428582D01*
X136198625Y-62937375D01*
X136180381Y-62925184D01*
X136225765Y-62916157D01*
X136435809Y-62775809D01*
X136576157Y-62565765D01*
X136625440Y-62318000D01*
X136625440Y-60618000D01*
X136576157Y-60370235D01*
X136435809Y-60160191D01*
X136225765Y-60019843D01*
X135978000Y-59970560D01*
X134278000Y-59970560D01*
X134030235Y-60019843D01*
X133820191Y-60160191D01*
X133679843Y-60370235D01*
X133630560Y-60618000D01*
X133630560Y-62318000D01*
X133679843Y-62565765D01*
X133820191Y-62775809D01*
X134030235Y-62916157D01*
X134075619Y-62925184D01*
X134057375Y-62937375D01*
X133729161Y-63428582D01*
X133613908Y-64008000D01*
X129004902Y-64008000D01*
X129004902Y-63812071D01*
X128854944Y-63450042D01*
X128577860Y-63172958D01*
X128215831Y-63023000D01*
X127823973Y-63023000D01*
X127461944Y-63172958D01*
X127184860Y-63450042D01*
X127034902Y-63812071D01*
X124056864Y-63812071D01*
X123976391Y-63778738D01*
X123584533Y-63778738D01*
X123222504Y-63928696D01*
X122945420Y-64205780D01*
X122795462Y-64567809D01*
X103703191Y-64567809D01*
X103959042Y-64311958D01*
X104109000Y-63949929D01*
X104109000Y-63558071D01*
X103959042Y-63196042D01*
X103681958Y-62918958D01*
X103319929Y-62769000D01*
X102928071Y-62769000D01*
X102818000Y-62814593D01*
X102818000Y-62288071D01*
X108489000Y-62288071D01*
X108489000Y-62679929D01*
X108638958Y-63041958D01*
X108916042Y-63319042D01*
X109278071Y-63469000D01*
X109669929Y-63469000D01*
X110031958Y-63319042D01*
X110309042Y-63041958D01*
X110459000Y-62679929D01*
X110459000Y-62288071D01*
X110309042Y-61926042D01*
X110031958Y-61648958D01*
X109669929Y-61499000D01*
X109278071Y-61499000D01*
X108916042Y-61648958D01*
X108638958Y-61926042D01*
X108489000Y-62288071D01*
X102818000Y-62288071D01*
X102818000Y-61031000D01*
X103074042Y-61287042D01*
X103436071Y-61437000D01*
X103827929Y-61437000D01*
X104189958Y-61287042D01*
X104467042Y-61009958D01*
X104617000Y-60647929D01*
X104617000Y-60256071D01*
X104467042Y-59894042D01*
X104189958Y-59616958D01*
X103827929Y-59467000D01*
X103436071Y-59467000D01*
X103074042Y-59616958D01*
X102818000Y-59873000D01*
X102818000Y-57208071D01*
X113823000Y-57208071D01*
X113823000Y-57599929D01*
X113972958Y-57961958D01*
X114250042Y-58239042D01*
X114612071Y-58389000D01*
X115003929Y-58389000D01*
X115365958Y-58239042D01*
X115380929Y-58224071D01*
X122967000Y-58224071D01*
X122967000Y-58615929D01*
X123116958Y-58977958D01*
X123394042Y-59255042D01*
X123756071Y-59405000D01*
X124135345Y-59405000D01*
X124158358Y-59460558D01*
X124435442Y-59737642D01*
X124797471Y-59887600D01*
X125189329Y-59887600D01*
X125551358Y-59737642D01*
X125828442Y-59460558D01*
X125919771Y-59240071D01*
X128047000Y-59240071D01*
X128047000Y-59631929D01*
X128196958Y-59993958D01*
X128474042Y-60271042D01*
X128836071Y-60421000D01*
X129227929Y-60421000D01*
X129589958Y-60271042D01*
X129867042Y-59993958D01*
X130017000Y-59631929D01*
X130017000Y-59240071D01*
X131603000Y-59240071D01*
X131603000Y-59631929D01*
X131752958Y-59993958D01*
X132030042Y-60271042D01*
X132392071Y-60421000D01*
X132783929Y-60421000D01*
X133145958Y-60271042D01*
X133423042Y-59993958D01*
X133573000Y-59631929D01*
X133573000Y-59240071D01*
X133423042Y-58878042D01*
X133145958Y-58600958D01*
X132783929Y-58451000D01*
X132392071Y-58451000D01*
X132030042Y-58600958D01*
X131752958Y-58878042D01*
X131603000Y-59240071D01*
X130017000Y-59240071D01*
X129867042Y-58878042D01*
X129589958Y-58600958D01*
X129227929Y-58451000D01*
X128836071Y-58451000D01*
X128474042Y-58600958D01*
X128196958Y-58878042D01*
X128047000Y-59240071D01*
X125919771Y-59240071D01*
X125978400Y-59098529D01*
X125978400Y-58706671D01*
X125828442Y-58344642D01*
X125551358Y-58067558D01*
X125189329Y-57917600D01*
X124810055Y-57917600D01*
X124787042Y-57862042D01*
X124509958Y-57584958D01*
X124147929Y-57435000D01*
X123756071Y-57435000D01*
X123394042Y-57584958D01*
X123116958Y-57862042D01*
X122967000Y-58224071D01*
X115380929Y-58224071D01*
X115643042Y-57961958D01*
X115793000Y-57599929D01*
X115793000Y-57208071D01*
X115643042Y-56846042D01*
X115365958Y-56568958D01*
X115003929Y-56419000D01*
X114612071Y-56419000D01*
X114250042Y-56568958D01*
X113972958Y-56846042D01*
X113823000Y-57208071D01*
X102818000Y-57208071D01*
X102818000Y-56192071D01*
X126523000Y-56192071D01*
X126523000Y-56583929D01*
X126672958Y-56945958D01*
X126950042Y-57223042D01*
X127312071Y-57373000D01*
X127703929Y-57373000D01*
X128065958Y-57223042D01*
X128343042Y-56945958D01*
X128493000Y-56583929D01*
X128493000Y-56192071D01*
X128343042Y-55830042D01*
X128082467Y-55569467D01*
X128328071Y-55671200D01*
X128719929Y-55671200D01*
X129081958Y-55521242D01*
X129359042Y-55244158D01*
X129509000Y-54882129D01*
X129509000Y-54490271D01*
X129359042Y-54128242D01*
X129081958Y-53851158D01*
X128719929Y-53701200D01*
X128328071Y-53701200D01*
X127966042Y-53851158D01*
X127688958Y-54128242D01*
X127539000Y-54490271D01*
X127539000Y-54882129D01*
X127688958Y-55244158D01*
X127949533Y-55504733D01*
X127703929Y-55403000D01*
X127312071Y-55403000D01*
X126950042Y-55552958D01*
X126672958Y-55830042D01*
X126523000Y-56192071D01*
X102818000Y-56192071D01*
X102818000Y-54160071D01*
X107727000Y-54160071D01*
X107727000Y-54551929D01*
X107876958Y-54913958D01*
X108154042Y-55191042D01*
X108516071Y-55341000D01*
X108907929Y-55341000D01*
X109269958Y-55191042D01*
X109547042Y-54913958D01*
X109697000Y-54551929D01*
X109697000Y-54414071D01*
X123475000Y-54414071D01*
X123475000Y-54805929D01*
X123624958Y-55167958D01*
X123902042Y-55445042D01*
X124264071Y-55595000D01*
X124655929Y-55595000D01*
X125017958Y-55445042D01*
X125295042Y-55167958D01*
X125445000Y-54805929D01*
X125445000Y-54414071D01*
X125295042Y-54052042D01*
X125017958Y-53774958D01*
X124655929Y-53625000D01*
X124264071Y-53625000D01*
X123902042Y-53774958D01*
X123624958Y-54052042D01*
X123475000Y-54414071D01*
X109697000Y-54414071D01*
X109697000Y-54160071D01*
X109591346Y-53905000D01*
X110093004Y-53905000D01*
X110767444Y-53625638D01*
X111283638Y-53109444D01*
X111479715Y-52636071D01*
X121951000Y-52636071D01*
X121951000Y-53027929D01*
X122100958Y-53389958D01*
X122378042Y-53667042D01*
X122740071Y-53817000D01*
X123131929Y-53817000D01*
X123493958Y-53667042D01*
X123771042Y-53389958D01*
X123921000Y-53027929D01*
X123921000Y-52636071D01*
X123771042Y-52274042D01*
X123493958Y-51996958D01*
X123131929Y-51847000D01*
X122740071Y-51847000D01*
X122378042Y-51996958D01*
X122100958Y-52274042D01*
X121951000Y-52636071D01*
X111479715Y-52636071D01*
X111563000Y-52435004D01*
X111563000Y-51704996D01*
X124393000Y-51704996D01*
X124393000Y-52435004D01*
X124672362Y-53109444D01*
X125188556Y-53625638D01*
X125862996Y-53905000D01*
X126593004Y-53905000D01*
X127267444Y-53625638D01*
X127783638Y-53109444D01*
X128063000Y-52435004D01*
X128063000Y-51704996D01*
X127954176Y-51442271D01*
X131171200Y-51442271D01*
X131171200Y-51834129D01*
X131321158Y-52196158D01*
X131598242Y-52473242D01*
X131960271Y-52623200D01*
X132352129Y-52623200D01*
X132714158Y-52473242D01*
X132991242Y-52196158D01*
X133141200Y-51834129D01*
X133141200Y-51442271D01*
X132991242Y-51080242D01*
X132714158Y-50803158D01*
X132352129Y-50653200D01*
X131960271Y-50653200D01*
X131598242Y-50803158D01*
X131321158Y-51080242D01*
X131171200Y-51442271D01*
X127954176Y-51442271D01*
X127783638Y-51030556D01*
X127267444Y-50514362D01*
X126593004Y-50235000D01*
X125862996Y-50235000D01*
X125188556Y-50514362D01*
X124672362Y-51030556D01*
X124393000Y-51704996D01*
X111563000Y-51704996D01*
X111283638Y-51030556D01*
X110767444Y-50514362D01*
X110093004Y-50235000D01*
X109362996Y-50235000D01*
X108688556Y-50514362D01*
X108172362Y-51030556D01*
X107893000Y-51704996D01*
X107893000Y-52435004D01*
X108172362Y-53109444D01*
X108457980Y-53395062D01*
X108154042Y-53520958D01*
X107876958Y-53798042D01*
X107727000Y-54160071D01*
X102818000Y-54160071D01*
X102818000Y-47048071D01*
X107219000Y-47048071D01*
X107219000Y-47439929D01*
X107368958Y-47801958D01*
X107646042Y-48079042D01*
X108008071Y-48229000D01*
X108399929Y-48229000D01*
X108761958Y-48079042D01*
X109039042Y-47801958D01*
X109189000Y-47439929D01*
X109189000Y-47048071D01*
X111283000Y-47048071D01*
X111283000Y-47439929D01*
X111432958Y-47801958D01*
X111710042Y-48079042D01*
X112072071Y-48229000D01*
X112463929Y-48229000D01*
X112825958Y-48079042D01*
X112900058Y-48004942D01*
X113134008Y-48238892D01*
X113725751Y-48484000D01*
X114366249Y-48484000D01*
X114957992Y-48238892D01*
X115410892Y-47785992D01*
X115656000Y-47194249D01*
X115656000Y-46553751D01*
X119936000Y-46553751D01*
X119936000Y-47194249D01*
X120181108Y-47785992D01*
X120634008Y-48238892D01*
X121225751Y-48484000D01*
X121866249Y-48484000D01*
X122457992Y-48238892D01*
X122910892Y-47785992D01*
X123156000Y-47194249D01*
X123156000Y-47048071D01*
X123983000Y-47048071D01*
X123983000Y-47439929D01*
X124132958Y-47801958D01*
X124410042Y-48079042D01*
X124772071Y-48229000D01*
X125163929Y-48229000D01*
X125525958Y-48079042D01*
X125803042Y-47801958D01*
X125953000Y-47439929D01*
X125953000Y-47048071D01*
X125803042Y-46686042D01*
X125525958Y-46408958D01*
X125163929Y-46259000D01*
X124772071Y-46259000D01*
X124410042Y-46408958D01*
X124132958Y-46686042D01*
X123983000Y-47048071D01*
X123156000Y-47048071D01*
X123156000Y-46553751D01*
X122910892Y-45962008D01*
X122457992Y-45509108D01*
X121866249Y-45264000D01*
X121225751Y-45264000D01*
X120634008Y-45509108D01*
X120181108Y-45962008D01*
X119936000Y-46553751D01*
X115656000Y-46553751D01*
X115410892Y-45962008D01*
X114957992Y-45509108D01*
X114366249Y-45264000D01*
X113725751Y-45264000D01*
X113134008Y-45509108D01*
X112681108Y-45962008D01*
X112544300Y-46292291D01*
X112463929Y-46259000D01*
X112072071Y-46259000D01*
X111710042Y-46408958D01*
X111432958Y-46686042D01*
X111283000Y-47048071D01*
X109189000Y-47048071D01*
X109039042Y-46686042D01*
X108761958Y-46408958D01*
X108399929Y-46259000D01*
X108008071Y-46259000D01*
X107646042Y-46408958D01*
X107368958Y-46686042D01*
X107219000Y-47048071D01*
X102818000Y-47048071D01*
X102818000Y-42826129D01*
X110148500Y-42826129D01*
X110148500Y-43421871D01*
X110376481Y-43972266D01*
X110797734Y-44393519D01*
X111348129Y-44621500D01*
X111943871Y-44621500D01*
X112494266Y-44393519D01*
X112915519Y-43972266D01*
X113143500Y-43421871D01*
X113143500Y-42826129D01*
X112915519Y-42275734D01*
X112494266Y-41854481D01*
X111943871Y-41626500D01*
X111348129Y-41626500D01*
X110797734Y-41854481D01*
X110376481Y-42275734D01*
X110148500Y-42826129D01*
X102818000Y-42826129D01*
X102818000Y-38302000D01*
X108300918Y-38302000D01*
X108172362Y-38430556D01*
G04 #@! TD*
M02*
